<?xml version="1.0" encoding="UTF-8" standalone="no"?><!DOCTYPE svg PUBLIC "-//W3C//DTD SVG 1.1//EN" "http://www.w3.org/Graphics/SVG/1.1/DTD/svg11.dtd"><svg width="100%" height="100%" viewBox="0 0 100 100" version="1.1" xmlns="http://www.w3.org/2000/svg" xmlns:xlink="http://www.w3.org/1999/xlink" xml:space="preserve" xmlns:serif="http://www.serif.com/" style="fill-rule:evenodd;clip-rule:evenodd;stroke-linejoin:round;stroke-miterlimit:2;"><path d="M95,4.276l0,91.287l-90,0.161l0,-91.448l90,0Zm-6.354,6.756l-76.649,-0.08l0,78.016l76.649,0.161l0,-78.097Zm-38.123,31.126c2.305,0 4.209,0.778 5.71,2.333c1.502,1.555 2.252,3.538 2.252,5.951c0,2.145 -0.831,4.008 -2.493,5.59c-1.662,1.582 -3.619,2.373 -5.871,2.373c-2.306,0 -4.196,-0.778 -5.671,-2.333c-1.474,-1.555 -2.211,-3.512 -2.211,-5.871c0,-2.252 0.804,-4.155 2.412,-5.71c1.609,-1.555 3.566,-2.333 5.872,-2.333Zm-18.579,-18.74c2.305,0 4.209,0.778 5.71,2.333c1.501,1.555 2.252,3.539 2.252,5.951c0,2.145 -0.831,4.008 -2.493,5.59c-1.662,1.582 -3.619,2.373 -5.871,2.373c-2.306,0 -4.196,-0.778 -5.671,-2.333c-1.474,-1.555 -2.211,-3.512 -2.211,-5.871c0,-2.252 0.804,-4.155 2.412,-5.71c1.609,-1.555 3.566,-2.333 5.872,-2.333Zm36.273,37.48c2.306,0 4.209,0.778 5.711,2.333c1.501,1.555 2.252,3.538 2.252,5.951c0,2.145 -0.831,4.008 -2.494,5.59c-1.662,1.582 -3.619,2.373 -5.871,2.373c-2.306,0 -4.196,-0.778 -5.67,-2.333c-1.475,-1.555 -2.212,-3.512 -2.212,-5.871c0,-2.252 0.804,-4.155 2.413,-5.71c1.608,-1.555 3.566,-2.333 5.871,-2.333Z" style="fill-rule:nonzero;"/></svg>