<?xml version="1.0" encoding="UTF-8" standalone="no"?><!DOCTYPE svg PUBLIC "-//W3C//DTD SVG 1.1//EN" "http://www.w3.org/Graphics/SVG/1.1/DTD/svg11.dtd"><svg width="100%" height="100%" viewBox="0 0 600 100" version="1.1" xmlns="http://www.w3.org/2000/svg" xmlns:xlink="http://www.w3.org/1999/xlink" xml:space="preserve" xmlns:serif="http://www.serif.com/" style="fill-rule:evenodd;clip-rule:evenodd;stroke-linejoin:round;stroke-miterlimit:2;"><path d="M49.96,42.721c2.305,0 4.209,0.778 5.71,2.333c1.502,1.555 2.252,3.538 2.252,5.951c0,2.145 -0.831,4.008 -2.493,5.59c-1.662,1.582 -3.619,2.373 -5.871,2.373c-2.306,0 -4.196,-0.778 -5.671,-2.333c-1.474,-1.555 -2.211,-3.512 -2.211,-5.871c0,-2.252 0.804,-4.155 2.412,-5.71c1.609,-1.555 3.566,-2.333 5.872,-2.333Z" style="fill-rule:nonzero;"/><path d="M168.217,60.898c2.306,0 4.209,0.778 5.711,2.333c1.501,1.555 2.252,3.538 2.252,5.951c0,2.145 -0.831,4.008 -2.494,5.59c-1.662,1.582 -3.619,2.373 -5.871,2.373c-2.306,0 -4.196,-0.778 -5.67,-2.333c-1.475,-1.555 -2.212,-3.512 -2.212,-5.871c0,-2.252 0.804,-4.155 2.413,-5.71c1.608,-1.555 3.566,-2.333 5.871,-2.333Zm-36.273,-37.48c2.305,0 4.209,0.778 5.71,2.333c1.501,1.555 2.252,3.539 2.252,5.951c0,2.145 -0.831,4.008 -2.493,5.59c-1.662,1.582 -3.619,2.373 -5.871,2.373c-2.306,0 -4.196,-0.778 -5.671,-2.333c-1.474,-1.555 -2.211,-3.512 -2.211,-5.871c0,-2.252 0.804,-4.155 2.412,-5.71c1.609,-1.555 3.566,-2.333 5.872,-2.333Z" style="fill-rule:nonzero;"/><path d="M250.523,42.158c2.305,0 4.209,0.778 5.71,2.333c1.502,1.555 2.252,3.538 2.252,5.951c0,2.145 -0.831,4.008 -2.493,5.59c-1.662,1.582 -3.619,2.373 -5.871,2.373c-2.306,0 -4.196,-0.778 -5.671,-2.333c-1.474,-1.555 -2.211,-3.512 -2.211,-5.871c0,-2.252 0.804,-4.155 2.412,-5.71c1.609,-1.555 3.566,-2.333 5.872,-2.333Zm-18.579,-18.74c2.305,0 4.209,0.778 5.71,2.333c1.501,1.555 2.252,3.539 2.252,5.951c0,2.145 -0.831,4.008 -2.493,5.59c-1.662,1.582 -3.619,2.373 -5.871,2.373c-2.306,0 -4.196,-0.778 -5.671,-2.333c-1.474,-1.555 -2.211,-3.512 -2.211,-5.871c0,-2.252 0.804,-4.155 2.412,-5.71c1.609,-1.555 3.566,-2.333 5.872,-2.333Zm36.273,37.48c2.306,0 4.209,0.778 5.711,2.333c1.501,1.555 2.252,3.538 2.252,5.951c0,2.145 -0.831,4.008 -2.494,5.59c-1.662,1.582 -3.619,2.373 -5.871,2.373c-2.306,0 -4.196,-0.778 -5.67,-2.333c-1.475,-1.555 -2.212,-3.512 -2.212,-5.871c0,-2.252 0.804,-4.155 2.413,-5.71c1.608,-1.555 3.566,-2.333 5.871,-2.333Z" style="fill-rule:nonzero;"/><path d="M331.944,23.418c2.305,0 4.209,0.778 5.71,2.333c1.501,1.555 2.252,3.539 2.252,5.951c0,2.145 -0.831,4.008 -2.493,5.59c-1.662,1.582 -3.619,2.373 -5.871,2.373c-2.306,0 -4.196,-0.778 -5.671,-2.333c-1.474,-1.555 -2.211,-3.512 -2.211,-5.871c0,-2.252 0.804,-4.155 2.412,-5.71c1.609,-1.555 3.566,-2.333 5.872,-2.333Zm36.273,37.48c2.306,0 4.209,0.778 5.711,2.333c1.501,1.555 2.252,3.538 2.252,5.951c0,2.145 -0.831,4.008 -2.494,5.59c-1.662,1.582 -3.619,2.373 -5.871,2.373c-2.306,0 -4.196,-0.778 -5.67,-2.333c-1.475,-1.555 -2.212,-3.512 -2.212,-5.871c0,-2.252 0.804,-4.155 2.413,-5.71c1.608,-1.555 3.566,-2.333 5.871,-2.333Zm-0.241,-37.48c2.306,0 4.263,0.778 5.871,2.333c1.609,1.555 2.413,3.458 2.413,5.71c0,2.359 -0.737,4.316 -2.212,5.871c-1.474,1.555 -3.364,2.333 -5.67,2.333c-2.252,0 -4.209,-0.791 -5.871,-2.373c-1.662,-1.582 -2.494,-3.445 -2.494,-5.59c0,-2.412 0.751,-4.396 2.252,-5.951c1.502,-1.555 3.405,-2.333 5.711,-2.333Zm-36.274,37.48c2.306,0 4.263,0.778 5.872,2.333c1.608,1.555 2.413,3.458 2.413,5.71c0,2.359 -0.738,4.316 -2.212,5.871c-1.475,1.555 -3.365,2.333 -5.67,2.333c-2.252,0 -4.21,-0.791 -5.872,-2.373c-1.662,-1.582 -2.493,-3.445 -2.493,-5.59c0,-2.413 0.751,-4.396 2.252,-5.951c1.501,-1.555 3.405,-2.333 5.71,-2.333Z" style="fill-rule:nonzero;"/><path d="M449.397,42.158c2.305,0 4.263,0.778 5.871,2.333c1.609,1.555 2.413,3.458 2.413,5.71c0,2.359 -0.737,4.316 -2.212,5.871c-1.474,1.555 -3.364,2.333 -5.67,2.333c-2.252,0 -4.209,-0.791 -5.871,-2.373c-1.663,-1.582 -2.494,-3.445 -2.494,-5.59c0,-2.413 0.751,-4.396 2.252,-5.951c1.502,-1.555 3.405,-2.333 5.711,-2.333Zm18.579,-18.74c2.306,0 4.263,0.778 5.871,2.333c1.609,1.555 2.413,3.458 2.413,5.71c0,2.359 -0.737,4.316 -2.212,5.871c-1.474,1.555 -3.364,2.333 -5.67,2.333c-2.252,0 -4.209,-0.791 -5.871,-2.373c-1.662,-1.582 -2.494,-3.445 -2.494,-5.59c0,-2.412 0.751,-4.396 2.252,-5.951c1.502,-1.555 3.405,-2.333 5.711,-2.333Zm-36.274,37.48c2.306,0 4.263,0.778 5.872,2.333c1.608,1.555 2.413,3.458 2.413,5.71c0,2.359 -0.738,4.316 -2.212,5.871c-1.475,1.555 -3.365,2.333 -5.67,2.333c-2.252,0 -4.21,-0.791 -5.872,-2.373c-1.662,-1.582 -2.493,-3.445 -2.493,-5.59c0,-2.413 0.751,-4.396 2.252,-5.951c1.501,-1.555 3.405,-2.333 5.71,-2.333Zm0.242,-37.48c2.305,0 4.209,0.778 5.71,2.333c1.501,1.555 2.252,3.539 2.252,5.951c0,2.145 -0.831,4.008 -2.493,5.59c-1.662,1.582 -3.619,2.373 -5.871,2.373c-2.306,0 -4.196,-0.778 -5.671,-2.333c-1.474,-1.555 -2.211,-3.512 -2.211,-5.871c0,-2.252 0.804,-4.155 2.412,-5.71c1.609,-1.555 3.566,-2.333 5.872,-2.333Zm36.273,37.48c2.306,0 4.209,0.778 5.711,2.333c1.501,1.555 2.252,3.538 2.252,5.951c0,2.145 -0.831,4.008 -2.494,5.59c-1.662,1.582 -3.619,2.373 -5.871,2.373c-2.306,0 -4.196,-0.778 -5.67,-2.333c-1.475,-1.555 -2.212,-3.512 -2.212,-5.871c0,-2.252 0.804,-4.155 2.413,-5.71c1.608,-1.555 3.566,-2.333 5.871,-2.333Z" style="fill-rule:nonzero;"/><path d="M565.563,64.92c2.306,0 4.209,0.777 5.71,2.332c1.502,1.555 2.252,3.539 2.252,5.952c0,2.145 -0.831,4.008 -2.493,5.59c-1.662,1.581 -3.619,2.372 -5.871,2.372c-2.306,0 -4.196,-0.777 -5.67,-2.332c-1.475,-1.555 -2.212,-3.512 -2.212,-5.872c0,-2.252 0.804,-4.155 2.413,-5.71c1.608,-1.555 3.565,-2.332 5.871,-2.332Zm-0.161,-22.118c2.306,0 4.209,0.777 5.711,2.332c1.501,1.555 2.252,3.539 2.252,5.952c0,2.145 -0.831,4.008 -2.494,5.59c-1.662,1.581 -3.619,2.372 -5.871,2.372c-2.306,0 -4.196,-0.777 -5.67,-2.332c-1.475,-1.555 -2.212,-3.512 -2.212,-5.871c0,-2.253 0.804,-4.156 2.413,-5.711c1.608,-1.555 3.566,-2.332 5.871,-2.332Zm0.644,-22.44c2.305,0 4.209,0.777 5.71,2.332c1.501,1.555 2.252,3.539 2.252,5.952c0,2.145 -0.831,4.008 -2.493,5.59c-1.662,1.582 -3.62,2.373 -5.872,2.373c-2.305,0 -4.195,-0.778 -5.67,-2.333c-1.474,-1.555 -2.212,-3.512 -2.212,-5.871c0,-2.252 0.805,-4.156 2.413,-5.711c1.609,-1.555 3.566,-2.332 5.872,-2.332Zm-32.976,44.397c2.305,0 4.209,0.777 5.71,2.332c1.502,1.555 2.252,3.539 2.252,5.952c0,2.145 -0.831,4.008 -2.493,5.59c-1.662,1.581 -3.619,2.372 -5.871,2.372c-2.306,0 -4.196,-0.777 -5.671,-2.332c-1.474,-1.555 -2.211,-3.512 -2.211,-5.871c0,-2.252 0.804,-4.156 2.412,-5.711c1.609,-1.555 3.566,-2.332 5.872,-2.332Zm-0.161,-22.118c2.305,0 4.209,0.777 5.71,2.332c1.502,1.555 2.252,3.539 2.252,5.952c0,2.145 -0.831,4.008 -2.493,5.59c-1.662,1.582 -3.619,2.372 -5.871,2.372c-2.306,0 -4.196,-0.777 -5.671,-2.332c-1.474,-1.555 -2.211,-3.512 -2.211,-5.871c0,-2.252 0.804,-4.156 2.413,-5.711c1.608,-1.555 3.565,-2.332 5.871,-2.332Zm0.643,-22.44c2.306,0 4.209,0.778 5.711,2.333c1.501,1.554 2.252,3.538 2.252,5.951c0,2.145 -0.831,4.008 -2.494,5.59c-1.662,1.582 -3.619,2.373 -5.871,2.373c-2.305,0 -4.196,-0.778 -5.67,-2.333c-1.475,-1.555 -2.212,-3.512 -2.212,-5.871c0,-2.252 0.804,-4.156 2.413,-5.71c1.609,-1.555 3.566,-2.333 5.871,-2.333Z" style="fill-rule:nonzero;"/></svg>