<svg xmlns="http://www.w3.org/2000/svg" width="100%" height="100%" viewBox="0 0 32 32" fill-rule="evenodd" stroke-linejoin="round" stroke-miterlimit="2" xmlns:v="https://vecta.io/nano"><path d="M16.746 1.18c-.393.313-.873 1.138-1.063 1.824-.222.805-.292 1.616-.248 2.864l.013 1.413c-.02.238-.39 1.458-.64 2.113-.075.194-.135-.254-.154-1.136-.034-1.604-.16-3.15-.296-3.642-.225-.81-.646-1.18-1.212-1.058-.51.11-.794.43-.868.978-.03.217.016.6.158 1.348.192 1.007.313 2.523.215 2.676-.06.095-.085.058-.85-1.243-.806-1.37-1.28-1.928-2.126-2.49-.997-.665-1.833-.56-2.326.293-.215.372-.286.624-.3 1.027-.007.702.854 2.326 1.957 3.7.362.448.66.856.66.907.001.064-.36-.048-1.113-.345-1.342-.528-1.578-.583-2.173-.502-.432.06-.47.076-.627.277a.45.45 0 0 0-.109.477c.07.324.56.902 1.14 1.347.286.22.377.32.313.35-.05.022-.38.038-.736.035-.447-.003-.962.052-1.667.18-1.112.2-1.555.362-2.377.87-.98.605-1.035 1.08-.178 1.572.575.33 1.015.43 1.862.426l1.902.044 1.862.04c.89-.012 1.1.013.98.118-.113.1-4.263 2.178-6.32 3.166-.71.34-1.088.616-1.45 1.056-.395.48-.462.796-.298 1.394.31 1.12 1.103 1.378 2.68.868.343-.11.643-.19.665-.176s-.204.397-.502.85c-.535.817-.783 1.386-.884 2.037-.053.34.064.56.32.597.232.033 1.613-.433 2.28-.77l.7-.32c.062-.013.36-.225.662-.47l.6-.458c.142-.03.035.23-.443 1.083-.594 1.057-.774 1.602-.677 2.054.093.434.287.532.828.416.83-.177 2.142-.84 2.616-1.322.157-.16.53-.675.83-1.146l.92-1.4c.274-.402.46-.8.7-1.467.56-1.566.803-1.925 1.954-2.877.662-.548.66-.478-.046 1-.2.417-.49.95-.643 1.182-.167.253-.53 1.06-.903 2.005l-.982 2.417c-.67 1.554-.906 2.492-.854 3.398.03.55.175.87.492 1.103.274.2.71.166 1.188-.092.4-.214.665-.533 1.04-1.244.458-.87.577-1.24.75-2.33.167-1.06.3-1.527 1.105-3.607l.737-1.736c.073-.018.144.393.212 1.237.133 1.658.145 2.36.05 2.85-.285 1.47-.322 2.413-.14 3.56.088.55.152.775.294 1.04.274.51.822.808 1.425.777.705-.035.976-.578 1.128-2.263l.194-1.384c.03-.01.182.206.338.48.37.652.582.902.983 1.153.653.408 1.096.35 1.395-.186.355-.634.4-1.15.213-2.434l-.114-1.13c.022-.036.143.042.27.173.453.472 1.028.76 1.372.686.408-.088.97-.81 1.146-1.475.167-.632.165-1.082-.01-1.848-.088-.39-.138-.71-.112-.717s.265.106.53.247c.65.35 1.588.66 2.158.713.644.06 1.655-.146 1.886-.387.203-.212.257-.527.164-.96-.126-.59-.312-.734-1.877-1.463l-.908-.473c-.007-.03.09-.17.212-.308.462-.52.57-1.172.27-1.615-.085-.124-.313-.315-.508-.425s-.337-.225-.317-.257.993-.263 2.16-.516c.83-.134 1.648-.36 2.448-.72.425-.343.737-.785.694-.985-.02-.087-.2-.307-.438-.505-.54-.47-.886-.553-2.068-.505-1.605.066-3.91.056-3.954-.017-.023-.04.152-.226.4-.433.61-.49 1.713-1.644 2.01-2.103.504-.78.787-1.5.775-2-.01-.436-.516-.937-1.04-1.03-.096-.018-.35-.028-.564-.024s-.404-.018-.423-.05.073-.258.203-.502c.365-.68.4-1.715.068-1.908-.414-.24-1.07-.12-1.656.303-.235.17-.45.283-.486.26s-.05-.234-.03-.477c.054-.634-.02-1.13-.257-1.707-.254-.618-.504-.948-.9-1.17-.237-.136-.348-.16-.55-.117-.29.063-.675.353-1.017.768-.272.33-.345.32-.543-.084-.316-.64-.595-.78-1.216-.605-.23.065-.474.184-.618.304l-.264.202c-.014.003-.093-.333-.174-.747-.172-.87-.258-.994-.792-1.137-.407-.11-.753-.03-1.115.26z" fill="#f2f756"/><path d="M16.746 1.18c-.394.314-.874 1.138-1.063 1.825-.222.805-.292 1.615-.248 2.864l.013 1.413c-.02.238-.39 1.458-.64 2.113-.074.194-.135-.254-.154-1.136-.034-1.604-.16-3.152-.296-3.642-.225-.81-.646-1.18-1.212-1.058-.51.11-.794.43-.868.978-.03.217.016.6.158 1.348.19 1.007.313 2.523.215 2.677-.06.094-.085.058-.85-1.243-.806-1.37-1.28-1.928-2.126-2.49-.997-.665-1.833-.56-2.326.293-.215.372-.286.624-.3 1.027-.007.703.854 2.327 1.956 3.7.362.448.66.856.66.908.001.063-.36-.05-1.114-.345-1.342-.528-1.577-.583-2.172-.502-.432.06-.47.076-.627.277a.45.45 0 0 0-.11.476c.07.324.56.902 1.142 1.347.286.22.377.32.313.35-.05.022-.38.038-.736.035-.447-.003-.96.052-1.667.18-1.112.2-1.555.362-2.377.868-.98.605-1.035 1.08-.178 1.573.575.33 1.015.43 1.863.426l1.902.044 1.862.04c.9-.012 1.1.013.98.12-.114.1-4.263 2.178-6.32 3.165-.71.34-1.088.616-1.45 1.056-.395.48-.463.796-.298 1.394.31 1.12 1.103 1.38 2.68.868.344-.11.643-.19.665-.176s-.204.398-.502.85c-.536.816-.783 1.386-.884 2.037-.053.34.064.56.318.597.232.033 1.613-.433 2.28-.77l.7-.32c.062-.013.36-.225.662-.47l.6-.458c.142-.03.035.23-.444 1.083-.594 1.057-.773 1.602-.677 2.054.093.435.287.532.828.417.83-.178 2.142-.84 2.616-1.322.157-.16.53-.675.83-1.146l.92-1.402c.274-.4.46-.8.7-1.467.56-1.566.803-1.924 1.954-2.877.662-.548.66-.477-.046 1-.2.417-.488.95-.642 1.182-.167.253-.53 1.06-.903 2.005l-.983 2.417c-.67 1.554-.905 2.492-.854 3.398.03.55.175.87.493 1.103.273.2.71.166 1.188-.092.4-.215.665-.533 1.04-1.245.458-.87.577-1.24.748-2.33.167-1.06.31-1.528 1.106-3.607l.736-1.737c.074-.018.144.394.212 1.238.133 1.658.146 2.36.05 2.85-.285 1.47-.322 2.413-.14 3.56.088.55.152.775.294 1.04.274.51.82.807 1.425.777.705-.035.976-.58 1.128-2.263l.194-1.384c.03-.01.183.206.338.48.37.652.583.902.984 1.153.652.41 1.095.35 1.395-.186.355-.634.4-1.15.213-2.434l-.115-1.13c.022-.036.143.042.27.173.454.472 1.028.76 1.372.686.408-.087.97-.81 1.146-1.474.167-.632.165-1.082-.008-1.848-.088-.39-.138-.71-.112-.717s.264.106.528.247c.65.35 1.588.658 2.158.713.645.06 1.655-.146 1.886-.387.203-.212.257-.527.164-.96-.126-.588-.312-.734-1.877-1.462l-.908-.473c-.007-.03.09-.17.213-.308.462-.52.57-1.172.27-1.615-.084-.124-.313-.316-.507-.425s-.338-.225-.317-.257.993-.264 2.16-.516c.83-.134 1.648-.36 2.448-.72.425-.343.736-.785.693-.985-.02-.087-.21-.307-.437-.505-.54-.47-.887-.554-2.068-.505-1.606.066-3.912.056-3.954-.018-.024-.04.152-.226.4-.433.61-.5 1.713-1.643 2.01-2.102.505-.78.788-1.5.775-2-.01-.436-.516-.937-1.04-1.032a3.89 3.89 0 0 0-.564-.024c-.214.004-.404-.018-.423-.05s.073-.258.203-.502c.364-.68.4-1.715.068-1.908-.413-.24-1.07-.12-1.656.303-.235.17-.448.283-.485.26s-.05-.234-.03-.477c.054-.634-.02-1.13-.258-1.707-.253-.618-.504-.948-.9-1.17-.237-.137-.348-.16-.55-.117-.29.062-.675.352-1.017.767-.272.33-.345.32-.543-.083-.316-.64-.595-.78-1.216-.606-.23.065-.474.184-.618.304l-.264.202c-.014.003-.093-.333-.174-.747-.172-.87-.258-.994-.792-1.137-.407-.11-.753-.028-1.114.26m.95.643c.12.12.135.184.156.71.02.54-.01 1.04-.097 1.62-.02.13-.274 1.163-.565 2.294-.55 2.142-.683 2.858-.77 4.168-.082 1.212-.25 1.963-.415 1.855-.033-.02-.132-.398-.222-.838-.212-1.045-.185-1.874.088-2.696.47-1.42.49-1.55.432-2.86-.096-2.14.197-3.534.88-4.183.22-.2.356-.23.514-.072M8.712 5.125c.353.066.786.346 1.262.816.493.486.89 1.06 1.63 2.36.666 1.17.933 1.713 1.227 2.5a8.11 8.11 0 0 0 .54 1.133c.306.503.4.774.306.797-.05.01-.316-.122-1.585-.796-.906-.482-3.06-2.975-3.866-4.476-.5-.93-.587-1.442-.33-1.925.197-.37.422-.482.817-.408m11.506-2.142c.13.134.183.255.216.497.037.274-.017.5-.376 1.493-.276.772-.458 1.42-.533 1.892-.24 1.52-.303 1.8-.454 2.004l-.903 1.336-.825 1.148c-.08.017-.097-.145-.077-.8.027-.853.186-1.676.755-3.9l.597-2.334.376-.565c.625-.938.9-1.114 1.224-.782M13.55 5.088c.046.214.098.723.115 1.132l.067 1.097c.06.61.073 1.793.02 1.873-.074.113-.174-.748-.183-1.575-.005-.475-.07-1.026-.205-1.767-.11-.593-.18-1.138-.16-1.213.037-.132.04-.133.15-.036.066.06.145.26.195.49m9.3-1.732c.096.12.18.38.3.893.26 1.203.175 1.468-1.15 3.605l-.908 1.58-1.722 3.07c-.367.532-1.072 1.38-1.39 1.672l-.185.17-.54-.388c-.5-.353-.53-.397-.437-.48.48-.438.85-.913 1.74-2.233l1.324-1.9c.354-.463.855-1.44 1.076-2.097.09-.265.27-.98.402-1.59.25-1.148.434-1.61.86-2.152.268-.34.443-.378.634-.14m2.907 2.35c.208.135.154.626-.132 1.197-.233.465-.86 1.19-1.203 1.388-.53.31-1.353.96-1.726 1.367-.196.214-.57.703-.832 1.088l-1.185 1.612c-.144.12-.14.115.31-.766l.755-1.48c.644-1.268 1.473-2.59 1.743-2.783.133-.095.37-.318.523-.497s.497-.487.76-.684c.68-.51.8-.563.986-.443M8.075 11.153l1.987.848 1.454.665c.476.21 1.53.846 1.55.932.03.136-1.74-.467-3.16-1.078-2.032-.873-2.237-.974-2.623-1.286-.212-.17-.39-.333-.396-.36-.03-.14.32-.06 1.19.28m18.8-2.67c.127.024.263.1.302.168.184.323-.506 1.542-1.38 2.438-.7.718-1.14 1.076-2.925 2.373-1.905 1.385-3.336 2.19-3.48 1.955-.022-.035.283-.422.678-.86a26.53 26.53 0 0 0 2.397-3.072c.887-1.308 1.285-1.722 2.193-2.286.78-.485 1.76-.802 2.214-.717M6.567 13.088c.754.016 2.006.153 2.663.293a17.48 17.48 0 0 1 2.453.837c.216.117.247.154.18.222-.252.253-3.412.422-6.326.338l-1.945-.05c-.536-.008-1.083-.178-1.15-.358-.057-.154.087-.268.806-.635.49-.25.623-.29 1.58-.467.817-.152 1.197-.19 1.74-.18m10.138 1.37c.184.108.405.307.492.442.15.23.155.265.106.614l-.065.67c-.007.165-.04.327-.075.36-.187.185-.715.134-1.154-.113-.82-.46-1.01-1.24-.44-1.8.388-.38.705-.43 1.137-.173m-3.796 1.07c1.23-.183 1.36-.175 1.134.07-.398.43-1.96 1.17-4 1.894l-1.613.62c-.847.347-.93.397-2.332 1.415-1.776 1.29-2.264 1.563-3.234 1.818-.44.115-.788.177-.9.158-.215-.036-.41-.2-.52-.47-.162-.375.392-1.005 1.265-1.438l6.94-3.334c.85-.36 1.04-.403 3.26-.734m13.24-1.6c2.68-.074 4.155.03 4.333.303.086.132-.124.374-.45.52-.362.162-2.302.58-3.893.836-.892.144-1.345.185-1.868.17a11.4 11.4 0 0 0-1.286.043c-.78.084-1.543-.003-1.58-.18-.006-.03.217-.2.495-.38l1-.684c.48-.357.487-.36 1.15-.474.4-.07 1.242-.13 2.11-.155m-11.34 2.59c.03.14-.182.382-.793.91-1.7 1.465-1.683 1.45-2.12 2.123-.336.52-.49.855-.74 1.613-.24.724-.396 1.07-.64 1.42l-.946 1.432c-.342.532-.7 1.03-.795 1.104a10.84 10.84 0 0 1-1.416.764c-.567.227-.418-.1 1.16-2.565 1.475-2.3 1.78-2.71 3.087-4.15 1.174-1.294 2.04-2.065 2.92-2.598.238-.144.264-.15.285-.053m-3.547 1.584c.006.03-.184.27-.423.535l-.81.915c-2.482 2.876-3.15 3.544-4.212 4.203a9.17 9.17 0 0 1-2.022.94c-.3.1-.325.098-.356-.05-.046-.214.173-.77.505-1.28.41-.633 1.618-2.077 2.016-2.413.2-.16.444-.406.565-.548.276-.323 1.06-.935 1.488-1.164.27-.144 1.678-.713 2.395-.968.36-.128.84-.225.852-.172m9.256-1.682l3.656.62c1.134.138 1.857.335 2 .543.147.23-.085.653-.393.718-.177.038-1.24-.28-2.12-.634-.547-.22-1.458-.506-2.19-.688-1.38-.344-1.544-.4-1.5-.52.04-.115.127-.12.558-.04m-1.51.753c1.364.538 2.492 1.404 3.585 2.752 1.015 1.252 1.11 1.417 1.303 2.3.158.718.16.777.06 1.21-.196.828-.54 1.27-.883 1.138-.572-.222-1.098-1.17-1.647-2.975-.5-1.64-.92-2.22-2.35-3.227-.606-.428-1.167-.9-1.19-1.024-.017-.08.26-.378.375-.403.06-.013.397.1.748.23m-2.117.706c.27.39 1.064 4.364 1.253 6.265.07.7.033 2.25-.082 3.55-.1 1.137-.17 1.48-.34 1.652-.13.13-.15.136-.324.068-.102-.04-.246-.16-.32-.266-.18-.26-.34-1.035-.372-1.8-.025-.587.007-.94.238-2.654.108-.8.097-1.248-.06-2.484l-.188-1.943a14.54 14.54 0 0 1-.047-2.271c.013-.296.095-.335.244-.118m-1.395.694c-.218.99-.557 2.025-1.292 3.948-.81 2.12-.996 2.715-1.082 3.46-.108.938-.226 1.336-.63 2.133-.388.763-.723 1.12-.944 1.004-.145-.076-.178-.23-.158-.73.025-.622.256-1.465.692-2.524l1.07-2.622 1.003-2.27.69-1.358.673-1.23c.01-.002 0 .08-.023.186m3.963.98c.477.42.753.767.97 1.224.235.497.275.708.203 1.07-.05.257-.017.533.235 1.885.472 2.53.53 3.276.302 3.81-.204.474-.822.105-1.277-.764-.228-.435-.274-.596-.52-1.803l-.467-1.942c-.118-.37-.352-1.416-.582-2.607l-.384-2 .578.4.94.72m2.924-1.45c.644.177 1.033.37 1.303.647.165.17.345.24.997.4a9.19 9.19 0 0 1 1.444.5l1.343.63c.84.392.952.47 1.054.734.138.36.027.48-.55.6-.303.062-.637.085-.865.06-1.083-.124-2.804-1.077-3.64-2.018a3.57 3.57 0 0 0-.512-.454c-.315-.22-1.143-1.04-1.168-1.156-.023-.106.008-.103.595.06" fill="#b039d2"/></svg>