<svg xmlns="http://www.w3.org/2000/svg" width="100%" height="100%" viewBox="0 0 32 32" fill-rule="evenodd" stroke-linejoin="round" stroke-miterlimit="2" xmlns:v="https://vecta.io/nano"><path d="M1.192 1.24C.952 3.962.88 4.477.494 6.26.25 7.377.2 9.06.355 10.046c.053.312.256 1.12.453 1.798l.638 2.57c.33 1.573.333 1.575 2.493 5.08 1.714 2.78 2.087 3.31 3.114 4.427.697.757.766.8 2.667 2.093 1.946 1.313 2.49 1.624 4.34 2.473a11.16 11.16 0 0 0 3.699 1.075c2.865.366 5.203.405 6.785.113.58-.106 1.15-.16 1.27-.115s.6.44 1.07.88c.994.937 1.312 1.167 1.52 1.106.24-.07.254-.543.025-.895-.24-.368-.338-.472-1.193-1.245-.377-.34-.725-.694-.773-.785-.055-.104-.02-.38.096-.738l.325-1.006c.2-.617.224-.91.19-2.443-.017-.847.05-1.976.178-2.98.214-1.67.337-3.94.258-4.763-.105-1.107-.853-4.363-1.19-5.19a45.23 45.23 0 0 0-2.079-4.181c-.555-.953-.79-1.166-3.533-3.182-2.445-1.797-3.357-2.36-4.226-2.615-1.408-.41-3.3-.805-4.405-.92L9.93.34C9.216.237 8.657.23 7.855.318L5.8.512 4.035.687C3.59.74 2.977.752 2.673.713c-.54-.07-1.3.05-1.405.223-.032.048-.066.185-.077.304z" fill="#e3fae0"/><path d="M1.192 1.24C.952 3.962.88 4.476.494 6.26.25 7.377.2 9.06.356 10.046c.052.312.256 1.12.452 1.797l.638 2.57c.33 1.572.333 1.575 2.492 5.08 1.714 2.78 2.087 3.31 3.115 4.428.696.757.765.81 2.667 2.093 1.947 1.313 2.492 1.623 4.34 2.472 1.38.634 2.277.895 3.7 1.076 2.866.365 5.204.404 6.786.113.58-.107 1.15-.16 1.27-.116s.6.44 1.068.882c.994.936 1.31 1.167 1.52 1.106.24-.07.254-.543.025-.895-.24-.368-.34-.472-1.193-1.244-.377-.34-.725-.694-.773-.786-.055-.104-.02-.38.097-.738l.325-1.006c.2-.617.223-.91.19-2.443-.018-.847.05-1.976.178-2.98.213-1.668.336-3.94.258-4.763-.105-1.107-.852-4.363-1.19-5.188-.426-1.038-1.46-3.118-2.08-4.18-.555-.953-.79-1.165-3.532-3.18-2.444-1.797-3.356-2.36-4.226-2.615-1.408-.41-3.3-.805-4.404-.92L9.93.34A7.51 7.51 0 0 0 7.855.318L5.8.513 4.035.687C3.6.74 2.978.753 2.673.714c-.54-.07-1.29.05-1.405.223a.85.85 0 0 0-.076.304M2.25 2.667c.047.002.645.567 1.33 1.257l1.274 1.273c.016.01-.006.07-.047.132s-.562.215-1.155.34-1.154.295-1.247.377c-.24.216-.25.528-.018.686.15.103.434.08 1.322-.1l1.547-.404.416-.163.336.296c.464.408 1.196 1.24 1.247 1.414a.34.34 0 0 1-.029.25c-.123.182-1.832.408-3.024.4-.63-.004-1.27.034-1.426.083-.362.116-.533.368-.41.603.232.44 2.7.432 4.422-.016.573-.15 1.092-.25 1.154-.227.165.065.596.88.522 1-.08.117-.395.16-1.25.168l-2.19.058-2.126.05c-.715 0-.885.095-.868.485.025.546.3.65 1.5.565l2.545-.115 2.355-.154.766-.076c.104.07.206.37.153.448-.057.084-.864.136-2.54.163-.666.01-1.163.062-2.585.267-.364.052-.523.123-.63.28-.14.206-.14.537 0 .632.166.113.753.087 2.807-.12.305-.03.96-.064 1.457-.074l1.5-.085c.328-.037.668-.02.755.04.227.154.333.33.263.436-.034.05-.98.108-2.105.128l-3.067.203c-1.087.175-2.792.324-2.897.253-.035-.023-.147-.414-.25-.867a19.47 19.47 0 0 0-.451-1.609c-.443-1.312-.454-3.12-.028-4.96a23.51 23.51 0 0 0 .352-2.036c.137-1.13.17-1.27.312-1.263m1.948-.83c.954-.125 1.843-.18 1.934-.118.075.05-.167 1.832-.312 2.295-.062.198-.145.334-.2.346S5.106 4 4.54 3.433c-1.22-1.198-1.3-1.29-1.225-1.398.034-.05.43-.14.884-.198m3.252-.365a8.78 8.78 0 0 1 .98-.144c.69-.05 4.974.55 6.376.89 2.09.5 2.217.57 4.356 2.018l2.84 2.078.972.812.657 1.168 1.352 2.65c.67 1.43.712 1.56 1.165 3.7.462 2.177.47 2.245.405 3.738l-.196 2.518c-.138 1.046-.15 1.26-.242 4.013-.056 1.67-.17 2.332-.484 2.795l-.155.23-.514-.272c-.8-.42-1.902-1.56-1.952-2.005-.034-.303.642-3.458 1.064-4.963l.74-2.238c.523-1.32.89-2.434.9-2.772.02-.32-.166-.57-.486-.652-.383-.1-.526.027-.592.52-.032.242-.375 1.304-.76 2.36-.678 1.85-1.3 4.17-1.62 6.04-.06.35-.146.65-.192.672-.14.062-.394-.158-1.45-1.255-1.33-1.382-1.29-1.316-1-1.666.258-.302.518-1.158.88-2.9.098-.474.33-1.34.512-1.928l.533-1.72c.1-.36.34-.972.51-1.36.51-1.175.472-1.818-.1-1.645-.372.113-.655.697-1.237 2.56L20 16.955c-.132.366-.32 1.098-.42 1.628-.265 1.414-.526 2.5-.64 2.67-.093.137-.126.127-.406-.125-.414-.372-2.013-2.423-2.07-2.657-.03-.117.084-.475.3-.952.583-1.29 1.244-3.234 1.906-5.602.7-2.542.74-2.952.208-2.85-.317.06-.497.46-.877 1.952l-.644 2.387c-.275.94-1.317 3.58-1.546 3.918-.167.247-.328.105-.936-.825l-.505-.774.202-.484c.11-.266.304-.88.43-1.363.374-1.44 1.203-3.56 1.84-4.7s.7-1.387.403-1.588c-.357-.242-.487-.137-1.216.977-.724 1.11-.704 1.054-1.705 4.55l-.454 1.425c-.063.093-.147.07-.41-.118a4.74 4.74 0 0 1-.622-.551l-.3-.316.768-1.858c1.347-3.26 1.673-4.38 1.55-5.342-.044-.348-.097-.45-.288-.555-.345-.188-.536.08-.576.805-.063 1.127-.283 1.822-1.646 5.203-.222.552-.435 1.01-.472 1.016s-.167-.097-.29-.232c-.22-.244-.22-.248.024-.558.204-.26.263-.455.358-1.18s.756-3.457 1.267-5.232c.177-.615.122-1.098-.14-1.234-.18-.094-.218-.075-.384.185-.1.16-.3.785-.463 1.392l-.624 2.468-.47 2.188c-.07.453-.154.83-.188.836-.077.015-.898-1.12-1.064-1.472-.088-.186-.078-.47.035-1.034.184-.918.643-2.635 1.008-3.768.302-.936.397-1.545.304-1.95-.12-.528-.613-.506-.726.032-.08.377-.55 2.103-1.027 3.768l-.387 1.366c-.01.042-.083.032-.163-.022-.18-.122-.175-.452.012-.87.477-1.062.827-2.905.866-4.558.02-.83-.105-1.203-.406-1.214-.36-.013-.485.332-.522 1.44-.047 1.377-.11 1.86-.355 2.752-.2.724-.374 1.098-.477 1.026-.03-.02-.177-.2-.33-.378s-.426-.443-.61-.566c-.62-.42-.685-.59-.52-1.368.256-1.198.375-2.23.3-2.578-.04-.185-.053-.37-.028-.412s.28-.125.566-.185m-4.2 12.94c.318-.01 1.027-.08 1.576-.156 1.617-.227 5.924-.394 6.5-.252.32.08 1.174.924 1.102 1.09-.035.082-.425.116-1.15.1-1.244-.028-2.943.03-3.83.13-.33.037-1.075.073-1.656.08-.923.01-1.077.037-1.23.22-.218.263-.096.647.246.772.33.12 1.263.125 2.15.01 1.205-.154 1.627-.177 3.545-.196l2.315-.1.546-.083.188.298.557.822c.25.358.343.562.29.642-.05.072-.744.122-1.794.13l-4.376.1c-1.692.005-2.826.09-2.955.218-.206.206-.105.438.283.65.46.25 1.63.322 3.857.235l3.336-.076 2.127-.026c.24-.008.52.043.623.112.193.13 1.778 2.057 1.804 2.193.025.127-.227.13-2.14.017l-3.6-.113c-1.496-.005-1.905.032-2.688.244-.74.2-.955.296-1.08.48-.18.267-.078.648.195.72.09.024.624-.048 1.183-.16 1.3-.262 2.395-.275 5.524-.07l4.03.433c.24.164 2.642 2.66 2.663 2.77.038.197-1.74.38-5.233.54-2.162.1-2.763.182-3.275.45-.253.133-.273.127-.99-.293l-1.92-1.232c-1.044-.706-1.29-.91-2.022-1.67-1.193-1.24-1.805-2.057-2.513-3.354l-.94-1.582c-.176-.244-.686-1.08-1.134-1.858-.795-1.383-1.022-2.003-.79-2.16.05-.035.353-.07.67-.08m13.6 12.85c2.905-.148 4.945-.36 5.203-.54.227-.16.305-.107 1.074.726l.922.94c.18.16.28.3.246.362-.14.208-1.37.236-4.042.09-2.426-.132-3.67-.33-4.858-.772-.957-.357-1.17-.48-1.072-.624.02-.03 1.16-.114 2.528-.184" fill="#3b9981"/></svg>