<svg xmlns="http://www.w3.org/2000/svg" width="100%" height="100%" viewBox="0 0 32 32" fill-rule="evenodd" stroke-linejoin="round" stroke-miterlimit="2" xmlns:v="https://vecta.io/nano"><path d="M14.992.28c-.354.28-.343 1.08-.4 1.374-.25 1.556-.35 3.11-.486 4.678l-.406 5.995-.513 4.35c-.02.145-.26 2.785-.33 3.693-.03.377-.254 1.948-.31 2.326-.114.753-.134 1.21-.406 1.87-.02.05-.134.15-.193.056a1.74 1.74 0 0 1-.193-.434l-.344-1.433c-.293-1.11-1.028-2.127-1.66-3.05-.3-.454-.887-.675-1.387-.817-.845-.24-1.888-.335-2.735-.042-.253.087-.478.24-.71.375-.205.12-.763.45-.97.69-1.213 1.393-1.874 3.223-1.87 5.06.001.44.185 1.752.242 1.964.15.556 1.29 2.307 1.597 2.64.702.765 1.53 1.37 2.465 1.795.237.108.873.377 1.168.42 1.034.15 1.98-.055 2.943-.45.492-.202.96-.683 1.308-1.04.393-.403.85-.875 1.093-1.405.266-.583.41-1.33.544-1.944l.533-2.132.603-3.416.26-1.836.552-3.572.175-4.218c.017-.254.093-.763.313-.956.086-.075.233-.044.313.015.18.135.685.67.818.83.47.564.454.722.865 1.535.34.674.763 1.295.973 2.028.318 1.1.355 2.42.02 3.532-.12.394-.57 1.063-.265 1.486.27.375.9.26 1.26.258l.84-.02c1.416-.097 2.55-.937 3.545-1.882.536-.51 1.108-1.18 1.433-1.85.667-1.383.08-2.884-.54-4.165-.658-1.357-1.49-2.485-2.456-3.63-.24-.285-.56-.7-.865-.92-.696-.523-1.486-.917-2.17-1.454-.324-.254-.617-.545-.908-.835-.278-.276-.57-.544-.8-.86-.294-.407-.962-1.734-1.24-2.218-.212-.368-.394-.533-.595-.92-.132-.254-.233-.522-.35-.782-.11-.238-.353-1.01-.768-.684" fill="#596cf2"/></svg>