<svg id="svg-path" width="100%" height="100%" viewBox="0 0 512 512" version="1.1" xmlns="http://www.w3.org/2000/svg" style="fill-rule:evenodd;clip-rule:evenodd;stroke-linejoin:round;stroke-miterlimit:2;"><path d="M253.849 52.580 C 252.845 53.584,246.846 55.061,237.385 56.633 C 220.415 59.453,218.000 60.336,218.000 63.715 C 218.000 65.310,217.014 66.654,215.006 67.797 C 212.496 69.225,212.012 70.123,212.006 73.356 C 212.001 76.308,211.394 77.689,209.415 79.246 C 207.240 80.956,206.930 81.812,207.459 84.632 C 208.016 87.600,207.669 88.352,204.432 91.194 C 202.422 92.959,199.742 94.940,198.478 95.596 C 195.362 97.212,190.722 101.501,178.022 114.500 C 162.630 130.255,152.162 142.892,148.339 150.331 C 147.444 152.074,145.051 155.975,143.023 159.000 C 139.358 164.465,132.000 179.186,132.000 181.052 C 132.000 181.588,131.603 182.809,131.117 183.764 C 130.166 185.632,129.409 187.461,126.053 196.000 C 123.590 202.263,117.517 225.208,116.500 232.085 C 115.475 239.019,115.035 239.353,105.806 240.203 C 101.238 240.623,94.350 241.395,90.500 241.917 C 86.650 242.439,75.400 243.624,65.500 244.550 C 46.926 246.289,44.000 247.181,44.000 251.108 C 44.000 252.097,43.597 253.940,43.104 255.203 C 42.611 256.466,41.619 259.475,40.898 261.889 L 39.588 266.277 43.193 269.389 C 45.175 271.100,47.473 273.855,48.301 275.511 C 49.128 277.167,51.547 280.486,53.677 282.886 C 57.062 286.701,58.176 287.310,62.525 287.726 C 66.956 288.149,68.047 287.825,72.500 284.763 C 78.034 280.957,81.207 276.212,83.606 268.154 C 85.124 263.056,85.100 262.541,83.099 257.051 C 81.945 253.885,81.000 250.851,81.000 250.310 C 81.000 249.768,86.287 248.790,92.750 248.136 C 99.212 247.482,106.604 246.723,109.176 246.449 C 111.747 246.175,114.086 246.330,114.372 246.793 C 114.658 247.256,114.354 251.430,113.696 256.068 C 112.398 265.218,112.887 274.402,115.395 287.975 C 117.354 298.581,121.236 314.138,124.433 324.200 C 127.090 332.559,128.385 335.047,141.185 356.354 C 145.028 362.753,159.060 376.518,165.000 379.718 C 169.766 382.285,182.888 386.653,191.109 388.410 L 193.718 388.967 193.601 399.734 C 193.420 416.412,194.494 429.659,196.826 439.500 C 197.999 444.450,199.199 449.729,199.493 451.231 C 200.233 455.008,206.432 461.000,209.599 461.000 C 215.367 461.000,218.922 457.333,218.968 451.335 C 218.994 448.003,218.415 446.617,216.076 444.410 C 214.468 442.892,211.696 441.166,209.917 440.575 C 207.482 439.766,206.364 438.575,205.397 435.761 C 203.287 429.619,202.120 414.259,202.832 402.000 L 203.500 390.500 213.000 389.325 C 218.225 388.679,224.317 387.878,226.538 387.545 C 230.408 386.966,230.624 387.078,231.701 390.220 C 234.491 398.364,235.854 407.644,236.383 422.095 C 236.697 430.672,237.492 440.830,238.150 444.668 C 239.182 450.685,239.116 452.349,237.673 456.760 C 236.753 459.574,236.010 462.916,236.022 464.188 C 236.060 468.181,239.637 474.621,243.420 477.506 C 246.409 479.786,248.135 480.300,253.105 480.390 C 258.076 480.480,259.415 480.144,260.620 478.500 C 264.977 472.557,263.054 465.594,254.958 458.000 C 247.488 450.993,245.991 446.110,245.457 427.000 C 244.997 410.555,244.377 404.846,241.932 394.529 C 240.893 390.145,240.370 386.249,240.771 385.873 C 241.172 385.496,245.325 384.427,250.000 383.498 C 259.092 381.690,261.363 380.865,272.948 375.165 C 280.252 371.570,289.703 364.554,295.347 358.536 C 296.914 356.866,299.892 353.700,301.967 351.500 C 304.042 349.300,306.555 346.150,307.552 344.500 C 308.549 342.850,310.371 340.375,311.602 339.000 C 313.488 336.893,317.850 328.332,321.029 320.500 C 321.475 319.400,323.043 315.800,324.513 312.500 C 327.784 305.156,331.378 294.197,334.081 283.320 C 335.792 276.437,335.933 274.463,334.966 270.875 C 333.461 265.286,334.432 258.011,338.053 247.744 C 339.652 243.210,340.969 238.721,340.980 237.769 C 340.991 236.784,341.970 235.842,343.250 235.583 C 348.009 234.621,404.197 233.222,417.784 233.727 C 431.053 234.221,432.145 234.409,433.156 236.379 C 435.010 239.993,439.346 244.099,442.872 245.582 C 448.336 247.880,458.252 247.413,463.812 244.595 C 467.631 242.660,468.976 241.245,470.703 237.345 C 473.926 230.064,475.012 225.163,473.995 222.488 C 472.911 219.636,466.475 215.800,458.788 213.424 C 454.112 211.979,452.894 211.135,452.069 208.767 C 451.170 206.190,450.660 205.910,447.379 206.188 C 443.893 206.483,443.470 206.924,439.402 214.500 L 435.106 222.500 405.303 223.149 C 388.911 223.506,368.413 224.123,359.750 224.521 L 344.000 225.243 344.024 221.372 C 344.037 219.242,344.508 215.700,345.070 213.500 C 346.714 207.072,349.250 190.150,350.317 178.500 C 350.418 177.400,350.152 169.265,349.727 160.422 C 349.148 148.397,348.455 142.981,346.977 138.936 C 345.890 135.962,345.000 132.783,345.000 131.872 C 345.000 130.961,343.234 124.877,341.076 118.352 C 338.918 111.827,337.048 105.365,336.921 103.994 C 336.459 99.020,337.009 96.000,338.378 96.000 C 340.727 96.000,342.219 93.272,341.546 90.208 C 341.025 87.839,339.120 86.302,330.707 81.468 C 325.093 78.242,316.000 72.606,310.500 68.943 C 298.750 61.117,297.761 60.572,291.369 58.410 C 288.691 57.504,285.339 55.940,283.919 54.934 C 279.096 51.515,256.669 49.759,253.849 52.580 M280.702 72.739 C 290.471 79.549,289.978 79.117,306.412 95.250 C 316.401 105.056,322.161 110.000,323.596 110.000 C 326.384 110.000,327.449 111.387,329.355 117.500 C 330.212 120.250,332.057 125.650,333.453 129.500 C 336.515 137.941,337.696 144.140,338.883 158.000 C 339.918 170.088,338.716 191.704,336.381 203.000 C 335.528 207.125,334.473 212.975,334.035 216.000 C 331.895 230.807,328.851 245.329,326.878 250.149 C 325.018 254.694,324.657 257.684,324.481 270.000 C 324.276 284.378,322.676 293.131,318.998 300.005 C 318.324 301.263,315.817 307.448,313.427 313.747 C 309.299 324.628,302.524 336.940,297.056 343.500 C 292.393 349.092,280.521 360.622,276.230 363.725 C 273.881 365.422,268.481 368.026,264.230 369.509 C 259.978 370.993,255.600 372.579,254.500 373.034 C 247.475 375.939,239.173 376.916,233.699 375.481 C 231.498 374.905,230.361 375.252,228.392 377.102 C 226.404 378.969,224.294 379.601,218.193 380.157 C 205.503 381.313,196.344 381.089,188.285 379.424 C 178.976 377.501,173.503 375.018,168.529 370.462 C 166.450 368.558,164.131 367.000,163.377 367.000 C 159.577 367.000,147.921 352.528,141.228 339.500 C 137.891 333.005,132.000 319.588,132.000 318.484 C 132.000 318.109,131.383 316.384,130.630 314.651 C 129.876 312.918,128.786 309.700,128.209 307.500 C 127.631 305.300,126.632 301.512,125.989 299.083 C 124.760 294.439,122.791 271.030,122.913 262.500 C 122.952 259.750,123.411 254.800,123.933 251.500 C 124.454 248.200,125.402 241.900,126.038 237.500 C 126.675 233.100,127.860 226.350,128.671 222.500 C 129.482 218.650,130.372 214.375,130.648 213.000 C 130.925 211.625,131.525 209.600,131.983 208.500 C 132.440 207.400,133.355 204.250,134.015 201.500 C 135.260 196.318,144.700 176.243,150.004 167.500 C 151.673 164.750,153.452 161.531,153.957 160.347 C 154.463 159.163,155.343 157.906,155.913 157.554 C 156.483 157.201,159.716 152.874,163.097 147.938 C 166.478 143.002,169.802 138.634,170.484 138.231 C 171.166 137.829,173.962 134.800,176.696 131.500 C 179.431 128.200,184.926 122.125,188.908 118.000 C 192.890 113.875,196.452 110.159,196.824 109.743 C 198.597 107.757,210.165 100.000,211.353 100.000 C 212.094 100.000,216.480 97.068,221.100 93.484 C 233.634 83.762,239.054 80.358,246.639 77.447 C 250.413 75.999,256.200 73.653,259.500 72.234 C 265.082 69.833,269.833 68.347,272.702 68.102 C 273.363 68.046,276.963 70.133,280.702 72.739 M266.950 118.388 C 263.695 119.643,249.168 128.458,247.999 129.887 C 247.723 130.224,244.635 133.168,241.135 136.429 L 234.773 142.358 232.479 135.541 C 229.565 126.883,227.525 124.159,221.418 120.773 C 212.721 115.952,204.982 117.130,193.500 125.024 C 184.161 131.445,174.735 142.491,173.042 149.000 C 172.398 151.475,171.476 154.850,170.994 156.500 C 169.728 160.829,168.000 174.348,168.000 179.917 C 168.000 184.829,170.012 188.000,173.129 188.000 C 175.989 188.000,177.000 185.617,177.000 178.876 C 177.000 172.124,180.134 156.231,182.587 150.544 C 184.879 145.230,196.391 134.376,203.700 130.637 C 205.461 129.737,208.864 129.000,211.263 129.000 C 216.397 129.000,219.601 131.776,222.806 139.000 C 225.254 144.520,229.000 159.005,229.000 162.955 C 229.000 166.055,231.227 169.000,233.571 169.000 C 236.171 169.000,238.676 165.381,239.318 160.700 C 239.666 158.161,240.954 153.928,242.182 151.292 C 247.787 139.255,269.086 125.525,277.651 128.429 C 282.269 129.995,296.078 145.449,300.501 154.001 C 302.674 158.204,303.009 169.747,301.314 182.000 C 300.322 189.169,300.365 190.852,301.592 192.750 C 303.258 195.328,306.189 195.682,307.981 193.523 C 311.683 189.062,314.542 161.421,312.136 153.349 C 310.352 147.367,291.428 122.000,288.748 122.000 C 288.231 122.000,286.541 121.097,284.991 119.994 C 281.323 117.382,271.766 116.531,266.950 118.388 M461.750 225.235 C 464.731 226.696,464.588 228.873,461.250 232.859 C 458.874 235.696,457.820 236.167,453.500 236.321 L 448.500 236.500 448.804 232.958 C 448.972 231.010,448.663 228.244,448.118 226.811 C 447.573 225.378,447.419 223.914,447.776 223.557 C 448.679 222.655,459.017 223.896,461.750 225.235 M178.660 258.823 C 175.309 262.526,175.382 269.764,178.963 289.000 C 180.292 296.143,186.673 320.201,188.112 323.500 C 190.368 328.671,199.007 337.955,203.378 339.907 C 211.562 343.562,214.257 344.038,221.555 343.122 C 234.578 341.487,251.389 331.321,266.699 315.824 C 277.443 304.949,279.549 301.574,278.052 297.636 C 276.164 292.671,274.233 293.493,263.623 303.777 C 245.548 321.296,240.424 325.585,233.405 329.071 C 227.390 332.058,225.533 332.500,219.000 332.500 C 205.238 332.500,198.744 327.066,194.130 311.689 C 190.568 299.819,187.371 285.457,186.006 275.187 C 185.107 268.429,185.197 267.653,187.188 264.960 C 189.007 262.499,189.163 261.654,188.192 259.523 C 187.295 257.553,186.305 257.000,183.676 257.000 C 181.689 257.000,179.634 257.747,178.660 258.823 M71.118 262.882 C 75.560 267.324,75.741 268.272,73.011 272.750 C 70.986 276.071,68.287 277.300,69.403 274.393 C 70.385 271.833,68.248 265.581,65.511 263.011 C 62.444 260.129,62.333 259.000,65.118 259.000 C 66.282 259.000,68.982 260.747,71.118 262.882 M253.039 468.573 C 254.045 470.453,254.082 471.318,253.193 472.207 C 252.304 473.096,251.428 472.811,249.513 471.012 C 246.775 468.440,246.290 466.414,248.250 465.731 C 250.194 465.053,251.603 465.889,253.039 468.573 " style="stroke: none; fill: black;"></path></svg>