<?xml version="1.0" encoding="UTF-8" standalone="no"?><!DOCTYPE svg PUBLIC "-//W3C//DTD SVG 1.1//EN" "http://www.w3.org/Graphics/SVG/1.1/DTD/svg11.dtd"><svg width="100%" height="100%" viewBox="0 0 512 512" version="1.1" xmlns="http://www.w3.org/2000/svg" xmlns:xlink="http://www.w3.org/1999/xlink" xml:space="preserve" xmlns:serif="http://www.serif.com/" style="fill-rule:evenodd;clip-rule:evenodd;stroke-linejoin:round;stroke-miterlimit:2;"><path d="M246.202,21.466c-13.679,4.793 -28.165,12.94 -38.202,21.485c-3.025,2.575 -9.55,7.549 -14.5,11.053c-4.95,3.504 -10.488,7.749 -12.306,9.433c-6.762,6.265 -12.055,17.17 -13.621,28.063c-0.396,2.75 -2.976,9.725 -5.735,15.5c-10.195,21.344 -12.838,31.676 -12.838,50.18c0,12.855 2.633,27.814 7.361,41.82c2.312,6.848 3.21,8.138 10.335,14.841c4.292,4.037 10.841,9.794 14.554,12.792c8.021,6.479 7.999,6.348 3.856,22.549c-1.591,6.225 -3.223,13.334 -3.626,15.798c-0.403,2.464 -1.983,9.439 -3.51,15.5c-5.228,20.752 -6.329,30.221 -5.664,48.725c0.331,9.215 1.067,17.624 1.637,18.688c0.569,1.063 3.177,2.707 5.796,3.652c2.618,0.946 6.06,3.086 7.647,4.756l2.887,3.036l-0.513,16.075c-0.375,11.764 -0.118,18.222 0.958,24.081c3.174,17.276 1.575,45.644 -2.648,46.985c-1.824,0.579 -11.382,-1.756 -28.878,-7.054c-13.161,-3.985 -15.46,-4.156 -18.257,-1.359c-1.606,1.606 -1.916,2.774 -1.392,5.25c1.39,6.58 8.768,10.865 22.915,13.309c4.423,0.764 10.067,2.108 12.542,2.987c6.058,2.15 23.697,2.931 26.881,1.191c3.385,-1.851 5.814,-8.946 7.117,-20.785c1.194,-10.851 0.884,-14.387 -3.071,-35.017c-1.711,-8.923 -1.91,-12.645 -1.324,-24.781c0.379,-7.855 1.025,-14.489 1.435,-14.742c0.409,-0.253 2.867,0.478 5.461,1.626c3.544,1.567 8.358,2.34 19.359,3.107c8.053,0.561 14.834,1.199 15.07,1.416c0.235,0.218 -0.121,3.878 -0.792,8.135c-3.105,19.711 -2.412,39.799 2.458,71.239c2.588,16.712 2.891,21.685 1.457,23.951c-0.722,1.142 -6.213,1.738 -25.735,2.793c-26.203,1.416 -33.926,2.617 -35.718,5.556c-0.921,1.509 -0.396,2.458 3.258,5.885l4.357,4.086l26.559,-0.732c25.187,-0.694 26.95,-0.868 34.125,-3.385c6.253,-2.194 7.733,-3.134 8.532,-5.419c0.709,-2.026 -0.053,-10.898 -2.848,-33.172c-3.441,-27.422 -3.77,-32.058 -3.356,-47.235c0.385,-14.136 0.786,-17.558 2.502,-21.394c3.073,-6.863 6.615,-23.296 5.874,-27.245c-0.347,-1.853 -1.75,-4.42 -3.116,-5.703c-2.329,-2.188 -2.485,-2.97 -2.485,-12.448c0,-8.74 0.424,-11.331 3.118,-19.076c1.715,-4.929 4.189,-11.083 5.499,-13.676c1.309,-2.592 2.833,-7.767 3.386,-11.5c0.553,-3.732 1.437,-8.586 1.965,-10.786c0.528,-2.2 1.269,-9.738 1.646,-16.752c0.472,-8.789 1.105,-13.1 2.037,-13.873c1.008,-0.837 3.586,-0.689 10.137,0.584c12.349,2.398 33.284,1.674 41.494,-1.436c6.703,-2.539 7.112,-3.074 13.04,-17.023c5.56,-13.085 7.678,-20.15 7.678,-25.616c0,-2.34 0.483,-5.521 1.074,-7.069c0.59,-1.548 1.944,-7.765 3.009,-13.815c2.216,-12.593 2.865,-14.384 7.189,-19.844c2.48,-3.131 3.503,-5.895 4.834,-13.064c0.928,-5 2.698,-11.393 3.932,-14.206c2.178,-4.963 2.192,-5.215 0.498,-8.5c-0.96,-1.862 -2.791,-6.536 -4.069,-10.386c-12.972,-39.084 -19.441,-51.684 -35.428,-69c-7.833,-8.485 -14.123,-13.496 -25.039,-19.949c-13.595,-8.037 -25.885,-11.654 -41.486,-12.212c-10.946,-0.391 -12.663,-0.202 -19.312,2.127Z" style="fill:#fff;"/><path d="M246.202,21.466c-13.679,4.793 -28.165,12.94 -38.202,21.485c-3.025,2.575 -9.55,7.549 -14.5,11.053c-4.95,3.504 -10.488,7.749 -12.306,9.433c-6.762,6.265 -12.055,17.17 -13.621,28.063c-0.396,2.75 -2.976,9.725 -5.735,15.5c-10.195,21.344 -12.838,31.676 -12.838,50.18c0,12.855 2.633,27.814 7.361,41.82c2.312,6.848 3.21,8.138 10.335,14.841c4.292,4.037 10.841,9.794 14.554,12.792c8.021,6.479 7.999,6.348 3.856,22.549c-1.591,6.225 -3.223,13.334 -3.626,15.798c-0.403,2.464 -1.983,9.439 -3.51,15.5c-5.228,20.752 -6.329,30.221 -5.664,48.725c0.331,9.215 1.067,17.624 1.637,18.688c0.569,1.063 3.177,2.707 5.796,3.652c2.618,0.946 6.06,3.086 7.647,4.756l2.887,3.036l-0.513,16.075c-0.375,11.764 -0.118,18.222 0.958,24.081c3.174,17.276 1.575,45.644 -2.648,46.985c-1.824,0.579 -11.382,-1.756 -28.878,-7.054c-13.161,-3.985 -15.46,-4.156 -18.257,-1.359c-1.606,1.606 -1.916,2.774 -1.392,5.25c1.39,6.58 8.768,10.865 22.915,13.309c4.423,0.764 10.067,2.108 12.542,2.987c6.058,2.15 23.697,2.931 26.881,1.191c3.385,-1.851 5.814,-8.946 7.117,-20.785c1.194,-10.851 0.884,-14.387 -3.071,-35.017c-1.711,-8.923 -1.91,-12.645 -1.324,-24.781c0.379,-7.855 1.025,-14.489 1.435,-14.742c0.409,-0.253 2.867,0.478 5.461,1.626c3.544,1.567 8.358,2.34 19.359,3.107c8.053,0.561 14.834,1.199 15.07,1.416c0.235,0.218 -0.121,3.878 -0.792,8.135c-3.105,19.711 -2.412,39.799 2.458,71.239c2.588,16.712 2.891,21.685 1.457,23.951c-0.722,1.142 -6.213,1.738 -25.735,2.793c-26.203,1.416 -33.926,2.617 -35.718,5.556c-0.921,1.509 -0.396,2.458 3.258,5.885l4.357,4.086l26.559,-0.732c25.187,-0.694 26.95,-0.868 34.125,-3.385c6.253,-2.194 7.733,-3.134 8.532,-5.419c0.709,-2.026 -0.053,-10.898 -2.848,-33.172c-3.441,-27.422 -3.77,-32.058 -3.356,-47.235c0.385,-14.136 0.786,-17.558 2.502,-21.394c3.073,-6.863 6.615,-23.296 5.874,-27.245c-0.347,-1.853 -1.75,-4.42 -3.116,-5.703c-2.329,-2.188 -2.485,-2.97 -2.485,-12.448c0,-8.74 0.424,-11.331 3.118,-19.076c1.715,-4.929 4.189,-11.083 5.499,-13.676c1.309,-2.592 2.833,-7.767 3.386,-11.5c0.553,-3.732 1.437,-8.586 1.965,-10.786c0.528,-2.2 1.269,-9.738 1.646,-16.752c0.472,-8.789 1.105,-13.1 2.037,-13.873c1.008,-0.837 3.586,-0.689 10.137,0.584c12.349,2.398 33.284,1.674 41.494,-1.436c6.703,-2.539 7.112,-3.074 13.04,-17.023c5.56,-13.085 7.678,-20.15 7.678,-25.616c0,-2.34 0.483,-5.521 1.074,-7.069c0.59,-1.548 1.944,-7.765 3.009,-13.815c2.216,-12.593 2.865,-14.384 7.189,-19.844c2.48,-3.131 3.503,-5.895 4.834,-13.064c0.928,-5 2.698,-11.393 3.932,-14.206c2.178,-4.963 2.192,-5.215 0.498,-8.5c-0.96,-1.862 -2.791,-6.536 -4.069,-10.386c-12.972,-39.084 -19.441,-51.684 -35.428,-69c-7.833,-8.485 -14.123,-13.496 -25.039,-19.949c-13.595,-8.037 -25.885,-11.654 -41.486,-12.212c-10.946,-0.391 -12.663,-0.202 -19.312,2.127m31.824,6.566c14.865,1.811 31.579,11.263 44.396,25.107c14.405,15.558 16.506,19.426 35.232,64.861c4.756,11.539 5.513,17.963 2.863,24.304c-0.815,1.952 -1.779,6.169 -2.142,9.372c-0.449,3.959 -1.893,8.089 -4.51,12.896c-4.984,9.154 -7.865,17.629 -7.865,23.134c0,2.416 -0.657,5.663 -1.459,7.215c-0.802,1.551 -1.747,5.916 -2.1,9.7c-0.683,7.331 -4.402,16.839 -8.886,22.718c-1.405,1.842 -2.555,3.995 -2.555,4.783c0,5.046 -8.782,9.741 -19.84,10.606l-7.34,0.574l-3.829,-4.189l-3.83,-4.189l-7.33,0.251c-4.032,0.138 -9.874,-0.127 -12.982,-0.588c-5.276,-0.783 -5.893,-0.655 -9.283,1.931c-3.542,2.701 -3.87,2.755 -13.349,2.203c-5.344,-0.311 -11.742,-1.303 -14.217,-2.205c-2.475,-0.901 -8.325,-2.544 -13,-3.649c-13.462,-3.184 -24.827,-6.882 -33.891,-11.029c-6.743,-3.085 -9.789,-5.262 -15.514,-11.088c-3.919,-3.988 -8.304,-9.275 -9.745,-11.75c-5.128,-8.804 -8.751,-27.669 -8.824,-45.948c-0.029,-7.264 3.748,-21.101 7.353,-26.939c5.334,-8.637 12.641,-27.236 13.976,-35.573c0.744,-4.645 2.164,-9.704 3.155,-11.243c3.117,-4.839 15.864,-16.808 23.578,-22.139c4.077,-2.818 11.237,-8.086 15.912,-11.708c4.903,-3.799 13.578,-9.074 20.5,-12.465c11.331,-5.552 12.42,-5.883 19.526,-5.932c4.14,-0.029 11.34,0.411 16,0.979m-38.006,37.711c-5.256,0.463 -7.02,1.658 -7.02,4.757c0,3.257 2.695,5.014 7.529,4.907c4.888,-0.108 10.471,-3.541 10.471,-6.44c0,-1.972 -2.902,-4.095 -5.184,-3.792c-0.724,0.096 -3.332,0.352 -5.796,0.568m76.98,35.925c-6.116,1.653 -9,3.725 -9,6.464c0,2.967 4.369,5.046 10.92,5.196c7.389,0.17 11.407,-2.275 11.898,-7.242c0.612,-6.182 -3.008,-7.339 -13.818,-4.418m-92.479,12.582c-0.875,1.237 -2.529,5.318 -3.674,9.067c-1.842,6.03 -2.029,8.629 -1.618,22.5c0.576,19.47 2.232,24.668 10.685,33.535c6.314,6.623 9.533,8.511 19.85,11.645c6.318,1.919 8.928,2.145 20.488,1.774c7.867,-0.252 14.854,-1.003 17.201,-1.848c6.286,-2.263 23.547,-23.224 23.547,-28.594c0,-3.155 -3.393,-6.331 -6.75,-6.319c-2.313,0.008 -3.465,1.134 -7.25,7.087c-2.475,3.892 -6.561,9.009 -9.08,11.371c-4.023,3.772 -5.482,4.454 -12,5.614c-21.547,3.834 -35.477,-1.411 -41.947,-15.795c-3.238,-7.2 -4.603,-24.828 -2.982,-38.527c1.018,-8.608 1.021,-11.04 0.017,-12.25c-1.809,-2.18 -4.65,-1.856 -6.487,0.74m-15.921,126.356c6.5,2.716 33.473,9.145 41.4,9.868c12.936,1.18 14.768,1.949 16.058,6.742c0.901,3.346 0.778,5.823 -0.631,12.72c-0.962,4.71 -2.352,9.779 -3.088,11.264c-0.737,1.486 -1.339,3.839 -1.339,5.23c0,1.391 -1.847,7.109 -4.103,12.707c-5.977,14.824 -8.847,25.404 -8.913,32.863c-0.083,9.335 -2.347,20.061 -4.579,21.693c-7.426,5.43 -25.301,2.502 -39.075,-6.401c-3.394,-2.194 -9.019,-5.017 -12.5,-6.273c-9.069,-3.273 -9.83,-4.439 -9.83,-15.057c0,-12.166 1.483,-21.927 5.994,-39.462c2.123,-8.25 4.158,-17.025 4.522,-19.5c0.812,-5.513 6.495,-25.028 7.789,-26.75c1.261,-1.678 3.675,-1.574 8.295,0.356"/></svg>