<?xml version="1.0" encoding="UTF-8" standalone="no"?><!DOCTYPE svg PUBLIC "-//W3C//DTD SVG 1.1//EN" "http://www.w3.org/Graphics/SVG/1.1/DTD/svg11.dtd"><svg width="100%" height="100%" viewBox="0 0 512 512" version="1.1" xmlns="http://www.w3.org/2000/svg" xmlns:xlink="http://www.w3.org/1999/xlink" xml:space="preserve" xmlns:serif="http://www.serif.com/" style="fill-rule:evenodd;clip-rule:evenodd;stroke-linejoin:round;stroke-miterlimit:2;"><path d="M386.944,25.105c-2.363,0.955 -2.65,1.37 -8.468,12.28c-3.31,6.2 -7.626,13.736 -9.593,16.723c-7.55,11.495 -15.76,22.836 -19.638,27.12c-2.218,2.457 -6.043,6.93 -8.5,9.94c-4.674,5.74 -15.272,16.886 -20.81,21.887l-11.526,10.663c-4.56,4.243 -9.1,8.343 -10.096,9.106c-3.448,2.635 -9.863,11.147 -14.826,19.67c-5.62,9.65 -6.59,10.914 -9.304,12.08c-2.642,1.14 -7.87,-1.323 -12.396,-5.837c-2.88,-2.877 -4.354,-3.785 -8.067,-4.98c-2.9,-0.937 -5.295,-2.184 -6.62,-3.46c-2.61,-2.517 -4.83,-2.13 -8.378,1.476c-3.34,3.39 -4.632,3.118 -7.536,-1.585c-6.724,-10.905 -8.883,-16.315 -14.046,-35.22c-2.866,-10.495 -6.232,-21.568 -7.482,-24.607c-1.25,-3.039 -4.84,-12.24 -7.985,-20.446c-9.267,-24.182 -10.277,-25.9 -14.358,-24.457c-3.067,1.08 -26.27,22.97 -27.158,25.613c-0.42,1.247 -0.167,2.804 0.706,4.324c0.742,1.305 3.7,6.8 6.566,12.206c2.866,5.406 6.955,12.525 9.1,15.818c2.145,3.293 5.36,8.92 7.163,12.502c5.97,11.863 11.813,21.724 18.952,31.993c3.88,5.58 7.886,12.238 8.9,14.795c1.014,2.557 2.892,7.094 4.173,10.08c1.281,2.986 2.26,5.847 2.18,6.357c-0.4,2.444 -6.027,-0.6 -13.06,-7.086c-4.418,-4.067 -5.73,-4.145 -11.583,-0.692c-5.523,3.27 -5.87,3.623 -11.78,12.243c-5.094,7.43 -5.178,7.6 -4.868,9.908c0.765,5.69 5.476,3.85 10.994,-4.3c4.226,-6.25 7.133,-8.85 10.84,-9.696c3.056,-0.696 5.67,0.724 10.257,5.573c1.538,1.627 4.148,3.807 5.79,4.84c5.13,3.222 4.568,7.712 -1,8.06c-1.536,0.096 -4.794,-0.1 -7.245,-0.46c-13.225,-1.875 -14.02,-1.873 -16.583,0.035c-2.116,1.576 -2.882,2.786 -5.535,8.727c-2.92,6.54 -3.647,9.67 -2.683,11.555c0.756,1.472 1.934,1.6 4.287,0.43c1.954,-0.968 2.597,-1.82 4.386,-5.828c2.907,-6.51 4.657,-7.542 11.112,-6.555l9.265,1.302c3.57,0.454 4.404,0.787 4.845,1.936c0.83,2.172 0.245,16.415 -0.767,18.682c-1.037,2.322 -6.428,6.567 -14.42,11.353c-3.008,1.797 -7.21,4.664 -9.345,6.367c-2.143,1.7 -7.21,5.564 -11.274,8.58c-7.33,5.444 -27.957,23.456 -34.14,29.818c-1.775,1.823 -5.853,5.558 -9.058,8.3c-3.21,2.74 -9.863,9.09 -14.785,14.113c-7.097,7.25 -10.05,10.814 -14.316,17.27l-8.031,11.836c-1.467,2.03 -4.31,6.9 -6.32,10.843c-4.02,7.862 -14.46,26.37 -20.977,37.183l-8.906,14.906c-5.344,9.036 -16.185,24.085 -21.167,29.387c-4.04,4.303 -4.477,5.218 -3.76,7.79c0.863,3.1 2.735,3.383 10.927,1.704c10.723,-2.193 11.09,-2.147 13.344,1.658c1.235,2.08 3.87,4.626 7.697,7.44c3.202,2.353 5.98,4.566 6.172,4.916c1.395,2.486 11.39,9.164 20.19,13.486c8.88,4.363 10.46,5.406 16.03,10.58c3.397,3.158 8.277,6.94 10.84,8.406c4.47,2.55 4.788,2.62 7.436,1.582c4.42,-1.73 7.548,-6.06 11.498,-15.935c2.792,-6.97 3.406,-9.276 3.93,-14.722c0.724,-7.542 1.377,-9.186 7.072,-17.7c2.342,-3.5 5.48,-8.62 6.973,-11.378c1.493,-2.758 4.405,-7.418 6.475,-10.358c2.064,-2.943 4.93,-7.98 6.367,-11.194c1.468,-3.272 4.993,-9.423 8.02,-13.984l13.663,-20.703l12.386,-18.623c2.268,-3.335 6.094,-9.704 8.498,-14.157c2.404,-4.453 4.624,-8.302 4.94,-8.553c1.468,-1.184 2.928,0.846 3.193,4.446c0.312,4.242 1.766,15.438 3.575,27.567c0.737,4.954 0.89,9.49 0.416,12.36c-0.642,3.868 -0.337,6.024 2.078,14.757c3.277,11.842 3.26,13.772 -0.13,14.89c-1.274,0.423 -4.832,1.868 -7.9,3.214c-3.068,1.346 -6.7,2.595 -8.07,2.774c-5.737,0.747 -7.145,4.4 -5.948,15.33c0.514,4.688 0.866,10.945 0.79,13.907c-0.18,6.896 0.216,8.62 2.19,9.5c3.5,1.567 5.702,-1.924 5.283,-8.408c-0.574,-8.973 -0.322,-17.303 0.6,-19.345c1.377,-3.067 11.168,-8.557 13.433,-7.528c1.92,0.873 2.264,1.502 2.79,5.084c0.533,3.6 0.183,4.206 -3.92,6.694c-1.925,1.164 -3.768,2.73 -4.102,3.48c-0.334,0.75 0.237,4.426 1.266,8.173c2.214,8.042 2.578,14.86 1.28,23.87c-0.52,3.613 -0.758,7.405 -0.523,8.428c0.822,3.608 5.25,3.6 6.865,-0.026c0.41,-0.917 0.964,-6.564 1.233,-12.55c0.465,-10.437 1.125,-14.133 2.394,-13.566c0.328,0.146 1.5,1.544 2.626,3.105c1.918,2.686 2.348,2.928 7.945,4.47c4.383,1.208 7.422,1.48 11.7,1.05c7.602,-0.765 12.034,-2.52 18.158,-7.182c2.77,-2.114 5.44,-3.932 5.926,-4.042c1.73,-0.386 4.622,2.63 5.628,5.874c1.227,3.94 0.47,8.915 -3.07,20.252c-2.323,7.437 -2.64,9.698 -1.68,11.818c0.707,1.564 2.472,1.754 4.177,0.447c1.58,-1.204 1.965,-2.15 4.49,-10.95c3.416,-11.892 5.31,-22.318 4.635,-25.52c-0.342,-1.647 -1.68,-3.428 -4.192,-5.584c-3.668,-3.152 -3.684,-3.182 -3.58,-7.95c0.06,-2.63 0.55,-5.572 1.097,-6.536c0.946,-1.66 1.327,-1.666 7.55,-0.063c9.366,2.41 9.522,2.617 9.12,12.145c-0.313,7.354 -0.045,18.01 0.524,20.846c0.133,0.664 0.927,1.512 1.765,1.886c1.172,0.523 1.998,0.174 3.555,-1.487c2.47,-2.63 2.77,-5.096 1.522,-12.495c-0.583,-3.424 -0.442,-6.92 0.502,-12.5c2.072,-12.242 1.97,-12.455 -6.54,-13.913c-2.605,-0.447 -6.985,-1.8 -9.732,-3.028c-4.602,-2.04 -5.077,-2.444 -6.07,-5.166c-0.678,-1.836 -1.436,-3.642 -2.273,-5.412c-2.17,-4.438 -0.773,-13.863 2.063,-13.902c2.03,-0.026 5.735,3.856 11.34,11.87c2.933,4.195 5.746,7.81 6.245,8.032c0.499,0.222 2.03,1.93 3.403,3.795c4.698,6.393 8.197,9.566 12.183,11.043c9.586,3.552 11.367,5.32 16.727,16.622c1.273,2.68 3.474,6.182 4.9,7.786c5.945,6.698 12.263,16.05 12.452,18.434c0.123,1.6 -0.586,4.38 -2.082,8.17c-3.097,7.817 -3.384,9.195 -2.06,9.786c1.985,0.887 5.793,-1.606 7.855,-5.133l2.5,-4.296c1.106,-1.89 3.227,-0.443 7.302,4.98c2.212,2.94 4.483,5.553 5.054,5.808c2.423,1.08 5.16,-2.492 4.096,-5.343c-0.318,-0.854 -2.35,-4.095 -4.512,-7.2c-2.162,-3.105 -4.353,-6.937 -4.865,-8.512l-0.93,-2.863l5.804,-12.086c4.61,-9.59 6.056,-13.173 7.013,-17.354c0.66,-2.9 1.58,-5.693 2.037,-6.212c0.464,-0.516 2.062,-0.654 3.553,-0.306c1.97,0.46 3.104,0.24 4.137,-0.8c2.067,-2.086 1.84,-4.43 -0.835,-8.538c-2.254,-3.464 -2.26,-3.517 -0.97,-9.93c1.717,-8.51 2.587,-10.36 6.378,-13.568c5.037,-4.25 11.846,-9.42 14.7,-11.152c1.445,-0.87 3.786,-2.64 5.213,-3.93c10.917,-9.853 2.53,-22.676 -21.37,-32.66c-8.157,-3.408 -8.765,-3.8 -11.937,-7.517c-5.427,-6.374 -6.42,-7.8 -9.73,-13.93c-1.728,-3.208 -4.338,-7.28 -5.793,-9.044c-1.455,-1.764 -5.382,-7.226 -8.73,-12.138c-3.348,-4.912 -7.597,-10.437 -9.447,-12.28c-1.85,-1.843 -7.695,-7.964 -12.986,-13.6l-13.366,-14.102c-6.566,-6.76 -15.915,-17.12 -18.028,-19.972c-1.12,-1.517 -2.484,-2.967 -3.015,-3.214c-0.531,-0.247 -1.394,-1.46 -1.895,-2.686c-1.752,-4.23 0.422,-5.724 7.6,-5.23c2.698,0.186 5.3,0.52 5.802,0.738c0.498,0.223 1.594,3.165 2.433,6.538l2.365,9.4c0.882,3.44 3.322,5.35 5.48,4.284c1.81,-0.893 1.918,-1.897 0.873,-8.088c-0.546,-3.23 -1.026,-8.45 -1.073,-11.607c-0.047,-3.157 -0.446,-6.49 -0.888,-7.408c-1.1,-2.255 -3.635,-3.275 -7.09,-2.842c-1.573,0.196 -5.55,0.245 -8.832,0.1c-4.762,-0.196 -6.185,-0.533 -7.047,-1.67c-2.328,-3.07 -0.256,-12.084 4.05,-17.653c2.024,-2.61 2.75,-2.994 6.512,-3.46c4.805,-0.6 16.86,0.748 20.3,2.263c2.02,0.892 2.56,1.9 4.602,8.63c1.447,4.752 2.308,9.592 2.298,12.86c-0.032,7.446 2.11,11.066 5.004,8.463c3.73,-3.362 3.66,-11.444 -0.21,-23.477c-4.22,-13.136 -4.787,-14.234 -7.802,-15.048c-1.378,-0.373 -6.997,-1.26 -12.483,-1.973c-5.486,-0.713 -11.136,-1.58 -12.547,-1.924c-1.89,-0.462 -3.64,-0.082 -6.63,1.444c-2.23,1.142 -4.197,2.012 -4.367,1.936c-1.105,-0.493 -4.05,-4.793 -3.942,-5.753c0.074,-0.64 1.573,-3.002 3.334,-5.25l5.985,-7.78c2.408,-3.207 3.556,-4.017 8.644,-6.132c8.31,-3.456 14.192,-9.325 22.203,-22.148c4.24,-6.787 7.575,-10.508 21.102,-23.515c8.113,-7.798 9.612,-9.654 14.6,-18.072c1.81,-3.057 5.98,-9.692 9.27,-14.744c5.274,-8.095 6.757,-9.883 12.498,-15.06c3.583,-3.23 8.517,-7.105 10.966,-8.6c5.172,-3.184 8.774,-7.435 8.954,-10.595c0.16,-2.638 -1.292,-4.7 -6.775,-9.584c-2.438,-2.175 -7.276,-7.11 -10.76,-10.972c-8.836,-9.797 -8.16,-9.292 -10.965,-8.16l-0.028,-0.011Z" style="fill:#fff;"/><path d="M386.944,25.105c-2.363,0.955 -2.65,1.37 -8.468,12.28c-3.31,6.2 -7.626,13.736 -9.593,16.723c-7.55,11.495 -15.76,22.836 -19.638,27.12c-2.218,2.457 -6.043,6.93 -8.5,9.94c-4.674,5.74 -15.272,16.886 -20.81,21.887l-11.526,10.663c-4.56,4.243 -9.1,8.343 -10.096,9.106c-3.448,2.635 -9.863,11.147 -14.826,19.67c-5.62,9.65 -6.59,10.914 -9.304,12.08c-2.642,1.14 -7.87,-1.323 -12.396,-5.837c-2.88,-2.877 -4.354,-3.785 -8.067,-4.98c-2.9,-0.937 -5.295,-2.184 -6.62,-3.46c-2.61,-2.517 -4.83,-2.13 -8.378,1.476c-3.34,3.39 -4.632,3.118 -7.536,-1.585c-6.724,-10.905 -8.883,-16.315 -14.046,-35.22c-2.866,-10.495 -6.232,-21.568 -7.482,-24.607c-1.25,-3.039 -4.84,-12.24 -7.985,-20.446c-9.267,-24.182 -10.277,-25.9 -14.358,-24.457c-3.067,1.08 -26.27,22.97 -27.158,25.613c-0.42,1.247 -0.167,2.804 0.706,4.324c0.742,1.305 3.7,6.8 6.566,12.206c2.866,5.406 6.955,12.525 9.1,15.818c2.145,3.293 5.36,8.92 7.163,12.502c5.97,11.863 11.813,21.724 18.952,31.993c3.88,5.58 7.886,12.238 8.9,14.795c1.014,2.557 2.892,7.094 4.173,10.08c1.281,2.986 2.26,5.847 2.18,6.357c-0.4,2.444 -6.027,-0.6 -13.06,-7.086c-4.418,-4.067 -5.73,-4.145 -11.583,-0.692c-5.523,3.27 -5.87,3.623 -11.78,12.243c-5.094,7.43 -5.178,7.6 -4.868,9.908c0.765,5.69 5.476,3.85 10.994,-4.3c4.226,-6.25 7.133,-8.85 10.84,-9.696c3.056,-0.696 5.67,0.724 10.257,5.573c1.538,1.627 4.148,3.807 5.79,4.84c5.13,3.222 4.568,7.712 -1,8.06c-1.536,0.096 -4.794,-0.1 -7.245,-0.46c-13.225,-1.875 -14.02,-1.873 -16.583,0.035c-2.116,1.576 -2.882,2.786 -5.535,8.727c-2.92,6.54 -3.647,9.67 -2.683,11.555c0.756,1.472 1.934,1.6 4.287,0.43c1.954,-0.968 2.597,-1.82 4.386,-5.828c2.907,-6.51 4.657,-7.542 11.112,-6.555l9.265,1.302c3.57,0.454 4.404,0.787 4.845,1.936c0.83,2.172 0.245,16.415 -0.767,18.682c-1.037,2.322 -6.428,6.567 -14.42,11.353c-3.008,1.797 -7.21,4.664 -9.345,6.367c-2.143,1.7 -7.21,5.564 -11.274,8.58c-7.33,5.444 -27.957,23.456 -34.14,29.818c-1.775,1.823 -5.853,5.558 -9.058,8.3c-3.21,2.74 -9.863,9.09 -14.785,14.113c-7.097,7.25 -10.05,10.814 -14.316,17.27l-8.031,11.836c-1.467,2.03 -4.31,6.9 -6.32,10.843c-4.02,7.862 -14.46,26.37 -20.977,37.183l-8.906,14.906c-5.344,9.036 -16.185,24.085 -21.167,29.387c-4.04,4.303 -4.477,5.218 -3.76,7.79c0.863,3.1 2.735,3.383 10.927,1.704c10.723,-2.193 11.09,-2.147 13.344,1.658c1.235,2.08 3.87,4.626 7.697,7.44c3.202,2.353 5.98,4.566 6.172,4.916c1.395,2.486 11.39,9.164 20.19,13.486c8.88,4.363 10.46,5.406 16.03,10.58c3.397,3.158 8.277,6.94 10.84,8.406c4.47,2.55 4.788,2.62 7.436,1.582c4.42,-1.73 7.548,-6.06 11.498,-15.935c2.792,-6.97 3.406,-9.276 3.93,-14.722c0.724,-7.542 1.377,-9.186 7.072,-17.7c2.342,-3.5 5.48,-8.62 6.973,-11.378c1.493,-2.758 4.405,-7.418 6.475,-10.358c2.064,-2.943 4.93,-7.98 6.367,-11.194c1.468,-3.272 4.993,-9.423 8.02,-13.984l13.663,-20.703l12.386,-18.623c2.268,-3.335 6.094,-9.704 8.498,-14.157c2.404,-4.453 4.624,-8.302 4.94,-8.553c1.468,-1.184 2.928,0.846 3.193,4.446c0.312,4.242 1.766,15.438 3.575,27.567c0.737,4.954 0.89,9.49 0.416,12.36c-0.642,3.868 -0.337,6.024 2.078,14.757c3.277,11.842 3.26,13.772 -0.13,14.89c-1.274,0.423 -4.832,1.868 -7.9,3.214c-3.068,1.346 -6.7,2.595 -8.07,2.774c-5.737,0.747 -7.145,4.4 -5.948,15.33c0.514,4.688 0.866,10.945 0.79,13.907c-0.18,6.896 0.216,8.62 2.19,9.5c3.5,1.567 5.702,-1.924 5.283,-8.408c-0.574,-8.973 -0.322,-17.303 0.6,-19.345c1.377,-3.067 11.168,-8.557 13.433,-7.528c1.92,0.873 2.264,1.502 2.79,5.084c0.533,3.6 0.183,4.206 -3.92,6.694c-1.925,1.164 -3.768,2.73 -4.102,3.48c-0.334,0.75 0.237,4.426 1.266,8.173c2.214,8.042 2.578,14.86 1.28,23.87c-0.52,3.613 -0.758,7.405 -0.523,8.428c0.822,3.608 5.25,3.6 6.865,-0.026c0.41,-0.917 0.964,-6.564 1.233,-12.55c0.465,-10.437 1.125,-14.133 2.394,-13.566c0.328,0.146 1.5,1.544 2.626,3.105c1.918,2.686 2.348,2.928 7.945,4.47c4.383,1.208 7.422,1.48 11.7,1.05c7.602,-0.765 12.034,-2.52 18.158,-7.182c2.77,-2.114 5.44,-3.932 5.926,-4.042c1.73,-0.386 4.622,2.63 5.628,5.874c1.227,3.94 0.47,8.915 -3.07,20.252c-2.323,7.437 -2.64,9.698 -1.68,11.818c0.707,1.564 2.472,1.754 4.177,0.447c1.58,-1.204 1.965,-2.15 4.49,-10.95c3.416,-11.892 5.31,-22.318 4.635,-25.52c-0.342,-1.647 -1.68,-3.428 -4.192,-5.584c-3.668,-3.152 -3.684,-3.182 -3.58,-7.95c0.06,-2.63 0.55,-5.572 1.097,-6.536c0.946,-1.66 1.327,-1.666 7.55,-0.063c9.366,2.41 9.522,2.617 9.12,12.145c-0.313,7.354 -0.045,18.01 0.524,20.846c0.133,0.664 0.927,1.512 1.765,1.886c1.172,0.523 1.998,0.174 3.555,-1.487c2.47,-2.63 2.77,-5.096 1.522,-12.495c-0.583,-3.424 -0.442,-6.92 0.502,-12.5c2.072,-12.242 1.97,-12.455 -6.54,-13.913c-2.605,-0.447 -6.985,-1.8 -9.732,-3.028c-4.602,-2.04 -5.077,-2.444 -6.07,-5.166c-0.678,-1.836 -1.436,-3.642 -2.273,-5.412c-2.17,-4.438 -0.773,-13.863 2.063,-13.902c2.03,-0.026 5.735,3.856 11.34,11.87c2.933,4.195 5.746,7.81 6.245,8.032c0.499,0.222 2.03,1.93 3.403,3.795c4.698,6.393 8.197,9.566 12.183,11.043c9.586,3.552 11.367,5.32 16.727,16.622c1.273,2.68 3.474,6.182 4.9,7.786c5.945,6.698 12.263,16.05 12.452,18.434c0.123,1.6 -0.586,4.38 -2.082,8.17c-3.097,7.817 -3.384,9.195 -2.06,9.786c1.985,0.887 5.793,-1.606 7.855,-5.133l2.5,-4.296c1.106,-1.89 3.227,-0.443 7.302,4.98c2.212,2.94 4.483,5.553 5.054,5.808c2.423,1.08 5.16,-2.492 4.096,-5.343c-0.318,-0.854 -2.35,-4.095 -4.512,-7.2c-2.162,-3.105 -4.353,-6.937 -4.865,-8.512l-0.93,-2.863l5.804,-12.086c4.61,-9.59 6.056,-13.173 7.013,-17.354c0.66,-2.9 1.58,-5.693 2.037,-6.212c0.464,-0.516 2.062,-0.654 3.553,-0.306c1.97,0.46 3.104,0.24 4.137,-0.8c2.067,-2.086 1.84,-4.43 -0.835,-8.538c-2.254,-3.464 -2.26,-3.517 -0.97,-9.93c1.717,-8.51 2.587,-10.36 6.378,-13.568c5.037,-4.25 11.846,-9.42 14.7,-11.152c1.445,-0.87 3.786,-2.64 5.213,-3.93c10.917,-9.853 2.53,-22.676 -21.37,-32.66c-8.157,-3.408 -8.765,-3.8 -11.937,-7.517c-5.427,-6.374 -6.42,-7.8 -9.73,-13.93c-1.728,-3.208 -4.338,-7.28 -5.793,-9.044c-1.455,-1.764 -5.382,-7.226 -8.73,-12.138c-3.348,-4.912 -7.597,-10.437 -9.447,-12.28c-1.85,-1.843 -7.695,-7.964 -12.986,-13.6l-13.366,-14.102c-6.566,-6.76 -15.915,-17.12 -18.028,-19.972c-1.12,-1.517 -2.484,-2.967 -3.015,-3.214c-0.531,-0.247 -1.394,-1.46 -1.895,-2.686c-1.752,-4.23 0.422,-5.724 7.6,-5.23c2.698,0.186 5.3,0.52 5.802,0.738c0.498,0.223 1.594,3.165 2.433,6.538l2.365,9.4c0.882,3.44 3.322,5.35 5.48,4.284c1.81,-0.893 1.918,-1.897 0.873,-8.088c-0.546,-3.23 -1.026,-8.45 -1.073,-11.607c-0.047,-3.157 -0.446,-6.49 -0.888,-7.408c-1.1,-2.255 -3.635,-3.275 -7.09,-2.842c-1.573,0.196 -5.55,0.245 -8.832,0.1c-4.762,-0.196 -6.185,-0.533 -7.047,-1.67c-2.328,-3.07 -0.256,-12.084 4.05,-17.653c2.024,-2.61 2.75,-2.994 6.512,-3.46c4.805,-0.6 16.86,0.748 20.3,2.263c2.02,0.892 2.56,1.9 4.602,8.63c1.447,4.752 2.308,9.592 2.298,12.86c-0.032,7.446 2.11,11.066 5.004,8.463c3.73,-3.362 3.66,-11.444 -0.21,-23.477c-4.22,-13.136 -4.787,-14.234 -7.802,-15.048c-1.378,-0.373 -6.997,-1.26 -12.483,-1.973c-5.486,-0.713 -11.136,-1.58 -12.547,-1.924c-1.89,-0.462 -3.64,-0.082 -6.63,1.444c-2.23,1.142 -4.197,2.012 -4.367,1.936c-1.105,-0.493 -4.05,-4.793 -3.942,-5.753c0.074,-0.64 1.573,-3.002 3.334,-5.25l5.985,-7.78c2.408,-3.207 3.556,-4.017 8.644,-6.132c8.31,-3.456 14.192,-9.325 22.203,-22.148c4.24,-6.787 7.575,-10.508 21.102,-23.515c8.113,-7.798 9.612,-9.654 14.6,-18.072c1.81,-3.057 5.98,-9.692 9.27,-14.744c5.274,-8.095 6.757,-9.883 12.498,-15.06c3.583,-3.23 8.517,-7.105 10.966,-8.6c5.172,-3.184 8.774,-7.435 8.954,-10.595c0.16,-2.638 -1.292,-4.7 -6.775,-9.584c-2.438,-2.175 -7.276,-7.11 -10.76,-10.972c-8.836,-9.797 -8.16,-9.292 -10.965,-8.16m7.012,15.5c5.637,5.95 10.08,11.38 10.688,13.054c0.885,2.437 -0.13,3.783 -5.63,7.473c-8.687,5.82 -11.822,8.682 -14.788,13.5c-1.52,2.474 -3.913,5.943 -5.32,7.707c-2.344,2.95 -6.043,8.756 -13.39,21.02c-2.753,4.584 -6.487,8.577 -12.28,13.137c-4.093,3.214 -12.37,11.232 -15.84,15.336c-1.632,1.927 -4.832,6.697 -7.113,10.6c-5.553,9.485 -9.34,13.25 -15.332,15.257c-6,2 -8.365,3.86 -15.092,11.88c-3.08,3.673 -6.16,6.963 -6.834,7.315c-1.025,0.534 -1.83,-0.26 -4.885,-4.815l-3.653,-5.454l3.07,-6.533c4.093,-8.696 9.095,-15.936 13.69,-19.798c4.99,-4.194 23.926,-22.257 32.927,-31.408c8.6,-8.742 23.626,-26.706 27.55,-32.932c1.545,-2.45 3.89,-5.8 5.214,-7.42c2.808,-3.467 11.786,-17.6 13.237,-20.824c1.597,-3.56 6.634,-10.08 8.172,-10.588c1.825,-0.597 1.614,-0.73 5.612,3.497m-204.339,20.522c0.828,1.637 2.587,6.552 3.906,10.92c1.326,4.372 4.355,12.267 6.733,17.544c2.8,6.233 6.047,15.75 9.237,27.15c5.425,19.4 7.862,25.844 14.163,37.387c4.28,7.848 5.306,11.964 3.815,15.32c-0.398,0.892 -1.39,1.725 -2.203,1.85c-1.767,0.27 -3.736,-3.132 -5.8,-10.023c-0.937,-3.12 -3.827,-7.985 -9.978,-16.797c-4.762,-6.82 -9.887,-14.817 -11.382,-17.764c-1.495,-2.947 -3.792,-6.92 -5.104,-8.828c-1.312,-1.908 -3.404,-5.85 -4.653,-8.76c-1.249,-2.91 -4.588,-8.693 -7.428,-12.852c-6.573,-9.63 -11.906,-21.6 -10.928,-24.522c0.712,-2.12 10.65,-11.166 14.6,-13.29c2.473,-1.33 3.197,-0.947 5.023,2.662m71.306,107.3c2.558,1.284 6.37,3.562 8.473,5.066c3.572,2.553 4.012,2.692 6.666,2.097c3.74,-0.84 5.086,0.32 9.334,8.046c1.874,3.403 4.817,8.312 6.54,10.91c3.772,5.678 4.21,8.695 3.062,21.052c-0.75,8.156 -0.936,8.913 -2.52,10.292c-1.842,1.598 -8.99,3.822 -21.646,6.726c-9.216,2.114 -13.84,2.44 -20.263,1.427c-2.55,-0.403 -9.574,-0.87 -15.6,-1.038c-8.674,-0.243 -11.112,-0.574 -11.67,-1.6c-1.16,-2.128 -0.29,-23.118 1.322,-31.668c1.127,-5.967 1.977,-8.783 3.393,-11.22c1.168,-2.014 2.222,-4.946 2.77,-7.69c1.792,-9.006 5.58,-14.26 10.628,-14.737c1.505,-0.14 3.6,-0.91 4.632,-1.712c2.567,-1.967 4.69,-1.956 7.703,0.036c1.395,0.92 4.625,2.722 7.177,4.003m13.152,18.056c-2.472,0.776 -5.125,7.27 -5.218,12.78c-0.1,6.494 3.272,11.755 6.346,9.88c0.613,-0.38 2.17,-2.575 3.447,-4.883c2.69,-4.853 2.95,-7.243 1.4,-13.06c-1.07,-4.05 -3.073,-5.627 -5.985,-4.718m-22.514,1.77c-2.37,1.313 -5.077,5.126 -5.352,7.535c-0.353,3.092 0.622,4.774 3.606,6.197c3.296,1.573 5.956,0.3 7.735,-3.674c2.396,-5.365 -1.792,-12.394 -5.99,-10.058m41.704,48.253c0.43,0.493 0.77,2.325 0.748,4.067c-0.022,1.742 0.39,5.46 0.91,8.256c0.52,2.796 0.93,6.935 0.914,9.19c-0.01,2.26 0.225,8.566 0.524,14.013c1.047,18.973 0.757,22.233 -2.126,23.93c-0.95,0.558 -5.884,1.336 -10.967,1.727c-11.81,0.907 -19.9,2.58 -29.858,6.183c-6.372,2.3 -9.475,2.904 -15.568,3.03c-4.19,0.086 -8.295,-0.147 -9.127,-0.518c-1.202,-0.537 -1.663,-2.145 -2.25,-7.812c-0.403,-3.924 -0.78,-8.933 -0.84,-11.134c-0.06,-2.201 -0.584,-6.782 -1.164,-10.18c-0.58,-3.398 -0.903,-10.276 -0.72,-15.283c0.188,-5.005 0.104,-10.95 -0.184,-13.21c-0.62,-4.81 -0.023,-6.603 2.324,-6.966c3.135,-0.482 20.288,0.392 24.387,1.244c5.325,1.106 13.278,0.303 20.655,-2.095c3.28,-1.064 7.188,-2.12 8.692,-2.34c1.504,-0.22 4.966,-1.01 7.697,-1.745l5.072,-1.296c0.056,0.023 0.456,0.448 0.884,0.94m18.675,21.037l16.757,17.924c25.415,27.062 36.754,41.594 45.04,57.727c3.822,7.44 4.012,7.667 7.576,9.065c2.646,1.038 4.087,2.1 5.223,3.845c1.417,2.176 2.4,2.73 10.007,5.64c7.364,2.82 9.013,3.725 12.905,7.095c3.55,3.073 4.607,4.5 5.17,6.934c0.552,2.4 0.42,3.494 -0.6,5.025c-1.48,2.24 -7.013,6.72 -14.932,12.093c-8.52,5.787 -8.706,6.06 -12.63,18.733c-0.864,2.783 -0.965,2.863 -2.69,2.093c-0.984,-0.44 -3.028,-2.107 -4.537,-3.705c-1.514,-1.6 -5.01,-4.34 -7.772,-6.096c-4.92,-3.123 -8.97,-7.896 -14.49,-17.05c-0.802,-1.335 -3.877,-5.834 -6.825,-9.995l-10.217,-14.633l-10.9,-15.545c-8.187,-11.48 -14.4,-20.807 -16.802,-25.213c-1.09,-2.01 -3.334,-4.98 -4.972,-6.594c-3.67,-3.61 -4.63,-6.806 -3.806,-12.632c0.7,-4.94 1.016,-21.245 0.498,-25.614c-0.654,-5.467 -0.823,-13.83 -0.31,-14.982c0.78,-1.745 2.078,-0.823 8.296,5.885m-97.012,-14.427c1.09,1.666 0.4,7.357 -1.364,11.307c-1.114,2.494 -3.007,4.746 -7.805,9.277c-8.846,8.348 -11.45,11.356 -14.863,17.192c-8.248,14.086 -25.635,41.352 -33.053,51.817c-2.467,3.487 -6.496,9.592 -8.955,13.567c-2.459,3.975 -6.445,9.9 -8.87,13.165c-7.055,9.522 -18.333,26.578 -26.45,40l-7.53,12.447l-0.673,4.82c-1.196,8.52 -4.13,16.51 -8.78,23.874c-2.23,3.54 -4.588,6.916 -5.242,7.5c-1.792,1.615 -5.8,-0.558 -11.357,-6.14c-6.557,-6.6 -6.663,-8.336 -0.94,-15.09c1.69,-1.994 3.558,-4.707 4.148,-6.03c1.26,-2.82 0.588,-6.144 -1.42,-7.013c-2.26,-0.976 -4.928,0.484 -9.722,5.3c-2.5,2.51 -5.702,5.09 -7.137,5.727c-3.723,1.666 -8,2.44 -9.592,1.73c-1.1,-0.488 -1.185,-1.016 -0.428,-2.71c0.517,-1.158 2.003,-3.36 3.305,-4.892c1.302,-1.532 4.74,-6.668 7.63,-11.415l9.263,-15.186c6.5,-10.663 10.25,-17.186 15.06,-26.212c11.047,-20.714 13.98,-25.585 24.35,-40.496c3.798,-5.456 18.845,-21.25 26.424,-27.736c3.15,-2.7 7.734,-7.063 10.19,-9.696c2.45,-2.635 6.435,-6.322 8.85,-8.196c2.415,-1.874 6.884,-5.745 9.918,-8.61c3.034,-2.865 7.1,-6.258 9.01,-7.542c1.927,-1.283 7.13,-5.06 11.568,-8.393c4.438,-3.333 9.343,-6.802 10.9,-7.712c1.963,-1.181 3.855,-2.477 5.665,-3.881c3.603,-2.85 6.376,-3.123 7.896,-0.785m1.455,31.075c0.073,2.985 0.38,7.433 0.69,9.886c3.286,26.275 3.28,26.83 -0.697,35.783c-3.576,8.06 -13.797,25.6 -18.388,31.56c-3.472,4.514 -11.436,17.085 -17.6,27.797c-1.995,3.457 -4.924,8.158 -6.507,10.45c-1.6,2.288 -3.578,5.713 -4.425,7.61c-1.584,3.548 -6.34,11.315 -13.465,21.988c-4.223,6.328 -7.668,12.103 -14.697,24.617c-2.277,4.056 -5.34,8.71 -6.8,10.342c-3.534,3.92 -3.866,6.492 -1.248,9.55c2.29,2.67 2.016,5.01 -0.978,8.39c-3.157,3.564 -5.022,3.435 -10.782,-0.742c-2.646,-1.92 -5.92,-4.794 -7.277,-6.39c-2.062,-2.427 -3.332,-3.205 -7.81,-4.786c-3.498,-1.234 -5.943,-2.526 -7.072,-3.734l-1.724,-1.847l2.064,-4.344l7.117,-14.523c4.2,-8.467 5.16,-10.836 5.63,-14.11c0.712,-4.873 2.184,-8.22 5.452,-12.374c2.048,-2.598 2.754,-4.064 3.695,-7.64c0.984,-3.722 1.88,-5.485 5.637,-11.143l6.33,-9.84c1.028,-1.715 4.634,-6.823 8.023,-11.348c6.06,-8.105 8.797,-12.103 20.755,-30.256l8.84,-13.18c3.926,-5.61 6.918,-10.406 15.238,-24.375c9.742,-16.357 11.112,-18.445 14.57,-22.257c3.454,-3.806 10.39,-10.434 11.93,-11.405c2.17,-1.37 3.387,0.812 3.52,6.324m76.292,41.866c-0.456,14.088 -4.837,43.946 -6.858,46.744c-1.69,2.347 -7.62,2.467 -18.49,0.377c-4.608,-0.885 -15.37,0.79 -23.663,3.692c-6.245,2.18 -7.834,1.628 -8.04,-2.787c-0.078,-1.637 -0.915,-7.544 -1.86,-13.126c-0.945,-5.582 -1.82,-11.777 -1.952,-13.768c-0.132,-1.991 -0.837,-6.768 -1.573,-10.62c-0.736,-3.852 -1.05,-7.644 -0.7,-8.43c0.48,-1.072 2.505,-1.663 8.157,-2.368c4.135,-0.52 10.426,-1.936 13.97,-3.155c13.288,-4.56 36.057,-8.127 39.54,-6.2c1.604,0.892 1.728,1.707 1.468,9.63m14.027,1.776c2.124,3.07 5.777,8.836 8.116,12.813c2.339,3.977 6.705,10.345 9.703,14.15c8.23,10.453 10.326,13.524 16.727,24.55c4.316,7.427 6.953,11.096 9.886,13.74c2.202,1.985 6.014,6.446 8.472,9.912c3.923,5.535 5.466,7.02 12.652,12.196c4.502,3.24 8.6,6.687 9.107,7.656c1.978,3.775 -0.17,12.352 -6.8,27.2c-7.712,17.26 -8.793,17.673 -16.37,6.244c-2.572,-3.88 -5.664,-8.027 -6.88,-9.22c-1.21,-1.19 -4.098,-5.828 -6.412,-10.3l-4.213,-8.132l-7.374,-3.66c-4.066,-2.017 -8.396,-4.684 -9.642,-5.937c-5.427,-5.46 -11.91,-13.04 -13.982,-16.345c-2.115,-3.37 -10.55,-12.464 -15.49,-16.7c-2.15,-1.842 -2.197,-2.077 -1.287,-6.51c2.676,-13.057 3.37,-17.175 3.76,-22.224c0.234,-3.035 0.678,-6.59 0.98,-7.905c0.302,-1.315 0.85,-6.603 1.207,-11.757c0.357,-5.154 0.867,-10.36 1.137,-11.567c0.467,-2.124 1.814,-4.242 2.5,-3.936c0.182,0.082 2.074,2.662 4.2,5.732m-23.64,57.827c0.103,0.65 0.03,2.1 -0.164,3.22c-0.194,1.12 0.066,3.865 0.59,6.103c0.658,2.817 0.645,5.782 -0.05,9.638c-0.672,3.772 -0.704,7.122 -0.098,10.365c1.156,6.154 0.713,16.46 -0.897,20.98c-1.487,4.162 -4.33,7.726 -9.72,12.163c-4.744,3.906 -7.613,4.754 -15.22,4.5c-5.54,-0.182 -6.094,-0.346 -9.143,-2.715c-2.985,-2.32 -3.397,-3.092 -5.147,-9.677c-1.046,-3.936 -2.073,-9.4 -2.277,-12.14l-1.13,-16.227c-0.415,-6.183 -1.287,-13.544 -1.932,-16.355c-1.535,-6.675 -0.758,-8.514 4.185,-9.897c2.03,-0.566 3.84,-0.963 4.027,-0.88c0.187,0.083 3.712,-0.615 7.83,-1.554c6.493,-1.476 8.8,-1.553 17.2,-0.6c11.016,1.26 11.663,1.427 11.937,3.064"/></svg>