<?xml version="1.0" encoding="UTF-8" standalone="no"?><!DOCTYPE svg PUBLIC "-//W3C//DTD SVG 1.1//EN" "http://www.w3.org/Graphics/SVG/1.1/DTD/svg11.dtd"><svg width="100%" height="100%" viewBox="0 0 512 512" version="1.1" xmlns="http://www.w3.org/2000/svg" xmlns:xlink="http://www.w3.org/1999/xlink" xml:space="preserve" xmlns:serif="http://www.serif.com/" style="fill-rule:evenodd;clip-rule:evenodd;stroke-linejoin:round;stroke-miterlimit:2;"><path d="M226.5,24.012c-4.95,1.108 -20.25,4.264 -34,7.012c-35.626,7.12 -41.54,8.905 -68.216,20.568c-1.768,0.774 -4.693,2.916 -6.5,4.76c-4.103,4.2 -11.57,21.555 -12.885,29.968c-1.557,9.957 -3.485,14.952 -14.74,38.18l-10.66,22l0.225,22.5c0.124,12.375 0.886,27.9 1.694,34.5c0.808,6.6 1.738,18.075 2.068,25.5c0.518,11.687 2.344,39.638 3.988,61.053c1.312,17.103 10,50.767 16.484,63.947c7.576,15.378 18.514,30.433 26.105,35.93c2.08,1.508 10.75,5.098 19.263,7.98c11.737,3.97 15.598,5.695 15.975,7.135c0.273,1.045 -0.556,6.865 -1.84,12.934c-2.065,9.75 -10.992,33.112 -20.14,52.703c-1.4,3 -2.122,3.334 -12.654,5.842c-6.142,1.462 -11.955,3.362 -12.918,4.222c-4.867,4.35 0.683,9.995 8.59,8.738c10.24,-1.628 14.985,-3.68 20.496,-8.862c4.986,-4.687 11.16,-14.864 11.162,-18.397c0.001,-0.7 1.584,-4.42 3.52,-8.26c4.53,-8.996 6.6,-14.632 10.995,-29.964c5.252,-18.313 3.553,-17 21.99,-17l15.458,0l0.632,2.518c0.378,1.508 -0.43,6.22 -2.015,11.75c-1.455,5.077 -3.323,13.507 -4.15,18.732c-2.503,15.813 -3.74,18.38 -11.915,24.75c-3.412,2.658 -4.514,4.2 -4.514,6.276c0,1.538 0.668,3.015 1.5,3.338c3.63,1.393 20.815,-3.857 23.944,-7.314c1.236,-1.365 2.25,-6.056 3.573,-16.502c3.004,-23.74 6.892,-37.747 11.554,-41.616c1.76,-1.462 7.337,-1.477 19.42,-0.052c4.675,0.55 13.45,1.28 19.5,1.618c15.772,0.884 16.323,1.042 17.044,4.886c0.335,1.78 -0.085,8.558 -0.932,15.06c-2.205,16.923 -7.018,25.56 -16.612,29.81c-8.174,3.62 -9.948,6.8 -6,10.747c2.97,2.97 7.175,2.477 17.488,-2.046c14.499,-6.356 14.043,-5.476 16.073,-30.956c0.943,-11.825 2.085,-22.49 2.54,-23.702c1.112,-2.972 3.068,-3.866 27.9,-12.77c25.304,-9.07 34.323,-13.345 46.468,-22.026c16.6,-11.867 22.956,-17.812 29.08,-27.205c15.027,-23.052 15.28,-23.634 20.388,-46.797c2.264,-10.27 3.346,-18.55 4.06,-31.068c0.536,-9.387 1.836,-21.312 2.89,-26.5c3.918,-19.302 5.453,-38.04 4.79,-58.432c-0.74,-22.692 -3.14,-52.176 -5.22,-64.098c-3.3,-18.926 -10.737,-34.9 -23.955,-51.49c-9.024,-11.318 -13.055,-13.917 -28.5,-18.38c-4.675,-1.35 -23.35,-7.422 -41.5,-13.492c-46.422,-15.525 -59.742,-18.6 -84.317,-19.532c-11.392,-0.427 -15.2,-0.175 -22.683,1.503l0.009,0.001Z" style="fill:#fff;"/><path d="M226.5,24.012c-4.95,1.108 -20.25,4.264 -34,7.012c-35.626,7.12 -41.54,8.905 -68.216,20.568c-1.768,0.774 -4.693,2.916 -6.5,4.76c-4.103,4.2 -11.57,21.555 -12.885,29.968c-1.557,9.957 -3.485,14.952 -14.74,38.18l-10.66,22l0.225,22.5c0.124,12.375 0.886,27.9 1.694,34.5c0.808,6.6 1.738,18.075 2.068,25.5c0.518,11.687 2.344,39.638 3.988,61.053c1.312,17.103 10,50.767 16.484,63.947c7.576,15.378 18.514,30.433 26.105,35.93c2.08,1.508 10.75,5.098 19.263,7.98c11.737,3.97 15.598,5.695 15.975,7.135c0.273,1.045 -0.556,6.865 -1.84,12.934c-2.065,9.75 -10.992,33.112 -20.14,52.703c-1.4,3 -2.122,3.334 -12.654,5.842c-6.142,1.462 -11.955,3.362 -12.918,4.222c-4.867,4.35 0.683,9.995 8.59,8.738c10.24,-1.628 14.985,-3.68 20.496,-8.862c4.986,-4.687 11.16,-14.864 11.162,-18.397c0.001,-0.7 1.584,-4.42 3.52,-8.26c4.53,-8.996 6.6,-14.632 10.995,-29.964c5.252,-18.313 3.553,-17 21.99,-17l15.458,0l0.632,2.518c0.378,1.508 -0.43,6.22 -2.015,11.75c-1.455,5.077 -3.323,13.507 -4.15,18.732c-2.503,15.813 -3.74,18.38 -11.915,24.75c-3.412,2.658 -4.514,4.2 -4.514,6.276c0,1.538 0.668,3.015 1.5,3.338c3.63,1.393 20.815,-3.857 23.944,-7.314c1.236,-1.365 2.25,-6.056 3.573,-16.502c3.004,-23.74 6.892,-37.747 11.554,-41.616c1.76,-1.462 7.337,-1.477 19.42,-0.052c4.675,0.55 13.45,1.28 19.5,1.618c15.772,0.884 16.323,1.042 17.044,4.886c0.335,1.78 -0.085,8.558 -0.932,15.06c-2.205,16.923 -7.018,25.56 -16.612,29.81c-8.174,3.62 -9.948,6.8 -6,10.747c2.97,2.97 7.175,2.477 17.488,-2.046c14.499,-6.356 14.043,-5.476 16.073,-30.956c0.943,-11.825 2.085,-22.49 2.54,-23.702c1.112,-2.972 3.068,-3.866 27.9,-12.77c25.304,-9.07 34.323,-13.345 46.468,-22.026c16.6,-11.867 22.956,-17.812 29.08,-27.205c15.027,-23.052 15.28,-23.634 20.388,-46.797c2.264,-10.27 3.346,-18.55 4.06,-31.068c0.536,-9.387 1.836,-21.312 2.89,-26.5c3.918,-19.302 5.453,-38.04 4.79,-58.432c-0.74,-22.692 -3.14,-52.176 -5.22,-64.098c-3.3,-18.926 -10.737,-34.9 -23.955,-51.49c-9.024,-11.318 -13.055,-13.917 -28.5,-18.38c-4.675,-1.35 -23.35,-7.422 -41.5,-13.492c-46.422,-15.525 -59.742,-18.6 -84.317,-19.532c-11.392,-0.427 -15.2,-0.175 -22.683,1.503m58.509,12.935c34.618,8.76 58.032,17.102 62.924,22.42c2.323,2.524 2.87,2.636 13,2.66c5.817,0.014 12.582,0.487 15.034,1.052c14.546,3.352 27.685,16.02 37.996,36.63c8.155,16.302 9.92,25.95 12.034,65.793c1.885,35.54 0.746,59.54 -3.583,75.5c-0.82,3.025 -2.134,14.815 -2.92,26.2c-1.473,21.382 -4.456,38.263 -9.934,56.223c-3.79,12.423 -12.297,23.81 -28.13,37.65c-18.262,15.963 -24.382,19.36 -44.12,24.493c-7.592,1.974 -18.016,4.92 -23.164,6.544c-12.146,3.834 -12.542,3.568 -11.597,-7.788c0.57,-6.84 0.403,-8.754 -0.948,-10.816c-2.037,-3.11 -6.518,-3.352 -9.105,-0.493c-1.596,1.763 -1.694,2.71 -0.797,7.66c1.767,9.746 -1.25,16.285 -8.433,18.268c-4.286,1.183 -40.153,-0.625 -45.167,-2.278l-3.593,-1.183l-0.002,-6.19c-0.001,-3.558 -0.524,-6.713 -1.23,-7.418c-1.86,-1.86 -5.73,0.63 -9.976,6.413c-1.97,2.682 -4.67,5.29 -6,5.797c-1.33,0.507 -8.5,0.92 -15.907,0.92l-13.482,0l-3.604,-3.5c-3.924,-3.81 -5.178,-4.062 -11.86,-2.38c-5.06,1.274 -10.08,0.27 -28.632,-5.727c-12.9,-4.17 -14.392,-5.634 -22.32,-21.893c-5.667,-11.623 -9.577,-23.654 -12.01,-36.95c-3.408,-18.63 -6.367,-38.643 -6.956,-47.05c-0.346,-4.95 -1.475,-13.275 -2.507,-18.5c-1.032,-5.225 -2.132,-16.025 -2.445,-24c-0.313,-7.975 -1.494,-21.475 -2.625,-30c-1.366,-10.294 -2.122,-22.05 -2.25,-35l-0.193,-19.5l3.756,-9.14c2.066,-5.026 5.848,-12.9 8.405,-17.5c7.917,-14.24 10.37,-20.61 12.797,-33.225c2.95,-15.333 5.134,-22.847 7.53,-25.89c5.467,-6.95 39.046,-18.663 66.513,-23.2c5.5,-0.91 15.175,-2.96 21.5,-4.56c16.923,-4.278 25.688,-5.555 40,-5.824c7.4,-0.14 11.568,0.616 32,5.786m-36,48.85c0,0.988 1.563,4.25 3.474,7.25c3.763,5.906 4.426,9.395 1.966,10.338c-0.857,0.33 -6.82,1.072 -13.25,1.65c-16.937,1.522 -21.668,3.09 -27.5,9.117c-7.166,7.403 -8.688,11.836 -9.375,27.307c-0.62,13.945 0.56,21.492 4.576,29.292c3.12,6.06 14.77,18.908 21.498,23.708c6.898,4.923 36,19.543 38.9,19.543c4.8,0 7.71,-4.568 7.71,-12.102c0,-6.36 1.633,-8.417 10.37,-13.073c7.743,-4.126 8.272,-4.633 11.52,-11.02c4.03,-7.926 4.995,-16.696 3.257,-29.604c-2.002,-14.878 -11.475,-29.128 -28.716,-43.195c-4.385,-3.578 -10.826,-9.768 -14.312,-13.755c-6.237,-7.139 -10.117,-9.231 -10.117,-5.46m-11,25.786c0,0.32 -1.537,2.457 -3.416,4.75c-6.748,8.236 -8.467,13.12 -8.697,24.72c-0.248,12.454 1.63,18.446 8.736,27.9c5.523,7.348 9.715,10.71 19.377,15.547c11.066,5.538 13,7.12 13,10.636c0,8.482 -4,8.786 -18.714,1.42c-12.982,-6.5 -22.38,-14.584 -29.344,-25.246c-5.074,-7.768 -5.422,-8.946 -6.91,-23.43c-0.9,-8.846 -0.8,-10.28 1.375,-17.755c2.783,-9.572 6.305,-14.634 11.978,-17.2c3.812,-1.73 12.616,-2.66 12.616,-1.33m46.224,20.168c3.396,3.873 4.918,8.893 6.803,22.44c2.534,18.218 2.498,19.444 -0.704,24.065c-3.366,4.857 -5.496,6.07 -7.756,4.417c-1.605,-1.174 -1.58,-1.922 0.426,-12.403l2.133,-11.154l-2.563,-11.428c-2.615,-11.663 -3.08,-15.837 -1.896,-17.02c1.055,-1.056 1.9,-0.795 3.557,1.083m35.01,72.305c-9.95,3.078 -18.048,19.182 -12.273,24.41c2.6,2.352 6.733,1.304 8.284,-2.1c1.056,-2.317 0.9,-2.783 -1.534,-4.556c-3.684,-2.683 -3.425,-5.722 0.84,-9.856c3.356,-3.252 3.994,-3.46 11.638,-3.808l8.088,-0.367l-0.632,2.862c-2.418,10.955 -1.742,16.14 2.768,21.21c4.225,4.75 17.46,9.78 22.7,8.628c3.532,-0.776 5.654,-3.74 7.294,-10.197c0.917,-3.605 1.73,-4.854 3.32,-5.086c9.273,-1.36 -7.658,-15.557 -23.388,-19.612c-7.777,-2.006 -22.816,-2.85 -27.105,-1.525m32.6,17.807c0.505,3.552 -0.69,7.138 -2.377,7.138c-2.24,0 -3.817,-4.91 -2.505,-7.793c1.35,-2.96 4.427,-2.546 4.882,0.655m7.26,10.444c-0.792,0.792 -1.094,0.532 -1.094,-0.94c0,-2.644 1.398,-4.047 1.844,-1.85c0.19,0.932 -0.15,2.188 -0.75,2.79m-191.62,-1.72c-5.612,1.993 -16.1,10.737 -18.48,15.422c-4.703,9.22 -1.63,16.086 9.712,21.69c6.858,3.39 8.47,3.774 17.18,4.103c12.26,0.462 16.93,-0.937 19.36,-5.803c2.005,-4.013 2.292,-12.383 0.682,-19.89c-1.174,-5.475 -6.985,-13.054 -11.995,-15.645c-3.526,-1.823 -11.143,-1.767 -16.46,0.12m14.75,7.376c3.602,2.833 7.102,11.528 7.195,17.874c0.066,4.455 -0.31,5.652 -2.282,7.25c-2.82,2.285 -11.763,2.64 -14.583,0.578c-1.7,-1.245 -1.578,-1.488 1.8,-3.582c7.61,-4.704 8.892,-11.444 3.476,-18.282c-2.555,-3.226 -2.89,-4.158 -1.75,-4.88c2.113,-1.337 3.385,-1.12 6.134,1.04m-12.792,8.19c3.012,1.372 4.2,4.38 2.526,6.396c-2.518,3.034 -8.96,0.203 -8.96,-3.938c0,-3.824 1.87,-4.538 6.434,-2.458m33.316,31.866c-2.078,1.284 -2.308,5.274 -0.394,6.862c0.745,0.62 8.283,3.64 16.75,6.717c29.928,10.87 42.207,14.614 52.394,15.97c9.303,1.24 11.368,1.16 29.625,-1.145c13.4,-1.69 22.44,-3.393 28.5,-5.365c19.253,-6.266 23.375,-9.15 23.375,-16.345c0,-2.408 -0.278,-4.657 -0.62,-4.997c-0.342,-0.34 -2.252,0.667 -4.25,2.238c-7.44,5.854 -20.6,9.13 -44.564,11.095c-7.113,0.583 -13.282,1.276 -13.71,1.54c-1.99,1.23 -18.367,0.298 -27.358,-1.557c-5.5,-1.135 -18.567,-4.99 -29.037,-8.57c-19.466,-6.652 -27.61,-8.36 -30.713,-6.444"/></svg>