<?xml version="1.0" encoding="UTF-8" standalone="no"?><!DOCTYPE svg PUBLIC "-//W3C//DTD SVG 1.1//EN" "http://www.w3.org/Graphics/SVG/1.1/DTD/svg11.dtd"><svg width="100%" height="100%" viewBox="0 0 512 512" version="1.1" xmlns="http://www.w3.org/2000/svg" xmlns:xlink="http://www.w3.org/1999/xlink" xml:space="preserve" xmlns:serif="http://www.serif.com/" style="fill-rule:evenodd;clip-rule:evenodd;stroke-linejoin:round;stroke-miterlimit:2;"><path d="M366.44,37.414c-15.997,3.62 -23.68,6.255 -40.334,13.834l-15.606,7.102l-14.342,14.074c-18.148,17.8 -22.304,23.548 -27.276,37.662c-2.128,6.042 -5.742,15.356 -8.03,20.7c-2.288,5.344 -5.617,13.764 -7.397,18.714c-2.123,5.904 -3.814,9.116 -4.916,9.337c-2.66,0.533 -9.1,-4.425 -22.038,-16.943c-17.432,-16.878 -27.997,-24.445 -47.98,-34.365c-17.977,-8.924 -20.41,-9.93 -35.52,-14.7c-8.23,-2.593 -11.773,-3.1 -26.496,-3.795l-16.996,-0.803l-3.004,-3.788c-11.002,-13.873 -13.24,-14.384 -23.234,-5.3c-9.51,8.645 -11.458,9.64 -20.406,10.42c-9.585,0.836 -11.41,2.325 -10.565,8.62c0.806,6.014 8.838,21.633 14.178,27.573c5.302,5.896 5.375,6.536 2.91,25.394c-1.862,14.235 -1.43,32.764 0.927,39.842c0.824,2.475 4.44,11.678 8.036,20.45c7.35,17.932 14.018,28.574 32.3,51.56c12.604,15.84 25.964,29.395 43.82,44.462c16.59,13.998 23.813,18.894 46.522,31.53l23.913,13.765c4.785,3.067 5.2,3.59 3.572,4.5c-2.52,1.41 -32.82,0.235 -42.605,-1.652c-7.194,-1.388 -23.465,-6.03 -44.88,-12.807c-10.474,-3.314 -44.838,-19.867 -47.616,-22.937c-1.66,-1.834 -1.663,-2.196 -0.064,-6.656c2.234,-6.235 2.343,-28.25 0.18,-36.553c-1.696,-6.513 -6.9,-15.267 -11.016,-18.497c-4.26,-3.352 -6.97,-2.765 -12.832,2.78c-2.876,2.72 -7.24,5.807 -9.698,6.86c-4.953,2.123 -11.562,8.786 -12.526,12.627c-0.442,1.758 0.28,4.06 2.467,7.885l3.09,5.402l-2.993,4.132c-3.512,4.848 -3.666,7.063 -0.914,13.15c2.876,6.36 7.44,10.676 13.816,13.062c4.684,1.752 6.78,1.957 14.133,1.382l8.635,-0.676l10.918,5.955c19.82,10.81 35,17.298 57.045,24.386c22.994,7.393 30.436,8.884 54.655,10.953c8.13,0.694 15.46,1.76 16.29,2.367c1.3,0.952 0.796,2.616 -3.67,12.084c-6.91,14.646 -8.548,19.69 -10.92,33.596c-1.234,7.237 -3.152,14.315 -4.986,18.402c-4.535,10.107 -6.3,18 -5.644,25.197c1.254,13.76 9.958,21.655 20.16,18.29c6.952,-2.295 19.725,-18.96 29.89,-38.997c6.553,-12.92 9.592,-21.026 13.658,-36.43c3.237,-12.263 4.45,-15.168 6.693,-16.03c1.966,-0.754 8.93,6.074 14.28,14.006c5.54,8.208 18.76,25.4 23.332,30.34c6.056,6.54 29.204,24.38 35.57,27.41c4.317,2.055 8.047,3.087 11.33,3.133c4.35,0.06 5.235,-0.31 7.952,-3.35l3.056,-3.42l-0.567,-9.496c-0.49,-8.2 -1.047,-10.47 -4.082,-16.6c-5.252,-10.627 -18.162,-27.123 -39.174,-50.056c-5.04,-5.5 -9.646,-10.924 -10.237,-12.054c-2.138,-4.087 -1.26,-4.507 24.183,-11.575c19.4,-5.4 18.565,-5.05 36.103,-14.688c10.978,-6.033 13.266,-7.833 26.868,-21.14c8.177,-8 18.15,-18.648 22.165,-23.664c8.793,-11 10.188,-11.56 18.29,-7.47c12.74,6.432 28.74,8.04 37.176,3.737c5.06,-2.58 9.005,-7.646 9,-11.546c-0.014,-3.718 -4.447,-12.74 -6.907,-14.058c-1.146,-0.613 -2.76,-2.147 -3.586,-3.41c-1.336,-2.038 -1.337,-2.844 -0.01,-7.215c4.104,-13.528 -1.312,-22.43 -13.637,-22.415c-4.412,0.006 -6.583,1.053 -13.36,6.448l-3.71,2.952l-4.64,-1.886c-6.84,-2.78 -14.33,-2.63 -17.504,0.352c-6.547,6.152 -7.362,14.083 -2.825,27.472c3.543,10.455 3.292,12.18 -2.98,20.515c-5.592,7.43 -21.06,23.412 -32.46,33.536c-11.497,10.2 -26.804,18.522 -40.493,21.99c-5.16,1.306 -13.33,3.543 -18.157,4.972c-11.175,3.305 -21.053,5.03 -24.237,4.23c-4.273,-1.073 -3.123,-4.64 4.764,-14.776c11.9,-15.294 20.074,-26.644 27.95,-38.8c4.094,-6.325 9.682,-14.2 12.416,-17.5c2.734,-3.3 9.57,-11.85 15.192,-19c5.622,-7.15 14.673,-18.115 20.117,-24.368c10.302,-11.83 17.883,-22.956 33.485,-49.132c5.08,-8.525 12.276,-20.113 15.99,-25.75c8.118,-12.324 14.184,-25.876 15.627,-34.908c1.568,-9.81 1.362,-28.863 -0.394,-36.43c-0.827,-3.568 -3.354,-11.277 -5.616,-17.132c-4.1,-10.618 -4.132,-10.662 -12.313,-17.49c-13.61,-11.357 -16.282,-13.227 -23.895,-16.72c-9.904,-4.544 -15.026,-4.948 -27.368,-2.156l0.002,-0.008Z" style="fill:#fff;"/><path d="M366.44,37.414c-15.997,3.62 -23.68,6.255 -40.334,13.834l-15.606,7.102l-14.342,14.074c-18.148,17.8 -22.304,23.548 -27.276,37.662c-2.128,6.042 -5.742,15.356 -8.03,20.7c-2.288,5.344 -5.617,13.764 -7.397,18.714c-2.123,5.904 -3.814,9.116 -4.916,9.337c-2.66,0.533 -9.1,-4.425 -22.038,-16.943c-17.432,-16.878 -27.997,-24.445 -47.98,-34.365c-17.977,-8.924 -20.41,-9.93 -35.52,-14.7c-8.23,-2.593 -11.773,-3.1 -26.496,-3.795l-16.996,-0.803l-3.004,-3.788c-11.002,-13.873 -13.24,-14.384 -23.234,-5.3c-9.51,8.645 -11.458,9.64 -20.406,10.42c-9.585,0.836 -11.41,2.325 -10.565,8.62c0.806,6.014 8.838,21.633 14.178,27.573c5.302,5.896 5.375,6.536 2.91,25.394c-1.862,14.235 -1.43,32.764 0.927,39.842c0.824,2.475 4.44,11.678 8.036,20.45c7.35,17.932 14.018,28.574 32.3,51.56c12.604,15.84 25.964,29.395 43.82,44.462c16.59,13.998 23.813,18.894 46.522,31.53l23.913,13.765c4.785,3.067 5.2,3.59 3.572,4.5c-2.52,1.41 -32.82,0.235 -42.605,-1.652c-7.194,-1.388 -23.465,-6.03 -44.88,-12.807c-10.474,-3.314 -44.838,-19.867 -47.616,-22.937c-1.66,-1.834 -1.663,-2.196 -0.064,-6.656c2.234,-6.235 2.343,-28.25 0.18,-36.553c-1.696,-6.513 -6.9,-15.267 -11.016,-18.497c-4.26,-3.352 -6.97,-2.765 -12.832,2.78c-2.876,2.72 -7.24,5.807 -9.698,6.86c-4.953,2.123 -11.562,8.786 -12.526,12.627c-0.442,1.758 0.28,4.06 2.467,7.885l3.09,5.402l-2.993,4.132c-3.512,4.848 -3.666,7.063 -0.914,13.15c2.876,6.36 7.44,10.676 13.816,13.062c4.684,1.752 6.78,1.957 14.133,1.382l8.635,-0.676l10.918,5.955c19.82,10.81 35,17.298 57.045,24.386c22.994,7.393 30.436,8.884 54.655,10.953c8.13,0.694 15.46,1.76 16.29,2.367c1.3,0.952 0.796,2.616 -3.67,12.084c-6.91,14.646 -8.548,19.69 -10.92,33.596c-1.234,7.237 -3.152,14.315 -4.986,18.402c-4.535,10.107 -6.3,18 -5.644,25.197c1.254,13.76 9.958,21.655 20.16,18.29c6.952,-2.295 19.725,-18.96 29.89,-38.997c6.553,-12.92 9.592,-21.026 13.658,-36.43c3.237,-12.263 4.45,-15.168 6.693,-16.03c1.966,-0.754 8.93,6.074 14.28,14.006c5.54,8.208 18.76,25.4 23.332,30.34c6.056,6.54 29.204,24.38 35.57,27.41c4.317,2.055 8.047,3.087 11.33,3.133c4.35,0.06 5.235,-0.31 7.952,-3.35l3.056,-3.42l-0.567,-9.496c-0.49,-8.2 -1.047,-10.47 -4.082,-16.6c-5.252,-10.627 -18.162,-27.123 -39.174,-50.056c-5.04,-5.5 -9.646,-10.924 -10.237,-12.054c-2.138,-4.087 -1.26,-4.507 24.183,-11.575c19.4,-5.4 18.565,-5.05 36.103,-14.688c10.978,-6.033 13.266,-7.833 26.868,-21.14c8.177,-8 18.15,-18.648 22.165,-23.664c8.793,-11 10.188,-11.56 18.29,-7.47c12.74,6.432 28.74,8.04 37.176,3.737c5.06,-2.58 9.005,-7.646 9,-11.546c-0.014,-3.718 -4.447,-12.74 -6.907,-14.058c-1.146,-0.613 -2.76,-2.147 -3.586,-3.41c-1.336,-2.038 -1.337,-2.844 -0.01,-7.215c4.104,-13.528 -1.312,-22.43 -13.637,-22.415c-4.412,0.006 -6.583,1.053 -13.36,6.448l-3.71,2.952l-4.64,-1.886c-6.84,-2.78 -14.33,-2.63 -17.504,0.352c-6.547,6.152 -7.362,14.083 -2.825,27.472c3.543,10.455 3.292,12.18 -2.98,20.515c-5.592,7.43 -21.06,23.412 -32.46,33.536c-11.497,10.2 -26.804,18.522 -40.493,21.99c-5.16,1.306 -13.33,3.543 -18.157,4.972c-11.175,3.305 -21.053,5.03 -24.237,4.23c-4.273,-1.073 -3.123,-4.64 4.764,-14.776c11.9,-15.294 20.074,-26.644 27.95,-38.8c4.094,-6.325 9.682,-14.2 12.416,-17.5c2.734,-3.3 9.57,-11.85 15.192,-19c5.622,-7.15 14.673,-18.115 20.117,-24.368c10.302,-11.83 17.883,-22.956 33.485,-49.132c5.08,-8.525 12.276,-20.113 15.99,-25.75c8.118,-12.324 14.184,-25.876 15.627,-34.908c1.568,-9.81 1.362,-28.863 -0.394,-36.43c-0.827,-3.568 -3.354,-11.277 -5.616,-17.132c-4.1,-10.618 -4.132,-10.662 -12.313,-17.49c-13.61,-11.357 -16.282,-13.227 -23.895,-16.72c-9.904,-4.544 -15.026,-4.948 -27.368,-2.156m23.043,8.362c5.186,2.03 13.248,7.502 21.91,14.865c11.794,10.03 16.804,21.113 18.298,40.487c0.667,8.65 -1.216,30.304 -3.126,35.95c-0.666,1.968 -6.412,12.318 -12.77,23l-20.07,33.944c-10.184,17.373 -14.658,23.492 -41.575,56.858c-25.008,31 -26.643,33.145 -41.632,54.62c-6.525,9.35 -13.866,19.47 -16.31,22.49c-6.19,7.642 -24.86,27.01 -26.037,27.01c-1.353,0 -3.167,-5.604 -3.167,-9.78c0,-5.416 2.977,-9.112 19.417,-24.11c18.558,-16.932 25.396,-25.3 49.295,-60.397c19.793,-29.06 23.904,-34.214 42.84,-53.71c12.542,-12.913 14.332,-15.448 17.592,-24.913c3.448,-10.01 8.857,-38.687 8.846,-46.903c-0.016,-13.045 -2.737,-33.768 -5.022,-38.247c-2.33,-4.565 -8.443,-8.858 -21.625,-15.183c-6.817,-3.27 -9.882,-4.153 -15.736,-4.53c-9.376,-0.602 -22.525,1.182 -27.53,3.735c-8.702,4.44 -26.05,24.74 -44.05,51.54c-11.637,17.33 -14.1,21.863 -19.554,36c-5.84,15.14 -10.242,23.437 -13.128,24.752c-3.272,1.5 -10.83,-2.557 -21.847,-11.697c-4.95,-4.107 -14.62,-11.875 -21.486,-17.26c-6.866,-5.385 -18.103,-14.7 -24.968,-20.674c-15.83,-13.8 -16.633,-14.31 -34.046,-21.64c-28.4,-11.958 -45.204,-13.705 -59.31,-6.167c-6.03,3.223 -16.2,13.912 -20.678,21.733c-3.87,6.758 -4.738,5.84 -3.066,-3.235c3.873,-21.013 24.01,-37.3 46.1,-37.3c14.622,0 36.862,7.243 61.94,20.172c17.092,8.812 22.56,12.867 43.57,32.316c20.362,18.826 27.559,24.49 31.144,24.49c3.764,0 4.814,-2.156 6.285,-12.897c0.615,-4.493 2.887,-12.83 5.132,-18.833l7.813,-21.27c2.082,-5.775 5.847,-14.6 8.367,-19.6c4.195,-8.34 5.706,-10.177 17.893,-21.76c13.128,-12.478 13.52,-12.755 28.726,-20.237c15.388,-7.57 31.83,-13.654 41.48,-15.347c6.263,-1.098 14.727,-0.37 20.085,1.73m-301.855,41.764c1.828,2.8 0.828,4.944 -1.823,3.927c-1.737,-0.667 -3.982,-4.966 -3.07,-5.878c1.287,-1.287 3.294,-0.486 4.892,1.95m284.348,2.303c11.827,4.97 17.803,9.044 19.975,13.62c2.71,5.712 4.415,29.562 3.1,43.264c-1.232,12.744 -2.9,20.015 -7.512,32.76c-3.515,9.708 -3.878,10.25 -12.725,19c-13.14,12.99 -30.243,33.23 -39.3,46.505l-15.336,22.5c-12.566,18.45 -21.488,29.6 -30.786,38.475l-22.213,21.75c-7.333,7.3 -13.986,13.275 -14.784,13.275c-0.798,0 -6.274,-3.287 -12.168,-7.304c-5.894,-4.017 -16.255,-10.102 -23.024,-13.52c-23.087,-11.662 -65.333,-41.284 -79.958,-56.065c-19.13,-19.336 -29.852,-33.65 -45.018,-60.1c-9.035,-15.763 -12.696,-28.638 -12.653,-44.5c0.025,-9.203 0.285,-10.53 3.258,-16.652c12.116,-24.943 27.684,-27.916 67.18,-12.83c15.12,5.777 14.785,5.558 35.5,23.022c8.25,6.956 19.595,16.09 25.2,20.296c5.605,4.206 13.49,10.51 17.5,14.004c10.9,9.502 25.024,18.66 28.778,18.66c1.767,0 7.248,-5.458 10.93,-10.884c2.244,-3.306 4.936,-9.318 6.545,-14.616c3.82,-12.57 12.714,-29.502 25.483,-48.512c15.166,-22.577 30.855,-40.394 38.038,-43.198c9.488,-3.704 23.7,-3.26 33.99,1.064m-309.941,12.901c1.93,2.455 1.935,2.605 0.17,5.628c-2.707,4.634 -5.24,4.057 -7.644,-1.743c-1.916,-4.623 -1.927,-4.91 -0.237,-6.145c2.337,-1.708 5.264,-0.85 7.71,2.26m9.972,73c1.24,6.453 3.598,15.015 5.238,19.027c3.04,7.438 16.954,30.4 26.98,44.544c7.6,10.7 27.672,32.637 36.243,39.59c26.573,21.558 57.597,42.616 77.1,52.323c12.26,6.105 42.925,26.668 41.66,27.934c-0.534,0.534 -2.852,1.223 -5.15,1.53c-3.712,0.498 -4.545,0.207 -7.435,-2.594c-1.79,-1.736 -6.64,-4.458 -10.773,-6.05c-18.908,-7.28 -60.996,-30.14 -74.022,-40.203c-11.702,-9.04 -34.045,-28.364 -39.885,-34.494c-8.083,-8.485 -23.452,-28.47 -32.355,-42.074c-8.273,-12.64 -13.106,-22.902 -19.01,-40.356c-4.187,-12.344 -4.594,-14.396 -4.594,-23.08c0,-15.75 2.54,-14.098 6.004,3.904m91.496,8.396c-6.896,3.805 -11.596,11.464 -11.654,18.992c-0.05,6.262 2.033,8.722 11.38,13.445c11.073,5.596 18.576,4.2 24.37,-4.567c3.506,-5.297 3.522,-10.45 0.054,-16.37c-5.712,-9.746 -17.315,-15.272 -24.15,-11.5m7.93,9.407c2.336,2.337 2.074,9.926 -0.43,12.43c-2.675,2.675 -5.57,2.52 -8.545,-0.455c-2.814,-2.813 -3.083,-5.43 -0.976,-9.504c2.188,-4.232 6.994,-5.425 9.95,-2.47m132.33,2.84c-8.659,3.12 -14.759,10.131 -14.759,16.988c0.001,7.917 8.355,21.86 13.71,22.885c4.224,0.807 12.662,-2.848 16.577,-7.18c12.487,-13.822 0.742,-38.55 -15.528,-32.693m4.72,11.212c2.51,2.51 1.675,9.506 -1.314,10.988c-6.71,3.328 -12.04,-5.595 -6.593,-11.04c2.033,-2.033 5.847,-2.007 7.907,0.053m147.526,35.11c2.783,3.54 2.125,6.957 -2.572,13.356c-5.166,7.038 -4.594,9.434 2.988,12.5c3.258,1.32 6.745,3.146 7.75,4.056c3.52,3.186 1.525,8.774 -3.492,9.777c-6.888,1.376 -9.56,1.465 -15.515,0.513c-8.502,-1.358 -15.115,-5.017 -21.3,-11.786c-9.886,-10.816 -12.393,-21.666 -5.82,-25.183c2.99,-1.6 6.62,0.085 12.015,5.582c6.615,6.74 9.85,5.813 13.46,-3.86c2.932,-7.854 8.48,-10.06 12.487,-4.964m-242.016,17.784c-1.01,1.216 -0.98,2.24 0.157,5.25c1.95,5.165 9.526,10.24 15.287,10.24c12.536,0 25.515,-10.88 18.342,-15.376c-1.35,-0.846 -3.14,-0.38 -8.27,2.148c-8.41,4.147 -11.124,4.104 -16.617,-0.262c-4.804,-3.82 -6.984,-4.308 -8.9,-2m-140.773,11.99c4.13,7.607 5.057,13.835 4.244,28.537l-0.712,12.886l-4.624,1.517c-2.543,0.835 -7.1,1.794 -10.124,2.13c-4.736,0.528 -5.965,0.288 -8.85,-1.73c-4.448,-3.108 -6.607,-6.883 -5.792,-10.128c0.55,-2.19 1.502,-2.75 6.394,-3.755c7.554,-1.554 9.25,-2.545 9.25,-5.405c0,-2.616 -3.035,-5.474 -10.426,-9.82c-4,-2.356 -4.658,-3.167 -4.39,-5.49c0.472,-4.084 2.722,-3.767 8.808,1.238c5.82,4.788 7.993,5.445 10.002,3.024c1.336,-1.6 1.06,-3.6 -1.424,-10.302c-1.2,-3.235 -1.326,-4.793 -0.514,-6.3c1.835,-3.43 5.127,-1.975 8.16,3.606m209.13,88.695c10.964,7.63 40.822,39.388 56.482,60.078c4.99,6.589 11.17,20.484 11.17,25.115c0,3.733 -2.643,5.833 -6.374,5.065c-6.583,-1.355 -13.564,-5.475 -25.745,-15.194c-10.108,-8.065 -14.788,-12.726 -23.513,-23.418c-19.233,-23.57 -28.368,-37 -28.368,-41.708c0,-2.29 1.152,-3.992 5.108,-7.548c2.8,-2.526 5.778,-4.593 6.596,-4.593c0.818,0 2.907,0.988 4.642,2.195m-41.26,7.908c9.817,3.217 9.915,3.304 9.915,8.806c0,2.662 -0.702,6.81 -1.56,9.215c-0.858,2.405 -2.25,7.684 -3.095,11.727c-2.25,10.78 -16.206,42.93 -22.982,52.944c-7.87,11.634 -13.63,17.205 -17.788,17.205c-5.61,0 -8.692,-5.443 -8.775,-15.5c-0.04,-4.96 0.64,-7.48 3.928,-14.53c2.803,-6.013 4.328,-11.028 5.168,-17c1.64,-11.66 4.21,-19.444 11.042,-33.47c5.815,-11.94 13.027,-21.5 16.216,-21.5c0.833,0 4.402,0.946 7.93,2.103"/></svg>