<?xml version="1.0" encoding="UTF-8" standalone="no"?><!DOCTYPE svg PUBLIC "-//W3C//DTD SVG 1.1//EN" "http://www.w3.org/Graphics/SVG/1.1/DTD/svg11.dtd"><svg width="100%" height="100%" viewBox="0 0 512 512" version="1.1" xmlns="http://www.w3.org/2000/svg" xmlns:xlink="http://www.w3.org/1999/xlink" xml:space="preserve" xmlns:serif="http://www.serif.com/" style="fill-rule:evenodd;clip-rule:evenodd;stroke-linejoin:round;stroke-miterlimit:2;"><path d="M63.278,37.327c-2.196,0.443 -4.38,1.866 -11.18,7.284c-5.061,4.032 -9.972,8.83 -13.935,13.613c-5.68,6.856 -5.127,6.429 -9.676,7.456c-4.864,1.098 -7.983,3.07 -9.149,5.784c-0.439,1.022 -0.634,2.066 -0.713,3.806c-0.098,2.177 -0.052,2.48 0.504,3.305c1.021,1.517 1.737,1.872 4.925,2.443c1.646,0.295 4.049,0.838 5.341,1.208c1.566,0.448 3.445,0.74 5.64,0.876c3.864,0.24 3.711,0.159 7.67,4.011c1.436,1.397 3.963,3.578 5.617,4.847c3.61,2.769 7.128,6.25 10.303,10.193c5.997,7.445 6.29,7.715 12.261,11.308c8.242,4.959 13.164,7.293 17.146,8.13c3.676,0.773 14.398,0.405 18.309,-0.628c2.711,-0.715 13.465,-6.18 17.157,-8.717c3.424,-2.354 4.704,-3.023 7.537,-3.936c4.163,-1.342 9.24,-2.082 14.483,-2.11c4.472,-0.024 4.871,0.017 8.35,0.868c7.387,1.805 14.08,4.102 18.527,6.359c0.718,0.364 3.876,2.458 7.019,4.652c3.142,2.194 6.548,4.504 7.567,5.133c8.154,5.026 10.599,6.445 15.05,8.731c6.786,3.487 7.791,3.752 14.204,3.752c7.19,0 8.951,-0.575 15.441,-5.04c6.275,-4.318 10.509,-8.501 16.211,-16.014c4.197,-5.531 7.86,-9.914 9.768,-11.687c0.778,-0.724 2.659,-2.174 4.181,-3.223c3.309,-2.282 4.86,-2.772 7.197,-2.272c3.905,0.836 10.522,5.312 17.733,11.995c4.51,4.181 5.969,5.116 10.737,6.886c3.179,1.179 9.855,2.929 13.065,3.424c4.031,0.621 8.664,0.508 12.182,-0.297c4.582,-1.049 4.067,-1.94 4.48,7.741c0.619,14.469 0.252,54.964 -0.518,57.264c-0.331,0.988 -0.434,1.071 -1.434,1.146c-0.593,0.044 -3.764,-0.339 -7.046,-0.851c-3.282,-0.513 -6.966,-1.065 -8.186,-1.228c-1.22,-0.164 -5.095,-0.886 -8.611,-1.605c-3.516,-0.72 -8.859,-1.67 -11.873,-2.113c-3.014,-0.442 -7.183,-1.075 -9.264,-1.406c-3.489,-0.555 -4.606,-0.6 -14.352,-0.58c-11.418,0.024 -11.389,0.02 -12.689,1.485c-0.972,1.095 -1.149,1.737 -1.542,5.615c-0.212,2.089 -0.502,4.676 -0.645,5.749c-0.337,2.531 -0.329,8.134 0.02,15.084c0.228,4.549 0.207,6.429 -0.118,10.375c-0.218,2.65 -0.468,6.077 -0.556,7.615c-0.087,1.538 -0.321,4.595 -0.52,6.792c-0.199,2.197 -0.434,6.512 -0.524,9.588c-0.09,3.077 -0.278,6.493 -0.418,7.591c-0.14,1.099 -0.307,4.455 -0.372,7.458c-0.179,8.343 -0.603,14.628 -1.296,19.177c-0.345,2.271 -0.927,7.245 -1.292,11.053c-0.365,3.809 -0.851,8.543 -1.079,10.521c-0.229,1.978 -0.515,6.892 -0.636,10.92c-0.121,4.029 -0.402,8.823 -0.624,10.654c-0.546,4.505 -0.649,6.939 -0.805,19.044c-0.177,13.632 -0.373,14.914 -2.177,14.214c-1.19,-0.462 -2.335,-1.523 -2.618,-2.425c-0.149,-0.478 -0.516,-2.127 -0.815,-3.666c-1.404,-7.224 -2.211,-8.789 -4.527,-8.789c-0.945,0 -1.377,0.158 -2.007,0.732c-1.177,1.074 -1.252,2.3 -0.385,6.324c0.738,3.432 0.727,4.477 -0.051,4.781c-0.663,0.26 -1.118,-0.548 -1.118,-1.985c0,-2.508 -1.948,-7.339 -3.531,-8.758c-1.757,-1.575 -4.022,-0.866 -4.437,1.39c-0.123,0.673 0.029,1.62 0.532,3.292c0.507,1.69 0.738,3.131 0.822,5.144c0.2,4.748 -0.722,4.746 -2.25,-0.005c-2.203,-6.851 -3.388,-8.784 -5.384,-8.784c-1.195,0 -1.833,0.365 -2.32,1.326c-0.65,1.284 -0.46,2.734 0.911,6.931c0.717,2.197 1.305,4.29 1.305,4.651c0,0.883 -0.527,1.113 -3.07,1.339c-2.947,0.262 -3.3,0.016 -3.708,-2.584c-0.705,-4.488 -2.654,-10.852 -3.693,-12.06c-1.942,-2.258 -4.925,-0.899 -4.925,2.242c0,0.591 0.461,2.904 1.024,5.141c1.745,6.927 1.707,8.572 -0.193,8.41c-1.252,-0.106 -1.542,-0.711 -2.912,-6.077c-0.58,-2.269 -1.463,-4.978 -1.962,-6.021c-0.965,-2.011 -3.824,-5.426 -5.113,-6.107c-1.141,-0.602 -2.399,-0.493 -3.099,0.268c-0.913,0.991 -0.627,2.387 0.915,4.467c1.595,2.151 2.057,3.237 2.733,6.422c0.304,1.434 0.896,3.768 1.315,5.187c0.966,3.269 0.982,3.974 0.099,4.317c-1.119,0.434 -2.414,0.3 -6.371,-0.659c-3.665,-0.887 -9.315,-2.087 -12.27,-2.604c-2.02,-0.354 -4.734,-0.121 -5.785,0.496c-0.478,0.281 -1.08,0.948 -1.338,1.482c-0.424,0.878 -0.432,1.059 -0.086,1.906c0.517,1.263 1.43,1.666 4.208,1.858c2.596,0.18 10.608,1.923 13.761,2.995c1.321,0.449 2.202,0.922 2.545,1.368c0.927,1.203 0.56,4.071 -0.521,4.071c-0.295,0 -1.443,-0.354 -2.55,-0.786c-3.442,-1.344 -20.725,-7.373 -22.238,-7.757c-2.324,-0.59 -6.725,-0.424 -9.678,0.365c-4.412,1.178 -6.24,2.482 -6.24,4.449c0,1.271 0.781,2.297 2.036,2.676c0.849,0.255 1.324,0.173 3.966,-0.69c2.281,-0.744 3.595,-1.011 5.48,-1.111c3.099,-0.164 5.012,0.305 11.6,2.843c2.59,0.998 5.942,2.264 7.449,2.813c2.368,0.862 3.893,1.497 9.738,4.052c0.548,0.239 1.154,0.745 1.346,1.124c0.382,0.754 1.274,6.168 1.297,7.87c0.012,0.911 -0.072,1.078 -0.58,1.151c-0.327,0.048 -1.501,-0.217 -2.609,-0.587c-4.829,-1.614 -10.537,-2.7 -12.914,-2.457c-3.49,0.357 -5.633,2.841 -4.224,4.895c0.693,1.008 1.434,1.221 4.423,1.269c3.185,0.051 4.444,0.312 10.96,2.271c5.764,1.734 6.607,2.058 6.926,2.667c0.334,0.637 1.284,5.189 1.29,6.178c0.003,0.526 -0.179,0.823 -0.633,1.035c-0.821,0.381 -2.445,-0.144 -5.87,-1.898c-3.11,-1.593 -4.878,-2.14 -6.914,-2.137c-2.105,0.001 -3.471,0.419 -4.368,1.334c-0.599,0.611 -0.738,0.988 -0.738,1.993c0,1.015 0.138,1.381 0.762,2.018c0.477,0.487 1.04,0.782 1.501,0.786c4.243,0.041 4.197,0.03 8.45,2.196c3.165,1.613 4.442,2.121 5.946,2.366c2.054,0.334 2.651,0.709 2.651,1.668c0,0.833 -0.789,1.487 -1.793,1.487c-0.461,0 -2.976,-0.315 -5.59,-0.699c-6.166,-0.907 -8.75,-0.965 -9.754,-0.216c-1.123,0.837 -1.701,2.207 -1.393,3.302c0.611,2.176 2.399,2.912 7.048,2.899c2.037,-0.005 4.182,0.202 6.677,0.643c3.398,0.602 3.798,0.735 5.278,1.761c0.881,0.611 1.734,1.363 1.896,1.672c0.162,0.308 0.4,1.894 0.53,3.523c0.321,4.048 0.921,7.905 1.432,9.209c0.825,2.105 2.959,2.796 4.512,1.462c1.095,-0.941 1.238,-2.054 0.711,-5.567c-0.583,-3.892 -0.664,-7.109 -0.193,-7.691c0.446,-0.552 1.861,-0.566 6.283,-0.062c3.927,0.448 4.049,0.546 3.808,3.05c-0.09,0.934 -0.342,2.552 -0.56,3.595c-0.312,1.495 -0.36,2.882 -0.227,6.557c0.093,2.564 0.286,5.13 0.428,5.702c0.585,2.351 2.73,3.276 4.355,1.88c1.241,-1.066 1.441,-2.108 1.253,-6.539c-0.136,-3.214 -0.078,-4.395 0.329,-6.669c0.272,-1.52 0.578,-3.577 0.68,-4.571c0.244,-2.368 0.723,-2.987 2.31,-2.987c0.726,0 1.345,0.161 1.593,0.414c0.223,0.228 0.59,1.426 0.815,2.664c0.225,1.237 0.812,3.168 1.305,4.292c0.493,1.124 1.082,2.861 1.309,3.862c0.784,3.46 3.815,12.219 5.328,15.403c2.444,5.139 5.931,8.72 9.222,9.471c1.25,0.286 1.523,0.266 2.413,-0.18c1.296,-0.648 1.869,-1.66 1.519,-2.681c-0.256,-0.745 -0.835,-1.126 -3.202,-2.111c-1.553,-0.646 -3.062,-2.459 -4.65,-5.586c-3.285,-6.471 -5.498,-14.586 -6.543,-23.994c-0.179,-1.615 0.198,-1.745 4.147,-1.422c4.944,0.405 8.348,0.812 9.299,1.112c1.06,0.335 1.354,1.037 1.354,3.236c0,2.035 0.632,7.663 1.142,10.17c0.209,1.025 0.518,3.062 0.687,4.527c0.668,5.786 1.699,8.829 3.321,9.796c1.214,0.724 2.572,0.25 3.12,-1.089c0.35,-0.853 0.348,-1.188 -0.014,-3.1c-0.223,-1.18 -0.479,-3.043 -0.57,-4.142c-0.09,-1.099 -0.396,-3.436 -0.681,-5.194c-0.284,-1.758 -0.536,-4.275 -0.56,-5.593c-0.052,-2.904 0.585,-7.02 1.131,-7.305c0.374,-0.196 4.72,0.09 7.01,0.461c1.742,0.282 2.024,0.873 2.378,4.98c0.163,1.904 0.584,5.44 0.934,7.857c1.057,7.298 1.435,8.428 3.092,9.235c1.894,0.921 3.858,-0.344 4.205,-2.711c0.126,-0.858 -0.012,-2.047 -0.489,-4.194c-0.736,-3.32 -1.104,-5.977 -1.356,-9.814c-0.143,-2.174 -0.104,-2.621 0.263,-2.996c0.237,-0.242 0.513,-0.44 0.612,-0.44c0.1,0 1.882,0.48 3.961,1.067c2.079,0.586 5.277,1.436 7.107,1.888c4.035,0.997 4.158,1.115 4.605,4.417c0.175,1.292 0.599,3.608 0.943,5.146c0.344,1.538 0.756,3.935 0.916,5.327c0.365,3.197 1.056,4.741 2.425,5.423c0.885,0.442 1.098,0.456 1.929,0.133c2.329,-0.905 2.559,-2.578 1.255,-9.147c-0.523,-2.634 -0.973,-5.631 -0.999,-6.659l-0.049,-1.869l1.502,-0.08c1.378,-0.073 11.493,1.457 13.788,2.085c2.198,0.602 2.553,2.226 2.828,12.925c0.175,6.808 0.275,8.152 0.667,8.996c0.665,1.429 1.547,2.043 2.935,2.043c0.957,0 1.295,-0.142 1.892,-0.795c0.946,-1.033 1.117,-2.085 0.805,-4.967c-0.366,-3.377 -0.273,-14.652 0.125,-15.208c0.288,-0.402 0.547,-0.399 3.411,0.038c4.79,0.732 11.692,2.19 12.719,2.687c0.618,0.3 1.015,0.728 1.197,1.29c0.149,0.462 0.39,3.167 0.535,6.01c0.298,5.839 0.52,6.988 1.554,8.044c0.977,0.997 1.938,1.214 3.028,0.683c1.834,-0.892 1.933,-1.465 1.577,-9.107c-0.203,-4.347 -0.182,-4.835 0.216,-5.173c0.379,-0.32 1.008,-0.289 4.535,0.23c2.253,0.331 4.517,0.711 5.032,0.843c1.784,0.459 1.849,0.67 2.042,6.693c0.148,4.631 0.243,5.509 0.658,6.149c1.04,1.599 3.117,1.916 4.248,0.648c1.03,-1.155 1.118,-1.653 1.118,-6.322c0,-2.636 0.114,-4.78 0.27,-5.078c0.309,-0.589 1.469,-0.67 3.383,-0.236c1.691,0.383 2.453,0.735 2.791,1.288c0.164,0.267 0.492,2.271 0.729,4.453c0.238,2.183 0.55,4.436 0.695,5.009c0.753,2.972 4.017,3.509 5.349,0.879c0.367,-0.723 0.403,-1.435 0.252,-5.024c-0.198,-4.729 -0.209,-4.702 1.797,-4.219c1.736,0.419 5.269,0.296 8.254,-0.286c1.552,-0.303 3.142,-0.513 3.534,-0.466c1.086,0.129 1.59,1.324 2.182,5.172c0.778,5.059 1.682,8.737 3.156,12.836c3.006,8.364 6.276,12.756 9.712,13.047c1.192,0.101 1.475,0.024 2.195,-0.595c1.708,-1.466 1.319,-3.428 -1.102,-5.562c-3.528,-3.108 -6.422,-10.411 -7.723,-19.487c-0.294,-2.05 -0.661,-4.242 -0.815,-4.869c-0.488,-1.988 0.429,-2.419 6.371,-2.993c1.539,-0.149 3.929,-0.508 5.312,-0.799c3.274,-0.687 3.915,-0.677 4.388,0.072c0.494,0.783 2.756,6.636 3.679,9.522c1.015,3.174 1.834,4.725 2.813,5.335c1.713,1.066 3.554,0.364 4.121,-1.57c0.256,-0.871 0.204,-1.257 -0.398,-2.982c-0.381,-1.09 -1.024,-3.061 -1.43,-4.379c-0.407,-1.318 -1.162,-3.416 -1.679,-4.661c-1.052,-2.535 -1.123,-2.983 -0.55,-3.469c0.503,-0.426 7.177,-1.852 8.681,-1.856c0.844,-0.002 1.279,0.159 1.761,0.652c0.353,0.359 0.643,0.809 0.646,0.999c0.018,1.163 0.58,4.091 0.912,4.746c0.994,1.962 3.088,2.873 5.809,2.526c2.921,-0.373 4.495,-1.484 4.495,-3.175c0,-1.563 -1.501,-2.82 -3.365,-2.82c-1.062,0 -1.593,-0.63 -1.593,-1.89c0,-0.898 0.106,-1.098 0.717,-1.356c1.018,-0.429 10.337,-0.418 11.592,0.014c1.268,0.436 1.494,0.763 1.783,2.572c0.339,2.124 1.018,3.361 2.167,3.944c0.816,0.414 1.101,0.44 1.895,0.172c1.033,-0.348 1.934,-1.581 1.941,-2.657c0.01,-1.433 0.274,-1.865 1.137,-1.859c1.109,0.008 2.908,0.877 3.389,1.637c0.285,0.45 0.442,1.763 0.566,4.75c0.237,5.674 0.708,7.288 2.43,8.323c1.128,0.677 2.053,0.587 2.908,-0.286l0.736,-0.752l0,-4.981c0,-5.458 0.078,-5.766 1.454,-5.768c2.055,-0.004 3.138,-0.657 5.069,-3.056c0.559,-0.695 0.696,-0.734 2.087,-0.603c0.819,0.078 2.967,0.633 4.774,1.235c1.807,0.601 3.721,1.093 4.253,1.093c3.326,0 4.104,-3.696 1.166,-5.528c-1.409,-0.879 -5.438,-2.245 -9.153,-3.103c-0.992,-0.229 -1.354,-1.016 -0.989,-2.145c0.332,-1.027 0.661,-1.209 2.183,-1.209c1.488,0 8.599,2.528 11.48,4.082c1.975,1.065 2.525,1.245 3.81,1.245c1.825,0 3.041,-0.717 3.761,-2.218c0.437,-0.908 0.449,-1.112 0.122,-1.989c-0.462,-1.238 -1.654,-2.064 -3.298,-2.287c-0.707,-0.096 -2.328,-0.632 -3.603,-1.192c-3.019,-1.327 -8.341,-3.326 -10.735,-4.032c-1.306,-0.384 -2.017,-0.75 -2.291,-1.177c-0.506,-0.788 -1.426,-5.594 -1.426,-7.449c0,-2.207 0.927,-2.73 6.205,-3.499c5.063,-0.738 7.647,-1.909 8.093,-3.667c0.297,-1.169 0.115,-1.92 -0.657,-2.707c-0.981,-1.003 -2.168,-1.112 -4.886,-0.45c-2.967,0.722 -6.202,1.164 -7.719,1.054l-1.166,-0.085l-0.074,-2.823c-0.065,-2.47 -0.01,-2.903 0.435,-3.462l0.508,-0.64l7.071,0.078c6.543,0.071 7.157,0.038 8.224,-0.443c1.212,-0.548 1.972,-1.619 1.972,-2.782c0,-0.735 -0.817,-1.903 -1.652,-2.361c-0.588,-0.323 -4.194,-0.611 -11.135,-0.889c-5.267,-0.211 -5.22,-0.199 -5.215,-1.265c0.002,-0.474 0.172,-1.588 0.377,-2.476c1.466,-6.346 2.33,-14.57 1.726,-16.438c-0.712,-2.2 -3.076,-3.025 -4.691,-1.637c-0.965,0.828 -1.186,1.654 -1.58,5.902c-0.386,4.153 -0.751,5.503 -1.522,5.616c-0.843,0.125 -0.994,-0.534 -1.329,-5.811c-0.572,-8.994 -0.61,-9.185 -2.135,-10.494c-0.726,-0.624 -1.041,-0.725 -1.888,-0.609c-2.064,0.282 -2.983,2.275 -2.699,5.857c0.083,1.054 0.288,3.623 0.456,5.707c0.357,4.443 0.262,4.745 -1.418,4.515c-0.562,-0.077 -1.153,-0.274 -1.313,-0.438c-0.165,-0.168 -0.423,-2.251 -0.594,-4.783c-0.331,-4.934 -0.68,-6.158 -1.944,-6.825c-0.937,-0.495 -1.636,-0.49 -2.596,0.016c-1.426,0.753 -1.688,1.69 -1.612,5.763c0.057,3.084 0.002,3.704 -0.362,4.076c-0.446,0.455 -1.777,0.362 -2.321,-0.161c-0.337,-0.325 -0.582,-2.882 -0.891,-9.283c-0.653,-13.552 -0.598,-13.133 -1.888,-14.241c-1.526,-1.31 -3.484,-0.727 -4.273,1.273c-0.395,1.001 -0.421,1.953 -0.253,9.264c0.196,8.521 0.086,10.634 -0.592,11.326c-0.473,0.482 -1.055,0.425 -6.051,-0.592c-3.762,-0.766 -4.915,-1.245 -5.133,-2.131c-0.086,-0.347 0.027,-2.28 0.25,-4.296c0.223,-2.016 0.478,-4.625 0.567,-5.797c0.089,-1.171 0.45,-4.767 0.804,-7.99c1.22,-11.141 1.457,-14.553 1.44,-20.775c-0.023,-8.403 -0.81,-18.494 -2.131,-27.327c-0.276,-1.846 -0.685,-5.316 -0.909,-7.71c-0.224,-2.395 -0.633,-5.559 -0.909,-7.032c-0.558,-2.972 -1.937,-12.369 -2.211,-15.062c-0.386,-3.785 -1.765,-13.739 -2.602,-18.778c-0.486,-2.929 -1.132,-7.784 -1.434,-10.787c-0.826,-8.205 -1.175,-9.985 -3.134,-15.98c-1.959,-5.995 -3.491,-11.507 -3.886,-13.984c-0.14,-0.879 -0.328,-3.01 -0.418,-4.737c-0.355,-6.839 -1.72,-15.96 -2.678,-17.902c-0.963,-1.952 -2.23,-2.765 -4.581,-2.938c-5.686,-0.418 -14.977,-0.727 -23.543,-0.781l-9.916,-0.063l-3.638,-0.969c-2.001,-0.534 -4.643,-1.098 -5.871,-1.256c-3.567,-0.456 -3.902,-0.523 -4.084,-0.823c-0.094,-0.156 -0.153,-6.893 -0.131,-14.971c0.049,-17.727 -0.015,-18.604 -2.59,-34.931c-0.439,-2.783 -0.913,-6.079 -1.053,-7.324c-0.141,-1.246 -0.458,-3.403 -0.705,-4.795c-0.247,-1.391 -0.44,-3.489 -0.43,-4.661c0.016,-1.824 0.146,-2.418 0.9,-4.128c1.12,-2.538 1.197,-4.161 0.249,-5.198c-1.066,-1.164 -1.897,-1.461 -4.097,-1.462c-2.042,-0.002 -3.85,-0.347 -4.116,-0.786c-0.079,-0.129 -0.443,-1.293 -0.81,-2.587c-1.515,-5.34 -4.472,-9.541 -7.55,-10.724c-3.829,-1.471 -9.73,-1.863 -14.432,-0.957c-3.506,0.675 -5.116,0.494 -7.009,-0.787c-1.874,-1.268 -5.136,-4.616 -7.392,-7.587c-7.002,-9.222 -12.526,-15.997 -14.626,-17.937c-1.806,-1.667 -4.338,-3.115 -6.636,-3.792c-3.123,-0.921 -9.337,-0.012 -14.537,2.126c-2.53,1.041 -12.134,5.423 -14.005,6.391c-0.707,0.365 -2.736,1.261 -4.51,1.99c-1.774,0.73 -4.73,1.997 -6.57,2.815c-4.8,2.136 -6.881,2.786 -10.307,3.22c-6.025,0.763 -7.188,0.575 -15.118,-2.442c-5.076,-1.931 -7.458,-2.538 -12.382,-3.154c-1.822,-0.229 -4.699,-0.788 -6.393,-1.243c-4.711,-1.266 -5.994,-1.513 -8.82,-1.702c-4.052,-0.271 -8.852,-1.126 -10.913,-1.945c-3.402,-1.352 -6.922,-3.739 -13.355,-9.057c-1.436,-1.186 -4.078,-3.056 -5.872,-4.155c-8.907,-5.457 -11.965,-5.983 -19.832,-3.411c-5.177,1.693 -7.098,2.489 -12.601,5.222c-2.47,1.227 -5.665,2.623 -7.101,3.101c-3.961,1.321 -6.676,2.419 -10.775,4.359c-6.64,3.142 -12.364,4.513 -16.301,3.905c-2.665,-0.412 -4.757,-1.536 -6.915,-3.717c-2.41,-2.435 -6.838,-8.469 -10.158,-13.841c-2.972,-4.809 -7.594,-10.905 -9.971,-13.151c-1.614,-1.526 -3.193,-2.421 -5.039,-2.855c-1.286,-0.303 -1.746,-0.303 -3.248,0.001Z" style="fill:#fff;"/><path d="M63.278,37.327c-2.196,0.443 -4.38,1.866 -11.18,7.284c-5.061,4.032 -9.972,8.83 -13.935,13.613c-5.68,6.856 -5.127,6.429 -9.676,7.456c-4.864,1.098 -7.983,3.07 -9.149,5.784c-0.439,1.022 -0.634,2.066 -0.713,3.806c-0.098,2.177 -0.052,2.48 0.504,3.305c1.021,1.517 1.737,1.872 4.925,2.443c1.646,0.295 4.049,0.838 5.341,1.208c1.566,0.448 3.445,0.74 5.64,0.876c3.864,0.24 3.711,0.159 7.67,4.011c1.436,1.397 3.963,3.578 5.617,4.847c3.61,2.769 7.128,6.25 10.303,10.193c5.997,7.445 6.29,7.715 12.261,11.308c8.242,4.959 13.164,7.293 17.146,8.13c3.676,0.773 14.398,0.405 18.309,-0.628c2.711,-0.715 13.465,-6.18 17.157,-8.717c3.424,-2.354 4.704,-3.023 7.537,-3.936c4.163,-1.342 9.24,-2.082 14.483,-2.11c4.472,-0.024 4.871,0.017 8.35,0.868c7.387,1.805 14.08,4.102 18.527,6.359c0.718,0.364 3.876,2.458 7.019,4.652c3.142,2.194 6.548,4.504 7.567,5.133c8.154,5.026 10.599,6.445 15.05,8.731c6.786,3.487 7.791,3.752 14.204,3.752c7.19,0 8.951,-0.575 15.441,-5.04c6.275,-4.318 10.509,-8.501 16.211,-16.014c4.197,-5.531 7.86,-9.914 9.768,-11.687c0.778,-0.724 2.659,-2.174 4.181,-3.223c3.309,-2.282 4.86,-2.772 7.197,-2.272c3.905,0.836 10.522,5.312 17.733,11.995c4.51,4.181 5.969,5.116 10.737,6.886c3.179,1.179 9.855,2.929 13.065,3.424c4.031,0.621 8.664,0.508 12.182,-0.297c4.582,-1.049 4.067,-1.94 4.48,7.741c0.619,14.469 0.252,54.964 -0.518,57.264c-0.331,0.988 -0.434,1.071 -1.434,1.146c-0.593,0.044 -3.764,-0.339 -7.046,-0.851c-3.282,-0.513 -6.966,-1.065 -8.186,-1.228c-1.22,-0.164 -5.095,-0.886 -8.611,-1.605c-3.516,-0.72 -8.859,-1.67 -11.873,-2.113c-3.014,-0.442 -7.183,-1.075 -9.264,-1.406c-3.489,-0.555 -4.606,-0.6 -14.352,-0.58c-11.418,0.024 -11.389,0.02 -12.689,1.485c-0.972,1.095 -1.149,1.737 -1.542,5.615c-0.212,2.089 -0.502,4.676 -0.645,5.749c-0.337,2.531 -0.329,8.134 0.02,15.084c0.228,4.549 0.207,6.429 -0.118,10.375c-0.218,2.65 -0.468,6.077 -0.556,7.615c-0.087,1.538 -0.321,4.595 -0.52,6.792c-0.199,2.197 -0.434,6.512 -0.524,9.588c-0.09,3.077 -0.278,6.493 -0.418,7.591c-0.14,1.099 -0.307,4.455 -0.372,7.458c-0.179,8.343 -0.603,14.628 -1.296,19.177c-0.345,2.271 -0.927,7.245 -1.292,11.053c-0.365,3.809 -0.851,8.543 -1.079,10.521c-0.229,1.978 -0.515,6.892 -0.636,10.92c-0.121,4.029 -0.402,8.823 -0.624,10.654c-0.546,4.505 -0.649,6.939 -0.805,19.044c-0.177,13.632 -0.373,14.914 -2.177,14.214c-1.19,-0.462 -2.335,-1.523 -2.618,-2.425c-0.149,-0.478 -0.516,-2.127 -0.815,-3.666c-1.404,-7.224 -2.211,-8.789 -4.527,-8.789c-0.945,0 -1.377,0.158 -2.007,0.732c-1.177,1.074 -1.252,2.3 -0.385,6.324c0.738,3.432 0.727,4.477 -0.051,4.781c-0.663,0.26 -1.118,-0.548 -1.118,-1.985c0,-2.508 -1.948,-7.339 -3.531,-8.758c-1.757,-1.575 -4.022,-0.866 -4.437,1.39c-0.123,0.673 0.029,1.62 0.532,3.292c0.507,1.69 0.738,3.131 0.822,5.144c0.2,4.748 -0.722,4.746 -2.25,-0.005c-2.203,-6.851 -3.388,-8.784 -5.384,-8.784c-1.195,0 -1.833,0.365 -2.32,1.326c-0.65,1.284 -0.46,2.734 0.911,6.931c0.717,2.197 1.305,4.29 1.305,4.651c0,0.883 -0.527,1.113 -3.07,1.339c-2.947,0.262 -3.3,0.016 -3.708,-2.584c-0.705,-4.488 -2.654,-10.852 -3.693,-12.06c-1.942,-2.258 -4.925,-0.899 -4.925,2.242c0,0.591 0.461,2.904 1.024,5.141c1.745,6.927 1.707,8.572 -0.193,8.41c-1.252,-0.106 -1.542,-0.711 -2.912,-6.077c-0.58,-2.269 -1.463,-4.978 -1.962,-6.021c-0.965,-2.011 -3.824,-5.426 -5.113,-6.107c-1.141,-0.602 -2.399,-0.493 -3.099,0.268c-0.913,0.991 -0.627,2.387 0.915,4.467c1.595,2.151 2.057,3.237 2.733,6.422c0.304,1.434 0.896,3.768 1.315,5.187c0.966,3.269 0.982,3.974 0.099,4.317c-1.119,0.434 -2.414,0.3 -6.371,-0.659c-3.665,-0.887 -9.315,-2.087 -12.27,-2.604c-2.02,-0.354 -4.734,-0.121 -5.785,0.496c-0.478,0.281 -1.08,0.948 -1.338,1.482c-0.424,0.878 -0.432,1.059 -0.086,1.906c0.517,1.263 1.43,1.666 4.208,1.858c2.596,0.18 10.608,1.923 13.761,2.995c1.321,0.449 2.202,0.922 2.545,1.368c0.927,1.203 0.56,4.071 -0.521,4.071c-0.295,0 -1.443,-0.354 -2.55,-0.786c-3.442,-1.344 -20.725,-7.373 -22.238,-7.757c-2.324,-0.59 -6.725,-0.424 -9.678,0.365c-4.412,1.178 -6.24,2.482 -6.24,4.449c0,1.271 0.781,2.297 2.036,2.676c0.849,0.255 1.324,0.173 3.966,-0.69c2.281,-0.744 3.595,-1.011 5.48,-1.111c3.099,-0.164 5.012,0.305 11.6,2.843c2.59,0.998 5.942,2.264 7.449,2.813c2.368,0.862 3.893,1.497 9.738,4.052c0.548,0.239 1.154,0.745 1.346,1.124c0.382,0.754 1.274,6.168 1.297,7.87c0.012,0.911 -0.072,1.078 -0.58,1.151c-0.327,0.048 -1.501,-0.217 -2.609,-0.587c-4.829,-1.614 -10.537,-2.7 -12.914,-2.457c-3.49,0.357 -5.633,2.841 -4.224,4.895c0.693,1.008 1.434,1.221 4.423,1.269c3.185,0.051 4.444,0.312 10.96,2.271c5.764,1.734 6.607,2.058 6.926,2.667c0.334,0.637 1.284,5.189 1.29,6.178c0.003,0.526 -0.179,0.823 -0.633,1.035c-0.821,0.381 -2.445,-0.144 -5.87,-1.898c-3.11,-1.593 -4.878,-2.14 -6.914,-2.137c-2.105,0.001 -3.471,0.419 -4.368,1.334c-0.599,0.611 -0.738,0.988 -0.738,1.993c0,1.015 0.138,1.381 0.762,2.018c0.477,0.487 1.04,0.782 1.501,0.786c4.243,0.041 4.197,0.03 8.45,2.196c3.165,1.613 4.442,2.121 5.946,2.366c2.054,0.334 2.651,0.709 2.651,1.668c0,0.833 -0.789,1.487 -1.793,1.487c-0.461,0 -2.976,-0.315 -5.59,-0.699c-6.166,-0.907 -8.75,-0.965 -9.754,-0.216c-1.123,0.837 -1.701,2.207 -1.393,3.302c0.611,2.176 2.399,2.912 7.048,2.899c2.037,-0.005 4.182,0.202 6.677,0.643c3.398,0.602 3.798,0.735 5.278,1.761c0.881,0.611 1.734,1.363 1.896,1.672c0.162,0.308 0.4,1.894 0.53,3.523c0.321,4.048 0.921,7.905 1.432,9.209c0.825,2.105 2.959,2.796 4.512,1.462c1.095,-0.941 1.238,-2.054 0.711,-5.567c-0.583,-3.892 -0.664,-7.109 -0.193,-7.691c0.446,-0.552 1.861,-0.566 6.283,-0.062c3.927,0.448 4.049,0.546 3.808,3.05c-0.09,0.934 -0.342,2.552 -0.56,3.595c-0.312,1.495 -0.36,2.882 -0.227,6.557c0.093,2.564 0.286,5.13 0.428,5.702c0.585,2.351 2.73,3.276 4.355,1.88c1.241,-1.066 1.441,-2.108 1.253,-6.539c-0.136,-3.214 -0.078,-4.395 0.329,-6.669c0.272,-1.52 0.578,-3.577 0.68,-4.571c0.244,-2.368 0.723,-2.987 2.31,-2.987c0.726,0 1.345,0.161 1.593,0.414c0.223,0.228 0.59,1.426 0.815,2.664c0.225,1.237 0.812,3.168 1.305,4.292c0.493,1.124 1.082,2.861 1.309,3.862c0.784,3.46 3.815,12.219 5.328,15.403c2.444,5.139 5.931,8.72 9.222,9.471c1.25,0.286 1.523,0.266 2.413,-0.18c1.296,-0.648 1.869,-1.66 1.519,-2.681c-0.256,-0.745 -0.835,-1.126 -3.202,-2.111c-1.553,-0.646 -3.062,-2.459 -4.65,-5.586c-3.285,-6.471 -5.498,-14.586 -6.543,-23.994c-0.179,-1.615 0.198,-1.745 4.147,-1.422c4.944,0.405 8.348,0.812 9.299,1.112c1.06,0.335 1.354,1.037 1.354,3.236c0,2.035 0.632,7.663 1.142,10.17c0.209,1.025 0.518,3.062 0.687,4.527c0.668,5.786 1.699,8.829 3.321,9.796c1.214,0.724 2.572,0.25 3.12,-1.089c0.35,-0.853 0.348,-1.188 -0.014,-3.1c-0.223,-1.18 -0.479,-3.043 -0.57,-4.142c-0.09,-1.099 -0.396,-3.436 -0.681,-5.194c-0.284,-1.758 -0.536,-4.275 -0.56,-5.593c-0.052,-2.904 0.585,-7.02 1.131,-7.305c0.374,-0.196 4.72,0.09 7.01,0.461c1.742,0.282 2.024,0.873 2.378,4.98c0.163,1.904 0.584,5.44 0.934,7.857c1.057,7.298 1.435,8.428 3.092,9.235c1.894,0.921 3.858,-0.344 4.205,-2.711c0.126,-0.858 -0.012,-2.047 -0.489,-4.194c-0.736,-3.32 -1.104,-5.977 -1.356,-9.814c-0.143,-2.174 -0.104,-2.621 0.263,-2.996c0.237,-0.242 0.513,-0.44 0.612,-0.44c0.1,0 1.882,0.48 3.961,1.067c2.079,0.586 5.277,1.436 7.107,1.888c4.035,0.997 4.158,1.115 4.605,4.417c0.175,1.292 0.599,3.608 0.943,5.146c0.344,1.538 0.756,3.935 0.916,5.327c0.365,3.197 1.056,4.741 2.425,5.423c0.885,0.442 1.098,0.456 1.929,0.133c2.329,-0.905 2.559,-2.578 1.255,-9.147c-0.523,-2.634 -0.973,-5.631 -0.999,-6.659l-0.049,-1.869l1.502,-0.08c1.378,-0.073 11.493,1.457 13.788,2.085c2.198,0.602 2.553,2.226 2.828,12.925c0.175,6.808 0.275,8.152 0.667,8.996c0.665,1.429 1.547,2.043 2.935,2.043c0.957,0 1.295,-0.142 1.892,-0.795c0.946,-1.033 1.117,-2.085 0.805,-4.967c-0.366,-3.377 -0.273,-14.652 0.125,-15.208c0.288,-0.402 0.547,-0.399 3.411,0.038c4.79,0.732 11.692,2.19 12.719,2.687c0.618,0.3 1.015,0.728 1.197,1.29c0.149,0.462 0.39,3.167 0.535,6.01c0.298,5.839 0.52,6.988 1.554,8.044c0.977,0.997 1.938,1.214 3.028,0.683c1.834,-0.892 1.933,-1.465 1.577,-9.107c-0.203,-4.347 -0.182,-4.835 0.216,-5.173c0.379,-0.32 1.008,-0.289 4.535,0.23c2.253,0.331 4.517,0.711 5.032,0.843c1.784,0.459 1.849,0.67 2.042,6.693c0.148,4.631 0.243,5.509 0.658,6.149c1.04,1.599 3.117,1.916 4.248,0.648c1.03,-1.155 1.118,-1.653 1.118,-6.322c0,-2.636 0.114,-4.78 0.27,-5.078c0.309,-0.589 1.469,-0.67 3.383,-0.236c1.691,0.383 2.453,0.735 2.791,1.288c0.164,0.267 0.492,2.271 0.729,4.453c0.238,2.183 0.55,4.436 0.695,5.009c0.753,2.972 4.017,3.509 5.349,0.879c0.367,-0.723 0.403,-1.435 0.252,-5.024c-0.198,-4.729 -0.209,-4.702 1.797,-4.219c1.736,0.419 5.269,0.296 8.254,-0.286c1.552,-0.303 3.142,-0.513 3.534,-0.466c1.086,0.129 1.59,1.324 2.182,5.172c0.778,5.059 1.682,8.737 3.156,12.836c3.006,8.364 6.276,12.756 9.712,13.047c1.192,0.101 1.475,0.024 2.195,-0.595c1.708,-1.466 1.319,-3.428 -1.102,-5.562c-3.528,-3.108 -6.422,-10.411 -7.723,-19.487c-0.294,-2.05 -0.661,-4.242 -0.815,-4.869c-0.488,-1.988 0.429,-2.419 6.371,-2.993c1.539,-0.149 3.929,-0.508 5.312,-0.799c3.274,-0.687 3.915,-0.677 4.388,0.072c0.494,0.783 2.756,6.636 3.679,9.522c1.015,3.174 1.834,4.725 2.813,5.335c1.713,1.066 3.554,0.364 4.121,-1.57c0.256,-0.871 0.204,-1.257 -0.398,-2.982c-0.381,-1.09 -1.024,-3.061 -1.43,-4.379c-0.407,-1.318 -1.162,-3.416 -1.679,-4.661c-1.052,-2.535 -1.123,-2.983 -0.55,-3.469c0.503,-0.426 7.177,-1.852 8.681,-1.856c0.844,-0.002 1.279,0.159 1.761,0.652c0.353,0.359 0.643,0.809 0.646,0.999c0.018,1.163 0.58,4.091 0.912,4.746c0.994,1.962 3.088,2.873 5.809,2.526c2.921,-0.373 4.495,-1.484 4.495,-3.175c0,-1.563 -1.501,-2.82 -3.365,-2.82c-1.062,0 -1.593,-0.63 -1.593,-1.89c0,-0.898 0.106,-1.098 0.717,-1.356c1.018,-0.429 10.337,-0.418 11.592,0.014c1.268,0.436 1.494,0.763 1.783,2.572c0.339,2.124 1.018,3.361 2.167,3.944c0.816,0.414 1.101,0.44 1.895,0.172c1.033,-0.348 1.934,-1.581 1.941,-2.657c0.01,-1.433 0.274,-1.865 1.137,-1.859c1.109,0.008 2.908,0.877 3.389,1.637c0.285,0.45 0.442,1.763 0.566,4.75c0.237,5.674 0.708,7.288 2.43,8.323c1.128,0.677 2.053,0.587 2.908,-0.286l0.736,-0.752l0,-4.981c0,-5.458 0.078,-5.766 1.454,-5.768c2.055,-0.004 3.138,-0.657 5.069,-3.056c0.559,-0.695 0.696,-0.734 2.087,-0.603c0.819,0.078 2.967,0.633 4.774,1.235c1.807,0.601 3.721,1.093 4.253,1.093c3.326,0 4.104,-3.696 1.166,-5.528c-1.409,-0.879 -5.438,-2.245 -9.153,-3.103c-0.992,-0.229 -1.354,-1.016 -0.989,-2.145c0.332,-1.027 0.661,-1.209 2.183,-1.209c1.488,0 8.599,2.528 11.48,4.082c1.975,1.065 2.525,1.245 3.81,1.245c1.825,0 3.041,-0.717 3.761,-2.218c0.437,-0.908 0.449,-1.112 0.122,-1.989c-0.462,-1.238 -1.654,-2.064 -3.298,-2.287c-0.707,-0.096 -2.328,-0.632 -3.603,-1.192c-3.019,-1.327 -8.341,-3.326 -10.735,-4.032c-1.306,-0.384 -2.017,-0.75 -2.291,-1.177c-0.506,-0.788 -1.426,-5.594 -1.426,-7.449c0,-2.207 0.927,-2.73 6.205,-3.499c5.063,-0.738 7.647,-1.909 8.093,-3.667c0.297,-1.169 0.115,-1.92 -0.657,-2.707c-0.981,-1.003 -2.168,-1.112 -4.886,-0.45c-2.967,0.722 -6.202,1.164 -7.719,1.054l-1.166,-0.085l-0.074,-2.823c-0.065,-2.47 -0.01,-2.903 0.435,-3.462l0.508,-0.64l7.071,0.078c6.543,0.071 7.157,0.038 8.224,-0.443c1.212,-0.548 1.972,-1.619 1.972,-2.782c0,-0.735 -0.817,-1.903 -1.652,-2.361c-0.588,-0.323 -4.194,-0.611 -11.135,-0.889c-5.267,-0.211 -5.22,-0.199 -5.215,-1.265c0.002,-0.474 0.172,-1.588 0.377,-2.476c1.466,-6.346 2.33,-14.57 1.726,-16.438c-0.712,-2.2 -3.076,-3.025 -4.691,-1.637c-0.965,0.828 -1.186,1.654 -1.58,5.902c-0.386,4.153 -0.751,5.503 -1.522,5.616c-0.843,0.125 -0.994,-0.534 -1.329,-5.811c-0.572,-8.994 -0.61,-9.185 -2.135,-10.494c-0.726,-0.624 -1.041,-0.725 -1.888,-0.609c-2.064,0.282 -2.983,2.275 -2.699,5.857c0.083,1.054 0.288,3.623 0.456,5.707c0.357,4.443 0.262,4.745 -1.418,4.515c-0.562,-0.077 -1.153,-0.274 -1.313,-0.438c-0.165,-0.168 -0.423,-2.251 -0.594,-4.783c-0.331,-4.934 -0.68,-6.158 -1.944,-6.825c-0.937,-0.495 -1.636,-0.49 -2.596,0.016c-1.426,0.753 -1.688,1.69 -1.612,5.763c0.057,3.084 0.002,3.704 -0.362,4.076c-0.446,0.455 -1.777,0.362 -2.321,-0.161c-0.337,-0.325 -0.582,-2.882 -0.891,-9.283c-0.653,-13.552 -0.598,-13.133 -1.888,-14.241c-1.526,-1.31 -3.484,-0.727 -4.273,1.273c-0.395,1.001 -0.421,1.953 -0.253,9.264c0.196,8.521 0.086,10.634 -0.592,11.326c-0.473,0.482 -1.055,0.425 -6.051,-0.592c-3.762,-0.766 -4.915,-1.245 -5.133,-2.131c-0.086,-0.347 0.027,-2.28 0.25,-4.296c0.223,-2.016 0.478,-4.625 0.567,-5.797c0.089,-1.171 0.45,-4.767 0.804,-7.99c1.22,-11.141 1.457,-14.553 1.44,-20.775c-0.023,-8.403 -0.81,-18.494 -2.131,-27.327c-0.276,-1.846 -0.685,-5.316 -0.909,-7.71c-0.224,-2.395 -0.633,-5.559 -0.909,-7.032c-0.558,-2.972 -1.937,-12.369 -2.211,-15.062c-0.386,-3.785 -1.765,-13.739 -2.602,-18.778c-0.486,-2.929 -1.132,-7.784 -1.434,-10.787c-0.826,-8.205 -1.175,-9.985 -3.134,-15.98c-1.959,-5.995 -3.491,-11.507 -3.886,-13.984c-0.14,-0.879 -0.328,-3.01 -0.418,-4.737c-0.355,-6.839 -1.72,-15.96 -2.678,-17.902c-0.963,-1.952 -2.23,-2.765 -4.581,-2.938c-5.686,-0.418 -14.977,-0.727 -23.543,-0.781l-9.916,-0.063l-3.638,-0.969c-2.001,-0.534 -4.643,-1.098 -5.871,-1.256c-3.567,-0.456 -3.902,-0.523 -4.084,-0.823c-0.094,-0.156 -0.153,-6.893 -0.131,-14.971c0.049,-17.727 -0.015,-18.604 -2.59,-34.931c-0.439,-2.783 -0.913,-6.079 -1.053,-7.324c-0.141,-1.246 -0.458,-3.403 -0.705,-4.795c-0.247,-1.391 -0.44,-3.489 -0.43,-4.661c0.016,-1.824 0.146,-2.418 0.9,-4.128c1.12,-2.538 1.197,-4.161 0.249,-5.198c-1.066,-1.164 -1.897,-1.461 -4.097,-1.462c-2.042,-0.002 -3.85,-0.347 -4.116,-0.786c-0.079,-0.129 -0.443,-1.293 -0.81,-2.587c-1.515,-5.34 -4.472,-9.541 -7.55,-10.724c-3.829,-1.471 -9.73,-1.863 -14.432,-0.957c-3.506,0.675 -5.116,0.494 -7.009,-0.787c-1.874,-1.268 -5.136,-4.616 -7.392,-7.587c-7.002,-9.222 -12.526,-15.997 -14.626,-17.937c-1.806,-1.667 -4.338,-3.115 -6.636,-3.792c-3.123,-0.921 -9.337,-0.012 -14.537,2.126c-2.53,1.041 -12.134,5.423 -14.005,6.391c-0.707,0.365 -2.736,1.261 -4.51,1.99c-1.774,0.73 -4.73,1.997 -6.57,2.815c-4.8,2.136 -6.881,2.786 -10.307,3.22c-6.025,0.763 -7.188,0.575 -15.118,-2.442c-5.076,-1.931 -7.458,-2.538 -12.382,-3.154c-1.822,-0.229 -4.699,-0.788 -6.393,-1.243c-4.711,-1.266 -5.994,-1.513 -8.82,-1.702c-4.052,-0.271 -8.852,-1.126 -10.913,-1.945c-3.402,-1.352 -6.922,-3.739 -13.355,-9.057c-1.436,-1.186 -4.078,-3.056 -5.872,-4.155c-8.907,-5.457 -11.965,-5.983 -19.832,-3.411c-5.177,1.693 -7.098,2.489 -12.601,5.222c-2.47,1.227 -5.665,2.623 -7.101,3.101c-3.961,1.321 -6.676,2.419 -10.775,4.359c-6.64,3.142 -12.364,4.513 -16.301,3.905c-2.665,-0.412 -4.757,-1.536 -6.915,-3.717c-2.41,-2.435 -6.838,-8.469 -10.158,-13.841c-2.972,-4.809 -7.594,-10.905 -9.971,-13.151c-1.614,-1.526 -3.193,-2.421 -5.039,-2.855c-1.286,-0.303 -1.746,-0.303 -3.248,0.001m3.838,6.6c1.851,1.199 6.836,7.443 9.169,11.484c1.551,2.686 5.048,7.938 7.585,11.392c2.493,3.393 6.156,6.913 8.333,8.007c6.774,3.404 14.732,2.51 26.176,-2.939c2.296,-1.093 5.878,-2.551 7.959,-3.239c2.464,-0.814 5.513,-2.12 8.742,-3.743c5.275,-2.652 9.96,-4.503 14.298,-5.649c2.643,-0.698 2.679,-0.701 4.722,-0.273c1.132,0.238 2.911,0.845 3.952,1.349c2.76,1.338 7.4,4.517 10.69,7.322c5.49,4.682 11.784,8.575 15.527,9.602c2.184,0.599 5.87,1.172 10.568,1.641c1.905,0.19 4.911,0.77 7.676,1.48c3.191,0.821 5.75,1.291 8.599,1.582c4.432,0.452 7.744,1.379 13.448,3.765c5.586,2.338 8.37,2.661 14.535,1.69c3.879,-0.611 7.399,-1.765 12.238,-4.01c1.937,-0.899 5.649,-2.572 8.249,-3.719c2.6,-1.146 6.858,-3.056 9.463,-4.244c2.605,-1.188 5.527,-2.465 6.494,-2.839c2.875,-1.11 6.789,-1.976 8.934,-1.977c3.521,0 6.102,1.773 10.262,7.048c1.16,1.471 2.87,3.573 3.802,4.671c0.932,1.099 2.846,3.582 4.253,5.518c3.389,4.663 5.556,7.166 8.382,9.68c2.858,2.543 4.794,3.636 6.979,3.941c1.642,0.229 4.619,0.03 7.262,-0.486c3.591,-0.702 9.24,-0.088 10.87,1.18c1.597,1.244 3.561,5.712 2.99,6.802c-0.305,0.58 -2.757,1.065 -5.385,1.065c-1.397,0 -2.452,0.219 -4.546,0.944c-4.176,1.447 -9.542,2.786 -11.859,2.96c-2.864,0.215 -6.965,-0.285 -11.404,-1.39c-8.433,-2.1 -10.524,-3.136 -15.082,-7.471c-3.163,-3.009 -7.569,-6.562 -11.34,-9.144c-6.765,-4.633 -11.723,-5.726 -16.94,-3.734c-1.914,0.731 -6.562,3.902 -8.689,5.927c-2.333,2.222 -6.366,7.014 -9.482,11.266c-5.489,7.491 -8.643,10.76 -14.822,15.361c-5.907,4.398 -7.722,5.076 -13.62,5.089c-4.428,0.01 -5.683,-0.272 -9.994,-2.241c-2.934,-1.341 -8.263,-4.306 -12.186,-6.782c-1.22,-0.77 -3.612,-2.266 -5.315,-3.326c-1.703,-1.059 -4.489,-2.934 -6.19,-4.168c-5.934,-4.301 -8.849,-5.929 -14.46,-8.075c-4.672,-1.788 -11.841,-3.772 -16.906,-4.679c-6.789,-1.217 -19.946,0.591 -26.151,3.594c-1.148,0.555 -3.438,1.925 -5.088,3.043c-3.424,2.32 -12.667,7.318 -15.005,8.113c-2.084,0.71 -11.728,1.09 -14.743,0.582c-2.839,-0.479 -6.77,-2.07 -11.489,-4.65c-8.467,-4.628 -10.111,-5.9 -13.966,-10.8c-1.328,-1.689 -3.081,-3.819 -3.897,-4.734c-1.93,-2.166 -7.689,-7.429 -10.835,-9.902c-1.363,-1.072 -3.77,-3.248 -5.349,-4.836c-1.729,-1.74 -3.285,-3.063 -3.914,-3.33c-0.698,-0.296 -2.039,-0.476 -4.045,-0.543c-2.763,-0.093 -8.674,-1.196 -10.634,-1.984c-1.36,-0.547 -0.216,-2.293 1.981,-3.021c0.669,-0.222 2.316,-0.58 3.661,-0.797c5.333,-0.858 7.838,-3.055 11.777,-10.325c1.264,-2.334 6.303,-7.429 10.699,-10.819c1.937,-1.495 4.286,-3.315 5.219,-4.046c3.859,-3.024 5.737,-3.547 7.842,-2.183m279.994,72.371c0.27,0.333 0.268,0.834 -0.01,2.664c-0.388,2.539 -0.178,5.038 0.925,11.042c0.336,1.831 0.858,4.948 1.158,6.925c0.301,1.978 0.78,4.843 1.065,6.368c0.284,1.525 0.76,4.641 1.057,6.925c1.097,8.446 1.077,34.672 -0.029,36.781c-0.388,0.739 -1.602,0.991 -7.183,1.489c-4.904,0.437 -4.992,0.436 -7.118,-0.113c-1.185,-0.306 -2.473,-0.713 -2.863,-0.904c-0.853,-0.418 -0.812,2.792 -0.34,-26.441c0.289,-17.874 0.292,-22.857 0.018,-27.434c-0.406,-6.795 -0.424,-15.034 -0.035,-15.776c0.628,-1.199 3.891,-1.887 9.074,-1.915c3.253,-0.017 4.006,0.051 4.281,0.389m-67.073,68.449c2.215,0.371 6.393,1.031 9.285,1.466c2.892,0.435 7.77,1.336 10.839,2.002c5.609,1.216 13.778,2.65 20.323,3.567c6.189,0.866 12.137,2.116 14.541,3.055c1.26,0.492 3.247,1.089 4.416,1.327c1.168,0.237 4.339,1.208 7.045,2.157c2.707,0.949 5.275,1.727 5.708,1.729c1.375,0.006 2.535,-0.852 3.303,-2.442c0.467,-0.966 1.073,-1.714 1.811,-2.234c1.055,-0.743 1.23,-0.778 3.606,-0.728c1.872,0.04 3.247,0.264 5.497,0.894l3.001,0.841l12.265,0.214c11.134,0.195 19.103,0.547 21.528,0.953c1.249,0.209 1.772,0.764 2.219,2.352c0.765,2.723 1.435,7.995 1.44,11.34c0.003,1.831 0.123,4.168 0.268,5.194c0.524,3.712 2.338,10.8 3.866,15.103c1.882,5.299 2.458,8.019 3.169,14.951c0.298,2.906 0.762,6.382 1.032,7.724c1.198,5.955 2.528,15.654 3.141,22.9c0.158,1.877 0.871,6.611 1.582,10.52c1.423,7.814 1.587,8.869 2.341,15.098c0.284,2.344 0.801,6.599 1.149,9.455c1.323,10.851 1.515,13.984 1.393,22.64c-0.079,5.553 -0.249,9.05 -0.539,11.053c-0.993,6.86 -1.758,13.315 -2.019,17.046c-0.307,4.383 -0.832,7.484 -1.51,8.923c-0.586,1.243 -1.227,1.286 -4.441,0.305c-3.439,-1.05 -7.072,-1.772 -12.308,-2.444c-7.26,-0.932 -14.998,-2.154 -17.659,-2.787c-0.932,-0.221 -2.091,-1.389 -4.034,-4.062c-1.011,-1.391 -2.664,-3.503 -3.674,-4.694c-1.009,-1.191 -3.252,-3.964 -4.983,-6.161c-1.732,-2.197 -3.919,-4.869 -4.861,-5.937c-1.797,-2.036 -7.732,-7.679 -10.847,-10.314c-3.067,-2.595 -5.283,-4.909 -7.902,-8.253c-1.377,-1.758 -4.096,-4.878 -6.042,-6.935c-1.947,-2.055 -4.559,-4.83 -5.805,-6.166c-2.439,-2.611 -3.468,-3.199 -5.073,-2.891c-1.486,0.284 -2.734,1.703 -4.398,4.995c-0.835,1.653 -2.369,4.505 -3.409,6.336c-1.039,1.831 -3.086,5.719 -4.549,8.64c-1.463,2.921 -3.625,6.816 -4.806,8.656c-2.559,3.986 -3.094,4.943 -5.968,10.67c-4.392,8.75 -5.939,11.598 -6.639,12.223c-0.683,0.61 -0.824,0.629 -3.4,0.468c-1.478,-0.092 -4.828,-0.461 -7.446,-0.82c-2.617,-0.359 -6.461,-0.783 -8.542,-0.942c-6.306,-0.483 -14.26,-1.355 -18.397,-2.015c-5.686,-0.908 -13.506,-2.46 -15.079,-2.993l-1.36,-0.461l-0.161,-1.598c-0.088,-0.879 -0.369,-2.117 -0.624,-2.753c-0.429,-1.067 -0.441,-1.539 -0.152,-6.259c0.172,-2.807 0.415,-9.778 0.54,-15.491c0.195,-8.858 0.312,-10.859 0.8,-13.584c0.458,-2.556 0.569,-4.156 0.557,-7.991c-0.008,-2.705 0.139,-5.896 0.339,-7.324c0.195,-1.392 0.429,-3.549 0.521,-4.794c0.728,-9.888 1.606,-18.429 2.353,-22.906c0.594,-3.563 0.933,-8.628 1.068,-15.981c0.077,-4.209 0.268,-7.602 0.502,-8.922c0.255,-1.434 0.374,-3.947 0.367,-7.681c-0.007,-3.052 0.118,-7.187 0.278,-9.189c0.671,-8.439 1.11,-13.116 1.459,-15.552c0.294,-2.05 0.339,-4.664 0.216,-12.518c-0.152,-9.729 -0.141,-10.015 0.512,-14.298c0.367,-2.404 0.787,-4.493 0.933,-4.643c0.497,-0.507 2.479,-0.642 9.941,-0.675c6.826,-0.031 7.782,0.023 11.473,0.641m24.099,40.083c-5.7,0.613 -9.266,1.906 -12.678,4.598c-3.731,2.944 -6.038,5.398 -6.561,6.982c-0.679,2.054 -0.96,5.91 -0.83,11.384l0.118,4.992l1.617,4.197c2.846,7.384 3.567,8.506 7.321,11.392c4.708,3.62 6.091,3.999 12.991,3.564c6.032,-0.38 8.731,-0.869 13.217,-2.393c4.504,-1.531 5.442,-2.064 8.145,-4.632c2.211,-2.1 2.663,-2.865 2.663,-4.503c0,-1.599 0.304,-2.322 1.715,-4.091c2.315,-2.9 2.913,-4.952 2.45,-8.402c-0.587,-4.377 -3.859,-12.189 -6.234,-14.886c-1.38,-1.567 -4.7,-4.339 -6.913,-5.771c-1.42,-0.919 -4.451,-2.002 -6.788,-2.424c-1.724,-0.312 -7.363,-0.316 -10.233,-0.007m11.129,6.254c3.278,1.061 5.119,2.156 7.176,4.268c2.047,2.1 3.098,3.773 4.59,7.305c2.387,5.653 2.108,7.679 -1.643,11.906c-1.098,1.238 -2.423,3.113 -3.08,4.358c-1.6,3.035 -3.429,4.289 -7.964,5.464c-3.137,0.812 -11.795,1.557 -13.734,1.182c-3.086,-0.598 -6.093,-3.564 -8.158,-8.049c-2.173,-4.718 -2.107,-4.36 -2.107,-11.52c0,-7.644 -0.071,-7.415 3.214,-10.391c4.322,-3.915 9.245,-5.533 16.226,-5.334c2.648,0.075 3.679,0.228 5.48,0.811m-6.393,11.567c-2.741,0.681 -4.568,3.004 -4.565,5.802c0.002,1.732 0.409,3.095 1.215,4.074c2.822,3.422 8.84,2.243 9.992,-1.958c0.607,-2.212 -0.149,-5.704 -1.498,-6.927c-1.148,-1.04 -3.288,-1.452 -5.144,-0.991m28.661,80.355c3.311,3.181 4.017,3.969 7.361,8.223c3.329,4.234 5.185,6.133 9.644,9.868c4.483,3.756 10.024,9.516 13.31,13.837c1.56,2.051 3.918,5.003 5.24,6.56c2.774,3.267 3.35,4.095 3.116,4.481c-0.275,0.455 -2.173,0.317 -3.214,-0.234c-1.096,-0.58 -3.501,-3.053 -6.281,-6.458c-1.037,-1.271 -3.847,-4.391 -6.245,-6.934c-2.398,-2.544 -5.01,-5.34 -5.803,-6.214c-0.794,-0.874 -2.325,-2.428 -3.401,-3.453c-1.077,-1.026 -2.95,-3.045 -4.164,-4.489c-3.029,-3.601 -4.684,-4.341 -6.986,-3.122c-3.382,1.789 -11.631,13.859 -17.191,25.152c-2.139,4.345 -1.845,4.166 -6.838,4.166c-2.291,0 -4.351,-0.073 -4.578,-0.162c-0.227,-0.089 -0.413,-0.427 -0.413,-0.751c0,-1.121 7.272,-15.271 10.003,-19.462c1.431,-2.198 3.066,-5.013 3.632,-6.256c0.567,-1.243 1.531,-3.101 2.143,-4.13c0.612,-1.029 1.494,-2.649 1.959,-3.6c0.69,-1.409 3.07,-5.659 4.883,-8.72c0.609,-1.027 1.31,-0.715 3.823,1.698m11.284,26.268c7.388,7.415 14.543,15.427 14.409,16.135c-0.075,0.401 -0.818,0.452 -7.517,0.519c-4.089,0.041 -9.078,-0.049 -11.087,-0.198c-2.009,-0.15 -6.295,-0.405 -9.525,-0.566c-3.229,-0.161 -6.147,-0.404 -6.485,-0.541c-0.506,-0.204 -0.584,-0.375 -0.443,-0.973c0.41,-1.748 5.416,-10.234 9.246,-15.674c2.849,-4.046 3.975,-5.427 4.428,-5.427c0.15,0 3.288,3.026 6.974,6.725m-111.706,6.32c1.579,0.749 3.164,1.51 3.523,1.692c0.358,0.182 0.887,0.728 1.174,1.213c0.287,0.485 0.918,1.35 1.403,1.923c1.046,1.238 2.652,1.802 7.473,2.625c1.724,0.293 4.777,0.889 6.784,1.323c2.008,0.434 5.118,0.974 6.912,1.201c7.423,0.938 14.717,1.738 18.388,2.018c2.147,0.163 5.905,0.584 8.35,0.935c2.445,0.35 6.031,0.771 7.968,0.934c1.938,0.163 3.993,0.404 4.567,0.537c0.574,0.132 2.629,0.25 4.567,0.262c1.937,0.012 4.873,0.136 6.523,0.275c1.651,0.138 7.522,0.367 13.048,0.509c5.525,0.14 11.103,0.393 12.395,0.561c1.292,0.167 8.337,0.385 15.657,0.483c12.922,0.175 13.35,0.197 14.744,0.77c1.705,0.701 3.11,0.746 4.806,0.156c1.109,-0.385 1.81,-0.399 6.393,-0.126c4.889,0.291 7.261,0.562 16.331,1.869c10.703,1.542 14.153,2.252 18.397,3.785c4.126,1.49 4.917,1.647 6.732,1.342c1.539,-0.259 2.129,-0.176 9.264,1.31c4.19,0.872 9.199,1.774 11.129,2.003c2.41,0.286 4.162,0.659 5.595,1.193c1.519,0.566 2.555,0.777 3.815,0.777c2.254,0 4.464,0.428 6.318,1.224c1.09,0.468 1.979,0.641 3.295,0.641c1.128,0 1.901,0.124 2.065,0.332c0.507,0.642 0.62,2.066 0.323,4.065c-0.228,1.536 -0.226,2.346 0.01,3.404c0.53,2.376 0.756,7.81 0.451,10.843c-0.253,2.513 -0.226,3.066 0.27,5.46c0.893,4.301 1.176,8.796 0.727,11.543c-0.207,1.269 -0.456,2.945 -0.553,3.725c-0.249,2.008 -1.851,7.544 -2.259,7.808c-0.572,0.37 -0.85,0.272 -2.555,-0.897c-1.332,-0.912 -1.847,-1.117 -2.716,-1.081c-0.59,0.025 -1.795,0.08 -2.679,0.123c-1.472,0.071 -1.798,-0.024 -3.914,-1.147l-2.308,-1.226l-9.786,0.063c-12.489,0.08 -20.423,0.618 -23.299,1.582c-2.476,0.83 -3.555,0.853 -5.305,0.112c-1.771,-0.749 -2.457,-0.547 -4.117,1.217c-1.51,1.605 -0.89,1.408 -9.27,2.949c-5.849,1.075 -7.075,1.13 -8.894,0.399c-2.174,-0.875 -3.054,-0.724 -4.987,0.857c-0.749,0.613 -1.445,0.855 -3.393,1.182c-3.084,0.518 -6.111,0.355 -10.28,-0.551c-1.724,-0.375 -4.362,-0.811 -5.862,-0.968c-2.973,-0.311 -6.077,-0.99 -8.416,-1.841c-0.964,-0.351 -2.144,-0.544 -3.325,-0.544c-2.633,0 -12.265,-1.458 -15.019,-2.274c-1.289,-0.381 -3.297,-0.804 -4.462,-0.94c-1.166,-0.135 -3.221,-0.476 -4.567,-0.757c-1.346,-0.281 -3.798,-0.709 -5.448,-0.95c-3.833,-0.561 -7.092,-1.331 -9.621,-2.273c-1.099,-0.41 -2.584,-0.826 -3.3,-0.926c-0.715,-0.099 -3.591,-0.583 -6.39,-1.075c-2.798,-0.493 -6.38,-1.033 -7.959,-1.201c-1.578,-0.167 -4.162,-0.582 -5.74,-0.92c-1.579,-0.338 -4.104,-0.818 -5.611,-1.065c-3.143,-0.517 -5.859,-1.173 -9.394,-2.271c-7.431,-2.307 -11.533,-3.153 -18.788,-3.873c-2.912,-0.289 -4.918,-0.636 -6.196,-1.07c-1.647,-0.56 -2.3,-0.634 -5.088,-0.578c-1.888,0.038 -4.643,-0.125 -6.722,-0.396c-6.197,-0.811 -12.614,-1.07 -18.414,-0.744c-3.779,0.212 -6.349,0.214 -9.224,0.007c-8.026,-0.578 -8.573,-0.739 -10.786,-3.153l-1.184,-1.292l-0.173,-3.172c-0.215,-3.912 -0.767,-8.111 -1.573,-11.961c-0.338,-1.611 -0.686,-3.746 -0.776,-4.743c-0.089,-0.998 -0.494,-2.676 -0.9,-3.729c-1.325,-3.436 -1.974,-8.694 -1.98,-16.032c-0.004,-6.037 0.082,-6.484 1.374,-7.154c0.39,-0.203 2.326,-0.877 4.301,-1.498l3.592,-1.129l1.285,0.429c2.085,0.697 3.07,0.57 4.776,-0.613c1.361,-0.944 1.714,-1.059 3.784,-1.237c1.411,-0.122 3.278,-0.074 4.892,0.124l2.609,0.321l3.784,-1.215c2.081,-0.668 4.782,-1.638 6.002,-2.157c2.83,-1.202 3.641,-1.129 7.437,0.673"/></svg>