<?xml version="1.0" encoding="UTF-8" standalone="no"?><!DOCTYPE svg PUBLIC "-//W3C//DTD SVG 1.1//EN" "http://www.w3.org/Graphics/SVG/1.1/DTD/svg11.dtd"><svg width="100%" height="100%" viewBox="0 0 512 512" version="1.1" xmlns="http://www.w3.org/2000/svg" xmlns:xlink="http://www.w3.org/1999/xlink" xml:space="preserve" xmlns:serif="http://www.serif.com/" style="fill-rule:evenodd;clip-rule:evenodd;stroke-linejoin:round;stroke-miterlimit:2;"><path d="M159.968,25.04c-0.428,0.14 -1.886,1.4 -3.24,2.802c-2.21,2.286 -2.463,2.79 -2.463,4.927c0,2.953 -1.48,10.533 -2.244,11.48c-0.3,0.386 -0.587,2.252 -0.614,4.147c-0.027,1.895 -0.668,7.294 -1.425,12c-1.733,10.775 -3.09,27.33 -2.935,35.77c0.067,3.565 -0.1,7.02 -0.372,7.68c-0.272,0.66 -0.328,2.515 -0.123,4.147c0.5,3.993 0.487,12.23 -0.022,15.33c-0.835,5.083 2.138,21.17 5.854,31.682c1.31,3.707 2.387,7.098 2.392,7.537c0.005,0.439 0.474,1.713 1.045,2.83c0.571,1.117 1.04,2.5 1.042,3.09c0.002,0.59 0.604,2.34 1.336,3.908c0.732,1.568 2.047,4.717 2.923,6.998c0.876,2.281 2.025,4.704 2.552,5.384c0.527,0.68 0.96,1.443 0.96,1.697c0,0.804 8.476,14.82 10.94,18.087l5.135,6.973c2.082,2.852 5.85,7.206 8.37,9.676c3.182,3.116 4.586,4.863 4.586,5.704c0,1.662 -1.874,8.083 -2.754,9.436c-0.395,0.608 -1.03,2.68 -1.4,4.604c-0.44,2.22 -0.944,3.5 -1.38,3.5c-0.38,0 -1.095,0.208 -1.6,0.463c-1.26,0.65 -5.733,1.53 -7.9,1.555c-2.938,0.035 -13.378,1.973 -18.22,3.382c-4.304,1.252 -13.92,4.926 -20.34,7.77c-3.873,1.716 -8.183,4.657 -13.29,9.072c-4.577,3.955 -8.388,6.13 -13.984,7.984c-6.433,2.13 -22.934,7.983 -24.996,8.867c-1.06,0.454 -2.047,0.825 -2.194,0.825c-0.147,0 -0.117,-1.08 0.064,-2.403c0.22,-1.606 0.146,-2.336 -0.223,-2.203c-0.454,0.164 -2.458,2.646 -6.077,7.523c-0.34,0.46 -0.297,0.893 0.133,1.323c0.853,0.852 3.3,0.184 12.435,-3.408c3.916,-1.54 8.987,-3.398 11.268,-4.13c9.73,-3.13 14.69,-4.923 17.34,-6.273l2.826,-1.437l1.19,1.487c0.654,0.818 1.19,1.65 1.193,1.85c0.01,1.634 12.088,14.377 17.29,18.243c2.82,2.095 9.253,4.46 12.166,4.473c4.7,0.02 14.464,1.987 16.69,3.362c0.395,0.244 -0.454,2.712 -2.85,8.292c-0.5,1.14 -0.96,2.147 -1.042,2.236c-0.082,0.089 -1.83,-0.68 -3.88,-1.714c-4.403,-2.217 -6.897,-2.328 -7.182,-0.32c-0.136,0.97 0.742,2.16 4.03,5.464l4.203,4.226l-0.593,1.793c-0.812,2.454 -4.977,12.98 -6.488,16.397c-1.66,3.75 -1.6,4.763 0.32,5.432c1.893,0.66 1.932,1.424 0.254,5.028c-1.474,3.167 -1.585,4.002 -0.578,4.388c0.76,0.292 1.233,0.082 6.672,-2.96l3.498,-1.956l3.89,1.9l-0.104,6.74c-0.057,3.707 -0.35,8.16 -0.65,9.9c-0.3,1.74 -0.77,5.703 -1.047,8.813c-1.186,13.342 -3.693,32.208 -4.747,35.72c-0.393,1.31 -0.638,6.173 -0.666,13.22c-0.043,10.88 0.2,13.627 2.054,22.29c0.394,1.854 0.992,5.236 1.327,7.517c0.335,2.281 0.82,4.556 1.073,5.055c0.623,1.22 2.566,1.146 3.957,-0.15c1.374,-1.28 1.438,-2.133 0.22,-2.893c-0.92,-0.575 -1.6,-3.115 -2.717,-10.306c-0.313,-1.996 -0.913,-5.495 -1.333,-7.776c-1.936,-10.525 -1.77,-17.278 0.79,-31.882c1.52,-8.68 2.563,-16.954 2.275,-18.056c-0.138,-0.527 0.106,-2.22 0.544,-3.763c0.438,-1.543 1.042,-5.605 1.343,-9.026c0.784,-8.878 3.122,-22.076 4.103,-23.16c0.477,-0.525 3.168,0.128 3.168,0.77c0,0.307 -0.642,1.23 -1.426,2.05c-1.42,1.487 -1.425,1.512 -1.396,8.84c0.03,7.567 0.82,12.885 3.595,24.2c0.664,2.708 1.48,6.674 1.815,8.813c0.335,2.139 0.815,4.707 1.07,5.71c0.255,1.003 0.947,5.434 1.54,9.85l2.083,15.287c1.847,13.297 1.846,13.23 0.256,17.196c-1.284,3.2 -1.443,4.328 -1.662,11.746c-0.2,6.442 -0.07,8.782 0.558,10.887c0.44,1.473 1.04,3.647 1.337,4.83c0.544,2.182 1.467,2.978 2.838,2.45c1.33,-0.5 1.402,-2.13 0.257,-5.745c-0.936,-2.955 -1.115,-4.773 -1.114,-11.298c0.003,-7.91 0.58,-11.574 2.44,-15.496c0.802,-1.688 0.787,-2.206 -0.258,-8.674c-0.61,-3.783 -1.2,-7.022 -1.308,-7.2c-0.108,-0.178 -0.453,-2.638 -0.765,-5.47l-0.806,-6.706c-0.132,-0.855 -0.494,-4.238 -0.804,-7.517c-0.31,-3.279 -1.035,-7.71 -1.6,-9.85c-1.394,-5.18 -3.517,-15.06 -4.064,-18.922c-0.243,-1.71 -0.7,-4.394 -0.995,-5.962c-0.295,-1.568 -0.562,-5.144 -0.573,-7.948c-0.018,-4.205 0.176,-5.505 1.107,-7.43c0.62,-1.283 1.428,-2.447 1.792,-2.586c0.364,-0.139 1.766,0.12 3.114,0.578c1.348,0.458 5.134,1.283 8.414,1.835c3.67,0.618 6.335,1.34 6.93,1.877c1.237,1.12 1.217,1.563 -0.082,1.903c-0.928,0.242 -1.018,0.587 -0.792,3.04c0.14,1.522 0.382,5.45 0.54,8.73c0.158,3.28 0.63,7.828 1.052,10.11c0.422,2.282 1.116,7.297 1.546,11.146l2.55,20.995c0.152,0.856 0.635,3.888 1.073,6.74c1.315,8.556 3.67,17.582 5.027,19.28c0.66,0.826 1.716,0.362 2.35,-1.034c0.505,-1.114 -0.103,-3.703 -2.813,-11.972c-0.458,-1.397 -0.893,-3.03 -0.966,-3.63c-0.073,-0.6 -0.412,-2.256 -0.75,-3.68c-0.385,-1.709 -0.666,-3.44 -0.84,-5.184l-0.442,-4.666l-0.788,-7.517c-0.313,-2.994 -1.02,-8.826 -1.575,-12.96c-1.365,-10.2 -1.662,-13.76 -1.732,-20.736c-0.07,-6.992 0.152,-7.202 4.025,-3.793c1.992,1.753 2.467,2.498 2.482,3.888c0.01,0.945 0.587,6.735 1.282,12.865l2.492,20.253c0.164,0.694 0.5,6.113 0.77,12.044c0.364,8.357 0.784,12.264 1.86,17.367l1.608,7.75c0.327,1.766 1.483,1.4 3.53,-1.1c2.06,-2.515 2.373,-3.964 0.854,-3.964c-1.158,0 -2.415,-3.322 -2.844,-7.517c-0.146,-1.426 -0.13,-2.127 0.035,-1.558c0.165,0.569 0.936,1.968 1.71,3.1c6.052,8.908 12.002,23.35 16.126,39.143c3.212,12.3 5.1,17.107 6.71,17.107c0.754,0 2.066,-2.227 2.066,-3.506c0,-0.66 -0.467,-2.118 -1.04,-3.238c-0.573,-1.12 -1.366,-3.27 -1.766,-4.775c-0.807,-3.04 -3.128,-11.202 -5.175,-18.195c-1.874,-6.4 -5.482,-15.203 -8.854,-21.596c-1.576,-2.987 -2.865,-5.615 -2.865,-5.84c0,-0.66 3.27,-2.462 4.473,-2.464c1.33,-0.003 1.728,0.92 3.59,8.292c0.755,2.994 1.797,6.726 2.315,8.294c0.518,1.568 1.816,5.884 2.883,9.59c1.963,6.813 2.808,9.28 6.397,18.662c2.02,5.28 2.25,5.976 4.174,12.572c0.837,2.87 1.317,3.758 2.03,3.758c1.2,0 2.658,-1.606 2.627,-2.892c-0.026,-1.122 -2.795,-9.328 -6.283,-18.622c-3.202,-8.533 -4.076,-11.1 -4.543,-13.307c-0.22,-1.045 -0.91,-3.16 -1.535,-4.696c-0.625,-1.536 -2.19,-6.98 -3.48,-12.096l-2.6,-10.354c-0.24,-0.946 0.11,-1.118 3.41,-1.685c6.236,-1.07 6.56,-0.993 7.81,1.832c0.714,1.656 1.355,3.342 1.919,5.055c1.728,5.415 7.202,18.472 10.59,25.263c1.385,2.774 2.518,5.283 2.518,5.574c0,0.53 3.948,9.206 6.608,14.523c1.16,2.315 1.67,2.85 2.723,2.85c2.055,0 1.884,-1.83 -0.668,-7.14c-1.264,-2.63 -2.588,-5.716 -2.94,-6.856c-0.72,-2.332 -7.16,-16.775 -7.898,-17.715c-0.507,-0.648 -1.59,-3.438 -4.087,-10.538c-3.844,-10.926 -4.68,-13.595 -4.36,-13.915c0.19,-0.188 2.48,-0.393 5.094,-0.457c2.614,-0.064 6.47,-0.378 8.57,-0.7c3.106,-0.475 3.944,-0.453 4.495,0.116c0.685,0.708 3.87,11.047 3.87,12.564c0,0.453 0.706,3.1 1.568,5.885l2.032,6.875c1.38,5.397 2.1,7.792 3.125,10.368c0.623,1.568 1.444,4.017 1.823,5.443c0.379,1.426 1.653,5.275 2.828,8.554c3.58,9.987 4.86,11.724 6.947,9.42c1.104,-1.22 1.08,-1.935 -0.13,-3.916c-0.542,-0.89 -1.337,-2.783 -1.766,-4.208c-0.535,-1.712 -1.163,-3.394 -1.881,-5.038c-0.606,-1.346 -1.54,-4.145 -2.075,-6.22c-0.535,-2.075 -1.44,-4.857 -2.013,-6.18c-0.573,-1.323 -1.54,-4.238 -2.153,-6.48c-0.613,-2.242 -1.788,-6.292 -2.613,-9c-1.23,-4.043 -2.753,-9.938 -4.487,-17.378c-0.264,-1.133 1.573,-3.877 2.595,-3.877c0.576,0 5.31,6.592 8.977,12.502c3.773,6.08 10.413,22.166 13.887,33.636c2.882,9.523 4.728,12.094 6.68,9.308c0.715,-1.02 0.668,-1.426 -0.526,-4.566l-2.853,-7.852c-6.32,-18.066 -8.12,-22.725 -10.782,-27.895c-1.13,-2.193 -3.102,-5.387 -4.385,-7.097c-1.283,-1.71 -3.21,-4.81 -4.28,-6.883l-1.946,-3.772l0.946,-2.45c1.57,-4.06 2.234,-6.383 3.14,-11.002c0.796,-4.048 1.62,-7.834 2.877,-13.22c0.266,-1.14 0.866,-3.357 1.333,-4.925c0.467,-1.568 1.624,-5.768 2.57,-9.332c0.946,-3.564 2.104,-7.53 2.57,-8.812l3.983,-11.388c1.725,-4.98 3.464,-9.523 3.864,-10.095c0.4,-0.572 0.73,-1.323 0.73,-1.668c0,-0.345 0.27,-1.285 0.6,-2.088c0.33,-0.803 1.438,-3.895 2.462,-6.87c1.024,-2.975 2.12,-5.492 2.436,-5.59c0.348,-0.11 0.917,1.612 1.447,4.375c1.66,8.652 2.723,11.422 5.4,14.073c3.244,3.21 13.318,8.625 17.43,9.367c5.553,1 14.48,0.687 21.787,-0.768c7.48,-1.488 9.793,-2.482 13.014,-5.6c2.646,-2.553 5.928,-7.82 5.928,-9.516c0,-1.428 0.095,-1.442 2.23,-0.342c1.83,0.943 19.55,13.313 24.47,17.08c5.2,3.976 12.646,10.52 18.7,16.404c3.15,3.068 6.088,5.578 6.526,5.578c0.438,0 1.077,-0.616 1.42,-1.368c0.593,-1.303 0.456,-1.527 -2.898,-4.696c-5,-4.736 -17.002,-15.077 -20.37,-17.565c-1.568,-1.16 -5.067,-3.66 -7.776,-5.557l-8.813,-6.3l-8.24,-5.874l-4.35,-3.015l-0.078,-9.12c-0.077,-8.908 -0.1,-9.165 -1.43,-11.115c-0.743,-1.098 -1.523,-2.574 -1.734,-3.28c-0.617,-2.066 -8.388,-10.605 -12.1,-13.306c-2.664,-1.905 -5.36,-3.764 -8.088,-5.576c-2.566,-1.7 -5.532,-3.858 -6.59,-4.794c-1.058,-0.936 -3.11,-2.303 -4.557,-3.036c-1.447,-0.733 -4.853,-3.19 -7.57,-5.46c-2.717,-2.27 -5.408,-4.38 -5.984,-4.688c-0.576,-0.308 -1.39,-1.38 -1.81,-2.385c-0.696,-1.664 -0.673,-2.057 0.265,-4.494c0.565,-1.47 1.4,-4.07 1.857,-5.78c0.457,-1.71 1.155,-4.043 1.554,-5.184c1.477,-4.223 1.795,-5.252 2.566,-8.294c0.496,-1.979 0.956,-3.967 1.381,-5.962c1.18,-5.668 2.22,-9.603 2.7,-10.243c0.276,-0.36 0.53,-2.46 0.563,-4.666l0.062,-4.013l-2.592,-0.477c-1.426,-0.26 -2.68,-0.544 -2.787,-0.626c-0.107,-0.082 2.064,-4.352 4.826,-9.486c7.376,-13.712 8.87,-18.204 11.22,-33.734l0.982,-5.962c2.32,-12.773 2.33,-15.314 0.083,-20.477c-0.932,-2.138 -2.515,-6.915 -3.52,-10.614c-1.005,-3.699 -2.13,-7.316 -2.503,-8.035c-0.718,-1.4 -3.805,-11.248 -4.253,-13.58c-0.2,-0.99 0.044,-1.65 0.824,-2.32c0.6,-0.513 1.1,-1.233 1.1,-1.6c0,-0.367 -1.276,-3.32 -2.835,-6.564c-2.942,-6.12 -3.87,-9.066 -3.892,-12.355c-0.01,-1.62 -0.266,-2.062 -1.584,-2.743c-1.08,-0.558 -1.97,-1.718 -2.848,-3.7c-1.567,-3.543 -3.61,-9.9 -4.33,-13.464c-0.294,-1.46 -2.062,-5.833 -3.93,-9.715c-1.868,-3.882 -3.393,-7.207 -3.393,-7.39c0,-0.183 -0.97,-2.576 -2.153,-5.32c-1.183,-2.744 -2.45,-6.154 -2.813,-7.58c-0.363,-1.426 -1.465,-4.702 -2.448,-7.28c-0.983,-2.578 -2.18,-6.422 -2.662,-8.54c-0.482,-2.118 -1.123,-4.15 -1.425,-4.513c-0.71,-0.854 -2.562,-0.848 -3.74,0.012c-0.953,0.698 -3.535,10.413 -4.24,15.954c-0.196,1.547 -0.675,3.395 -1.064,4.108c-0.526,0.964 -0.808,5.344 -1.098,17.107l-0.39,15.812l-2.074,-0.143c-1.14,-0.08 -3.03,-0.39 -4.197,-0.693c-2.138,-0.554 -5,-0.243 -17.835,1.936c-2.842,0.471 -5.694,0.876 -8.554,1.216c-12.314,1.4 -25.816,5.233 -37.856,10.775c-10.128,4.662 -24.093,8.72 -24.093,7c0,-0.292 -0.47,-0.653 -1.045,-0.803c-1.104,-0.29 -3.046,-4.14 -6.197,-12.3l-3.013,-7.776c-6.113,-15.734 -15.794,-36.343 -19.347,-41.185c-0.826,-1.126 -1.502,-2.264 -1.502,-2.53c0,-0.452 -1.952,-2.873 -4.993,-6.194c-2.098,-2.3 -7.304,-4.666 -9.004,-4.11l-0.039,0.034Z" style="fill:#fff;"/><path d="M159.968,25.04c-0.428,0.14 -1.886,1.4 -3.24,2.802c-2.21,2.286 -2.463,2.79 -2.463,4.927c0,2.953 -1.48,10.533 -2.244,11.48c-0.3,0.386 -0.587,2.252 -0.614,4.147c-0.027,1.895 -0.668,7.294 -1.425,12c-1.733,10.775 -3.09,27.33 -2.935,35.77c0.067,3.565 -0.1,7.02 -0.372,7.68c-0.272,0.66 -0.328,2.515 -0.123,4.147c0.5,3.993 0.487,12.23 -0.022,15.33c-0.835,5.083 2.138,21.17 5.854,31.682c1.31,3.707 2.387,7.098 2.392,7.537c0.005,0.439 0.474,1.713 1.045,2.83c0.571,1.117 1.04,2.5 1.042,3.09c0.002,0.59 0.604,2.34 1.336,3.908c0.732,1.568 2.047,4.717 2.923,6.998c0.876,2.281 2.025,4.704 2.552,5.384c0.527,0.68 0.96,1.443 0.96,1.697c0,0.804 8.476,14.82 10.94,18.087l5.135,6.973c2.082,2.852 5.85,7.206 8.37,9.676c3.182,3.116 4.586,4.863 4.586,5.704c0,1.662 -1.874,8.083 -2.754,9.436c-0.395,0.608 -1.03,2.68 -1.4,4.604c-0.44,2.22 -0.944,3.5 -1.38,3.5c-0.38,0 -1.095,0.208 -1.6,0.463c-1.26,0.65 -5.733,1.53 -7.9,1.555c-2.938,0.035 -13.378,1.973 -18.22,3.382c-4.304,1.252 -13.92,4.926 -20.34,7.77c-3.873,1.716 -8.183,4.657 -13.29,9.072c-4.577,3.955 -8.388,6.13 -13.984,7.984c-6.433,2.13 -22.934,7.983 -24.996,8.867c-1.06,0.454 -2.047,0.825 -2.194,0.825c-0.147,0 -0.117,-1.08 0.064,-2.403c0.22,-1.606 0.146,-2.336 -0.223,-2.203c-0.454,0.164 -2.458,2.646 -6.077,7.523c-0.34,0.46 -0.297,0.893 0.133,1.323c0.853,0.852 3.3,0.184 12.435,-3.408c3.916,-1.54 8.987,-3.398 11.268,-4.13c9.73,-3.13 14.69,-4.923 17.34,-6.273l2.826,-1.437l1.19,1.487c0.654,0.818 1.19,1.65 1.193,1.85c0.01,1.634 12.088,14.377 17.29,18.243c2.82,2.095 9.253,4.46 12.166,4.473c4.7,0.02 14.464,1.987 16.69,3.362c0.395,0.244 -0.454,2.712 -2.85,8.292c-0.5,1.14 -0.96,2.147 -1.042,2.236c-0.082,0.089 -1.83,-0.68 -3.88,-1.714c-4.403,-2.217 -6.897,-2.328 -7.182,-0.32c-0.136,0.97 0.742,2.16 4.03,5.464l4.203,4.226l-0.593,1.793c-0.812,2.454 -4.977,12.98 -6.488,16.397c-1.66,3.75 -1.6,4.763 0.32,5.432c1.893,0.66 1.932,1.424 0.254,5.028c-1.474,3.167 -1.585,4.002 -0.578,4.388c0.76,0.292 1.233,0.082 6.672,-2.96l3.498,-1.956l3.89,1.9l-0.104,6.74c-0.057,3.707 -0.35,8.16 -0.65,9.9c-0.3,1.74 -0.77,5.703 -1.047,8.813c-1.186,13.342 -3.693,32.208 -4.747,35.72c-0.393,1.31 -0.638,6.173 -0.666,13.22c-0.043,10.88 0.2,13.627 2.054,22.29c0.394,1.854 0.992,5.236 1.327,7.517c0.335,2.281 0.82,4.556 1.073,5.055c0.623,1.22 2.566,1.146 3.957,-0.15c1.374,-1.28 1.438,-2.133 0.22,-2.893c-0.92,-0.575 -1.6,-3.115 -2.717,-10.306c-0.313,-1.996 -0.913,-5.495 -1.333,-7.776c-1.936,-10.525 -1.77,-17.278 0.79,-31.882c1.52,-8.68 2.563,-16.954 2.275,-18.056c-0.138,-0.527 0.106,-2.22 0.544,-3.763c0.438,-1.543 1.042,-5.605 1.343,-9.026c0.784,-8.878 3.122,-22.076 4.103,-23.16c0.477,-0.525 3.168,0.128 3.168,0.77c0,0.307 -0.642,1.23 -1.426,2.05c-1.42,1.487 -1.425,1.512 -1.396,8.84c0.03,7.567 0.82,12.885 3.595,24.2c0.664,2.708 1.48,6.674 1.815,8.813c0.335,2.139 0.815,4.707 1.07,5.71c0.255,1.003 0.947,5.434 1.54,9.85l2.083,15.287c1.847,13.297 1.846,13.23 0.256,17.196c-1.284,3.2 -1.443,4.328 -1.662,11.746c-0.2,6.442 -0.07,8.782 0.558,10.887c0.44,1.473 1.04,3.647 1.337,4.83c0.544,2.182 1.467,2.978 2.838,2.45c1.33,-0.5 1.402,-2.13 0.257,-5.745c-0.936,-2.955 -1.115,-4.773 -1.114,-11.298c0.003,-7.91 0.58,-11.574 2.44,-15.496c0.802,-1.688 0.787,-2.206 -0.258,-8.674c-0.61,-3.783 -1.2,-7.022 -1.308,-7.2c-0.108,-0.178 -0.453,-2.638 -0.765,-5.47l-0.806,-6.706c-0.132,-0.855 -0.494,-4.238 -0.804,-7.517c-0.31,-3.279 -1.035,-7.71 -1.6,-9.85c-1.394,-5.18 -3.517,-15.06 -4.064,-18.922c-0.243,-1.71 -0.7,-4.394 -0.995,-5.962c-0.295,-1.568 -0.562,-5.144 -0.573,-7.948c-0.018,-4.205 0.176,-5.505 1.107,-7.43c0.62,-1.283 1.428,-2.447 1.792,-2.586c0.364,-0.139 1.766,0.12 3.114,0.578c1.348,0.458 5.134,1.283 8.414,1.835c3.67,0.618 6.335,1.34 6.93,1.877c1.237,1.12 1.217,1.563 -0.082,1.903c-0.928,0.242 -1.018,0.587 -0.792,3.04c0.14,1.522 0.382,5.45 0.54,8.73c0.158,3.28 0.63,7.828 1.052,10.11c0.422,2.282 1.116,7.297 1.546,11.146l2.55,20.995c0.152,0.856 0.635,3.888 1.073,6.74c1.315,8.556 3.67,17.582 5.027,19.28c0.66,0.826 1.716,0.362 2.35,-1.034c0.505,-1.114 -0.103,-3.703 -2.813,-11.972c-0.458,-1.397 -0.893,-3.03 -0.966,-3.63c-0.073,-0.6 -0.412,-2.256 -0.75,-3.68c-0.385,-1.709 -0.666,-3.44 -0.84,-5.184l-0.442,-4.666l-0.788,-7.517c-0.313,-2.994 -1.02,-8.826 -1.575,-12.96c-1.365,-10.2 -1.662,-13.76 -1.732,-20.736c-0.07,-6.992 0.152,-7.202 4.025,-3.793c1.992,1.753 2.467,2.498 2.482,3.888c0.01,0.945 0.587,6.735 1.282,12.865l2.492,20.253c0.164,0.694 0.5,6.113 0.77,12.044c0.364,8.357 0.784,12.264 1.86,17.367l1.608,7.75c0.327,1.766 1.483,1.4 3.53,-1.1c2.06,-2.515 2.373,-3.964 0.854,-3.964c-1.158,0 -2.415,-3.322 -2.844,-7.517c-0.146,-1.426 -0.13,-2.127 0.035,-1.558c0.165,0.569 0.936,1.968 1.71,3.1c6.052,8.908 12.002,23.35 16.126,39.143c3.212,12.3 5.1,17.107 6.71,17.107c0.754,0 2.066,-2.227 2.066,-3.506c0,-0.66 -0.467,-2.118 -1.04,-3.238c-0.573,-1.12 -1.366,-3.27 -1.766,-4.775c-0.807,-3.04 -3.128,-11.202 -5.175,-18.195c-1.874,-6.4 -5.482,-15.203 -8.854,-21.596c-1.576,-2.987 -2.865,-5.615 -2.865,-5.84c0,-0.66 3.27,-2.462 4.473,-2.464c1.33,-0.003 1.728,0.92 3.59,8.292c0.755,2.994 1.797,6.726 2.315,8.294c0.518,1.568 1.816,5.884 2.883,9.59c1.963,6.813 2.808,9.28 6.397,18.662c2.02,5.28 2.25,5.976 4.174,12.572c0.837,2.87 1.317,3.758 2.03,3.758c1.2,0 2.658,-1.606 2.627,-2.892c-0.026,-1.122 -2.795,-9.328 -6.283,-18.622c-3.202,-8.533 -4.076,-11.1 -4.543,-13.307c-0.22,-1.045 -0.91,-3.16 -1.535,-4.696c-0.625,-1.536 -2.19,-6.98 -3.48,-12.096l-2.6,-10.354c-0.24,-0.946 0.11,-1.118 3.41,-1.685c6.236,-1.07 6.56,-0.993 7.81,1.832c0.714,1.656 1.355,3.342 1.919,5.055c1.728,5.415 7.202,18.472 10.59,25.263c1.385,2.774 2.518,5.283 2.518,5.574c0,0.53 3.948,9.206 6.608,14.523c1.16,2.315 1.67,2.85 2.723,2.85c2.055,0 1.884,-1.83 -0.668,-7.14c-1.264,-2.63 -2.588,-5.716 -2.94,-6.856c-0.72,-2.332 -7.16,-16.775 -7.898,-17.715c-0.507,-0.648 -1.59,-3.438 -4.087,-10.538c-3.844,-10.926 -4.68,-13.595 -4.36,-13.915c0.19,-0.188 2.48,-0.393 5.094,-0.457c2.614,-0.064 6.47,-0.378 8.57,-0.7c3.106,-0.475 3.944,-0.453 4.495,0.116c0.685,0.708 3.87,11.047 3.87,12.564c0,0.453 0.706,3.1 1.568,5.885l2.032,6.875c1.38,5.397 2.1,7.792 3.125,10.368c0.623,1.568 1.444,4.017 1.823,5.443c0.379,1.426 1.653,5.275 2.828,8.554c3.58,9.987 4.86,11.724 6.947,9.42c1.104,-1.22 1.08,-1.935 -0.13,-3.916c-0.542,-0.89 -1.337,-2.783 -1.766,-4.208c-0.535,-1.712 -1.163,-3.394 -1.881,-5.038c-0.606,-1.346 -1.54,-4.145 -2.075,-6.22c-0.535,-2.075 -1.44,-4.857 -2.013,-6.18c-0.573,-1.323 -1.54,-4.238 -2.153,-6.48c-0.613,-2.242 -1.788,-6.292 -2.613,-9c-1.23,-4.043 -2.753,-9.938 -4.487,-17.378c-0.264,-1.133 1.573,-3.877 2.595,-3.877c0.576,0 5.31,6.592 8.977,12.502c3.773,6.08 10.413,22.166 13.887,33.636c2.882,9.523 4.728,12.094 6.68,9.308c0.715,-1.02 0.668,-1.426 -0.526,-4.566l-2.853,-7.852c-6.32,-18.066 -8.12,-22.725 -10.782,-27.895c-1.13,-2.193 -3.102,-5.387 -4.385,-7.097c-1.283,-1.71 -3.21,-4.81 -4.28,-6.883l-1.946,-3.772l0.946,-2.45c1.57,-4.06 2.234,-6.383 3.14,-11.002c0.796,-4.048 1.62,-7.834 2.877,-13.22c0.266,-1.14 0.866,-3.357 1.333,-4.925c0.467,-1.568 1.624,-5.768 2.57,-9.332c0.946,-3.564 2.104,-7.53 2.57,-8.812l3.983,-11.388c1.725,-4.98 3.464,-9.523 3.864,-10.095c0.4,-0.572 0.73,-1.323 0.73,-1.668c0,-0.345 0.27,-1.285 0.6,-2.088c0.33,-0.803 1.438,-3.895 2.462,-6.87c1.024,-2.975 2.12,-5.492 2.436,-5.59c0.348,-0.11 0.917,1.612 1.447,4.375c1.66,8.652 2.723,11.422 5.4,14.073c3.244,3.21 13.318,8.625 17.43,9.367c5.553,1 14.48,0.687 21.787,-0.768c7.48,-1.488 9.793,-2.482 13.014,-5.6c2.646,-2.553 5.928,-7.82 5.928,-9.516c0,-1.428 0.095,-1.442 2.23,-0.342c1.83,0.943 19.55,13.313 24.47,17.08c5.2,3.976 12.646,10.52 18.7,16.404c3.15,3.068 6.088,5.578 6.526,5.578c0.438,0 1.077,-0.616 1.42,-1.368c0.593,-1.303 0.456,-1.527 -2.898,-4.696c-5,-4.736 -17.002,-15.077 -20.37,-17.565c-1.568,-1.16 -5.067,-3.66 -7.776,-5.557l-8.813,-6.3l-8.24,-5.874l-4.35,-3.015l-0.078,-9.12c-0.077,-8.908 -0.1,-9.165 -1.43,-11.115c-0.743,-1.098 -1.523,-2.574 -1.734,-3.28c-0.617,-2.066 -8.388,-10.605 -12.1,-13.306c-2.664,-1.905 -5.36,-3.764 -8.088,-5.576c-2.566,-1.7 -5.532,-3.858 -6.59,-4.794c-1.058,-0.936 -3.11,-2.303 -4.557,-3.036c-1.447,-0.733 -4.853,-3.19 -7.57,-5.46c-2.717,-2.27 -5.408,-4.38 -5.984,-4.688c-0.576,-0.308 -1.39,-1.38 -1.81,-2.385c-0.696,-1.664 -0.673,-2.057 0.265,-4.494c0.565,-1.47 1.4,-4.07 1.857,-5.78c0.457,-1.71 1.155,-4.043 1.554,-5.184c1.477,-4.223 1.795,-5.252 2.566,-8.294c0.496,-1.979 0.956,-3.967 1.381,-5.962c1.18,-5.668 2.22,-9.603 2.7,-10.243c0.276,-0.36 0.53,-2.46 0.563,-4.666l0.062,-4.013l-2.592,-0.477c-1.426,-0.26 -2.68,-0.544 -2.787,-0.626c-0.107,-0.082 2.064,-4.352 4.826,-9.486c7.376,-13.712 8.87,-18.204 11.22,-33.734l0.982,-5.962c2.32,-12.773 2.33,-15.314 0.083,-20.477c-0.932,-2.138 -2.515,-6.915 -3.52,-10.614c-1.005,-3.699 -2.13,-7.316 -2.503,-8.035c-0.718,-1.4 -3.805,-11.248 -4.253,-13.58c-0.2,-0.99 0.044,-1.65 0.824,-2.32c0.6,-0.513 1.1,-1.233 1.1,-1.6c0,-0.367 -1.276,-3.32 -2.835,-6.564c-2.942,-6.12 -3.87,-9.066 -3.892,-12.355c-0.01,-1.62 -0.266,-2.062 -1.584,-2.743c-1.08,-0.558 -1.97,-1.718 -2.848,-3.7c-1.567,-3.543 -3.61,-9.9 -4.33,-13.464c-0.294,-1.46 -2.062,-5.833 -3.93,-9.715c-1.868,-3.882 -3.393,-7.207 -3.393,-7.39c0,-0.183 -0.97,-2.576 -2.153,-5.32c-1.183,-2.744 -2.45,-6.154 -2.813,-7.58c-0.363,-1.426 -1.465,-4.702 -2.448,-7.28c-0.983,-2.578 -2.18,-6.422 -2.662,-8.54c-0.482,-2.118 -1.123,-4.15 -1.425,-4.513c-0.71,-0.854 -2.562,-0.848 -3.74,0.012c-0.953,0.698 -3.535,10.413 -4.24,15.954c-0.196,1.547 -0.675,3.395 -1.064,4.108c-0.526,0.964 -0.808,5.344 -1.098,17.107l-0.39,15.812l-2.074,-0.143c-1.14,-0.08 -3.03,-0.39 -4.197,-0.693c-2.138,-0.554 -5,-0.243 -17.835,1.936c-2.842,0.471 -5.694,0.876 -8.554,1.216c-12.314,1.4 -25.816,5.233 -37.856,10.775c-10.128,4.662 -24.093,8.72 -24.093,7c0,-0.292 -0.47,-0.653 -1.045,-0.803c-1.104,-0.29 -3.046,-4.14 -6.197,-12.3l-3.013,-7.776c-6.113,-15.734 -15.794,-36.343 -19.347,-41.185c-0.826,-1.126 -1.502,-2.264 -1.502,-2.53c0,-0.452 -1.952,-2.873 -4.993,-6.194c-2.098,-2.3 -7.304,-4.666 -9.004,-4.11m6.69,8.262c3.98,4.16 7.37,8.67 9.46,12.578l2.253,4.148c1.55,2.752 5.813,12.3 6.142,13.76l0.347,1.532l-1.504,-1.728c-0.828,-0.95 -2.274,-3.283 -3.213,-5.184c-0.939,-1.901 -2.115,-3.922 -2.61,-4.492c-0.495,-0.57 -2.472,-4.187 -4.392,-8.036c-4.812,-9.646 -6.507,-12.194 -8.94,-13.436c-2.222,-1.133 -3.226,-2.634 -1.762,-2.634c0.485,0 2.385,1.572 4.222,3.492m13.666,33.444c1.398,2.418 3.643,8.165 3.2,8.165c-0.3,0 -4.885,-9.442 -4.885,-10.04c0,-0.75 0.49,-0.207 1.695,1.874m7.792,4.925c0.457,1.07 1.912,4.743 3.234,8.165c4.43,11.465 6.35,16.083 7.503,18.038c1.083,1.834 1.124,2.538 0.272,4.602c-0.243,0.587 -0.013,1.052 0.712,1.44c1.344,0.72 11.228,-0.875 15.858,-2.558c1.71,-0.622 3.883,-1.36 4.826,-1.64c2.08,-0.617 11.624,-4.452 15.9,-6.394c6.93,-3.14 13.66,-5.106 23.847,-6.967c3.538,-0.647 24.135,-3.96 27.864,-4.48c2.46,-0.344 3.032,0.033 1.85,1.216c-1.112,1.112 0.04,1.325 3.592,0.664c1.926,-0.36 4.318,-0.57 5.315,-0.472c1.72,0.17 1.842,0.314 2.358,2.772c0.477,2.273 0.718,2.612 1.956,2.756c1.015,0.12 2.12,-0.398 3.93,-1.84c2.148,-1.7 3.73,-2.44 7.698,-3.554c0.357,-0.1 0.65,-0.597 0.65,-1.105c0.001,-0.708 1.098,-1.27 4.708,-2.4c2.588,-0.818 4.875,-1.285 5.08,-1.037c0.205,0.248 0.668,1.617 1.026,3.042c0.358,1.425 1.21,3.875 1.89,5.444c5.01,11.518 6.702,16.873 9.094,28.8c0.232,1.157 0.64,2.674 0.906,3.37c0.266,0.696 1.002,3.015 1.636,5.154c1.18,3.985 1.617,5.326 4.213,12.96c1.008,3.006 1.958,6.03 2.851,9.072c0.743,2.566 2.063,6.478 2.934,8.694l1.583,4.028l-0.864,6.6c-1.66,12.678 -3.887,24.04 -6.002,30.62c-1.422,4.422 -4.856,11.792 -8.133,17.45c-0.826,1.426 -1.964,3.504 -2.53,4.618c-0.566,1.114 -2.204,3.33 -3.64,4.925c-1.436,1.595 -3.016,3.54 -3.51,4.325c-0.494,0.785 -1.214,1.425 -1.6,1.425c-0.386,0 -2.303,1.323 -4.264,2.94c-8.045,6.63 -22.237,14.923 -31.82,18.59c-2.708,1.036 -5.425,2.204 -6.036,2.595c-2.287,1.462 -8.012,2.403 -12.626,2.074c-7.562,-0.537 -8.213,-0.707 -8.394,-2.18c-0.142,-1.152 -0.874,-1.57 -6.38,-3.64c-5.885,-2.2 -8.895,-3.126 -19.987,-6.076c-5.333,-1.42 -11.687,-4.026 -14.746,-6.05c-1.426,-0.92 -2.896,-1.769 -4.406,-2.543c-1.283,-0.645 -3.85,-2.28 -5.703,-3.635c-1.853,-1.355 -4.07,-2.822 -4.924,-3.26c-0.854,-0.438 -2.575,-1.714 -3.82,-2.836c-1.985,-1.787 -2.193,-2.172 -1.684,-3.123c0.802,-1.498 0.726,-3.577 -0.142,-3.91c-0.397,-0.152 -1.67,0.193 -2.83,0.766l-2.108,1.043l-1.9,-1.442c-2.324,-1.772 -7.307,-7.537 -11.114,-12.856l-4.726,-6.42c-3.114,-4.047 -11.343,-18.552 -13.548,-23.88c-2.302,-5.566 -6.09,-16.424 -6.09,-17.46c0,-0.368 -0.5,-1.796 -1.11,-3.174c-1.02,-2.305 -3.8,-12.51 -5.268,-19.354c-0.337,-1.568 -0.593,-5.767 -0.57,-9.33l0.14,-24.106c0.123,-22.46 0.514,-25.678 2.14,-17.626c0.672,3.33 4.088,10.46 5.716,11.934c2.148,1.944 3.983,-0.562 4.376,-5.978c0.367,-5.07 0.855,-8.29 1.254,-8.286c0.177,0.001 1.563,2.45 3.08,5.443c2.804,5.527 3.8,6.43 5.244,4.7c0.48,-0.58 0.423,-1.1 -0.26,-2.433c-1.19,-2.302 -3.283,-8.34 -4.2,-12.12l-1.043,-4.277c-0.707,-2.84 0.848,-0.705 3.298,4.536c2.564,5.485 3.95,7.124 4.823,5.71c0.226,-0.365 0.2,-1.4 -0.035,-2.28c-0.422,-1.53 -0.403,-1.56 0.358,-0.578c0.443,0.57 2.187,3.777 3.876,7.128c1.689,3.351 3.283,6.09 3.543,6.09c1.016,0 2.112,-0.66 2.112,-1.273c0,-0.355 -0.838,-2.223 -1.86,-4.152c-2.055,-3.87 -1.632,-4.106 0.862,-0.48c1.665,2.42 2.764,2.742 3.79,1.112c0.424,-0.674 0.397,-1.18 -0.106,-1.987c-0.486,-0.778 -0.584,-2.2 -0.35,-5.057c0.24,-2.912 0.11,-4.666 -0.48,-6.565c-0.88,-2.823 -1.08,-5.962 -0.38,-5.962c0.242,0 0.814,0.875 1.27,1.944m134.465,1.782c-0.165,0.413 -0.288,0.3 -0.313,-0.313c-0.022,-0.547 0.1,-0.853 0.272,-0.68c0.172,0.173 0.19,0.62 0.04,0.994m-157.267,1.612c0.17,0.64 0.307,1.633 0.3,2.203c-0.01,0.92 -0.095,0.9 -0.752,-0.26c-0.838,-1.466 -1.007,-3.11 -0.32,-3.11c0.252,0 0.6,0.525 0.77,1.167m142.075,6.446c1.335,1.965 1.106,3.274 -0.573,3.274c-0.912,0 -2.35,-3.27 -1.924,-4.378c0.478,-1.243 1.083,-0.975 2.497,1.104m-146.88,5.8c0.475,0.497 -0.094,4.732 -0.636,4.732c-0.503,0 -3.563,-4.56 -3.563,-5.31c0,-0.472 3.68,0.033 4.2,0.577m133.178,26.815c-3.633,1.312 -4.836,2.132 -5.954,4.063c-4.4,7.613 -3.467,19.56 1.778,22.507c1.092,0.614 2.555,1.116 3.253,1.116c1.272,0 8.04,-3.438 10.008,-5.083c2.23,-1.865 3.783,-4.493 3.777,-6.39c-0.003,-1.034 0.246,-2.35 0.553,-2.925c1.35,-2.52 -2.24,-9.31 -6.265,-11.85c-2.108,-1.332 -5.537,-2.02 -7.15,-1.44m-43.027,5.85c-0.857,0.234 -1.46,0.902 -1.778,1.97c-0.316,1.06 -1.062,1.895 -2.173,2.424c-3.4,1.622 -3.26,3.705 0.274,4.05c1.603,0.156 1.843,0.407 2.653,2.764c2.867,8.342 3.057,8.702 6.02,11.372c4.72,4.254 6.68,4.714 12.184,2.86l3.15,-1.06l1.927,2.087c1.06,1.148 2.798,2.45 3.863,2.896c1.837,0.767 2.058,0.75 4.296,-0.37c2.742,-1.37 3.28,-2.458 3.28,-6.648c0,-1.678 0.257,-3.618 0.573,-4.31c0.7,-1.56 -0.528,-4.494 -2.575,-6.104c-1.985,-1.562 -4.03,-0.98 -6.552,1.87c-1.14,1.288 -2.248,2.34 -2.462,2.337c-0.214,-0.003 -0.39,-2.12 -0.39,-4.704c0,-2.584 -0.236,-5.14 -0.525,-5.68c-0.636,-1.188 -4.55,-2.99 -7.462,-3.437c-1.167,-0.18 -3.076,-0.876 -4.24,-1.548c-1.665,-0.962 -2.83,-1.212 -5.443,-1.17c-1.83,0.028 -3.908,0.2 -4.62,0.404m17.607,7.804c0.295,0.552 0.532,1.427 0.525,1.944c-0.01,0.792 -0.172,0.736 -1.025,-0.355c-1.094,-1.398 -1.34,-2.592 -0.537,-2.592c0.275,0 0.742,0.45 1.037,1.003m0.03,12.975c-0.984,1.837 -2.918,2.765 -4.967,2.38c-2.365,-0.444 -2.072,-1.308 0.722,-2.133c2.867,-0.846 3.716,-1.604 3.716,-3.316c0,-0.773 0.175,-1.583 0.39,-1.8c0.63,-0.64 0.757,3.715 0.14,4.868m23.214,-3.506c0.75,0.75 0.81,1.452 0.122,1.452c-0.275,0 -0.75,-0.467 -1.055,-1.037c-0.612,-1.142 -0.046,-1.394 0.933,-0.415m-32.528,2.23c-0.04,0.77 -1.2,0.63 -1.47,-0.18c-0.145,-0.436 0.092,-0.63 0.632,-0.52c0.476,0.1 0.853,0.413 0.838,0.698m7.088,25.475c-0.15,0.245 -0.438,6.044 -0.64,12.887c-0.42,14.3 0.112,21.016 1.997,25.26c1.896,4.27 7.143,8.863 13.956,12.22c7.348,3.622 9.225,4.244 13.887,4.606c8.008,0.62 10.564,-2.13 11.895,-12.795c0.23,-1.853 0.656,-4.07 0.944,-4.925c2.098,-6.234 3.418,-12.996 2.9,-14.81c-0.577,-1.984 -1.387,-2.036 -1.86,-0.12c-0.197,0.798 -0.83,2.735 -1.41,4.303c-0.58,1.568 -1.057,3.34 -1.067,3.936c-0.01,0.596 -0.492,2.464 -1.072,4.147c-0.58,1.683 -1.53,5.395 -2.107,8.247l-1.29,5.96c-1.4,4.53 -8.198,4.347 -17.7,-0.48c-6.655,-3.38 -8.924,-4.966 -11.41,-7.977c-2.486,-3.011 -3.198,-5.212 -3.868,-12c-0.61,-6.176 -0.59,-4.665 -0.2,-15.805c0.25,-6.92 0.517,-9.347 1.137,-10.294c0.5,-0.763 0.627,-1.423 0.33,-1.72c-0.68,-0.68 -4.093,-1.168 -4.422,-0.63m69.854,66.14c-0.207,1.776 -0.714,4.167 -1.13,5.314c-0.416,1.147 -1.193,4.535 -1.73,7.53c-0.537,2.995 -2.095,8.825 -3.46,12.96l-2.48,7.517l-1.76,0.26c-2.65,0.4 -3.106,1.553 -1.723,4.4c1.452,2.988 1.45,3.018 -0.346,7.88c-0.823,2.228 -1.757,5.1 -2.076,6.383l-2.608,10.11c-1.115,4.277 -2.532,10.45 -3.148,13.715c-0.916,4.862 -1.386,6.242 -2.59,7.612c-1.344,1.53 -1.447,1.93 -1.207,4.69c0.23,2.64 -0.09,4.112 -2.578,11.828c-1.562,4.847 -3.702,11.03 -4.756,13.737c-2.773,7.13 -7.682,21.363 -9.028,26.18c-1.988,7.107 -4.107,15.22 -6.3,24.106c-4.236,17.175 -4.835,18.413 -9.386,19.395c-1.803,0.388 -2.496,-0.52 -3.228,-4.226c-0.522,-2.644 -0.744,-3.005 -1.93,-3.143c-2.134,-0.248 -2.597,0.792 -2,4.494c0.286,1.776 0.382,3.45 0.215,3.722c-0.167,0.272 -1.108,0.494 -2.09,0.494c-1.305,0 -1.784,-0.228 -1.784,-0.847c0,-1.305 1.148,-4.996 1.9,-6.138c0.375,-0.562 0.682,-1.54 0.682,-2.172c0,-0.632 0.2,-1.274 0.446,-1.426c0.246,-0.152 0.846,-1.74 1.334,-3.53c2.462,-9.026 5.55,-14.92 11.573,-22.103c1.52,-1.814 2.678,-3.564 2.57,-3.888c-0.366,-1.113 -2.404,-0.916 -4.37,0.423c-2.898,1.977 -2.82,0.61 0.258,-4.522c1.41,-2.347 2.72,-4.772 2.91,-5.388c0.19,-0.616 0.7,-1.402 1.107,-1.748c0.407,-0.346 0.758,-1.1 0.758,-1.674c0,-0.574 0.7,-2.183 1.555,-3.573c0.855,-1.39 1.555,-2.986 1.555,-3.545c0,-1.518 2.42,-7.657 3.62,-9.18c0.575,-0.732 1.052,-1.94 1.058,-2.687c0.006,-0.747 0.49,-2.405 1.073,-3.688c0.93,-2.045 3.463,-9.114 7.243,-20.218c0.63,-1.853 1.565,-4.303 2.078,-5.443c0.605,-1.426 1.09,-2.9 1.451,-4.407c0.895,-4.002 1.09,-4.79 2.422,-9.82c0.713,-2.694 1.616,-5.26 2.007,-5.703c0.391,-0.443 0.828,-1.738 0.972,-2.88c0.144,-1.142 0.54,-3.007 0.882,-4.147c0.342,-1.14 0.74,-2.83 0.887,-3.754c0.156,-0.983 1,-2.39 2.03,-3.392l1.763,-1.712l-0.596,-2.97c-0.493,-2.453 -0.46,-3.306 0.18,-4.903c1.85,-4.6 2.15,-5.725 2.277,-8.594c0.075,-1.667 0.463,-3.417 0.863,-3.888c0.4,-0.471 1.156,-2.49 1.68,-4.484c0.967,-3.68 2.948,-6.48 4.584,-6.48c0.864,0 1.624,-1.763 1.114,-2.587c-0.177,-0.288 -0.66,-0.523 -1.07,-0.523c-0.92,0 -0.974,0.45 0.502,-4.147c3.36,-10.46 4.417,-12.442 6.637,-12.442l1.547,0l-0.374,3.228m-134.99,-0.247l3.703,2.853c1.15,0.886 1.098,0.9 -2.2,0.59c-3.61,-0.34 -5.702,-1.29 -5.702,-2.58c0,-0.912 0.924,-2.805 1.37,-2.805c0.163,0 1.432,0.875 2.82,1.944m124.345,5.37c-0.304,0.567 -1.178,1.268 -1.943,1.56c-0.765,0.292 -2.02,1.292 -2.79,2.225c-1.953,2.37 -9.254,7.572 -14.456,10.302c-6.657,3.492 -11.563,6.3 -14.047,8.042c-1.96,1.374 -3.1,1.684 -8.88,2.442c-3.65,0.477 -6.99,0.73 -7.42,0.565c-1.388,-0.532 -0.275,-1.238 2.52,-1.6c5.38,-0.696 24.118,-8.944 30.69,-13.51c1.724,-1.197 4.068,-2.658 5.208,-3.246c1.14,-0.588 4.057,-2.68 6.48,-4.65c4.336,-3.523 5.722,-4.16 4.636,-2.13m-123.67,2.257c-0.635,0.465 -0.772,1.024 -0.507,2.078c0.3,1.2 0.22,1.387 -0.484,1.117c-0.466,-0.178 -1.053,-0.324 -1.305,-0.324c-0.717,0 -1.56,-1.914 -1.226,-2.784c0.3,-0.782 2.467,-1.322 3.728,-0.93c0.485,0.15 0.43,0.378 -0.206,0.842m9.732,1.1c3.676,0.836 10.174,3.555 12.102,5.063c1.018,0.797 1.013,0.812 -0.26,0.8c-2.353,-0.003 -7.73,-1.37 -9.19,-2.338c-0.8,-0.523 -2.706,-1.72 -4.257,-2.66c-3.256,-1.97 -3.243,-1.98 1.605,-0.876m-9.41,8.76c3.64,1.906 3.11,2.33 -1.2,0.958c-3.032,-0.966 -4.106,-1.64 -3.7,-2.313c0.462,-0.748 1.334,-0.506 4.89,1.355m45.62,1.68c5.157,1.72 6.12,2.353 2.96,1.943c-2.715,-0.352 -7.168,-1.77 -9.507,-3.026l-1.49,-0.8l2.073,0.292c1.14,0.16 3.824,0.877 5.962,1.59m-17.626,-0.275c1.57,0.416 4.488,1.587 6.49,2.603c2.002,1.016 5.733,2.51 8.294,3.326c3.62,1.15 4.326,1.518 3.17,1.65c-3.068,0.35 -10.42,-0.987 -13.546,-2.465c-7.76,-3.666 -8.96,-4.185 -9.7,-4.185c-0.427,0 -1.22,-0.493 -1.764,-1.094l-0.988,-1.095l2.592,0.252c1.426,0.138 3.875,0.592 5.443,1.008m-43.376,1.753c-0.15,3.537 -2.044,8.384 -4.353,11.142c-1.177,1.406 -2.598,3.762 -3.158,5.236c-0.938,2.47 -0.972,3.12 -0.42,8.33c0.57,5.4 0.426,8.164 -0.428,8.164c-0.218,0 -0.66,-0.7 -0.982,-1.555c-0.322,-0.855 -0.957,-1.555 -1.4,-1.555c-1.015,0 -1.1,3.245 -0.234,8.002c0.71,3.843 -0.136,6.22 -2.22,6.24c-1.024,0.01 -1.194,0.242 -1.054,1.438c0.208,1.778 -0.54,1.83 -5.736,0.39c-2.057,-0.57 -5.067,-1.037 -6.687,-1.037c-3.722,0 -10.213,-1.226 -12.462,-2.355c-2.12,-1.064 -16.06,-15.2 -18.11,-18.353c-2.474,-3.816 -1.843,-6.08 2.73,-9.8c3.3,-2.684 5.156,-3.692 12.364,-6.71c13.387,-5.607 24.818,-8.846 31.622,-8.96c1.822,-0.048 3.64,-0.202 5.444,-0.463c1.425,-0.228 3.175,-0.382 3.888,-0.343c1.175,0.064 1.287,0.268 1.206,2.19m19.53,6.266c11.197,4.857 14.432,5.968 25.57,8.78c2.47,0.624 3.304,1.025 2.763,1.327c-0.425,0.238 -1.318,0.45 -1.982,0.473c-2.62,0.086 -12.435,-2.684 -16.71,-4.716c-4.378,-2.08 -4.56,-2.12 -5.84,-1.28c-1.365,0.895 -1.9,0.874 -7.428,-0.294l-3.97,-0.804c-0.962,-0.175 -1.148,-0.622 -1.328,-3.187c-0.114,-1.64 -0.116,-3.167 -0.004,-3.393c0.28,-0.56 1.425,-0.16 8.93,3.094m93.952,0.21c-0.98,0.874 -2.28,1.512 -3.084,1.512c-1.77,0 -1.05,-0.813 2.064,-2.332c2.81,-1.37 3.158,-1.1 1.02,0.82m15.266,3.395c-1.26,2.814 -2.453,5.64 -2.653,6.282c-0.2,0.642 -0.605,1.166 -0.9,1.166c-0.302,0 -0.384,-0.398 -0.186,-0.907c0.194,-0.5 0.607,-2.2 0.918,-3.76c0.311,-1.56 1,-3.434 1.532,-4.147c2.01,-2.692 3.23,-4.1 3.402,-3.928c0.098,0.098 -0.853,2.48 -2.112,5.293m-124.278,-0.667c0.737,2.233 0.253,3.45 -1.37,3.45c-1.224,0 -1.27,-0.105 -0.922,-2.203c0.596,-3.598 1.377,-4.022 2.293,-1.246m71.967,2.237c1.522,0.18 2.58,0.512 2.35,0.74c-0.23,0.228 -2.495,0.67 -5.032,0.986c-4.436,0.55 -4.76,0.518 -8.424,-0.818c-2.096,-0.765 -3.8,-1.51 -3.8,-1.658c0,-0.296 10.52,0.234 14.916,0.75m31.22,-0.055c0,0.41 -4.702,2.44 -4.99,2.153c-0.372,-0.372 3.07,-2.422 4.082,-2.432c0.5,-0.005 0.907,0.12 0.907,0.28m8.4,4.412c-1.627,2.584 -5.376,7.892 -8.33,11.793c-6.185,8.165 -6.178,8.157 -6.562,7.773c-0.16,-0.16 0.307,-0.998 1.037,-1.866c1.287,-1.528 3.9,-6.846 3.9,-7.934c0,-0.854 2.56,-4.07 6.146,-7.727c1.82,-1.853 3.9,-4.127 4.603,-5.054c2.563,-3.328 2.106,-1.594 -0.793,3.015m-19.287,-3.187c0,0.262 -0.786,0.962 -1.746,1.555c-1.442,0.892 -2.588,1.08 -6.584,1.08c-6.23,0 -5.613,-0.764 1.644,-2.032c6.762,-1.18 6.686,-1.174 6.686,-0.602m17.107,0.063c0,0.297 -0.99,1.473 -2.203,2.615c-4.413,4.157 -5.55,3.782 -1.53,-0.503c2.367,-2.52 3.732,-3.294 3.732,-2.112m7.258,3.837c0,0.126 -0.233,0.373 -0.518,0.55c-0.285,0.177 -0.52,0.073 -0.52,-0.23c0,-0.303 0.233,-0.55 0.52,-0.55c0.287,0 0.518,0.103 0.518,0.23m-105.73,1.867c0,0.687 -0.702,0.628 -1.452,-0.122c-0.98,-0.98 -0.727,-1.544 0.415,-0.933c0.57,0.305 1.037,0.78 1.037,1.055m7.516,-0.018c0.177,0.285 0.088,0.518 -0.198,0.518c-0.286,0 -0.662,-0.233 -0.838,-0.518c-0.176,-0.285 -0.087,-0.52 0.198,-0.52c0.285,0 0.662,0.234 0.838,0.52m80.094,0.24c0,0.133 -0.724,1.066 -1.61,2.074c-1.714,1.95 -2.902,2.32 -3.388,1.054c-0.164,-0.427 -0.798,-0.777 -1.41,-0.777c-1.083,0 -4.4,3.972 -6.84,8.165c-0.536,0.927 -1.134,1.685 -1.327,1.685c-0.747,0 -0.836,-1.407 -0.165,-2.618c0.387,-0.7 0.71,-2.7 0.722,-4.424c0.012,-1.724 0.158,-3.294 0.33,-3.466c0.172,-0.172 0.833,-0.115 1.47,0.127c0.777,0.296 2.677,0.05 5.78,-0.746c4.733,-1.215 6.436,-1.5 6.436,-1.074m-17.835,0.998c0.152,0.396 -0.79,2.848 -2.097,5.447l-2.374,4.727l-1.937,-0.8l-6.602,-2.673c-5.013,-2 -7,-3.397 -7,-4.923c0,-0.896 0.102,-0.908 1.53,-0.17c2.087,1.08 3.112,0.995 4.567,-0.376c1.084,-1.02 1.967,-1.203 7.032,-1.46l6.198,-0.39c0.223,-0.053 0.53,0.23 0.682,0.625m-24.156,1.45c0,0.682 -1.178,0.255 -1.436,-0.52c-0.127,-0.38 0.11,-0.494 0.615,-0.3c0.452,0.174 0.82,0.543 0.82,0.82m-27.475,2.62c0,0.652 -2.332,0.07 -3.942,-0.986c-2.123,-1.39 -1.366,-1.725 1.35,-0.596c1.425,0.592 2.592,1.304 2.592,1.582m-9.59,0.48c6.38,1.746 11.79,3.958 11.363,4.647c-0.154,0.25 -0.86,0.31 -1.566,0.132c-0.706,-0.178 -3.318,0.095 -5.8,0.606c-3.985,0.82 -4.74,1.16 -6.438,2.912c-1.058,1.092 -2.044,1.984 -2.192,1.984c-0.717,0 -2.075,-3.026 -3.383,-7.54l-1.447,-4.994l1.88,0.346c1.034,0.2 4.446,1.048 7.582,1.906m31.067,-1.436c2.5,0.867 4.608,3.423 2.837,3.423c-0.577,0 -6.688,-3.62 -6.688,-3.962c0,-0.402 1.918,-0.134 3.85,0.54m72.628,2.334c-0.738,2.795 -1.11,3.534 -1.56,3.086c-0.138,-0.138 0.212,-1.514 0.777,-3.06c0.565,-1.546 1.027,-2.91 1.027,-3.034c0,-0.124 0.108,-0.115 0.24,0.017c0.132,0.132 -0.086,1.478 -0.485,2.99m16.98,1.59l5.558,4.32c1.568,1.246 8.11,5.784 14.54,10.084c20.338,13.602 25.894,20.864 25.894,33.847c0,2.46 -0.136,4.607 -0.302,4.773c-0.166,0.166 -1.49,-0.25 -2.94,-0.92c-2.894,-1.34 -4.534,-1.05 -4.534,0.802c0,0.712 0.89,1.46 3.012,2.532c4.437,2.24 4.506,2.392 3.16,6.875c-1.586,5.278 -4.433,8.16 -9.54,9.66c-7.182,2.107 -10.044,2.44 -19.87,2.313l-9.502,-0.124l-5.013,-2.82c-2.757,-1.552 -5.85,-3.595 -6.875,-4.542c-2.315,-2.14 -3.844,-6.103 -4.91,-12.724c-0.815,-5.06 -1.393,-6.728 -2.656,-7.66c-1.057,-0.78 -0.936,-3.668 0.348,-8.293c0.634,-2.28 1.56,-6.83 2.062,-10.11c0.502,-3.28 1.262,-6.898 1.693,-8.042c0.431,-1.144 0.953,-3.127 1.157,-4.406c0.273,-1.572 0.632,-3.127 1.078,-4.659c0.387,-1.283 0.972,-3.383 1.298,-4.666c0.326,-1.283 0.922,-3.1 1.322,-4.035c0.4,-0.935 0.728,-2.122 0.728,-2.635c0,-2.208 0.942,-2.113 4.292,0.43m-146.233,2.74c-0.105,1.924 -0.406,3.5 -0.67,3.5c-0.273,0 -0.347,-1.282 -0.17,-2.98c0.567,-5.51 1.13,-5.858 0.84,-0.518m66.04,-3.02c1.344,0.942 4.094,4.884 3.69,5.29c-0.685,0.686 -6.068,-4.36 -6.068,-5.687c0,-0.587 1.28,-0.372 2.38,0.398m20.745,4.23c-0.155,0.404 -0.54,0.734 -0.858,0.734c-0.573,0 -0.235,-2.765 0.475,-3.888c0.417,-0.658 0.76,2.172 0.383,3.154m-9.914,0.182c2.43,1.122 4.416,2.26 4.416,2.53c0,0.27 -0.72,0.787 -1.6,1.152c-2.383,0.987 -5.08,0.147 -6.55,-2.04c-1.058,-1.575 -1.593,-3.682 -0.934,-3.682c0.138,0 2.237,0.918 4.666,2.04m-69.57,8.03c0.04,6.442 -0.126,9.296 -0.564,9.735c-0.867,0.866 -0.78,1.628 0.454,3.995c1.74,3.338 0.763,6.24 -1.592,4.73c-1.51,-0.97 -1.385,-15.206 0.202,-22.83c0.148,-0.712 0.412,-2.194 0.586,-3.293c0.6,-3.73 0.86,-1.473 0.914,7.662m102.806,-6.118c-0.994,1.675 -2.627,4.212 -3.628,5.637l-3.183,4.596c-0.922,1.356 -1.532,1.834 -1.89,1.477c-0.74,-0.74 1.32,-4.05 6.038,-9.7c2.143,-2.567 3.9,-4.88 3.902,-5.14c0.002,-0.26 0.133,-0.35 0.287,-0.195c0.154,0.155 -0.533,1.652 -1.527,3.327m-101.044,-1.782c-0.165,0.413 -0.288,0.3 -0.313,-0.314c-0.022,-0.546 0.1,-0.852 0.272,-0.68c0.172,0.172 0.19,0.62 0.04,0.994m51.47,1.19c1.677,0.867 3.417,3.02 2.647,3.278c-0.272,0.1 -1.105,-0.235 -1.85,-0.724c-0.745,-0.489 -3.12,-1.31 -5.278,-1.822c-2.158,-0.512 -4.062,-1.075 -4.234,-1.246c-1.366,-1.367 5.91,-0.938 8.715,0.514m66.597,1.174c-0.236,1.534 -0.579,3.05 -1.028,4.536l-2.04,6.6c-0.752,2.495 -1.45,4.536 -1.553,4.536c-1.03,0 -1.825,-0.87 -1.82,-2c0.004,-1.585 1.76,-7.616 2.482,-8.528c0.27,-0.34 0.783,-1.55 1.144,-2.692c1.622,-5.133 3.43,-6.715 2.816,-2.462m-80.06,-1.426c0,0.285 -0.22,0.52 -0.488,0.52c-0.268,0 -0.632,-0.234 -0.808,-0.52c-0.176,-0.286 0.044,-0.518 0.488,-0.518c0.444,0 0.808,0.233 0.808,0.518m-6.35,0.467c0.926,0.03 1.684,0.266 1.684,0.53c0,0.264 -0.758,0.642 -1.684,0.843c-1.138,0.247 -2.912,1.6 -5.46,4.196l-3.775,3.83l0.343,2.585c0.353,2.662 -0.294,3.513 -1.276,1.678c-0.268,-0.5 -1.676,-2.395 -3.13,-4.213c-3.108,-3.89 -3.524,-6.202 -1.367,-7.615c1.497,-0.98 7.814,-2.137 10.857,-1.987l3.81,0.155m-22.662,5.107c0.92,2.21 2.575,5.978 3.68,8.376c1.105,2.398 1.93,4.44 1.83,4.54c-0.59,0.59 -3.763,-4.32 -6.755,-10.453c-1.292,-2.652 -1.7,-4.082 -1.5,-5.31c0.142,-0.924 0.444,-1.564 0.67,-1.424c0.226,0.14 1.163,2.062 2.082,4.27m81.89,-4.27c0,0.147 -0.688,1.488 -1.53,2.98c-0.842,1.492 -2.362,4.78 -3.38,7.303c-1.78,4.42 -6.694,12.26 -7.683,12.26c-0.65,0 -0.063,-2.156 1.333,-4.893c1.637,-3.21 6.1,-11.14 7.35,-13.063c0.582,-0.894 1.456,-2.352 1.94,-3.24c0.753,-1.375 1.968,-2.207 1.968,-1.347m-28.334,3.383c1.226,0.723 2.71,2.595 4.696,5.92c4.1,6.872 4.058,8.08 -0.557,15.918c-3.178,5.397 -7.4,11.546 -7.695,11.202c-0.067,-0.08 0.32,-2.313 0.863,-4.966c0.75,-3.67 1.444,-5.513 2.908,-7.72c1.643,-2.473 1.97,-3.457 2.237,-6.725c0.386,-4.71 -0.328,-7.753 -2.432,-10.38c-2.013,-2.51 -2.98,-4.3 -2.32,-4.3c0.28,0 1.313,0.476 2.3,1.058m-61.26,2.977c0.966,7.14 1.078,8.925 0.563,8.925c-1.106,0 -1.563,-1.452 -1.893,-6.015c-0.486,-6.713 0.52,-8.9 1.33,-2.9m43.516,-2.034c1.286,0.815 3.92,2.96 5.85,4.77l3.513,3.286l-0.353,2.83c-0.482,3.857 -0.566,3.998 -2.748,4.623c-2.615,0.748 -6.324,1.31 -6.324,0.956c0,-0.16 1.268,-1.1 2.818,-2.092c3.023,-1.933 4.37,-3.69 3.502,-4.558c-0.284,-0.284 -2.97,-0.642 -5.967,-0.795c-2.997,-0.153 -5.76,-0.47 -6.14,-0.707c-0.936,-0.58 -0.894,-7.835 0.05,-8.974c1.027,-1.238 3.193,-1 5.798,0.662m30.75,0.202c-0.2,0.642 -0.61,1.75 -0.912,2.463l-0.55,1.296l-0.19,-1.4c-0.208,-1.53 0.63,-3.525 1.482,-3.525c0.316,0 0.386,0.475 0.17,1.166m-14.665,5.47c0.595,1.226 0.947,2.364 0.784,2.527c-0.163,0.163 -1.065,-0.345 -2.004,-1.13c-1.787,-1.493 -2.91,-3.77 -2.942,-5.96c-0.018,-1.264 0.02,-1.25 1.532,0.518c0.853,0.998 2.037,2.818 2.63,4.045m10.045,-3.656c-0.46,2.462 -0.63,2.613 -1.556,1.388c-1.36,-1.798 -0.94,-3.332 0.91,-3.332c0.884,0 0.963,0.24 0.645,1.944m-36.208,3.79c0.056,3.15 0.337,5.508 0.71,5.96c0.437,0.526 1.748,0.746 4.445,0.746c2.103,0 3.824,0.104 3.824,0.23c0,0.673 -5.188,5.5 -6.41,5.966c-2.04,0.775 -5.097,0.673 -6.362,-0.212c-1.372,-0.962 -1.997,-2.6 -3.05,-7.956c-0.764,-3.89 -0.768,-4.417 -0.046,-5.443c1.63,-2.318 2.265,-2.948 3.736,-3.715c2.9,-1.51 3.053,-1.296 3.153,4.425m70.888,3.01c-0.7,2.384 -1.818,5.416 -2.506,6.736c-0.688,1.32 -1.378,3.144 -1.534,4.05c-0.462,2.683 -3.542,8.528 -4.166,7.905c-0.122,-0.123 0.353,-1.856 1.057,-3.85c0.704,-1.994 1.363,-4.444 1.464,-5.442c0.305,-3.015 1.137,-5.565 2.296,-7.038c0.604,-0.768 1.098,-1.68 1.098,-2.026c0,-0.698 3.08,-5.135 3.367,-4.85c0.1,0.1 -0.385,2.132 -1.076,4.516m-97.36,-0.176c0.473,0.72 0.732,1.44 0.575,1.597c-0.563,0.563 -2.448,-0.893 -2.448,-1.89c0,-1.407 0.845,-1.275 1.873,0.294m-18.15,2.97c0.233,1.985 0.165,2.974 -0.205,2.974c-0.834,0 -1.418,-3.02 -1.196,-6.195c0.122,-1.747 1.074,0.442 1.4,3.22m104.783,1.005l-3.98,7.153c-2.08,3.74 -4.125,6.44 -4.554,6.012c-0.317,-0.318 2.92,-5.886 5.703,-9.81c1.38,-1.947 2.9,-4.336 3.353,-5.308c0.453,-0.972 0.945,-1.664 1.07,-1.54c0.125,0.124 -0.592,1.697 -1.592,3.493m-74.783,0.704c1.13,1.41 2.95,3.56 4.04,4.777c2.125,2.375 2.137,3.227 0.046,3.227c-1.274,0 -3.24,-1.743 -3.275,-2.903c-0.01,-0.314 -0.6,-1.686 -1.335,-3.048c-1.738,-3.27 -3.034,-6.493 -2.18,-5.422l2.704,3.37m39.71,-0.737c0.72,1.348 0.19,2.002 -1.624,2.002c-1.655,0 -1.784,-0.287 -1.023,-2.29c0.564,-1.482 1.77,-1.352 2.647,0.287m53.083,2.65c-0.202,1.212 -0.662,2.787 -1.024,3.5c-0.362,0.713 -1.13,2.813 -1.707,4.666c-0.577,1.853 -2.018,6.052 -3.202,9.33l-3.912,10.887c-3.023,8.464 -4.146,11.062 -4.884,11.308c-0.515,0.172 -0.61,-0.034 -0.335,-0.74c0.208,-0.538 0.568,-1.91 0.8,-3.05c0.232,-1.14 1.166,-4.057 2.075,-6.48c2.883,-7.7 4.246,-12.037 5.47,-17.45c1.095,-4.842 2.807,-8.47 3.996,-8.47c0.876,0 1.028,-1.617 0.235,-2.493c-0.894,-0.987 -0.636,-1.692 0.947,-2.6c1.697,-0.962 1.924,-0.73 1.54,1.584m-122.87,3.617c0.82,1.168 1.13,4.557 0.418,4.542c-1.12,-0.023 -1.825,-1.15 -2.067,-3.297c-0.3,-2.656 0.33,-3.13 1.65,-1.245m68.626,-0.3c-0.193,0.983 -1.773,2.122 -2.263,1.632c-0.182,-0.183 -0.178,-0.816 0.01,-1.408c0.415,-1.306 2.507,-1.515 2.253,-0.224m-6.388,0.704c-0.176,0.285 -0.67,0.518 -1.098,0.518c-0.428,0 -0.633,-0.233 -0.457,-0.518c0.176,-0.285 0.67,-0.52 1.098,-0.52c0.428,0 0.633,0.234 0.457,0.52m-3.954,0.86c-1.2,1.462 -4.67,2.77 -5.77,2.18c-1.565,-0.838 -0.763,-1.66 2.245,-2.297c4.25,-0.903 4.368,-0.9 3.526,0.118m29.06,5.102c0,0.916 -0.087,0.886 -0.74,-0.26c-0.407,-0.713 -0.74,-1.762 -0.74,-2.333c0,-0.916 0.087,-0.885 0.74,0.26c0.408,0.712 0.74,1.762 0.74,2.332m-99.22,1.672c-0.212,0.847 -0.513,1.15 -0.83,0.833c-0.317,-0.317 -0.266,-1.143 0.14,-2.278c0.462,-1.298 0.688,-1.524 0.83,-0.834c0.108,0.522 0.045,1.547 -0.14,2.28m50.01,-2.45c0,0.285 -0.22,0.518 -0.487,0.518c-0.267,0 -0.632,-0.233 -0.81,-0.518c-0.178,-0.285 0.044,-0.52 0.488,-0.52c0.444,0 0.808,0.234 0.808,0.52m-37.855,5.96c-0.005,3.237 -0.594,4.373 -1.763,3.403c-0.865,-0.718 -1.098,-4.2 -0.486,-7.26l0.33,-1.654l0.962,1.46c0.617,0.935 0.96,2.39 0.957,4.05m30.005,-3.925c1.077,0.55 2.262,1.366 2.635,1.814c1.2,1.434 -2.553,1.018 -4.246,-0.472c-2.586,-2.277 -1.687,-3.025 1.61,-1.342m34.778,7.264c-1.192,3.724 -2.403,6.77 -2.692,6.77c-0.289,0 -1.66,-0.816 -3.05,-1.814c-1.39,-0.998 -2.716,-1.815 -2.95,-1.815c-0.234,0 -1.224,-0.72 -2.202,-1.6c-0.978,-0.88 -2.92,-2.223 -4.313,-2.98c-5.607,-3.05 -6.07,-3.462 -4.47,-3.97c1.372,-0.436 4.38,0.08 6.314,1.08c2.365,1.224 7.587,0.94 10.63,-0.574c1.443,-0.72 3.063,-1.795 3.6,-2.39c1.684,-1.865 1.46,0.03 -0.867,7.296m-72.223,-5.607c-0.18,0.892 -0.324,1.955 -0.324,2.364c0,0.409 -0.233,0.6 -0.52,0.423c-1,-0.618 -0.45,-4.407 0.64,-4.407c0.315,0 0.397,0.655 0.204,1.62m102.172,1.88c-3.826,7.118 -7.333,13.09 -7.688,13.09c-1.06,0 -0.29,-1.953 2.325,-5.904c1.53,-2.312 3.17,-4.962 3.642,-5.89c0.472,-0.928 1.1,-1.685 1.394,-1.685c0.294,0 0.442,0.175 0.327,0.39m-83.676,2.31c0.55,0.735 1.174,2.237 1.39,3.337c0.216,1.1 0.57,2.672 0.79,3.493c0.312,1.162 0.24,1.44 -0.32,1.258c-0.938,-0.306 -1.886,-2.297 -3.076,-6.457c-1.015,-3.55 -0.616,-4.086 1.217,-1.63m92.903,0.542c-0.466,2.987 -2.618,7.12 -4.485,8.614l-1.534,1.226l0.353,-1.486c0.317,-1.333 5.405,-10.536 5.834,-10.55c0.096,-0.004 0.02,0.985 -0.168,2.197m5.97,0.88c-0.313,0.585 -0.795,1.064 -1.07,1.064c-0.834,0 -0.56,-2.184 0.406,-3.26c0.897,-0.997 0.91,-0.997 1.07,0.062c0.09,0.59 -0.094,1.55 -0.407,2.134m-27.555,0.856c-0.462,1.128 -0.67,1.284 -0.827,0.624c-0.238,-0.996 0.963,-3.575 1.255,-2.697c0.104,0.313 -0.088,1.246 -0.428,2.073m-60.64,0.804c0.77,2.205 0.73,2.303 -0.468,1.218c-1.05,-0.95 -1.428,-2.85 -0.57,-2.85c0.257,0 0.724,0.735 1.037,1.633m74.68,-0.285c-0.644,1.695 -2.054,3.74 -2.054,2.978c0,-0.314 0.353,-1.416 0.785,-2.448c0.903,-2.162 2.076,-2.65 1.27,-0.53m-105.335,0.1c0.113,0.34 -0.164,0.616 -0.616,0.616c-0.452,0 -0.82,-0.37 -0.82,-0.82c0,-0.915 1.116,-0.756 1.436,0.205m58.75,2.492c3.926,2.625 10.836,7.854 10.836,8.2c0,0.684 -1.23,3.415 -1.485,3.296c-1.824,-0.847 -4.3,-2.978 -4.543,-3.91c-0.168,-0.642 -0.535,-1.167 -0.817,-1.167c-0.633,0 -8.707,-8.22 -8.707,-8.864c0,-0.702 0.034,-0.685 4.716,2.446m24.327,3.672c-2.978,6.733 -3.45,7.48 -3.928,6.23c-0.27,-0.7 0.895,-3.487 2.973,-7.112c0.244,-0.427 0.815,-1.594 1.267,-2.592c0.955,-2.1 1.793,-3.24 2.144,-2.888c0.137,0.136 -0.97,3 -2.456,6.363m-90.215,-4.74c0,0.752 -0.224,1.188 -0.518,1.006c-0.285,-0.176 -0.518,-0.773 -0.518,-1.327c0,-0.554 0.233,-1.006 0.518,-1.006c0.285,0 0.518,0.597 0.518,1.327m57.09,-0.42c0.644,0.823 0.626,0.84 -0.196,0.196c-0.5,-0.39 -0.907,-0.8 -0.907,-0.907c0,-0.426 0.426,-0.152 1.103,0.71m-35.318,0.68c0,0.27 -0.233,0.488 -0.518,0.488c-0.285,0 -0.52,-0.364 -0.52,-0.808c0,-0.444 0.234,-0.664 0.52,-0.488c0.286,0.176 0.518,0.54 0.518,0.808m102.644,0.297c0,0.67 -4.81,11.077 -5.12,11.077c-0.54,0 -0.317,-2.737 0.394,-4.81c1.05,-3.067 3.187,-6.594 3.994,-6.594c0.403,0 0.733,0.148 0.733,0.328m-75.687,5.71c1.854,1.785 4.07,3.82 4.925,4.522c1.96,1.608 1.444,2.138 -1.94,2c-2.56,-0.11 -5.058,-1.5 -5.058,-2.83c0,-0.26 -0.817,-2.167 -1.815,-4.242c-0.998,-2.075 -1.814,-3.96 -1.814,-4.187c0,-0.542 1.57,0.764 5.702,4.746m-43.86,-2.8c0.657,1.04 0.238,1.556 -0.908,1.117c-0.468,-0.18 -0.85,-0.788 -0.85,-1.352c0,-1.164 0.957,-1.036 1.76,0.235m29.845,0.866c0.295,0.552 0.537,1.5 0.537,2.11c0,0.906 -0.21,1.042 -1.167,0.754c-1.745,-0.528 -2.1,-1.06 -1.74,-2.53c0.395,-1.576 1.613,-1.746 2.37,-0.332m59.102,3.698c-0.343,0.83 -0.85,1.368 -1.124,1.198c-0.583,-0.36 -0.1,-2.71 0.79,-3.773c0.904,-1.1 1.13,0.653 0.333,2.575m-91.3,0.512c1.48,0.9 1.693,1.272 1.422,2.46c-0.93,4.086 -0.967,4.883 -0.257,5.332c1.163,0.737 1.476,0.576 2.607,-1.34c1.115,-1.9 2.213,-2.333 2.692,-1.086c0.294,0.767 -0.96,7.492 -1.496,8.03c-0.442,0.443 -1.783,-1.516 -1.783,-2.605c0,-1.387 -0.94,-1.66 -1.13,-0.328c-0.136,0.96 -0.47,1.16 -1.822,1.1c-1.805,-0.08 -4.52,-1.76 -5.35,-3.3c-0.396,-0.74 -0.214,-1.644 0.75,-3.722c0.7,-1.51 1.408,-3.386 1.57,-4.17c0.355,-1.705 0.55,-1.73 2.795,-0.36m114.642,0.987c0,0.274 -0.254,2.204 -0.564,4.3c-0.55,3.698 -0.617,3.82 -2.676,4.948c-1.162,0.637 -2.235,1.034 -2.386,0.884c-0.453,-0.454 1.51,-5.526 3.155,-8.156c1.44,-2.3 2.47,-3.12 2.47,-1.966m-91.6,4.3c3.986,4.29 7.1,8.1 7.1,8.712c0,0.94 -1.13,0.473 -2.503,-1.035c-2.07,-2.274 -4,-4.802 -4.744,-6.213c-0.363,-0.7 -1.33,-1.82 -2.15,-2.508c-1.425,-1.2 -1.927,-2.2 -1.1,-2.196c0.214,0.001 1.743,1.46 3.398,3.24m8.68,-2.45c1.11,0.574 1.53,1.167 1.53,2.163l0,1.374l-1.344,-1.257c-1.386,-1.297 -2.552,-3.07 -2.018,-3.07c0.167,0 0.992,0.356 1.833,0.79m57.967,1.328c-0.72,2.156 -1.487,3.107 -1.487,1.846c0,-1.036 1.517,-4.176 1.855,-3.838c0.123,0.122 -0.043,1.02 -0.368,1.992m-49.41,3.13c3.787,2.395 5.988,4.476 7.838,7.4c0.91,1.44 1.567,2.704 1.464,2.807c-0.2,0.2 -5.342,-3.338 -10.238,-7.048c-2.198,-1.665 -2.98,-2.59 -2.98,-3.524c0,-1.672 0.83,-1.596 3.916,0.355m41.914,0.772c0.358,0.935 -1.11,1.58 -1.87,0.82c-0.76,-0.76 -0.113,-2.227 0.822,-1.87c0.416,0.16 0.888,0.632 1.048,1.048m-70.714,1.269c0,1.836 -1.254,5.647 -1.858,5.647c-0.334,0 -0.913,-0.37 -1.287,-0.82c-0.534,-0.643 -0.547,-1.033 -0.064,-1.808c0.34,-0.543 0.617,-1.33 0.617,-1.747c0,-0.417 0.27,-1.353 0.6,-2.077c0.466,-1.022 0.755,-1.187 1.296,-0.74c0.383,0.318 0.696,1.013 0.696,1.544m43.39,-0.185c0.988,1.07 2.15,2.62 2.584,3.443l0.787,1.5l-1.996,-1.22c-3.957,-2.418 -6.915,-4.737 -6.63,-5.198c0.16,-0.258 1.003,-0.47 1.875,-0.47c1.165,0 2.06,0.513 3.38,1.944m-35.815,3.9c1.456,0.92 3.73,2.635 5.054,3.81c4.1,3.645 2.847,4.293 -3.456,1.79c-2.098,-0.833 -4.67,-1.676 -5.716,-1.872c-1.046,-0.196 -1.9,-0.464 -1.9,-0.595c0,-0.518 2.712,-4.83 3.03,-4.818c0.186,0.006 1.53,0.764 2.988,1.685m97.086,0.32c-0.32,0.916 -0.702,1.545 -0.85,1.396c-0.148,-0.149 0.027,-0.983 0.388,-1.857c0.855,-2.063 1.216,-1.703 0.46,0.46m-4.09,-0.723c0,0.375 -7.484,15.6 -9.31,18.925c-0.858,1.568 -2.05,3.254 -2.65,3.747c-0.6,0.493 -2.006,2.7 -3.126,4.925c-2.254,4.46 -4.936,8.435 -5.693,8.435c-0.587,0 -3.07,-5.45 -3.07,-6.74c0,-0.5 0.35,-1.2 0.778,-1.555c0.428,-0.355 0.777,-1.026 0.777,-1.492c0,-0.466 0.758,-2.063 1.685,-3.55c1.184,-1.9 2.02,-2.71 2.814,-2.72c1.52,-0.018 2.625,-1.22 3.25,-3.536c1.44,-5.342 2.164,-7.113 3.465,-8.47c0.783,-0.817 1.607,-1.485 1.83,-1.485c0.52,0 0.045,2.782 -0.907,5.324c-0.403,1.075 -0.732,2.35 -0.732,2.833c0,1.935 1.408,-0.686 2.293,-4.27c1.447,-5.858 2.153,-7.08 5.13,-8.887c2.69,-1.63 3.464,-1.962 3.464,-1.484m-117.678,1.3c0,0.573 -1.548,1.102 -2.146,0.733c-0.748,-0.463 0.532,-1.76 1.406,-1.425c0.407,0.157 0.74,0.468 0.74,0.692m59.108,1.826c0.548,0.66 0.516,0.736 -0.196,0.463c-0.468,-0.18 -0.85,-0.535 -0.85,-0.79c0,-0.667 0.3,-0.573 1.047,0.326m49.473,-0.3c0.163,0.262 -0.407,0.978 -1.265,1.6c-1.724,1.228 -1.787,1.184 -1.056,-0.74c0.5,-1.316 1.75,-1.775 2.32,-0.85m-18.897,1.272c0,0.393 -0.368,1.594 -0.817,2.67l-0.818,1.956l-1.385,-1.407l-1.387,-1.406l1.556,-1.26c1.74,-1.41 2.85,-1.626 2.85,-0.552m-40.03,2.233c2.598,1.613 6.333,4.52 6.333,4.928c0,0.807 -5.488,-1.77 -7.13,-3.348c-2.518,-2.423 -2.052,-3.35 0.796,-1.58m46.54,0.36c0.567,2.256 0.07,4.2 -1.067,4.2c-0.658,0 -0.97,-0.284 -0.852,-0.777c0.102,-0.428 0.308,-1.652 0.458,-2.722c0.308,-2.205 1.002,-2.543 1.46,-0.71m-71.732,5.808c-1.06,0.743 -1.143,1.114 -0.88,4.017c0.43,4.787 1.228,9.704 3.414,21.083c0.575,2.994 1.49,8.826 2.036,12.96l3.37,23.048c0.808,3.546 1.555,10.137 1.412,12.457c-0.052,0.853 0.464,4.352 1.148,7.776c1.657,8.306 1.906,11.163 1.887,21.683c-0.02,10.1 0.274,11.94 1.948,12.186c0.897,0.13 1.316,-0.248 1.95,-1.762c0.704,-1.685 0.74,-3.423 0.287,-13.646c-0.286,-6.444 -0.785,-12.4 -1.108,-13.26c-1.2,-3.148 -2.08,-8.77 -2.08,-13.297c0,-2.566 -0.327,-5.758 -0.726,-7.094c-0.399,-1.336 -0.982,-4.18 -1.293,-6.32c-1.246,-8.556 -2.144,-15.558 -2.662,-20.736c-0.3,-2.994 -0.885,-6.915 -1.3,-8.715c-0.415,-1.8 -0.757,-3.955 -0.757,-4.788c0,-0.833 -0.232,-2.5 -0.515,-3.727c-0.71,-3.048 -1.9,-10.525 -2.664,-16.725c-0.743,-6.037 -1.205,-6.724 -3.463,-5.142m91.318,2.56c-0.44,1.29 -1.22,2.57 -1.737,2.845c-0.517,0.275 -1.445,1.32 -2.064,2.323c-0.619,1.003 -1.344,1.82 -1.612,1.82c-0.624,0 1.272,-3.74 2.348,-4.634c0.448,-0.372 0.815,-0.967 0.815,-1.32c0,-0.797 1.985,-3.376 2.6,-3.376c0.247,0 0.1,1.054 -0.35,2.342m-35.055,2.525c2.272,4 2.47,5.24 0.93,5.83c-0.968,0.37 -2.052,-0.475 -3.943,-3.078c-1.144,-1.575 -1.378,-2.355 -1.165,-3.888c0.608,-4.378 1.127,-4.237 4.18,1.136m-11.792,-2.305c1.1,0.845 1.21,1.186 0.777,2.41c-0.277,0.783 -0.77,1.512 -1.094,1.62c-0.826,0.274 -2.86,-3.183 -2.47,-4.2c0.418,-1.1 1.21,-1.04 2.787,0.17m-13.865,0.64c1.02,0.392 1.503,1.022 1.737,2.27c0.545,2.906 -0.018,3.23 -1.638,0.947c-0.832,-1.173 -1.964,-2.34 -2.515,-2.59c-0.551,-0.25 -1.105,-0.776 -1.228,-1.162c-0.235,-0.736 0.675,-0.602 3.644,0.535m36.223,3.906c-0.497,0.856 -0.54,0.844 -0.555,-0.153c-0.017,-1.2 0.64,-2.136 0.918,-1.305c0.097,0.292 -0.066,0.95 -0.363,1.458m14.14,-0.127c-0.546,1.423 0.1,1.956 0.72,0.594c0.388,-0.85 0.423,-1.354 0.094,-1.354c-0.287,0 -0.654,0.342 -0.815,0.76m-42.153,2.683c1.164,2.717 0.982,3.386 -0.547,2.003c-0.93,-0.842 -1.548,-4.4 -0.762,-4.4c0.152,0 0.74,1.083 1.31,2.407m10.562,5.32c-0.1,2.593 -0.485,4.75 -1.043,5.83l-0.887,1.714l-0.495,-1.285c-0.776,-2.012 -0.07,-10.613 1.006,-12.255l0.91,-1.387l0.334,1.634c0.184,0.898 0.263,3.485 0.176,5.75m3.922,-1.73c0,0.802 -1.293,1.868 -1.733,1.43c-0.46,-0.46 -0.435,-3.013 0.034,-3.48c0.424,-0.425 1.7,1.115 1.7,2.052m34.214,-0.636c0,0.92 -2.297,6.5 -3.016,7.314c-0.51,0.585 -2.068,2.812 -3.462,4.95c-3.67,5.628 -6.444,9.33 -6.992,9.33c-0.497,0 0.598,-3.742 1.912,-6.538c0.417,-0.888 1.672,-2.127 2.79,-2.755c1.688,-0.95 2.033,-1.42 2.047,-2.793c0.008,-0.908 0.358,-2.104 0.777,-2.658c0.419,-0.554 0.76,-1.314 0.76,-1.7c0,-0.738 4.12,-5.34 4.782,-5.34c0.22,0 0.402,0.08 0.402,0.178m-55.418,1.774c1.195,-0.13 1.26,0.03 1.635,4c0.32,3.402 0.2,8.823 -0.405,18.144c-0.037,0.57 -0.12,3.253 -0.188,5.962c-0.17,6.835 -0.766,4.833 -2.105,-7.05c-0.607,-5.4 -1.31,-10.5 -1.563,-11.354c-0.253,-0.854 -0.547,-3.69 -0.655,-6.296l-0.195,-4.74l1.115,0.73c0.614,0.402 1.675,0.67 2.36,0.593m23.104,1.807c-1.63,6.467 -2.583,7.8 -2.832,3.988c-0.116,-1.782 0.116,-2.704 0.945,-3.758c1.34,-1.703 2.287,-1.82 1.887,-0.23m-16.085,2.203c0.18,0.472 0.965,0.778 1.993,0.778c1.482,0 1.734,0.202 2.018,1.62c0.702,3.5 0.345,9.084 -0.747,11.663c-2.9,6.854 -4.113,9.935 -4.113,10.458c0,0.263 0.567,1.315 1.26,2.337c1.163,1.714 1.225,2.11 0.797,5.127c-0.7,4.936 -2.21,9.455 -3.226,9.65c-1.357,0.26 -1.62,-1.98 -0.89,-7.57c0.362,-2.768 0.608,-6.783 0.55,-8.92c-0.058,-2.137 0.134,-5.87 0.43,-8.295c0.296,-2.425 0.603,-7.38 0.68,-11.016c0.128,-6.1 0.492,-7.8 1.247,-5.832m22.26,3.55c0.278,0.725 -4.515,9.17 -5.82,10.252c-1.1,0.904 -1.807,-0.056 -2.12,-2.835c-0.347,-3.082 1.25,-5.78 4.22,-7.128c2.54,-1.154 3.362,-1.218 3.72,-0.29m29.25,0.568c0,0.126 -0.234,0.372 -0.52,0.55c-0.286,0.178 -0.518,0.073 -0.518,-0.23c0,-0.303 0.233,-0.55 0.518,-0.55c0.285,0 0.52,0.103 0.52,0.23m-40.962,3.673c0.008,1.633 -1.223,3.874 -2.127,3.874c-0.606,0 -0.085,-4.4 0.7,-5.902c0.412,-0.793 0.594,-0.842 0.963,-0.26c0.25,0.395 0.458,1.424 0.463,2.287m18.444,3.76c-0.687,0.656 -0.998,0.72 -1.175,0.244c-0.434,-1.17 -1.064,-0.68 -2,1.555c-0.71,1.7 -0.973,1.973 -1.15,1.19c-0.21,-0.93 0.733,-6.242 1.27,-7.148c0.126,-0.212 1.076,0.436 2.11,1.442c1.804,1.752 1.843,1.863 0.945,2.718m-5.947,0.936c-1.03,4.62 -1.857,5.917 -3.775,5.917c-1.242,0 -1.193,-1.164 0.1,-2.332c0.57,-0.516 1.036,-1.227 1.036,-1.58c0,-1.214 3.023,-7.235 3.43,-6.83c0.13,0.13 -0.226,2.3 -0.79,4.824m-11.205,1.732c0.486,1.53 -0.96,4.337 -2.775,5.383c-1.42,0.82 -1.666,0.84 -1.93,0.154c-0.264,-0.686 1.154,-3.94 2.56,-5.888c0.695,-0.962 1.783,-0.784 2.144,0.35m21.24,2.24c-1.327,4.348 -5.774,10.572 -6.812,9.534c-0.354,-0.354 1.188,-3.714 3.007,-6.55l1.696,-2.724c1.08,-1.783 2.632,-1.973 2.11,-0.26m8.08,0.873c-0.295,0.552 -0.537,1.465 -0.537,2.03c0,1.177 -5.3,7.765 -5.578,6.933c-0.1,-0.303 0.822,-1.94 2.05,-3.64c1.228,-1.7 2.63,-3.817 3.116,-4.707c0.486,-0.89 1.02,-1.618 1.185,-1.618c0.165,0 0.06,0.45 -0.235,1.002m-37.88,4.052c-0.01,0.214 -0.352,0.972 -0.76,1.685l-0.74,1.296l-0.02,-1.34c-0.01,-0.737 0.137,-1.495 0.328,-1.685c0.465,-0.466 1.213,-0.44 1.19,0.043m13.074,2.9c0.428,0.793 0.894,0.906 2.604,0.632l2.082,-0.333l-1.44,2.478c-0.792,1.363 -1.956,3.178 -2.586,4.033c-2.434,3.308 -2.77,5.444 -0.856,5.444c0.96,0 5.533,-4.714 6.63,-6.84c0.726,-1.404 1.764,-1.973 1.764,-0.97c0,0.606 -3.476,4.852 -6.01,7.338c-1.218,1.197 -1.897,2.344 -1.897,3.21c0,0.75 -0.374,1.507 -0.842,1.708c-0.468,0.201 -3.584,0.475 -6.934,0.613c-6.668,0.275 -6.464,0.382 -5.605,-2.927c0.267,-1.03 0.76,-3.94 1.098,-6.462c0.52,-3.9 0.85,-4.86 2.175,-6.368c0.86,-0.98 1.65,-1.692 1.76,-1.583c0.11,0.109 -0.293,1.302 -0.89,2.655c-1.648,3.726 -0.528,6.12 2.088,4.466c0.65,-0.412 0.655,-0.662 0.026,-1.835c-0.657,-1.23 -0.606,-1.59 0.54,-3.792c0.696,-1.34 1.59,-2.837 1.987,-3.33c0.683,-0.848 0.802,-0.848 2.253,0c0.843,0.492 1.766,1.33 2.054,1.86m26,1.626c-0.71,3.42 -4.43,12.057 -5.502,12.768c-0.645,0.427 -12.55,2.016 -14.9,1.987l-1.815,-0.022l1.81,-1.548c1.407,-1.203 2.13,-1.478 3.24,-1.234c1.272,0.28 1.43,0.167 1.43,-1.023c0,-1.066 0.253,-1.337 1.245,-1.337c0.684,0 2.64,-1.048 4.342,-2.33c2.96,-2.223 4.058,-3.348 8.6,-8.8c1.102,-1.322 2.07,-2.334 2.148,-2.248c0.078,0.086 -0.194,1.79 -0.607,3.785"/></svg>