<?xml version="1.0" encoding="UTF-8" standalone="no"?><!DOCTYPE svg PUBLIC "-//W3C//DTD SVG 1.1//EN" "http://www.w3.org/Graphics/SVG/1.1/DTD/svg11.dtd"><svg width="100%" height="100%" viewBox="0 0 512 512" version="1.1" xmlns="http://www.w3.org/2000/svg" xmlns:xlink="http://www.w3.org/1999/xlink" xml:space="preserve" xmlns:serif="http://www.serif.com/" style="fill-rule:evenodd;clip-rule:evenodd;stroke-linejoin:round;stroke-miterlimit:2;"><path d="M132.294,26.106c-9.354,3.596 -12.367,9.998 -8.763,18.622c3.444,8.244 9.43,13.236 17.74,14.795c3.365,0.63 4.054,1.386 8.076,8.834c11.728,21.718 15.983,28.02 33.426,49.512c7.238,8.918 12.796,23.99 9.9,26.876c-0.784,0.785 -7.446,3.12 -14.805,5.19c-7.359,2.07 -17.237,5.024 -21.953,6.563l-8.575,2.8l-15.425,-11.163l-21.732,-16.15c-5.978,-4.727 -10.312,-6.22 -11.67,-4.024c-0.327,0.53 -1.02,5.827 -1.543,11.772c-0.94,10.71 -2.913,18.536 -8.97,35.583c-1.94,5.462 -3.7,13.264 -4.623,20.5c-1.31,10.26 -1.897,12.292 -4.824,16.683c-1.834,2.75 -3.836,5.983 -4.448,7.184c-2.287,4.486 -4.285,17.252 -4.822,30.816l-0.555,14l3.56,10.624c5.355,15.97 13.5,33.642 18.61,40.376c2.504,3.3 9.887,11.73 16.405,18.73c10.154,10.907 13.523,13.79 23.52,20.114c13.838,8.757 18.47,11.188 35.667,18.72c8.255,3.615 13.12,6.3 13.332,7.358c0.393,1.974 -3.566,9.808 -9.02,17.85c-2.153,3.174 -4.542,7.548 -5.308,9.718c-0.766,2.17 -3.892,7.618 -6.948,12.105c-3.056,4.487 -5.546,8.526 -5.546,8.973c0,2.097 2.48,1.91 5.772,-0.43c1.99,-1.417 3.79,-2.407 3.998,-2.2c0.208,0.207 -0.33,1.747 -1.196,3.42c-2.098,4.058 -1.987,6.143 0.327,6.143c2.368,0 5.518,-5.19 8.305,-13.677c1.982,-6.04 2.182,-6.282 3.9,-4.727c0.996,0.902 2.54,3.836 3.433,6.522c1.78,5.36 4.047,6.378 5.076,2.278c0.803,-3.2 -4.062,-13.986 -7.25,-16.076c-1.812,-1.188 -2.016,-1.93 -1.344,-4.908c0.932,-4.134 11.34,-21.953 13.25,-22.686c0.725,-0.278 5.348,0.58 10.273,1.905c4.925,1.325 13.906,3.56 19.956,4.965c6.05,1.405 11.335,2.88 11.745,3.275c2.797,2.7 1.068,34.525 -2.885,53.085c-1.355,6.362 -1.41,8.764 -0.368,16.38c0.67,4.91 1.83,10.387 2.577,12.173c5.083,12.167 18.467,17.024 28.82,10.46c4.353,-2.76 5.296,-4.12 10.6,-15.25c8.214,-17.27 10.422,-24.102 13.487,-41.72c1.483,-8.525 3.03,-16.373 3.44,-17.44c0.613,-1.597 2.182,0.17 8.877,10c14.85,21.805 15.133,22.08 31.327,30.733c14.54,7.767 19.895,9.304 22.69,6.508c1.648,-1.648 1.473,-16.372 -0.247,-20.8c-6.437,-16.57 -24.204,-55.366 -27.02,-59l-3.486,-4.5l9.582,-8.933c5.27,-4.914 12.007,-12.394 14.97,-16.623c2.963,-4.229 6.065,-8.25 6.893,-8.938c1.7,-1.41 0.748,-2.106 26.507,19.37c8.525,7.108 19.212,15.32 23.75,18.25c5.354,3.458 8.232,5.95 8.198,7.1c-0.03,0.974 -1.325,4.914 -2.88,8.753c-3.14,7.756 -3.002,9.93 0.6,9.244c2.276,-0.435 2.364,-0.24 2.11,4.66c-0.21,3.996 0.06,5.115 1.23,5.115c1.473,0 2.748,-2.104 7.242,-11.95c3.824,-8.376 4.9,-7.41 7.187,6.45c0.904,5.476 1.388,6.5 3.073,6.5c1.826,0 2,-0.667 2,-7.662c0,-4.214 0.27,-7.935 0.6,-8.268c0.33,-0.333 2.56,0.272 4.956,1.344c2.396,1.072 4.712,1.73 5.15,1.46c2.2,-1.354 0.108,-3.635 -6.456,-7.074c-3.988,-2.1 -7.25,-4.307 -7.25,-4.928c0,-0.621 3.685,-3.86 8.188,-7.2c7.655,-5.675 10.312,-8.537 10.312,-11.105c0,-2.03 -2.214,-1.048 -6.847,3.035c-7.144,6.296 -12.48,9.066 -17.47,9.066c-3.6,0 -5.902,-0.996 -13.27,-5.743c-9.55,-6.152 -27.515,-20.195 -38.914,-30.418c-3.85,-3.453 -8.93,-7.146 -11.3,-8.206l-4.3,-1.93l2.865,-5.186l6.588,-11.856c7.043,-12.618 12.356,-35.71 13.305,-57.83c0.57,-13.24 0.51,-13.768 -3.108,-27.5c-2.478,-9.41 -5.096,-16.653 -7.985,-22.093c-4.422,-8.327 -16.404,-24.093 -23.228,-30.566c-8.54,-8.1 -32.418,-25.42 -46.967,-34.066l-15.433,-9.172l-4.694,-8.008c-6.072,-10.356 -14.115,-20.386 -23.173,-28.898c-7.51,-7.056 -11.107,-9.144 -14.115,-8.19c-2.984,0.947 -3.79,3.987 -8.474,31.992c-1.652,9.873 -3.027,15.384 -4.024,16.124c-1.81,1.344 -19.77,3.86 -21.85,3.063c-0.806,-0.3 -1.974,-3.045 -2.613,-6.123c-1.763,-8.495 -5.405,-14.6 -19.43,-32.564c-7.084,-9.075 -13.516,-18.015 -14.293,-19.866c-0.777,-1.851 -3.853,-7.6 -6.834,-12.754c-2.981,-5.154 -5.68,-10.426 -6,-11.694c-0.324,-1.29 0.328,-4.603 1.482,-7.532c1.563,-3.965 2.06,-7.494 2.06,-14.61l0,-9.382l-3.368,-2.08c-4.352,-2.7 -12.305,-2.68 -19.338,0.024l0.003,0.004Z" style="fill:#fff;"/><path d="M132.294,26.106c-9.354,3.596 -12.367,9.998 -8.763,18.622c3.444,8.244 9.43,13.236 17.74,14.795c3.365,0.63 4.054,1.386 8.076,8.834c11.728,21.718 15.983,28.02 33.426,49.512c7.238,8.918 12.796,23.99 9.9,26.876c-0.784,0.785 -7.446,3.12 -14.805,5.19c-7.359,2.07 -17.237,5.024 -21.953,6.563l-8.575,2.8l-15.425,-11.163l-21.732,-16.15c-5.978,-4.727 -10.312,-6.22 -11.67,-4.024c-0.327,0.53 -1.02,5.827 -1.543,11.772c-0.94,10.71 -2.913,18.536 -8.97,35.583c-1.94,5.462 -3.7,13.264 -4.623,20.5c-1.31,10.26 -1.897,12.292 -4.824,16.683c-1.834,2.75 -3.836,5.983 -4.448,7.184c-2.287,4.486 -4.285,17.252 -4.822,30.816l-0.555,14l3.56,10.624c5.355,15.97 13.5,33.642 18.61,40.376c2.504,3.3 9.887,11.73 16.405,18.73c10.154,10.907 13.523,13.79 23.52,20.114c13.838,8.757 18.47,11.188 35.667,18.72c8.255,3.615 13.12,6.3 13.332,7.358c0.393,1.974 -3.566,9.808 -9.02,17.85c-2.153,3.174 -4.542,7.548 -5.308,9.718c-0.766,2.17 -3.892,7.618 -6.948,12.105c-3.056,4.487 -5.546,8.526 -5.546,8.973c0,2.097 2.48,1.91 5.772,-0.43c1.99,-1.417 3.79,-2.407 3.998,-2.2c0.208,0.207 -0.33,1.747 -1.196,3.42c-2.098,4.058 -1.987,6.143 0.327,6.143c2.368,0 5.518,-5.19 8.305,-13.677c1.982,-6.04 2.182,-6.282 3.9,-4.727c0.996,0.902 2.54,3.836 3.433,6.522c1.78,5.36 4.047,6.378 5.076,2.278c0.803,-3.2 -4.062,-13.986 -7.25,-16.076c-1.812,-1.188 -2.016,-1.93 -1.344,-4.908c0.932,-4.134 11.34,-21.953 13.25,-22.686c0.725,-0.278 5.348,0.58 10.273,1.905c4.925,1.325 13.906,3.56 19.956,4.965c6.05,1.405 11.335,2.88 11.745,3.275c2.797,2.7 1.068,34.525 -2.885,53.085c-1.355,6.362 -1.41,8.764 -0.368,16.38c0.67,4.91 1.83,10.387 2.577,12.173c5.083,12.167 18.467,17.024 28.82,10.46c4.353,-2.76 5.296,-4.12 10.6,-15.25c8.214,-17.27 10.422,-24.102 13.487,-41.72c1.483,-8.525 3.03,-16.373 3.44,-17.44c0.613,-1.597 2.182,0.17 8.877,10c14.85,21.805 15.133,22.08 31.327,30.733c14.54,7.767 19.895,9.304 22.69,6.508c1.648,-1.648 1.473,-16.372 -0.247,-20.8c-6.437,-16.57 -24.204,-55.366 -27.02,-59l-3.486,-4.5l9.582,-8.933c5.27,-4.914 12.007,-12.394 14.97,-16.623c2.963,-4.229 6.065,-8.25 6.893,-8.938c1.7,-1.41 0.748,-2.106 26.507,19.37c8.525,7.108 19.212,15.32 23.75,18.25c5.354,3.458 8.232,5.95 8.198,7.1c-0.03,0.974 -1.325,4.914 -2.88,8.753c-3.14,7.756 -3.002,9.93 0.6,9.244c2.276,-0.435 2.364,-0.24 2.11,4.66c-0.21,3.996 0.06,5.115 1.23,5.115c1.473,0 2.748,-2.104 7.242,-11.95c3.824,-8.376 4.9,-7.41 7.187,6.45c0.904,5.476 1.388,6.5 3.073,6.5c1.826,0 2,-0.667 2,-7.662c0,-4.214 0.27,-7.935 0.6,-8.268c0.33,-0.333 2.56,0.272 4.956,1.344c2.396,1.072 4.712,1.73 5.15,1.46c2.2,-1.354 0.108,-3.635 -6.456,-7.074c-3.988,-2.1 -7.25,-4.307 -7.25,-4.928c0,-0.621 3.685,-3.86 8.188,-7.2c7.655,-5.675 10.312,-8.537 10.312,-11.105c0,-2.03 -2.214,-1.048 -6.847,3.035c-7.144,6.296 -12.48,9.066 -17.47,9.066c-3.6,0 -5.902,-0.996 -13.27,-5.743c-9.55,-6.152 -27.515,-20.195 -38.914,-30.418c-3.85,-3.453 -8.93,-7.146 -11.3,-8.206l-4.3,-1.93l2.865,-5.186l6.588,-11.856c7.043,-12.618 12.356,-35.71 13.305,-57.83c0.57,-13.24 0.51,-13.768 -3.108,-27.5c-2.478,-9.41 -5.096,-16.653 -7.985,-22.093c-4.422,-8.327 -16.404,-24.093 -23.228,-30.566c-8.54,-8.1 -32.418,-25.42 -46.967,-34.066l-15.433,-9.172l-4.694,-8.008c-6.072,-10.356 -14.115,-20.386 -23.173,-28.898c-7.51,-7.056 -11.107,-9.144 -14.115,-8.19c-2.984,0.947 -3.79,3.987 -8.474,31.992c-1.652,9.873 -3.027,15.384 -4.024,16.124c-1.81,1.344 -19.77,3.86 -21.85,3.063c-0.806,-0.3 -1.974,-3.045 -2.613,-6.123c-1.763,-8.495 -5.405,-14.6 -19.43,-32.564c-7.084,-9.075 -13.516,-18.015 -14.293,-19.866c-0.777,-1.851 -3.853,-7.6 -6.834,-12.754c-2.981,-5.154 -5.68,-10.426 -6,-11.694c-0.324,-1.29 0.328,-4.603 1.482,-7.532c1.563,-3.965 2.06,-7.494 2.06,-14.61l0,-9.382l-3.368,-2.08c-4.352,-2.7 -12.305,-2.68 -19.338,0.024m12.16,3.515c3.26,1.252 6.24,10.762 4.963,15.848c-0.564,2.25 -1.11,2.552 -4.178,2.3c-3.137,-0.248 -3.64,0.054 -4.522,2.72c-1.362,4.12 -1.25,4.094 -5.088,1.167c-3.65,-2.784 -7.63,-9.842 -7.63,-13.53c0,-5.132 10.76,-10.7 16.455,-8.516m104.15,77.022c11.911,12.1 20.399,25.056 20.399,31.148c0,1.563 0.66,3.715 1.468,4.783c0.808,1.068 1.483,2.717 1.5,3.666c0.038,2.025 -1.5,1.85 -15.468,-1.772c-4.95,-1.283 -12.15,-2.62 -16,-2.973c-10.276,-0.94 -10.5,-1.054 -10.496,-5.297c0.006,-5.256 5.79,-35.232 7.106,-36.816c1.57,-1.9 3.942,-0.388 11.494,7.276m-132.06,37.107c18.484,13.074 21.932,15.774 22.25,17.423c0.224,1.165 -1.72,2.8 -6.487,5.42c-10.776,5.945 -25.132,15.7 -33.607,22.84c-4.29,3.612 -8.064,6.568 -8.387,6.568c-1.494,0 1.154,-12.463 5.586,-26.295c2.68,-8.363 5.392,-18.355 6.03,-22.205c1.54,-9.313 1.952,-10.5 3.64,-10.5c0.79,0 5.728,3.037 10.977,6.75m131.04,4.307c3.348,0.52 12.65,2.744 20.672,4.944c8.022,2.2 15.296,4 16.164,4c2.52,0 1.837,-2.138 -1.596,-5.004c-2.15,-1.796 -2.968,-3.184 -2.535,-4.31c0.527,-1.373 1.122,-1.48 3.423,-0.61c6.335,2.39 16.34,8.784 31.61,20.198c19.085,14.266 24.972,19.632 32.612,29.728c11.033,14.58 14.114,20.99 18.26,38c2.816,11.553 3.006,13.447 2.507,25c-0.597,13.846 -5.27,38.548 -9.1,48.09c-1.234,3.075 -6.897,12.975 -12.586,22c-8.664,13.746 -12.03,18.084 -20.722,26.7c-10.63,10.55 -22.714,19.284 -32.922,23.8c-3.135,1.386 -10.915,3.87 -17.288,5.518c-14.392,3.723 -28.086,4 -47.587,0.96c-15.207,-2.37 -34.842,-7.204 -40.224,-9.904c-2.077,-1.042 -6.926,-2.9 -10.776,-4.106c-8.24,-2.605 -36.777,-17.236 -47.5,-24.354c-8.784,-5.832 -24.782,-21.835 -33.203,-33.213c-7.75,-10.472 -11.762,-18.897 -17.272,-36.27c-4.27,-13.468 -4.523,-14.904 -4.5,-25.5c0.035,-11.296 1.662,-23.074 4.133,-29.922c2.805,-7.773 21.1,-29.584 31,-36.974c18.656,-13.917 39.202,-23.72 65.704,-31.348c11.584,-3.335 15.835,-4.178 17.25,-3.42c1.034,0.553 1.88,1.44 1.88,1.97c0,1.894 2.685,0.923 3.94,-1.425c1.754,-3.278 4.67,-4.4 13.503,-5.2c8.713,-0.8 8.423,-1.226 5.854,8.797c-0.945,3.69 -1.463,6.962 -1.15,7.274c1.438,1.44 3.63,-1.178 6.81,-8.136c2.102,-4.6 4.256,-7.87 5.5,-8.348c2.17,-0.836 8.178,-0.485 18.13,1.06m36.914,46.15c-6.64,2.32 -10.62,8.678 -8.554,13.665c1.383,3.337 10.548,8.462 15.135,8.462c8.036,0 10.713,-12.67 4.3,-20.304c-2.733,-3.248 -5.476,-3.708 -10.87,-1.823m-99.112,17.774c-2.633,1.064 -6.4,5.75 -6.355,7.905c0.04,1.905 2.205,4.572 6.794,8.365c10.327,8.537 24.654,-4.923 15.25,-14.327c-2.523,-2.523 -3.652,-2.914 -8.25,-2.86c-2.93,0.035 -6.277,0.448 -7.44,0.917m-62.8,27.565c-2.22,2.22 -3.886,9.27 -3.273,13.842c1.04,7.752 9.455,12.706 17.112,10.074c6.52,-2.242 10.563,-7.887 10.563,-14.75c0,-5.22 -2.462,-7.28 -10.873,-9.108c-9.193,-1.998 -11.58,-2.008 -13.53,-0.057m188.412,1.89c0,2.534 -0.69,2.92 -7.2,4.014c-6.662,1.122 -11.096,9.518 -9.005,17.053c1.73,6.24 13.078,10.357 19.76,7.17c7.535,-3.593 9.076,-10.88 4.476,-21.17c-3.97,-8.88 -8.04,-12.458 -8.04,-7.067m-177.913,4.172c1.15,1.386 0.86,1.995 -2.128,4.47c-4.973,4.12 -7.29,2.552 -5.024,-3.405c1.175,-3.1 5,-3.66 7.152,-1.066m100.242,15.586c-4.652,2.25 -5.533,10.963 -1.638,16.2c2.658,3.574 6.614,5.612 10.893,5.612c3.16,0 4.463,-0.726 8.095,-4.518c4.653,-4.855 5.105,-6.688 2.934,-11.884c-1.103,-2.64 -2.396,-3.68 -6.178,-4.968c-5.387,-1.836 -10.867,-2.007 -14.106,-0.44m8.113,4.704c0.304,0.492 -0.623,1.19 -2.06,1.55c-2.893,0.726 -3.917,0.244 -2.916,-1.375c0.8,-1.295 4.21,-1.413 4.975,-0.174m-83.257,9.727c-7.972,4.08 -10.735,14.43 -5.382,20.16c3.203,3.43 12.152,5.827 17.794,4.768c3.828,-0.718 13.08,-9.38 14.02,-13.126c1.982,-7.896 -17.267,-16.492 -26.432,-11.803m13.204,7.813c1.44,1.89 2.62,4.33 2.62,5.428c0,2.304 -4.422,6.14 -7.078,6.14c-4.308,0 -6.648,-9.435 -3.267,-13.17c2.46,-2.72 4.8,-2.234 7.726,1.604m116.632,32.037c-2.53,5.903 -16.43,19.942 -22.326,22.55c-4.272,1.9 -4.5,1.89 -17.258,-0.067c-16.233,-2.49 -15.444,-2.23 -24.624,-8.064c-7.853,-5 -10.805,-5.953 -10.805,-3.524c0,3.705 9.387,11.077 18.043,14.17c2.45,0.876 10.08,2.407 16.95,3.403c10.856,1.573 13.09,1.633 17.045,0.458c7.22,-2.144 13.384,-6.898 21.515,-16.588c6.763,-8.06 7.524,-9.388 7.25,-12.65c-0.47,-5.613 -3.317,-5.46 -5.79,0.31m30.19,69.03c7.196,13.598 23.925,55.35 24.53,61.225l0.574,5.555l-3.9,-0.732c-4.83,-0.906 -14.303,-4.7 -19.906,-7.994c-5.126,-3.004 -15.39,-16.31 -26.448,-34.283c-4.322,-7.025 -8.6,-12.922 -9.505,-13.105c-3.066,-0.62 -4.3,1.768 -5.01,9.6c-1.97,22.132 -4.886,35.94 -10.47,49.596c-7.887,19.305 -13.977,27.635 -20.193,27.635c-9.62,0 -16.368,-10.553 -16.306,-25.5c0.016,-3.85 1.07,-14.2 2.343,-23c1.273,-8.8 2.602,-21.175 2.952,-27.5l0.637,-11.5l13.628,-0.167c21.962,-0.268 37.02,-4.03 53.372,-13.336c3.85,-2.2 7.675,-3.873 8.5,-3.74c0.825,0.133 3.167,3.394 5.204,7.243"/></svg>