<?xml version="1.0" encoding="UTF-8" standalone="no"?><!DOCTYPE svg PUBLIC "-//W3C//DTD SVG 1.1//EN" "http://www.w3.org/Graphics/SVG/1.1/DTD/svg11.dtd"><svg width="100%" height="100%" viewBox="0 0 512 512" version="1.1" xmlns="http://www.w3.org/2000/svg" xmlns:xlink="http://www.w3.org/1999/xlink" xml:space="preserve" xmlns:serif="http://www.serif.com/" style="fill-rule:evenodd;clip-rule:evenodd;stroke-linejoin:round;stroke-miterlimit:2;"><path d="M251.078,44.25c-2.107,4.538 -4.786,8.816 -5.954,9.508c-1.168,0.692 -2.127,2.268 -2.13,3.5c-0.003,1.232 -0.926,3.592 -2.05,5.242c-1.124,1.65 -4.494,7.113 -7.487,12.14c-2.993,5.027 -6.12,9.4 -6.95,9.718c-0.913,0.35 -1.512,1.87 -1.52,3.86c-0.01,1.804 -0.346,3.798 -0.75,4.43c-0.455,0.71 -4.872,1.28 -11.594,1.492l-10.86,0.344l-2.294,-4.492c-2.76,-5.407 -11.606,-15.744 -15.774,-18.433c-1.654,-1.068 -6.342,-6.468 -10.417,-12c-4.075,-5.532 -9.14,-11.184 -11.255,-12.56c-2.115,-1.376 -5.446,-3.776 -7.4,-5.336c-6.67,-5.32 -7.18,-1.93 -2.165,14.4c1.913,6.228 4.2,16.073 5.086,21.88c1.83,12.016 3.585,18.89 7.07,27.713l2.432,6.157l-4.407,6.343c-5.94,8.55 -8.227,13.282 -12.7,26.298c-6.423,18.65 -8.848,29.73 -11.392,52.045c-1.534,13.462 -3.487,25.973 -8.197,52.5c-2.34,13.178 -2.76,18.346 -2.805,34.5c-0.05,18.29 0.054,19.317 2.792,27.5c4.287,12.812 11.305,27.035 15.456,31.322c6.1,6.31 16.193,14.06 25.07,19.268c4.604,2.7 8.587,5.467 8.852,6.148c0.265,0.681 -0.742,3.324 -2.236,5.875l-2.718,4.638l-5.135,-0.556c-3.89,-0.422 -10.71,-3.363 -28.134,-12.13c-23.997,-12.074 -35.158,-19.47 -41.055,-27.204c-4.075,-5.343 -17.825,-37.624 -21.605,-50.723c-2.14,-7.42 -3.187,-13.89 -3.9,-24.138c-0.537,-7.7 -1.417,-18.136 -1.958,-23.192c-1.387,-12.98 -1.22,-27.713 0.573,-50.724c1.542,-19.787 2.06,-22.25 5.477,-26.084c3.26,-3.656 6.202,-10.5 7.55,-17.578c1.485,-7.794 1.115,-9.922 -1.728,-9.922c-2.173,0 -8.916,3.248 -12.977,6.25c-3.274,2.42 -4.598,1.747 -5.445,-2.766c-0.69,-3.675 -7.173,-10.484 -9.983,-10.484c-1.953,0 -5.397,7.457 -5.426,11.75c-0.025,3.683 0.082,3.62 -3.707,2.178c-3.767,-1.435 -17.323,-3.725 -17.768,-3.002c-0.194,0.316 -0.67,2.697 -1.058,5.293c-0.607,4.055 -0.27,5.653 2.402,11.362c1.7,3.654 3.11,7 3.11,7.433c0,0.433 -1.356,1.263 -3.013,1.84c-3.567,1.243 -3.09,-0.184 -6.392,19.145c-2.62,15.348 -2.63,15.622 -1.13,28c1.93,15.91 1.92,22.67 -0.06,34.76c-2.3,14 -1.44,20.624 4.747,37.108c6.327,16.855 8.565,21.372 15.95,32.18c7.644,11.19 29.055,36.098 36.518,42.484c16.356,13.996 17.41,14.574 38.962,21.32c44.821,14.037 48.404,15.35 48.404,17.75c0,1.236 -1.378,7.913 -3.063,14.838c-1.685,6.925 -2.788,13.457 -2.452,14.515c0.336,1.058 2.164,2.436 4.063,3.063c2.125,0.7 3.452,1.79 3.452,2.83c0,0.93 -4.36,7.983 -9.7,15.673c-10.77,15.542 -11.872,18.99 -7.26,22.724c1.998,1.62 3.423,1.885 7.723,1.442c9.3,-0.96 15.412,-7.184 27.395,-27.9c2.772,-4.793 5.848,-8.972 6.834,-9.285c1.495,-0.474 19.192,5.36 20.634,6.804c0.25,0.25 0.798,5.598 1.22,11.887c0.502,7.485 1.288,12.177 2.274,13.585c2.598,3.71 6.793,6.405 10.804,6.943c7.317,0.98 8.47,-4.426 4.995,-23.41c-1.26,-6.886 -1.17,-7.976 2.145,-25.5l3.462,-18.307l11.982,-0.616c8.038,-0.413 16.47,-1.66 25.62,-3.786c24.338,-5.657 34.86,-9.828 46.567,-18.455c3.413,-2.515 10.388,-6.92 15.5,-9.8c6.553,-3.677 12.097,-7.905 18.795,-14.33c5.225,-5.012 14.675,-13.4 21,-18.66c14.447,-11.995 54.648,-51.692 59.102,-58.363c6.4,-9.583 10.915,-21.867 12.476,-33.937c2.026,-15.668 3.317,-21.39 6.035,-26.772c1.31,-2.6 2.88,-8 3.495,-12c1.646,-10.76 1.92,-11.184 8.925,-13.803c7.005,-2.619 16.888,-10.97 18.99,-16.046c1.066,-2.573 1.036,-3.31 -0.184,-4.53c-1.2,-1.2 -2.682,-1.28 -8.4,-0.454c-3.817,0.552 -8.18,1.012 -9.69,1.023c-2.7,0.02 -2.75,-0.108 -2.75,-5.856c0,-6.1 -3.882,-17.124 -6.03,-17.124c-1.753,0 -10.5,8.713 -12.53,12.48c-1.043,1.937 -2.206,3.52 -2.585,3.52c-0.379,0 -2.86,-0.93 -5.515,-2.068c-4.162,-1.784 -21.537,-5.895 -25.033,-5.923c-0.86,-0.006 -1.05,2.01 -0.687,7.24c0.765,10.986 0.89,11.26 9.04,19.8l7.6,7.955l-0.592,13.253c-0.87,19.47 -2.444,37.563 -3.76,43.252c-2.393,10.334 -7.107,18.556 -14.762,25.75c-3.95,3.712 -7.6,6.75 -8.11,6.75c-0.51,0 -7.23,4.93 -14.938,10.958c-19.825,15.502 -26.106,19.906 -38.6,27.06c-19.586,11.218 -24.614,15.02 -39,29.5c-14.2,14.292 -27.733,25.34 -35,28.57c-2.573,1.144 -9.865,2.337 -20.437,3.344c-22.662,2.158 -20.365,2.628 -24.414,-4.998c-2.242,-4.22 -3.068,-6.692 -2.317,-6.925c0.642,-0.2 7.018,-2.002 14.168,-4.007c25.732,-7.214 27.992,-8.146 32.85,-13.548c8.72,-9.7 12.44,-20.897 18.247,-54.957l5.592,-31c0.6,-2.475 1.138,-14.85 1.218,-27.5l0.146,-23l4.34,-14.5c4.1,-13.704 4.34,-15.187 4.366,-27c0.02,-8.964 -0.596,-15.612 -2.173,-23.5l-2.715,-14c-0.42,-2.446 0.66,-4.846 5.85,-13c6.003,-9.432 6.556,-10 9.737,-10c3.957,0 4.77,-1.465 2.625,-4.737c-1.418,-2.165 -1.38,-2.643 0.45,-5.81c3.34,-5.782 5.523,-10.975 9.265,-22.044c3.947,-11.675 4.762,-16.002 3.122,-16.58c-0.946,-0.334 -7.7,4.274 -25.864,17.673c-2.61,1.925 -6.078,4.4 -7.704,5.5c-1.626,1.1 -5.52,4.146 -8.652,6.768c-3.132,2.622 -6.714,5.035 -7.958,5.36c-2.265,0.595 -12.626,-2.898 -14.922,-5.03c-0.652,-0.604 -1.486,-2.33 -1.855,-3.834c-0.57,-2.322 -0.277,-2.885 1.934,-3.725c3.473,-1.32 3.296,-3.51 -0.408,-5.045c-3.67,-1.52 -5.04,-5.897 -3.53,-11.285c0.547,-1.953 0.336,-3.304 -0.702,-4.5c-2.202,-2.538 -2.925,-8.823 -1.18,-10.27c1.894,-1.57 1.8,-2.886 -0.386,-5.375c-0.997,-1.135 -2.625,-4.764 -3.617,-8.064c-2.4,-7.944 -4.29,-11.5 -6.14,-11.5c-0.928,0 -3.013,3.215 -5.35,8.25l0.005,-0.001Z" style="fill:#fff;"/><path d="M251.078,44.25c-2.107,4.538 -4.786,8.816 -5.954,9.508c-1.168,0.692 -2.127,2.268 -2.13,3.5c-0.003,1.232 -0.926,3.592 -2.05,5.242c-1.124,1.65 -4.494,7.113 -7.487,12.14c-2.993,5.027 -6.12,9.4 -6.95,9.718c-0.913,0.35 -1.512,1.87 -1.52,3.86c-0.01,1.804 -0.346,3.798 -0.75,4.43c-0.455,0.71 -4.872,1.28 -11.594,1.492l-10.86,0.344l-2.294,-4.492c-2.76,-5.407 -11.606,-15.744 -15.774,-18.433c-1.654,-1.068 -6.342,-6.468 -10.417,-12c-4.075,-5.532 -9.14,-11.184 -11.255,-12.56c-2.115,-1.376 -5.446,-3.776 -7.4,-5.336c-6.67,-5.32 -7.18,-1.93 -2.165,14.4c1.913,6.228 4.2,16.073 5.086,21.88c1.83,12.016 3.585,18.89 7.07,27.713l2.432,6.157l-4.407,6.343c-5.94,8.55 -8.227,13.282 -12.7,26.298c-6.423,18.65 -8.848,29.73 -11.392,52.045c-1.534,13.462 -3.487,25.973 -8.197,52.5c-2.34,13.178 -2.76,18.346 -2.805,34.5c-0.05,18.29 0.054,19.317 2.792,27.5c4.287,12.812 11.305,27.035 15.456,31.322c6.1,6.31 16.193,14.06 25.07,19.268c4.604,2.7 8.587,5.467 8.852,6.148c0.265,0.681 -0.742,3.324 -2.236,5.875l-2.718,4.638l-5.135,-0.556c-3.89,-0.422 -10.71,-3.363 -28.134,-12.13c-23.997,-12.074 -35.158,-19.47 -41.055,-27.204c-4.075,-5.343 -17.825,-37.624 -21.605,-50.723c-2.14,-7.42 -3.187,-13.89 -3.9,-24.138c-0.537,-7.7 -1.417,-18.136 -1.958,-23.192c-1.387,-12.98 -1.22,-27.713 0.573,-50.724c1.542,-19.787 2.06,-22.25 5.477,-26.084c3.26,-3.656 6.202,-10.5 7.55,-17.578c1.485,-7.794 1.115,-9.922 -1.728,-9.922c-2.173,0 -8.916,3.248 -12.977,6.25c-3.274,2.42 -4.598,1.747 -5.445,-2.766c-0.69,-3.675 -7.173,-10.484 -9.983,-10.484c-1.953,0 -5.397,7.457 -5.426,11.75c-0.025,3.683 0.082,3.62 -3.707,2.178c-3.767,-1.435 -17.323,-3.725 -17.768,-3.002c-0.194,0.316 -0.67,2.697 -1.058,5.293c-0.607,4.055 -0.27,5.653 2.402,11.362c1.7,3.654 3.11,7 3.11,7.433c0,0.433 -1.356,1.263 -3.013,1.84c-3.567,1.243 -3.09,-0.184 -6.392,19.145c-2.62,15.348 -2.63,15.622 -1.13,28c1.93,15.91 1.92,22.67 -0.06,34.76c-2.3,14 -1.44,20.624 4.747,37.108c6.327,16.855 8.565,21.372 15.95,32.18c7.644,11.19 29.055,36.098 36.518,42.484c16.356,13.996 17.41,14.574 38.962,21.32c44.821,14.037 48.404,15.35 48.404,17.75c0,1.236 -1.378,7.913 -3.063,14.838c-1.685,6.925 -2.788,13.457 -2.452,14.515c0.336,1.058 2.164,2.436 4.063,3.063c2.125,0.7 3.452,1.79 3.452,2.83c0,0.93 -4.36,7.983 -9.7,15.673c-10.77,15.542 -11.872,18.99 -7.26,22.724c1.998,1.62 3.423,1.885 7.723,1.442c9.3,-0.96 15.412,-7.184 27.395,-27.9c2.772,-4.793 5.848,-8.972 6.834,-9.285c1.495,-0.474 19.192,5.36 20.634,6.804c0.25,0.25 0.798,5.598 1.22,11.887c0.502,7.485 1.288,12.177 2.274,13.585c2.598,3.71 6.793,6.405 10.804,6.943c7.317,0.98 8.47,-4.426 4.995,-23.41c-1.26,-6.886 -1.17,-7.976 2.145,-25.5l3.462,-18.307l11.982,-0.616c8.038,-0.413 16.47,-1.66 25.62,-3.786c24.338,-5.657 34.86,-9.828 46.567,-18.455c3.413,-2.515 10.388,-6.92 15.5,-9.8c6.553,-3.677 12.097,-7.905 18.795,-14.33c5.225,-5.012 14.675,-13.4 21,-18.66c14.447,-11.995 54.648,-51.692 59.102,-58.363c6.4,-9.583 10.915,-21.867 12.476,-33.937c2.026,-15.668 3.317,-21.39 6.035,-26.772c1.31,-2.6 2.88,-8 3.495,-12c1.646,-10.76 1.92,-11.184 8.925,-13.803c7.005,-2.619 16.888,-10.97 18.99,-16.046c1.066,-2.573 1.036,-3.31 -0.184,-4.53c-1.2,-1.2 -2.682,-1.28 -8.4,-0.454c-3.817,0.552 -8.18,1.012 -9.69,1.023c-2.7,0.02 -2.75,-0.108 -2.75,-5.856c0,-6.1 -3.882,-17.124 -6.03,-17.124c-1.753,0 -10.5,8.713 -12.53,12.48c-1.043,1.937 -2.206,3.52 -2.585,3.52c-0.379,0 -2.86,-0.93 -5.515,-2.068c-4.162,-1.784 -21.537,-5.895 -25.033,-5.923c-0.86,-0.006 -1.05,2.01 -0.687,7.24c0.765,10.986 0.89,11.26 9.04,19.8l7.6,7.955l-0.592,13.253c-0.87,19.47 -2.444,37.563 -3.76,43.252c-2.393,10.334 -7.107,18.556 -14.762,25.75c-3.95,3.712 -7.6,6.75 -8.11,6.75c-0.51,0 -7.23,4.93 -14.938,10.958c-19.825,15.502 -26.106,19.906 -38.6,27.06c-19.586,11.218 -24.614,15.02 -39,29.5c-14.2,14.292 -27.733,25.34 -35,28.57c-2.573,1.144 -9.865,2.337 -20.437,3.344c-22.662,2.158 -20.365,2.628 -24.414,-4.998c-2.242,-4.22 -3.068,-6.692 -2.317,-6.925c0.642,-0.2 7.018,-2.002 14.168,-4.007c25.732,-7.214 27.992,-8.146 32.85,-13.548c8.72,-9.7 12.44,-20.897 18.247,-54.957l5.592,-31c0.6,-2.475 1.138,-14.85 1.218,-27.5l0.146,-23l4.34,-14.5c4.1,-13.704 4.34,-15.187 4.366,-27c0.02,-8.964 -0.596,-15.612 -2.173,-23.5l-2.715,-14c-0.42,-2.446 0.66,-4.846 5.85,-13c6.003,-9.432 6.556,-10 9.737,-10c3.957,0 4.77,-1.465 2.625,-4.737c-1.418,-2.165 -1.38,-2.643 0.45,-5.81c3.34,-5.782 5.523,-10.975 9.265,-22.044c3.947,-11.675 4.762,-16.002 3.122,-16.58c-0.946,-0.334 -7.7,4.274 -25.864,17.673c-2.61,1.925 -6.078,4.4 -7.704,5.5c-1.626,1.1 -5.52,4.146 -8.652,6.768c-3.132,2.622 -6.714,5.035 -7.958,5.36c-2.265,0.595 -12.626,-2.898 -14.922,-5.03c-0.652,-0.604 -1.486,-2.33 -1.855,-3.834c-0.57,-2.322 -0.277,-2.885 1.934,-3.725c3.473,-1.32 3.296,-3.51 -0.408,-5.045c-3.67,-1.52 -5.04,-5.897 -3.53,-11.285c0.547,-1.953 0.336,-3.304 -0.702,-4.5c-2.202,-2.538 -2.925,-8.823 -1.18,-10.27c1.894,-1.57 1.8,-2.886 -0.386,-5.375c-0.997,-1.135 -2.625,-4.764 -3.617,-8.064c-2.4,-7.944 -4.29,-11.5 -6.14,-11.5c-0.928,0 -3.013,3.215 -5.35,8.25m7.54,9.304c-0.516,1.345 -4.23,0.882 -5.174,-0.645c-0.29,-0.468 0.242,-2.326 1.18,-4.13l1.708,-3.28l1.4,3.382c0.764,1.86 1.167,3.962 0.895,4.672m-93.346,4.52c2.05,1.7 3.728,3.66 3.728,4.378c0,1.622 -5.442,3.977 -7.427,3.215c-2.607,-0.999 -3.361,-10.667 -0.837,-10.667c0.442,0 2.48,1.383 4.53,3.073m92.978,3.08c1.833,0.96 2.562,8.227 0.927,9.238c-0.84,0.52 -14.238,-1.12 -14.947,-1.828c-0.587,-0.587 1.74,-4.756 4.1,-7.347c2.132,-2.34 5.533,-2.36 9.92,-0.063m-80.924,11.667c3.53,3.614 3.635,3.905 1.953,5.387c-3.155,2.78 -13.61,7.86 -14.45,7.02c-0.448,-0.448 -1.095,-3.5 -1.438,-6.784l-0.624,-5.97l3.367,-1.673c5.087,-2.527 7.11,-2.162 11.192,2.02m83.828,3.933c0.4,0.41 1.062,2.724 1.448,5.14l0.702,4.394l-12.8,-0.73c-7.034,-0.4 -13.402,-0.963 -14.15,-1.25c-1.878,-0.72 -1.703,-2.235 0.718,-6.205l2.07,-3.398l10.628,0.65c5.845,0.357 10.963,0.986 11.374,1.397m68.474,6.78c-0.686,1.817 -2.616,1.939 -2.616,0.169c0,-1.82 2.372,-4.085 2.832,-2.705c0.196,0.59 0.103,1.73 -0.206,2.538m-141.57,0.717c2.523,3.023 2.415,5.43 -0.306,6.872c-1.238,0.656 -5.512,4.347 -9.5,8.203c-3.988,3.856 -7.486,6.773 -7.776,6.483c-1.216,-1.215 -4.412,-11.807 -3.937,-13.045c0.555,-1.448 16.08,-10.49 18.302,-10.66c0.737,-0.056 2.184,0.91 3.216,2.148m136.504,5.2c3.388,5.17 -0.66,8.682 -5.15,4.465c-2.856,-2.683 -3.055,-4.44 -0.66,-5.836c2.734,-1.592 4.076,-1.276 5.8,1.37m-65.842,2.182c4.028,0.455 5.362,1.043 5.85,2.58c0.348,1.094 0.25,2.332 -0.218,2.75c-0.893,0.8 -26.597,-0.42 -31.496,-1.495c-3.047,-0.67 -3.632,-2.26 -1.603,-4.364c1.238,-1.284 13.513,-1.047 27.468,0.53m-63.394,5.93c0.523,1.615 1.05,3.06 1.17,3.212c0.12,0.152 3.693,-0.488 7.936,-1.42c6.716,-1.476 8.905,-1.537 16.892,-0.47c5.047,0.673 16.602,1.643 25.677,2.155c16.232,0.916 16.536,0.975 18.688,3.635c1.88,2.322 2.52,2.553 4.53,1.637c3.22,-1.468 11.414,1.658 15.987,6.1c3.596,3.492 9.883,15.576 11.9,22.892c0.64,2.31 2.032,6.09 3.093,8.404c3.522,7.68 5.968,24.46 5.507,37.794c-0.364,10.554 -0.84,13.212 -3.943,22.055c-4.786,13.635 -5.03,15.583 -5.245,41.945c-0.157,19.09 -0.543,24.616 -2.27,32.5c-1.144,5.225 -3.272,16.7 -4.73,25.5c-2.953,17.836 -7.3,34.193 -10.976,41.3c-1.337,2.585 -4.145,6.6 -6.24,8.943c-3.7,4.12 -4.363,4.403 -22.81,9.705c-36.106,10.378 -47.167,9.776 -74.193,-4.037c-10.946,-5.595 -14.023,-7.734 -21.177,-14.728c-7.426,-7.26 -8.962,-9.423 -13.627,-19.183c-6.75,-14.12 -8.178,-19.957 -8.96,-36.6c-0.704,-15.01 0.001,-22.706 4.435,-48.4c3.374,-19.555 5.735,-35.954 6.62,-46c1.527,-17.304 9.95,-49.41 16.442,-62.67c7.3,-14.907 28.758,-39.064 33.343,-37.536c0.545,0.182 1.417,1.652 1.94,3.268m121.52,1.2c4.124,3.557 4.28,3.886 3.1,6.497c-0.7,1.513 -1.665,2.75 -2.168,2.75c-0.503,0 -3.243,-2.258 -6.09,-5.017c-4.973,-4.82 -5.1,-5.075 -3.235,-6.5c2.778,-2.123 3.554,-1.913 8.402,2.27m-8.52,9.166l6.125,5.92l-1.624,3.406c-3.367,7.06 -9,14.97 -9.984,13.996c-1.444,-1.444 -9.83,-19.514 -9.835,-21.192c-0.006,-1.88 5.964,-8.048 7.79,-8.048c0.772,0 4.16,2.664 7.527,5.92m-245.864,35.533c0.874,3.005 2.707,6.718 4.074,8.25l2.485,2.785l1.747,-2.11c1.334,-1.639 2.633,-3.306 3.896,-5c1.808,-2.43 2.443,-2.708 4,-1.75c1.242,0.763 1.8,2.18 1.697,4.307c-0.165,3.41 -4.58,10.575 -7.47,12.12c-2.35,1.258 -29.594,2.672 -31.45,1.632c-0.8,-0.448 -2.777,-3.43 -4.39,-6.63l-2.935,-5.814l2.2,-1.98c3.8,-3.408 4.543,-3.46 10.662,-0.713c7.79,3.497 9.038,2.964 9.038,-3.865c0,-5.814 0.41,-6.698 3.096,-6.698c1.274,0 2.202,1.513 3.35,5.465m398.983,24.106c2.205,2.206 1.96,5.5 -0.887,11.93c-3.843,8.7 -2.154,10.364 6.054,6c5.34,-2.84 13.404,-3.494 13.404,-1.09c0,2.382 -5.133,5.905 -15.285,10.492l-9.704,4.384l-8.065,-1.618c-4.595,-0.92 -9.222,-2.524 -10.755,-3.725c-5.656,-4.43 -12.292,-11.24 -13.805,-14.164c-1.473,-2.85 -1.447,-3.22 0.396,-5.664c1.664,-2.206 2.736,-2.6 6.845,-2.578c7.474,0.058 12.502,2.993 14.498,8.462c2.326,6.374 4.942,6.172 6.483,-0.5c2.72,-11.783 6.643,-16.106 10.82,-11.93m-393.709,31.181c-0.474,24.408 -0.308,32.09 0.806,37.25c0.77,3.575 1.42,10.717 1.438,15.872c0.037,9.88 2.18,26.823 4.58,36.225c1.418,5.543 16.634,43.413 20.456,50.903c3.023,5.924 15.927,16.1 31,24.42c15.92,8.798 33.588,16.978 40.25,18.635c4.233,1.053 4.75,1.482 4.75,3.94c0,4.714 -2.108,5.516 -9.258,3.522c-13.24,-3.693 -55.462,-17.864 -59.742,-20.05c-9.766,-5 -19.48,-13.48 -35.167,-30.74c-11.727,-12.9 -21.16,-25.297 -25.057,-32.93c-4.786,-9.367 -12.666,-29.132 -13.874,-34.797c-0.8,-3.8 -0.92,-8.92 -0.353,-16.5c1.085,-14.528 1.096,-31.327 0.03,-45.6c-0.765,-10.243 -0.595,-13.05 1.456,-24c1.277,-6.82 2.716,-12.85 3.198,-13.4c0.482,-0.55 3.214,-1.082 6.072,-1.182c2.858,-0.1 7.895,-0.597 11.195,-1.103c3.3,-0.506 8.884,-0.987 12.41,-1.068l6.4,-0.147l-0.598,30.75m131.53,-23.722c-7.678,3.537 -7.83,4.673 -1.706,12.818c5.688,7.567 13.477,12.488 27.363,17.286c9.48,3.276 19.47,1.754 25.33,-3.858c3.527,-3.38 3.488,-5.975 -0.168,-11.02c-5.47,-7.552 -12.63,-11.7 -27.08,-15.65c-11.9,-3.26 -15.898,-3.187 -23.74,0.426m21.21,4.486c14.185,3.686 21.752,8.126 25.194,14.783c1.476,2.853 1.458,3.148 -0.266,4.4c-6.666,4.873 -15.202,3.958 -29.812,-3.196c-7.313,-3.58 -9.966,-5.467 -12.177,-8.658l-2.827,-4.08l3.23,-2.887c3.93,-3.512 4.52,-3.525 16.658,-0.372m-7.22,3.106c-2.18,0.958 -3.402,4.207 -2.333,6.205c1.22,2.276 13.158,7.45 16.165,7.005c2.925,-0.434 4.378,-2.903 3.58,-6.084c-1,-4.023 -13.157,-8.995 -17.412,-7.126m233.68,20.505c9.45,1.615 10.29,2.207 9.5,6.68c-0.365,2.033 -1.688,6.17 -2.94,9.196c-1.997,4.822 -5,20.025 -7.037,35.5c-0.36,2.75 -1.917,8.052 -3.46,11.782c-5.65,13.664 -10.702,20.104 -33.15,42.268c-11.726,11.577 -24.02,23.277 -27.32,26c-14.11,11.643 -27.297,23.266 -31.18,27.48c-2.56,2.78 -7.972,6.606 -13.998,9.897c-5.403,2.95 -12.3,7.28 -15.324,9.618c-3.024,2.338 -8.295,5.646 -11.71,7.348c-12.974,6.466 -45.166,14.085 -59.564,14.098c-8.502,0.008 -8.805,-0.072 -9.75,-2.557c-1.155,-3.038 -1.288,-7.434 -0.225,-7.438c4.16,-0.016 32.238,-3.186 35.136,-3.966c8.592,-2.314 26.42,-16.182 41.106,-31.975c10.68,-11.484 17.56,-16.746 35.508,-27.162c6.05,-3.51 18.28,-11.846 27.175,-18.523c8.895,-6.677 18.572,-13.516 21.5,-15.2c6.616,-3.803 18.862,-14.912 22.887,-20.762c3.22,-4.682 7.324,-14.7 8.905,-21.764c0.53,-2.363 1.44,-10.562 2.02,-18.22c1.47,-19.372 3.447,-33.425 4.7,-33.425c0.357,0 3.61,0.506 7.23,1.125m-272.415,92.018c-0.324,1.296 -0.457,6.632 -0.296,11.857c0.27,8.72 0.456,9.5 2.284,9.5c1.442,0 3.254,-2.21 6.563,-8c4.54,-7.944 4.602,-8.002 9.01,-8.334c5.808,-0.438 32.445,1.696 35.453,2.84c1.6,0.612 3.554,3.477 6.24,9.192c4.594,9.78 6.57,11.905 8.902,9.574c1.732,-1.733 4.052,-16.483 3.016,-19.18c-1.286,-3.352 -7.608,-4.685 -32.032,-6.757c-40.886,-3.467 -38.455,-3.424 -39.138,-0.69m6.493,5.363c0,0.825 -0.45,1.5 -1,1.5c-0.55,0 -1,-0.675 -1,-1.5c0,-0.825 0.45,-1.5 1,-1.5c0.55,0 1,0.675 1,1.5m59.225,4.75c0.242,0.688 0.158,2.37 -0.185,3.74c-0.657,2.617 -1.286,2.124 -2.985,-2.346c-0.865,-2.274 -0.744,-2.644 0.863,-2.644c1.027,0 2.066,0.563 2.307,1.25m-44.838,67.642c3.666,1.133 11.3,2.348 17.1,2.724c10.377,0.67 10.517,0.713 13.006,3.977c1.385,1.815 4.284,6.954 6.443,11.42c3.72,7.69 3.9,8.497 3.418,15.303c-0.754,10.664 -6.371,36.684 -7.924,36.684c-0.702,0 -2.55,-1.054 -4.104,-2.34c-3.73,-3.09 -26.698,-9.922 -41.166,-12.246c-15.27,-2.454 -15.054,-2.246 -12.445,-12.04c1.153,-4.33 2.402,-10.083 2.776,-12.783c0.446,-3.227 1.41,-5.502 2.82,-6.642c1.947,-1.578 2.015,-1.97 0.745,-4.342c-1.29,-2.412 -1.105,-3.18 2.467,-10.22c4.636,-9.133 7.282,-12.677 8.98,-12.025c0.694,0.266 4.242,1.404 7.884,2.53m6.4,16.882c-0.815,0.95 -1.76,2.514 -2.103,3.476c-0.47,1.323 -1.743,1.75 -5.225,1.75c-3.842,0 -4.55,0.3 -4.28,1.75c0.18,0.962 1.766,2.385 3.53,3.16c3,1.317 3.224,1.785 3.5,7c0.388,7.345 2.655,7.62 4.872,0.59l1.577,-5l5.092,-0.3c4.912,-0.29 8.038,-2.123 6.863,-4.025c-0.3,-0.502 -2.824,-1.212 -5.587,-1.58c-4.916,-0.652 -5.022,-0.738 -5.022,-4.072c0,-4.082 -1.195,-5.105 -3.214,-2.75m-15.97,45.377l2.32,0.853l-4.165,7.817c-6.6,12.407 -11.783,18.847 -17.42,21.687c-2.72,1.37 -6.04,2.493 -7.375,2.493c-2.196,0 -2.368,-0.305 -1.793,-3.18c0.706,-3.533 4.7,-10.116 11.27,-18.576c2.39,-3.077 4.344,-6.13 4.344,-6.785c0,-0.655 0.92,-2.36 2.046,-3.79c2.116,-2.69 4.548,-2.808 10.773,-0.52m40.085,13.3c2.175,1.125 3.174,2.767 4.45,7.316c1.83,6.517 2.073,11 0.716,13.155c-1.303,2.06 -5.66,-0.995 -7.402,-5.19c-2.326,-5.596 -3,-16.73 -1.01,-16.73c0.243,0 1.704,0.653 3.247,1.45"/></svg>