<?xml version="1.0" encoding="UTF-8" standalone="no"?><!DOCTYPE svg PUBLIC "-//W3C//DTD SVG 1.1//EN" "http://www.w3.org/Graphics/SVG/1.1/DTD/svg11.dtd"><svg width="100%" height="100%" viewBox="0 0 512 512" version="1.1" xmlns="http://www.w3.org/2000/svg" xmlns:xlink="http://www.w3.org/1999/xlink" xml:space="preserve" xmlns:serif="http://www.serif.com/" style="fill-rule:evenodd;clip-rule:evenodd;stroke-linejoin:round;stroke-miterlimit:2;"><path d="M265.258,55.466c-12.903,2.68 -16.798,4.677 -26.758,13.717c-13.583,12.33 -19.684,19.673 -29.86,35.943c-3.655,5.844 -8.946,13.494 -11.757,17c-7.927,9.885 -18.878,27.086 -26.34,41.374c-3.734,7.15 -7.512,13.824 -8.395,14.83c-1.47,1.676 -2.762,1.772 -15.21,1.13c-14.65,-0.755 -20.993,0.277 -28.34,4.613c-4.614,2.722 -8.598,8.136 -8.598,11.684c0,3.34 2.04,5.463 10.25,10.66c3.162,2.003 5.75,3.986 5.75,4.408c0,1.574 -7.964,8.267 -23.207,19.504c-13.617,10.04 -16.764,12.906 -23.646,21.544c-11.03,13.844 -20.22,27.227 -27.013,39.332c-3.176,5.66 -9.065,15.242 -13.086,21.292c-8.92,13.423 -9.203,14.072 -13,29.96c-4.062,16.996 -4.2,28.208 -0.476,36.1c7.112,15.033 25.674,26.453 43.156,26.55c6.666,0.037 7.7,-0.257 13.42,-3.784c6.165,-3.81 6.242,-3.826 18.335,-4.153c9.197,-0.248 12.41,-0.005 13.246,1c0.68,0.82 1.24,8.214 1.462,19.328c0.488,24.357 2.27,27.832 14.34,27.947c8.514,0.082 9.883,-1.877 13.856,-19.807c1.79,-8.074 3.807,-15.234 4.483,-15.9c2.44,-2.44 10.224,-1.407 18.63,2.472c7.632,3.522 8.576,3.71 20.5,4.064c11.428,0.34 13.4,0.696 23,4.14c16.973,6.088 16.865,6.072 28.43,4.174c17.766,-2.915 22.59,-2.468 42.39,3.933l17.32,5.6l20.124,-1.153c23.164,-1.327 22.7,-1.48 22.785,7.48c0.092,9.734 6.724,17.446 15.747,18.313c9.532,0.916 14.194,-4.298 14.22,-15.905c0.007,-3.492 0.3,-7.418 0.65,-8.724c0.596,-2.23 0.985,-2.344 6.285,-1.863c3.606,0.327 9.612,2.21 16.6,5.207c10.17,4.36 11.45,4.67 17.95,4.342c5.244,-0.265 8.667,-1.138 13.647,-3.482c6.14,-2.89 6.963,-3.668 10.794,-10.228c4.82,-8.254 5.402,-8.418 18.06,-5.1c4.125,1.08 10.457,1.973 14.07,1.983c6.08,0.016 6.876,-0.245 10.678,-3.5c2.26,-1.934 4.567,-4.97 5.128,-6.75c0.561,-1.78 1.764,-11.453 2.672,-21.5c2.205,-24.382 1.653,-40.124 -1.952,-55.64c-2.923,-12.58 -14.977,-51.614 -19.33,-62.594c-3.272,-8.255 -9.852,-17.976 -20.212,-29.86c-4.487,-5.147 -8.023,-10.063 -7.856,-10.924c0.182,-0.942 3.475,-2.715 8.278,-4.456c4.387,-1.6 8.622,-3.424 9.412,-4.076c4.927,-4.064 6.955,-18.833 3.42,-24.91c-1.63,-2.8 -3.276,-3.74 -11.357,-6.48c-8.447,-2.862 -10.695,-3.208 -21.134,-3.25c-11.582,-0.047 -11.7,-0.07 -13.632,-2.797c-2.17,-3.06 -4.29,-8.967 -6.2,-17.25c-1.828,-7.964 -5.347,-15.235 -17.242,-35.634c-15.907,-27.277 -26.185,-40.81 -42.04,-55.357c-11.345,-10.413 -14.612,-12.817 -23.205,-17.023c-20.14,-9.856 -37.44,-12.053 -59.242,-7.525l0,0.001Z" style="fill:#fff;"/><path d="M265.258,55.466c-12.903,2.68 -16.798,4.677 -26.758,13.717c-13.583,12.33 -19.684,19.673 -29.86,35.943c-3.655,5.844 -8.946,13.494 -11.757,17c-7.927,9.885 -18.878,27.086 -26.34,41.374c-3.734,7.15 -7.512,13.824 -8.395,14.83c-1.47,1.676 -2.762,1.772 -15.21,1.13c-14.65,-0.755 -20.993,0.277 -28.34,4.613c-4.614,2.722 -8.598,8.136 -8.598,11.684c0,3.34 2.04,5.463 10.25,10.66c3.162,2.003 5.75,3.986 5.75,4.408c0,1.574 -7.964,8.267 -23.207,19.504c-13.617,10.04 -16.764,12.906 -23.646,21.544c-11.03,13.844 -20.22,27.227 -27.013,39.332c-3.176,5.66 -9.065,15.242 -13.086,21.292c-8.92,13.423 -9.203,14.072 -13,29.96c-4.062,16.996 -4.2,28.208 -0.476,36.1c7.112,15.033 25.674,26.453 43.156,26.55c6.666,0.037 7.7,-0.257 13.42,-3.784c6.165,-3.81 6.242,-3.826 18.335,-4.153c9.197,-0.248 12.41,-0.005 13.246,1c0.68,0.82 1.24,8.214 1.462,19.328c0.488,24.357 2.27,27.832 14.34,27.947c8.514,0.082 9.883,-1.877 13.856,-19.807c1.79,-8.074 3.807,-15.234 4.483,-15.9c2.44,-2.44 10.224,-1.407 18.63,2.472c7.632,3.522 8.576,3.71 20.5,4.064c11.428,0.34 13.4,0.696 23,4.14c16.973,6.088 16.865,6.072 28.43,4.174c17.766,-2.915 22.59,-2.468 42.39,3.933l17.32,5.6l20.124,-1.153c23.164,-1.327 22.7,-1.48 22.785,7.48c0.092,9.734 6.724,17.446 15.747,18.313c9.532,0.916 14.194,-4.298 14.22,-15.905c0.007,-3.492 0.3,-7.418 0.65,-8.724c0.596,-2.23 0.985,-2.344 6.285,-1.863c3.606,0.327 9.612,2.21 16.6,5.207c10.17,4.36 11.45,4.67 17.95,4.342c5.244,-0.265 8.667,-1.138 13.647,-3.482c6.14,-2.89 6.963,-3.668 10.794,-10.228c4.82,-8.254 5.402,-8.418 18.06,-5.1c4.125,1.08 10.457,1.973 14.07,1.983c6.08,0.016 6.876,-0.245 10.678,-3.5c2.26,-1.934 4.567,-4.97 5.128,-6.75c0.561,-1.78 1.764,-11.453 2.672,-21.5c2.205,-24.382 1.653,-40.124 -1.952,-55.64c-2.923,-12.58 -14.977,-51.614 -19.33,-62.594c-3.272,-8.255 -9.852,-17.976 -20.212,-29.86c-4.487,-5.147 -8.023,-10.063 -7.856,-10.924c0.182,-0.942 3.475,-2.715 8.278,-4.456c4.387,-1.6 8.622,-3.424 9.412,-4.076c4.927,-4.064 6.955,-18.833 3.42,-24.91c-1.63,-2.8 -3.276,-3.74 -11.357,-6.48c-8.447,-2.862 -10.695,-3.208 -21.134,-3.25c-11.582,-0.047 -11.7,-0.07 -13.632,-2.797c-2.17,-3.06 -4.29,-8.967 -6.2,-17.25c-1.828,-7.964 -5.347,-15.235 -17.242,-35.634c-15.907,-27.277 -26.185,-40.81 -42.04,-55.357c-11.345,-10.413 -14.612,-12.817 -23.205,-17.023c-20.14,-9.856 -37.44,-12.053 -59.242,-7.525m37.476,9.016c5.745,1.392 13.753,4.25 18.26,6.514c6.9,3.47 9.81,5.864 20.766,17.082c9.775,10.01 15.497,17.048 24.58,30.234c16.386,23.8 26.277,39.956 28.17,46.038l12.278,37.484l10.674,32.334l5.02,3.624c6.82,4.925 19.806,17.502 24.993,24.208c6.734,8.705 11.65,19.67 20.852,46.5c11.693,34.095 13.098,41.6 12.352,66c-0.83,27.153 -2.5,38.345 -6.078,40.735c-2.293,1.53 -13.048,0.668 -23.12,-1.856c-9.998,-2.505 -10.576,-2.546 -13.065,-0.914c-1.433,0.938 -3.35,3.063 -4.26,4.72c-3.926,7.155 -7.37,10.9 -12.395,13.445c-7.065,3.593 -11.653,3.497 -20.424,-0.425c-13.554,-6.06 -17.455,-6.665 -42.835,-6.634c-12.65,0.015 -30.875,0.393 -40.5,0.84l-17.5,0.812l-17.34,-5.178c-20.366,-6.08 -27.32,-6.907 -39.237,-4.662c-12.21,2.3 -15.87,2.056 -28.003,-1.866c-8.706,-2.815 -13.42,-3.68 -24.595,-4.52c-15.525,-1.164 -18.81,-1.96 -25.516,-6.18c-3.126,-1.966 -6.915,-3.267 -11.347,-3.895c-3.66,-0.518 -12.798,-2.823 -20.307,-5.123c-13.572,-4.155 -13.748,-4.18 -29.154,-4.136c-12.948,0.036 -17.476,0.48 -27.5,2.685c-6.6,1.452 -13.925,2.643 -16.28,2.646c-8.32,0.01 -23.056,-9.83 -27.363,-18.273c-3.805,-7.458 -2.167,-24.886 4.033,-42.906c2.625,-7.628 4.572,-11.158 10.635,-19.276c2.892,-3.872 6.713,-9.965 8.5,-13.54c3.747,-7.535 17.416,-27.872 26.535,-39.48c10.884,-13.853 18.166,-20.53 33.45,-30.668c15.475,-10.272 18.873,-11.85 25.511,-11.85c3.933,0 4.27,0.217 4.85,3.125c0.344,1.72 0.625,9.188 0.625,16.6c0,15.19 1.372,20.276 5.47,20.276c2.012,0 2.3,-0.635 2.887,-6.147c0.353,-3.38 0.645,-9.343 0.65,-13.25c0.015,-14.444 4.296,-31.443 13.516,-53.67c9.665,-23.297 18.445,-38.565 31.664,-55.063c4.244,-5.297 12.056,-16.322 17.362,-24.5c9.858,-15.198 18.337,-24.956 28.666,-32.99c6.328,-4.922 10.433,-6.648 22.284,-9.373c11.285,-2.595 20.103,-2.465 32.234,0.474m-69.082,52.518c-1.88,1.65 -4.618,5.535 -6.084,8.632c-1.466,3.097 -3.768,7.075 -5.116,8.843c-3.785,4.96 -2.856,7.577 1.92,5.4c2.188,-0.997 2.932,-0.8 5.652,1.488c4.103,3.453 6.733,3.324 12.558,-0.615c5.577,-3.772 9.42,-10.23 9.42,-15.83c0,-3.182 -0.647,-4.32 -4.18,-7.343c-5.385,-4.61 -9.4,-4.772 -14.17,-0.577m69.85,0.87c-7.96,4.944 -9.56,10.17 -5.53,18.068c1.117,2.2 2.03,5.8 2.03,8.02c0,2.76 0.435,4.04 1.375,4.04c0.756,0 5.68,-2 10.944,-4.44c7.343,-3.41 9.93,-5.14 11.125,-7.45c3.094,-5.983 1.417,-12.523 -4.485,-17.49c-3.86,-3.25 -10.885,-3.59 -15.46,-0.748m-151.499,73.456c1.864,0.966 2.45,2.006 2.298,4.09c-0.274,3.77 -2.84,7.462 -6.03,8.675c-4.72,1.795 -23.77,-5.513 -23.77,-9.12c0,-0.807 1.575,-2.255 3.5,-3.216c4.313,-2.155 20.122,-2.436 24,-0.428m289.18,10.306c3.195,0.897 6.984,2.718 8.418,4.047c2.244,2.08 2.51,2.934 1.915,6.113c-0.382,2.032 -0.908,4.042 -1.17,4.467c-1.967,3.183 -21.287,8.9 -24.117,7.124c-1.813,-1.13 -5.474,-10.3 -6.62,-16.58c-0.6,-3.34 -0.404,-3.847 2.1,-5.2c3.685,-1.998 12.266,-1.98 19.465,0.04m-183.524,36.2c-3.557,3.93 -0.952,11.17 4.02,11.17c4.858,0 7.6,-9.707 3.392,-11.965c-2.884,-1.543 -5.555,-1.257 -7.41,0.794m-122.384,168.022c0.53,0.53 0.297,2.686 -0.57,5.267c-0.806,2.404 -1.78,6.845 -2.163,9.87c-1.012,7.994 -2.646,13 -4.245,13c-0.768,0 -2.33,-2.11 -3.47,-4.686c-1.82,-4.117 -1.936,-5.278 -0.944,-9.576c0.62,-2.7 1.13,-7.084 1.13,-9.765c0,-3.508 0.467,-5.135 1.666,-5.806c1.73,-0.967 6.967,0.066 8.597,1.696m221.424,26.923c2.598,1.65 4.202,9.733 2.706,13.632c-0.92,2.4 -4.197,1.896 -6.94,-1.064c-3.07,-3.31 -3.276,-8.53 -0.452,-11.354c2.177,-2.177 2.885,-2.36 4.687,-1.214"/></svg>