<?xml version="1.0" encoding="UTF-8" standalone="no"?><!DOCTYPE svg PUBLIC "-//W3C//DTD SVG 1.1//EN" "http://www.w3.org/Graphics/SVG/1.1/DTD/svg11.dtd"><svg width="100%" height="100%" viewBox="0 0 512 512" version="1.1" xmlns="http://www.w3.org/2000/svg" xmlns:xlink="http://www.w3.org/1999/xlink" xml:space="preserve" xmlns:serif="http://www.serif.com/" style="fill-rule:evenodd;clip-rule:evenodd;stroke-linejoin:round;stroke-miterlimit:2;"><path d="M97.788,17.36c-2.7,2.066 -3.42,9.68 -1.507,15.958c2.1,6.895 5.797,11.872 11.898,16.015c1.793,1.216 3.386,2.542 3.54,2.943c0.154,0.401 -0.144,2.2 -0.662,3.973c-1.822,6.265 -0.895,11.246 5.036,27.074c0.502,1.34 1.294,4.87 1.76,7.85c0.466,2.98 1.094,6.338 1.394,7.465c0.762,2.873 12.493,20.298 17.136,25.454c8.202,9.112 10.478,11.426 12.734,12.955c1.285,0.87 3.828,3.037 5.65,4.816l3.315,3.235l-1.212,1.3c-0.668,0.71 -1.212,1.85 -1.212,2.538c0,0.688 -0.47,2.183 -1.045,3.328c-1.94,3.858 -4.18,15.71 -5.693,30.106c-2.018,19.2 -3.828,31.372 -5.646,37.974c-1.19,4.32 -2.696,23.757 -2.734,35.273c-0.02,5.866 1.5,17.032 2.795,20.407c1.33,3.488 2.882,12.534 3.045,17.733c0.093,2.985 0.443,7.02 0.774,8.97c1.095,6.414 2.93,20.383 4.588,34.94c1.854,16.275 2.685,20.035 9.354,42.327c2.253,7.533 7.355,21.705 8.937,24.827c0.794,1.566 2.324,5.135 3.4,7.933c1.076,2.798 2.89,6.47 4.03,8.167c1.336,2.011 2.602,4.068 3.796,6.167c2.325,4.163 9.132,13.14 14.843,19.576c3.848,4.337 5.536,5.755 9.45,7.94c2.62,1.463 6.532,3.792 8.7,5.175c2.168,1.383 4.51,2.812 5.228,3.174c0.752,0.382 2.07,2.26 3.117,4.442c2.977,6.214 4.128,7.7 8.504,10.99c8.71,6.567 16.457,8.22 42.018,8.978c5.55,0.165 12.866,0.61 16.258,1c6.928,0.776 20.28,0.836 35.32,0.16c9.613,-0.433 10.277,-0.395 14.016,0.8c4.23,1.365 4.263,1.366 33.218,1.88c8.095,0.143 15.916,0.532 17.38,0.866c1.464,0.334 6.148,0.856 10.41,1.164c7.36,0.532 7.866,0.5 10.092,-0.62c3.588,-1.803 4.305,-2.646 4.305,-5.057c0,-3.12 -2.7,-5.866 -8.667,-8.778c-4.534,-2.216 -5.083,-2.354 -9.702,-2.34c-2.693,0.004 -6.4,0.374 -8.26,0.82c-1.86,0.446 -5.35,0.82 -7.772,0.832l-4.41,0.02l0.36,-1.822c1.407,-7.15 0.888,-18.41 -1.298,-28.172l-1.773,-8.4c-1.088,-5.683 -3.902,-14.39 -5.89,-18.22c-1.04,-2.004 -3.028,-6.26 -4.416,-9.456c-1.388,-3.196 -3.448,-6.938 -4.576,-8.314c-1.128,-1.376 -3.523,-5.244 -5.322,-8.592c-3.404,-6.34 -8.91,-14.474 -11.298,-16.7c-2.18,-2.024 -10.544,-7.3 -13.198,-8.327c-2.346,-0.907 -2.54,-0.89 -7.704,0.634c-4.7,1.4 -5.567,1.854 -7.748,4.184c-4.485,4.795 -5.97,9.206 -6.46,19.184c-0.32,6.48 -0.696,8.437 -1.475,7.658c-0.157,-0.157 -1.29,-3.037 -2.518,-6.4c-3.245,-8.882 -4.374,-10.746 -8.74,-14.42c-2.13,-1.793 -5.397,-5.073 -7.257,-7.288c-2.8,-3.333 -3.712,-4.06 -5.276,-4.212c-2.867,-0.276 -6.236,1.292 -9.124,4.25c-2.833,2.898 -3.887,5.868 -4.63,13.033c-0.269,2.359 -0.68,4.699 -1.231,7.008c-1.603,6.312 -2.495,15.127 -2.67,26.35c-0.095,6.167 -0.364,13.544 -0.598,16.393l-0.425,5.18l-2.58,1.708c-2.95,1.955 -3.015,1.973 -10.17,2.8c-2.93,0.34 -7.647,1.374 -10.485,2.3c-2.838,0.926 -5.982,1.605 -6.987,1.507c-1.746,-0.17 -1.887,-0.366 -3.154,-4.382c-0.73,-2.313 -2.588,-9.63 -4.13,-16.26l-2.802,-12.053l0.048,-15.137c0.053,-16.735 -0.383,-23.17 -2.422,-35.786c-2.412,-14.922 -3.342,-22.425 -3.227,-26.076c0.117,-3.802 2.018,-10.047 4.063,-13.355c1.168,-1.9 1.2,-2.347 0.833,-11.6l-0.852,-24.198c-0.258,-8.017 -0.992,-19.243 -1.63,-24.948c-0.836,-7.477 -1.33,-17.32 -1.766,-35.264l-0.823,-25.245c-0.185,-0.3 -0.62,-10.807 -2.222,-53.72c-0.296,-7.93 -0.74,-7.257 6.19,-9.394c2.652,-0.82 5.41,-2.233 7.943,-4.076c2.135,-1.553 4.893,-3.34 6.128,-3.97c2.75,-1.404 7.266,-6.296 8.61,-9.332c1.788,-4.036 2.348,-9 1.93,-17.1c-0.747,-14.41 -4.878,-32.657 -8.617,-38.067c-0.56,-0.8 -2.108,-3.5 -3.438,-5.957c-3.164,-5.864 -11.972,-14.714 -19.91,-20c-8.64,-5.756 -21.31,-11.512 -28.146,-12.787c-18.188,-3.4 -22.27,-3.784 -29.723,-2.868c-2.843,0.35 -7.98,1.55 -11.416,2.67l-6.245,2.033l-1.466,-1.903c-3.33,-4.322 -7.044,-7.753 -10.222,-9.446c-5.782,-3.082 -25.225,-6.192 -27.556,-4.407l-0.003,0.002l-0.005,0.01Z" style="fill:#fff;"/><path d="M97.788,17.36c-2.7,2.066 -3.42,9.68 -1.507,15.958c2.1,6.895 5.797,11.872 11.898,16.015c1.793,1.216 3.386,2.542 3.54,2.943c0.154,0.401 -0.144,2.2 -0.662,3.973c-1.822,6.265 -0.895,11.246 5.036,27.074c0.502,1.34 1.294,4.87 1.76,7.85c0.466,2.98 1.094,6.338 1.394,7.465c0.762,2.873 12.493,20.298 17.136,25.454c8.202,9.112 10.478,11.426 12.734,12.955c1.285,0.87 3.828,3.037 5.65,4.816l3.315,3.235l-1.212,1.3c-0.668,0.71 -1.212,1.85 -1.212,2.538c0,0.688 -0.47,2.183 -1.045,3.328c-1.94,3.858 -4.18,15.71 -5.693,30.106c-2.018,19.2 -3.828,31.372 -5.646,37.974c-1.19,4.32 -2.696,23.757 -2.734,35.273c-0.02,5.866 1.5,17.032 2.795,20.407c1.33,3.488 2.882,12.534 3.045,17.733c0.093,2.985 0.443,7.02 0.774,8.97c1.095,6.414 2.93,20.383 4.588,34.94c1.854,16.275 2.685,20.035 9.354,42.327c2.253,7.533 7.355,21.705 8.937,24.827c0.794,1.566 2.324,5.135 3.4,7.933c1.076,2.798 2.89,6.47 4.03,8.167c1.336,2.011 2.602,4.068 3.796,6.167c2.325,4.163 9.132,13.14 14.843,19.576c3.848,4.337 5.536,5.755 9.45,7.94c2.62,1.463 6.532,3.792 8.7,5.175c2.168,1.383 4.51,2.812 5.228,3.174c0.752,0.382 2.07,2.26 3.117,4.442c2.977,6.214 4.128,7.7 8.504,10.99c8.71,6.567 16.457,8.22 42.018,8.978c5.55,0.165 12.866,0.61 16.258,1c6.928,0.776 20.28,0.836 35.32,0.16c9.613,-0.433 10.277,-0.395 14.016,0.8c4.23,1.365 4.263,1.366 33.218,1.88c8.095,0.143 15.916,0.532 17.38,0.866c1.464,0.334 6.148,0.856 10.41,1.164c7.36,0.532 7.866,0.5 10.092,-0.62c3.588,-1.803 4.305,-2.646 4.305,-5.057c0,-3.12 -2.7,-5.866 -8.667,-8.778c-4.534,-2.216 -5.083,-2.354 -9.702,-2.34c-2.693,0.004 -6.4,0.374 -8.26,0.82c-1.86,0.446 -5.35,0.82 -7.772,0.832l-4.41,0.02l0.36,-1.822c1.407,-7.15 0.888,-18.41 -1.298,-28.172l-1.773,-8.4c-1.088,-5.683 -3.902,-14.39 -5.89,-18.22c-1.04,-2.004 -3.028,-6.26 -4.416,-9.456c-1.388,-3.196 -3.448,-6.938 -4.576,-8.314c-1.128,-1.376 -3.523,-5.244 -5.322,-8.592c-3.404,-6.34 -8.91,-14.474 -11.298,-16.7c-2.18,-2.024 -10.544,-7.3 -13.198,-8.327c-2.346,-0.907 -2.54,-0.89 -7.704,0.634c-4.7,1.4 -5.567,1.854 -7.748,4.184c-4.485,4.795 -5.97,9.206 -6.46,19.184c-0.32,6.48 -0.696,8.437 -1.475,7.658c-0.157,-0.157 -1.29,-3.037 -2.518,-6.4c-3.245,-8.882 -4.374,-10.746 -8.74,-14.42c-2.13,-1.793 -5.397,-5.073 -7.257,-7.288c-2.8,-3.333 -3.712,-4.06 -5.276,-4.212c-2.867,-0.276 -6.236,1.292 -9.124,4.25c-2.833,2.898 -3.887,5.868 -4.63,13.033c-0.269,2.359 -0.68,4.699 -1.231,7.008c-1.603,6.312 -2.495,15.127 -2.67,26.35c-0.095,6.167 -0.364,13.544 -0.598,16.393l-0.425,5.18l-2.58,1.708c-2.95,1.955 -3.015,1.973 -10.17,2.8c-2.93,0.34 -7.647,1.374 -10.485,2.3c-2.838,0.926 -5.982,1.605 -6.987,1.507c-1.746,-0.17 -1.887,-0.366 -3.154,-4.382c-0.73,-2.313 -2.588,-9.63 -4.13,-16.26l-2.802,-12.053l0.048,-15.137c0.053,-16.735 -0.383,-23.17 -2.422,-35.786c-2.412,-14.922 -3.342,-22.425 -3.227,-26.076c0.117,-3.802 2.018,-10.047 4.063,-13.355c1.168,-1.9 1.2,-2.347 0.833,-11.6l-0.852,-24.198c-0.258,-8.017 -0.992,-19.243 -1.63,-24.948c-0.836,-7.477 -1.33,-17.32 -1.766,-35.264l-0.823,-25.245c-0.185,-0.3 -0.62,-10.807 -2.222,-53.72c-0.296,-7.93 -0.74,-7.257 6.19,-9.394c2.652,-0.82 5.41,-2.233 7.943,-4.076c2.135,-1.553 4.893,-3.34 6.128,-3.97c2.75,-1.404 7.266,-6.296 8.61,-9.332c1.788,-4.036 2.348,-9 1.93,-17.1c-0.747,-14.41 -4.878,-32.657 -8.617,-38.067c-0.56,-0.8 -2.108,-3.5 -3.438,-5.957c-3.164,-5.864 -11.972,-14.714 -19.91,-20c-8.64,-5.756 -21.31,-11.512 -28.146,-12.787c-18.188,-3.4 -22.27,-3.784 -29.723,-2.868c-2.843,0.35 -7.98,1.55 -11.416,2.67l-6.245,2.033l-1.466,-1.903c-3.33,-4.322 -7.044,-7.753 -10.222,-9.446c-5.782,-3.082 -25.225,-6.192 -27.556,-4.407m12.18,3.877l8.62,1.936c1.965,0.43 4.866,1.51 6.447,2.4c2.882,1.623 7.636,6.738 7.636,8.228c0,0.437 -2.334,1.993 -5.186,3.46c-4.07,2.09 -6.12,3.613 -9.522,7.075c-4.83,4.91 -4.945,4.936 -9.15,2.057c-4.73,-3.238 -8.108,-8.142 -9.996,-14.51c-1.145,-3.857 -1.145,-6.7 -0.002,-9.558c0.873,-2.18 0.985,-2.253 3.504,-2.24c1.43,0.007 4.872,0.53 7.647,1.163m0.42,6.76c-0.384,0.384 -0.7,1.547 -0.7,2.586c0,1.153 -0.55,2.607 -1.413,3.74c-1.587,2.08 -1.373,3.686 0.49,3.667c1.57,-0.017 3.117,-1.337 5.422,-4.625c1.595,-2.276 1.795,-2.903 1.345,-4.205c-0.424,-1.214 -0.936,-1.564 -2.49,-1.695c-1.075,-0.09 -2.27,0.148 -2.653,0.533m60.69,4.094c7.768,1.226 15.847,3.084 20.18,4.642c5.33,1.916 16.328,7.483 19.002,9.62c1.2,0.958 2.343,1.74 2.542,1.74c0.199,0 3.2,2.596 6.67,5.77c6.474,5.92 8.983,9.127 13.252,16.937c2.423,4.433 5.912,14.437 5.912,16.95c0,0.715 0.538,3.374 1.198,5.9c1.024,3.945 1.205,6.3 1.26,16.383c0.052,9.754 -0.093,12.1 -0.843,13.736c-1.42,3.074 -5.138,6.894 -8.424,8.654c-1.65,0.885 -4.175,2.456 -5.61,3.493c-3.576,2.583 -6.83,3.937 -11.132,4.63c-3.42,0.553 -3.7,0.516 -4.552,-0.617c-0.873,-1.153 -1.054,-1.174 -4.205,-0.47c-5.038,1.125 -8.58,1.315 -11.682,0.628c-4.164,-0.924 -19.668,0.477 -23.835,2.153c-1.69,0.68 -4.337,1.33 -5.882,1.444c-2.357,0.176 -3.222,-0.053 -5.352,-1.42c-1.397,-0.897 -3.3,-2.424 -4.21,-3.394c-0.91,-0.97 -3.055,-2.717 -4.752,-3.882c-3.82,-2.625 -5.2,-3.977 -8.41,-8.178c-1.711,-2.205 -3.509,-4.34 -5.391,-6.401c-1.577,-1.7 -3.497,-4.097 -4.266,-5.33c-0.769,-1.233 -2.85,-4.26 -4.622,-6.728c-4.653,-6.484 -6.406,-10.247 -7.026,-15.138c-0.312,-2.46 -1.977,-8.39 -4.05,-14.42c-3.353,-9.762 -3.52,-10.498 -3.52,-15.572c0.001,-5.573 -0.028,-5.477 3.787,-12.614c0.66,-1.234 2.39,-3.402 3.84,-4.82c2.766,-2.694 11.936,-7.787 14.048,-7.787c0.67,0 1.635,-0.38 2.147,-0.842c1.117,-1.01 7.752,-3.43 13.174,-4.807c4.882,-1.24 13.84,-1.346 20.743,-0.26m21.642,29.036c-0.712,2.196 -2.34,24.278 -2.823,38.264c-0.32,9.286 -0.098,12.067 0.963,12.045c1.687,-0.037 1.91,-1.23 2.38,-12.67c0.608,-14.802 2.07,-33.02 2.838,-35.388c0.793,-2.44 0.212,-4.074 -1.448,-4.074c-0.995,0 -1.466,0.45 -1.91,1.822m17.255,84.095c0.74,2.763 1.746,24.563 1.75,37.882c0,5.033 0.37,15.124 0.823,22.426c0.453,7.302 0.942,21.475 1.1,31.496c0.203,13.82 0.55,20.456 1.435,27.47c0.642,5.088 1.397,15.558 1.68,23.266l0.915,21.754c0.4,7.71 0.398,7.74 -0.858,8.068c-1.08,0.282 -1.21,0.58 -0.894,2.073c1,4.775 0.934,6.255 -0.52,10.153c-0.806,2.158 -1.613,5.7 -1.795,7.85c-0.323,3.837 0.467,14.88 1.505,21.023c3.058,18.118 3.573,25.22 3.394,46.813c-0.093,11.154 -0.082,11.27 2.182,21.83c1.252,5.84 2.902,12.903 3.668,15.697c1.945,7.096 1.867,8.79 -0.486,10.587c-1.034,0.79 -2.2,2.207 -2.59,3.15c-0.862,2.08 -1.644,2.137 -4.4,0.32c-1.16,-0.768 -3.655,-2 -5.55,-2.74c-4.855,-1.902 -7.68,-4.02 -12.538,-9.395c-7.182,-7.945 -17.914,-23.107 -20.694,-29.233c-7.782,-17.147 -12.85,-31.527 -18.42,-52.262c-2.696,-10.035 -2.867,-11.08 -5.706,-34.76l-3.043,-24.668c-0.448,-3.392 -0.953,-8.438 -1.1,-11.213c-0.308,-5.46 -1.31,-10.782 -3.15,-16.744c-2.76,-8.936 -3.192,-15.692 -2.315,-36.236c0.415,-9.727 0.846,-14.275 1.648,-17.38c1.127,-4.36 1.867,-8.145 2.904,-14.857l1.397,-8.97c0.435,-2.775 0.948,-7.2 1.138,-9.81c0.219,-2.903 0.507,-5.801 0.865,-8.69l1.12,-8.7c0.335,-2.62 1.218,-7.508 1.962,-10.86c1.157,-5.214 1.686,-6.526 3.635,-9.052c2.475,-3.208 3.64,-3.852 8.527,-4.7c1.766,-0.3 3.9,-0.917 4.766,-1.35c3.102,-1.568 10.426,-2.223 20.508,-1.835c5.645,0.22 10.336,0.153 11.32,-0.158c1.118,-0.325 2.27,-0.52 3.43,-0.58c1.597,-0.045 1.805,0.16 2.388,2.334m-34.68,19.666c-4.644,2.445 -5.754,4.03 -6.69,9.545c-0.82,4.824 -0.31,5.746 4.513,8.156c4.945,2.47 8.205,2.406 12.13,-0.237c1.927,-1.285 3.888,-2.519 5.879,-3.702c5.634,-3.304 8.338,-5.676 8.157,-7.158c-0.138,-1.14 -0.702,-1.503 -3.528,-2.282c-1.85,-0.505 -3.876,-1.208 -4.502,-1.55c-0.916,-0.5 -13.2,-3.532 -14.274,-3.513c-0.157,0.002 -0.915,0.336 -1.686,0.74m11.8,5.473c4.285,1.405 5.578,2.045 5.578,2.76c0,0.802 -5.703,3.905 -7.187,3.91c-0.715,0.003 -2.4,0.762 -3.745,1.687c-2.854,1.964 -3.66,2.032 -6.868,0.576c-2.104,-0.955 -2.382,-1.298 -2.382,-2.935c0,-2.846 0.988,-5.66 2.382,-6.778c1.61,-1.292 6.942,-0.952 12.22,0.778m2.83,14.287c-4.603,3.874 -2.932,12.77 2.887,15.375c2.843,1.272 3.68,0.998 5.846,-1.923c3.03,-4.086 3.494,-7.698 1.497,-11.66c-1.698,-3.37 -7.208,-4.334 -10.23,-1.79m7.236,3.04c0.617,0.617 1.12,1.59 1.12,2.16c0,1.483 -1.142,4.713 -1.988,5.623c-1.086,1.166 -3.462,0.314 -4.45,-1.595c-1.81,-3.502 -0.357,-7.308 2.793,-7.308c0.77,0 1.906,0.505 2.523,1.12m-22.336,2.26c-5.878,1.54 -12.423,5.494 -12.423,7.504c0,1.446 1.613,2.06 6.298,2.388c8,0.565 11.342,-1.206 14.81,-7.85c1.716,-3.287 -1.262,-3.988 -8.685,-2.044m2.153,4.457c0,0.672 -2.707,1.415 -3.234,0.89c-0.487,-0.488 0.982,-1.42 2.253,-1.43c0.54,-0.004 0.98,0.24 0.98,0.542m10.265,11.848c-2.31,0.66 -4.173,3.31 -4.525,6.436c-0.264,2.34 -0.14,2.6 2.317,5.068c2.42,2.42 2.75,2.575 4.86,2.293c3.102,-0.417 3.66,-1.032 4.415,-4.876c0.59,-2.988 0.542,-3.553 -0.448,-5.494c-1.75,-3.43 -3.478,-4.325 -6.62,-3.427m3.52,5.14c0.28,0.885 -0.028,1.498 -1.24,2.47c-0.888,0.71 -1.866,1.2 -2.175,1.1c-1.086,-0.35 -0.936,-3.084 0.234,-4.253c1.312,-1.31 2.64,-1.03 3.18,0.673m-9.864,27.9c-2.004,0.235 -4.628,0.727 -5.83,1.09c-3.133,0.95 -7.16,5.3 -8.682,9.362c-1.103,2.95 -1.157,3.534 -0.508,5.52c0.63,1.932 1.204,2.46 4.413,4.074c4.328,2.174 7.82,2.433 12.382,0.92c5.4,-1.794 12.512,-10.72 12.136,-15.233c-0.153,-1.833 -0.555,-2.348 -3.257,-4.177c-3.308,-2.236 -4.01,-2.34 -10.652,-1.557m8.627,4.638c1.522,1.218 1.58,1.412 0.97,3.263c-0.357,1.082 -1.847,3.46 -3.31,5.29c-2.268,2.83 -3.145,3.48 -5.92,4.383c-2.823,0.92 -3.65,0.972 -6.22,0.398c-5.785,-1.3 -6.754,-4.623 -2.836,-9.754c2.567,-3.362 5.982,-4.694 12.334,-4.812c2.732,-0.056 3.667,0.18 4.982,1.234m1.058,31.582c-1.303,0.46 -3.592,1.94 -5.087,3.283c-1.495,1.343 -4.087,3.087 -5.76,3.872c-5.486,2.573 -11.424,5.973 -12.902,7.386c-0.8,0.764 -2.003,2.5 -2.676,3.838c-1.485,2.974 -0.922,4.833 1.86,6.154c2.998,1.423 10.204,1.75 14.037,0.633c5.113,-1.486 10.806,-4.608 13.725,-7.527c5.906,-5.906 6.798,-16.143 1.565,-17.967c-2.036,-0.7 -1.784,-0.727 -4.762,0.327m3.75,4.376c0.95,1.144 0.247,3.818 -1.41,5.382c-0.903,0.848 -1.373,1.905 -1.373,3.086c0,1.51 -0.48,2.166 -3.002,4.113c-4.31,3.324 -10.165,5.23 -15.34,4.993c-2.226,-0.102 -4.353,-0.49 -4.727,-0.865c-1.076,-1.077 0.49,-3.375 3.426,-5.035c1.4,-0.785 4.057,-2.397 5.907,-3.57c1.85,-1.173 4.316,-2.528 5.48,-3.014c1.164,-0.486 3.08,-1.752 4.257,-2.817c3.214,-2.904 5.595,-3.7 6.783,-2.267m-6.373,38.518c-0.547,0.78 -0.766,2.03 -0.614,3.504c0.496,4.848 2.094,18.307 3,25.277c0.936,7.2 0.964,7.29 2.44,7.457c1.086,0.126 1.678,-0.17 2.175,-1.1c0.852,-1.592 1.75,-29.997 0.992,-31.443c-0.28,-0.536 -1.104,-1.124 -1.833,-1.306c-0.729,-0.182 -2.03,-1.07 -2.893,-1.97c-1.876,-1.96 -2.164,-1.996 -3.265,-0.424m-20.45,12.942c-2.41,0.95 -3.175,1.572 -3.825,3.126c-1.1,2.632 -0.626,4.02 2.285,6.703c1.865,1.718 3.12,2.377 5.1,2.673c2.922,0.44 3.67,0.188 8.322,-2.788c4.25,-2.72 4.244,-3.806 -0.056,-7.14c-3.16,-2.454 -6.113,-3.87 -7.92,-3.797c-0.493,0.02 -2.253,0.57 -3.912,1.224m7.003,3.977c1.734,1.493 1.562,2.84 -0.484,3.77c-1.008,0.46 -1.877,0.34 -3.94,-0.545c-3.11,-1.333 -3.335,-2.3 -0.825,-3.56c2.51,-1.26 3.478,-1.19 5.25,0.334m18.63,28.058c-3.436,0.925 -8.514,4.026 -10.898,6.652c-2.93,3.23 -2.644,4.485 2.064,9.123c2.185,2.15 4.192,4.464 4.46,5.14c0.614,1.553 2.58,2.855 5.776,3.815c3.446,1.038 4.727,0.133 4.962,-3.503c0.17,-2.515 0.277,-2.68 2.43,-3.493c3.285,-1.242 7.947,-4.262 8.673,-5.62c0.47,-0.876 0.453,-1.96 -0.064,-4.272c-0.61,-2.717 -1.002,-3.308 -3.205,-4.825c-3.16,-2.173 -7.41,-3.808 -9.772,-3.76c-0.998,0.02 -2.99,0.354 -4.428,0.74m9.63,4.056c2.31,0.925 3.914,3.05 3.914,5.188c0,2.26 -4.823,4.752 -6.804,3.514c-2.835,-1.77 -4.97,0.038 -4.97,4.21c0,1.648 -0.24,2.996 -0.533,2.996c-0.293,0 -1.19,-0.864 -1.997,-1.92c-0.807,-1.056 -2.837,-2.98 -4.513,-4.273c-1.765,-1.36 -3.05,-2.792 -3.05,-3.4c0,-1.124 3.834,-4.2 7.57,-6.094c2.754,-1.388 7.232,-1.484 10.382,-0.22m79.983,7.64c1.16,1.3 3.493,3.644 5.185,5.186c7.73,7.044 7.96,7.378 10.88,15.762c3.557,10.21 5.368,13.902 6.93,14.126c0.745,0.106 1.433,-0.236 1.78,-0.888c0.673,-1.255 1.75,-11.125 1.75,-16.026c0,-6.166 2.465,-12.818 5.987,-16.153c1.724,-1.632 7.574,-3.83 10.2,-3.83c1.668,0 7.007,2.734 10.734,5.496c4.076,3.022 9.656,10.743 13.173,18.232c1.328,2.83 3.822,6.967 5.54,9.195c4.84,6.278 12.723,24.205 14.097,32.064c0.45,2.596 1.07,5.624 1.366,6.728c2.656,9.873 3.504,22.525 1.976,29.48c-0.54,2.467 -1.365,5.145 -1.83,5.952c-0.583,1.01 -0.726,2.108 -0.458,3.533c0.555,2.955 1.8,3.162 3.897,0.652c1.72,-2.048 1.858,-2.1 7.08,-2.6c2.93,-0.276 6.444,-0.774 7.8,-1.107c1.356,-0.333 4.52,-0.64 7.008,-0.685c3.894,-0.07 4.993,0.14 7.888,1.502c3.84,1.806 7.008,4.536 7.008,6.04c0,1.94 -2.397,2.216 -13.147,1.523c-5.566,-0.36 -16.564,-0.703 -24.44,-0.765c-7.876,-0.062 -14.62,-0.297 -14.986,-0.524c-0.366,-0.227 -3.553,-0.407 -7.08,-0.4c-4.52,0.007 -7.628,-0.304 -10.523,-1.056c-4.73,-1.228 -11.396,-1.413 -29.15,-0.81c-7.6,0.258 -14.546,0.158 -20.183,-0.29c-4.728,-0.376 -13.768,-0.9 -20.09,-1.167c-11.47,-0.484 -25.44,-2.122 -29.153,-3.42c-2.424,-0.848 -3.674,-1.622 -8.874,-5.493c-3.438,-2.56 -4.416,-3.67 -6.002,-6.82c-1.47,-2.92 -1.822,-4.197 -1.575,-5.714c0.188,-1.163 0.065,-2.11 -0.306,-2.34c-1.192,-0.738 -0.694,-3.545 0.845,-4.755c2.383,-1.873 15.28,-5.185 24.322,-6.244c6.094,-0.714 11.104,-2.657 13.164,-5.107c1.79,-2.127 2.052,-4.328 2.24,-18.766c0.194,-14.955 0.897,-23.032 2.78,-31.986c0.785,-3.758 1.438,-7.56 1.438,-8.45c0,-4.457 3.15,-9.71 6.947,-11.584c2.65,-1.307 3.476,-1.092 5.77,1.497m2.887,25.37c-2.196,1.213 -3.514,5.574 -3.015,9.984c0.47,4.155 0.98,5.175 3.284,6.58c3.076,1.876 12.678,1.228 13.5,-0.91c0.182,-0.473 -0.045,-1.76 -0.505,-2.86c-0.46,-1.1 -0.84,-2.468 -0.84,-3.04c0,-2.752 -1.864,-5.632 -5.044,-7.79c-3.886,-2.64 -5.417,-3.046 -7.383,-1.96m6.144,4.743c3.248,2.352 4.687,7.744 2.396,8.97c-2.172,1.162 -6.284,0.432 -7.457,-1.326c-0.622,-0.93 -0.504,-6.985 0.152,-8.222c0.814,-1.52 2.245,-1.352 4.9,0.577m27.97,3.968c-3.296,0.574 -3.77,1.404 -4.34,7.607c-0.766,8.323 -1.563,23.895 -1.26,24.68c0.146,0.38 1.014,0.95 1.93,1.27c0.916,0.32 2.97,1.69 4.58,3.045c1.61,1.355 3.466,2.748 4.14,3.104c3.23,1.68 8.84,0.056 13.378,-3.872c1.41,-1.22 2.76,-2.22 2.998,-2.22c0.673,0 4.544,-4.034 4.544,-4.734c0,-0.342 0.883,-2.466 1.962,-4.718c2.26,-4.71 2.41,-6.693 0.822,-10.932c-0.826,-2.21 -2.122,-4.007 -4.71,-6.534c-4.287,-4.186 -6.042,-5.403 -9.005,-6.25c-2.555,-0.73 -11.832,-1.004 -15.035,-0.447m-118.944,3.58c-8.57,1.36 -8.7,1.542 -6.686,8.838c1.944,7.008 2.347,7.98 3.92,9.458c1.256,1.18 1.514,1.22 3.74,0.555c2.82,-0.84 6.78,-3.625 9.612,-6.76c2.347,-2.598 2.37,-2.725 0.987,-5.488c-0.573,-1.143 -1.204,-2.7 -1.4,-3.475c-0.406,-1.578 -2.352,-3.174 -4.35,-3.572c-0.73,-0.145 -3.353,0.056 -5.82,0.447m135.673,0.718c2.777,1.484 8.423,7.185 9.22,9.31c0.99,2.64 0.73,7.027 -0.52,8.783c-0.613,0.86 -1.597,2.7 -2.186,4.065c-1.722,4.014 -5.14,6.066 -6.792,4.074c-1.02,-1.23 -1.682,-1.028 -1.682,0.516c0,1.61 -2.14,2.3 -5.478,1.768c-2.542,-0.406 -3.76,0.27 -3.347,1.853c0.273,1.043 0.175,1.1 -0.9,0.54c-1.318,-0.7 -6.043,-4.82 -6.598,-5.768c-0.19,-0.325 -0.153,-5.704 0.083,-11.954c0.57,-15.14 0.057,-14.445 10.635,-14.406c4.34,0.016 5.74,0.24 7.568,1.218m-130.161,3.273c1.107,1.106 1.664,3.81 1.21,5.874c-0.42,1.918 -4.294,5.064 -6.234,5.064c-0.955,0 -1.446,-0.555 -2.11,-2.383c-1.625,-4.475 -2.04,-6.74 -1.384,-7.534c1.408,-1.696 7.153,-2.385 8.516,-1.02m89.507,28.574c-3.74,1.006 -5.685,2.173 -8.256,4.962c-3.202,3.474 -4.42,8.44 -2.89,11.796c0.99,2.174 5.427,4.284 9.006,4.284c3.88,0 13.488,-2.467 16.567,-4.262c3.127,-1.818 3.88,-3.223 2.7,-5.026c-1.12,-1.72 -1.626,-1.713 -2.78,0.038c-1.194,1.822 -2.864,1.923 -2.318,0.14c1.544,-5.03 0.513,-9.817 -2.434,-11.3c-2.185,-1.1 -6.74,-1.4 -9.595,-0.633m8.488,3.613c1.81,1.467 1.777,5 -0.084,8.74c-1.64,3.3 -3.5,4.166 -9.81,4.61c-3.432,0.24 -4.12,0.122 -5.467,-0.946c-1.698,-1.346 -1.825,-2.06 -0.93,-5.28c1.6,-5.8 12.2,-10.432 16.286,-7.123m-41,8.736c-1.56,1.387 -3.44,2.916 -4.175,3.398c-4.73,3.1 -3.626,11.964 1.71,13.724c4.47,1.476 8.533,-1.124 10.368,-6.637c0.916,-2.752 1.05,-3.868 0.603,-5.045c-0.316,-0.832 -0.734,-2.467 -0.928,-3.646c-0.4,-2.416 -2.002,-4.314 -3.637,-4.314c-0.606,0 -2.38,1.135 -3.94,2.52m4.482,5.508c0,3.128 -0.21,3.816 -1.802,5.886c-2.325,3.026 -4.08,3.16 -5.235,0.4c-0.446,-1.07 -0.812,-2.352 -0.812,-2.85c0,-1.03 6.073,-6.948 7.148,-6.966c0.487,-0.01 0.7,1.063 0.7,3.53"/></svg>