<?xml version="1.0" encoding="UTF-8" standalone="no"?><!DOCTYPE svg PUBLIC "-//W3C//DTD SVG 1.1//EN" "http://www.w3.org/Graphics/SVG/1.1/DTD/svg11.dtd"><svg width="100%" height="100%" viewBox="0 0 512 512" version="1.1" xmlns="http://www.w3.org/2000/svg" xmlns:xlink="http://www.w3.org/1999/xlink" xml:space="preserve" xmlns:serif="http://www.serif.com/" style="fill-rule:evenodd;clip-rule:evenodd;stroke-linejoin:round;stroke-miterlimit:2;"><path d="M138.23,98.362c-1.023,0.413 -3.798,3.603 -4.782,5.497c-0.316,0.607 -1.403,2.003 -2.415,3.1c-1.103,1.198 -2.004,2.73 -2.251,3.829c-0.226,1.008 -1.662,4.093 -3.19,6.856c-1.529,2.763 -3.395,6.789 -4.148,8.948c-1.24,3.555 -1.333,4.223 -0.99,7.075c0.448,3.721 1.439,4.846 4.269,4.846c0.987,0 1.794,0.119 1.794,0.265c0,0.145 -1.943,2.17 -4.318,4.499c-2.49,2.441 -4.865,5.259 -5.609,6.655c-1.338,2.508 -4.7,5.192 -6.504,5.192c-0.865,0 -7.306,-1.34 -15.454,-3.214c-2.183,-0.503 -4.891,-1.308 -6.017,-1.791c-1.126,-0.483 -2.765,-1.033 -3.643,-1.222c-2.359,-0.51 -4.945,-1.941 -5.763,-3.188c-0.681,-1.039 -0.571,-1.46 2.07,-7.994c1.534,-3.794 2.789,-7.256 2.789,-7.694c0,-1.409 0.855,-2.453 2.235,-2.729c3.733,-0.746 3.782,-4.512 0.072,-5.627c-0.635,-0.19 -1.933,-1.046 -2.886,-1.9c-2.869,-2.575 -5.651,-1.904 -5.338,1.287c0.125,1.268 -0.058,1.614 -1.132,2.135c-1.084,0.527 -1.961,0.514 -5.732,-0.088c-2.448,-0.39 -4.64,-0.899 -4.872,-1.13c-0.253,-0.254 -0.197,-1.772 0.143,-3.82c0.486,-2.931 0.463,-3.636 -0.168,-5.128c-0.883,-2.088 -2.678,-3.105 -3.817,-2.16c-0.584,0.485 -0.699,1.125 -0.501,2.797c0.141,1.192 0.04,2.964 -0.225,3.937c-0.885,3.262 -0.967,3.291 -9.576,3.462c-7.688,0.152 -7.742,0.161 -9.999,1.556c-1.248,0.772 -2.528,1.941 -2.845,2.6c-0.687,1.427 -1.771,7.19 -2.197,11.685c-0.169,1.777 -0.599,4.645 -0.958,6.375c-0.943,4.547 -0.886,17.122 0.09,20.025c0.409,1.214 2.209,4.78 4.001,7.925c3.249,5.702 3.256,5.721 2.723,7.713c-0.691,2.583 -0.1,4.334 1.463,4.334c1.347,0 1.927,-0.648 2.704,-3.02c0.35,-1.067 0.933,-1.877 1.419,-1.971c0.454,-0.087 2.995,0.499 5.648,1.304c5.443,1.65 6.381,1.625 12.405,-0.33c5.305,-1.722 6.531,-3.037 7.222,-7.749c0.298,-2.03 0.611,-3.945 0.697,-4.254c0.291,-1.052 2.608,-1.24 4.795,-0.39c4.337,1.687 6.925,1.975 16.625,1.85c6.898,-0.089 10.183,-0.32 12.135,-0.856c4.168,-1.143 4.223,-1.12 6.164,2.575c2.154,4.099 3.673,5.227 11.379,8.449c3.175,1.328 7.139,3.277 8.808,4.332c5.68,3.587 15.257,8.962 19.468,10.927c6.087,2.839 8.111,3.147 18.409,2.805c4.822,-0.161 13.974,-0.396 20.338,-0.522c15.035,-0.299 23.633,-0.902 30.187,-2.119c6.698,-1.243 12.131,-1.402 13.149,-0.385c0.66,0.659 0.511,1.327 -1.654,7.382c-1.309,3.661 -2.98,7.851 -3.715,9.311c-2.278,4.53 -3.15,7.159 -4.531,13.666c-1.559,7.35 -4.619,15.317 -8.479,22.074c-1.438,2.518 -2.614,4.773 -2.614,5.013c0,0.239 -0.493,1.367 -1.096,2.507c-0.602,1.14 -2.249,5.193 -3.659,9.006c-4.006,10.827 -5.754,14.972 -7.698,18.252c-2.001,3.375 -2.924,4.333 -3.84,3.981c-0.544,-0.209 -5.206,-10.688 -6.098,-13.709c-0.808,-2.737 -5.938,-12.618 -8.89,-17.123c-6.511,-9.939 -13.911,-16.737 -22.752,-20.905c-5.707,-2.69 -8.586,-3.404 -16.281,-4.037c-7.553,-0.621 -12.418,-0.159 -20.409,1.94c-9.979,2.621 -15.631,5.66 -21.368,11.491c-7.773,7.902 -11.954,17.446 -13.37,30.526c-0.231,2.132 -0.742,6.056 -1.137,8.721c-1.619,10.92 -1.963,35.122 -0.618,43.394c1.265,7.782 3.321,14.781 6.418,21.853c3.448,7.873 16.462,28.915 22.574,36.501c1.231,1.527 5.703,6.071 9.94,10.098c9.223,8.766 10.857,9.697 20.687,11.787c11.351,2.413 15.563,3.297 21.042,4.412c2.943,0.6 7.819,1.727 10.832,2.504c3.014,0.778 6.666,1.414 8.115,1.414c6.136,0 14.557,-3.073 21.721,-7.925c4.219,-2.858 9.125,-8.243 13.717,-15.056c2.672,-3.965 5.386,-7.366 7.285,-9.13c2.802,-2.602 3.053,-2.997 3.381,-5.306c1.178,-8.295 -0.092,-11.954 -4.146,-11.954c-1.494,0 -2.64,1.357 -2.173,2.574c0.164,0.425 -0.057,0.656 -0.627,0.656c-1.156,0 -7.211,-5.84 -7.893,-7.614c-0.301,-0.783 -0.708,-6.294 -0.938,-12.688c-0.222,-6.218 -0.611,-12.8 -0.864,-14.628c-0.252,-1.828 -0.345,-3.619 -0.207,-3.979c0.275,-0.719 4.721,-1.085 17.731,-1.462c3.933,-0.114 8.542,-0.317 10.24,-0.452c3.981,-0.315 7.585,0.439 8.412,1.76c0.343,0.548 0.761,1.827 0.93,2.842c0.168,1.015 1.137,4.637 2.152,8.049c3.263,10.962 7.483,17.449 14.251,21.908c4.406,2.902 4.664,3.378 4.156,7.648c-0.226,1.903 -0.645,6.056 -0.931,9.228c-0.286,3.172 -0.712,5.965 -0.947,6.207c-0.27,0.276 -0.993,0.233 -1.96,-0.116c-2.311,-0.835 -3.441,-0.677 -4.278,0.6c-0.671,1.025 -0.68,1.268 -0.075,2.191c0.374,0.571 2.078,1.855 3.786,2.854c1.708,0.998 3.624,2.495 4.258,3.327c1.494,1.958 2.654,2.297 4.485,1.31c1.435,-0.773 1.666,-0.747 9.526,1.065c4.43,1.021 9.819,2.119 11.977,2.439c7.44,1.104 29.964,0.695 40.373,-0.735c2.538,-0.348 5.964,-0.755 7.613,-0.904c1.65,-0.148 5.076,-0.673 7.613,-1.166c2.538,-0.493 8.04,-1.547 12.228,-2.342c4.187,-0.796 10.52,-2.338 14.073,-3.428c8.578,-2.63 24.802,-8.808 30.036,-11.438c4.304,-2.163 12.121,-7.231 15.95,-10.343c6.39,-5.19 8.926,-7.383 13.57,-11.73c2.81,-2.631 7.31,-6.729 10,-9.107c8.392,-7.42 12.995,-13.84 18.569,-25.899c4.35,-9.413 4.831,-11.383 5.406,-22.147l0.504,-9.459l-1.755,-6.46c-2.653,-9.762 -7.233,-20.055 -12.236,-27.5c-5.637,-8.387 -9.554,-12.597 -17.985,-19.327c-12.129,-9.684 -21.082,-14.467 -36.876,-19.704c-5.969,-1.979 -12.071,-3.05 -17.109,-3.003c-7.666,0.071 -17.713,2.202 -26.395,5.598c-4.958,1.94 -52.222,25.444 -57.238,28.464c-6.593,3.969 -15.552,11.259 -21.55,17.533c-4.108,4.297 -11.042,12.79 -18.366,22.495c-1.843,2.443 -3.538,4.442 -3.766,4.442c-0.227,0 -1.606,-2.44 -3.064,-5.422c-3.1,-6.338 -3.155,-6.859 -1.908,-17.921c0.432,-3.83 0.789,-8.19 0.794,-9.69c0.004,-1.5 0.34,-4.18 0.746,-5.957c0.405,-1.776 0.895,-5.825 1.088,-8.997c0.243,-3.995 0.646,-6.561 1.311,-8.348c0.597,-1.603 1.043,-4.138 1.176,-6.691c0.164,-3.153 0.607,-5.238 1.902,-8.954c1.587,-4.557 1.657,-4.996 1.187,-7.388c-0.447,-2.272 -0.351,-3.157 0.897,-8.305c2.513,-10.364 3.261,-11.998 5.483,-11.985c1.92,0.012 2.302,0.542 2.77,3.851c0.5,3.526 1.049,4.448 2.648,4.448c1.559,0 2.007,-1.504 1.436,-4.817c-0.418,-2.423 -0.377,-2.79 0.371,-3.336c0.461,-0.338 1.515,-0.614 2.34,-0.614c2.001,0 4.095,-1.763 3.673,-3.092c-0.346,-1.088 -2.045,-1.888 -4.427,-2.083l-1.615,-0.131l-0.136,-2.811c-0.099,-2.054 0.05,-2.964 0.552,-3.381c0.377,-0.313 2.826,-0.726 5.441,-0.918c3.72,-0.273 5.257,-0.605 7.062,-1.526c1.269,-0.648 3.657,-1.521 5.306,-1.941c1.65,-0.421 4.414,-1.604 6.144,-2.63c1.729,-1.026 3.413,-1.762 3.742,-1.636c0.328,0.126 0.839,1.188 1.134,2.359c0.785,3.116 4.628,11.672 5.948,13.241c1.682,1.999 3.099,2.561 9.155,3.63c3.016,0.532 6.315,1.117 7.33,1.299c1.97,0.355 1.991,0.413 1.35,3.63c-0.639,3.208 4.229,5.311 5.669,2.449c0.319,-0.634 0.583,-2.417 0.587,-3.963c0.006,-2.611 0.096,-2.852 1.276,-3.402c0.698,-0.325 3.599,-0.722 6.447,-0.881c4.401,-0.246 5.323,-0.434 6.14,-1.252c1.261,-1.261 2.733,-7.021 2.761,-10.804c0.012,-1.649 0.219,-4.518 0.461,-6.375c0.701,-5.401 1.06,-22.948 0.491,-24.011c-0.67,-1.253 -2.715,-1.812 -7.88,-2.156c-5.234,-0.348 -7.242,-0.894 -7.616,-2.072c-0.443,-1.399 -2.936,-3.221 -4.407,-3.221c-1.424,0 -1.869,0.855 -1.68,3.23l0.092,1.153l-4.857,-0.104c-5.145,-0.11 -11.048,-1.36 -16.368,-3.464c-2.385,-0.944 -2.79,-1.278 -2.921,-2.412c-0.234,-2.011 1.224,-4.835 2.65,-5.131c2.85,-0.592 3.395,-1.805 1.901,-4.231c-0.717,-1.163 -1.24,-1.499 -2.336,-1.499c-1.957,0 -3.435,1.631 -5.347,5.899c-2.22,4.955 -2.142,4.841 -3.995,5.856c-2.305,1.263 -2.458,2.33 -0.589,4.099c1.346,1.273 1.562,1.812 1.789,4.453c0.141,1.653 0.382,3.332 0.535,3.731c0.154,0.399 -0.094,1.182 -0.549,1.74c-1.084,1.329 -8.184,3.291 -11.907,3.291c-3.18,0 -8.645,1.391 -11.913,3.032c-3.083,1.549 -3.537,1.471 -3.546,-0.61c-0.013,-2.618 -1.186,-7.622 -2.3,-9.805c-0.923,-1.811 -1.974,-2.922 -6.671,-7.054l-1.827,-1.607l1.216,-1.836c1.713,-2.589 2.274,-5.106 2.124,-9.529c-0.128,-3.766 -0.103,-3.865 1.409,-5.587l1.54,-1.753l-0.226,-4.889c-0.291,-6.298 -1.511,-10.229 -4.081,-13.148c-2.227,-2.531 -4.262,-3.712 -5.65,-3.278c-0.541,0.169 -3.475,0.39 -6.521,0.493c-4.629,0.155 -6.406,0.446 -10.843,1.774c-2.918,0.873 -6.656,1.724 -8.305,1.891c-4.812,0.488 -14.227,2.03 -18.226,2.986c-3.774,0.902 -5.971,1.633 -12.458,4.149c-7.696,2.984 -17.529,4.858 -27.915,5.321c-5.353,0.238 -10.666,0.704 -16.034,1.408c-3.31,0.434 -7.086,0.601 -10.186,0.452c-2.709,-0.131 -5.185,-0.239 -5.502,-0.242c-0.426,-0.003 -0.577,-1.333 -0.577,-5.099c0,-5.261 -0.938,-11.16 -2.146,-13.496c-1.062,-2.053 -4.162,-3.103 -6.443,-2.181Z" style="fill:#fff;"/><path d="M138.23,98.362c-1.023,0.413 -3.798,3.603 -4.782,5.497c-0.316,0.607 -1.403,2.003 -2.415,3.1c-1.103,1.198 -2.004,2.73 -2.251,3.829c-0.226,1.008 -1.662,4.093 -3.19,6.856c-1.529,2.763 -3.395,6.789 -4.148,8.948c-1.24,3.555 -1.333,4.223 -0.99,7.075c0.448,3.721 1.439,4.846 4.269,4.846c0.987,0 1.794,0.119 1.794,0.265c0,0.145 -1.943,2.17 -4.318,4.499c-2.49,2.441 -4.865,5.259 -5.609,6.655c-1.338,2.508 -4.7,5.192 -6.504,5.192c-0.865,0 -7.306,-1.34 -15.454,-3.214c-2.183,-0.503 -4.891,-1.308 -6.017,-1.791c-1.126,-0.483 -2.765,-1.033 -3.643,-1.222c-2.359,-0.51 -4.945,-1.941 -5.763,-3.188c-0.681,-1.039 -0.571,-1.46 2.07,-7.994c1.534,-3.794 2.789,-7.256 2.789,-7.694c0,-1.409 0.855,-2.453 2.235,-2.729c3.733,-0.746 3.782,-4.512 0.072,-5.627c-0.635,-0.19 -1.933,-1.046 -2.886,-1.9c-2.869,-2.575 -5.651,-1.904 -5.338,1.287c0.125,1.268 -0.058,1.614 -1.132,2.135c-1.084,0.527 -1.961,0.514 -5.732,-0.088c-2.448,-0.39 -4.64,-0.899 -4.872,-1.13c-0.253,-0.254 -0.197,-1.772 0.143,-3.82c0.486,-2.931 0.463,-3.636 -0.168,-5.128c-0.883,-2.088 -2.678,-3.105 -3.817,-2.16c-0.584,0.485 -0.699,1.125 -0.501,2.797c0.141,1.192 0.04,2.964 -0.225,3.937c-0.885,3.262 -0.967,3.291 -9.576,3.462c-7.688,0.152 -7.742,0.161 -9.999,1.556c-1.248,0.772 -2.528,1.941 -2.845,2.6c-0.687,1.427 -1.771,7.19 -2.197,11.685c-0.169,1.777 -0.599,4.645 -0.958,6.375c-0.943,4.547 -0.886,17.122 0.09,20.025c0.409,1.214 2.209,4.78 4.001,7.925c3.249,5.702 3.256,5.721 2.723,7.713c-0.691,2.583 -0.1,4.334 1.463,4.334c1.347,0 1.927,-0.648 2.704,-3.02c0.35,-1.067 0.933,-1.877 1.419,-1.971c0.454,-0.087 2.995,0.499 5.648,1.304c5.443,1.65 6.381,1.625 12.405,-0.33c5.305,-1.722 6.531,-3.037 7.222,-7.749c0.298,-2.03 0.611,-3.945 0.697,-4.254c0.291,-1.052 2.608,-1.24 4.795,-0.39c4.337,1.687 6.925,1.975 16.625,1.85c6.898,-0.089 10.183,-0.32 12.135,-0.856c4.168,-1.143 4.223,-1.12 6.164,2.575c2.154,4.099 3.673,5.227 11.379,8.449c3.175,1.328 7.139,3.277 8.808,4.332c5.68,3.587 15.257,8.962 19.468,10.927c6.087,2.839 8.111,3.147 18.409,2.805c4.822,-0.161 13.974,-0.396 20.338,-0.522c15.035,-0.299 23.633,-0.902 30.187,-2.119c6.698,-1.243 12.131,-1.402 13.149,-0.385c0.66,0.659 0.511,1.327 -1.654,7.382c-1.309,3.661 -2.98,7.851 -3.715,9.311c-2.278,4.53 -3.15,7.159 -4.531,13.666c-1.559,7.35 -4.619,15.317 -8.479,22.074c-1.438,2.518 -2.614,4.773 -2.614,5.013c0,0.239 -0.493,1.367 -1.096,2.507c-0.602,1.14 -2.249,5.193 -3.659,9.006c-4.006,10.827 -5.754,14.972 -7.698,18.252c-2.001,3.375 -2.924,4.333 -3.84,3.981c-0.544,-0.209 -5.206,-10.688 -6.098,-13.709c-0.808,-2.737 -5.938,-12.618 -8.89,-17.123c-6.511,-9.939 -13.911,-16.737 -22.752,-20.905c-5.707,-2.69 -8.586,-3.404 -16.281,-4.037c-7.553,-0.621 -12.418,-0.159 -20.409,1.94c-9.979,2.621 -15.631,5.66 -21.368,11.491c-7.773,7.902 -11.954,17.446 -13.37,30.526c-0.231,2.132 -0.742,6.056 -1.137,8.721c-1.619,10.92 -1.963,35.122 -0.618,43.394c1.265,7.782 3.321,14.781 6.418,21.853c3.448,7.873 16.462,28.915 22.574,36.501c1.231,1.527 5.703,6.071 9.94,10.098c9.223,8.766 10.857,9.697 20.687,11.787c11.351,2.413 15.563,3.297 21.042,4.412c2.943,0.6 7.819,1.727 10.832,2.504c3.014,0.778 6.666,1.414 8.115,1.414c6.136,0 14.557,-3.073 21.721,-7.925c4.219,-2.858 9.125,-8.243 13.717,-15.056c2.672,-3.965 5.386,-7.366 7.285,-9.13c2.802,-2.602 3.053,-2.997 3.381,-5.306c1.178,-8.295 -0.092,-11.954 -4.146,-11.954c-1.494,0 -2.64,1.357 -2.173,2.574c0.164,0.425 -0.057,0.656 -0.627,0.656c-1.156,0 -7.211,-5.84 -7.893,-7.614c-0.301,-0.783 -0.708,-6.294 -0.938,-12.688c-0.222,-6.218 -0.611,-12.8 -0.864,-14.628c-0.252,-1.828 -0.345,-3.619 -0.207,-3.979c0.275,-0.719 4.721,-1.085 17.731,-1.462c3.933,-0.114 8.542,-0.317 10.24,-0.452c3.981,-0.315 7.585,0.439 8.412,1.76c0.343,0.548 0.761,1.827 0.93,2.842c0.168,1.015 1.137,4.637 2.152,8.049c3.263,10.962 7.483,17.449 14.251,21.908c4.406,2.902 4.664,3.378 4.156,7.648c-0.226,1.903 -0.645,6.056 -0.931,9.228c-0.286,3.172 -0.712,5.965 -0.947,6.207c-0.27,0.276 -0.993,0.233 -1.96,-0.116c-2.311,-0.835 -3.441,-0.677 -4.278,0.6c-0.671,1.025 -0.68,1.268 -0.075,2.191c0.374,0.571 2.078,1.855 3.786,2.854c1.708,0.998 3.624,2.495 4.258,3.327c1.494,1.958 2.654,2.297 4.485,1.31c1.435,-0.773 1.666,-0.747 9.526,1.065c4.43,1.021 9.819,2.119 11.977,2.439c7.44,1.104 29.964,0.695 40.373,-0.735c2.538,-0.348 5.964,-0.755 7.613,-0.904c1.65,-0.148 5.076,-0.673 7.613,-1.166c2.538,-0.493 8.04,-1.547 12.228,-2.342c4.187,-0.796 10.52,-2.338 14.073,-3.428c8.578,-2.63 24.802,-8.808 30.036,-11.438c4.304,-2.163 12.121,-7.231 15.95,-10.343c6.39,-5.19 8.926,-7.383 13.57,-11.73c2.81,-2.631 7.31,-6.729 10,-9.107c8.392,-7.42 12.995,-13.84 18.569,-25.899c4.35,-9.413 4.831,-11.383 5.406,-22.147l0.504,-9.459l-1.755,-6.46c-2.653,-9.762 -7.233,-20.055 -12.236,-27.5c-5.637,-8.387 -9.554,-12.597 -17.985,-19.327c-12.129,-9.684 -21.082,-14.467 -36.876,-19.704c-5.969,-1.979 -12.071,-3.05 -17.109,-3.003c-7.666,0.071 -17.713,2.202 -26.395,5.598c-4.958,1.94 -52.222,25.444 -57.238,28.464c-6.593,3.969 -15.552,11.259 -21.55,17.533c-4.108,4.297 -11.042,12.79 -18.366,22.495c-1.843,2.443 -3.538,4.442 -3.766,4.442c-0.227,0 -1.606,-2.44 -3.064,-5.422c-3.1,-6.338 -3.155,-6.859 -1.908,-17.921c0.432,-3.83 0.789,-8.19 0.794,-9.69c0.004,-1.5 0.34,-4.18 0.746,-5.957c0.405,-1.776 0.895,-5.825 1.088,-8.997c0.243,-3.995 0.646,-6.561 1.311,-8.348c0.597,-1.603 1.043,-4.138 1.176,-6.691c0.164,-3.153 0.607,-5.238 1.902,-8.954c1.587,-4.557 1.657,-4.996 1.187,-7.388c-0.447,-2.272 -0.351,-3.157 0.897,-8.305c2.513,-10.364 3.261,-11.998 5.483,-11.985c1.92,0.012 2.302,0.542 2.77,3.851c0.5,3.526 1.049,4.448 2.648,4.448c1.559,0 2.007,-1.504 1.436,-4.817c-0.418,-2.423 -0.377,-2.79 0.371,-3.336c0.461,-0.338 1.515,-0.614 2.34,-0.614c2.001,0 4.095,-1.763 3.673,-3.092c-0.346,-1.088 -2.045,-1.888 -4.427,-2.083l-1.615,-0.131l-0.136,-2.811c-0.099,-2.054 0.05,-2.964 0.552,-3.381c0.377,-0.313 2.826,-0.726 5.441,-0.918c3.72,-0.273 5.257,-0.605 7.062,-1.526c1.269,-0.648 3.657,-1.521 5.306,-1.941c1.65,-0.421 4.414,-1.604 6.144,-2.63c1.729,-1.026 3.413,-1.762 3.742,-1.636c0.328,0.126 0.839,1.188 1.134,2.359c0.785,3.116 4.628,11.672 5.948,13.241c1.682,1.999 3.099,2.561 9.155,3.63c3.016,0.532 6.315,1.117 7.33,1.299c1.97,0.355 1.991,0.413 1.35,3.63c-0.639,3.208 4.229,5.311 5.669,2.449c0.319,-0.634 0.583,-2.417 0.587,-3.963c0.006,-2.611 0.096,-2.852 1.276,-3.402c0.698,-0.325 3.599,-0.722 6.447,-0.881c4.401,-0.246 5.323,-0.434 6.14,-1.252c1.261,-1.261 2.733,-7.021 2.761,-10.804c0.012,-1.649 0.219,-4.518 0.461,-6.375c0.701,-5.401 1.06,-22.948 0.491,-24.011c-0.67,-1.253 -2.715,-1.812 -7.88,-2.156c-5.234,-0.348 -7.242,-0.894 -7.616,-2.072c-0.443,-1.399 -2.936,-3.221 -4.407,-3.221c-1.424,0 -1.869,0.855 -1.68,3.23l0.092,1.153l-4.857,-0.104c-5.145,-0.11 -11.048,-1.36 -16.368,-3.464c-2.385,-0.944 -2.79,-1.278 -2.921,-2.412c-0.234,-2.011 1.224,-4.835 2.65,-5.131c2.85,-0.592 3.395,-1.805 1.901,-4.231c-0.717,-1.163 -1.24,-1.499 -2.336,-1.499c-1.957,0 -3.435,1.631 -5.347,5.899c-2.22,4.955 -2.142,4.841 -3.995,5.856c-2.305,1.263 -2.458,2.33 -0.589,4.099c1.346,1.273 1.562,1.812 1.789,4.453c0.141,1.653 0.382,3.332 0.535,3.731c0.154,0.399 -0.094,1.182 -0.549,1.74c-1.084,1.329 -8.184,3.291 -11.907,3.291c-3.18,0 -8.645,1.391 -11.913,3.032c-3.083,1.549 -3.537,1.471 -3.546,-0.61c-0.013,-2.618 -1.186,-7.622 -2.3,-9.805c-0.923,-1.811 -1.974,-2.922 -6.671,-7.054l-1.827,-1.607l1.216,-1.836c1.713,-2.589 2.274,-5.106 2.124,-9.529c-0.128,-3.766 -0.103,-3.865 1.409,-5.587l1.54,-1.753l-0.226,-4.889c-0.291,-6.298 -1.511,-10.229 -4.081,-13.148c-2.227,-2.531 -4.262,-3.712 -5.65,-3.278c-0.541,0.169 -3.475,0.39 -6.521,0.493c-4.629,0.155 -6.406,0.446 -10.843,1.774c-2.918,0.873 -6.656,1.724 -8.305,1.891c-4.812,0.488 -14.227,2.03 -18.226,2.986c-3.774,0.902 -5.971,1.633 -12.458,4.149c-7.696,2.984 -17.529,4.858 -27.915,5.321c-5.353,0.238 -10.666,0.704 -16.034,1.408c-3.31,0.434 -7.086,0.601 -10.186,0.452c-2.709,-0.131 -5.185,-0.239 -5.502,-0.242c-0.426,-0.003 -0.577,-1.333 -0.577,-5.099c0,-5.261 -0.938,-11.16 -2.146,-13.496c-1.062,-2.053 -4.162,-3.103 -6.443,-2.181m116.432,9.352c1.476,2.701 2.121,10.822 0.97,12.209c-0.811,0.976 -2.227,0.73 -2.227,-0.388c0,-1.482 -1.691,-3.918 -3.119,-4.493c-0.695,-0.28 -2.67,-0.828 -4.388,-1.22c-1.718,-0.39 -3.794,-1.12 -4.614,-1.62c-1.896,-1.156 -3.023,-1.15 -4.268,0.02c-0.546,0.512 -2.158,1.394 -3.584,1.961c-1.661,0.66 -3.83,2.148 -6.042,4.147c-3.123,2.822 -3.5,3.351 -3.957,5.554c-0.278,1.34 -1.122,3.674 -1.876,5.187c-1.615,3.245 -1.723,4.609 -0.42,5.306c1.673,0.895 3.097,-0.587 5.539,-5.764c2.829,-5.998 5.95,-8.908 8.502,-7.928c1.017,0.39 0.893,4.644 -0.23,7.908c-1.213,3.527 -1.203,5.155 0.034,5.547c1.864,0.592 3.714,-2.091 5.504,-7.982c0.911,-3 2.713,-6.206 2.753,-4.897c0.008,0.282 0.523,1.262 1.145,2.178c0.799,1.178 1.17,2.432 1.269,4.285c0.1,1.887 0.364,2.761 0.946,3.126c1.335,0.838 2.335,-0.219 3.466,-3.668c1.104,-3.365 2.331,-5.122 2.761,-3.953c0.246,0.671 1.007,1.412 2.866,2.793l1.134,0.843l-0.874,1.937c-0.735,1.631 -0.794,2.236 -0.37,3.825c0.636,2.38 0.553,2.568 -2.075,4.765l-2.17,1.813l-14.308,0.178c-17.726,0.22 -32.093,0.138 -32.956,-0.19c-0.494,-0.187 -0.315,-0.61 0.73,-1.733c3.846,-4.129 4.157,-5.533 2.055,-9.272c-1.067,-1.898 -1.376,-3.116 -1.572,-6.187c-0.289,-4.517 -0.565,-4.211 6.129,-6.776c7.055,-2.705 16.982,-4.717 27.455,-5.567c2.043,-0.166 5.443,-0.882 7.614,-1.603c6.768,-2.248 7.127,-2.263 8.178,-0.341m-112.918,6.359c0,0.93 -1.163,1.745 -1.709,1.199c-0.248,-0.248 1.122,-2.136 1.55,-2.136c0.087,0 0.159,0.421 0.159,0.937m58.78,6.252c0.488,1.272 0.303,4.603 -0.297,5.344c-0.78,0.964 -2.728,2.232 -3.429,2.232c-0.314,0 -0.8,-0.882 -1.08,-1.961c-0.281,-1.079 -0.724,-2.651 -0.984,-3.495c-0.535,-1.732 -0.541,-1.718 1.012,-2.337c1.84,-0.735 4.458,-0.616 4.778,0.217m-9.165,1.138c0.164,0.266 0.054,1.5 -0.244,2.743c-0.646,2.696 -0.013,5.358 2.542,10.691c0.886,1.848 1.61,3.612 1.61,3.921c0,0.713 -3.821,1.311 -4.817,0.753c-0.573,-0.32 -0.788,-1.328 -0.921,-4.314c-0.381,-8.592 -2.191,-10.007 -10.55,-8.245c-2.541,0.535 -2.713,0.513 -3.37,-0.424c-1.288,-1.839 -2.196,-2.001 -5.719,-1.025c-1.843,0.51 -4.02,1.502 -4.995,2.274c-0.95,0.752 -2.473,1.724 -3.383,2.158c-1.599,0.762 -1.701,0.756 -2.983,-0.175c-1.695,-1.231 -5.323,-2.044 -6.727,-1.509c-0.584,0.222 -1.755,1.372 -2.604,2.555c-1.268,1.768 -1.662,2.053 -2.21,1.597c-0.494,-0.409 -0.633,-1.405 -0.534,-3.822c0.129,-3.119 0.198,-3.3 1.519,-3.948c0.943,-0.463 3.758,-0.777 8.833,-0.987c4.098,-0.169 10.327,-0.647 13.843,-1.062c3.516,-0.415 9.299,-0.927 12.852,-1.139c3.553,-0.211 6.707,-0.415 7.01,-0.455c0.302,-0.038 0.683,0.147 0.848,0.413m-52.384,2.339c0,1.761 -0.075,1.875 -1.038,1.564c-0.571,-0.184 -2.803,-0.468 -4.96,-0.63c-3.516,-0.265 -3.922,-0.391 -3.922,-1.219c0,-0.83 0.394,-0.949 3.922,-1.183c2.157,-0.143 4.389,-0.298 4.96,-0.346c0.922,-0.076 1.038,0.126 1.038,1.814m-81.337,2.491c1.723,1.207 1.786,3.965 0.204,8.99c-0.759,2.411 -1.608,5.496 -1.886,6.855c-0.279,1.358 -1.219,3.89 -2.09,5.626c-0.872,1.735 -1.722,3.946 -1.89,4.912c-0.828,4.748 -4.613,16.221 -5.731,17.373c-0.209,0.215 -1.186,-0.719 -2.171,-2.076c-4.405,-6.062 -4.862,-7.854 -4.281,-16.771c0.232,-3.553 0.622,-7.287 0.868,-8.298c0.246,-1.01 0.907,-4.746 1.469,-8.3c0.908,-5.739 1.165,-6.605 2.296,-7.737c1.247,-1.247 1.387,-1.273 6.744,-1.273c4.139,0 5.712,0.17 6.468,0.699m14.202,1.846c1.776,0.377 4.112,0.685 5.191,0.685c2.384,0 2.461,0.44 0.87,4.969c-1.899,5.409 -3.012,7.381 -4.445,7.881c-1.966,0.685 -2.382,1.828 -1.607,4.407c0.592,1.966 0.569,2.542 -0.237,5.917c-0.492,2.057 -1.056,3.898 -1.255,4.092c-0.2,0.194 -1.089,0.419 -1.977,0.501c-1.457,0.134 -1.63,0.298 -1.763,1.685c-0.114,1.194 0.222,2.011 1.5,3.652c1.59,2.042 1.647,2.248 1.647,5.996c0,3.623 -0.085,3.967 -1.275,5.156c-1.401,1.401 -5.888,3.269 -7.854,3.269c-1.499,0 -7.924,-2.085 -9.12,-2.959c-0.961,-0.702 -0.86,-1.183 2.36,-11.345c0.844,-2.665 1.77,-5.779 2.056,-6.921c0.286,-1.142 1.337,-3.737 2.333,-5.768c0.997,-2.03 2.206,-5.456 2.687,-7.613c0.481,-2.157 1.33,-5.791 1.886,-8.075c0.556,-2.284 1.1,-4.619 1.209,-5.19c0.173,-0.904 0.481,-1.038 2.381,-1.031c1.201,0.005 3.637,0.316 5.413,0.692m62.06,2.938c0,0.531 -1.752,0.983 -2.58,0.666c-0.355,-0.136 -0.53,-0.433 -0.389,-0.661c0.33,-0.535 2.969,-0.54 2.969,-0.005m50.943,4.365c1.055,4.336 0.855,4.622 -2.995,4.264c-4.023,-0.374 -4.114,-0.451 -4.114,-3.493c0,-1.579 0.234,-2.848 0.576,-3.118c0.956,-0.755 3.272,-1.456 4.499,-1.361c1.041,0.08 1.24,0.443 2.034,3.708m79.167,-2.812c-0.009,1.373 -0.685,2.389 -1.325,1.993c-0.677,-0.418 -0.655,-1.782 0.04,-2.477c0.839,-0.839 1.293,-0.668 1.285,0.484m-62.744,0.55c0,0.112 -0.208,0.332 -0.462,0.488c-0.254,0.157 -0.461,0.066 -0.461,-0.203c0,-0.269 0.207,-0.489 0.461,-0.489c0.254,0 0.462,0.092 0.462,0.204m-34.897,2.219c0.612,2.283 0.397,2.653 -1.539,2.653c-2.785,0 -3.469,-1.836 -1.169,-3.14c1.442,-0.818 2.405,-0.645 2.708,0.487m-24.682,7.43c0.285,0.343 0.651,2.188 0.812,4.1c0.275,3.251 0.217,3.577 -0.89,5.029c-1.756,2.302 -3.557,8.258 -3.557,11.764c0,3.679 1.167,11.674 2.134,14.618c0.401,1.222 0.591,2.359 0.421,2.529c-0.169,0.169 -0.969,-0.083 -1.777,-0.559c-2.853,-1.683 -9.807,-5.168 -12.412,-6.22c-4.652,-1.879 -6.615,-3.399 -7.549,-5.842l-0.837,-2.194l1.409,-1.197c2.345,-1.992 2.683,-3.054 1.569,-4.941c-1.736,-2.944 -1.282,-4.423 2.222,-7.232c0.884,-0.708 0.987,-1.107 0.73,-2.818c-0.289,-1.929 -0.234,-2.045 1.705,-3.613c3.777,-3.053 6.472,-3.974 11.752,-4.018c2.621,-0.021 3.906,0.157 4.268,0.594m15.575,0.898c0.143,0.142 -0.643,0.72 -1.747,1.283c-2.639,1.347 -6.971,1.519 -7.22,0.287c-0.327,-1.617 0.611,-1.994 4.752,-1.909c2.176,0.044 4.073,0.197 4.215,0.339m51.622,0.786c7.813,0.347 12.508,0.364 14.535,0.053c3.51,-0.538 19.314,-0.697 24.776,-0.249c4.899,0.402 5.44,0.929 5.44,5.295c0,3.429 0.454,4.29 2.139,4.052c0.796,-0.113 1.488,-0.902 2.557,-2.915c0.805,-1.517 1.919,-3.126 2.473,-3.576c2.84,-2.299 8.867,0.427 11.088,5.016c0.88,1.818 1.045,3.015 1.154,8.411c0.071,3.459 0.352,7.015 0.625,7.902c0.663,2.15 0.632,5.682 -0.057,6.37c-0.82,0.821 -1.479,0.683 -2.863,-0.6c-1.491,-1.381 -1.308,-1.37 -4.436,-0.269c-1.381,0.487 -2.669,0.787 -2.862,0.667c-0.193,-0.119 0.057,-1.018 0.556,-1.997c0.622,-1.219 1.771,-2.305 3.641,-3.44c1.502,-0.913 2.857,-1.986 3.01,-2.385c0.479,-1.25 0.306,-2.36 -0.468,-3.002c-1.584,-1.315 -11.25,5.073 -11.25,7.435c0,0.582 0.689,1.687 1.57,2.518l1.57,1.481l-1.396,0.825c-1.093,0.645 -1.97,0.765 -4.031,0.549c-4.309,-0.45 -4.951,1.184 -1.635,4.163c1.691,1.52 2.075,2.155 2.068,3.428c-0.007,1.268 -0.375,1.867 -1.952,3.178c-1.789,1.486 -2.225,1.627 -5.498,1.777l-3.555,0.163l-0.48,-1.777c-0.674,-2.493 -1.748,-3.855 -3.04,-3.855c-1.248,0 -1.647,0.476 -2.322,2.765c-0.471,1.597 -1.742,2.355 -2.566,1.531c-0.499,-0.499 1.514,-7.177 2.784,-9.237c0.502,-0.815 1.745,-1.905 2.761,-2.424c2.96,-1.51 3.729,-4.003 1.655,-5.362c-1.081,-0.708 -1.248,-0.692 -2.874,0.267c-0.95,0.56 -3.249,1.623 -5.109,2.362c-1.861,0.739 -4.402,1.86 -5.647,2.491c-2.79,1.414 -4.512,1.438 -11.985,0.165c-3.172,-0.541 -8.155,-1.078 -11.073,-1.193c-2.919,-0.116 -7.383,-0.296 -9.921,-0.4c-2.537,-0.105 -8.168,-0.292 -12.51,-0.416c-9.86,-0.281 -14.197,-1.105 -15.956,-3.031c-0.691,-0.756 -1.883,-1.501 -2.65,-1.654c-2.655,-0.531 -2.79,-1.48 -1.206,-8.473c0.882,-3.894 0.603,-5.657 -1.401,-8.831c-1.384,-2.191 -1.389,-3.246 -0.03,-6.164l1.074,-2.308l15.879,0.091c8.733,0.05 21.071,0.322 27.418,0.603m106.393,2.225c3.461,1.168 13.582,2.849 17.155,2.849c1.169,0 2.256,0.211 2.416,0.468c0.159,0.258 0.039,1.588 -0.267,2.955c-0.491,2.192 -0.438,2.949 0.442,6.401c1.665,6.526 1.729,9.174 0.333,13.74c-0.666,2.174 -1.427,5.686 -1.692,7.803c-0.558,4.451 -0.975,5.432 -2.465,5.806c-1.296,0.325 -8.94,-0.934 -11.069,-1.824c-1.086,-0.453 -1.812,-1.266 -2.576,-2.879c-3.013,-6.366 -3.805,-8.45 -4.034,-10.619c-0.282,-2.671 -0.22,-2.755 4.441,-6.026c3.214,-2.255 4.405,-3.846 4.022,-5.372c-0.503,-2.004 -1.895,-1.971 -5.007,0.118c-3.925,2.636 -4.497,2.525 -4.635,-0.905c-0.067,-1.691 0.144,-2.08 2.101,-3.877c2.416,-2.218 2.782,-3.713 1.248,-5.101c-0.799,-0.723 -1.165,-0.767 -2.641,-0.314c-1.916,0.588 -2.321,0.376 -2.47,-1.297c-0.279,-3.121 0.37,-3.387 4.698,-1.926m37.215,4.376c1.322,0.855 0.213,24.511 -1.416,30.209c-1.1,3.848 -0.653,3.608 -7.499,4.03c-6.021,0.371 -5.988,0.407 -5.039,-5.492c0.394,-2.444 0.94,-5.013 1.216,-5.708c1.033,-2.613 1.307,-8.379 0.582,-12.299c-0.38,-2.052 -0.812,-4.509 -0.96,-5.459c-0.35,-2.241 0.664,-5.874 1.752,-6.277c1.003,-0.371 10.544,0.465 11.364,0.996m-196.544,0.549c0.072,0.06 -1.447,1.318 -3.376,2.795c-1.929,1.478 -3.7,3.049 -3.938,3.492c-0.631,1.179 -0.526,2.518 0.248,3.161c0.58,0.481 0.396,0.892 -1.269,2.829c-2.287,2.66 -3.294,3.105 -4.518,1.997c-1.044,-0.945 -1.091,-2.22 -0.217,-5.88c0.811,-3.392 1.631,-4.637 3.56,-5.396c0.844,-0.333 2.158,-1.175 2.919,-1.873c0.761,-0.697 1.799,-1.366 2.307,-1.487c0.812,-0.194 3.931,0.071 4.284,0.362m-74.88,1.386c1.269,0.41 3.346,1.172 4.614,1.695c1.269,0.522 3.034,1.121 3.922,1.33c0.889,0.209 3.899,0.939 6.691,1.623c2.791,0.683 6.386,1.525 7.987,1.871c1.602,0.346 3.352,0.865 3.89,1.152c0.95,0.509 0.953,0.542 0.108,1.159c-1.807,1.322 -4.406,1.694 -13.199,1.891l-9.058,0.202l-3.246,-1.424c-1.786,-0.784 -3.976,-1.426 -4.867,-1.426c-2.136,0 -3.24,-1.111 -2.882,-2.901c0.15,-0.752 0.274,-1.808 0.275,-2.347c0.002,-1.596 1.765,-4.116 2.673,-3.822c0.432,0.139 1.824,0.589 3.092,0.997m79.625,4.651c0.502,0.604 0.492,1.055 -0.059,2.619c-0.757,2.154 -2.148,3.101 -1.652,1.126c0.163,-0.65 0.081,-1.75 -0.183,-2.444c-0.362,-0.952 -0.334,-1.355 0.114,-1.64c0.843,-0.535 1.095,-0.487 1.78,0.339m146.038,2.554c0.677,1.095 1.031,3.809 0.634,4.854c-0.536,1.412 -6.921,5.588 -9.126,5.969c-0.931,0.161 -3.457,1.083 -5.614,2.048c-3.796,1.699 -4.079,1.753 -8.767,1.682l-4.845,-0.073l-0.347,-3.143c-0.215,-1.946 -0.168,-3.478 0.124,-4.023c1.426,-2.665 11.823,-6.386 17.987,-6.438c1.65,-0.014 4.038,-0.315 5.306,-0.668c2.9,-0.806 4.241,-0.866 4.648,-0.208m-160.123,11.746c0.824,0.222 0.94,0.615 0.921,3.109c-0.019,2.586 -0.107,2.842 -0.942,2.716c-1.582,-0.239 -2.998,-2.256 -2.998,-4.27c0,-1.582 0.136,-1.819 1.039,-1.814c0.571,0.003 1.462,0.12 1.98,0.259m29.28,6.286c3.497,0.851 4.297,0.896 7.383,0.412c2.436,-0.381 3.931,-0.401 5.049,-0.068c0.875,0.261 6.896,0.694 13.381,0.964c6.486,0.269 13.349,0.772 15.252,1.118c9.285,1.685 10.643,1.76 13.569,0.74c3.267,-1.139 3.504,-1.155 3.504,-0.235c0,2.93 -4.34,5.744 -8.858,5.744c-2.469,0 -2.678,-0.081 -2.68,-1.038c-0.002,-1.369 -1.651,-4.037 -2.496,-4.037c-0.953,0 -2.116,1.294 -2.116,2.356c0,0.815 -0.222,0.876 -2.211,0.612c-2.549,-0.338 -3.166,0.113 -3.403,2.488l-0.153,1.531l-13.121,0.22c-17.562,0.294 -27.365,-0.68 -33.136,-3.291c-2.54,-1.15 -2.838,-1.712 -1.706,-3.21c0.378,-0.5 0.905,-1.745 1.172,-2.768c0.882,-3.381 2.208,-3.573 10.57,-1.538m98.649,3.231c0.305,0.304 0.554,1.405 0.554,2.445c0,2.032 -0.62,2.999 -1.922,2.999c-1.292,0 -4.076,-1.492 -4.076,-2.185c0,-0.937 1.279,-3.234 1.951,-3.504c1.094,-0.441 2.937,-0.311 3.493,0.245m-122.127,3.587c1.837,0.273 3.269,0.873 4.922,2.061c1.283,0.921 4.166,2.32 6.407,3.108c5.544,1.951 5.821,2.394 1.306,2.092c-3.13,-0.209 -4.467,-0.593 -8.791,-2.531c-7.51,-3.365 -11.743,-6.246 -8.007,-5.451c0.864,0.184 2.737,0.508 4.163,0.721m112.692,9.701c-0.037,1.142 -0.641,4.257 -1.341,6.921c-0.81,3.084 -1.391,6.773 -1.596,10.151c-0.19,3.114 -0.721,6.646 -1.285,8.549c-0.529,1.784 -1.382,5.625 -1.896,8.536c-0.514,2.912 -1.139,6.436 -1.388,7.831c-1.051,5.878 -1.998,14.046 -2.353,20.302c-0.209,3.68 -0.728,8.547 -1.154,10.814c-0.543,2.899 -0.725,5.847 -0.613,9.921c0.155,5.638 0.208,5.897 1.943,9.488c3.596,7.441 3.931,11.38 1.504,17.659c-2.238,5.788 -2.492,6.699 -3.434,12.309c-0.824,4.91 -0.886,5.062 -2.197,5.431c-1.216,0.342 -19.713,0.929 -29.82,0.947c-5.271,0.009 -5.881,-0.399 -6.976,-4.664c-1.303,-5.079 -2.863,-8.766 -8.011,-18.936c-2.617,-5.171 -4.758,-9.608 -4.758,-9.859c0,-0.251 0.701,-1.419 1.559,-2.595c2.577,-3.534 5.604,-9.553 8.799,-17.495c1.663,-4.133 3.023,-7.75 3.023,-8.037c0,-0.953 4.694,-10.678 7.292,-15.107c4.56,-7.775 6.955,-14.431 8.64,-24.02c0.429,-2.44 1.485,-5.297 3.581,-9.689c1.635,-3.426 3.55,-7.926 4.255,-9.999c1.776,-5.222 3.428,-8.135 4.839,-8.533c2.043,-0.576 16.297,-2.133 18.918,-2.066l2.538,0.065l-0.069,2.076m134.047,23.846c9.4,1.871 22.096,7.047 31.517,12.849c11.58,7.132 21.712,16.539 27.923,25.926c5.364,8.107 10.482,19.116 11.75,25.278c0.261,1.269 0.896,3.723 1.41,5.454c0.869,2.927 0.902,3.665 0.464,10.612c-0.551,8.758 -1.076,10.627 -6.112,21.769c-4.281,9.471 -6.461,12.739 -12.464,18.687c-7.392,7.326 -23.728,22.58 -27.896,26.049c-7.718,6.423 -15.804,10.601 -29.991,15.495c-2.792,0.963 -7.47,2.578 -10.396,3.589c-5.269,1.819 -12.648,3.537 -25.133,5.85c-3.553,0.658 -7.083,1.394 -7.844,1.635c-1.912,0.606 -7.615,1.311 -14.949,1.848c-8.662,0.633 -31.247,0.644 -36.498,0.017c-4.973,-0.594 -19.976,-4.331 -21.562,-5.37c-0.956,-0.626 -1.048,-1.038 -1.05,-4.713c-0.002,-2.214 0.331,-7.301 0.739,-11.303c0.409,-4.003 0.622,-7.76 0.474,-8.349c-0.378,-1.507 -2.121,-3.123 -6.544,-6.065c-4.398,-2.927 -6.893,-5.81 -9.492,-10.967c-3.415,-6.777 -6.326,-18.79 -4.553,-18.79c0.253,0 0.881,-0.419 1.395,-0.933c1.161,-1.162 0.639,-2.398 -1.476,-3.491l-1.436,-0.744l0.29,-4.221c0.372,-5.416 2.725,-12.897 4.766,-15.151c0.656,-0.726 0.812,-0.727 2.298,-0.018c3.023,1.44 4.309,-0.91 2.404,-4.396l-1.079,-1.977l1.143,-2.155c3.087,-5.819 13.001,-18.504 20.881,-26.717c10.445,-10.888 16.852,-15.415 33.502,-23.675c6.506,-3.228 17.851,-8.893 25.21,-12.589c19.35,-9.718 23.53,-11.378 34.061,-13.525c6.615,-1.348 11.126,-1.326 18.248,0.091m-248.408,15.648c3.727,0.816 6.423,1.776 10.151,3.617c8.336,4.114 13.706,9.065 19.8,18.256c4.764,7.185 7.023,11.402 9.268,17.303c0.966,2.538 2.659,6.905 3.762,9.705c1.104,2.8 2.007,5.277 2.007,5.504c0,0.227 -0.745,1.493 -1.655,2.814c-1.79,2.599 -1.973,4.457 -0.468,4.744c0.555,0.106 1.434,-0.442 2.399,-1.495c0.837,-0.914 1.708,-1.662 1.936,-1.662c0.755,0 1.809,1.568 4.422,6.576c1.423,2.729 2.794,5.325 3.048,5.768c1.1,1.926 4.729,11.062 5.424,13.656c0.419,1.561 0.735,4.292 0.704,6.068c-0.037,2.158 0.154,3.462 0.577,3.93c1.207,1.335 1.655,5.32 2.097,18.656c0.245,7.372 0.494,14.005 0.554,14.738c0.103,1.247 -0.199,1.503 -4.612,3.922c-2.596,1.424 -5.238,3.107 -5.869,3.742c-1.789,1.797 -4.488,10.075 -4.754,14.578c-0.257,4.357 0.182,5.508 2.463,6.462c1.281,0.534 1.992,0.557 3.77,0.122c3.073,-0.754 8.109,-3.35 10.251,-5.285c1.844,-1.666 5.641,-7.643 6.994,-11.01c0.413,-1.027 1.062,-1.93 1.44,-2.006c0.735,-0.146 3.116,2.374 3.116,3.298c0,0.303 -0.987,1.936 -2.192,3.628c-1.206,1.693 -3.479,5.124 -5.052,7.624c-6.507,10.342 -13.508,16.231 -23.955,20.149c-4.701,1.763 -9.755,1.821 -16.788,0.193c-2.918,-0.675 -10.082,-2.196 -15.918,-3.378c-19.13,-3.875 -20.731,-4.259 -23.799,-5.709c-3.039,-1.437 -7.344,-5.156 -16.358,-14.132c-5.772,-5.747 -13.773,-17.253 -21.635,-31.109c-5.999,-10.571 -8.233,-16.556 -9.981,-26.732c-1.699,-9.886 -2.625,-23.073 -1.809,-25.749c0.297,-0.974 0.708,-4.574 0.913,-8c0.206,-3.426 0.786,-8.824 1.291,-11.996c0.505,-3.172 1.058,-7.014 1.231,-8.536c1.539,-13.623 6.726,-23.138 16.846,-30.903c3.401,-2.61 4.284,-3.026 11.543,-5.434c11.414,-3.787 18.233,-4.24 28.838,-1.917m219.985,1.597c-3.197,0.631 -4.94,1.709 -8.168,5.053c-2.009,2.08 -3.52,4.181 -4.394,6.109c-1.5,3.308 -2.788,7.882 -2.788,9.9c0,0.74 -0.275,1.722 -0.612,2.182c-0.587,0.804 -0.704,0.796 -2.884,-0.198c-3.197,-1.456 -10.471,-1.817 -14.287,-0.707c-3.563,1.036 -8.858,4.731 -12.138,8.472c-1.434,1.636 -3.514,3.913 -4.621,5.059c-1.879,1.947 -1.998,2.219 -1.786,4.099c0.431,3.822 6.402,14.19 12.599,21.876c4.252,5.274 14.922,15.376 17.757,16.813c1.934,0.98 2.88,1.14 6.734,1.14c5.12,0 6.715,-0.564 10.543,-3.731c6.616,-5.475 10.251,-14.856 10.622,-27.414c0.197,-6.651 -0.158,-5.86 4.104,-9.146c2.502,-1.93 4.797,-5.711 6.548,-10.793c1.307,-3.791 1.558,-5.169 1.561,-8.587c0.004,-3.669 -0.181,-4.546 -1.858,-8.837c-1.025,-2.621 -2.464,-5.594 -3.199,-6.608c-3.238,-4.471 -7.479,-5.917 -13.733,-4.682m3.665,5.53c-0.277,2.361 0.314,3.119 4.318,5.537c4.255,2.571 4.932,3.505 4.495,6.201c-0.228,1.403 -0.066,1.885 1.014,3.012c1.255,1.31 1.273,1.403 0.759,3.959c-0.793,3.952 -3.395,8.963 -5.808,11.187c-1.147,1.058 -2.296,1.923 -2.552,1.923c-0.256,0 -1.022,-0.883 -1.702,-1.961c-1.955,-3.103 -5.645,-7.069 -7.596,-8.165c-0.984,-0.553 -3.087,-1.272 -4.674,-1.599l-2.885,-0.593l0.013,-3.654c0.011,-3.237 0.202,-4.046 1.679,-7.106c2.435,-5.048 3.907,-6.597 6.385,-6.724c1.636,-0.083 2.29,-0.409 3.588,-1.784c1.794,-1.902 3.175,-2.01 2.966,-0.233m-229.533,12.976c-1.688,0.616 -1.7,2.302 -0.026,3.522l1.243,0.905l-1.942,2.32c-2.679,3.201 -3.873,6.096 -3.924,9.517c-0.118,7.833 4.957,10.89 12.147,7.318c5.871,-2.917 10.259,-5.508 10.72,-6.331c0.781,-1.397 -0.01,-5.79 -1.617,-8.973c-1.683,-3.335 -4.666,-6.57 -7.294,-7.911c-1.959,-0.998 -7.029,-1.199 -9.307,-0.367m203.775,7.499c2.461,0.741 6.043,3.46 6.411,4.867c0.305,1.166 0.148,1.17 -1.417,0.027c-1.082,-0.79 -1.706,-0.874 -4.633,-0.622c-3.336,0.287 -3.401,0.318 -4.553,2.142c-0.642,1.017 -2.161,2.843 -3.374,4.056c-3.05,3.05 -3.846,5.337 -3.544,10.181c0.315,5.045 1.808,10.503 3.178,11.618c1.252,1.018 3.086,0.862 6.831,-0.581c3.987,-1.537 6.71,-3.802 8.259,-6.872c1.913,-3.789 2.901,-7.53 2.765,-10.468c-0.065,-1.391 0.004,-2.65 0.152,-2.799c0.237,-0.237 4.149,2.343 7.179,4.733c1.281,1.01 3.306,5.806 3.32,7.864c0.008,1.059 -0.443,2.007 -1.537,3.23c-1.974,2.209 -2.673,3.553 -2.322,4.467c0.435,1.134 2.361,0.856 4.563,-0.659c1.106,-0.761 2.26,-1.384 2.564,-1.384c1.917,0 -3.156,11.833 -6.695,15.617c-3.068,3.28 -5.828,4.356 -10.652,4.153c-3.547,-0.15 -3.966,-0.279 -6.451,-1.991c-3.083,-2.124 -8.608,-7.486 -12.143,-11.785c-3.33,-4.051 -9.456,-13.242 -11.332,-17.001c-2.716,-5.444 -2.812,-5.039 2.449,-10.385c2.537,-2.579 5.795,-5.404 7.239,-6.279c4.178,-2.533 9.607,-3.373 13.743,-2.129m-195.579,0.572c1.046,1.047 1.688,2.877 1.365,3.894c-0.369,1.161 0.553,2.725 1.606,2.725c0.478,0 1.297,-0.571 1.821,-1.269c0.803,-1.07 1.026,-1.16 1.422,-0.577c0.871,1.285 0.246,2.044 -3.686,4.478c-4.368,2.705 -7.807,4.047 -9.22,3.598c-2.271,-0.72 -2.973,-5.033 -1.362,-8.362c2.012,-4.155 6.105,-6.435 8.054,-4.487m-40.148,5.021c-0.762,0.349 -2.527,0.643 -3.922,0.655c-3.218,0.028 -5.523,1.162 -6.603,3.25c-0.676,1.307 -0.794,2.363 -0.623,5.537c0.279,5.152 0.96,7.224 3.069,9.333c1.984,1.984 2.959,2.116 7.848,1.062c3.453,-0.744 4.076,-0.443 3.244,1.568c-1.104,2.664 0.783,3.856 2.793,1.764c2.023,-2.104 2.848,-4.855 3.073,-10.25l0.211,-5.092l-1.881,-3.728c-2.384,-4.723 -3.929,-5.601 -7.209,-4.099m254.765,0.995c1.138,0.743 3.393,3.844 3.393,4.665c0,0.304 -0.507,0.552 -1.127,0.552c-0.831,0 -1.678,-0.717 -3.229,-2.733c-1.157,-1.503 -2.104,-2.971 -2.104,-3.261c0,-0.61 1.543,-0.22 3.067,0.777m-252.962,4.916c1.105,0.725 1.195,1.035 1.189,4.118c-0.004,1.835 -0.178,3.604 -0.387,3.934c-0.428,0.675 -4.716,1.925 -6.632,1.933c-1.597,0.007 -2.504,-1.336 -3.131,-4.636c-0.654,-3.442 -0.242,-4.977 1.551,-5.789c1.848,-0.836 5.822,-0.6 7.41,0.44m297.19,2.138c-4.114,0.365 -6.478,1.104 -12.138,3.794c-3.311,1.572 -4.59,2.561 -9.035,6.983c-8.285,8.24 -10.398,13.34 -10.166,24.53c0.075,3.552 0.333,7.705 0.575,9.228c0.435,2.744 3.121,10.504 4.71,13.611c2.576,5.039 10.038,13.454 14.762,16.649c5.44,3.68 10.555,5.275 15.765,4.916c5.795,-0.399 14.484,-5.635 19.199,-11.568c7.413,-9.328 11.445,-19.752 12.547,-32.439c0.588,-6.778 0.242,-10.714 -1.416,-16.085c-2.068,-6.704 -6.468,-13.491 -10.581,-16.324c-2.067,-1.422 -2.105,-1.429 -6.494,-1.141c-4.026,0.265 -4.676,0.187 -7.381,-0.881c-3.67,-1.45 -5.639,-1.692 -10.347,-1.273m8.767,5.272c3.218,1.366 6.625,4.032 8.255,6.46c2.201,3.277 2.77,5.372 2.379,8.762c-0.554,4.796 -0.538,5.087 0.295,5.254c1.13,0.227 2.296,-1.841 2.925,-5.185c0.712,-3.79 -0.26,-7.926 -2.692,-11.458c-1.487,-2.159 -2.233,-4.482 -1.44,-4.482c0.867,0 4.61,2.693 6.08,4.374c5.803,6.64 8.894,16.668 7.911,25.666c-1.108,10.139 -2.23,14.63 -5.082,20.34c-5.598,11.209 -12.954,18.107 -21.755,20.399c-2.937,0.765 -6.49,0.324 -10.499,-1.305c-4.196,-1.706 -7.515,-4.157 -11.705,-8.647c-3.315,-3.553 -4.294,-5.014 -7.002,-10.447c-2.974,-5.967 -3.496,-7.556 -4.12,-12.545c-0.143,-1.142 -0.483,-3.425 -0.755,-5.075c-0.443,-2.677 -0.369,-3.51 0.681,-7.749c1.523,-6.144 2.765,-8.775 6.152,-13.027c2.724,-3.42 8.155,-7.661 12.838,-10.024c1.877,-0.947 6.442,-2.298 8.536,-2.526c2.184,-0.239 7.156,0.433 8.998,1.215m-47.575,-0.381c0.154,0.402 0.28,1.17 0.28,1.708c0,1.271 -0.754,0.519 -1.171,-1.169c-0.334,-1.356 0.406,-1.804 0.891,-0.539m-216.034,0.506c-1.473,0.726 -8.016,7.656 -10.813,11.453c-1.943,2.638 -5.341,9.541 -6.33,12.858c-1.35,4.529 -1.468,9.331 -0.438,17.826c1.687,13.906 3.161,18.104 8.03,22.883c3.885,3.813 8.291,5.692 14.834,6.328c4.661,0.453 4.689,0.449 7.613,-0.927c4.133,-1.944 7.741,-5.731 11.442,-12.006c3.226,-5.47 4.25,-9.397 4.421,-16.948c0.182,-8.04 -0.94,-13.172 -4.099,-18.748c-1.117,-1.972 -2.683,-5.293 -3.48,-7.379c-2.246,-5.88 -6.711,-11.159 -12.242,-14.472c-3.134,-1.877 -6.272,-2.182 -8.938,-0.868m6.493,4.363c2.612,1.332 6.801,5.008 6.801,5.968c0,0.428 -0.311,1.037 -0.692,1.353c-0.942,0.782 -0.874,2.642 0.115,3.153c0.444,0.229 1.566,0.553 2.493,0.721c0.928,0.167 1.81,0.627 1.961,1.021c0.423,1.101 0.327,5.06 -0.152,6.321c-0.366,0.963 -4.085,3.549 -5.103,3.549c-0.187,0 -0.325,-1.713 -0.306,-3.807c0.04,-4.512 -0.455,-5.659 -3.793,-8.781c-3.566,-3.336 -5.183,-2.908 -4.156,1.1c0.508,1.98 0.496,2.381 -0.077,2.744c-0.934,0.59 -4.369,0.543 -6.48,-0.09c-2.366,-0.708 -3.358,-0.018 -6.496,4.521c-2.787,4.031 -3.614,4.61 -3.614,2.532c0,-3.82 8.379,-16.377 13.206,-19.79c2.485,-1.757 3.669,-1.854 6.293,-0.515m113.993,16.994c-1.549,0.655 -2.043,2.043 -2.273,6.396c-0.725,13.741 1.315,19.237 8.489,22.869c4.936,2.5 9.209,3.085 15.325,2.098c4.056,-0.654 9.608,-3.421 10.959,-5.46c2.075,-3.134 0.988,-7.883 -2.748,-12.005c-2.686,-2.965 -4.948,-4.413 -8.639,-5.535c-2.872,-0.872 -3.445,-1.261 -5.775,-3.914c-2.904,-3.308 -3.828,-3.784 -8.1,-4.175c-1.65,-0.15 -3.726,-0.37 -4.615,-0.486c-0.888,-0.118 -2.068,-0.022 -2.623,0.212m-98.283,4.994c0.41,0.453 1.072,1.605 1.47,2.56c0.806,1.927 2.264,10.247 2.238,12.765c-0.052,4.983 -2.782,12.497 -6.507,17.907c-0.928,1.348 -2.991,3.563 -4.584,4.923c-2.667,2.276 -3.133,2.498 -5.891,2.793c-5.778,0.619 -13.323,-2.08 -16.719,-5.981c-2.033,-2.335 -3.821,-6.034 -3.827,-7.915c-0.006,-1.906 0.26,-2.073 2.094,-1.307c2.377,0.993 3.409,0.801 4.995,-0.93c0.797,-0.871 2.487,-2.026 3.753,-2.567c4.406,-1.88 8.067,-6.454 9.911,-12.384c1.222,-3.928 1.272,-4.001 2.816,-4.147c0.865,-0.082 2.092,-0.61 2.726,-1.174c0.635,-0.564 1.913,-1.367 2.842,-1.784c0.928,-0.418 2.063,-1.395 2.522,-2.172c0.97,-1.643 1.159,-1.694 2.161,-0.587m102.985,-0.101c0.839,0.398 2.428,1.884 3.53,3.301c4.938,6.346 6.409,7.512 9.48,7.509c0.964,-0.001 2.455,-0.43 3.314,-0.954c1.344,-0.819 1.748,-0.874 2.906,-0.394c1.313,0.544 3.884,3.337 4.931,5.356c1.546,2.983 -0.165,4.897 -6.106,6.83c-5.103,1.66 -8.916,1.503 -13.282,-0.547c-6.031,-2.831 -7.727,-5.329 -8.242,-12.135c-0.182,-2.411 -0.486,-4.748 -0.674,-5.192c-0.438,-1.035 0.015,-2.844 0.945,-3.773c0.904,-0.904 1.294,-0.904 3.198,-0.001m-126.012,9.355c0.444,0.717 -0.677,3.747 -1.56,4.219c-1.296,0.694 -1.359,0.62 -1.072,-1.263c0.36,-2.359 1.919,-4.11 2.632,-2.956m139.008,35.753c-3.519,2.129 -8.6,9.888 -8.61,13.144c-0.007,2.303 0.685,3.184 3.698,4.705c2.247,1.134 3.372,2.173 6.195,5.718c4.378,5.5 5.356,6.272 7.936,6.272c1.653,0 2.33,-0.284 3.725,-1.562c1.676,-1.536 1.708,-1.632 1.986,-5.882c0.156,-2.377 0.527,-4.906 0.827,-5.62c1.271,-3.031 -0.144,-9.102 -3.133,-13.447c-2.808,-4.081 -8.781,-5.655 -12.624,-3.328m7.699,4.275c2.194,1.492 4.449,5.964 4.449,8.828c0.001,1.58 -0.222,2.096 -1.172,2.718c-1.951,1.278 -2.244,2.303 -1.161,4.056c1.049,1.696 1.197,3.1 0.472,4.456c-0.768,1.435 -1.636,1.058 -3.995,-1.735c-4.308,-5.104 -6.366,-7.159 -8.005,-7.995c-2.813,-1.435 -3.064,-2.027 -1.89,-4.444c0.559,-1.151 2.079,-3.216 3.376,-4.587c2.112,-2.233 2.558,-2.494 4.261,-2.494c1.287,0 2.472,0.387 3.665,1.197m-83.718,12.718c0.947,1.689 0.227,4.772 -1.115,4.772c-0.684,0 -1.087,-0.519 -1.556,-2.001c-1.127,-3.563 0.992,-5.762 2.671,-2.771m-5.916,4.091c0.15,1.402 0.514,2.997 0.807,3.546c0.293,0.548 0.533,1.816 0.533,2.818c0,1.543 -0.285,2.08 -1.86,3.504c-1.909,1.724 -6.355,3.963 -7.87,3.963c-2.058,0 -2.367,-3.889 -0.642,-8.075c0.627,-1.522 1.266,-3.429 1.419,-4.238c0.429,-2.266 3.434,-4.373 5.954,-4.176c1.321,0.104 1.397,0.226 1.659,2.658m-43.416,1.142c-0.957,1.018 -1.468,1.155 -4.349,1.161c-4.184,0.008 -7.895,0.901 -12.371,2.975c-2.648,1.227 -3.641,1.934 -3.843,2.738c-0.305,1.22 1.658,7.464 3.985,12.668c2.525,5.646 4.833,5.981 9.807,1.423c1.645,-1.506 3.101,-2.739 3.236,-2.739c0.135,0 0.311,0.674 0.391,1.499c0.119,1.235 0.361,1.525 1.37,1.642c1.451,0.168 2.896,-1.496 4.738,-5.451c0.978,-2.104 1.177,-3.203 1.168,-6.457c-0.017,-5.447 -1.343,-10.612 -2.724,-10.612c-0.179,0 -0.812,0.519 -1.408,1.153m-3.037,5.586c1.919,0.737 -0.599,6.292 -4.892,10.792c-2.622,2.75 -3.786,2.879 -5.131,0.57c-1.528,-2.625 -3.07,-7.587 -2.618,-8.431c0.921,-1.721 10.192,-3.87 12.641,-2.931"/></svg>