<?xml version="1.0" encoding="UTF-8" standalone="no"?>
<!DOCTYPE svg PUBLIC "-//W3C//DTD SVG 1.1//EN" "http://www.w3.org/Graphics/SVG/1.1/DTD/svg11.dtd">
<svg width="100%" height="100%" viewBox="0 0 1024 600" version="1.1" xmlns="http://www.w3.org/2000/svg" xmlns:xlink="http://www.w3.org/1999/xlink" xml:space="preserve" xmlns:serif="http://www.serif.com/" style="fill-rule:evenodd;clip-rule:evenodd;stroke-linejoin:round;stroke-miterlimit:2;">
    <g transform="matrix(1,0,0,1,0,-2.7617)">
        <g transform="matrix(1,0,0,1,42.6023,-19.6133)">
            <g transform="matrix(1,0,0,1,0,-21.9257)">
                <g transform="matrix(0.57063,0.205949,-0.205949,0.57063,142.55,-173.822)">
                    <path d="M1073,205.75C1073,211.662 1073.72,222.259 1074.62,229.298C1075.51,236.336 1075.96,242.376 1075.62,242.718C1074.75,243.588 1070.49,239.424 1066.19,233.5C1060.62,225.811 1059,225.144 1059,230.532C1059,235.255 1061.13,240.087 1066.92,248.5C1069.57,252.35 1072.75,257.494 1073.98,259.931C1076.13,264.169 1076.15,264.419 1074.42,265.681C1073.43,266.406 1071.69,267.007 1070.56,267.015C1069.43,267.024 1067.85,267.439 1067.06,267.939C1065.14,269.155 1066.75,271.079 1072.52,274.458C1074.91,275.86 1077.15,277.889 1077.49,278.968C1077.83,280.047 1077.34,284.533 1076.39,288.937C1074.76,296.551 1074.76,297.137 1076.43,300.854C1078.02,304.371 1078.09,305.976 1077.1,316.801C1075.94,329.477 1076.17,331.487 1078.95,332.974C1082.36,334.798 1100.27,337.068 1106.08,336.412C1111.05,335.849 1117.56,336.689 1124,338.726C1126.31,339.455 1122.82,340.535 1112.36,342.333C1107.36,343.191 1101.5,344.812 1099.35,345.934C1096.71,347.311 1093.72,347.935 1090.14,347.854C1084.06,347.718 1081.75,349.298 1081.75,353.583C1081.75,357.299 1083.87,358.617 1092.27,360.117C1098.01,361.143 1104.14,361.138 1124.43,360.091C1138.22,359.379 1153.33,358.426 1158,357.973C1162.67,357.52 1172.47,356.666 1179.77,356.076C1187.07,355.485 1194.94,354.562 1197.27,354.025C1199.6,353.488 1205.43,353.038 1210.24,353.024C1215.88,353.009 1221.62,352.274 1226.45,350.951C1232.52,349.286 1234.65,349.098 1237.81,349.95C1246.53,352.297 1260.08,349.909 1267.35,344.744C1269.92,342.92 1272.02,342.687 1288.35,342.41C1316.37,341.935 1357.3,339.882 1359.25,338.854C1361.43,337.7 1361.57,332.717 1359.46,330.969C1358.56,330.219 1355.68,329.767 1352.46,329.872L1347,330.051L1347,325.48C1347,321.96 1346.44,320.345 1344.55,318.455C1341.88,315.794 1342.23,315.838 1321.77,315.58C1307.86,315.405 1305.66,314.312 1312.52,310.988C1317.13,308.759 1317.32,308.749 1325.35,310.316C1334.82,312.165 1353.37,311.708 1358.66,309.496C1364.08,307.235 1364.65,299.291 1359.67,295.599C1357.29,293.832 1355.64,293.541 1349.3,293.76C1345.16,293.903 1335.68,293.314 1328.24,292.452C1320.8,291.589 1311.96,290.96 1308.6,291.054C1305.25,291.148 1299.12,290.747 1295,290.163C1266.66,286.15 1249.32,284 1245.29,284C1242.72,284 1236.54,283.35 1231.56,282.556C1213.12,279.616 1206.34,278.884 1174.5,276.403C1153.08,274.735 1136.23,272.678 1129.81,270.95C1125.08,269.675 1108.49,254.126 1101.39,244.318C1096.92,238.141 1086.4,217.054 1084.01,209.5C1083.32,207.3 1081.65,203.137 1080.3,200.25C1078.34,196.03 1077.38,195 1075.43,195C1073.01,195 1073,195.037 1073,205.75Z" style="fill:rgb(216,138,184);"/>
                </g>
                <g transform="matrix(0.57063,0.205949,-0.205949,0.57063,142.55,-173.822)">
                    <path d="M1282.35,95.004C1280.79,95.625 1279.89,97.283 1279.1,100.982C1277.8,107.014 1276.3,110.116 1272.11,115.371C1270.41,117.501 1268.29,121.776 1267.39,124.871C1266.5,127.967 1264.23,134.954 1262.36,140.398C1257.68,153.984 1254.1,172.715 1252.88,190C1251.76,205.823 1252.49,224.761 1254.4,229.5C1255.07,231.15 1255.7,237.847 1255.8,244.383C1255.91,250.918 1256.52,258.118 1257.15,260.383C1257.79,262.647 1258.8,267.875 1259.4,272L1260.5,279.5L1267,280.137C1270.94,280.523 1274,280.37 1274.77,279.749C1275.67,279.024 1276.57,279.203 1277.85,280.362C1278.84,281.263 1280.91,282 1282.44,282C1284.41,282 1285.06,282.406 1284.67,283.405C1284.28,284.427 1285.27,284.963 1288.32,285.373C1290.62,285.683 1294.37,286.219 1296.66,286.565C1300.4,287.129 1301.01,286.922 1302.56,284.553C1304.09,282.219 1304.23,279.881 1303.76,264.392C1303.46,254.366 1303.69,243.583 1304.29,239.186C1304.87,234.959 1305.27,228.899 1305.17,225.72C1304.94,218.333 1305.97,217.881 1318.89,219.703C1327.42,220.905 1343.7,221.332 1361.5,220.822C1364.8,220.728 1369.16,221.009 1371.2,221.447C1378.57,223.037 1383.2,219.586 1383.2,212.5C1383.2,207.816 1380.81,204.363 1376.23,202.452C1374.18,201.595 1371.28,199.723 1369.78,198.292C1367.48,196.08 1366.25,195.716 1361.67,195.866C1357.65,195.997 1355.02,195.409 1351.38,193.564C1345.7,190.679 1333.55,188.792 1326.24,189.658C1320.46,190.342 1308.21,187.158 1305.89,184.372C1305.14,183.464 1303.92,180.646 1303.19,178.11C1301.71,173.008 1299.77,150.808 1299.99,141.606C1300.07,138.364 1299.62,132.7 1299,129.019C1298.07,123.502 1298.16,120.78 1299.53,113.519C1301.11,105.043 1301.1,104.614 1299.29,102.106C1297.5,99.638 1290.86,95.773 1286.5,94.657C1285.4,94.376 1283.53,94.532 1282.35,95.004Z" style="fill:rgb(216,138,184);"/>
                </g>
                <g transform="matrix(0.57063,0.205949,-0.205949,0.57063,142.55,-173.822)">
                    <path d="M1189.06,104.554C1189.83,97.197 1181.51,73.607 1179.48,76.082C1173.88,82.908 1166.39,98.638 1164.04,106.5C1162.88,110.35 1161.16,115.053 1160.22,116.951L1158.5,120.401L1149.5,120.598C1144.54,120.707 1138.03,121.544 1135,122.466C1131.98,123.385 1127.48,124.527 1125,125.005C1122.53,125.482 1118.25,126.514 1115.5,127.299C1111.84,128.344 1107.02,128.592 1097.49,128.229L1084.47,127.734L1081.24,130.456C1079.46,131.953 1078,133.797 1078,134.554C1078,136.462 1075.48,137.625 1068.58,138.901C1058.6,140.745 1056.12,145.527 1062.25,151.123C1064.04,152.756 1067.25,155.759 1069.38,157.796C1073.04,161.29 1073.59,161.487 1079.13,161.277C1083.94,161.094 1085,161.343 1085,162.654C1085,163.941 1085.74,164.142 1088.75,163.677C1098.89,162.114 1154.02,160.778 1188.5,161.259L1226.5,161.79L1233.5,151.943C1240.76,141.732 1244.92,133.38 1244.97,128.907C1244.99,127.004 1243.67,125.192 1240.01,122.106C1230.29,113.907 1215.83,109.629 1201.97,110.852C1197.83,111.218 1193.67,111.368 1192.72,111.185C1190.25,110.708 1188.43,110.58 1189.06,104.554Z" style="fill:rgb(216,138,184);"/>
                </g>
                <g transform="matrix(0.57063,0.205949,-0.205949,0.57063,142.55,-173.822)">
                    <path d="M1102.06,308.578C1103.15,309.884 1103.11,310.872 1101.83,314.328C1100.78,317.168 1100.58,319.154 1101.21,320.549C1103.2,325 1105.22,325.365 1132.5,326.21C1187.77,327.922 1199.5,328.501 1199.24,329.5C1198.95,330.662 1170.01,330.344 1148.5,328.942C1140.8,328.44 1127.75,328.008 1119.5,327.982C1089.83,327.888 1086.48,326.561 1087.2,315.195C1087.46,311.117 1088.12,308.537 1089.05,307.947C1091.53,306.377 1100.6,306.816 1102.06,308.578Z" style="fill:rgb(226,167,203);"/>
                </g>
                <g transform="matrix(0.57063,0.205949,-0.205949,0.57063,142.55,-173.822)">
                    <path d="M1112.17,285.862C1116.2,287.437 1123.55,289.265 1128.5,289.925C1133.45,290.585 1139.13,291.547 1141.12,292.063C1143.11,292.578 1147.61,293 1151.13,293C1155.31,293 1159.43,293.746 1163.01,295.149C1169.66,297.753 1177.04,298.582 1179.91,297.047C1181.55,296.171 1183.54,296.293 1188.69,297.584C1194.38,299.01 1196.55,299.086 1203.59,298.101C1210.74,297.101 1212.38,297.168 1215.98,298.609C1218.26,299.522 1219.76,300.64 1219.31,301.092C1218.05,302.346 1167.26,302.43 1162,301.188C1159.53,300.603 1150.08,299.622 1141,299.008C1131.92,298.394 1121.66,297.241 1118.19,296.446C1114.72,295.651 1109.86,295 1107.39,295C1099.14,295 1094.17,290.281 1096.95,285.093C1098.53,282.141 1103.26,282.38 1112.17,285.862Z" style="fill:rgb(232,185,214);"/>
                </g>
                <g transform="matrix(0.181165,0.0653849,-0.0653849,0.181165,724.793,111.732)">
                    <path d="M387,166.659C385.625,166.872 380.9,167.688 376.5,168.473C372.1,169.258 365.125,170.19 361,170.544C349.53,171.528 324.717,176.647 313,180.447C278.57,191.612 265.802,194.717 238.5,198.566C223.618,200.664 214.804,203.298 210.937,206.804C206.262,211.042 197.08,233.278 195.165,245C193.492,255.24 193.412,260.098 194.424,290C195.2,312.902 196.253,318.807 203.612,341.5C210.563,362.94 216.047,373.252 233.581,397.859C245.65,414.797 249.062,418.769 264.328,433.654C273.773,442.863 284.233,452.48 287.573,455.025C297.986,462.959 310.981,470.222 319.916,473.102C324.637,474.624 331.289,477.032 334.697,478.453C352.52,485.884 367.528,486.808 391.293,481.94C406.495,478.826 414.29,476.329 418.918,473.09C420.338,472.097 435.17,464.385 451.877,455.953C477.847,442.846 483.226,439.743 488.95,434.561C492.632,431.227 501.094,423.613 507.752,417.64C518.716,407.806 520.24,406.011 523.892,398.64C526.11,394.163 530.376,386.224 533.373,380.998C539.51,370.294 545.394,354.175 550.708,333.5L554.306,319.5L553.155,305C552.522,297.025 551.354,288.08 550.559,285.122C549.764,282.164 544.792,270.989 539.509,260.288C530.335,241.703 529.516,240.428 521.203,231.795C504.54,214.49 481.19,193.68 473.686,189.445C469.734,187.215 463.635,183.275 460.134,180.69C452.905,175.354 447.261,172.641 438.864,170.465C426.955,167.379 423.022,166.977 416.023,168.133C410.467,169.051 407.644,168.959 400.372,167.624C395.493,166.729 391.05,166.058 390.5,166.134C389.95,166.21 388.375,166.446 387,166.659Z" style="fill:rgb(255,255,190);"/>
                </g>
                <g transform="matrix(0.181165,0.0653849,-0.0653849,0.181165,724.793,111.732)">
                    <path d="M387,166.659C385.625,166.872 380.9,167.688 376.5,168.473C372.1,169.258 365.125,170.19 361,170.544C349.53,171.528 324.717,176.647 313,180.447C278.57,191.612 265.802,194.717 238.5,198.566C223.618,200.664 214.804,203.298 210.937,206.804C206.262,211.042 197.08,233.278 195.165,245C193.492,255.24 193.412,260.098 194.424,290C195.2,312.902 196.253,318.807 203.612,341.5C210.563,362.94 216.047,373.252 233.581,397.859C245.65,414.797 249.062,418.769 264.328,433.654C273.773,442.863 284.233,452.48 287.573,455.025C297.986,462.959 310.981,470.222 319.916,473.102C324.637,474.624 331.289,477.032 334.697,478.453C352.52,485.884 367.528,486.808 391.293,481.94C406.495,478.826 414.29,476.329 418.918,473.09C420.338,472.097 435.17,464.385 451.877,455.953C477.847,442.846 483.226,439.743 488.95,434.561C492.632,431.227 501.094,423.613 507.752,417.64C518.716,407.806 520.24,406.011 523.892,398.64C526.11,394.163 530.376,386.224 533.373,380.998C539.51,370.294 545.394,354.175 550.708,333.5L554.306,319.5L553.155,305C552.522,297.025 551.354,288.08 550.559,285.122C549.764,282.164 544.792,270.989 539.509,260.288C530.335,241.703 529.516,240.428 521.203,231.795C504.54,214.49 481.19,193.68 473.686,189.445C469.734,187.215 463.635,183.275 460.134,180.69C452.905,175.354 447.261,172.641 438.864,170.465C426.955,167.379 423.022,166.977 416.023,168.133C410.467,169.051 407.644,168.959 400.372,167.624C395.493,166.729 391.05,166.058 390.5,166.134C389.95,166.21 388.375,166.446 387,166.659ZM421.232,183.38C436.55,184.54 438.454,184.9 443.773,187.644C468.544,200.419 505.437,231.839 518.166,251C527.825,265.54 536.893,284.381 538.621,293.5C541.344,307.873 539.103,329.597 533.095,347.075C528.997,358.998 516.038,385.39 510.792,392.5C502.84,403.276 485.191,420.313 475.572,426.5C457.752,437.96 420.738,457.337 403.857,464.042C398.154,466.307 378.469,470.841 371,471.61C363.506,472.381 349.22,469.051 336.515,463.571C331.007,461.195 323.911,458.301 320.747,457.139C313.083,454.324 304.406,449.862 299.5,446.213C280.631,432.178 253.427,403.224 238.713,381.515C227.142,364.444 214.685,336.119 210.975,318.447C208.972,308.903 209.207,257.171 211.313,244C213.433,230.738 214.466,227.088 217.279,222.913C222.425,215.278 233.215,211.508 260,207.986C268.525,206.865 278.425,205.294 282,204.495C285.575,203.696 289.748,203.032 291.273,203.021C292.798,203.009 297.298,201.692 301.273,200.093C305.248,198.494 317.725,194.143 329,190.425L349.5,183.665L364.922,183.327C373.404,183.142 380.566,182.767 380.838,182.495C381.735,181.598 404.2,182.09 421.232,183.38Z" style="fill:rgb(207,109,168);"/>
                </g>
                <g transform="matrix(0.181165,0.0653849,-0.0653849,0.181165,724.793,111.732)">
                    <path d="M446.99,317.807C444.471,319.847 444.093,324.916 445.946,331.798C446.536,333.991 447.127,340.896 447.26,347.143C447.473,357.222 447.196,359.4 444.797,366.5C443.31,370.9 441.587,377.401 440.967,380.946C439.55,389.056 437.302,393.477 431.622,399.321C423.286,407.898 410.648,414.413 390.5,420.518C376.187,424.856 365.225,425.819 350.13,424.064C338.162,422.672 337.036,422.26 327,415.591C315.742,408.109 310.703,402.921 306.68,394.67C301.219,383.471 294.006,352.212 293.994,339.699C293.987,331.622 292.475,326.286 289.969,325.49C282.087,322.989 278.438,335.299 281.908,352.684C282.985,358.083 284.606,366.314 285.51,370.976C288.84,388.159 294.805,403.777 301.598,413.099C304.861,417.578 325.728,432.99 332.403,435.852C336.304,437.525 361.77,439.31 370.5,438.523C388.699,436.882 415.909,427.877 430.1,418.799C438.625,413.345 447.365,404.669 450.757,398.292C452.566,394.891 454.497,388.991 455.433,384C456.311,379.325 458.213,371.925 459.661,367.557C462.176,359.966 462.264,358.98 461.645,345.348C461.288,337.502 460.494,328.741 459.88,325.878C458.02,317.204 452.22,313.572 446.99,317.807Z" style="fill:rgb(207,109,168);"/>
                </g>
                <g transform="matrix(0.181165,0.0653849,-0.0653849,0.181165,724.793,111.732)">
                    <path d="M302.831,248.489C298.734,250.776 297.377,256.079 299.479,261.584C301.507,266.893 304.221,269 309.034,269C313.105,269 316.634,266.308 317.598,262.466C319.895,253.312 310.36,244.287 302.831,248.489Z" style="fill:rgb(207,109,168);"/>
                </g>
                <g transform="matrix(0.181165,0.0653849,-0.0653849,0.181165,724.793,111.732)">
                    <path d="M411.021,242.116C407.179,243.649 405.094,245.98 404.439,249.476C403.603,253.93 406.179,259.529 410.19,261.974C415.111,264.975 418.613,264.587 422.6,260.6C425.431,257.769 426,256.467 426,252.823C426,247.824 424.151,244.646 419.989,242.494C416.698,240.792 414.564,240.702 411.021,242.116Z" style="fill:rgb(207,109,168);"/>
                </g>
                <g transform="matrix(0.181165,0.0653849,-0.0653849,0.181165,724.793,111.732)">
                    <path d="M395,518C392.136,520.864 392.406,525.217 396.918,548.919C399.073,560.238 401.12,572.005 401.467,575.066C401.814,578.127 402.985,582.091 404.07,583.875C405.805,586.728 406.49,587.081 409.764,586.809C415.398,586.341 416.437,583.38 415.03,571.804C413.451,558.823 406.27,523.422 404.533,520.065C402.215,515.581 398.273,514.727 395,518Z" style="fill:rgb(255,255,190);"/>
                </g>
                <g transform="matrix(0.181165,0.0653849,-0.0653849,0.181165,724.793,111.732)">
                    <path d="M422.097,513.644C420.01,515.106 419.809,515.854 420.281,520.394C420.956,526.886 428.318,549.047 431.827,555.15C433.297,557.707 439.225,565.066 445,571.503C457.717,585.679 461.674,588.183 465.429,584.429C469.432,580.425 466.849,575.452 452.231,559.023C442.662,548.267 439.827,543.172 434.561,527.26C431.881,519.16 430.128,515.459 428.286,514.01C425.198,511.582 425.055,511.573 422.097,513.644Z" style="fill:rgb(255,255,190);"/>
                </g>
                <g transform="matrix(0.181165,0.0653849,-0.0653849,0.181165,724.793,111.732)">
                    <path d="M350.14,519.351C348.666,520.919 347.439,524.329 346.448,529.601C342.199,552.226 340.519,559.996 338.795,565C336.578,571.435 336.253,577.395 338.004,579.505C339.933,581.83 344.777,581.344 347.349,578.568C348.589,577.231 350.996,571.718 352.699,566.318C356.302,554.891 361.502,526.138 360.609,522.58C359.184,516.9 353.957,515.288 350.14,519.351Z" style="fill:rgb(255,255,190);"/>
                </g>
                <g transform="matrix(0.181165,0.0653849,-0.0653849,0.181165,724.793,111.732)">
                    <path d="M466.448,501.44C464.983,503.674 464.983,504.162 466.445,507.243C469.274,513.205 520.966,562.889 526.686,565.144C532.665,567.502 538.885,564.453 537.611,559.79C536.727,556.555 535.673,555.445 525,546.514C519.775,542.142 507.29,530.483 497.255,520.605C487.22,510.728 477.77,501.829 476.255,500.83C472.318,498.234 468.388,498.478 466.448,501.44Z" style="fill:rgb(255,255,190);"/>
                </g>
                <g transform="matrix(0.181165,0.0653849,-0.0653849,0.181165,724.793,111.732)">
                    <path d="M287,512.719C284.323,513.686 281.864,516.328 274.176,526.5C270.02,532 263.839,539.425 260.442,543C257.044,546.575 253.717,550.554 253.047,551.843C250.15,557.421 255.931,562.67 261.647,559.651C267.884,556.359 288.672,532.265 293.861,522.316C295.364,519.434 295.31,515.493 293.75,514.245C291.962,512.814 288.748,512.088 287,512.719Z" style="fill:rgb(255,255,190);"/>
                </g>
                <g transform="matrix(0.181165,0.0653849,-0.0653849,0.181165,724.793,111.732)">
                    <path d="M516.852,466.426C514.933,470.636 516.818,473.95 527.34,484.871C532.972,490.717 541.613,499.951 546.54,505.392C555.131,514.875 570.096,528.408 574.684,530.842C578.347,532.784 581.794,532.244 583.633,529.438C585.178,527.08 585.185,526.611 583.723,523.545C582.849,521.712 577.254,515.917 571.29,510.666C565.326,505.415 554.43,494.32 547.076,486.012C530.113,466.845 526.847,464 521.799,464C518.703,464 517.743,464.471 516.852,466.426Z" style="fill:rgb(255,255,190);"/>
                </g>
                <g transform="matrix(0.181165,0.0653849,-0.0653849,0.181165,724.793,111.732)">
                    <path d="M240.013,488.741C239.195,489.062 235.382,491.72 231.54,494.647C227.698,497.574 220.717,501.675 216.027,503.759C190.524,515.092 182.744,521.839 188.829,527.345C192.075,530.283 196.259,529.211 213.132,521.117C241.02,507.74 253.95,495.789 247.171,489.655C245.331,487.989 242.765,487.662 240.013,488.741Z" style="fill:rgb(255,255,190);"/>
                </g>
                <g transform="matrix(0.181165,0.0653849,-0.0653849,0.181165,724.793,111.732)">
                    <path d="M166.047,437.676C159.747,440.144 148.947,443.744 142.047,445.676C135.146,447.608 127.064,449.875 124.086,450.713C118.147,452.385 114,455.774 114,458.955C114,462.185 117.531,465 121.583,465C132.324,465 182.204,448.744 188.25,443.274C190.529,441.211 190.488,436.752 188.171,434.655C185.108,431.883 178.547,432.779 166.047,437.676Z" style="fill:rgb(255,255,190);"/>
                </g>
                <g transform="matrix(0.181165,0.0653849,-0.0653849,0.181165,724.793,111.732)">
                    <path d="M553.655,417.829C547.627,424.49 557.233,431.948 588.129,444.594C594.383,447.153 603.775,451.263 609,453.725C627.923,462.644 631.494,463.506 635,460C637.773,457.227 637.498,453.847 634.25,450.764C631.499,448.153 616.939,441.164 592.5,430.725C585.35,427.67 575.478,423.108 570.563,420.586C560.927,415.641 556.315,414.889 553.655,417.829Z" style="fill:rgb(255,255,190);"/>
                </g>
                <g transform="matrix(0.181165,0.0653849,-0.0653849,0.181165,724.793,111.732)">
                    <path d="M575.655,372.829C572.377,376.451 574.247,380.997 579.905,383.159C581.332,383.704 589.925,385.687 599,387.565C612.451,390.349 617.718,390.979 627.5,390.975C642.798,390.969 647.209,388.952 645.635,382.684C644.703,378.969 642.811,378.285 631.5,377.574C611.885,376.342 607.364,375.8 596.822,373.415C583.789,370.467 577.939,370.305 575.655,372.829Z" style="fill:rgb(255,255,190);"/>
                </g>
                <g transform="matrix(0.181165,0.0653849,-0.0653849,0.181165,724.793,111.732)">
                    <path d="M133.5,361.431C125.8,362.669 114.893,363.998 109.262,364.386C95.846,365.309 79.186,368.521 76.849,370.636C75.832,371.557 75,373.17 75,374.221C75,380.019 80.374,382.381 90.261,380.928C93.693,380.424 102.575,379.563 110,379.016C127.437,377.731 153.302,372.942 156.002,370.498C157.992,368.697 158.632,364.492 157.235,362.4C156.07,360.655 152.34,358.992 149.816,359.091C148.542,359.14 141.2,360.194 133.5,361.431Z" style="fill:rgb(255,255,190);"/>
                </g>
                <g transform="matrix(0.181165,0.0653849,-0.0653849,0.181165,724.793,111.732)">
                    <path d="M613.5,298.029C602.673,298.422 593.209,299.238 591.5,299.926C584.565,302.717 582.069,307.943 585.982,311.483C587.657,312.999 589.011,313.172 594.732,312.601C598.454,312.229 609.886,311.577 620.135,311.153C634.882,310.541 639.3,310.033 641.309,308.717C647.983,304.344 643.887,296.62 635.185,297.17C633.708,297.263 623.95,297.65 613.5,298.029Z" style="fill:rgb(255,255,190);"/>
                </g>
                <g transform="matrix(0.181165,0.0653849,-0.0653849,0.181165,724.793,111.732)">
                    <path d="M95.85,296.218C81.908,296.612 69.493,297.182 68.263,297.484C65.085,298.262 62.761,302.199 63.572,305.429C64.879,310.64 66.303,310.806 106.368,310.417C126.645,310.221 144.082,309.791 145.116,309.463C149.014,308.226 148.749,300.044 144.738,297.812C141.422,295.966 124.368,295.41 95.85,296.218Z" style="fill:rgb(255,255,190);"/>
                </g>
                <g transform="matrix(0.181165,0.0653849,-0.0653849,0.181165,724.793,111.732)">
                    <path d="M68.5,240.195C64.301,242.576 63.782,246.873 67.273,250.364C69.102,252.193 72.861,253.269 86.523,255.875C100.699,258.578 105.592,260.01 116.179,264.551C136.792,273.394 146.076,274.528 147.616,268.393C148.705,264.054 145.574,261.194 133.55,255.544C116.539,247.552 101.873,243.242 82.357,240.503C69.819,238.743 71.014,238.769 68.5,240.195Z" style="fill:rgb(255,255,190);"/>
                </g>
                <g transform="matrix(0.181165,0.0653849,-0.0653849,0.181165,724.793,111.732)">
                    <path d="M69.997,197.503C67.968,199.948 68.511,204.185 71.125,206.303C72.431,207.362 76.983,209.979 81.241,212.12C85.498,214.261 91.348,217.505 94.241,219.329C97.133,221.152 105.35,225.451 112.5,228.88C119.65,232.31 128.875,237.084 133,239.49C142.403,244.973 145.246,245.724 148.507,243.587C152.056,241.262 151.886,236.62 148.126,233.151C146.545,231.693 136.082,225.816 124.876,220.092C113.669,214.368 102.352,208.134 99.726,206.239C93.35,201.638 79.759,196 75.043,196C72.883,196 70.707,196.648 69.997,197.503Z" style="fill:rgb(255,255,190);"/>
                </g>
                <g transform="matrix(0.181165,0.0653849,-0.0653849,0.181165,724.793,111.732)">
                    <path d="M614,216.136C609.865,217.806 583.13,224.723 573.579,226.594C563.736,228.522 561,230.338 561,234.943C561,238.769 564.183,241 569.643,241C576.836,241 607.027,233.73 619.565,228.979C626.349,226.408 629.148,220.254 625.171,216.655C623.148,214.824 617.858,214.578 614,216.136Z" style="fill:rgb(255,255,190);"/>
                </g>
                <g transform="matrix(0.181165,0.0653849,-0.0653849,0.181165,724.793,111.732)">
                    <path d="M82.896,151.104C80.321,153.679 80.897,158.181 84.265,161.814C85.494,163.139 96.983,171.261 109.796,179.862C154.371,209.785 157.486,211.435 161.345,207.171C163.455,204.84 163.452,201.62 161.337,198.392C160.423,196.996 149.285,188.987 136.587,180.593C104.991,159.708 103.37,158.62 96.186,153.5C89.201,148.522 86.047,147.953 82.896,151.104Z" style="fill:rgb(255,255,190);"/>
                </g>
                <g transform="matrix(0.181165,0.0653849,-0.0653849,0.181165,724.793,111.732)">
                    <path d="M563.641,146.067C562.196,147.204 558.961,150.801 556.454,154.06C553.141,158.365 549.593,161.391 543.482,165.126C522.378,178.022 515.532,187.371 523.41,192.533C526.759,194.727 529.973,193.626 536.247,188.136C539.181,185.568 545.164,181.264 549.541,178.571C560.945,171.556 565.491,167.64 570.089,160.868C575.134,153.439 575.959,149.352 573.04,146.25C570.4,143.445 567.058,143.38 563.641,146.067Z" style="fill:rgb(255,255,190);"/>
                </g>
                <g transform="matrix(0.181165,0.0653849,-0.0653849,0.181165,724.793,111.732)">
                    <path d="M119.455,110.455C118.105,111.805 117,113.402 117,114.004C117,117.944 127.16,128.638 147.5,146.108C153,150.832 162.45,159.752 168.5,165.931C182.421,180.149 186.491,182.43 190.345,178.171C193.596,174.579 192.432,171.459 184.399,162.231C175.647,152.178 167.647,144.459 157,135.795C152.875,132.439 145,125.284 139.5,119.897C130.646,111.224 126.144,108 122.889,108C122.35,108 120.805,109.105 119.455,110.455Z" style="fill:rgb(255,255,190);"/>
                </g>
                <g transform="matrix(0.181165,0.0653849,-0.0653849,0.181165,724.793,111.732)">
                    <path d="M507.232,106.331C502.748,108.82 489.962,131.414 487.057,141.98C483.559,154.701 484.751,161.665 490.733,163.456C493.806,164.375 497.679,160.347 498.516,155.362C499.957,146.77 502.391,140.339 509.033,127.575C516.577,113.078 517.466,109.14 513.777,106.557C511.129,104.702 510.221,104.67 507.232,106.331Z" style="fill:rgb(255,255,190);"/>
                </g>
                <g transform="matrix(0.181165,0.0653849,-0.0653849,0.181165,724.793,111.732)">
                    <path d="M153.44,87.451C152.404,89.033 152.09,90.717 152.555,92.201C152.952,93.465 158.502,100.284 164.888,107.353C175.471,119.067 195.148,141.419 206.676,154.823C211.985,160.996 214.891,162.463 218.528,160.805C223.301,158.631 223.008,153.758 217.712,147.221C198.944,124.054 170.609,92.509 164.293,87.75C159.671,84.267 155.6,84.155 153.44,87.451Z" style="fill:rgb(255,255,190);"/>
                </g>
                <g transform="matrix(0.181165,0.0653849,-0.0653849,0.181165,724.793,111.732)">
                    <path d="M469.591,95.899C468.437,97.175 467.253,102.017 465.984,110.649C464.944,117.717 462.958,127.325 461.568,132C457.817,144.622 458.382,152 463.101,152C467.641,152 468.84,150.153 473.442,136.069C478.066,121.922 480.953,104.933 479.629,99.66C478.261,94.209 472.929,92.211 469.591,95.899Z" style="fill:rgb(255,255,190);"/>
                </g>
                <g transform="matrix(0.181165,0.0653849,-0.0653849,0.181165,724.793,111.732)">
                    <path d="M211.25,70.522C207.726,73.014 208.485,76.549 215.1,88.45C218.448,94.472 222.015,101.447 223.028,103.95C224.04,106.452 228.613,116.778 233.189,126.895C242.563,147.622 244.954,150.653 249.796,147.948C254.107,145.54 253.799,141.763 248.151,127.792C236.472,98.907 225.469,76.651 220.64,72.145C217.553,69.265 213.916,68.636 211.25,70.522Z" style="fill:rgb(255,255,190);"/>
                </g>
                <g transform="matrix(0.181165,0.0653849,-0.0653849,0.181165,724.793,111.732)">
                    <path d="M262.655,65.829C260.623,68.074 260.602,69.62 262.483,78.5C263.298,82.35 263.973,88.735 263.983,92.688C264.006,102.435 267.76,131.181 269.577,135.53C272.55,142.645 277.802,145.086 281.455,141.05C283.419,138.879 283.425,138.976 280.124,119C278.931,111.775 278.046,101.773 278.029,95.299C277.997,83.047 276.769,75.508 273.874,69.783C270.956,64.017 265.906,62.237 262.655,65.829Z" style="fill:rgb(255,255,190);"/>
                </g>
                <g transform="matrix(0.181165,0.0653849,-0.0653849,0.181165,724.793,111.732)">
                    <path d="M435.637,85.506C434.809,86.334 433.898,87.797 433.614,88.756C432.136,93.739 425.608,127.213 425.245,131.669C424.866,136.331 425.074,137.002 427.363,138.502C430.378,140.478 433.444,139.778 435.496,136.646C438.112,132.654 444.046,107.001 444.677,96.96C445.191,88.774 445.034,87.177 443.567,85.71C441.454,83.597 437.644,83.499 435.637,85.506Z" style="fill:rgb(255,255,190);"/>
                </g>
                <g transform="matrix(0.181165,0.0653849,-0.0653849,0.181165,724.793,111.732)">
                    <path d="M309.655,66.829C307.419,69.299 307.553,75.389 310,82.5C312.8,90.639 312.553,93.581 307.953,106.837C300.67,127.822 301.909,140.385 310.978,137.507C312.985,136.87 313.808,134.649 315.927,124.161C316.521,121.224 318.354,115.75 320.002,111.996C324.469,101.818 326.289,93.736 325.464,87.739C324.563,81.187 320.478,69.185 318.347,66.831C316.22,64.481 311.781,64.48 309.655,66.829Z" style="fill:rgb(255,255,190);"/>
                </g>
                <g transform="matrix(0.181165,0.0653849,-0.0653849,0.181165,724.793,111.732)">
                    <path d="M403.423,80.478C402.367,82.089 401.498,86.724 400.938,93.728C400.464,99.653 399.335,110.41 398.428,117.633C396.429,133.553 397.112,136.3 403.197,136.807C408.385,137.239 409.865,134.504 411.597,121.285C413.612,105.903 414.994,86.928 414.313,84C412.885,77.863 406.491,75.795 403.423,80.478Z" style="fill:rgb(255,255,190);"/>
                </g>
                <g transform="matrix(0.181165,0.0653849,-0.0653849,0.181165,724.793,111.732)">
                    <path d="M363.629,73.25C362.795,74.575 361.926,79.816 361.516,86C361.133,91.775 359.97,101.675 358.931,108C356.436,123.184 356.404,131.151 358.829,133.345C365.177,139.09 369.36,130.306 373.415,102.72C376.607,81.008 374.91,71 368.038,71C366.022,71 364.584,71.734 363.629,73.25Z" style="fill:rgb(255,255,190);"/>
                </g>
                <g transform="matrix(0.28395,0.102481,-0.102481,0.28395,79.4905,-245.433)">
                    <path d="M2859.29,422.79C2840.76,423.303 2841.83,452.312 2839.71,481.416C2837.59,510.52 2846.1,588.199 2847.07,608.727C2848.03,629.256 2833.76,679.635 2850.51,687.011C2886.31,702.78 2877.58,641.086 2875.71,622.408C2875.08,616.103 2875.91,599.231 2880.57,586.111C2883.97,576.515 2910.63,579.744 2910.36,560.11C2910.11,540.78 2886.05,545.731 2883.7,543.987C2873.23,536.222 2871.88,518.207 2871.54,512.002C2870.28,489.321 2881.64,422.171 2859.29,422.79Z" style="fill:rgb(216,138,184);"/>
                </g>
                <g transform="matrix(0.28395,0.102481,-0.102481,0.28395,79.4905,-245.433)">
                    <path d="M2569.36,317.673C2569.36,317.673 2596.16,317.053 2606.14,315.959C2622.39,314.177 2647.83,304.557 2647.83,304.557C2647.83,304.557 2637.79,336.601 2633.24,342.831C2628.69,349.062 2619.26,364.669 2617.92,370.228C2616.59,375.787 2605.3,394.934 2605.3,394.934C2605.3,394.934 2592.51,376.286 2585.56,359.634C2578.61,342.982 2572.83,328.301 2571.91,325.897C2570.99,323.493 2569.36,317.673 2569.36,317.673Z" style="fill:rgb(138,34,15);"/>
                </g>
                <g transform="matrix(0.28395,0.102481,-0.102481,0.28395,79.4905,-245.433)">
                    <path d="M2580.77,286.955C2580.77,286.955 2574.89,292.161 2572.33,298.646C2569.77,305.131 2568.14,311.693 2568.14,311.693C2568.14,311.693 2591.15,312.427 2609.83,310.175C2628.51,307.922 2645.52,300.473 2645.52,300.473C2645.52,300.473 2643.96,295.77 2641.54,292.178C2639.12,288.586 2633.58,281.148 2633.58,281.148C2633.58,281.148 2614.33,286.542 2606.55,287.205C2593.83,288.288 2580.77,286.955 2580.77,286.955Z" style="fill:rgb(246,87,153);"/>
                </g>
                <g transform="matrix(0.28395,0.102481,-0.102481,0.28395,79.4905,-245.433)">
                    <path d="M2628.73,255.816C2628.73,255.816 2626.51,257.186 2624.72,253.767C2622.93,250.348 2624.2,247.569 2624.2,247.569C2624.2,247.569 2622.52,244.536 2617.13,243.278C2611.74,242.021 2603.01,241.55 2603.01,241.55C2603.01,241.55 2604.77,245.392 2601.16,248.213C2597.56,251.033 2593.89,250.394 2593.89,250.394C2593.89,250.394 2594.69,252.636 2591.49,254.707C2588.29,256.778 2586.11,256.2 2586.11,256.2C2586.11,256.2 2581.72,258.964 2580.22,266.021C2578.72,273.079 2580.59,282.087 2580.59,282.087C2580.59,282.087 2599.11,283.666 2609.45,282.024C2619.79,280.382 2631.14,277.106 2631.14,277.106C2631.14,277.106 2632.04,270.03 2631.27,264.543C2630.51,259.056 2628.73,255.816 2628.73,255.816Z" style="fill:rgb(255,255,190);"/>
                </g>
                <g transform="matrix(0.0505237,0.015005,-0.015005,0.0505237,754.444,68.7005)">
                    <path d="M753,78.594C748.177,80.683 744.295,84.59 741.169,90.5C738.735,95.101 738.517,96.497 738.44,108C738.379,117.147 737.804,122.646 736.296,128.5C735.162,132.9 733.751,141.282 733.16,147.126C731.609,162.475 730.948,163.487 718.212,170.038C701.985,178.384 698.274,183.07 697.306,196.436C696.518,207.303 702.016,226.304 708.109,233.774C713.167,239.976 716.679,241.468 726,241.377C735.565,241.284 742.686,239.068 750.729,233.683C756.5,229.819 758.101,226.71 758.757,218.098C759.439,209.156 760.034,208.573 767.471,209.573C770.787,210.02 778,210.401 783.5,210.42C792.438,210.453 794.105,210.162 799.199,207.68C805.578,204.572 810.398,198.948 812.1,192.629C813.789,186.355 816.543,173.602 812.65,165.402C808.662,157 797.516,149.271 788.172,142.218C780.938,136.756 773.727,134.556 766.144,135.496C757.878,136.52 754.798,138.15 748.129,145.029C744.833,148.43 741.543,151.009 740.818,150.761C738.414,149.939 739.299,135.67 742.363,125.847C743.847,121.087 745.611,116.765 746.281,116.241C746.951,115.717 749.75,114.74 752.5,114.07C762.055,111.742 773.552,103.759 776.955,97.089C780.491,90.157 779.992,85.757 775.118,80.882C771.3,77.064 771.113,77.001 763.868,77.039C759.575,77.062 755.039,77.711 753,78.594Z" style="fill:rgb(246,87,153);"/>
                </g>
                <g transform="matrix(0.28395,0.102481,-0.102481,0.28395,79.4905,-245.433)">
                    <path d="M2648.96,232.131L2628.17,244.995C2628.17,244.995 2626.16,247.612 2627.27,250.442C2628.38,253.272 2632.74,252.072 2632.74,252.072L2652.17,238.193C2652.17,238.193 2656.99,236.306 2654.87,232.696C2652.74,229.086 2648.96,232.131 2648.96,232.131" style="fill:rgb(192,238,255);"/>
                </g>
            </g>
            <g transform="matrix(0.604779,0.0477149,-0.0477149,0.604779,46.4086,-20.9123)">
                <path d="M648,125.542C646.075,126.403 642.025,129.031 639,131.383C635.975,133.735 632.05,136.501 630.277,137.529C627.076,139.387 627.037,139.384 624.637,137.128C623.061,135.648 620.3,134.597 616.71,134.11C613.681,133.699 609.972,132.493 608.469,131.431C602.793,127.421 601.522,126.977 597.5,127.595C588.009,129.055 574.329,139.851 568.781,150.26C566.314,154.889 564.318,157.101 560.279,159.685C554.734,163.231 553.912,165.182 556.219,169.316C557.001,170.718 557.455,176.333 557.486,185C557.548,202.297 560.038,209 566.399,209C569.718,209 570.307,205.168 567.954,198.877C566.347,194.58 565.9,191.782 566.33,188.723C567.362,181.401 570.061,173.848 572.529,171.38C574.822,169.087 575.451,169 589.763,169C607.625,169 609.05,169.552 607.195,175.745C606.538,177.938 606,182.513 606,185.911C606,191.139 606.378,192.469 608.455,194.545C611.715,197.806 613.568,197.642 617.401,193.75C619.986,191.126 620.944,188.887 622.376,182.13C625.004,169.723 625.983,169.002 640.205,168.991C646.417,168.987 653.853,168.7 656.729,168.355C661.16,167.822 662.061,167.996 662.636,169.494C663.563,171.909 661.053,176.247 653.313,185.61C639.528,202.285 636.253,204.873 626.984,206.417C621.896,207.265 611.856,215.76 608.022,222.462C606.287,225.494 603.815,231.018 602.528,234.738C601.242,238.457 599.459,243.455 598.567,245.844C597.557,248.549 597.181,251.45 597.571,253.529C598.887,260.541 594.873,267.602 582.034,280.859C577.581,285.457 573.272,290.507 572.458,292.082C571.643,293.656 568.282,298.162 564.989,302.095C560.226,307.781 559,309.947 559,312.672C559,317.446 557.106,320.568 550.005,327.5C538.782,338.456 529.059,354.178 522.486,372C521.776,373.925 519.79,382.304 518.073,390.619C514.654,407.169 514.808,409.518 519.508,412.597C521.766,414.076 523.832,414.212 535.308,413.636C551.681,412.815 554.204,412.122 564.907,405.512C569.633,402.592 576.777,398.612 580.782,396.667C599.022,387.807 603.867,382.31 617.724,354.75C622.992,344.273 625.642,340 626.874,340C628.63,340 633.328,344.449 636.349,348.973C637.395,350.539 638,353.506 638,357.068C638,361.245 638.47,363.116 639.829,364.345C642.899,367.123 648.697,366.022 651.718,362.087C656.769,355.508 647.514,334.807 636.469,327.981C634.559,326.801 632.741,324.815 632.428,323.569C631.631,320.393 636.433,310.813 645.746,297C655.043,283.212 656.552,282.586 661.75,290.363C663.572,293.09 665,296.514 665,298.158C665,302.881 668.906,306 674.82,306C681.343,306 685,303.262 685,298.378C685,292.985 682.378,288.95 667.286,271.116C663.528,266.675 663.908,265.573 675.945,246C678.82,241.325 683.163,233.563 685.596,228.75C691.609,216.858 694.056,217.105 700.5,230.252C704.26,237.923 707.516,240.501 712.309,239.602C720.424,238.079 723.5,231.448 718.839,225.522C717.65,224.011 715.513,220.472 714.089,217.658C712.183,213.892 709.667,211.175 704.555,207.364C700.735,204.516 697.022,201.383 696.305,200.402C694.578,198.04 694.654,193.233 696.5,188C697.325,185.662 698.007,182.343 698.015,180.624C698.024,178.906 698.636,175.475 699.376,173C701.099,167.238 699.951,163.759 695.452,161.104C691.339,158.678 690.353,155.383 691.989,149.538C693.54,143.999 692.728,142.62 688.333,143.333C685.147,143.85 684.418,143.386 677.388,136.356C673.245,132.213 667.976,127.993 665.678,126.978C659.502,124.249 652.214,123.657 648,125.542Z" style="fill:rgb(207,109,168);"/>
            </g>
            <g transform="matrix(1,0,0,1,0,43.7566)">
                <g transform="matrix(0.300942,0.0237433,-0.0237433,0.300942,-46.756,-97.019)">
                    <path d="M1981.91,759.195C1967.83,761.984 1946.43,774.235 1927.87,790.139C1918.11,798.501 1909.33,805.342 1908.36,805.342C1907.39,805.342 1904.19,810.54 1901.24,816.897C1896.8,826.499 1895.96,830.928 1896.3,843.092C1896.52,851.145 1897.65,859.501 1898.8,861.661C1901.72,867.105 1911.29,871.663 1922.62,873.005C1930.78,873.972 1933,873.425 1937.84,869.263C1945.09,863.028 1943.7,857.915 1932.8,850.701C1916.85,840.148 1918.6,828.038 1938.23,813.085C1944.72,808.143 1954.28,800.846 1959.48,796.869C1974.59,785.316 1997.46,782.034 2013.87,789.066C2032.84,797.199 2045.14,814.198 2051.43,840.972C2053.23,848.647 2055.77,853.118 2060.81,857.551C2068.63,864.412 2071.4,864.87 2079.57,860.646C2089.99,855.254 2093.71,848.374 2093.71,834.481C2093.71,824.803 2094.67,820.741 2097.94,816.591C2103.32,809.745 2124.18,799.037 2135.91,797.092C2163.3,792.556 2159.49,791.68 2175.7,806.236C2184.5,814.142 2192.15,819.409 2194.84,819.409C2201.43,819.409 2207.57,814.327 2208.87,807.803C2211.07,796.833 2207.08,786.847 2196.45,776.704C2187.35,768.017 2185.58,767.159 2176.76,767.161C2161.26,767.165 2139.43,772.137 2129.58,777.906C2124.58,780.838 2118.31,783.246 2115.64,783.258C2112.97,783.27 2106.35,784.626 2100.93,786.272C2087.15,790.452 2081.07,790.038 2075.93,784.562C2073.5,781.976 2065.33,775.637 2057.78,770.477C2045.97,762.406 2041.96,760.82 2029.19,759.163C2011.68,756.892 1993.49,756.904 1981.91,759.195ZM2076.63,833.336C2076.63,839.604 2072.5,840.92 2069.64,835.566C2066.97,830.578 2068.68,826.977 2073.3,827.865C2075.3,828.251 2076.63,830.438 2076.63,833.336Z" style="fill:rgb(232,185,214);"/>
                </g>
                <g transform="matrix(0.300942,0.0237433,-0.0237433,0.300942,-46.756,-97.019)">
                    <path d="M2145.96,627.49C2142.09,628.979 2137.01,630.268 2134.68,630.352C2126.67,630.639 2102.45,644.498 2087.19,657.52C2064.42,676.949 2058.69,677.24 2046.54,659.59C2042.36,653.523 2035.81,645.812 2031.99,642.454C2026.16,637.341 2023.52,636.409 2015.67,636.708C2010.51,636.905 2002.68,636.487 1998.25,635.778C1988.44,634.206 1961.2,637.966 1957.06,641.465C1955.4,642.866 1947.71,647.506 1939.98,651.777C1931.86,656.256 1917.4,667.47 1905.81,678.273C1888.23,694.66 1885.04,698.691 1880.27,710.477C1870.68,734.207 1873.42,757.533 1887,767.671C1891.55,771.067 1892.8,771.12 1904.4,768.413C1918.65,765.089 1929.93,759.205 1929.93,755.091C1929.93,753.23 1925.6,751.508 1917.05,749.962C1908.77,748.465 1903.15,746.273 1901.33,743.831C1894.04,734.068 1906.09,711.454 1930.42,689.224C1939.54,680.894 1950.84,672.279 1955.54,670.074C1966.07,665.143 2000.17,662.86 2007.18,666.618C2009.76,667.996 2015.15,676.294 2019.89,686.175L2028.13,703.337L2025.46,717.664C2020.61,743.729 2020.59,746.285 2025.19,750.889C2030.37,756.07 2048.21,756.789 2054.92,752.089C2061.68,747.348 2067.59,736.219 2067.59,728.198C2067.59,723.898 2070.08,716.189 2073.62,709.563C2076.93,703.349 2079.64,697.158 2079.64,695.805C2079.64,689.911 2087.94,683.313 2099.9,679.692C2108.93,676.959 2114.76,673.573 2120.95,667.472C2135.38,653.25 2158.13,648.609 2194.61,652.45C2219.15,655.034 2244.1,662.44 2252.47,669.628C2255.23,671.999 2260.98,676.491 2265.23,679.608C2271.98,684.549 2272.82,686.037 2271.78,691.219C2270.83,695.99 2271.73,698.299 2276.35,702.919C2288.05,714.619 2298.74,712.172 2308.21,695.628C2315.44,682.972 2314.35,677.594 2302.21,666.167C2289.79,654.473 2253.23,635.732 2236.39,632.426C2230.32,631.232 2220.16,628.953 2213.82,627.366C2198.96,623.64 2155.75,623.72 2145.96,627.49ZM2050.51,729.004C2050.51,732.656 2049.29,734.173 2045.98,734.643C2042.37,735.156 2041.46,734.314 2041.46,730.455C2041.46,724.667 2043.2,722.6 2047.39,723.407C2049.21,723.757 2050.51,726.09 2050.51,729.004Z" style="fill:rgb(224,169,204);"/>
                </g>
                <g transform="matrix(0.300942,0.0237433,-0.0237433,0.300942,-46.756,-97.019)">
                    <path d="M2102.62,495.764C2098.13,497.765 2090.44,500.008 2085.54,500.752C2080.64,501.493 2068.79,504.851 2059.2,508.215C2044.2,513.475 2040.65,515.649 2033.8,523.78C2029.42,528.979 2022.22,534.861 2017.8,536.852L2009.78,540.472L1992.8,530.255C1969.13,516.009 1962.22,513.947 1938.14,513.947C1920.32,513.947 1916.57,514.57 1908.75,518.822C1903.82,521.505 1896.16,525.448 1891.73,527.588C1873.75,536.262 1850.63,574.149 1845.71,602.977C1842.93,619.301 1845.2,652.249 1849.71,660.973C1857.24,675.54 1879.57,683.729 1887.59,674.865C1892.32,669.636 1890.96,664.664 1883.71,660.669C1873.87,655.253 1871.64,648.346 1871.7,623.471C1871.78,596.261 1876.11,583.59 1890.88,567.431C1905.94,550.948 1915.19,547.276 1941.42,547.365L1962.96,547.437L1977.33,556.995L1991.7,566.551L1990.22,575.919C1987.76,591.444 1988.56,599.615 1993.48,609.464C2004.76,632.062 2019.47,636.731 2033.9,622.297L2039.89,616.305L2036.98,563.982L2047.76,553.904C2063.97,538.756 2080.18,528.33 2092.09,525.4C2108.66,521.32 2144.89,522.444 2156.02,527.381C2173.43,535.106 2188.16,558.737 2188.16,578.934C2188.16,588.863 2190.82,592.322 2198.43,592.322C2204.56,592.322 2213.46,583.259 2215.56,574.893C2217.23,568.229 2215.1,548.51 2211.61,538.38C2204.55,517.902 2184.06,504.09 2148.77,496.023C2126.7,490.979 2113.53,490.905 2102.62,495.764ZM2023.38,600.495C2023.38,605.368 2018,607.8 2013.56,604.936C2010.08,602.694 2010.3,596.219 2013.92,593.97C2017.33,591.854 2023.38,596.024 2023.38,600.495Z" style="fill:rgb(217,149,192);"/>
                </g>
                <g transform="matrix(0.300942,0.0237433,-0.0237433,0.300942,-46.756,-97.019)">
                    <path d="M2040.46,295.021C2017.75,299.448 2005.16,304.78 1993.53,314.902C1987.08,320.511 1978.95,328.642 1975.48,332.969C1965.9,344.888 1963.44,344.89 1944.05,332.999C1929.93,324.343 1924.76,322.304 1913.42,320.925C1905.92,320.013 1895.09,318.638 1889.35,317.868C1879.53,316.554 1878.57,316.829 1873.27,322.462C1856.74,340.024 1849.4,352.872 1840.8,379.302C1826.32,423.767 1835.39,456.49 1865.95,470.069C1875.15,474.16 1883.11,472.786 1885.44,466.703C1887.2,462.131 1885.21,459.279 1874.68,451.285C1862.88,442.33 1860.66,437.459 1860.63,420.419C1860.57,395.331 1871.01,366.61 1884.46,354.795C1891.21,348.871 1891.95,348.694 1905.04,349.91C1922.14,351.499 1928.23,353.802 1936.59,361.841C1949.03,373.802 1950.81,378.482 1950.48,398.426C1950.16,417.475 1952.48,424.995 1961.81,435.26C1970.96,445.318 1984.89,448.192 2001.77,443.506C2009.81,441.271 2015.34,433.739 2015.34,425.009C2015.34,418.442 2005.41,392.307 1998.57,380.848C1994.38,373.828 1993.23,369.885 1994.18,365.776C1996.19,357.088 2011.59,338.63 2021.47,333.081C2029.65,328.485 2032.29,328.087 2052.51,328.419C2071.82,328.734 2076.78,329.58 2091.7,335.105C2101.1,338.584 2111.5,343.491 2114.81,346.009C2118.13,348.527 2124.91,352.645 2129.88,355.157C2161.48,371.119 2181.89,387.297 2182.06,396.503C2182.1,398.778 2183.35,402.306 2184.84,404.344C2188.68,409.597 2202.53,407.413 2213.12,399.881C2220.39,394.704 2221.27,393.211 2220.88,386.694C2220.1,373.589 2211.36,362.512 2186.15,342.683C2170.89,330.676 2124.17,308.106 2106.77,304.338C2056.68,293.486 2051.83,292.804 2040.46,295.021ZM1988.76,404.537C1996.88,410.222 1993.67,423.514 1984.19,423.514C1975.96,423.514 1972.42,414.264 1977.22,405.295C1979.74,400.592 1982.84,400.387 1988.76,404.537Z" style="fill:rgb(209,126,179);"/>
                </g>
                <g transform="matrix(0.604779,0.0477149,-0.0477149,0.604779,46.4086,-68.3885)">
                    <path d="M613.066,283.035C614.13,283.605 615,284.667 615,285.395C615,287.499 607.153,303.917 603.86,308.704C602.213,311.098 599.824,315.411 598.551,318.288C597.279,321.166 594.339,325.922 592.019,328.857C587.428,334.665 587.514,334.648 579.01,331.504C573.804,329.58 567.992,330.097 563.467,332.888C561.452,334.13 558.815,337.987 555.25,344.903C549.419,356.215 548.865,359.814 551.557,368.881C553.668,375.989 561.224,384 565.816,384C569.738,384 571.063,382.664 578,371.714C581.025,366.94 584.018,363.026 584.651,363.017C585.284,363.008 586.737,364.584 587.88,366.521C589.288,368.908 590.93,370.236 592.978,370.646C594.64,370.978 596,371.773 596,372.413C596,373.77 587.854,381.782 583.5,384.707C581.85,385.816 578.881,387.247 576.903,387.888C574.924,388.53 569.341,391.57 564.495,394.644C553.645,401.528 551.518,402.429 541.164,404.527C526.439,407.511 524.899,405.83 528.053,390.213C531.342,373.927 535.462,364.013 545.038,349.345C549.818,342.023 568.767,322 570.916,322C571.474,322 573.409,320.707 575.215,319.128C577.022,317.548 580.075,315.923 582,315.516C588.737,314.094 591.42,309.816 589.878,302.953C589.203,299.95 589.253,297.804 590.041,295.901C591.12,293.295 598.996,285.869 603.42,283.285C605.999,281.78 610.501,281.663 613.066,283.035Z" style="fill:rgb(232,185,214);"/>
                </g>
                <g transform="matrix(0.604779,0.0477149,-0.0477149,0.604779,46.4086,-68.3885)">
                    <path d="M577,350.626C577,353.505 571.66,364.545 568.717,367.75C564.069,372.812 561.216,369.267 562.335,359.82C563.437,350.514 568.401,345.198 574.125,347.193C576.228,347.927 577,348.848 577,350.626Z" style="fill:rgb(232,185,214);"/>
                </g>
                <g transform="matrix(0.604779,0.0477149,-0.0477149,0.604779,46.4086,-68.3885)">
                    <path d="M613.016,341.75C613.04,344.407 603.692,362 602.257,362C599.941,362 600.791,354.04 603.635,349.088C608.262,341.033 612.976,337.346 613.016,341.75Z" style="fill:rgb(232,185,214);"/>
                </g>
                <g transform="matrix(0.604779,0.0477149,-0.0477149,0.604779,46.4086,-68.3885)">
                    <path d="M623.666,312.413C622.904,318.155 620.169,321.195 614.427,322.684C608.089,324.327 608,324.321 608.003,322.25C608.006,320.245 614.169,309.606 617.275,306.244L619.359,303.989L621.772,306.244C623.767,308.11 624.095,309.177 623.666,312.413Z" style="fill:rgb(232,185,214);"/>
                </g>
                <g transform="matrix(0.604779,0.0477149,-0.0477149,0.604779,46.4086,-68.3885)">
                    <path d="M641.256,227.528C643.302,228.918 645.265,231.209 645.619,232.618C646.63,236.648 644.298,242.578 639.465,248.269C637.021,251.146 632.739,256.648 629.949,260.495C627.159,264.342 624.214,267.861 623.404,268.314C621.827,269.196 612.443,266.526 611.445,264.91C610.395,263.212 614.019,253.005 617.953,246.576C625.623,234.045 633.394,225 636.49,225C637.065,225 639.21,226.138 641.256,227.528Z" style="fill:rgb(232,185,214);"/>
                </g>
                <g transform="matrix(0.604779,0.0477149,-0.0477149,0.604779,46.4086,-68.3885)">
                    <path d="M654.466,252.685C658.772,254.739 659.09,257.551 655.497,261.821C653.476,264.223 651.721,265.017 646.38,265.948C642.742,266.581 639.539,266.872 639.261,266.595C638.126,265.459 648.462,251 650.41,251C650.697,251 652.522,251.758 654.466,252.685Z" style="fill:rgb(232,185,214);"/>
                </g>
                <g transform="matrix(0.604779,0.0477149,-0.0477149,0.604779,46.4086,-68.3885)">
                    <path d="M680,174.559C680,175.352 679.56,176 679.023,176C678.486,176 677.383,177.012 676.573,178.25C675.421,180.008 675.311,181.443 676.069,184.813C676.86,188.331 676.694,189.903 675.168,193.353C671.29,202.119 659.215,217 655.979,217C653.468,217 649,211.708 649,208.733C649,206.878 651.339,203.296 656.75,196.864C661.013,191.798 666.349,185.368 668.608,182.576C670.867,179.784 673.907,176.237 675.362,174.694C678.004,171.892 680,171.834 680,174.559Z" style="fill:rgb(232,185,214);"/>
                </g>
                <g transform="matrix(0.604779,0.0477149,-0.0477149,0.604779,46.4086,-68.3885)">
                    <path d="M605.465,146.104C608.497,148.765 609,149.828 609,153.568C609,159.4 607.614,160 594.148,160C582.658,160 580,159.554 580,157.625C580,155.156 585.391,148.708 589.785,145.921C596.067,141.938 600.783,141.992 605.465,146.104Z" style="fill:rgb(232,185,214);"/>
                </g>
                <g transform="matrix(0.604779,0.0477149,-0.0477149,0.604779,46.4086,-68.3885)">
                    <path d="M662.064,144.75C665.615,146.55 668.525,148.996 670.491,151.832C673.301,155.886 673.381,156.248 671.733,157.453C670.002,158.719 638.104,160.283 635.25,159.242C630.133,157.375 640.813,145.831 650.139,143.147C655.287,141.666 656.234,141.793 662.064,144.75Z" style="fill:rgb(232,185,214);"/>
                </g>
            </g>
            <g transform="matrix(1,0,0,1,0,-21.5549)">
                <g transform="matrix(0.582947,-0.167949,0.167949,0.582947,-10.7434,98.7166)">
                    <path d="M335.205,249.353C334.771,248.7 334.327,248.25 333.851,247.933C332.558,247.071 329.998,245.341 328.163,244.089C326.328,242.836 320.338,240.321 314.852,238.499C303.36,234.681 297.306,231.066 296.407,227.485C295.169,222.551 300.193,219.595 311.752,218.456C315.72,218.065 319.762,217.161 320.733,216.447C322.375,215.242 322.321,215.081 319.974,214.185C318.585,213.654 313.068,212.474 307.713,211.562C292.683,209.001 285.726,206.166 283.949,201.876C281.656,196.341 284.559,194.277 305.5,186.554C313.635,183.553 317.99,181.19 318.675,179.405C318.99,178.585 319.047,177.714 318.803,177.47C318.559,177.226 314.058,175.935 308.801,174.601C297.888,171.833 293.525,169.85 291.974,166.952C289.351,162.05 293.528,158.429 304.142,156.407C313.103,154.699 316,152.902 316,149.05C316,146.271 312.218,142 309.758,142C309.223,142 305.909,140.627 302.392,138.948C298.094,136.897 295.507,134.947 294.499,132.998C290.723,125.695 294.159,120.59 304.556,118.055C312.234,116.184 314.027,113.99 309.296,112.256C306.336,111.17 298.36,109.685 286,107.917C271.882,105.898 265.901,100.928 271.025,95.474C273.439,92.904 276.904,91.541 283.692,90.492C285.998,90.135 288.455,89.157 289.152,88.317C290.214,87.037 289.915,86.363 287.302,84.145C277.941,76.202 286.449,70.275 305.944,71.159L313.454,71.5L315.074,68.099C315.964,66.228 317.523,64.091 318.538,63.349C321.226,61.383 326.348,61.699 329.289,64.013C330.696,65.12 332.599,68.286 333.517,71.05C335.166,76.017 341.331,86.191 343.078,86.83L343.254,86.848C337.223,104.703 332.822,132.153 335.964,173.468C337.158,189.172 335.678,221.9 335.205,249.353Z" style="fill:rgb(232,185,214);"/>
                </g>
                <g transform="matrix(0.582947,-0.167949,0.167949,0.582947,-10.7434,98.7166)">
                    <path d="M343.254,86.848C343.885,86.855 345.313,86.112 346.625,85.08C348.08,83.936 350.498,83 352,83C354.946,83 359.385,85.982 361.039,89.072C362.638,92.062 364.677,125.623 364.436,145C364.247,160.262 364.721,182.26 366.249,189.62C367.149,193.954 368.813,202 369.948,207.5C371.083,213 372.655,222.9 373.442,229.5C374.9,241.726 378.245,253.424 382.04,259.564C383.292,261.591 383.896,263.754 383.529,264.907C382.686,267.564 375.991,273.454 370.807,276.099C365.125,278.997 353.61,280.282 349.333,278.495C344.878,276.633 343.035,273.316 339.386,260.597C337.616,254.426 336.425,251.134 335.205,249.353C335.678,221.9 337.158,189.172 335.964,173.468C332.822,132.153 337.223,104.703 343.254,86.848Z" style="fill:rgb(214,139,186);"/>
                </g>
                <g transform="matrix(-0.237146,0.112408,0.23362,0.492865,165.967,121.853)">
                    <path d="M316.877,83.03C315.423,84.174 290.502,98.105 304.556,118.055C310.554,126.569 290.723,125.695 294.499,132.998C295.507,134.947 298.094,136.897 302.392,138.948C305.909,140.627 309.223,142 309.758,142C312.218,142 316,146.271 316,149.05C316,152.902 313.103,154.699 304.142,156.407C293.528,158.429 289.351,162.05 291.974,166.952C293.525,169.85 297.888,171.833 308.801,174.601C314.058,175.935 318.559,177.226 318.803,177.47C319.047,177.714 318.99,178.585 318.675,179.405C317.99,181.19 313.635,183.553 305.5,186.554C284.559,194.277 281.656,196.341 283.949,201.876C285.726,206.166 292.683,209.001 307.713,211.562C313.068,212.474 318.585,213.654 319.974,214.185C322.321,215.081 322.375,215.242 320.733,216.447C319.762,217.161 315.72,218.065 311.752,218.456C300.193,219.595 295.169,222.551 296.407,227.485C297.306,231.066 303.36,234.681 314.852,238.499C320.338,240.321 326.328,242.836 328.163,244.089C329.998,245.341 332.558,247.071 333.851,247.933C335.635,249.121 336.972,252.181 339.386,260.597C343.035,273.316 344.878,276.633 349.333,278.495C353.61,280.282 365.125,278.997 370.807,276.099C375.991,273.454 382.686,267.564 383.529,264.907C383.896,263.754 383.292,261.591 382.04,259.564C378.245,253.424 374.9,241.726 373.442,229.5C372.655,222.9 371.083,213 369.948,207.5C368.813,202 367.149,193.954 366.249,189.62C364.721,182.26 364.247,160.262 364.436,145C364.677,125.623 362.638,92.062 361.039,89.072C359.385,85.982 354.946,83 352,83C350.498,83 318.332,81.886 316.877,83.03Z" style="fill:rgb(203,109,169);"/>
                </g>
                <g transform="matrix(0.582947,-0.167949,0.167949,0.582947,-10.7434,98.7166)">
                    <path d="M231.108,311.397C229.793,312.126 226.384,315.597 223.534,319.111C220.296,323.103 217.629,325.476 216.426,325.435C215.367,325.4 211.173,322.935 207.107,319.958C199.101,314.097 195.549,313.283 189.294,315.877C184.908,317.695 173.477,331.151 171.575,336.734C170.732,339.207 168.346,343.141 166.272,345.478C164.197,347.815 161.017,352.393 159.205,355.652C157.392,358.911 153.465,364.644 150.478,368.392C143.333,377.358 139.535,385.262 141.029,388.054C141.63,389.177 143.107,390.451 144.311,390.885C145.515,391.319 155.725,391.774 167,391.895C183.268,392.071 188.119,391.815 190.5,390.658C192.532,389.671 198.664,388.996 209.5,388.568C224.863,387.961 225.898,388.045 235.5,390.679C245.58,393.445 256.604,394.29 262.232,392.729C263.734,392.312 266.548,390.58 268.484,388.88C273.293,384.658 276.917,384.072 290.678,385.291C301.784,386.275 302.85,386.207 308.288,384.169C313.362,382.267 316.094,382 330.472,382C347.594,382 350.443,381.488 355.097,377.571C356.859,376.089 359.901,374.931 363.208,374.484C369.785,373.596 371.597,372.674 376,367.975C379.246,364.511 380.045,364.185 387,363.496C391.125,363.088 395.5,362.375 396.722,361.912C400.005,360.669 400.609,356.697 398.148,352.526C397.014,350.603 395.588,347.183 394.98,344.924C394.347,342.576 392.082,338.883 389.687,336.296C387.384,333.808 383.925,328.562 382,324.636C376.979,314.399 374.399,313.155 356.892,312.526C347.293,312.182 342.792,312.401 341.002,313.301C339.628,313.992 336.167,317.694 333.311,321.529C330.455,325.363 327.467,328.636 326.672,328.801C325.877,328.967 324.21,327.458 322.968,325.448C319.161,319.288 315.968,318.008 304.399,318.004C298.844,318.002 292.942,318.473 291.284,319.051C289.589,319.642 284.679,324.017 280.063,329.051C275.549,333.973 271.326,338 270.678,337.999C270.03,337.998 267.973,334.602 266.107,330.452C263.528,324.716 261.369,321.69 257.107,317.841C254.023,315.055 250.052,312.152 248.282,311.388C244.233,309.642 234.266,309.646 231.108,311.397Z" style="fill:rgb(216,138,184);"/>
                </g>
                <g transform="matrix(0.582947,-0.167949,0.167949,0.582947,-10.7434,98.7166)">
                    <path d="M56.26,244.804C54.551,245.193 53.289,246.305 50.933,249.05C47.751,252.759 46.822,253.321 45.357,252.423C39,248.525 37.322,239.13 41.371,230.108C42.817,226.886 44,223.542 44,222.676C44,221.81 45.563,219.91 47.473,218.453C50.674,216.011 59.62,203.596 63.291,196.5C64.145,194.85 67.14,191.256 69.947,188.513C73.309,185.228 75.416,182.167 76.122,179.547C76.755,177.196 79.198,173.376 82.097,170.204C84.793,167.253 87,164.468 87,164.014C87,163.56 88.609,161.263 90.576,158.909C92.543,156.555 95.988,151.284 98.232,147.195C100.476,143.107 104.042,137.763 106.156,135.32C110.47,130.335 110.609,129.702 108.5,124.654C106.543,119.971 106.598,116.101 108.655,113.829C110.581,111.701 113.051,111.528 117.666,113.196C120.545,114.237 121.527,114.109 125.237,112.21C130.585,109.472 130.716,109.476 136.419,112.508C141.025,114.957 141.262,114.98 146.416,113.481C156.404,110.578 157.991,114.449 149.5,121C146.43,123.369 144,126.041 144,127.049C144,129.175 151.977,134.249 163,139.136C167.125,140.964 175,144.999 180.5,148.102C186,151.204 192.975,154.803 196,156.099C204.786,159.862 238.511,181.473 244.75,187.337C248.171,190.553 248.832,193.511 246.75,196.281C244.331,199.499 235.492,205 232.74,205C231.218,205 224.917,202.735 218.737,199.966L214.564,198.183C200.169,187.602 168.513,166.917 156.186,163.286C148.626,161.059 142.821,175.469 136.952,177.039C131.622,178.466 125.177,169.135 120.973,172.71C107.642,184.046 73.597,218.359 56.26,244.804Z" style="fill:rgb(216,138,184);"/>
                </g>
                <g transform="matrix(0.290078,-0.0835726,0.0835726,0.290078,-103.821,77.7132)">
                    <path d="M390.078,644.177C424.919,591.034 493.335,522.077 520.125,499.297C528.574,492.113 541.525,510.864 552.238,507.997C564.033,504.84 575.698,475.882 590.891,480.358C615.663,487.655 679.28,529.223 708.208,550.488C699.185,546.776 691.695,544.284 689.993,544.525C686.508,545.02 685.839,547.027 684.969,559.599C683.823,576.128 681.468,579.639 669.678,582.374C657.947,585.095 646.579,584.653 636.055,581.068C621.585,576.139 620.89,576.995 620.229,600.559C619.779,616.683 618.975,621.463 616.451,623.051C611.889,625.921 604.473,623.539 595.372,616.281C591.043,612.83 580.239,606.564 571.363,602.358C557.579,595.825 554.062,594.924 547.248,596.178C532.398,598.912 532.758,598.542 510.082,634.524C495.882,657.054 493.131,659.948 484.58,661.334C479.254,662.198 474.833,665.239 467.751,672.9C457.705,683.772 457.588,683.798 444.385,678.492C438.515,676.135 437.486,676.308 433.151,680.379C426.558,686.573 416.988,689.031 409.552,686.438C399.086,682.789 397.157,674.451 403.005,658.133C407.097,646.716 405.316,643.768 394.33,643.768C392.692,643.768 391.324,643.869 390.078,644.177Z" style="fill:rgb(232,185,214);"/>
                </g>
            </g>
        </g>
        <g transform="matrix(3.96995,0,0,3.96995,-1188.7,-1760.23)">
            <g transform="matrix(37.7566,23.8169,-23.8169,37.7566,325.033,544.921)">
                <path d="M0.738,-0.16C0.756,-0.157 0.786,-0.158 0.797,-0.161C0.805,-0.163 0.807,-0.169 0.808,-0.178C0.812,-0.212 0.817,-0.283 0.817,-0.325L0.817,-0.743C0.817,-0.751 0.813,-0.755 0.802,-0.759C0.773,-0.77 0.711,-0.782 0.68,-0.782C0.676,-0.782 0.672,-0.781 0.669,-0.776C0.665,-0.77 0.659,-0.753 0.656,-0.741C0.684,-0.736 0.709,-0.725 0.722,-0.715C0.733,-0.706 0.738,-0.7 0.738,-0.685L0.738,-0.512L0.615,-0.512L0.615,-0.688C0.615,-0.696 0.611,-0.701 0.6,-0.705C0.572,-0.714 0.523,-0.722 0.493,-0.722C0.489,-0.722 0.484,-0.721 0.481,-0.716C0.477,-0.71 0.471,-0.695 0.468,-0.683C0.491,-0.677 0.513,-0.669 0.525,-0.662C0.536,-0.656 0.538,-0.648 0.538,-0.632L0.538,-0.233C0.556,-0.23 0.584,-0.231 0.595,-0.234C0.603,-0.236 0.605,-0.242 0.606,-0.251C0.61,-0.285 0.615,-0.359 0.615,-0.401L0.615,-0.447L0.738,-0.447L0.738,-0.16ZM0.059,-0.224C0.067,-0.217 0.074,-0.219 0.081,-0.225C0.13,-0.264 0.212,-0.355 0.275,-0.445C0.332,-0.383 0.384,-0.322 0.445,-0.25C0.462,-0.263 0.484,-0.283 0.495,-0.296C0.501,-0.303 0.503,-0.309 0.495,-0.317C0.433,-0.375 0.376,-0.436 0.311,-0.499C0.343,-0.55 0.364,-0.598 0.364,-0.629C0.364,-0.642 0.361,-0.649 0.353,-0.655C0.324,-0.676 0.255,-0.698 0.233,-0.698C0.23,-0.698 0.228,-0.698 0.225,-0.694C0.219,-0.687 0.211,-0.675 0.205,-0.664C0.24,-0.65 0.27,-0.632 0.27,-0.61C0.27,-0.54 0.125,-0.347 0.023,-0.261C0.035,-0.247 0.051,-0.231 0.059,-0.224ZM0.548,0.179C0.695,0.179 0.782,0.087 0.782,-0.011C0.782,-0.109 0.695,-0.201 0.548,-0.201C0.401,-0.201 0.314,-0.109 0.314,-0.011C0.314,0.087 0.401,0.179 0.548,0.179ZM0.548,0.112C0.45,0.112 0.395,0.051 0.395,-0.011C0.395,-0.073 0.45,-0.134 0.548,-0.134C0.646,-0.134 0.701,-0.073 0.701,-0.011C0.701,0.051 0.646,0.112 0.548,0.112Z" style="fill:rgb(232,185,214);fill-rule:nonzero;"/>
            </g>
            <g transform="matrix(43.374,10.5596,-10.5596,43.374,369.833,570.812)">
                <path d="M0.261,-0.434L0.701,-0.434C0.716,-0.434 0.731,-0.44 0.731,-0.465L0.731,-0.701C0.731,-0.721 0.722,-0.728 0.706,-0.728C0.681,-0.728 0.616,-0.724 0.591,-0.724L0.288,-0.724C0.262,-0.724 0.21,-0.731 0.186,-0.731C0.173,-0.731 0.169,-0.698 0.168,-0.689C0.195,-0.683 0.217,-0.67 0.217,-0.643L0.217,-0.488C0.217,-0.45 0.234,-0.434 0.261,-0.434ZM0.297,-0.5L0.297,-0.658L0.651,-0.658L0.651,-0.5L0.297,-0.5ZM0.272,0.162L0.777,0.162C0.783,0.144 0.788,0.115 0.788,0.104C0.788,0.092 0.783,0.09 0.769,0.09C0.759,0.09 0.683,0.098 0.645,0.098L0.309,0.098L0.309,0.003L0.739,0.003C0.747,0.003 0.752,-0.003 0.752,-0.014L0.752,-0.188C0.752,-0.208 0.743,-0.215 0.727,-0.215C0.702,-0.215 0.637,-0.211 0.612,-0.211L0.512,-0.211L0.512,-0.302L0.746,-0.302C0.797,-0.302 0.854,-0.299 0.901,-0.297C0.907,-0.316 0.913,-0.35 0.913,-0.362C0.913,-0.374 0.908,-0.376 0.894,-0.376C0.881,-0.376 0.799,-0.367 0.722,-0.367L0.206,-0.367C0.127,-0.367 0.088,-0.368 0.028,-0.378C0.021,-0.369 0.01,-0.353 0.01,-0.347C0.01,-0.342 0.014,-0.337 0.016,-0.335C0.04,-0.31 0.074,-0.293 0.107,-0.281C0.148,-0.293 0.183,-0.302 0.219,-0.302L0.431,-0.302L0.431,-0.211L0.322,-0.211C0.286,-0.211 0.23,-0.209 0.194,-0.22C0.188,-0.212 0.177,-0.198 0.177,-0.192C0.177,-0.188 0.18,-0.185 0.182,-0.183C0.199,-0.166 0.225,-0.15 0.254,-0.138C0.289,-0.149 0.318,-0.149 0.336,-0.149L0.671,-0.149L0.671,-0.059L0.278,-0.059C0.254,-0.059 0.216,-0.062 0.2,-0.062C0.187,-0.062 0.18,-0.032 0.179,-0.023C0.204,-0.017 0.228,-0.008 0.228,0.021L0.228,0.108C0.228,0.146 0.245,0.162 0.272,0.162Z" style="fill:rgb(232,185,214);fill-rule:nonzero;"/>
            </g>
            <g transform="matrix(43.8015,-8.61578,8.61578,43.8015,440.112,581.414)">
                <path d="M0.674,0.176C0.692,0.179 0.722,0.178 0.733,0.175C0.741,0.173 0.743,0.167 0.744,0.158C0.748,0.124 0.755,0.053 0.755,0.011L0.755,-0.334L0.921,-0.334C0.927,-0.353 0.933,-0.381 0.933,-0.393C0.933,-0.405 0.928,-0.407 0.914,-0.407C0.904,-0.407 0.84,-0.397 0.801,-0.397L0.755,-0.397L0.755,-0.742C0.755,-0.75 0.751,-0.754 0.74,-0.758C0.711,-0.769 0.643,-0.782 0.612,-0.782C0.608,-0.782 0.604,-0.781 0.601,-0.776C0.597,-0.77 0.591,-0.752 0.588,-0.74C0.616,-0.734 0.645,-0.722 0.657,-0.713C0.669,-0.704 0.674,-0.7 0.674,-0.685L0.674,0.176ZM0.068,-0.129C0.076,-0.123 0.084,-0.124 0.091,-0.13C0.146,-0.173 0.235,-0.287 0.303,-0.395C0.378,-0.308 0.448,-0.225 0.52,-0.135C0.536,-0.147 0.559,-0.168 0.571,-0.182C0.577,-0.189 0.578,-0.196 0.571,-0.203C0.493,-0.281 0.42,-0.36 0.338,-0.451C0.376,-0.517 0.402,-0.575 0.402,-0.606C0.402,-0.619 0.399,-0.626 0.391,-0.632C0.362,-0.653 0.289,-0.675 0.267,-0.675C0.264,-0.675 0.262,-0.674 0.259,-0.671C0.253,-0.664 0.245,-0.652 0.239,-0.641C0.274,-0.627 0.304,-0.609 0.304,-0.587C0.304,-0.491 0.121,-0.248 0.031,-0.163C0.044,-0.148 0.06,-0.135 0.068,-0.129Z" style="fill:rgb(232,185,214);fill-rule:nonzero;"/>
            </g>
            <g transform="matrix(39.414,-20.9605,20.9605,39.414,489.941,570.014)">
                <path d="M0.696,-0.073C0.714,-0.07 0.744,-0.071 0.755,-0.074C0.763,-0.076 0.765,-0.082 0.766,-0.091C0.77,-0.125 0.777,-0.196 0.777,-0.238L0.777,-0.742C0.777,-0.75 0.773,-0.754 0.762,-0.758C0.733,-0.769 0.665,-0.782 0.634,-0.782C0.63,-0.782 0.626,-0.781 0.623,-0.776C0.619,-0.77 0.613,-0.754 0.61,-0.742C0.638,-0.736 0.667,-0.724 0.679,-0.715C0.691,-0.706 0.696,-0.702 0.696,-0.687L0.696,-0.49L0.64,-0.49C0.601,-0.49 0.537,-0.497 0.527,-0.497C0.513,-0.497 0.508,-0.495 0.508,-0.483C0.508,-0.471 0.514,-0.443 0.52,-0.424L0.696,-0.424L0.696,-0.073ZM0.09,-0.2C0.159,-0.245 0.254,-0.322 0.337,-0.405C0.402,-0.342 0.466,-0.279 0.529,-0.214C0.548,-0.223 0.572,-0.24 0.585,-0.253C0.589,-0.257 0.59,-0.265 0.585,-0.269C0.516,-0.327 0.448,-0.387 0.379,-0.448C0.435,-0.508 0.482,-0.569 0.506,-0.619C0.518,-0.644 0.509,-0.665 0.485,-0.665C0.47,-0.665 0.41,-0.66 0.39,-0.66L0.216,-0.66C0.177,-0.66 0.133,-0.661 0.095,-0.668C0.09,-0.661 0.08,-0.642 0.08,-0.637C0.08,-0.633 0.083,-0.63 0.085,-0.628C0.101,-0.613 0.131,-0.595 0.156,-0.584C0.182,-0.593 0.202,-0.598 0.229,-0.598L0.402,-0.598C0.338,-0.488 0.157,-0.323 0.037,-0.239C0.046,-0.227 0.062,-0.207 0.068,-0.202C0.075,-0.196 0.082,-0.195 0.09,-0.2ZM0.341,0.143L0.805,0.143C0.811,0.125 0.816,0.091 0.816,0.08C0.816,0.068 0.811,0.066 0.797,0.066C0.787,0.066 0.711,0.077 0.673,0.077L0.366,0.077L0.366,-0.139C0.366,-0.147 0.362,-0.152 0.351,-0.156C0.323,-0.166 0.267,-0.17 0.236,-0.17C0.232,-0.17 0.228,-0.169 0.225,-0.164C0.222,-0.158 0.219,-0.144 0.218,-0.131C0.243,-0.129 0.263,-0.121 0.274,-0.113C0.283,-0.107 0.285,-0.1 0.285,-0.085L0.285,0.082C0.285,0.122 0.299,0.143 0.341,0.143Z" style="fill:rgb(232,185,214);fill-rule:nonzero;"/>
            </g>
        </g>
    </g>
</svg>
