<svg xmlns="http://www.w3.org/2000/svg" width="100%" height="100%" viewBox="0 0 1024 200" fill-rule="evenodd" stroke-linejoin="round" stroke-miterlimit="2"><path d="M420.58 93.473c-.673 1.866-1.653 5.3-2.17 7.615s-1.067 4.28-1.213 4.35c-.374.175-1.244-1.624-1.926-3.983-.882-3.06-1.317-3.456-1.93-1.755-.538 1.5-.416 3.258.453 6.572.398 1.517.815 3.502.926 4.4.196 1.582.174 1.663-.516 1.865-.395.116-1.012.108-1.37-.02s-.903-.175-1.2-.107c-.744.165-.455.956.98 2.68.594.715 1.07 1.6 1.055 2s-.68 1.74-1.482 3.02c-1.38 2.217-1.448 2.402-1.345 3.765.1 1.3-.06 1.805-1.605 5.108-1.8 3.868-1.966 4.528-1.258 5.314.868.964 6.26 3.72 8.17 4.175 1.632.388 3.6 1.395 5.4 2.77.646.493-.578.436-4.084-.187-1.675-.3-3.7-.455-4.515-.345-1 .134-2.004-.01-3.125-.443-1.903-.735-2.812-.5-3.3.852-.423 1.173.096 1.83 2.575 3.26 1.694.977 3.63 1.674 10.15 3.654l10.834 3.155 7.086 1.88c2.37.645 4.96 1.25 5.756 1.346s2.687.618 4.207 1.16c1.78.638 3.676 1.06 5.35 1.192 2.105.166 2.8.35 3.7.978 2.484 1.734 7.032 2.523 9.914 1.72 1.02-.283 1.708-.117 6.892 1.655 8.896 3.04 22.045 7.055 22.777 6.952.82-.116 1.43-1.672.964-2.464-.2-.34-1.056-.8-2.084-1.143l-1.743-.565.52-1.442c.4-1.1.408-1.684.027-2.496-.54-1.144-.434-1.1-6.86-3.502-4.37-1.64-4.94-2.235-2.396-2.502 1.7-.178 1.77-.16 4.125 1.25 2.778 1.662 8.683 3.63 10.604 3.535 1.968-.096 3.052-2.538 1.9-4.27-.55-.83-1.037-1.108-3.063-1.76-1.323-.426-4.247-1.692-6.496-2.8s-4.967-2.325-6.038-2.678-2.956-1.177-4.2-1.83c-8.486-4.494-13.712-7.147-14.984-7.606-.8-.293-2.687-1.202-4.168-2.02-5.484-3.028-7.54-4.03-17.304-8.44-6.57-2.966-11.652-5.534-13.48-6.8-1.347-.94-4.8-7.737-5.935-11.64-.707-2.458-1.625-10.3-1.52-12.966.033-.773-.02-2.277-.117-3.34-.138-1.555-.323-2-.94-2.2-.764-.276-.77-.265-2 3.115zm78.674-11.103c-.563.018-1.036.44-1.706 1.516-1.097 1.755-1.924 2.563-3.844 3.744-.78.48-1.935 1.586-2.57 2.46l-3.356 4.327c-3.024 3.754-6.287 9.257-8.64 14.572-2.155 4.865-4.082 10.924-4.02 12.637.024.597-.54 2.782-1.253 4.856s-1.337 4.416-1.396 5.203-.333 2.552-.613 3.922l-.507 2.492 1.98.94c1.2.57 2.182.87 2.496.762.367-.126.63.033.902.544.2.397.78.865 1.262 1.04.622.224.78.426.544.697-.24.278.012.56.928 1.037l2.496 1.326c1.116.604 1.332.608 2.1.037.75-.562 1.06-1.284 2.675-6.225 1.047-3.198 2.348-6.574 3.038-7.893.664-1.268 1.48-3.134 1.8-4.15.77-2.357 1.145-2.382 5.015-.336 2.555 1.35 7.643 3.34 13.318 5.206 1.052.346 2.396.93 3 1.302 2.145 1.34 4 .78 4.806-1.457.533-1.478.173-2.84-1.055-3.964a8.49 8.49 0 0 1-1.562-2.047c-.474-.96-.82-1.215-2.283-1.7-1.283-.416-2.046-.902-2.985-1.898-1.464-1.557-5.083-3.536-7.488-4.096-1.902-.442-5.405-2.842-5.82-3.986-.133-.372-.197-1.4-.14-2.283.114-1.778 2.03-9.005 3.148-11.883.394-1.014.898-2.852 1.12-4.085.335-1.847.673-2.695 1.932-4.83 1.464-2.495 1.5-2.63 1.224-3.63-.284-.983-1.94-2.958-3.188-3.807-.315-.214-.923-.378-1.35-.363zm-30.526-7.612c1.08-2.234 1.142-10.625.22-10.075-2.544 1.516-6.7 5.627-8.336 7.84-.804 1.083-1.883 2.37-2.396 2.863l-.936.893-2.862-.963c-1.578-.53-3.727-1.008-4.788-1.062s-2.608-.206-3.445-.338a45.69 45.69 0 0 0-3.259-.358c-1.274-.087-2.823-.558-5.8-1.758l-4.052-1.64-1.33.5c-.732.27-1.403.685-1.5.924-.217.602-1.145.682-3.468.3-3.36-.555-4.686.672-3.4 3.136l1.5 2.918c.757 1.52.908 1.644 2.68 2.2 1.54.5 1.845.7 1.695 1.103-.147.406.064.554 1.067.75 3.378.662 20.926 6.52 31.75 10.597l11.93 4.495 3.33-2.3c3.454-2.395 5.718-4.557 6.243-5.963.223-.598.013-1.32-.8-2.7-2.133-3.694-6.2-6.7-10.722-7.883-1.348-.356-2.678-.782-2.957-.948-.725-.432-1.285-.68-.4-2.5z" fill="#d88ab8"/><path d="M418.04 129.23c.195.536.07.843-.727 1.788-.655.777-.944 1.38-.904 1.892.12 1.63.717 1.976 9.23 5.35 17.245 6.835 20.88 8.353 20.685 8.64-.224.334-9.32-3.063-15.947-5.955a190.6 190.6 0 0 0-9.042-3.606c-9.352-3.41-10.258-4.21-8.736-7.713.546-1.257 1.05-1.996 1.41-2.076.96-.213 3.773.958 4.033 1.68z" fill="#e2a7cb"/><path d="M423.818 123.213c1.092.956 3.203 2.37 4.7 3.142l3.74 2.112c.57.39 1.94 1.035 3.052 1.436 1.32.476 2.534 1.18 3.504 2.03 1.802 1.58 4.036 2.68 5.117 2.524.617-.1 1.23.175 2.71 1.17 1.633 1.098 2.31 1.37 4.643 1.86 2.37.5 2.88.707 3.852 1.57.615.548.96 1.07.768 1.163-.54.252-16.577-5.506-18.095-6.497-.713-.466-3.583-1.852-6.378-3.08s-5.9-2.76-6.906-3.406-2.464-1.405-3.243-1.686c-2.603-.94-3.634-2.995-2.166-4.315.835-.752 2.3-.137 4.715 1.976z" fill="#e8b9d6"/><path d="M460.144 94.944l-1.117-.198-1.628-.353c-1.185-.316-3.856-.7-5.167-.743-3.853-.126-5.244-.277-8.12-.878-1.567-.328-2.545-.383-3.06-.17-.622.256-2.345 2.15-2.96 3.256-.538.965-.722 1.45-1.7 4.48-.75 2.322-.858 2.952-.942 5.492-.08 2.4.098 3.63.965 6.73.597 2.133.795 2.655 1.786 4.698l1.556 2.98c.756 1.17 1.796 2.37 2.587 2.98l1.287 1.07c1.517 1.39 2.987 2.024 5.544 2.396 1.636.238 2.507.27 3.087.112.178-.048 1.943-.284 3.92-.525 3.076-.374 3.727-.5 4.487-.803l2.495-1.015c1.454-.59 1.672-.713 2.304-1.32l1.588-1.425c1.002-.85 2.174-2.253 3.454-4.132l.867-1.272.41-1.494c.225-.822.43-1.76.46-2.085s-.067-1.624-.21-2.887c-.247-2.194-.283-2.35-.804-3.516-1.044-2.336-2.63-5.265-3.23-5.96a17.03 17.03 0 0 1-1.041-1.367 5.96 5.96 0 0 0-1.761-1.793c-1.08-.74-1.46-.922-2.204-1.06-.6-.11-.87-.22-1.55-.617l-.935-.506-.37-.074z" fill="#ffffbe"/><path d="M460.144 94.944l-1.117-.198-1.628-.353c-1.185-.316-3.856-.7-5.167-.743-3.853-.126-5.244-.277-8.12-.878-1.567-.328-2.545-.383-3.06-.17-.622.256-2.345 2.15-2.96 3.256-.538.965-.722 1.45-1.7 4.48-.75 2.322-.858 2.952-.942 5.492-.08 2.4.098 3.63.965 6.73.597 2.133.795 2.655 1.786 4.698l1.556 2.98c.756 1.17 1.796 2.37 2.587 2.98l1.287 1.07c1.517 1.4 2.987 2.024 5.544 2.396 1.636.238 2.507.27 3.087.112.178-.048 1.943-.284 3.92-.525 3.076-.374 3.727-.5 4.487-.803l2.495-1.015c1.454-.6 1.672-.713 2.304-1.32l1.588-1.425c1.002-.85 2.174-2.253 3.454-4.132l.867-1.272.4-1.494c.225-.822.43-1.76.46-2.085s-.067-1.624-.2-2.887c-.247-2.194-.283-2.35-.804-3.516-1.044-2.336-2.63-5.265-3.23-5.96a17.03 17.03 0 0 1-1.041-1.367 5.96 5.96 0 0 0-1.761-1.793c-1.08-.74-1.46-.922-2.204-1.06-.6-.1-.87-.22-1.55-.617l-.935-.506-.37-.074zm2.825 2.913c1.493.67 1.67.775 2.104 1.242 2.02 2.175 4.58 6.657 5.162 9.037.442 1.806.67 4.02.513 4.997-.247 1.538-1.257 3.634-2.5 5.167-.842 1.046-3.094 3.222-3.877 3.744-1.186.792-3.57 1.86-4.758 2.133-2.2.504-6.608 1.107-8.542 1.168-.653.02-2.8-.237-3.565-.43s-2.1-1.044-3.164-2.052a42.55 42.55 0 0 0-1.347-1.214c-.666-.56-1.374-1.32-1.733-1.863-1.383-2.088-3.06-5.973-3.75-8.68-.542-2.13-.766-5.417-.498-7.32.144-1.03 2.038-6.203 2.726-7.446.692-1.252.927-1.58 1.36-1.897.792-.58 2-.566 4.82.05.895.196 1.943.397 2.33.446s.83.134.982.188.652.085 1.108.068 1.863-.001 3.127.034l2.298.064 1.557.524c.856.288 1.587.5 1.625.492.122-.057 2.355.804 4.015 1.55zm-2.28 14.398c-.326.113-.547.607-.6 1.364-.02.24-.2.954-.423 1.585-.343 1.017-.45 1.226-.947 1.85a12.79 12.79 0 0 0-.906 1.309c-.435.76-.82 1.123-1.6 1.503-1.145.558-2.647.754-4.886.637-1.6-.083-2.724-.383-4.173-1.104-1.15-.572-1.247-.654-2-1.685-.857-1.157-1.175-1.86-1.28-2.83-.142-1.32.265-4.712.717-5.966.3-.8.333-1.4.1-1.57-.7-.536-1.5.566-1.8 2.433l-.3 1.963c-.288 1.842-.255 3.622.1 4.802.165.567 1.698 2.865 2.263 3.393.33.3 2.817 1.408 3.72 1.645 1.883.494 4.934.575 6.684.18 1.05-.238 2.24-.8 2.8-1.308.304-.275.7-.797.985-1.263.257-.437.715-1.1 1.018-1.494.526-.67.57-.765 1.002-2.153l.527-2.014c.127-.936-.322-1.5-1-1.275zM448.753 100.1c-.493.08-.82.563-.8 1.2.01.605.207.914.7 1.088.408.147.86.005 1.094-.345.56-.834-.068-2.083-.974-1.934zm11.07 3.272c-.44.015-.733.173-.926.5a1.39 1.39 0 0 0 .124 1.46c.384.48.75.566 1.293.3.386-.18.5-.3.622-.656.18-.5.1-.886-.23-1.252-.268-.3-.48-.376-.885-.362z" fill="#cf6da8"/><path d="M448.242 130.43c-.4.183-.52.63-.926 3.167l-.5 2.784c-.076.32-.102.76-.058.977.07.35.127.4.464.5.58.157.792-.102 1.07-1.313.3-1.358.872-5.164.82-5.563-.07-.533-.434-.76-.88-.552zm2.872.544c-.262.07-.3.14-.426.6-.167.675-.23 3.16-.1 3.9.055.3.383 1.26.728 2.115.76 1.88 1.067 2.274 1.58 2.034.546-.256.467-.848-.404-3.022-.57-1.424-.67-2.036-.622-3.82.024-.908-.017-1.343-.15-1.554-.222-.355-.236-.36-.607-.26zm-7.414-2.03c-.204.104-.45.4-.74.893l-2.047 3.27c-.455.565-.703 1.15-.604 1.425.1.303.612.43.97.244.173-.1.613-.554.98-1.034.774-1.014 2.335-3.707 2.374-4.096.063-.62-.403-.97-.932-.702zm12.3 2.41c-.228.17-.245.22-.2.58.068.7 3.45 7.546 3.94 7.98.514.452 1.247.372 1.288-.14.028-.356-.037-.505-.783-1.786-.365-.627-1.195-2.246-1.843-3.6l-1.4-2.74c-.3-.402-.703-.52-1.005-.293zm-18.386-5.358c-.303 0-.645.176-1.783.917l-1.972 1.156c-.47.235-.947.514-1.06.62-.492.454-.103 1.2.58 1.093.744-.104 3.698-1.766 4.577-2.576.255-.234.392-.63.28-.813-.127-.208-.423-.397-.62-.397zm24.7 3.673c-.344.352-.275.753.384 2.227l1.182 2.75c.518 1.26 1.528 3.157 1.9 3.567.297.327.662.398.947.183.24-.18.258-.227.222-.587-.02-.215-.372-.998-.78-1.74s-1.098-2.247-1.534-3.345c-1.006-2.533-1.23-2.937-1.736-3.12-.3-.112-.423-.1-.583.064zm-28.54-7.774c-.094.003-.572.13-1.062.285a9.96 9.96 0 0 1-1.884.352c-2.965.213-3.988.608-3.578 1.38.22.412.677.456 2.66.255 3.278-.332 5.005-1.062 4.548-1.92-.124-.233-.37-.36-.684-.35zm-5.573-7.8a32.55 32.55 0 0 1-2.694-.066l-1.98-.145c-.655-.047-1.193.142-1.308.46s.135.733.54.88c1.076.388 6.66.563 7.464.234a.67.67 0 0 0 .304-.866c-.207-.388-.896-.536-2.326-.497zm39.558 12.026c-.845.45-.152 1.544 2.486 3.928l1.76 1.67c1.573 1.578 1.9 1.793 2.378 1.57.378-.178.473-.526.26-.952-.18-.36-1.387-1.588-3.458-3.517l-1.83-1.8c-.787-.844-1.22-1.086-1.594-.888zm3.832-3.712c-.46.244-.436.767.052 1.2.123.106.912.616 1.754 1.132 1.247.765 1.752 1.02 2.732 1.372 1.533.553 2.048.5 2.117-.175.04-.406-.124-.543-1.23-1.023-1.92-.833-2.354-1.05-3.324-1.67-1.2-.767-1.78-.994-2.1-.824zm-43.884-17.13l-2.535-.58c-1.377-.393-3.163-.673-3.473-.546-.135.055-.277.187-.315.292-.2.58.243 1.012 1.286 1.224l2.047.522c1.793.502 4.558.957 4.917.8.264-.108.48-.507.416-.767-.054-.217-.367-.518-.624-.6-.13-.04-.903-.2-1.72-.356zm50.38 11.004l-2.273-.605c-.796.03-1.235.462-.97.958.113.212.242.28.836.428l2.597.773c1.5.472 1.96.58 2.2.522.827-.197.696-1.12-.196-1.378l-2.203-.698zm-51.793-18.897l-2.8-.87a.74.74 0 0 0-.757.626c-.057.57.08.637 4.107 2.047l3.916 1.305c.435.017.705-.812.383-1.18-.265-.305-1.954-.977-4.84-1.927zm-.714-6.602c-.507.087-.714.498-.5.974.117.25.455.493 1.73 1.248 1.322.783 1.76 1.104 2.657 1.94 1.745 1.63 2.634 2.08 3 1.522.266-.395.056-.795-.945-1.796-1.415-1.416-2.73-2.378-4.585-3.358-1.192-.63-1.074-.584-1.377-.532zm1.692-4.223c-.292.172-.4.616-.205.922.093.153.454.58.803.95l1.042 1.192c.224.287.892 1.015 1.484 1.617l1.67 1.804c.744.9 1 1.067 1.405.97.44-.105.6-.576.34-1.06-.106-.203-.94-1.17-1.857-2.15l-2.02-2.297c-.472-.7-1.63-1.748-2.103-1.918-.216-.078-.458-.092-.56-.032zm53.826 21.536c-.475.018-3.403-.256-4.428-.414-1.056-.163-1.396-.08-1.562.382-.138.383.1.722.647.92.72.26 4.008.623 5.436.6.773-.012 1.276-.528 1.007-1.032-.136-.257-.658-.472-1.1-.456zM430.24 82.4c-.35.165-.456.637-.25 1.122.075.177.933 1.406 1.905 2.73 3.384 4.6 3.636 4.887 4.177 4.6.296-.157.412-.48.317-.88-.04-.173-.867-1.378-1.836-2.678l-3.068-4.175c-.52-.75-.815-.922-1.245-.72zm48.345 16.868c-.186.062-.64.305-1 .54-.488.3-.952.486-1.7.64-2.58.53-3.604 1.218-3.002 2.02.256.34.618.347 1.445.024a12.82 12.82 0 0 1 1.678-.478c1.396-.3 1.993-.518 2.7-1.03.774-.562 1.004-.94.824-1.358-.163-.376-.496-.504-.935-.358zM435.373 79.64c-.184.086-.352.206-.374.267-.142.395.5 1.833 1.895 4.32l1.387 2.745c.88 1.928 1.206 2.303 1.746 2.016.456-.242.452-.597-.02-1.812a22.27 22.27 0 0 0-1.789-3.639c-.292-.485-.822-1.487-1.178-2.225-.573-1.2-.908-1.675-1.234-1.792-.054-.02-.25.035-.433.122zm38.997 13.608c-.54.087-2.637 1.888-3.3 2.842-.8 1.148-.943 1.9-.408 2.284.275.203.808-.06 1.072-.53.455-.8.93-1.365 2.058-2.403 1.28-1.18 1.5-1.542 1.235-1.934-.198-.282-.288-.318-.648-.26zM439.6 78.564c-.16.12-.253.278-.26.444-.006.14.304 1.025.688 1.964l2.47 6.267c.3.8.547 1.062.97 1.028.557-.045.704-.544.4-1.4-1.043-3-2.74-7.184-3.2-7.9-.337-.516-.74-.674-1.076-.422zm31.377 12.278c-.162.086-.455.528-.895 1.347-.36.67-.906 1.56-1.214 1.98-.832 1.13-1.042 1.888-.57 2.06.455.164.642.022 1.612-1.222.975-1.25 1.878-2.848 1.936-3.424.06-.596-.402-.988-.87-.74zM446.013 78.96c-.443.122-.495.504-.263 1.935l.234 1.84.188 2.666c.2 2.415.32 2.805.902 2.7.52-.085.625-.475.564-2.08-.126-3.316-.423-5.943-.744-6.57-.205-.4-.547-.595-.882-.502zm5.32 1.387c-.285.15-.343.306-.475 1.263a8.86 8.86 0 0 1-.363 1.476c-.35.977-1.013 3.993-1 4.494.04.82.478 1.255 1 .982.275-.146.272-.137.664-2.257a18.32 18.32 0 0 1 .647-2.45c.44-1.23.6-2.028.506-2.706s-.525-1.044-.98-.802zm16.617 8.226a.99.99 0 0 0-.32.252c-.328.446-2.193 3.563-2.4 3.996-.207.453-.2.528-.035.76.23.307.563.348.882.108.406-.305 1.928-2.66 2.355-3.644.347-.8.4-.967.296-1.167-.135-.288-.513-.436-.787-.307zm-11.945-6.426c-.313.167-.52.782-.532 1.582-.014.917-.145 1.202-1.085 2.364-1.488 1.84-1.818 3.142-.806 3.182.224.01.387-.184.978-1.158a7.88 7.88 0 0 1 .848-1.071c.816-.858 1.3-1.602 1.424-2.233.147-.7.17-2.04.043-2.352s-.573-.473-.87-.314zm8.9 4.757c-.164.123-.42.556-.728 1.238l-1.116 2.304c-.776 1.523-.807 1.822-.216 2.093.504.23.75.01 1.403-1.25.758-1.468 1.583-3.32 1.62-3.637.08-.666-.487-1.105-.964-.747zm-3.725-2.164c-.13.103-.408.596-.673 1.2a29.66 29.66 0 0 1-1.054 2.111c-.8 1.43-1.1 2.228-.927 2.535.428.805 1.165.076 2.57-2.54 1.105-2.06 1.297-3.124.608-3.372a.51.51 0 0 0-.523.066z" fill="#ffffbe"/><path d="M495.563 95.172c-2.94-.97-4.415 3.646-6.397 8.096s-5.048 17.13-6.06 20.407-6.108 10.38-3.896 12.487c4.728 4.505 6.853-5.677 7.618-8.716.258-1.026 1.345-3.628 2.82-5.424 1.078-1.314 5.08.704 6.15-2.394 1.056-3.05-3.002-3.635-3.272-4.042-1.204-1.813-.395-4.718-.097-5.71 1.087-3.633 6.677-13.533 3.132-14.702z" fill="#d88ab8"/><path d="M455.996 62.236l5.872 1.815c2.653.64 7.192.572 7.192.572s-3.392 4.463-4.46 5.183-3.433 2.637-3.958 3.434-3.382 3.164-3.382 3.164-.95-3.653-1.1-6.66l-.23-6.07c-.008-.43.066-1.436.066-1.436z" fill="#8a220f"/><path d="M459.528 58.06s-1.218.484-1.988 1.357-1.397 1.81-1.397 1.81 3.57 1.42 6.632 2.124 6.154.5 6.154.5.022-.827-.155-1.528l-.625-2.183s-3.328-.244-4.587-.58c-2.06-.55-4.034-1.5-4.034-1.5z" fill="#f65799"/><path d="M468.823 55.888s-.426.09-.514-.55.27-1.003.27-1.003-.092-.57-.867-1.074-2.12-1.072-2.12-1.072.06.703-.668.94-1.265-.07-1.265-.07-.001.397-.62.54-.93-.07-.93-.07-.846.185-1.48 1.208-.852 2.544-.852 2.544 2.82 1.297 4.535 1.626 3.684.457 3.684.457.542-1.06.732-1.965.096-1.514.096-1.514z" fill="#ffffbe"/><path d="M464.182 48.904a.72.72 0 0 0-.429.234c-.106.108-.124.146-.22.466-.078.255-.14.404-.23.555-.068.114-.177.336-.242.494-.17.416-.198.44-.608.516-.523.1-.665.2-.803.564-.112.297-.116.874-.008 1.133.1.215.176.286.437.36.268.077.485.074.755-.01.193-.06.264-.134.354-.37.093-.244.115-.256.314-.166a4.57 4.57 0 0 0 .441.157c.25.075.298.08.46.054.204-.034.385-.15.485-.313s.282-.495.24-.756c-.042-.268-.29-.576-.492-.85-.157-.213-.34-.334-.56-.37-.24-.04-.34-.02-.582.117-.12.068-.234.112-.252.1-.06-.043.083-.434.25-.683.08-.12.166-.227.19-.236s.11-.013.192-.01c.286.014.674-.113.824-.272.156-.164.18-.29.083-.468-.075-.138-.08-.142-.282-.2-.12-.035-.252-.054-.317-.047z" fill="#f65799"/><path d="M473.342 53.316l-3.993.842s-.464.297-.45.804.767.566.767.566l3.837-1.078s.864-.023.735-.7-.896-.424-.896-.424" fill="#c0eeff"/><path d="M265.665 31.29c-.666.237-2.1 1.01-3.164 1.716l-3.08 1.825c-1.12.537-1.133.535-1.876-.283-.488-.537-1.384-.96-2.57-1.218-1.002-.217-2.21-.72-2.685-1.113-1.792-1.49-2.206-1.673-3.567-1.572-3.213.238-8.072 3.487-10.203 6.822-.947 1.483-1.673 2.17-3.092 2.928-1.948 1.04-2.274 1.67-1.612 3.114.225.5.228 2.38.01 5.28-.436 5.786.22 8.094 2.348 8.262 1.1.088 1.408-1.178.787-3.344-.424-1.48-.5-2.427-.275-3.44.538-2.42 1.64-4.876 2.53-5.636.827-.706 1.04-.72 5.826-.34 5.974.47 6.436.694 5.652 2.716-.278.716-.578 2.232-.668 3.368-.138 1.748-.047 2.203.593 2.952 1.004 1.177 1.628 1.17 3.013-.03.934-.81 1.313-1.533 1.97-3.755 1.206-4.08 1.553-4.295 6.31-3.924 2.078.163 4.572.263 5.543.223 1.496-.06 1.793.02 1.945.537.246.832-.708 2.217-3.543 5.144-5.05 5.213-6.214 5.992-9.354 6.264-1.724.15-5.306 2.725-6.765 4.866-.66.968-1.633 2.75-2.16 3.96l-1.618 3.6c-.41.878-.61 1.838-.536 2.544.255 2.38-1.274 4.635-5.917 8.73-1.61 1.42-3.185 2.995-3.5 3.5s-1.557 1.923-2.762 3.152c-1.743 1.776-2.2 2.468-2.282 3.38-.126 1.597-.842 2.59-3.4 4.722-4.042 3.368-7.71 8.37-10.377 14.156-.288.625-1.173 3.375-1.967 6.1-1.58 5.445-1.59 6.234-.1 7.388.716.554 1.403.654 5.257.764 5.497.157 6.36-.008 10.113-1.936 1.658-.852 4.152-1.994 5.542-2.54 6.334-2.482 8.1-4.192 13.46-13.044 2.038-3.365 3.037-4.724 3.45-4.69.587.046 2.04 1.658 2.932 3.25.308.55.433 1.56.34 2.75-.1 1.397-.002 2.035.42 2.482.953 1 2.92.795 4.036-.44 1.863-2.067-.686-9.234-4.2-11.808-.608-.445-1.163-1.157-1.235-1.582-.183-1.083 1.676-4.16 5.155-8.534 3.473-4.366 3.994-4.535 5.527-1.797.537.96.925 2.143.88 2.693-.125 1.58 1.1 2.726 3.077 2.882 2.18.172 3.477-.647 3.606-2.28.142-1.804-.628-3.222-5.205-9.585-1.14-1.584-.983-1.943 3.56-8.17a96.45 96.45 0 0 0 3.683-5.514c2.325-3.818 3.137-3.67 4.945.896 1.055 2.665 2.076 3.613 3.703 3.44 2.754-.295 3.958-2.432 2.555-4.537-.358-.537-.98-1.777-1.38-2.755-.538-1.3-1.308-2.285-2.917-3.694-1.202-1.053-2.36-2.2-2.575-2.546-.515-.835-.363-2.44.392-4.142.338-.76.653-1.852.7-2.427s.344-1.706.656-2.514c.728-1.882.436-3.075-.998-4.082-1.312-.92-1.554-2.048-.853-3.96.665-1.81.43-2.294-1.06-2.172-1.08.09-1.31-.086-3.476-2.622-1.276-1.495-2.927-3.045-3.67-3.445-1.993-1.076-4.415-1.466-5.874-.947z" fill="#cf6da8"/><path d="M320.6 106.68c-2.38.28-6.102 2.037-9.4 4.44-1.734 1.263-3.285 2.287-3.446 2.274s-.762.8-1.337 1.83c-.865 1.54-1.063 2.266-1.166 4.294-.07 1.343.01 2.748.172 3.123.414.944 1.947 1.828 3.815 2.2 1.345.268 1.722.206 2.582-.423 1.288-.942 1.124-1.812-.595-3.155-2.516-1.966-2.066-3.958 1.398-6.19l3.75-2.42c2.666-1.724 6.515-1.97 9.154-.584 3.05 1.603 4.874 4.593 5.57 9.13.2 1.3.563 2.078 1.343 2.882 1.21 1.244 1.666 1.357 3.08.76 1.805-.76 2.514-1.857 2.697-4.17.127-1.61.34-2.274.94-2.922.985-1.07 4.597-2.577 6.575-2.746 4.618-.395 3.995-.59 6.502 2.044 1.36 1.43 2.565 2.408 3.012 2.443 1.097.087 2.185-.68 2.487-1.747.5-1.797-.023-3.51-1.66-5.338-1.4-1.565-1.684-1.73-3.15-1.847-2.58-.203-6.278.338-7.993 1.17-.87.422-1.946.74-2.4.708s-1.564.106-2.488.308c-2.348.515-3.354.366-4.138-.613-.37-.462-1.647-1.624-2.836-2.582-1.86-1.498-2.506-1.815-4.61-2.258-2.884-.608-5.91-.845-7.87-.615zm14.79 13.582c-.082 1.043-.787 1.208-1.193.28-.38-.865-.047-1.442.7-1.234.328.1.52.472.482.954z" fill="#e8b9d6"/><path d="M349.63 86.916c-.664.197-1.526.345-1.915.328-1.337-.057-5.55 1.93-8.26 3.898-4.044 2.934-5.002 2.908-6.792-.19-.616-1.065-1.605-2.434-2.196-3.043-.903-.927-1.33-1.117-2.64-1.17-.86-.035-2.16-.207-2.887-.383-1.612-.4-6.194-.122-6.93.406-.295.21-1.635.883-2.978 1.492-1.4.64-3.964 2.315-6.034 3.96-3.14 2.496-3.725 3.125-4.673 5.024-1.907 3.823-1.758 7.74.37 9.606.713.625.92.65 2.886.352 2.415-.366 4.37-1.197 4.423-1.882.024-.3-.674-.653-2.076-1.023-1.358-.358-2.265-.796-2.536-1.227-1.085-1.72 1.217-5.326 5.558-8.706 1.627-1.267 3.62-2.552 4.432-2.857 1.817-.682 7.522-.615 8.64.103.41.263 1.2 1.715 1.858 3.42l1.146 2.964-.632 2.35c-1.15 4.274-1.186 4.7-.48 5.526.794.93 3.753 1.284 4.932.6 1.187-.7 2.317-2.475 2.422-3.81.056-.716.572-1.966 1.248-3.022.632-.99 1.165-1.985 1.182-2.21.077-.98 1.545-1.97 3.583-2.415 1.54-.336 2.553-.823 3.663-1.757 2.588-2.177 6.435-2.65 12.455-1.533 4.05.752 8.105 2.312 9.403 3.618.428.43 1.326 1.254 1.992 1.828 1.058.91 1.18 1.17.938 2.018-.22.78-.1 1.178.607 2.007 1.793 2.1 3.605 1.834 5.398-.795 1.37-2.01 1.26-2.92-.612-4.982-1.913-2.11-7.75-5.708-10.5-6.48-.994-.278-2.655-.79-3.7-1.138-2.424-.815-9.616-1.37-11.295-.87zm-17.217 15.64c-.048.608-.27.844-.828.88-.607.038-.748-.114-.697-.756.076-.963.393-1.284 1.08-1.095.298.082.484.487.446.972z" fill="#e0a9cc"/><path d="M344.147 64.426c-.773.274-2.083.546-2.908.606s-2.84.462-4.48.896c-2.565.678-3.185.994-4.43 2.257-.797.808-2.073 1.692-2.834 1.965l-1.382.497-2.692-1.923c-3.752-2.682-4.875-3.115-8.882-3.432-2.966-.234-3.598-.18-4.955.425l-2.947 1.235c-3.106 1.207-7.45 7.21-8.648 11.942-.677 2.68-.732 8.193-.096 9.704 1.062 2.523 4.67 4.18 6.12 2.81.856-.808.695-1.653-.46-2.413-1.566-1.03-1.847-2.21-1.5-6.348.37-4.527 1.258-6.58 3.928-9.074 2.723-2.545 4.3-3.035 8.674-2.676l3.584.295 4.532 3.558-.37 1.54c-.613 2.55-.587 3.922.102 5.625 1.58 3.91 3.967 4.88 6.558 2.666l1.076-.92.203-8.746 1.926-1.536c2.896-2.308 5.73-3.83 7.75-4.16 2.81-.46 8.826.2 10.613 1.17 2.796 1.514 4.937 5.64 4.672 9-.13 1.652.267 2.263 1.533 2.363 1.02.08 2.62-1.31 3.08-2.676.365-1.087.27-4.397-.178-6.128-.906-3.5-4.135-6.068-9.9-7.874-3.607-1.13-5.797-1.314-7.677-.65zm-14.562 16.388c-.064.81-.99 1.145-1.693.6-.55-.42-.428-1.493.204-1.82.595-.307 1.547.466 1.49 1.2z" fill="#d995c0"/><path d="M336.438 30.203c-3.837.44-6.003 1.16-8.07 2.692-1.147.85-2.607 2.095-3.24 2.77-1.75 1.858-2.16 1.826-5.23-.408-2.236-1.626-3.07-2.033-4.94-2.41l-3.965-.825c-1.617-.348-1.78-.314-2.736.553-2.98 2.706-4.372 4.747-6.15 9.033-2.993 7.2-1.914 12.774 2.994 15.435 1.477.802 2.82.677 3.288-.304.353-.738.06-1.238-1.588-2.707-1.846-1.645-2.152-2.485-1.933-5.32.32-4.176 2.434-8.818 4.827-10.608 1.2-.897 1.327-.917 3.49-.543 2.825.49 3.808.952 5.094 2.4 1.913 2.154 2.148 2.956 1.83 6.27-.303 3.166-.016 4.448 1.402 6.28 1.39 1.794 3.67 2.455 6.542 1.897 1.367-.266 2.386-1.447 2.5-2.9.086-1.093-1.223-5.572-2.21-7.57-.605-1.223-.745-1.895-.533-2.566.45-1.42 3.254-4.29 4.97-5.083 1.422-.657 1.866-.69 5.227-.368 3.21.306 4.024.512 6.434 1.627 1.52.702 3.185 1.656 3.703 2.118s1.594 1.237 2.388 1.72c5.05 3.07 8.233 6.03 8.14 7.566a2.71 2.71 0 0 0 .36 1.341c.57.925 2.904.743 4.765-.37 1.278-.766 1.444-1.003 1.465-2.093.042-2.19-1.267-4.15-5.202-7.78-2.382-2.2-9.86-6.568-12.707-7.423-8.193-2.464-8.99-2.64-10.913-2.42zM326.396 47.75c1.277 1.053.568 3.223-1 3.098-1.37-.108-1.837-1.694-.92-3.123.48-.75 1-.743 1.93.025z" fill="#d17eb3"/><path d="M249.826 80.98c.34.22.604.597.585.84-.056.704-3.113 5.987-4.34 7.5a23.95 23.95 0 0 0-2.028 3.065c-.5.93-1.6 2.442-2.463 3.362-1.7 1.82-1.66 1.818-4.42.542-1.7-.78-3.648-.76-5.235.053-.707.362-1.7 1.583-3.065 3.8-2.25 3.63-2.53 4.818-1.868 7.922.518 2.433 2.834 5.3 4.37 5.433 1.312.103 1.8-.308 4.4-3.787 1.138-1.517 2.242-2.747 2.454-2.733s.656.58.987 1.257c.408.835.922 1.323 1.596 1.514.547.155.98.457.964.67-.036.454-2.97 2.918-4.505 3.782a10.67 10.67 0 0 1-2.29.89c-.68.162-2.626 1.032-4.328 1.932-3.8 2.016-4.545 2.26-8.063 2.7-5.003.6-5.474.007-4.007-5.133 1.53-5.36 3.17-8.567 6.76-13.22 1.792-2.323 8.657-8.52 9.376-8.462.187.015.868-.367 1.514-.847s1.7-.944 2.364-1.03c2.3-.298 3.3-1.658 2.966-3.994-.147-1.022-.073-1.738.24-2.354.43-.843 3.26-3.12 4.807-3.866.902-.435 2.4-.356 3.233.17zm-13.846 21.654c-.076.963-2.153 4.514-3.222 5.508-1.688 1.57-2.55.3-1.925-2.82.614-3.083 2.414-4.73 4.276-3.912.684.3.918.63.87 1.224zm12.28-2.018c-.062.9-3.653 6.526-4.132 6.488-.775-.06-.28-2.7.802-4.282 1.76-2.572 3.434-3.68 3.33-2.207zm4.336-9.53c-.406 1.9-1.4 2.845-3.36 3.2-2.163.382-2.193.378-2.137-.315.054-.67 2.396-4.066 3.523-5.108l.756-.7.747.818c.618.677.7 1.042.47 2.113zm8.124-27.926c.648.52 1.244 1.337 1.325 1.817.232 1.374-.705 3.296-2.47 5.072l-3.505 3.838c-1.035 1.213-2.112 2.312-2.395 2.442-.55.253-3.62-.887-3.9-1.454-.306-.596 1.175-3.913 2.66-5.96 2.896-3.988 5.733-6.808 6.77-6.727.192.015.88.452 1.527.97zm3.753 8.763c1.386.8 1.418 1.75.104 3.083-.74.75-1.347.97-3.158 1.14-1.233.116-2.312.13-2.398.03-.35-.4 3.5-4.973 4.14-4.92.096.008.686.3 1.312.67zm10.6-25.453c-.02.265-.185.47-.365.456s-.575.295-.88.688c-.432.558-.506 1.035-.342 2.182.172 1.197.075 1.72-.527 2.832-1.528 2.83-5.96 7.487-7.04 7.402-.84-.066-2.194-1.954-2.116-2.95.05-.62.926-1.757 2.905-3.765l4.343-4.465c.83-.874 1.94-1.98 2.467-2.458.958-.867 1.627-.834 1.555.077zm-24.176-11.484c.944.97 1.084 1.34.985 2.6-.154 1.95-.633 2.114-5.137 1.76-3.843-.303-4.72-.522-4.67-1.168.065-.826 2.038-2.84 3.58-3.656 2.206-1.166 3.782-1.024 5.24.475zm18.965 1.04c1.14.696 2.05 1.6 2.63 2.6.833 1.43.85 1.553.267 1.913-.612.378-11.32.06-12.248-.364-1.662-.76 2.214-4.338 5.404-5 1.76-.36 2.074-.292 3.946.85zm-117.986 70.486c-.2-.17-.385-.274-.568-.332l-2.2-.7c-.708-.233-2.872-.488-4.8-.566-4.06-.163-6.346-.767-6.97-1.837-.857-1.476.488-2.895 4.108-4.336 1.243-.495 2.462-1.16 2.7-1.482.417-.54.385-.588-.455-.66-.497-.042-2.385.1-4.196.293-5.083.57-7.6.303-8.56-.915-1.253-1.57-.5-2.506 5.524-6.94 2.344-1.723 3.528-2.9 3.583-3.528.025-.294-.037-.58-.138-.636s-1.672-.054-3.5.004c-3.775.12-5.366-.113-6.135-.903-1.3-1.337-.3-2.892 2.943-4.53 2.73-1.383 3.497-2.23 3.14-3.473-.258-.896-1.874-1.92-2.667-1.693-.172.05-1.368-.085-2.658-.3-1.576-.262-2.6-.65-3.097-1.185-1.895-2.004-1.262-3.968 1.854-5.75 2.3-1.316 2.676-2.2 1-2.3-1.055-.075-3.764.187-7.913.765-4.74.66-7.128-.386-5.983-2.62.54-1.053 1.53-1.814 3.62-2.782.7-.33 1.4-.873 1.558-1.208.223-.5.064-.7-.984-1.173-3.755-1.7-1.563-4.392 4.803-5.917l2.453-.588.206-1.247c.113-.686.417-1.52.676-1.853.684-.883 2.364-1.257 3.527-.784.556.226 1.464 1.07 2.016 1.876.993 1.448 3.925 4.155 4.548 4.2l.058-.01c-.286 6.316.845 15.573 5.695 28.6 1.843 4.95 4.406 15.64 6.803 24.533z" fill="#e8b9d6"/><path d="M139.378 53.38c.204-.056.595-.428.922-.883.363-.504 1.055-1.03 1.54-1.17.95-.274 2.658.275 3.478 1.118.793.815 4.567 11.445 6.29 17.713 1.356 4.937 3.552 11.985 4.728 14.215l2.853 5.42c.877 1.668 2.303 4.713 3.17 6.767 1.605 3.806 3.77 7.266 5.564 8.893.592.537.987 1.178.976 1.584-.025.935-1.636 3.455-3.062 4.79-1.562 1.462-5.155 2.946-6.7 2.767-1.61-.186-2.51-1.085-4.87-4.846-1.144-1.825-1.833-2.775-2.392-3.236-2.397-8.894-4.96-19.58-6.803-24.533-4.85-13.026-5.98-22.284-5.695-28.6z" fill="#d68bba"/><path d="M87.55 112.384c.338.22 5.406 2.47 6.14 8.78.313 2.693 2.8 1.222 3.25 3.448.12.594.032 1.286-.266 2.112-.244.676-.502 1.256-.572 1.3-.323.153-.267 1.552.092 2.31.498 1.05 1.1 1.36 2.505 1.268 1.653-.11 2.67.62 2.958 2.118.17.886-.145 1.698-1.218 3.13-.517.7-.94 1.322-.94 1.404s.12.316.267.52c.32.444 1.197.817 2.65 1.13 3.744.803 4.39 1.185 4.806 2.836.32 1.28-.225 2.485-1.865 4.117-.584.58-1.155 1.246-1.27 1.477-.192.4-.178.437.193.664.22.134.866.13 1.437-.01 1.663-.408 2.704.085 3.18 1.507.345 1.032.018 2.393-.996 4.148-.484.838-.945 1.895-1.023 2.35l-.25 1.4c-.08.435.14 1.352.9 3.796 1.165 3.693 1.35 4.712 1.008 5.496-.33.753-2.006 1.118-3.126.682-1.022-.4-2.66-1.588-3.114-2.26-.197-.29-.397-.918-.495-1.55-.296-1.91-1.368-5.305-2.756-8.728-.75-1.848-1.822-4.644-2.384-6.213l-1.825-5.103c-.75-2.1-3.53-8.126-5.527-12.274-2.535-5.266-6.603-14.54-6.78-15.454-.182-.945.015-2.034.4-2.217.197-.093 4.27-2.396 4.6-2.175z" fill="#cb6da9"/><path d="M124.082 136.18c-.356.357-1.133 1.793-1.725 3.2-.673 1.588-1.312 2.6-1.704 2.7-.345.087-1.926-.318-3.513-.9-3.125-1.146-4.346-1.078-6.12.34-1.245.993-3.68 6.393-3.775 8.37-.042.875-.446 2.365-.897 3.3s-1.052 2.717-1.333 3.936-1.015 3.432-1.63 4.917c-1.47 3.554-1.96 6.455-1.22 7.216.298.306.892.58 1.32.608s3.762-.773 7.408-1.782c5.26-1.454 6.8-1.987 7.46-2.58.563-.507 2.477-1.294 5.93-2.438 4.896-1.622 5.237-1.692 8.577-1.734 3.506-.045 7.138-.796 8.808-1.822.445-.274 1.192-1.094 1.658-1.82 1.158-1.808 2.272-2.333 6.82-3.218 3.672-.714 4-.835 5.573-1.997 1.46-1.084 2.315-1.424 6.95-2.76 5.52-1.6 6.4-2.02 7.527-3.715.43-.64 1.303-1.297 2.328-1.748 2.038-.897 2.536-1.363 3.52-3.286.725-1.418.952-1.597 3.13-2.465 1.292-.515 2.636-1.15 2.987-1.414.943-.706.77-2.042-.412-3.158a12.48 12.48 0 0 1-1.727-2.156c-.422-.698-1.495-1.678-2.508-2.3-.973-.588-2.576-1.958-3.56-3.045-2.57-2.834-3.517-2.995-9.218-1.572-3.126.78-4.557 1.27-5.05 1.726-.38.35-1.15 1.865-1.715 3.367s-1.224 2.834-1.465 2.96-.918-.204-1.505-.737c-1.8-1.632-2.947-1.748-6.677-.675-1.8.515-3.65 1.215-4.13 1.556-.492.348-1.668 2.214-2.688 4.266-.998 2.006-1.985 3.696-2.194 3.756s-1.187-.844-2.174-2.008c-1.364-1.6-2.34-2.384-4.072-3.23-1.253-.612-2.803-1.18-3.444-1.26-1.467-.187-4.68.74-5.535 1.598zm-62.55-5.227c-.515.284-.818.76-1.323 1.863-.68 1.5-.93 1.76-1.484 1.605-2.4-.666-3.825-3.54-3.357-6.823.167-1.173.238-2.36.157-2.64s.247-1.037.727-1.684c.805-1.084 2.536-5.917 3.06-8.546.122-.6.754-2.048 1.404-3.193.78-1.37 1.174-2.554 1.158-3.464-.014-.817.418-2.275 1.058-3.567.595-1.202 1.048-2.304 1.006-2.45s.263-1.036.68-1.978 1.036-2.96 1.38-4.487.997-3.58 1.452-4.564c.928-2.008.914-2.225-.235-3.656-1.066-1.328-1.407-2.58-.955-3.504.423-.865 1.203-1.15 2.846-1.04 1.025.068 1.33-.064 2.35-1.02 1.47-1.38 1.512-1.4 3.632-.942 1.712.362 1.8.347 3.313-.615 2.95-1.863 3.82-.763 1.692 2.137-.77 1.05-1.305 2.136-1.2 2.46.197.685 3.24 1.58 7.247 2.132 1.5.206 4.413.776 6.474 1.265l5.74 1.138c3.182.397 16.06 4.23 18.616 5.542 1.4.72 1.9 1.6 1.475 2.697-.48 1.262-2.82 3.856-3.706 4.112-.5.14-2.732-.004-4.982-.322l-1.5-.187c-5.623-2.074-17.75-5.802-22.06-5.828-2.644-.016-3.177 5.17-4.923 6.22-1.586.955-4.53-1.454-5.553.1-3.245 4.892-11.033 19.115-14.165 29.25z" fill="#d88ab8"/><g fill="#e8b9d6"><path d="M61.533 130.953c3.133-10.135 10.92-24.358 14.165-29.25 1.023-1.543 3.967.866 5.553-.09 1.746-1.052 2.28-6.236 4.923-6.22 4.31.026 16.437 3.753 22.06 5.828-1.62-.178-2.936-.232-3.197-.115-.536.24-.55.593-.11 2.65.58 2.704.365 3.376-1.4 4.36-1.756.98-3.6 1.433-5.454 1.344-2.55-.122-2.62.047-1.638 3.858.673 2.607.765 3.41.433 3.782-.6.67-1.9.632-3.694-.112-.854-.354-2.877-.86-4.495-1.124-2.513-.41-3.12-.393-4.154.123-2.256 1.125-2.215 1.05-4.2 7.87-1.237 4.27-1.544 4.862-2.852 5.48-.814.385-1.383 1.077-2.165 2.633-1.11 2.208-1.127 2.218-3.5 1.977-1.05-.107-1.208-.03-1.715.822-.77 1.298-2.193 2.135-3.505 2.063-1.847-.102-2.542-1.35-2.358-4.238.13-2.02-.293-2.41-2.055-1.903a2.95 2.95 0 0 0-.663.262z"/><path d="M599.997 104.917c1.335 1.2 3.874 2.675 4.943 3.002.768.253 1.247-.14 1.8-.834 2.1-2.6 6.236-8.233 8.432-11.714l21.855-34.647c.418-.663.296-1.204-.407-2.1-1.83-2.428-6.34-6.664-8.9-8.285-.332-.2-.715-.335-1.225-.078-.645.288-2.03 1.384-2.908 2.22 2.06 1.878 3.556 4.097 4.1 5.606.44 1.32.542 2.08-.242 3.323L618.4 75.74l-10.195-6.43 9.202-14.588c.418-.663.348-1.287-.354-2.193-1.85-2.2-5.493-5.435-7.98-7.004-.332-.2-.798-.388-1.308-.13-.645.288-1.927 1.218-2.803 2.056 1.593 1.7 2.998 3.513 3.627 4.72.598 1.072.346 1.84-.5 3.166L587.236 88.4c1.335 1.2 3.708 2.57 4.777 2.897.768.253 1.247-.14 1.8-.834 2.1-2.6 6.393-8.48 8.6-11.963l2.405-3.813 10.195 6.43-15.006 23.8zM547.063 64.1c.297.998.982 1.2 1.876 1.067 6.1-.67 17.655-3.926 27.583-8.092 1.483 8.12 2.604 15.894 3.895 25.052 2.1-.2 4.958-.696 6.55-1.2.863-.266 1.343-.66 1.098-1.74-2.106-8.05-3.642-16.086-5.735-24.706 5.32-2.554 9.57-5.435 11.2-8.004.68-1.078.797-1.815.448-2.73-1.306-3.257-5.875-8.688-7.698-9.838-.25-.157-.414-.26-.872-.087-.863.266-2.154.843-3.226 1.44 2.17 3 3.715 6.05 2.564 7.874-3.66 5.802-25.77 14.218-38.72 16.013.263 1.788.752 3.95 1.05 4.95zm19.46 58.97c12.184 7.686 24.206 4.6 29.33-3.514s2.723-20.297-9.46-27.983-24.206-4.6-29.33 3.514-2.723 20.297 9.46 27.983zm3.503-5.553c-8.123-5.124-9.492-13.056-6.25-18.195s11-7.32 19.113-2.195 9.492 13.056 6.25 18.195-11 7.32-19.113 2.195zm93.697-16.37l41.897 10.2c1.428.348 2.996.124 3.575-2.256l5.47-22.472c.464-1.904-.23-2.78-1.755-3.15-2.38-.58-8.662-1.705-11.043-2.285l-28.85-7.024c-2.476-.603-7.265-2.475-9.55-3.03-1.238-.3-2.384 2.748-2.688 3.582 2.432 1.197 4.225 2.945 3.6 5.516l-3.593 14.76c-.88 3.618.367 5.536 2.938 6.162zm4.958-5.45l3.663-15.045 33.708 8.206-3.663 15.045-33.708-8.206zm-17.727 62.456l48.086 11.707c1-1.575 2.137-4.22 2.392-5.268.278-1.143-.152-1.45-1.485-1.774-.952-.232-8.374-1.232-11.993-2.113l-31.994-7.8 2.202-9.046 40.944 9.968c.762.185 1.377-.27 1.632-1.317l4.034-16.568c.464-1.904-.23-2.78-1.755-3.15-2.38-.58-8.662-1.705-11.043-2.285l-9.522-2.318 2.1-8.665 22.28 5.424c4.856 1.182 10.214 2.8 14.643 4.07 1.012-1.67 2.37-4.768 2.65-5.9s-.152-1.45-1.485-1.774c-1.238-.3-9.254-1.345-16.586-3.13L656.92 106.26c-7.522-1.83-11.213-2.83-16.694-5.174-.875.695-2.293 1.963-2.433 2.535-.116.476.15 1.045.293 1.282 1.706 2.937 4.55 5.344 7.413 7.25 4.182-.192 7.723-.238 11.15.597l20.187 4.914-2.1 8.665-10.38-2.527c-3.428-.835-8.807-1.942-11.98-3.824-.757.623-2.13 1.7-2.268 2.272-.093.38.123.736.267.973 1.225 2.013 3.33 4.14 5.813 5.954 3.588-.236 6.35.436 8.063.853l31.898 7.766-2.086 8.57-37.42-9.1c-2.285-.556-5.834-1.723-7.358-2.094-1.238-.3-2.6 2.393-2.904 3.227 2.24 1.15 4.318 2.564 3.646 5.326L648.016 152c-.88 3.618.367 5.536 2.938 6.162zm200.28 5.72c1.788-.052 4.653-.716 5.654-1.212.73-.344.8-.958.736-1.843-.258-3.345-.928-10.305-1.723-14.343l-6.525-33.174 15.962-3.14c.218-1.94.265-4.746.038-5.9s-.746-1.252-2.092-.987c-.962.2-6.927 2.36-10.677 3.1l-4.423.87-6.525-33.174c-.15-.77-.612-1.078-1.745-1.255-2.997-.5-9.78-.473-12.762.113-.385.076-.75.247-.944.785-.27.653-.508 2.497-.57 3.708 2.806.047 5.82.653 7.146 1.3s1.88.93 2.164 2.37l16.285 82.792zm-64.04-17.866c.883.426 1.633.178 2.193-.53 4.475-5.175 10.877-17.82 15.373-29.492 8.857 6.947 17.158 13.604 25.784 20.897 1.312-1.457 3.126-3.9 4.015-5.484.445-.787.408-1.48-.397-2.02-8.976-6.025-17.5-12.24-27.096-19.44 2.406-7.065 3.8-13.134 3.222-16.115-.246-1.25-.667-1.866-1.55-2.292-3.186-1.47-10.62-2.206-12.737-1.8-.288.057-.462.2-.694.536-.445.787-.987 2.092-1.356 3.263 3.63.684 6.856 1.848 7.272 3.963 1.816 9.23-11.185 36.06-18.23 45.935 1.534 1.196 3.318 2.144 4.2 2.57zm162.153-49.68c1.696-.57 4.245-2.036 5.06-2.8.6-.54.497-1.152.17-1.977-1.218-3.126-3.88-9.6-5.812-13.225l-23.2-43.6c-.368-.692-.898-.854-2.034-.694-3.015.383-9.497 2.387-12.18 3.813-.346.184-.646.455-.676 1.025-.07.703.147 2.364.44 3.54 2.7-.77 5.76-1.065 7.213-.84s2.07.343 2.76 1.64l9.065 17.046-4.845 2.577c-3.375 1.795-9.234 4.134-10.1 4.594-1.2.644-1.552 1.047-1 2.086s2.36 3.185 3.753 4.553l15.23-8.1 16.15 30.37zm-58.28 16.896c3.9-7.07 8.576-18.103 11.94-29.103l25.402 7.692c1.23-1.653 2.524-4.228 3.05-5.95.162-.53-.12-1.268-.736-1.384-8.64-1.843-17.284-3.906-26.06-6 2.085-7.768 3.344-15.2 3.12-20.64-.112-2.715-1.857-4.118-3.934-3.014-1.298.7-6.26 3.884-8 4.804l-15.056 8.007c-3.375 1.795-7.228 3.733-10.838 4.876-.1.836-.102 2.94.13 3.373.184.346.582.468.847.55 2.075.562 5.5.74 8.168.54 1.836-1.975 3.336-3.328 5.672-4.57l14.97-7.96c-.476 12.463-8.545 35.068-15.063 47.858 1.33.624 3.636 1.618 4.385 1.775.882.197 1.533-.04 1.996-.84zm37.5 18.13l40.148-21.35c-.3-1.834-1.44-5.006-1.947-5.957-.552-1.038-1.077-.98-2.288-.337-.865.46-6.935 4.9-10.223 6.658l-26.56 14.123-9.94-18.7c-.368-.692-.944-.94-2.08-.78-2.883.423-7.912 2.654-10.595 4.08-.346.184-.646.455-.676 1.025.017.657.4 2.007.913 3.177 2.255-.977 4.354-1.205 5.674-1.02 1.055.105 1.55.62 2.24 1.917l7.684 14.45c1.84 3.46 4.018 4.634 7.652 2.7z" fill-rule="nonzero"/></g></svg>