<?xml version="1.0" encoding="UTF-8" standalone="no"?>
<!DOCTYPE svg PUBLIC "-//W3C//DTD SVG 1.1//EN" "http://www.w3.org/Graphics/SVG/1.1/DTD/svg11.dtd">
<svg width="100%" height="100%" viewBox="0 0 400 100" version="1.1" xmlns="http://www.w3.org/2000/svg" xmlns:xlink="http://www.w3.org/1999/xlink" xml:space="preserve" xmlns:serif="http://www.serif.com/" style="fill-rule:evenodd;clip-rule:evenodd;stroke-linecap:round;stroke-linejoin:round;stroke-miterlimit:1.5;">
    <g transform="matrix(0.132046,0,0,0.132046,-275.898,-181.837)">
        <path d="M2289.38,1553.11C2289.38,1553.11 2292.98,1574.84 2295.55,1603.89" style="fill:none;stroke:black;stroke-width:31.55px;"/>
    </g>
    <g transform="matrix(0.138417,0,0,0.125615,-215.341,-148.706)">
        <path d="M1824.42,1568.64C1824.42,1531.91 1794.6,1502.1 1757.88,1502.1L1735.13,1502.1C1698.4,1502.1 1668.59,1531.91 1668.59,1568.64C1668.59,1605.37 1698.4,1635.18 1735.13,1635.18L1757.88,1635.18C1794.6,1635.18 1824.42,1605.37 1824.42,1568.64Z" style="fill:none;stroke:black;stroke-width:31.52px;"/>
    </g>
    <g transform="matrix(0.113461,0,0,0.113461,-234.97,-149.014)">
        <path d="M2555.2,1518.19L2555.2,1842.53" style="fill:none;stroke:black;stroke-width:36.72px;"/>
    </g>
    <g transform="matrix(0.113461,0,0,0.113461,-231.778,-165.71)">
        <path d="M2142.87,1724.47L2408.16,1724.47" style="fill:none;stroke:black;stroke-width:36.72px;"/>
    </g>
    <g transform="matrix(0.113461,0,0,0.113461,-36.6926,-181.98)">
        <path d="M482.378,2192.03C482.378,2232.68 471.655,2280.67 551.585,2280.43L835.645,2280.43" style="fill:none;stroke:black;stroke-width:36.72px;"/>
    </g>
    <g transform="matrix(0.113461,0,0,0.113461,-27.4323,-152.336)">
        <path d="M726.04,1724.47L813.8,1724.47" style="fill:none;stroke:black;stroke-width:36.72px;"/>
    </g>
    <g transform="matrix(0.167914,0,0,-0.167914,-121.496,319.866)">
        <path d="M2289.38,1553.11C2289.38,1553.11 2292.98,1574.84 2295.55,1603.89" style="fill:none;stroke:black;stroke-width:24.81px;"/>
    </g>
    <g transform="matrix(0.138417,0,0,0.125615,21.1762,-165.445)">
        <path d="M1824.42,1568.64C1824.42,1531.91 1794.6,1502.1 1757.88,1502.1L1735.13,1502.1C1698.4,1502.1 1668.59,1531.91 1668.59,1568.64C1668.59,1605.37 1698.4,1635.18 1735.13,1635.18L1757.88,1635.18C1794.6,1635.18 1824.42,1605.37 1824.42,1568.64Z" style="fill:none;stroke:black;stroke-width:31.52px;"/>
    </g>
    <g transform="matrix(0.113461,0,0,0.113461,198.954,-181.98)">
        <path d="M482.378,2192.03C482.378,2232.68 471.655,2280.67 551.585,2280.43L835.645,2280.43" style="fill:none;stroke:black;stroke-width:36.72px;"/>
    </g>
    <g transform="matrix(0.113461,0,0,0.113461,2.37791,-149.014)">
        <path d="M2555.2,1518.19L2555.2,1872.19" style="fill:none;stroke:black;stroke-width:36.72px;"/>
    </g>
    <g transform="matrix(0.113461,0,0,0.113461,199.935,-138.281)">
        <path d="M726.04,1724.47L813.8,1724.47" style="fill:none;stroke:black;stroke-width:36.72px;"/>
    </g>
    <g transform="matrix(0.113461,0,0,0.113461,-59.8431,-148.992)">
        <path d="M2703.12,1753.94C2845.41,1760.9 2927.01,1766.21 2998.72,1724.47" style="fill:none;stroke:black;stroke-width:36.72px;"/>
    </g>
    <g transform="matrix(0.173765,0,0,0.168083,-145.561,-229.091)">
        <path d="M1824.42,1568.64C1824.42,1531.91 1794.6,1502.1 1757.88,1502.1L1735.13,1502.1C1698.4,1502.1 1668.59,1531.91 1668.59,1568.64C1668.59,1605.37 1698.4,1635.18 1735.13,1635.18L1757.88,1635.18C1794.6,1635.18 1824.42,1605.37 1824.42,1568.64Z" style="fill:none;stroke:black;stroke-width:24.37px;"/>
    </g>
    <g transform="matrix(0.113461,0,0,0.113461,-45.8206,-149.203)">
        <path d="M1736.22,1991.09C1736.22,1862.33 1745.24,1793.49 1663.19,1790.81C1600.94,1788.78 1567.65,1753.84 1564.35,1718.29" style="fill:none;stroke:black;stroke-width:36.72px;"/>
    </g>
    <g transform="matrix(-0.113461,0,0,0.113461,361.661,-149.151)">
        <path d="M1736.76,1991.09C1736.76,1862.33 1745.24,1793.49 1663.19,1790.81C1600.94,1788.78 1567.65,1759.84 1564.35,1724.29" style="fill:none;stroke:black;stroke-width:36.72px;"/>
    </g>
    <g transform="matrix(0.113461,0,0,0.113461,-53.0782,-149.568)">
        <path d="M2289.38,1553.11C2289.38,1553.11 2308.91,1670.79 2289.38,1724.47C2269.72,1778.49 2171.6,1875.79 2171.44,1877.27" style="fill:none;stroke:black;stroke-width:36.72px;"/>
    </g>
    <g transform="matrix(-0.113461,0,0,0.113461,466.598,-149.568)">
        <path d="M2290.86,1724.47L2173.04,1877.27" style="fill:none;stroke:black;stroke-width:36.72px;"/>
    </g>
    <g transform="matrix(0.113461,0,0,0.113461,-56.4968,-148.992)">
        <path d="M2555.2,1518.19L2555.2,1960.22" style="fill:none;stroke:black;stroke-width:36.72px;"/>
    </g>
    <g transform="matrix(0.113461,0,0,0.113461,-53.1885,-162.323)">
        <path d="M2172.41,1724.47L2408.16,1724.47" style="fill:none;stroke:black;stroke-width:36.72px;"/>
    </g>
    <g transform="matrix(0.113461,0,0,0.113461,-172.361,-148.992)">
        <path d="M2555.2,1518.19L2555.2,1960.22" style="fill:none;stroke:black;stroke-width:36.72px;"/>
    </g>
    <g transform="matrix(0.113459,0,0,0.103146,-35.0422,-129.724)">
        <rect x="991.31" y="1548.04" width="202.433" height="324.155" style="fill:none;stroke:black;stroke-width:38.43px;"/>
    </g>
</svg>
