<svg xmlns="http://www.w3.org/2000/svg" width="595.28" height="841.89" xmlns:v="https://vecta.io/nano"><path d="M479.493 712.9h-9.75c-19.2-1.538-38.93-2.563-59.242-3 3.298-51.694 10.375-99.6 13.498-151.48-38.07-18.173-66.1-46.387-101.237-67.5-3.7 4.047-6.333 9.164-8.998 14.248.85-6.156 4.93-15.564 6-23.997-8.3-10.207-35.46-1.536-47.994-7.5l-26.997 90.738c-32.276 7.22-59.96 19.03-84.74 33.746 3.286 8.463 6.96 16.536 10.5 24.747 4.614.364 7.165-1.334 12-.75-4.302 1.696-9.746 2.252-14.998 3-21.835 11.548.6 48.458-10.5 67.492-5.722-.778-10.565-2.435-16.498-3-4.285-8.187-9.378-19.68-13.498-32.996-3.476-11.233-9.83-28.938-6.75-39.745 1.5-5.222 8.43-6.896 12.75-10.498v11.998c2.474 1.276 6.836.663 9 2.25 9.63 11.875-8.736 22.2-7.5 33.746.842 7.872 11.92 13.97 19.498 5.25-.008-5.74-5.667-5.833-6.75-10.5h6c-7.84-8.908 2.754-17.788 7.5-23.247-6.3-7.198-1.752-25.245-16.498-23.997 25.102-19.643 61.203-28.286 90.74-43.494 14.4-42.103 24.968-88.02 40.495-128.983-2.178-5.753-16.342 2.008-23.997 5.25-48.85 20.683-99.323 47.786-146.23 68.24 5.534-6.714 14.216-10.28 20.998-15.748-10.688-2.773-15.667 6.2-25.497 6.75 44.625-26.753 104.217-46.9 153.73-72.74 13.636-7.116 25.557-10.615 27.746-27.746-12.53-4.958-22.068 5.193-30.746 9-.138-13.36-5.347-21.65-9.75-30.746 1.875-8.56 7.062-17.983 9-27.747 1.893-9.542-3-20.528 4.5-26.997 24.906-2.625 47.64 3.33 66.742 9-.67 6.83-10.6 4.4-16.498 6-7.044 20.203-10.93 43.563-13.5 68.24 21.395-3.102 33.066-15.928 56.993-16.498 7.334-9.458-.878-22.973 0-35.246 1.63 3.12 2.16 7.34 3.75 10.5 7.628 6.626 16.266 12.035 15.747 23.247-.483 10.48-12.884 18.583-8.998 32.246-2.56-4.314-6.22-11.24-12.75-12-12.12-1.407-22.042 12.032-35.245 14.25-3.882.65-9.343-.702-12.748 0-20.94 4.313-16.305 35.32-20.998 50.994 32.364-3.338 63.377 10.572 95.238 3l97.487 74.24c.3 49.302-13.98 84.006-19.497 127.483 9.46 2.098 15.7 10.028 24.747 7.5 3.567-.996 5.665-5.785 9.748-6.75 7.026-1.658 11 .97 18.748 3-5.183 15.316-9.354 31.642-24.75 36.745zm-221.97-332.96c11.235-2.513 20.764-6.732 31.496-9.75 1.838-12.412 12.34-31.375 3-41.995-7.017-7.98-23.023-1.826-33.746-6.75 5.568 17.263-9.567 40.622-.75 58.494zm0 13.5c12.734-3.514 25.307-7.2 31.496-17.248-10.972 5.277-26.945 5.55-31.496 17.248zm40.494 16.497c15.1-2.658 31.88-7.614 37.496-17.248-11.74 6.5-26.8 9.687-37.496 17.248zm0-272.965h3.75c.095 5.404 1.987 9 6 10.5 8.03-9.543 18.092 4.598 26.997 0 .06 17.312 28.265 10.583 29.246 24.747.44 6.35-8.54 11.488-6.75 20.248 1.116 5.46 5.725 7.95 11.998 11.25-6.865 6.882-11.87 15.625-12.748 28.496-1.47-8.697-1.407-20.13-1.5-31.496s-3.582-21.406-15.748-20.247c-5.027-7.35 2.325-14.917.75-22.497-4.4-1.658-11.766-3.305-17.248-1.5-.388 14.44-9.178 34.432-7.5 49.494 1.052 9.428 11.136 12.186 10.5 21.748-16.77-.773-17.746 14.25-17.248 30.746 12.203-6.7 33.433 7.52 41.995-4.5-1.06 6.944-10.076 12.417-21.747 11.25v13.498c-3.28-4.468-5.198-10.3-9.75-13.498-7.334 11.632-.563 27.645 9 31.496-20.17 1.393-41.718-13.25-62.242-15.748-32.67-3.978-28.28 31.985-29.997 59.242-1.446 22.95-11.04 33.742-21.747 46.494-.928 2.5 3.896 5.314 0 6 2.357 1.142 5.58 1.42 7.5 3 1.974 2.526.887 8.112 2.25 11.25 2.505-5 17.2-1.8 17.998-6 4.24 2 5.672 6.826 6 12.748 2.153-1.597 2.696-4.803 3-8.25 1.712 2.355-1.418 12.475-5.25 14.248-11.098-6.453-17.17 1.202-23.997 6.75-3.772-.228-5.6-2.4-9-3-3.45-.198-3.793 2.706-6 3.75-38.44 9.054-75.874 19.114-110.236 32.246-.076-1.178.4-5.385-4.5-3.75 27.24-20.754 65.973-30.015 98.987-44.994.184-3.184-1.96-4.038-1.5-7.5 2.256-3.493 6.147-5.352 10.5-6.75 2.376-13.715 19.3-21.74 21.747-36.746.56-3.412-.422-7.168 0-10.5 1.3-10.338 5.5-20.958 7.5-31.496 2.095-11 4.442-21.628 6-32.996 16.716-23.557 54.505 14.593 70.5-8.25-1.77-5.695 1.198-5.5 3-9-3.318-7.662-20.285 2.863-22.497-6-6.628 8.578-15.896-1.167-23.247-3 10.4-4.042 9.07-27.22 2.25-34.496-.423-5.362 2.003-10.378 0-14.998-3.914-2.335-11.702-.796-14.248-4.5-4.34 1.9-8 4.507-12.75 6-9.405-15.764 1.657-25.024 9.75-35.246 12.565-15.874 28.304-35.477 50.243-38.246zm-92.988 283.464c.85-3.914 6.066-7.414 5.25-10.5-1.3 3.465-6.264 7.217-5.25 10.5zm-66.74 16.498c-5.615 2.912-11.82 6.566-14.25 10.498 20.714-9.15 49.924-13.798 69.74-23.247 2.263-1.078 6.467-1.92 6-4.5-22.896 3.25-44.638 8.504-61.492 17.248zm194.974-145.482c9.016 2.485 21.917 7.577 32.996 10.5 8.87-30.165 32.836-55.534 29.246-94.488-.827-8.975-1.306-14.25 6.75-19.498 3.138.862 4.233 3.766 7.5 4.5 9.015-3.34 16.976-18.686 24.747-4.5 2.93-2.217 6.753-7.043 10.5-6 2.247 9.07-11.052 8.892-7.5 21.748 4.573-2.18 7.94-12.052 16.497-12.75v15.748c-.32 2.104 2.796-1.88 3 .75v7.5c-50.114 16.877-54.867 79.115-66.74 134.233-13.653-5.345-26.475-11.52-40.495-16.498-2.356 1.144-1.248 5.75-1.5 9-7.806-13.94-8.745-34.748-14.998-50.243zM199.03 618.42c27.027-10.47 48.35-26.64 79.5-32.996 3.6-15.887 10.62-31.472 17.998-44.994.412-.756.43-4.902 2.25-3-7.696 16.05-13.32 34.176-20.248 50.993-24.5 11.996-50.258 22.733-79.5 29.996z"/></svg>