<svg id="svg-path" width="100%" height="100%" viewBox="0 0 512 512" version="1.1" xmlns="http://www.w3.org/2000/svg" style="fill-rule:evenodd;clip-rule:evenodd;stroke-linejoin:round;stroke-miterlimit:2;">
                        <path d="M214.639 84.406 C 207.037 86.762,201.616 94.184,197.041 108.500 C 193.835 118.531,189.001 130.636,185.683 136.939 C 182.701 142.604,176.002 161.299,175.998 163.967 C 175.997 164.810,174.704 167.975,173.125 171.000 C 168.106 180.616,164.654 196.991,160.511 230.842 C 158.242 249.378,158.424 252.427,162.148 258.230 L 165.295 263.135 164.012 269.937 C 161.873 281.274,164.458 289.433,170.552 290.576 C 176.184 291.632,176.996 293.102,177.034 302.321 C 177.053 306.820,177.667 315.585,178.400 321.800 C 179.498 331.123,179.503 334.184,178.427 339.300 C 177.514 343.642,177.406 346.774,178.066 349.752 C 178.667 352.460,178.653 355.546,178.029 358.252 C 176.748 363.804,176.757 394.008,178.043 405.500 C 178.597 410.450,179.466 419.450,179.975 425.500 C 181.083 438.683,183.731 453.448,185.673 457.280 C 187.066 460.027,187.185 460.057,195.791 459.849 C 200.581 459.733,206.784 460.235,209.575 460.964 C 216.488 462.768,221.219 461.701,226.183 457.216 C 230.185 453.600,240.000 440.026,240.000 438.106 C 240.000 437.565,241.800 435.042,244.000 432.500 C 246.200 429.958,248.002 427.568,248.004 427.189 C 248.006 426.810,248.673 422.450,249.486 417.500 C 250.300 412.550,250.973 406.459,250.983 403.965 C 250.992 401.471,252.007 396.746,253.239 393.465 C 255.589 387.202,255.608 386.595,254.786 345.250 C 254.632 337.509,257.310 310.925,258.426 309.120 C 258.659 308.742,259.089 303.273,259.381 296.967 C 259.673 290.660,260.589 281.000,261.415 275.500 C 262.241 270.000,262.985 258.300,263.068 249.500 C 263.150 240.700,263.632 232.105,264.137 230.399 C 265.259 226.617,273.002 220.718,276.237 221.182 C 277.764 221.401,279.630 223.527,282.220 228.000 C 284.362 231.698,289.334 237.733,293.755 242.000 C 299.869 247.902,302.341 251.193,305.357 257.448 C 307.465 261.819,310.714 267.255,312.576 269.527 C 316.502 274.318,319.545 280.804,320.541 286.500 C 321.054 289.430,322.479 291.708,325.870 295.016 C 328.417 297.500,331.369 301.173,332.431 303.179 C 334.128 306.385,334.226 307.471,333.243 312.163 C 330.993 322.909,330.021 333.902,329.763 351.519 C 329.509 368.920,329.578 369.637,331.762 372.420 C 333.783 374.993,333.956 376.008,333.377 381.901 C 333.021 385.530,332.325 389.288,331.829 390.251 C 330.698 392.450,328.798 418.309,329.612 420.431 C 329.966 421.353,331.399 422.000,333.088 422.000 C 335.409 422.000,336.079 421.471,336.569 419.250 C 336.903 417.738,338.029 413.800,339.072 410.500 C 340.114 407.200,341.219 401.125,341.527 397.000 C 342.913 378.462,344.984 374.493,353.033 374.955 C 360.448 375.379,364.488 375.289,373.090 374.507 C 379.375 373.935,384.338 374.152,391.590 375.315 C 397.040 376.190,406.372 377.208,412.327 377.577 L 423.154 378.249 422.672 384.875 C 422.407 388.519,421.664 394.425,421.022 398.000 C 419.720 405.249,420.454 421.637,422.174 423.710 C 423.715 425.566,428.421 425.298,430.275 423.249 C 431.596 421.788,431.938 417.587,432.329 397.999 C 432.587 385.074,433.025 368.200,433.303 360.500 C 434.087 338.778,431.662 317.912,427.813 313.275 C 427.231 312.574,424.898 311.993,422.628 311.985 C 416.551 311.964,413.790 310.150,412.003 305.007 C 410.483 300.636,408.673 298.938,401.122 294.803 C 398.447 293.339,396.328 290.633,391.476 282.488 C 390.132 280.233,382.466 280.200,375.000 282.417 C 367.640 284.602,360.000 290.222,360.000 293.451 C 360.000 294.788,360.444 296.156,360.987 296.492 C 361.530 296.827,362.676 299.517,363.534 302.470 C 364.842 306.969,365.596 308.012,368.197 308.919 C 374.997 311.289,382.000 309.048,382.000 304.500 C 382.000 302.595,383.957 302.581,386.649 304.467 C 387.947 305.376,390.651 305.851,393.766 305.717 C 400.249 305.437,403.000 307.653,403.000 313.155 C 403.000 318.053,400.825 320.262,392.174 324.154 C 386.432 326.736,384.765 327.065,380.240 326.504 C 374.246 325.763,371.596 323.879,365.108 315.747 C 361.410 311.114,359.641 309.847,353.619 307.521 C 341.404 302.803,337.871 299.054,336.634 289.500 C 336.082 285.240,335.322 283.887,331.493 280.358 C 326.421 275.683,326.198 274.465,328.500 264.000 C 331.395 250.839,330.353 248.114,321.396 245.419 C 318.761 244.625,315.528 242.969,314.213 241.738 C 311.882 239.557,311.840 239.228,312.523 228.715 C 313.219 217.992,313.207 217.906,310.389 213.840 C 308.231 210.726,307.406 208.127,306.931 202.952 C 306.443 197.618,305.737 195.476,303.654 193.001 C 302.194 191.266,301.000 188.816,301.000 187.556 C 301.000 184.663,295.508 167.492,293.306 163.500 C 289.865 157.263,284.664 152.029,277.937 148.032 C 268.521 142.438,267.598 140.851,268.466 131.753 C 269.582 120.070,269.310 114.700,267.536 113.403 C 266.614 112.728,264.090 112.461,261.455 112.758 C 255.810 113.394,253.807 111.774,250.002 103.489 C 246.628 96.141,240.160 89.937,231.701 85.935 C 225.105 82.814,220.971 82.444,214.639 84.406 M357.864 322.461 C 370.269 334.582,380.124 338.586,391.154 335.985 C 399.452 334.028,404.534 331.242,410.482 325.388 C 416.432 319.532,419.480 318.663,422.470 321.967 C 424.161 323.835,424.174 324.957,422.731 344.172 C 421.325 362.905,421.047 364.543,418.995 366.205 C 416.191 368.475,407.833 368.572,391.958 366.517 C 378.199 364.735,367.898 364.427,354.500 365.394 C 346.941 365.940,343.890 365.791,342.000 364.783 C 338.329 362.826,337.341 357.572,338.881 348.191 C 339.575 343.961,340.516 337.800,340.971 334.500 C 342.163 325.872,344.074 317.698,345.239 316.250 C 347.327 313.655,350.399 315.167,357.864 322.461 M219.524 341.750 C 219.834 343.262,221.054 348.325,222.236 353.000 C 224.140 360.532,224.388 364.291,224.412 386.000 C 224.444 416.077,223.464 428.541,220.796 431.963 C 217.896 435.685,208.801 441.931,206.229 441.968 C 204.765 441.989,203.557 441.122,202.832 439.531 C 201.721 437.093,202.077 435.240,206.081 422.601 C 206.587 421.006,207.003 413.806,207.008 406.601 C 207.012 399.395,207.492 390.575,208.074 387.000 C 208.657 383.425,209.544 376.450,210.047 371.500 C 211.992 352.329,215.070 339.000,217.552 339.000 C 218.327 339.000,219.215 340.238,219.524 341.750 " style="stroke: none; fill: black;">
                    </path></svg>