<svg id="svg-path" width="100%" height="100%" viewBox="0 0 512 512" version="1.1" xmlns="http://www.w3.org/2000/svg" style="fill-rule:evenodd;clip-rule:evenodd;stroke-linejoin:round;stroke-miterlimit:2;">
                        <path d="M302.500 162.983 C 294.024 166.576,290.409 167.146,258.000 170.000 C 215.730 173.722,203.867 175.034,201.589 176.235 C 200.537 176.790,196.937 177.848,193.589 178.587 C 190.240 179.327,182.775 181.104,177.000 182.536 C 171.225 183.968,162.225 185.995,157.000 187.039 C 151.775 188.084,144.237 189.703,140.248 190.637 C 134.141 192.068,132.608 192.128,130.541 191.022 C 126.284 188.744,112.661 192.350,107.405 197.146 C 104.754 199.565,98.068 203.000,96.011 203.000 C 95.150 203.000,93.498 203.663,92.341 204.474 C 91.183 205.285,88.719 205.891,86.864 205.821 C 83.016 205.677,77.000 208.424,77.000 210.326 C 77.000 213.191,79.116 213.870,83.365 212.371 C 85.639 211.568,88.945 210.681,90.711 210.400 C 94.441 209.807,106.491 204.640,113.000 200.844 C 119.441 197.088,127.513 195.215,130.154 196.864 C 132.472 198.311,136.886 197.555,150.500 193.380 C 154.900 192.030,161.073 190.518,164.217 190.021 C 167.361 189.523,174.891 187.740,180.950 186.058 C 187.010 184.376,192.762 182.995,193.734 182.988 C 194.705 182.982,199.063 182.102,203.417 181.033 C 207.772 179.964,211.680 179.302,212.101 179.563 C 212.523 179.823,216.835 179.568,221.684 178.996 C 226.533 178.424,234.044 177.716,238.376 177.424 C 242.707 177.132,248.332 176.422,250.876 175.848 C 253.419 175.273,260.675 174.451,267.000 174.021 C 279.717 173.157,294.877 171.195,296.472 170.207 C 297.037 169.857,300.875 169.039,305.000 168.391 C 313.139 167.111,315.822 167.784,320.819 172.357 C 322.950 174.306,324.218 174.473,336.405 174.400 C 343.701 174.357,350.260 173.957,350.980 173.513 C 353.497 171.957,399.758 173.265,402.968 174.983 C 403.830 175.444,408.353 176.109,413.018 176.460 C 428.572 177.630,432.000 179.463,432.000 186.611 C 432.000 187.995,433.062 191.462,434.360 194.314 C 435.657 197.166,437.020 201.540,437.388 204.033 C 437.756 206.525,438.868 209.900,439.859 211.533 C 440.851 213.165,441.971 215.738,442.350 217.250 C 442.728 218.762,443.480 220.000,444.019 220.000 C 444.559 220.000,445.000 220.675,445.000 221.500 C 445.000 222.325,444.550 223.000,444.001 223.000 C 443.407 223.000,443.091 225.940,443.221 230.250 C 443.393 235.915,442.937 238.703,441.136 243.000 C 439.868 246.025,438.564 249.393,438.238 250.484 C 437.614 252.569,427.913 266.037,424.096 270.117 C 422.870 271.428,421.016 273.873,419.975 275.551 C 418.935 277.228,416.078 280.041,413.627 281.801 C 407.544 286.170,393.000 305.157,393.000 308.731 C 393.000 309.311,392.365 310.030,391.588 310.328 C 390.812 310.626,389.597 312.472,388.889 314.431 C 387.505 318.258,385.044 319.683,382.386 318.196 C 381.278 317.576,379.203 317.829,376.100 318.963 C 373.553 319.894,371.002 320.501,370.431 320.310 C 369.860 320.120,366.042 323.338,361.946 327.462 C 357.851 331.585,354.007 334.968,353.405 334.979 C 352.803 334.991,351.545 335.846,350.609 336.880 C 348.036 339.723,342.538 340.336,318.500 340.463 C 304.972 340.534,295.730 340.991,294.500 341.651 C 292.612 342.664,281.785 341.767,268.376 339.486 C 265.716 339.034,264.008 339.178,263.567 339.892 C 262.633 341.403,258.463 341.285,254.651 339.641 C 247.724 336.652,245.830 336.000,244.075 336.000 C 243.069 336.000,241.724 335.372,241.087 334.605 C 240.450 333.837,238.257 332.897,236.214 332.515 C 234.171 332.133,232.048 331.448,231.495 330.992 C 230.943 330.536,226.683 329.641,222.028 329.004 C 217.373 328.367,212.033 327.205,210.160 326.423 C 208.288 325.640,206.023 324.997,205.128 324.994 C 204.233 324.990,202.293 324.358,200.817 323.588 C 199.342 322.818,196.657 321.864,194.850 321.467 C 193.044 321.070,190.876 320.362,190.033 319.894 C 186.700 318.042,175.573 314.013,172.137 313.414 C 155.654 310.541,129.846 298.249,117.995 287.627 C 114.849 284.807,110.750 281.379,108.887 280.009 C 107.024 278.640,102.800 275.030,99.500 271.987 C 83.983 257.682,82.870 256.801,80.953 257.302 C 76.265 258.528,64.279 245.102,55.951 229.296 C 55.022 227.533,52.823 224.880,51.063 223.400 C 48.146 220.945,47.725 220.847,46.282 222.290 C 44.839 223.732,45.109 224.472,49.352 230.686 C 51.911 234.434,54.004 238.251,54.002 239.169 C 54.001 240.088,58.658 245.600,64.352 251.419 C 72.203 259.444,75.327 262.000,77.281 262.000 C 78.698 262.000,80.452 262.563,81.179 263.250 C 81.905 263.938,85.650 267.064,89.500 270.198 C 93.350 273.331,97.625 276.946,99.000 278.231 C 100.375 279.515,103.158 281.582,105.183 282.823 C 107.209 284.065,111.088 287.550,113.802 290.568 C 116.516 293.585,120.708 297.001,123.118 298.158 C 125.528 299.315,129.075 301.490,131.000 302.990 C 132.925 304.490,136.300 306.284,138.500 306.978 C 140.700 307.671,144.761 309.510,147.525 311.064 C 152.097 313.634,169.886 318.997,173.859 319.002 C 174.762 319.003,178.200 320.431,181.500 322.175 C 188.030 325.626,195.532 327.919,212.500 331.649 C 236.790 336.989,241.603 338.236,244.000 339.815 C 245.375 340.720,248.075 342.094,250.000 342.867 C 253.709 344.356,279.565 346.325,294.000 346.216 C 298.675 346.181,311.165 346.115,321.757 346.069 C 335.578 346.009,342.173 345.586,345.124 344.569 C 347.385 343.790,349.842 343.386,350.584 343.671 C 351.381 343.976,355.018 340.929,359.457 336.239 C 363.594 331.866,368.985 327.225,371.437 325.924 C 375.355 323.846,376.385 323.690,379.930 324.636 C 383.111 325.485,384.385 325.419,385.950 324.322 C 388.571 322.486,396.605 312.000,398.174 308.368 C 400.079 303.956,404.516 298.461,415.466 286.957 C 428.763 272.986,437.810 260.973,441.087 252.937 C 442.559 249.328,445.133 244.173,446.808 241.483 C 448.969 238.011,449.597 236.115,448.973 234.949 C 448.428 233.932,448.508 232.892,449.183 232.217 C 449.968 231.432,449.843 229.786,448.733 226.314 C 447.887 223.666,446.899 219.475,446.539 217.000 C 445.887 212.520,442.436 201.020,438.887 191.500 C 437.438 187.615,437.161 185.029,437.642 179.905 L 438.260 173.309 430.380 172.657 C 399.568 170.108,368.775 168.856,351.250 169.440 C 331.481 170.097,324.436 169.300,323.275 166.273 C 321.955 162.834,308.048 160.631,302.500 162.983 M317.635 206.327 C 314.176 209.998,301.999 217.000,299.073 217.000 C 298.050 217.000,296.977 217.618,296.687 218.373 C 296.397 219.129,292.672 221.199,288.408 222.974 C 284.144 224.749,279.987 226.871,279.168 227.689 C 278.350 228.507,275.964 230.260,273.866 231.585 C 268.584 234.919,266.519 238.232,267.998 240.997 C 269.420 243.653,268.076 245.524,263.319 247.511 C 261.482 248.279,257.578 251.178,254.643 253.953 C 248.649 259.622,245.394 260.420,244.401 256.463 C 244.051 255.068,244.039 252.556,244.374 250.881 C 245.137 247.064,243.568 244.000,240.849 244.000 C 239.698 244.000,237.136 245.787,235.113 248.000 C 232.660 250.683,230.609 252.000,228.883 252.000 C 226.358 252.000,223.000 249.331,223.000 247.325 C 223.000 246.765,221.445 244.706,219.545 242.749 C 215.875 238.970,215.394 238.830,199.647 236.966 C 192.377 236.106,189.600 235.241,184.113 232.132 C 180.438 230.050,175.335 227.818,172.773 227.173 C 166.363 225.559,153.972 225.693,149.872 227.422 C 142.499 230.530,134.000 240.352,134.000 245.766 C 134.000 246.781,132.875 249.136,131.500 251.000 C 127.305 256.686,128.162 260.269,136.372 271.370 C 139.703 275.875,143.107 279.297,145.282 280.330 C 149.948 282.544,166.507 282.651,171.654 280.500 C 173.629 279.675,176.526 279.000,178.094 279.000 C 181.839 279.000,190.520 282.943,195.355 286.841 C 199.918 290.519,204.234 291.529,209.591 290.173 C 211.741 289.628,215.598 288.895,218.161 288.543 C 223.474 287.815,224.560 288.719,224.146 293.528 C 223.793 297.630,226.708 300.247,231.156 299.820 C 234.483 299.502,234.499 299.475,234.377 294.445 C 234.266 289.896,234.534 289.230,237.061 287.780 C 238.605 286.893,241.029 284.331,242.447 282.084 C 245.441 277.341,246.199 277.128,248.358 280.424 C 249.232 281.757,250.971 283.173,252.223 283.570 C 255.128 284.491,264.756 294.228,266.002 297.506 C 267.559 301.600,272.378 300.933,276.887 296.000 C 278.898 293.800,281.177 292.000,281.951 292.000 C 282.725 292.000,284.740 291.576,286.429 291.057 C 288.118 290.538,292.550 289.360,296.278 288.438 C 303.844 286.568,304.119 286.262,307.408 276.039 C 309.291 270.185,309.949 269.287,314.000 267.030 C 318.240 264.668,319.239 264.539,331.290 264.794 C 345.971 265.106,347.420 264.605,352.828 257.345 C 354.658 254.888,356.795 252.632,357.575 252.333 C 358.356 252.033,360.586 253.186,362.532 254.894 C 366.731 258.580,368.353 258.762,370.443 255.777 C 372.709 252.542,372.359 248.992,369.333 244.540 C 366.286 240.056,365.913 235.944,368.333 233.524 C 370.619 231.239,370.426 229.517,367.566 226.657 C 366.228 225.319,364.828 222.598,364.455 220.612 C 364.082 218.625,363.377 217.000,362.889 217.000 C 360.626 217.000,358.000 212.810,358.000 209.200 C 358.000 207.110,357.460 204.860,356.800 204.200 C 355.959 203.359,350.397 203.000,338.185 203.000 L 320.770 203.000 317.635 206.327 M69.000 215.599 C 55.839 219.468,54.000 220.340,54.000 222.704 C 54.000 225.546,54.949 225.540,66.000 222.631 C 73.322 220.704,74.546 220.074,74.835 218.082 C 75.327 214.678,74.022 214.122,69.000 215.599 " style="stroke: none; fill: black;">
                    </path></svg>