<svg id="svg-path" width="100%" height="100%" viewBox="0 0 512 512" version="1.1" xmlns="http://www.w3.org/2000/svg" style="fill-rule:evenodd;clip-rule:evenodd;stroke-linejoin:round;stroke-miterlimit:2;">
                        <path d="M127.000 101.725 C 126.175 102.036,123.882 104.026,121.904 106.146 C 119.926 108.266,117.676 110.014,116.904 110.031 C 114.178 110.092,111.938 114.838,111.380 121.736 C 111.079 125.456,109.970 130.608,108.916 133.185 C 106.484 139.132,106.502 142.103,109.000 147.000 C 110.100 149.156,111.000 151.543,111.000 152.304 C 111.000 153.064,108.750 155.584,106.000 157.903 C 103.250 160.222,101.000 162.536,101.000 163.045 C 101.000 163.554,99.594 166.255,97.875 169.049 C 96.156 171.842,92.863 178.757,90.558 184.414 C 88.252 190.071,84.488 197.512,82.194 200.948 C 78.170 206.973,77.538 208.585,74.918 219.500 C 72.545 229.384,66.886 239.874,59.753 247.605 C 57.615 249.923,56.674 252.232,56.039 256.721 C 55.572 260.027,54.423 264.215,53.486 266.027 C 51.199 270.450,51.830 279.952,54.665 283.763 C 60.160 291.150,69.060 285.913,72.312 273.380 C 74.037 266.729,78.054 261.688,84.623 257.930 C 87.593 256.231,92.368 252.176,95.234 248.920 C 101.734 241.536,103.653 241.293,104.501 247.750 C 105.375 254.404,105.918 255.362,110.992 259.195 C 117.236 263.913,118.089 266.821,114.674 271.749 C 111.621 276.154,111.333 279.822,113.450 287.346 C 115.323 294.004,117.209 325.321,115.938 328.662 C 115.422 330.020,115.000 333.031,115.000 335.355 C 115.000 341.039,112.509 350.254,109.597 355.340 C 107.627 358.783,107.087 361.567,106.464 371.500 C 106.049 378.100,105.772 386.650,105.846 390.500 C 105.921 394.350,105.319 399.525,104.508 402.000 C 103.698 404.475,102.392 409.892,101.606 414.039 C 100.820 418.185,98.537 425.081,96.533 429.362 C 94.528 433.643,92.634 439.294,92.323 441.921 C 91.836 446.034,92.078 446.995,94.067 448.848 C 96.974 451.557,101.917 451.639,105.228 449.035 C 108.007 446.849,112.020 439.181,114.469 431.377 C 115.353 428.559,117.397 424.509,119.010 422.377 C 121.762 418.741,121.946 417.920,121.972 409.184 C 122.003 398.898,122.733 396.707,126.836 394.585 C 129.229 393.348,130.205 391.306,133.897 379.824 C 140.648 358.830,149.130 338.241,154.669 329.401 C 156.358 326.705,159.035 322.060,160.620 319.079 C 162.204 316.097,165.829 311.194,168.675 308.183 L 173.850 302.709 182.175 303.262 C 199.414 304.409,235.917 316.400,261.916 329.458 C 271.966 334.505,274.179 334.858,278.393 332.080 C 281.792 329.839,283.235 330.210,288.179 334.600 C 291.858 337.866,297.292 339.986,302.000 339.992 C 303.375 339.993,307.513 340.726,311.194 341.619 C 319.338 343.595,324.151 342.895,326.957 339.328 C 330.999 334.189,328.168 328.020,321.750 327.979 C 316.743 327.947,300.137 321.770,294.000 317.657 C 290.975 315.629,285.125 311.539,281.000 308.567 C 271.050 301.398,253.436 290.544,247.906 288.174 C 245.467 287.129,242.862 285.538,242.116 284.640 C 241.370 283.741,238.571 282.356,235.895 281.562 C 225.938 278.604,207.737 263.375,200.038 251.558 C 195.393 244.428,195.231 243.221,198.120 237.251 C 200.786 231.744,200.216 227.462,195.897 220.561 C 192.288 214.796,191.169 208.421,192.991 204.021 C 194.749 199.777,199.259 198.652,211.565 199.390 C 217.029 199.717,228.028 200.260,236.008 200.596 L 250.515 201.206 259.758 197.594 C 267.878 194.422,269.674 194.062,274.535 194.633 C 279.426 195.208,280.352 195.018,282.506 192.995 C 283.846 191.736,285.462 189.085,286.097 187.103 C 286.733 185.121,287.926 182.729,288.748 181.787 C 289.570 180.845,289.971 179.366,289.638 178.500 C 289.123 177.157,287.714 177.025,280.031 177.605 C 271.314 178.263,270.895 178.196,266.808 175.492 C 262.921 172.919,261.716 172.677,251.544 172.417 C 245.470 172.262,236.225 171.397,231.000 170.495 C 225.775 169.593,217.450 168.437,212.500 167.926 C 207.550 167.416,201.613 166.548,199.307 165.999 C 197.001 165.450,193.364 165.000,191.226 165.000 C 185.904 165.000,174.303 161.232,173.545 159.257 C 172.863 157.480,174.699 143.822,176.107 140.203 C 177.676 136.167,177.201 119.731,175.442 117.220 C 173.396 114.300,163.819 107.929,157.417 105.231 C 153.222 103.462,151.122 103.190,145.394 103.670 C 139.719 104.146,138.208 103.956,137.105 102.626 C 135.776 101.025,130.174 100.526,127.000 101.725 M344.000 130.000 C 342.625 130.440,339.637 130.845,337.361 130.900 C 334.904 130.959,332.262 131.776,330.861 132.909 C 328.602 134.736,328.486 135.460,328.174 149.659 C 327.803 166.616,327.249 168.000,320.845 168.000 C 316.899 168.000,313.000 170.657,313.000 173.345 C 313.000 175.651,316.314 177.714,320.965 178.302 C 327.187 179.090,327.990 180.633,328.056 191.941 C 328.122 202.992,329.394 207.493,333.264 210.362 C 335.700 212.168,337.858 212.460,351.468 212.826 C 371.531 213.365,375.108 212.800,380.078 208.311 C 383.134 205.550,384.000 204.038,384.000 201.464 C 384.000 199.648,384.705 195.409,385.567 192.044 C 386.926 186.741,386.974 184.101,385.930 172.213 C 385.268 164.671,384.450 153.227,384.113 146.781 C 383.380 132.770,382.896 132.039,373.225 130.340 C 365.604 129.001,347.768 128.793,344.000 130.000 M420.500 134.483 C 419.950 134.662,414.794 135.628,409.043 136.630 C 396.150 138.877,393.532 140.660,393.616 147.138 C 393.750 157.437,396.202 188.220,397.542 196.426 C 399.191 206.521,399.348 210.903,398.131 212.822 C 396.794 214.930,390.353 215.950,378.218 215.976 C 365.704 216.003,360.552 217.412,359.117 221.202 C 358.638 222.466,357.924 227.325,357.529 232.000 C 356.725 241.523,355.129 245.000,351.559 245.000 C 347.808 245.000,345.926 246.066,344.897 248.771 C 343.376 252.772,346.079 256.000,350.952 256.000 C 355.678 256.000,357.588 257.721,359.049 263.295 C 361.070 271.007,362.166 272.381,367.025 273.294 C 371.406 274.117,385.746 273.784,417.193 272.130 C 433.008 271.299,436.245 270.467,439.500 266.401 C 440.050 265.714,442.075 264.292,444.000 263.241 C 445.925 262.190,447.652 260.545,447.839 259.586 C 448.378 256.807,447.086 253.000,445.603 253.000 C 442.816 253.000,441.490 249.573,440.806 240.599 C 440.424 235.595,439.742 229.475,439.291 227.000 C 437.901 219.370,438.460 218.284,445.553 214.825 C 455.745 209.856,455.551 210.315,455.187 192.058 C 454.923 178.774,455.116 176.149,456.437 175.052 C 459.023 172.906,458.438 166.925,455.406 164.507 C 453.102 162.670,452.653 161.210,451.395 151.469 C 449.834 139.375,448.163 135.909,443.394 134.868 C 440.397 134.214,422.264 133.909,420.500 134.483 " style="stroke: none; fill: black;">
                    </path></svg>