<svg id="svg-path" width="100%" height="100%" viewBox="0 0 512 512" version="1.1" xmlns="http://www.w3.org/2000/svg" style="fill-rule:evenodd;clip-rule:evenodd;stroke-linejoin:round;stroke-miterlimit:2;">
                        <path d="M207.000 96.761 C 190.728 104.351,187.040 106.349,184.596 108.900 C 181.547 112.082,181.393 113.165,182.537 123.346 C 183.461 131.561,183.082 131.963,174.385 131.985 C 166.592 132.004,164.182 133.611,156.358 144.000 C 154.080 147.025,150.414 153.110,148.211 157.523 C 144.122 165.715,139.955 170.554,132.046 176.297 C 129.597 178.076,125.425 182.730,122.775 186.639 C 120.125 190.548,114.725 196.616,110.775 200.124 C 101.697 208.184,88.290 221.628,86.297 224.669 C 85.460 225.946,82.151 228.586,78.943 230.535 C 72.407 234.505,70.917 237.146,73.565 240.072 C 75.872 242.621,77.460 242.507,82.742 239.411 C 86.663 237.113,87.822 236.899,93.047 237.506 L 98.935 238.189 101.604 233.770 C 104.439 229.076,105.887 227.952,118.522 220.632 C 122.933 218.076,129.855 212.882,133.903 209.091 C 145.963 197.795,148.523 197.495,147.510 207.500 C 146.797 214.541,146.441 243.380,146.819 263.504 C 147.005 273.447,146.716 281.618,146.121 283.182 C 145.507 284.798,145.319 291.333,145.646 299.679 C 146.052 310.013,145.776 315.897,144.551 323.000 C 143.650 328.225,142.511 334.975,142.021 338.000 C 141.531 341.025,141.160 355.875,141.196 371.000 C 141.268 401.090,141.002 403.074,135.403 414.193 C 131.384 422.172,131.113 425.818,134.314 428.826 C 137.314 431.644,138.696 431.567,143.518 428.313 C 148.871 424.700,149.656 423.563,152.017 416.000 C 153.133 412.425,155.611 407.524,157.523 405.109 C 160.742 401.044,161.003 400.192,161.035 393.609 C 161.054 389.699,161.714 383.575,162.500 380.000 C 163.286 376.425,163.946 371.451,163.965 368.946 C 163.984 366.442,165.570 359.731,167.489 354.032 C 169.408 348.334,172.809 336.485,175.045 327.702 C 177.815 316.825,180.431 309.144,183.246 303.616 C 185.519 299.152,188.104 292.610,188.989 289.078 C 191.180 280.339,192.602 279.646,198.671 284.361 C 211.122 294.033,217.951 301.112,221.007 307.515 C 222.719 311.102,225.609 315.181,227.603 316.825 C 230.161 318.932,233.471 324.329,239.442 336.125 C 251.086 359.126,254.636 365.657,257.633 369.585 C 259.205 371.646,260.451 374.819,260.758 377.544 C 261.469 383.854,263.457 385.000,273.694 385.000 C 280.403 385.000,283.022 385.482,287.721 387.581 C 296.824 391.648,306.000 390.060,306.000 384.419 C 306.000 382.549,303.754 380.601,294.750 374.660 C 288.563 370.577,282.538 366.171,281.363 364.869 C 280.188 363.566,278.459 359.811,277.520 356.526 C 276.582 353.240,274.771 348.684,273.497 346.401 C 271.035 341.991,268.647 333.719,267.464 325.500 C 266.646 319.817,265.809 317.933,261.908 313.000 C 260.386 311.075,258.177 306.575,257.000 303.000 C 254.921 296.688,250.885 289.338,236.955 266.500 C 233.265 260.450,229.454 253.925,228.486 252.000 C 227.518 250.075,225.325 246.711,223.613 244.525 L 220.500 240.551 220.656 228.655 C 220.839 214.785,221.837 212.511,226.228 215.965 C 230.456 219.290,237.363 218.739,244.559 214.501 C 251.400 210.472,262.716 198.907,267.320 191.242 C 270.506 185.935,273.156 184.291,281.378 182.518 C 285.639 181.599,290.000 176.798,290.000 173.026 C 290.000 170.442,289.435 169.662,286.750 168.540 C 284.962 167.793,282.289 167.413,280.809 167.696 C 278.810 168.078,277.451 167.542,275.514 165.605 C 274.081 164.172,272.106 163.000,271.125 163.000 C 270.144 163.000,266.677 165.385,263.420 168.301 C 260.164 171.216,255.925 174.662,254.000 175.958 C 252.075 177.254,248.844 179.878,246.821 181.791 C 244.765 183.734,242.518 185.029,241.728 184.726 C 239.549 183.890,236.901 177.444,236.285 171.475 C 235.781 166.585,235.373 165.851,231.883 163.541 C 226.722 160.126,226.283 157.638,229.573 150.425 C 231.059 147.166,233.074 141.125,234.050 137.000 C 235.027 132.875,236.591 126.800,237.526 123.500 C 239.191 117.628,239.180 117.376,237.011 111.668 C 235.792 108.460,233.486 104.345,231.886 102.523 C 225.868 95.669,214.823 93.111,207.000 96.761 M360.145 124.998 C 358.286 125.437,354.824 127.719,352.385 130.113 C 345.194 137.171,342.343 147.739,345.126 157.027 C 346.067 160.168,345.965 161.339,344.501 164.143 C 343.538 165.990,342.373 169.701,341.912 172.392 C 341.452 175.082,339.838 179.070,338.324 181.254 C 336.811 183.437,335.095 186.182,334.511 187.353 C 332.149 192.091,328.032 188.846,327.978 182.203 C 327.947 178.410,324.947 172.275,320.576 167.069 C 318.530 164.633,315.965 160.891,314.875 158.754 C 312.535 154.169,310.627 154.300,310.178 159.077 C 309.968 161.306,308.834 163.440,306.928 165.194 C 303.380 168.457,303.045 173.060,306.031 177.500 C 307.706 179.991,307.951 181.518,307.472 186.500 C 306.754 193.965,309.882 211.887,312.953 217.907 C 314.380 220.704,316.233 222.617,318.389 223.518 C 320.187 224.269,322.147 225.473,322.743 226.192 C 323.350 226.924,323.976 233.019,324.164 240.028 C 324.493 252.306,324.567 252.661,327.881 257.820 C 329.741 260.716,333.286 264.477,335.760 266.179 L 340.256 269.273 339.655 275.027 C 339.324 278.192,338.167 283.194,337.083 286.141 C 334.063 294.357,330.229 311.444,329.036 322.000 C 328.446 327.225,327.763 340.171,327.520 350.768 C 327.139 367.368,326.795 370.674,325.039 374.645 C 322.335 380.757,322.453 382.131,326.000 385.843 C 327.650 387.569,329.000 389.483,329.000 390.097 C 329.000 393.987,325.161 404.523,320.552 413.282 C 310.682 432.038,311.857 438.000,325.425 438.000 C 335.267 438.000,338.326 435.752,348.560 421.000 C 354.734 412.101,355.010 411.045,354.000 400.241 C 353.832 398.448,354.410 395.523,355.284 393.741 C 359.457 385.233,362.217 368.845,362.410 351.426 L 362.500 343.352 367.215 337.926 C 383.122 319.618,390.154 311.689,396.141 305.305 C 406.880 293.856,408.665 284.430,402.500 271.722 C 400.575 267.754,399.000 263.688,399.000 262.688 C 399.000 260.045,400.849 256.998,404.127 254.240 C 407.966 251.009,407.922 247.257,404.000 243.500 C 400.217 239.876,400.233 238.252,404.185 224.546 C 406.752 215.645,407.329 211.947,407.158 205.500 C 406.702 188.349,407.459 156.276,408.468 150.000 C 409.271 145.001,409.733 145.677,399.000 136.153 C 388.067 126.452,372.682 122.035,360.145 124.998 M289.000 148.889 C 285.361 149.893,284.903 154.687,288.363 155.555 C 293.350 156.807,299.584 151.252,295.848 148.885 C 294.305 147.907,292.556 147.908,289.000 148.889 " style="stroke: none; fill: black;">
                    </path></svg>