<svg id="svg-path" width="100%" height="100%" viewBox="0 0 512 512" version="1.1" xmlns="http://www.w3.org/2000/svg" style="fill-rule:evenodd;clip-rule:evenodd;stroke-linejoin:round;stroke-miterlimit:2;">
                        <path d="M215.667 134.667 C 214.521 135.812,214.939 144.539,216.200 145.800 C 217.781 147.381,218.543 147.315,220.429 145.429 C 222.006 143.851,222.527 138.536,221.393 135.582 C 220.789 134.009,216.940 133.394,215.667 134.667 M199.996 140.014 C 198.654 145.000,198.939 146.932,201.231 148.376 C 204.029 150.138,206.358 146.961,206.435 141.279 C 206.496 136.814,206.323 136.480,203.805 136.189 C 201.405 135.912,200.988 136.330,199.996 140.014 M186.607 138.582 C 186.273 139.452,186.000 142.121,186.000 144.514 C 186.000 148.021,186.397 148.991,188.048 149.515 C 191.051 150.468,193.000 148.281,193.000 143.959 C 193.000 138.680,192.155 137.000,189.500 137.000 C 188.243 137.000,186.941 137.712,186.607 138.582 M233.424 140.802 C 232.283 141.757,230.542 143.769,229.556 145.274 C 225.946 150.783,232.477 153.243,237.313 148.195 C 240.183 145.199,240.750 142.150,238.800 140.200 C 237.188 138.588,235.899 138.732,233.424 140.802 M172.667 140.667 C 170.373 142.961,174.824 152.909,178.179 152.985 C 179.905 153.024,181.777 149.853,181.259 147.768 C 179.911 142.340,175.028 138.305,172.667 140.667 M160.250 144.662 C 157.763 145.666,159.735 152.875,163.307 155.840 C 167.252 159.114,169.643 152.846,166.308 147.973 C 163.743 144.225,162.720 143.666,160.250 144.662 M144.361 150.502 C 142.988 154.079,147.539 161.435,150.734 160.806 C 154.061 160.150,154.364 157.537,151.616 153.184 C 148.891 148.868,145.473 147.604,144.361 150.502 M176.736 162.052 C 169.758 166.674,167.581 171.917,167.165 185.110 C 166.928 192.630,167.263 196.999,168.317 200.110 C 169.134 202.525,169.596 204.838,169.342 205.250 C 169.089 205.662,167.196 206.000,165.135 206.000 C 162.719 206.000,160.197 206.879,158.032 208.476 C 153.582 211.760,146.462 213.663,135.500 214.499 C 126.132 215.214,116.421 217.262,104.500 221.036 C 98.436 222.956,96.182 223.167,87.638 222.614 C 78.717 222.036,77.452 222.176,74.375 224.077 C 67.482 228.337,67.615 232.532,74.789 237.081 C 79.946 240.351,83.382 240.703,88.654 238.500 C 90.629 237.675,93.853 237.000,95.820 237.000 C 99.656 237.000,110.148 235.805,127.000 233.448 C 132.775 232.641,140.684 231.985,144.576 231.990 C 150.626 231.999,151.951 232.326,153.722 234.250 C 156.504 237.273,158.416 246.484,157.642 253.135 C 154.208 282.649,151.291 291.844,138.331 314.000 C 135.597 318.675,132.491 324.005,131.430 325.846 C 130.368 327.686,128.322 330.710,126.882 332.566 C 125.443 334.423,123.965 337.867,123.598 340.221 C 123.231 342.574,121.186 349.225,119.054 355.000 C 114.318 367.830,113.345 371.146,112.514 377.288 C 111.353 385.869,108.546 390.646,103.000 393.483 C 101.075 394.467,97.826 396.773,95.780 398.607 C 93.733 400.441,89.325 403.321,85.984 405.008 C 79.499 408.282,78.438 409.626,79.379 413.376 C 80.433 417.575,84.688 418.462,94.728 416.576 C 110.487 413.615,124.031 409.865,127.738 407.436 C 129.811 406.078,130.000 405.199,130.000 396.911 C 130.000 387.050,130.592 385.243,135.539 380.000 C 137.356 378.075,141.854 371.550,145.535 365.500 C 155.142 349.712,158.391 345.586,166.248 339.189 C 175.721 331.476,175.519 331.602,177.327 332.295 C 180.842 333.644,186.998 349.112,188.999 361.621 C 189.625 365.537,191.455 371.387,193.065 374.621 C 194.908 378.323,195.994 382.065,195.996 384.727 C 195.999 388.121,196.489 389.274,198.481 390.580 C 203.415 393.812,204.361 403.960,200.419 411.365 C 195.939 419.780,196.766 420.559,215.500 425.564 C 223.543 427.713,238.992 428.610,241.828 427.092 C 244.661 425.576,244.658 421.506,241.822 419.240 C 240.624 418.283,237.586 415.645,235.072 413.377 C 232.557 411.110,228.588 408.288,226.250 407.107 C 223.913 405.926,221.953 404.631,221.895 404.230 C 221.838 403.828,221.644 395.850,221.465 386.500 C 221.286 377.150,220.669 367.700,220.094 365.500 C 219.519 363.300,219.032 354.750,219.013 346.500 C 218.989 335.952,218.523 330.016,217.446 326.500 C 216.152 322.280,216.105 320.522,217.144 315.230 C 218.195 309.875,218.133 307.976,216.719 302.230 C 215.421 296.955,215.002 289.444,214.781 267.500 C 214.627 252.100,214.864 238.938,215.309 238.250 C 216.367 236.616,219.147 236.666,223.216 238.394 C 225.022 239.161,227.625 240.270,229.000 240.859 C 230.375 241.447,233.750 243.205,236.500 244.765 C 239.250 246.324,243.975 248.647,247.000 249.927 C 250.025 251.206,255.678 253.717,259.561 255.506 C 263.445 257.295,268.049 259.071,269.792 259.454 C 271.535 259.837,276.683 262.633,281.231 265.668 C 288.875 270.769,289.853 271.153,294.167 270.748 C 303.038 269.915,304.803 263.544,298.148 256.381 C 294.777 252.752,293.512 252.120,287.525 251.078 C 283.582 250.391,279.420 248.935,277.614 247.610 C 275.901 246.353,272.109 244.328,269.188 243.108 C 266.266 241.889,261.766 239.716,259.188 238.281 C 256.609 236.845,252.925 234.792,251.000 233.718 C 249.075 232.644,246.375 230.997,245.000 230.058 C 243.625 229.118,240.925 227.733,239.000 226.981 C 234.355 225.164,226.682 219.454,220.393 213.133 C 215.551 208.266,215.015 208.000,210.077 208.000 C 200.460 208.000,198.611 205.087,204.691 199.517 L 208.382 196.135 208.122 182.823 C 207.898 171.378,207.570 169.040,205.785 166.153 C 202.368 160.623,198.671 159.008,189.421 159.004 C 182.085 159.000,180.920 159.280,176.736 162.052 M402.393 184.902 C 398.472 187.293,390.682 196.258,389.933 199.242 C 389.191 202.199,389.914 204.973,395.435 220.368 C 400.602 234.777,400.605 234.754,393.354 237.962 C 388.813 239.970,386.259 243.992,384.533 251.851 C 383.828 255.061,377.309 261.000,374.491 261.000 C 373.826 261.000,371.131 262.893,368.502 265.207 C 364.411 268.808,363.131 269.391,359.611 269.253 C 356.178 269.118,354.923 268.440,352.000 265.137 C 350.075 262.962,347.517 260.691,346.316 260.091 C 343.554 258.712,337.464 258.682,334.934 260.035 C 332.709 261.226,332.321 265.805,334.250 268.113 C 337.092 271.514,346.836 277.856,351.500 279.341 C 362.166 282.737,378.247 283.910,389.271 282.096 C 396.437 280.917,396.953 281.705,396.282 292.786 L 395.718 302.073 391.916 304.786 C 389.824 306.279,387.075 309.239,385.806 311.365 C 382.862 316.300,381.427 317.768,375.662 321.744 C 373.074 323.529,369.751 326.986,368.276 329.427 C 366.379 332.568,363.242 335.393,357.548 339.088 C 353.121 341.959,347.387 346.336,344.804 348.814 C 342.221 351.292,337.952 354.485,335.317 355.910 C 331.674 357.880,329.998 359.615,328.318 363.154 C 325.428 369.247,321.653 370.708,314.449 368.523 C 307.652 366.461,305.295 366.620,303.568 369.257 C 302.370 371.084,302.296 372.368,303.175 376.007 C 304.976 383.459,306.644 384.500,316.778 384.500 C 323.860 384.500,326.296 384.081,329.734 382.274 C 332.063 381.050,336.645 379.618,339.918 379.091 C 343.191 378.564,346.911 377.461,348.184 376.641 C 349.458 375.821,353.425 374.175,357.000 372.985 C 366.737 369.742,380.993 363.535,395.121 356.386 C 407.988 349.875,414.456 348.338,416.732 351.250 C 418.262 353.207,417.384 381.292,415.474 391.500 C 414.185 398.389,413.938 403.314,414.421 412.500 C 414.768 419.100,415.155 429.900,415.280 436.500 C 415.439 444.883,415.937 449.148,416.932 450.650 C 418.734 453.370,424.182 456.000,428.015 456.000 C 432.016 456.000,432.931 452.396,430.374 446.705 C 429.049 443.757,428.519 440.330,428.566 435.017 C 428.637 426.925,429.690 424.044,435.520 416.000 C 440.014 409.799,441.635 405.499,443.455 394.955 C 444.999 386.008,445.786 383.803,450.566 375.038 C 452.683 371.157,453.002 369.270,453.012 360.538 C 453.019 354.591,453.651 348.259,454.562 345.000 C 455.408 341.975,456.355 334.775,456.665 329.000 C 457.167 319.655,457.550 317.990,460.144 313.867 C 463.768 308.106,465.973 296.507,466.860 278.541 L 467.500 265.582 471.953 264.295 C 474.509 263.557,478.024 261.430,480.203 259.302 C 483.755 255.833,484.000 255.212,484.000 249.665 C 484.000 244.172,483.740 243.491,480.462 240.399 C 478.516 238.564,476.276 235.511,475.483 233.615 C 474.162 230.451,469.394 226.000,467.328 226.000 C 466.853 226.000,464.859 224.909,462.897 223.576 C 457.824 220.128,448.782 217.692,444.038 218.494 C 441.813 218.870,439.281 218.685,438.118 218.063 C 436.313 217.097,436.109 216.110,436.293 209.238 C 436.531 200.335,434.308 194.537,428.464 188.824 C 422.713 183.200,408.653 181.085,402.393 184.902 M313.764 272.010 C 311.159 272.328,307.784 273.519,306.264 274.657 C 303.817 276.487,303.518 277.320,303.661 281.909 C 303.749 284.760,304.081 287.768,304.397 288.592 C 305.703 291.996,316.717 294.292,320.929 292.038 C 323.030 290.914,324.607 287.161,325.411 281.375 C 325.854 278.184,325.538 276.682,324.016 274.748 C 321.631 271.715,319.917 271.258,313.764 272.010 M319.028 279.534 C 320.061 280.779,320.050 281.539,318.967 283.561 C 317.195 286.873,313.490 287.753,310.960 285.464 C 308.407 283.153,308.484 281.604,311.250 279.674 C 314.151 277.651,317.416 277.592,319.028 279.534 " style="stroke: none; fill: black;">
                    </path></svg>