<svg id="svg-path" width="100%" height="100%" viewBox="0 0 512 512" version="1.1" xmlns="http://www.w3.org/2000/svg" style="fill-rule:evenodd;clip-rule:evenodd;stroke-linejoin:round;stroke-miterlimit:2;">
                        <path d="M226.401 67.850 C 220.719 70.507,217.744 75.037,217.175 81.900 C 216.679 87.886,215.363 89.909,203.250 103.307 C 200.363 106.501,198.000 109.548,198.000 110.078 C 198.000 110.609,196.880 112.736,195.510 114.805 C 193.096 118.453,190.855 124.935,189.605 131.885 C 189.053 134.954,189.415 135.646,193.498 139.315 C 197.292 142.724,198.000 143.941,198.000 147.056 C 198.000 149.088,196.939 153.170,195.643 156.126 C 194.346 159.082,192.275 164.875,191.039 169.000 C 187.498 180.824,186.304 184.146,183.619 189.633 C 181.116 194.751,181.108 194.855,181.065 223.960 C 181.042 240.017,180.687 253.682,180.277 254.327 C 179.866 254.972,179.524 258.914,179.515 263.087 C 179.501 270.171,179.252 271.048,175.750 276.321 C 170.540 284.169,170.693 289.595,176.299 295.750 C 179.027 298.745,183.579 298.650,188.215 295.500 C 195.747 290.382,199.573 293.490,200.985 305.872 C 201.499 310.376,202.167 314.461,202.470 314.951 C 202.773 315.441,203.491 322.909,204.066 331.546 C 204.961 345.001,204.867 348.838,203.403 358.340 C 201.939 367.851,201.799 373.564,202.419 398.465 C 203.624 446.785,204.161 454.406,206.594 457.681 C 209.679 461.833,215.781 464.964,220.827 464.984 C 229.525 465.017,233.431 456.944,229.348 447.372 C 226.688 441.135,224.092 425.255,224.056 415.000 C 224.038 409.775,224.933 399.875,226.045 393.000 C 227.157 386.125,228.703 376.225,229.480 371.000 C 230.256 365.775,231.764 358.800,232.829 355.500 C 233.895 352.200,235.085 346.718,235.474 343.318 C 236.151 337.399,238.142 332.808,239.460 334.127 C 240.224 334.891,243.212 345.891,245.401 356.000 C 246.294 360.125,247.468 369.598,248.010 377.052 C 248.551 384.505,249.515 393.280,250.151 396.552 C 251.872 405.408,251.595 421.607,249.631 426.876 C 248.734 429.282,248.000 433.107,248.000 435.376 C 248.000 437.644,247.027 442.215,245.837 445.532 C 243.845 451.088,243.786 451.918,245.087 456.032 C 246.226 459.633,247.261 460.871,250.418 462.413 C 253.869 464.097,254.879 464.180,258.905 463.103 C 267.540 460.793,268.578 458.483,269.957 438.499 C 270.489 430.800,271.442 421.800,272.076 418.500 C 273.086 413.237,273.570 373.153,273.100 333.500 C 273.003 325.304,275.606 300.697,277.568 291.259 C 277.824 290.026,279.561 287.628,281.429 285.929 C 285.885 281.873,286.432 279.180,284.131 272.633 C 281.451 265.007,282.211 262.544,288.545 258.339 C 294.668 254.273,296.895 250.260,295.152 246.435 C 293.571 242.964,289.751 241.721,284.781 243.059 C 279.873 244.381,275.266 242.831,273.970 239.421 C 273.438 238.022,273.648 233.966,274.517 228.827 C 275.292 224.247,276.280 215.360,276.713 209.077 C 277.261 201.124,277.897 197.524,278.807 197.225 C 280.939 196.524,287.330 204.123,290.869 211.568 C 292.681 215.381,296.993 222.775,300.450 228.000 C 303.908 233.225,307.008 238.400,307.339 239.500 C 307.671 240.600,308.178 247.125,308.466 254.000 C 308.754 260.875,309.224 268.300,309.510 270.500 C 310.006 274.304,309.808 274.671,305.445 278.000 C 302.922 279.925,299.910 282.850,298.751 284.500 C 297.593 286.150,295.849 288.282,294.877 289.238 C 293.905 290.194,292.334 293.438,291.385 296.448 C 289.954 300.987,289.859 302.587,290.830 305.826 C 293.449 314.569,291.737 319.325,285.396 320.922 C 282.141 321.741,280.916 322.590,280.571 324.260 C 279.616 328.894,279.036 347.347,279.060 372.384 C 279.088 401.787,279.534 404.221,285.157 405.650 C 290.294 406.956,354.973 406.064,358.000 404.645 L 360.500 403.474 360.500 362.020 L 360.500 320.567 356.832 319.534 C 354.814 318.965,352.789 318.127,352.332 317.671 C 351.874 317.215,351.275 310.848,351.000 303.523 C 350.596 292.758,350.167 289.838,348.762 288.287 C 347.806 287.232,346.747 284.986,346.409 283.296 C 346.044 281.472,343.805 278.263,340.901 275.403 C 336.619 271.184,335.617 269.356,332.868 260.739 C 330.259 252.562,329.920 250.472,330.864 248.400 C 332.613 244.561,332.251 242.591,329.060 238.575 C 327.442 236.540,325.370 232.541,324.454 229.688 C 321.550 220.640,314.856 206.772,309.401 198.500 C 303.898 190.156,299.531 184.671,284.500 167.226 C 279.550 161.481,274.715 155.593,273.755 154.140 C 271.447 150.647,271.545 146.812,274.070 141.864 C 276.707 136.694,276.727 134.120,274.197 125.500 C 273.067 121.650,271.852 115.575,271.496 112.000 C 270.764 104.650,269.824 103.123,259.643 92.750 C 255.490 88.520,251.796 83.518,249.746 79.350 C 244.004 67.677,235.613 63.543,226.401 67.850 M333.578 280.768 C 340.257 288.864,340.284 288.956,339.823 301.882 C 339.225 318.657,339.510 318.348,323.219 319.904 C 310.196 321.147,303.843 320.768,302.166 318.645 C 301.669 318.015,300.962 313.656,300.595 308.957 C 299.922 300.327,300.814 296.154,304.233 291.938 C 306.727 288.863,317.734 282.141,321.401 281.453 C 323.457 281.067,325.665 279.907,326.310 278.876 C 328.061 276.071,330.154 276.616,333.578 280.768 M351.042 334.078 C 352.437 336.685,351.245 388.517,349.722 391.500 C 349.160 392.600,348.205 393.831,347.600 394.235 C 346.995 394.639,334.287 394.976,319.361 394.985 C 294.987 394.998,292.002 394.822,290.068 393.250 C 287.961 391.537,287.924 391.044,288.322 370.000 C 288.734 348.223,289.905 336.695,291.908 334.692 C 293.753 332.847,301.449 332.273,326.215 332.134 C 349.272 332.004,349.960 332.058,351.042 334.078 M336.954 337.870 C 335.054 338.880,331.896 340.003,329.936 340.364 C 327.779 340.761,325.057 342.378,323.040 344.458 L 319.708 347.896 308.881 347.536 L 298.053 347.175 295.027 350.622 C 293.362 352.518,292.002 354.616,292.004 355.285 C 292.007 355.953,293.355 358.525,295.000 361.000 C 296.645 363.475,298.008 365.950,298.027 366.500 C 298.080 367.960,301.605 371.662,309.873 378.936 C 318.066 386.145,320.246 386.287,320.810 379.649 C 321.065 376.653,321.513 376.001,323.310 376.006 C 324.692 376.010,326.128 377.117,327.203 379.006 C 330.726 385.196,334.517 382.700,344.866 367.379 C 349.459 360.577,349.762 359.093,347.319 355.364 C 345.928 353.242,345.837 352.270,346.791 349.742 C 348.118 346.226,346.534 341.789,342.647 338.138 C 340.443 336.067,340.352 336.063,336.954 337.870 M339.364 348.636 C 340.814 350.086,342.000 351.929,342.000 352.731 C 342.000 354.318,333.624 367.237,331.398 369.085 C 329.357 370.779,327.274 369.522,326.533 366.150 C 326.172 364.508,325.005 362.159,323.939 360.929 C 320.368 356.812,322.262 352.950,330.000 348.571 C 335.615 345.393,336.124 345.397,339.364 348.636 M310.329 356.027 C 316.693 358.843,318.000 360.434,318.000 365.371 C 318.000 369.555,316.687 372.000,314.441 372.000 C 312.638 372.000,304.104 364.102,302.450 360.902 C 301.082 358.258,301.124 357.876,302.983 356.017 C 305.426 353.574,304.781 353.573,310.329 356.027 " style="stroke: none; fill: black;">
                    </path></svg>