<svg id="svg-path" width="100%" height="100%" viewBox="0 0 512 512" version="1.1" xmlns="http://www.w3.org/2000/svg" style="fill-rule:evenodd;clip-rule:evenodd;stroke-linejoin:round;stroke-miterlimit:2;">
                        <path d="M104.655 63.829 C 103.745 64.835,103.000 67.282,103.000 69.267 C 103.000 71.252,102.311 75.848,101.468 79.480 C 100.626 83.112,99.749 92.478,99.519 100.292 C 99.284 108.281,98.413 117.345,97.528 121.000 C 95.685 128.622,94.066 151.064,94.027 169.540 C 94.011 177.234,93.434 184.818,92.619 188.040 C 90.893 194.866,89.565 212.369,89.436 230.000 C 89.298 248.784,87.203 288.577,86.066 294.000 C 85.547 296.475,84.859 305.250,84.536 313.500 C 84.214 321.750,83.521 331.650,82.998 335.500 C 82.474 339.350,81.640 347.450,81.144 353.500 C 80.163 365.473,76.783 391.485,74.453 405.000 C 73.646 409.675,72.990 417.112,72.993 421.526 C 72.997 425.941,72.524 433.346,71.943 437.981 C 70.637 448.395,71.078 450.259,75.460 452.844 C 77.396 453.986,79.726 456.577,80.722 458.697 L 82.509 462.500 96.505 463.158 C 104.202 463.521,115.991 464.144,122.703 464.544 L 134.906 465.271 142.395 461.520 C 148.340 458.543,150.121 457.122,151.032 454.635 C 151.662 452.911,152.573 443.400,153.056 433.500 C 153.539 423.600,154.388 413.700,154.943 411.500 C 155.498 409.300,155.968 403.900,155.986 399.500 C 156.005 395.100,156.456 386.325,156.988 380.000 C 158.411 363.076,160.193 330.511,160.572 314.500 C 161.257 285.489,161.785 276.270,162.876 274.231 C 163.494 273.076,164.003 270.189,164.006 267.816 C 164.014 262.035,167.133 244.781,170.390 232.500 C 171.265 229.200,173.368 219.750,175.064 211.500 C 176.759 203.250,179.065 193.350,180.189 189.500 C 184.870 173.464,186.120 168.097,186.946 160.500 C 187.933 151.418,190.195 138.465,192.971 126.000 C 194.013 121.325,195.135 115.844,195.465 113.819 C 195.795 111.794,197.995 107.294,200.354 103.819 C 205.424 96.349,208.301 89.522,207.475 86.921 C 207.149 85.893,205.671 84.215,204.191 83.192 C 198.300 79.119,192.981 77.930,176.128 76.919 C 164.217 76.204,156.811 75.214,150.002 73.425 C 139.324 70.620,123.883 65.489,119.800 63.389 C 115.752 61.307,106.699 61.570,104.655 63.829 M123.151 76.490 C 126.298 77.955,130.326 78.984,132.936 78.990 C 135.376 78.996,140.101 79.668,143.436 80.485 C 146.771 81.301,155.125 82.879,162.000 83.991 C 176.958 86.410,187.575 88.702,190.116 90.062 C 193.265 91.747,193.429 95.518,190.691 103.285 C 189.292 107.253,187.610 113.425,186.952 117.000 C 186.294 120.575,185.137 125.750,184.380 128.500 C 183.624 131.250,182.297 137.100,181.432 141.500 C 180.567 145.900,179.248 151.525,178.501 154.000 C 177.755 156.475,176.422 161.425,175.540 165.000 C 174.658 168.575,172.555 176.675,170.866 183.000 C 166.437 199.595,164.991 205.733,163.916 212.500 C 163.392 215.800,161.902 222.100,160.605 226.500 C 154.417 247.486,151.000 273.270,151.000 298.976 C 151.000 309.909,150.556 322.150,150.014 326.178 C 148.923 334.281,147.424 353.349,146.018 377.000 C 145.511 385.525,144.385 400.375,143.514 410.000 C 139.984 449.044,139.624 450.827,135.000 452.108 C 131.800 452.995,106.143 453.028,94.791 452.160 C 82.936 451.254,82.741 450.976,83.444 436.000 C 84.010 423.931,87.301 392.090,89.129 381.000 C 92.653 359.616,96.956 299.435,98.924 244.000 C 99.442 229.425,100.369 214.125,100.984 210.000 C 102.131 202.316,102.548 185.696,101.632 184.213 C 101.350 183.758,101.573 180.711,102.126 177.443 C 103.082 171.792,103.969 159.137,105.768 125.500 C 106.209 117.250,107.102 109.545,107.752 108.377 C 109.438 105.349,110.879 98.330,111.961 87.869 C 112.831 79.463,114.785 74.000,116.924 74.000 C 117.406 74.000,120.209 75.121,123.151 76.490 M129.000 90.000 C 126.592 92.408,126.553 92.917,128.557 95.777 C 129.866 97.646,131.051 98.000,136.000 98.000 C 140.894 98.000,142.141 97.637,143.396 95.845 C 145.359 93.042,144.065 90.567,139.872 89.105 C 135.115 87.447,131.234 87.766,129.000 90.000 M124.557 119.223 C 122.507 122.148,122.592 123.321,125.013 125.512 C 129.470 129.545,140.000 126.871,140.000 121.705 C 140.000 118.665,137.027 117.067,131.307 117.032 C 127.053 117.006,125.832 117.402,124.557 119.223 M125.219 140.559 C 122.559 142.423,122.335 145.775,124.750 147.608 C 127.590 149.764,136.349 149.376,138.500 147.000 C 140.228 145.090,140.230 144.912,138.551 143.057 C 137.584 141.988,135.377 140.829,133.646 140.482 C 131.916 140.135,129.811 139.660,128.969 139.428 C 128.127 139.195,126.440 139.704,125.219 140.559 M260.000 143.956 C 249.889 146.218,241.447 153.490,238.742 162.266 C 234.669 175.482,234.094 185.657,237.106 191.185 C 237.873 192.592,240.637 196.389,243.249 199.622 C 246.097 203.146,247.996 206.501,247.991 208.000 C 247.975 212.921,238.751 219.965,232.285 219.994 C 230.636 220.002,229.000 223.279,229.000 226.574 C 229.000 228.061,230.390 231.538,232.089 234.299 C 237.293 242.756,237.160 243.894,229.021 260.654 C 220.951 277.273,217.359 289.783,212.414 318.500 C 209.093 337.783,208.993 343.105,211.845 348.696 C 216.346 357.518,223.911 358.408,228.576 350.665 C 230.496 347.477,230.798 339.523,229.891 315.993 C 229.663 310.078,230.102 308.439,234.705 297.993 C 237.490 291.672,240.086 285.375,240.474 284.000 C 241.609 279.973,247.337 265.617,248.374 264.202 C 248.897 263.488,250.264 263.038,251.412 263.202 C 253.104 263.443,254.213 265.589,257.257 274.500 C 266.034 300.201,265.937 299.733,265.296 313.293 C 264.914 321.377,265.125 327.351,265.905 330.605 C 266.987 335.114,266.854 336.330,264.466 343.731 C 262.416 350.089,261.125 352.430,258.612 354.347 C 256.389 356.043,253.319 360.946,248.718 370.153 C 242.121 383.352,242.034 383.631,240.910 395.353 C 239.243 412.724,240.421 414.000,258.129 414.000 C 263.536 414.000,271.456 414.658,275.730 415.462 C 280.003 416.265,290.250 418.090,298.500 419.516 C 309.354 421.393,314.744 422.822,318.000 424.686 C 320.475 426.103,328.377 433.278,335.559 440.631 C 349.049 454.442,351.932 456.196,355.019 452.477 C 357.189 449.863,355.182 435.895,351.215 426.000 C 350.663 424.625,349.395 420.800,348.397 417.500 C 346.003 409.590,342.268 403.947,337.847 401.560 C 334.524 399.766,333.818 399.724,328.472 401.007 L 322.691 402.394 310.437 396.127 C 296.778 389.142,294.312 387.152,295.823 384.333 C 297.021 382.098,311.475 374.745,318.932 372.578 C 327.041 370.222,331.962 370.552,338.148 373.870 C 355.031 382.924,358.660 385.124,363.683 389.347 C 369.760 394.457,372.433 395.020,376.273 392.000 C 381.484 387.901,384.794 389.213,396.500 400.016 C 399.250 402.553,404.650 406.370,408.500 408.497 C 419.883 414.784,426.460 419.577,430.726 424.690 C 436.875 432.061,444.363 444.022,445.954 449.014 C 447.523 453.939,452.269 461.527,455.462 464.217 C 456.798 465.342,459.282 465.945,462.673 465.967 C 473.868 466.039,478.293 456.695,473.166 443.811 C 471.846 440.495,460.417 427.302,449.201 416.148 C 444.582 411.555,436.365 402.275,430.942 395.526 C 425.519 388.777,415.450 377.967,408.567 371.504 C 401.684 365.041,394.128 357.223,391.776 354.130 C 386.531 347.234,379.976 338.950,375.138 333.106 C 373.137 330.689,368.936 324.839,365.803 320.106 C 362.669 315.373,358.057 308.800,355.554 305.500 C 341.740 287.292,336.230 278.605,335.002 273.100 C 334.315 270.020,332.669 265.250,331.343 262.500 C 327.525 254.579,325.768 245.592,327.071 240.644 C 328.938 233.558,330.452 232.000,335.474 232.000 C 337.910 232.000,342.494 232.675,345.661 233.500 C 348.829 234.325,355.315 235.000,360.075 235.000 C 370.302 235.000,372.585 233.727,376.614 225.774 C 379.090 220.888,379.934 218.167,385.861 195.929 C 387.989 187.947,389.693 183.905,392.817 179.429 C 398.167 171.764,398.926 167.085,395.807 161.000 C 394.353 158.164,392.205 155.821,390.000 154.663 C 386.748 152.956,386.239 152.937,382.810 154.401 C 380.780 155.268,377.855 157.634,376.310 159.658 C 373.927 162.781,373.398 164.643,372.827 171.920 C 371.452 189.453,366.280 204.447,359.145 211.583 C 356.781 213.947,355.995 214.156,351.505 213.614 C 340.935 212.339,339.044 211.339,336.492 205.679 C 333.673 199.426,329.668 195.000,326.828 195.000 C 325.677 195.000,323.176 195.964,321.270 197.142 C 317.980 199.175,317.449 199.217,310.788 197.960 C 299.647 195.858,299.705 195.959,299.446 178.300 C 299.325 170.044,298.899 162.212,298.498 160.895 C 295.584 151.310,272.508 141.157,260.000 143.956 M122.000 163.234 C 120.532 164.005,119.393 165.568,119.241 167.023 C 118.789 171.343,120.335 172.425,127.020 172.464 C 131.967 172.493,133.433 172.123,134.579 170.559 C 136.392 168.082,136.368 167.675,134.240 165.048 C 132.063 162.359,125.515 161.389,122.000 163.234 M116.048 188.952 C 113.480 191.520,113.461 193.202,115.972 195.475 C 118.831 198.062,127.659 197.139,130.213 193.985 C 131.826 191.994,131.881 191.452,130.660 189.606 C 128.600 186.491,118.942 186.058,116.048 188.952 M119.239 219.682 C 116.911 220.591,115.912 223.713,117.109 226.341 C 118.271 228.890,121.439 230.000,127.554 230.000 C 133.763 230.000,136.253 223.772,131.000 221.381 C 127.987 220.009,120.990 218.998,119.239 219.682 M116.250 251.468 C 114.664 253.305,114.637 257.237,116.200 258.800 C 116.860 259.460,119.580 260.000,122.245 260.000 C 126.104 260.000,127.609 259.481,129.637 257.454 C 131.969 255.122,132.060 254.723,130.725 252.704 C 129.534 250.905,128.185 250.456,123.383 250.260 C 119.249 250.091,117.128 250.450,116.250 251.468 M112.200 289.200 C 110.383 291.017,110.763 294.803,112.875 295.933 C 116.096 297.657,122.604 298.283,124.844 297.084 C 128.360 295.202,129.455 292.161,127.425 289.917 C 126.074 288.424,124.331 288.000,119.545 288.000 C 116.099 288.000,112.873 288.527,112.200 289.200 M112.571 317.571 C 110.399 319.744,110.594 323.712,112.934 324.965 C 115.829 326.514,123.251 326.213,125.777 324.443 C 127.000 323.587,128.000 322.044,128.000 321.015 C 128.000 317.640,125.220 316.000,119.500 316.000 C 115.963 316.000,113.609 316.534,112.571 317.571 M114.104 356.885 C 109.982 357.631,108.010 360.204,109.610 362.750 C 110.961 364.901,123.319 365.810,125.590 363.925 C 127.336 362.476,127.418 359.576,125.750 358.253 C 123.982 356.850,118.106 356.160,114.104 356.885 M108.245 393.250 C 106.107 395.922,105.954 398.721,107.818 401.023 C 109.414 402.994,110.577 403.317,115.897 403.267 C 122.757 403.202,126.000 401.351,126.000 397.500 C 126.000 393.623,122.987 392.000,115.794 392.000 C 111.755 392.000,108.862 392.479,108.245 393.250 M116.000 424.738 C 105.923 425.942,107.074 436.000,117.288 436.000 C 123.618 436.000,126.957 433.572,126.985 428.950 C 127.013 424.295,125.278 423.630,116.000 424.738 " style="stroke: none; fill: black;">
                    </path></svg>