<svg id="svg-path" width="100%" height="100%" viewBox="0 0 512 512" version="1.1" xmlns="http://www.w3.org/2000/svg" style="fill-rule:evenodd;clip-rule:evenodd;stroke-linejoin:round;stroke-miterlimit:2;">
                        <path d="M299.476 138.395 C 297.264 139.088,293.103 141.272,290.231 143.247 C 287.359 145.223,283.770 147.117,282.255 147.457 C 280.740 147.797,278.375 148.933,277.000 149.981 C 274.824 151.640,274.528 152.574,274.716 157.194 C 275.003 164.227,276.808 171.775,279.122 175.618 C 280.155 177.333,281.000 179.851,281.000 181.213 C 281.000 184.089,278.193 187.000,275.418 187.000 C 272.179 187.000,264.013 180.505,253.000 169.169 C 247.225 163.224,240.824 157.589,238.775 156.646 C 236.727 155.702,231.106 152.246,226.284 148.965 C 216.567 142.353,213.397 141.572,212.400 145.543 C 211.378 149.616,214.553 156.042,220.507 161.951 C 223.528 164.950,226.000 167.701,226.000 168.065 C 226.000 168.429,228.246 171.769,230.991 175.487 C 235.863 182.088,240.402 186.941,264.046 210.833 C 277.020 223.942,278.420 226.476,281.950 243.233 C 283.077 248.585,284.000 253.225,284.000 253.542 C 284.000 253.860,286.268 256.518,289.040 259.449 C 293.645 264.318,293.943 264.914,292.490 266.367 C 291.616 267.241,290.190 268.354,289.321 268.840 C 288.381 269.366,287.385 271.992,286.863 275.317 C 286.369 278.468,283.893 285.184,281.188 290.704 C 270.278 312.976,264.666 323.271,261.182 327.397 C 259.157 329.797,256.256 333.952,254.736 336.630 C 253.216 339.309,250.357 343.508,248.383 345.963 C 245.363 349.719,244.871 351.000,245.279 354.047 C 245.547 356.039,245.293 358.530,244.716 359.584 C 242.252 364.083,234.689 371.756,229.521 375.000 C 226.454 376.925,222.495 379.415,220.722 380.532 C 218.589 381.878,217.391 383.504,217.178 385.343 C 216.390 392.133,222.293 392.736,233.378 387.000 C 237.629 384.800,242.142 383.000,243.406 383.000 C 246.982 383.000,252.282 378.893,253.084 375.500 C 253.474 373.850,254.080 371.233,254.431 369.685 C 254.904 367.606,256.172 366.385,259.285 365.014 C 262.148 363.753,264.943 361.238,268.000 357.171 C 284.188 335.635,288.069 330.859,294.636 324.398 C 303.750 315.431,314.832 307.022,317.554 307.010 C 321.064 306.993,329.528 317.580,332.336 325.500 C 333.116 327.700,335.160 332.256,336.877 335.624 C 338.595 338.992,340.000 342.488,340.000 343.392 C 340.000 344.297,341.120 348.244,342.489 352.162 C 343.858 356.080,345.671 362.709,346.517 366.893 C 347.622 372.354,348.683 374.994,350.278 376.250 C 351.500 377.212,353.063 378.467,353.750 379.039 C 354.491 379.655,355.000 382.477,355.000 385.963 C 355.000 390.695,355.465 392.400,357.374 394.673 C 358.679 396.228,361.856 400.976,364.433 405.224 C 369.722 413.943,373.001 417.000,377.063 417.000 C 380.220 417.000,383.000 414.714,383.000 412.120 C 383.000 411.164,381.397 407.720,379.437 404.466 C 371.686 391.593,367.222 378.671,368.882 373.909 C 369.637 371.742,369.401 368.475,367.946 360.969 C 366.876 355.447,366.000 349.344,366.000 347.407 C 366.000 343.281,364.107 334.917,362.864 333.550 C 362.389 333.028,362.000 331.281,362.000 329.668 C 362.000 328.055,361.068 325.228,359.928 323.384 C 358.270 320.701,357.892 318.582,358.035 312.766 C 358.134 308.770,357.377 298.075,356.354 289.000 C 354.739 274.685,354.129 271.892,351.746 267.912 C 348.365 262.264,348.348 261.071,351.553 254.296 C 352.957 251.328,354.375 246.632,354.703 243.860 C 355.179 239.839,355.780 238.602,357.674 237.739 C 360.808 236.311,361.493 233.116,359.624 228.642 C 358.474 225.889,357.517 225.000,355.706 225.000 C 351.066 225.000,350.000 222.340,350.000 210.760 C 350.000 198.080,347.803 200.597,374.880 182.257 C 385.732 174.906,389.993 171.801,395.367 167.327 C 397.494 165.556,400.419 163.836,401.867 163.505 C 405.938 162.574,412.379 157.707,413.406 154.786 C 414.100 152.812,413.910 151.511,412.643 149.577 C 411.099 147.222,410.363 147.000,404.086 147.000 C 399.380 147.000,395.847 147.622,392.859 148.978 C 390.462 150.066,387.251 150.966,385.725 150.978 C 382.340 151.005,371.592 156.314,362.920 162.244 C 354.872 167.746,340.746 175.380,335.570 177.025 C 331.922 178.184,331.510 178.112,329.820 176.026 C 328.735 174.686,327.986 172.107,327.964 169.639 C 327.922 164.756,325.805 155.375,323.967 151.932 C 321.799 147.867,314.666 139.955,311.800 138.433 C 308.556 136.711,304.885 136.700,299.476 138.395 M63.082 142.416 C 60.224 145.364,59.889 146.162,60.966 147.459 C 62.942 149.840,66.346 149.292,69.405 146.099 C 72.716 142.643,72.530 139.623,68.980 139.207 C 67.199 138.998,65.497 139.924,63.082 142.416 M173.299 157.106 C 169.423 158.227,168.621 159.355,169.425 162.557 C 169.856 164.274,170.731 165.000,172.370 165.000 C 179.245 165.000,184.320 160.169,180.431 157.326 C 178.383 155.828,177.782 155.809,173.299 157.106 M367.552 205.942 C 365.953 207.709,365.924 208.273,367.226 212.192 C 368.702 216.636,371.023 217.967,373.972 216.060 C 375.230 215.246,375.258 214.413,374.165 210.328 C 372.435 203.858,370.562 202.616,367.552 205.942 M69.200 210.200 C 67.363 212.037,67.772 215.808,69.934 216.965 C 73.252 218.740,79.797 218.248,80.926 216.138 C 82.320 213.533,80.411 211.403,75.500 210.085 C 70.531 208.751,70.651 208.749,69.200 210.200 M459.370 258.421 C 455.675 260.052,454.774 261.246,455.604 263.410 C 457.033 267.134,466.500 264.146,466.500 259.970 C 466.500 256.972,463.922 256.412,459.370 258.421 M159.789 301.856 C 155.890 305.493,155.667 305.975,156.768 308.391 C 158.346 311.854,161.873 311.795,165.229 308.250 C 168.976 304.291,169.271 300.751,165.999 299.000 C 164.310 298.096,163.344 298.540,159.789 301.856 M433.571 322.571 C 431.706 324.437,431.708 324.403,433.117 329.500 C 434.399 334.137,435.677 335.243,438.196 333.895 C 440.224 332.810,440.628 327.781,439.025 323.565 C 437.915 320.647,435.869 320.274,433.571 322.571 M298.724 348.134 C 297.776 348.665,297.000 349.705,297.000 350.446 C 297.000 352.414,303.914 358.163,305.836 357.793 C 308.407 357.298,308.410 354.066,305.841 351.319 C 302.586 347.840,300.733 347.010,298.724 348.134 M420.512 353.962 C 419.764 356.320,420.914 358.655,424.453 361.967 C 426.536 363.915,427.448 364.208,428.795 363.359 C 431.470 361.675,431.387 359.196,428.532 355.453 C 425.520 351.504,421.528 350.762,420.512 353.962 M444.449 373.468 C 441.907 379.551,443.007 383.418,447.113 382.837 C 449.076 382.560,449.660 381.674,450.398 377.856 C 451.476 372.277,450.776 370.000,447.980 370.000 C 446.549 370.000,445.445 371.085,444.449 373.468 M94.200 386.200 C 92.153 388.247,92.870 391.554,95.958 394.305 C 99.886 397.805,103.263 398.594,105.356 396.501 C 107.964 393.894,107.298 391.404,103.106 388.084 C 98.986 384.821,96.174 384.226,94.200 386.200 " style="stroke: none; fill: black;">
                    </path></svg>