<svg id="svg-path" width="100%" height="100%" viewBox="0 0 512 512" version="1.1" xmlns="http://www.w3.org/2000/svg" style="fill-rule:evenodd;clip-rule:evenodd;stroke-linejoin:round;stroke-miterlimit:2;">
                        <path d="M158.044 245.577 C 156.144 246.402,153.136 248.184,151.361 249.538 C 147.360 252.590,143.732 252.648,135.544 249.791 C 125.421 246.258,122.535 248.557,118.935 263.021 C 116.992 270.828,116.954 271.680,118.407 274.727 C 120.102 278.281,125.266 281.990,128.527 281.996 C 132.160 282.003,134.754 279.155,138.883 270.623 C 144.895 258.203,147.453 258.070,154.639 269.806 C 163.074 283.582,164.337 284.134,175.660 279.000 C 179.299 277.350,183.037 276.000,183.966 276.000 C 184.895 276.000,188.436 277.130,191.834 278.511 C 197.475 280.803,198.301 280.901,201.318 279.640 C 203.136 278.881,206.715 275.812,209.270 272.821 C 217.764 262.879,220.784 262.785,229.655 272.184 C 242.064 285.334,243.690 286.058,251.463 281.892 C 255.566 279.693,258.763 279.690,269.000 281.876 C 277.779 283.750,278.112 283.499,287.968 267.543 C 293.464 258.646,297.811 259.111,304.322 269.290 C 306.180 272.194,309.190 275.824,311.012 277.356 C 314.066 279.927,314.719 280.081,319.412 279.340 C 326.216 278.266,331.405 278.400,337.870 279.817 C 344.866 281.350,347.282 280.196,352.150 273.000 C 358.130 264.158,360.044 262.000,361.902 262.000 C 364.361 262.000,367.329 265.548,370.437 272.204 C 375.155 282.305,381.681 285.606,386.548 280.354 C 389.398 277.279,389.586 274.515,387.459 266.968 C 386.611 263.961,385.510 259.925,385.012 258.000 C 384.513 256.075,382.514 253.037,380.568 251.250 C 377.229 248.183,376.604 248.000,369.483 248.000 C 365.332 248.000,360.488 247.396,358.718 246.657 C 356.948 245.918,353.845 245.004,351.821 244.625 C 348.651 244.031,347.683 244.341,344.821 246.864 C 342.995 248.474,340.201 252.288,338.613 255.340 C 337.025 258.392,334.446 262.115,332.882 263.614 C 330.386 266.005,329.728 266.197,327.511 265.187 C 326.121 264.554,323.525 261.912,321.742 259.317 C 319.959 256.722,317.071 253.001,315.324 251.049 L 312.148 247.500 300.324 247.313 C 293.821 247.210,285.589 246.985,282.030 246.813 L 275.561 246.500 270.910 253.000 C 264.239 262.324,259.577 267.000,256.951 267.000 C 254.842 267.000,251.404 263.896,241.204 252.784 C 237.019 248.225,234.515 247.631,227.352 249.497 C 219.722 251.484,218.873 251.426,212.808 248.500 C 209.958 247.125,206.526 246.000,205.181 246.000 C 202.437 246.000,196.625 251.539,190.990 259.526 C 188.164 263.532,186.840 264.562,184.187 264.817 C 181.453 265.081,180.307 264.495,177.447 261.372 C 175.551 259.302,174.000 257.248,174.000 256.807 C 174.000 255.363,166.822 245.975,164.954 244.976 C 162.631 243.732,162.214 243.769,158.044 245.577 " style="stroke: none; fill: black;">
                    </path></svg>