<svg id="svg-path" width="100%" height="100%" viewBox="0 0 512 512" version="1.1" xmlns="http://www.w3.org/2000/svg" style="fill-rule:evenodd;clip-rule:evenodd;stroke-linejoin:round;stroke-miterlimit:2;">
                        <path d="M364.602 34.140 C 357.182 37.071,354.301 39.565,350.299 46.523 C 345.996 54.006,344.110 55.129,331.000 58.027 C 325.775 59.182,318.640 60.998,315.145 62.063 C 308.297 64.150,291.484 64.683,283.172 63.076 C 277.653 62.010,258.221 65.634,250.000 69.263 C 245.053 71.447,224.980 87.919,214.955 98.021 C 209.688 103.328,204.238 107.728,200.500 109.688 C 193.699 113.255,164.535 126.000,163.174 126.000 C 162.192 126.000,151.589 131.509,148.651 133.545 C 143.098 137.394,138.933 149.238,140.967 155.400 C 142.446 159.882,148.344 162.854,158.221 164.094 C 167.565 165.267,168.441 165.587,169.928 168.366 C 171.018 170.402,170.648 172.051,167.026 181.316 C 162.351 193.271,159.000 208.247,159.000 217.179 C 159.000 220.987,159.922 225.836,161.535 230.510 C 169.465 253.483,170.157 296.717,163.067 326.187 C 158.621 344.670,157.711 351.988,158.617 362.000 C 159.090 367.225,159.482 381.251,159.489 393.168 C 159.499 413.680,159.387 414.989,157.382 417.699 C 148.416 429.819,149.007 435.763,160.381 447.873 C 165.051 452.845,168.021 457.233,170.907 463.422 C 175.218 472.666,183.089 482.138,187.834 483.792 C 191.234 484.978,194.428 483.803,196.531 480.593 C 197.871 478.548,198.049 476.698,197.483 470.664 C 196.994 465.439,197.132 463.037,197.951 462.530 C 200.135 461.180,204.026 463.043,209.639 468.126 C 212.724 470.920,216.880 473.897,218.874 474.741 C 224.005 476.914,231.999 478.974,235.349 478.988 C 239.689 479.006,244.676 476.196,246.007 472.982 C 247.549 469.261,245.954 465.927,238.927 458.188 C 228.295 446.478,214.044 416.026,210.759 398.000 C 210.208 394.975,209.571 380.800,209.344 366.500 C 208.909 339.124,208.758 340.558,213.893 323.505 C 215.051 319.657,216.501 312.907,217.114 308.505 C 217.727 304.102,218.636 298.025,219.133 295.000 C 219.631 291.975,220.385 283.875,220.809 277.000 C 221.233 270.125,222.149 263.471,222.845 262.214 C 223.542 260.953,225.453 259.659,227.107 259.329 C 233.005 258.149,238.366 251.528,246.569 235.293 C 252.229 224.092,255.866 218.270,260.377 213.189 C 263.744 209.396,267.267 204.876,268.203 203.146 C 269.245 201.222,270.690 200.000,271.922 200.000 C 275.035 200.000,282.063 210.257,284.179 217.890 C 286.337 225.673,288.723 228.415,295.212 230.570 C 301.369 232.616,304.706 236.959,308.823 248.289 C 311.654 256.080,314.993 263.826,320.710 275.863 C 322.990 280.663,323.909 281.530,329.469 284.132 C 342.366 290.168,354.595 292.264,361.753 289.668 C 370.335 286.555,373.049 279.938,369.000 272.000 C 366.288 266.684,366.462 265.013,370.250 259.992 C 379.416 247.841,379.399 244.722,370.076 229.000 C 368.282 225.975,365.741 222.360,364.428 220.968 C 363.116 219.575,359.750 213.780,356.948 208.091 C 351.134 196.284,350.949 195.849,346.318 183.000 C 338.798 162.136,336.000 153.495,336.000 151.132 C 336.000 147.301,338.697 145.172,346.410 142.913 C 366.571 137.009,373.987 132.804,379.756 124.000 C 386.809 113.239,388.754 100.658,385.399 87.500 C 384.558 84.200,383.420 79.700,382.872 77.500 C 381.678 72.711,382.474 67.629,385.084 63.382 C 387.865 58.857,387.488 53.116,383.840 44.425 C 381.164 38.051,380.038 36.521,376.502 34.448 C 371.630 31.593,371.084 31.579,364.602 34.140 M330.152 198.750 C 334.106 203.055,338.540 211.051,339.826 216.193 C 341.277 221.995,341.360 234.459,339.965 237.066 C 338.557 239.697,334.116 239.553,329.943 236.741 C 327.722 235.244,325.763 232.542,324.138 228.733 C 321.836 223.339,321.765 222.648,322.986 217.558 C 323.840 213.997,324.058 209.596,323.620 204.757 C 323.252 200.701,323.262 197.071,323.642 196.691 C 325.074 195.259,327.711 196.093,330.152 198.750 " style="stroke: none; fill: black;">
                    </path></svg>