<svg id="svg-path" width="100%" height="100%" viewBox="0 0 512 512" version="1.1" xmlns="http://www.w3.org/2000/svg" style="fill-rule:evenodd;clip-rule:evenodd;stroke-linejoin:round;stroke-miterlimit:2;">
                        <path d="M275.500 153.401 C 272.027 154.932,262.000 165.222,262.000 167.255 C 262.000 168.012,264.025 172.501,266.500 177.230 C 273.617 190.833,272.990 191.556,258.796 186.116 C 248.526 182.181,246.186 181.647,231.986 180.009 C 226.776 179.407,222.682 178.200,218.634 176.071 C 213.653 173.450,211.718 173.000,205.441 173.000 C 198.702 173.000,197.391 173.364,189.793 177.344 C 185.232 179.732,179.250 182.241,176.500 182.917 C 173.750 183.594,169.122 185.723,166.216 187.649 C 162.284 190.256,159.471 191.295,155.216 191.714 C 148.660 192.359,145.911 193.552,141.000 197.882 C 138.404 200.171,136.512 200.972,133.674 200.984 C 128.838 201.004,126.232 198.278,123.488 190.329 C 121.479 184.511,121.469 184.501,117.722 184.795 C 115.513 184.969,113.059 184.455,111.761 183.545 C 108.785 181.460,106.285 181.600,105.043 183.920 C 104.478 184.976,102.433 186.362,100.500 187.000 C 93.542 189.296,93.098 195.091,99.347 202.041 C 103.538 206.703,103.717 207.169,104.324 215.047 C 105.053 224.495,104.541 225.871,98.740 230.073 C 94.215 233.352,92.000 237.421,92.000 242.460 C 92.000 247.239,94.986 249.479,101.008 249.217 C 103.690 249.100,106.162 249.454,106.501 250.002 C 107.627 251.823,112.264 251.036,115.656 248.449 C 120.043 245.103,125.196 243.000,129.008 243.000 C 132.364 243.000,138.887 245.954,140.908 248.389 C 142.675 250.518,157.222 255.993,161.218 256.033 C 166.769 256.088,174.077 259.277,183.990 265.968 C 189.210 269.492,195.622 273.188,198.239 274.183 C 204.429 276.535,220.824 278.363,228.678 277.577 C 235.888 276.856,237.664 278.178,232.954 280.759 C 222.423 286.533,219.000 290.755,219.000 297.970 C 219.000 309.516,224.363 317.225,236.331 322.881 C 251.795 330.190,250.250 330.003,292.000 329.604 L 329.500 329.245 346.500 324.794 C 355.850 322.346,364.498 319.807,365.719 319.153 C 366.939 318.499,369.182 315.839,370.703 313.244 C 372.930 309.443,373.472 307.288,373.484 302.178 C 373.498 296.455,373.224 295.594,370.694 293.416 C 367.190 290.398,362.479 290.279,353.839 292.987 C 350.353 294.080,347.163 294.980,346.750 294.987 C 345.247 295.013,346.081 292.712,349.947 286.175 C 352.118 282.504,356.197 272.975,359.012 265.000 C 363.804 251.421,364.107 249.992,363.791 242.500 C 363.491 235.383,362.932 233.409,358.727 224.616 C 354.278 215.313,353.195 212.000,354.604 212.000 C 356.861 212.000,369.665 220.056,375.347 225.051 C 382.393 231.244,392.352 237.000,396.021 237.000 C 398.607 237.000,404.093 234.226,405.718 232.096 C 406.404 231.198,406.950 227.388,406.968 223.385 C 406.994 217.724,406.586 215.744,404.976 213.697 C 403.863 212.282,397.225 208.197,390.226 204.620 C 383.227 201.043,375.379 196.345,372.786 194.178 C 370.194 192.012,364.017 188.146,359.061 185.586 C 353.461 182.693,349.080 179.660,347.488 177.573 C 346.051 175.689,342.731 173.270,339.928 172.064 C 337.179 170.882,331.762 167.865,327.891 165.361 C 319.520 159.945,309.549 155.294,302.219 153.385 C 295.477 151.629,279.498 151.638,275.500 153.401 M318.755 304.250 C 318.278 305.697,314.000 306.585,314.000 305.236 C 314.000 303.808,315.175 303.000,317.250 303.000 C 318.336 303.000,318.988 303.542,318.755 304.250 " style="stroke: none; fill: black;">
                    </path></svg>