<svg id="svg-path" width="100%" height="100%" viewBox="0 0 512 512" version="1.1" xmlns="http://www.w3.org/2000/svg" style="fill-rule:evenodd;clip-rule:evenodd;stroke-linejoin:round;stroke-miterlimit:2;">
                        <path d="M279.275 186.971 C 271.927 188.717,261.000 199.304,261.000 204.677 C 261.000 206.001,263.250 211.321,266.000 216.500 C 271.692 227.219,272.223 230.000,268.576 230.000 C 266.465 230.000,257.049 226.644,247.500 222.487 C 245.850 221.769,241.800 220.920,238.500 220.599 C 218.006 218.611,215.964 218.186,210.709 214.811 C 205.964 211.764,204.799 211.472,196.091 211.147 C 185.014 210.734,181.101 211.709,173.866 216.686 C 170.816 218.784,165.635 221.112,161.739 222.135 C 154.615 224.005,153.093 224.681,145.404 229.383 C 141.297 231.895,134.597 233.452,125.728 233.956 C 125.303 233.980,123.053 235.736,120.728 237.858 C 115.391 242.728,112.946 244.000,108.924 244.000 C 104.423 244.000,100.153 239.119,97.544 230.991 L 95.460 224.500 91.480 224.752 C 88.887 224.917,86.030 224.226,83.285 222.772 L 79.070 220.540 75.785 223.701 C 73.978 225.439,71.252 227.169,69.727 227.545 C 66.208 228.412,64.000 231.541,64.000 235.662 C 64.000 237.987,65.128 240.182,68.069 243.580 C 74.288 250.765,74.722 251.830,75.408 261.585 C 76.139 271.985,75.206 274.070,68.005 278.117 C 63.953 280.394,61.816 284.134,60.472 291.296 C 59.870 294.505,60.165 295.318,62.928 298.082 C 65.894 301.048,66.362 301.185,71.369 300.560 C 75.525 300.040,76.948 300.232,77.957 301.449 C 80.077 304.002,83.021 303.252,90.448 298.267 C 96.914 293.927,98.004 293.532,103.569 293.517 C 108.707 293.503,110.297 293.960,113.934 296.500 C 124.391 303.804,131.481 306.624,145.500 309.056 C 153.338 310.416,156.601 311.899,166.000 318.374 C 169.575 320.837,176.429 324.884,181.231 327.366 C 189.417 331.598,190.727 331.953,202.190 333.059 C 208.914 333.707,217.662 333.944,221.628 333.585 C 229.839 332.841,231.878 334.046,227.001 336.759 C 213.764 344.123,210.044 348.778,210.016 358.014 C 209.978 370.790,216.796 380.451,230.500 387.040 C 246.403 394.686,250.356 395.518,270.000 395.353 C 292.965 395.161,316.542 395.122,326.500 395.261 C 332.768 395.348,337.639 394.558,349.000 391.611 C 356.975 389.542,366.200 387.214,369.500 386.438 C 380.564 383.837,382.391 382.947,385.995 378.406 C 390.333 372.939,391.827 368.928,391.920 362.500 C 392.005 356.632,389.324 351.454,385.434 349.975 C 381.372 348.431,377.399 348.811,368.450 351.601 C 363.861 353.032,359.613 354.038,359.008 353.836 C 358.383 353.628,360.024 349.951,362.821 345.298 C 368.603 335.678,369.688 333.128,376.124 314.037 C 381.091 299.306,382.229 291.208,380.093 285.797 C 379.595 284.534,378.216 281.025,377.029 278.000 C 375.842 274.975,373.249 269.238,371.266 265.252 C 369.284 261.266,367.953 257.714,368.308 257.359 C 369.253 256.414,378.208 260.359,383.723 264.150 C 386.350 265.957,391.791 270.303,395.812 273.808 C 403.270 280.309,413.881 286.000,418.544 286.000 C 421.723 286.000,424.647 284.551,428.250 281.191 C 430.832 278.782,431.000 278.109,431.000 270.141 L 431.000 261.657 426.696 257.579 C 424.179 255.193,417.434 251.054,410.446 247.606 C 403.876 244.365,395.575 239.355,392.000 236.473 C 388.425 233.591,381.225 229.108,376.000 226.511 C 369.481 223.270,365.052 220.263,361.885 216.925 C 358.910 213.789,354.824 210.937,350.385 208.899 C 346.598 207.161,341.415 204.222,338.866 202.369 C 336.317 200.516,333.946 199.000,333.596 199.000 C 333.246 199.000,331.210 197.895,329.072 196.545 C 316.015 188.303,292.609 183.803,279.275 186.971 M327.000 365.500 C 327.000 366.513,325.986 367.000,323.878 367.000 C 321.215 367.000,320.939 366.779,322.000 365.500 C 322.685 364.675,324.090 364.000,325.122 364.000 C 326.155 364.000,327.000 364.675,327.000 365.500 " style="stroke: none; fill: black;">
                    </path></svg>