<svg id="svg-path" width="100%" height="100%" viewBox="0 0 512 512" version="1.1" xmlns="http://www.w3.org/2000/svg" style="fill-rule:evenodd;clip-rule:evenodd;stroke-linejoin:round;stroke-miterlimit:2;">
                        <path d="M198.500 139.658 C 185.187 141.246,184.000 141.922,184.000 147.916 C 184.000 152.599,186.436 155.019,191.079 154.947 C 195.408 154.881,208.204 152.610,209.797 151.625 C 210.470 151.210,211.000 148.720,211.000 145.976 C 211.000 139.282,209.214 138.379,198.500 139.658 M132.500 153.203 C 131.400 153.831,127.575 156.792,124.000 159.783 C 117.315 165.375,113.983 169.951,114.022 173.484 C 114.049 175.989,117.229 182.620,120.101 186.163 C 124.389 191.451,120.403 196.000,111.481 196.000 C 109.048 196.000,103.599 196.760,99.372 197.689 C 90.097 199.727,84.641 204.067,83.463 210.343 C 82.516 215.392,87.487 232.974,93.562 246.063 C 96.003 251.323,98.015 256.273,98.032 257.063 C 98.083 259.326,112.529 286.105,115.843 290.080 C 117.918 292.569,123.199 295.893,133.164 300.980 C 141.049 305.006,148.625 309.077,150.000 310.028 C 155.389 313.752,204.872 337.960,211.000 339.870 C 220.676 342.885,230.354 344.000,246.862 344.000 C 259.083 344.000,262.708 343.649,267.500 342.000 C 273.862 339.811,280.226 339.481,287.674 340.955 C 290.328 341.480,296.550 342.413,301.500 343.028 C 307.251 343.742,314.472 345.609,321.500 348.198 C 330.629 351.560,334.115 352.332,342.000 352.734 C 347.225 353.001,353.975 352.723,357.000 352.116 C 386.517 346.196,390.731 344.624,395.978 337.572 C 400.816 331.071,401.644 329.408,403.570 322.332 C 407.891 306.450,408.178 303.532,407.074 286.732 C 406.039 270.993,405.943 270.529,402.050 262.592 C 395.950 250.153,380.049 226.865,376.041 224.500 C 371.138 221.607,366.717 216.908,363.174 210.825 C 358.276 202.414,356.619 199.779,354.834 197.566 C 347.431 188.384,345.440 186.285,342.679 184.750 C 338.622 182.495,336.070 182.546,325.329 185.097 C 318.260 186.776,314.882 187.060,308.384 186.519 C 295.536 185.449,287.015 188.664,276.000 198.740 C 272.425 202.010,268.517 205.206,267.316 205.843 C 264.076 207.559,258.594 207.246,255.885 205.191 C 247.578 198.889,244.679 198.298,212.500 196.358 C 197.772 195.470,194.171 193.784,180.852 181.534 C 163.973 166.010,159.121 162.056,150.915 157.134 C 141.975 151.773,136.902 150.690,132.500 153.203 M422.751 153.981 C 419.784 156.315,419.016 160.211,420.132 167.271 C 421.100 173.393,423.681 176.333,428.086 176.333 C 432.337 176.333,434.000 173.837,434.000 167.458 C 434.000 161.153,432.437 156.080,429.777 153.750 C 427.208 151.500,425.848 151.545,422.751 153.981 M329.271 156.095 C 328.086 156.534,326.320 158.108,325.347 159.594 L 323.577 162.295 327.462 165.654 C 331.233 168.913,340.987 174.000,343.466 174.000 C 345.167 174.000,348.000 170.684,348.000 168.693 C 348.000 166.939,336.014 156.498,333.135 155.746 C 332.195 155.500,330.456 155.657,329.271 156.095 M396.011 231.790 C 392.792 234.396,393.046 240.015,396.614 245.164 C 399.859 249.847,404.924 254.000,407.390 254.000 C 409.873 254.000,414.000 249.468,414.000 246.741 C 414.000 241.707,404.233 230.000,400.034 230.000 C 399.037 230.000,397.227 230.806,396.011 231.790 M426.536 353.607 C 424.593 355.550,424.965 360.951,427.607 369.173 C 429.458 374.928,430.934 376.227,435.167 375.818 C 439.625 375.388,440.811 372.043,439.070 364.806 C 436.894 355.757,434.932 352.543,431.372 352.196 C 429.424 352.006,427.607 352.536,426.536 353.607 M181.242 389.034 C 177.625 390.488,176.627 393.885,177.948 400.247 C 178.578 403.282,180.085 407.730,181.296 410.132 C 183.158 413.823,184.023 414.550,186.870 414.822 C 189.455 415.070,190.911 414.502,193.120 412.385 C 196.552 409.097,196.675 406.983,193.968 397.892 C 191.274 388.847,187.772 386.410,181.242 389.034 M291.223 407.557 C 286.570 410.815,289.987 420.604,298.183 427.501 C 301.414 430.220,305.554 430.297,307.225 427.671 C 310.490 422.538,301.227 406.000,295.088 406.000 C 294.184 406.000,292.445 406.701,291.223 407.557 " style="stroke: none; fill: black;">
                    </path></svg>