<svg id="svg-path" width="100%" height="100%" viewBox="0 0 512 512" version="1.1" xmlns="http://www.w3.org/2000/svg" style="fill-rule:evenodd;clip-rule:evenodd;stroke-linejoin:round;stroke-miterlimit:2;">
                        <path d="M278.913 79.927 C 273.746 85.324,270.000 92.360,270.000 96.669 C 270.000 97.392,268.425 100.046,266.500 102.568 C 264.575 105.090,263.000 108.007,263.000 109.050 C 263.000 110.093,261.118 112.981,258.817 115.467 L 254.634 119.987 244.567 119.743 C 235.549 119.525,233.980 119.761,229.507 122.000 C 226.760 123.375,220.910 127.890,216.507 132.034 C 212.103 136.178,206.700 140.885,204.500 142.493 C 199.539 146.122,198.273 147.717,197.435 151.398 C 197.068 153.013,194.266 156.775,191.103 159.898 C 186.796 164.152,184.853 167.065,183.031 172.000 C 181.712 175.575,178.867 180.525,176.711 183.000 C 174.554 185.475,171.474 189.975,169.866 193.000 C 166.315 199.679,161.033 208.316,160.080 209.000 C 155.619 212.204,154.351 224.634,158.012 229.288 C 162.441 234.919,168.736 233.548,175.547 225.470 C 180.813 219.224,191.114 209.000,192.142 209.000 C 193.672 209.000,194.154 213.714,193.044 217.835 C 192.146 221.172,192.254 222.901,193.622 227.083 C 195.297 232.205,195.293 232.252,192.652 237.636 C 190.314 242.404,190.000 244.241,190.000 253.157 C 190.000 258.719,189.489 266.044,188.864 269.436 C 187.952 274.383,188.051 278.459,189.364 290.051 C 191.445 308.418,191.424 309.596,188.951 313.068 C 187.297 315.392,186.729 318.406,186.001 328.723 C 185.506 335.750,184.429 347.800,183.608 355.500 C 181.660 373.777,181.494 384.715,182.933 400.000 C 184.312 414.650,186.166 423.450,188.976 428.694 C 190.089 430.771,191.000 433.249,191.000 434.201 C 191.000 435.153,191.760 437.527,192.690 439.476 C 195.261 444.868,194.017 445.451,179.201 445.796 C 172.215 445.959,165.488 446.598,164.250 447.215 C 161.082 448.796,161.118 454.823,164.314 457.826 C 166.377 459.763,167.734 460.000,176.784 460.000 C 182.370 460.000,191.701 459.293,197.521 458.428 C 203.559 457.531,211.622 457.040,216.301 457.284 C 220.811 457.519,234.850 458.232,247.500 458.867 C 260.150 459.502,273.236 460.467,276.580 461.011 C 279.924 461.554,290.877 462.297,300.921 462.661 C 316.077 463.210,319.335 463.082,320.076 461.911 C 321.488 459.680,321.145 453.366,319.540 452.033 C 317.742 450.541,302.229 449.086,287.500 449.028 C 281.450 449.004,272.675 448.516,268.000 447.944 C 263.325 447.371,250.542 446.551,239.594 446.121 L 219.689 445.340 217.344 442.614 C 215.974 441.020,214.985 438.562,214.964 436.694 C 214.908 431.671,212.533 422.975,209.682 417.354 C 206.328 410.743,204.527 400.133,206.152 396.566 C 206.795 395.155,207.687 394.000,208.135 394.000 C 210.137 394.000,212.390 386.889,213.046 378.500 C 213.564 371.869,214.567 367.526,216.857 362.000 C 218.566 357.875,220.845 350.372,221.921 345.327 C 223.036 340.101,224.973 334.419,226.423 332.122 C 227.823 329.905,229.865 325.033,230.962 321.295 C 236.675 301.823,238.609 298.058,240.486 302.750 C 241.854 306.170,244.000 315.133,244.000 317.430 C 244.000 318.712,245.092 322.662,246.426 326.206 C 250.915 338.134,252.583 361.005,250.584 383.222 C 249.607 394.069,249.979 395.129,255.574 397.466 C 259.339 399.039,260.466 401.643,259.025 405.433 C 257.716 408.876,257.713 413.595,259.017 416.032 C 259.576 417.077,261.806 418.409,263.972 418.992 C 266.137 419.575,269.167 421.102,270.705 422.386 C 272.242 423.669,274.914 425.443,276.642 426.329 C 278.370 427.215,281.266 429.811,283.078 432.099 C 286.843 436.852,291.166 439.000,296.968 439.000 C 301.267 439.000,305.000 436.381,305.000 433.366 C 305.000 432.468,301.862 428.429,298.027 424.392 C 294.193 420.355,289.604 414.228,287.830 410.776 L 284.605 404.500 284.886 382.000 C 285.041 369.625,285.596 357.250,286.118 354.500 C 287.461 347.433,288.034 302.346,287.050 281.244 C 286.252 264.141,286.738 253.629,289.095 236.994 C 289.977 230.773,289.891 228.720,288.594 224.994 C 286.468 218.889,286.606 213.692,289.020 208.960 C 291.308 204.475,294.050 203.783,295.793 207.250 C 296.415 208.488,298.524 214.179,300.480 219.897 C 302.435 225.616,305.265 232.277,306.768 234.701 C 312.636 244.164,316.490 249.757,321.445 256.000 C 324.283 259.575,327.086 263.632,327.675 265.016 C 328.694 267.414,336.459 277.140,342.173 283.176 C 347.743 289.060,360.000 285.673,360.000 278.250 C 360.000 275.637,358.849 273.093,350.380 257.000 C 341.291 239.727,337.564 230.031,334.524 215.756 C 332.725 207.309,331.324 203.502,327.972 197.954 C 323.933 191.268,323.670 190.359,322.988 180.698 C 322.266 170.467,321.634 168.308,315.812 156.199 C 312.903 150.146,312.853 149.820,314.547 147.949 C 315.516 146.877,317.380 146.000,318.687 146.000 C 322.232 146.000,327.821 143.387,332.530 139.529 C 337.427 135.516,346.832 122.091,347.665 117.924 C 347.983 116.336,347.455 111.541,346.493 107.269 L 344.744 99.500 335.770 90.774 C 325.244 80.540,318.820 77.000,310.772 77.000 C 307.829 77.000,302.829 76.325,299.661 75.500 C 296.494 74.675,291.807 74.000,289.245 74.000 C 284.865 74.000,284.251 74.352,278.913 79.927 " style="stroke: none; fill: black;">
                    </path></svg>