<svg id="svg-path" width="100%" height="100%" viewBox="0 0 512 512" version="1.1" xmlns="http://www.w3.org/2000/svg" style="fill-rule:evenodd;clip-rule:evenodd;stroke-linejoin:round;stroke-miterlimit:2;">
                        <path d="M251.000 128.030 C 215.749 128.615,211.482 129.199,202.000 134.728 C 195.139 138.729,186.110 148.369,178.328 160.000 C 165.853 178.648,164.698 183.008,165.607 208.000 C 166.401 229.844,166.572 245.579,166.106 254.000 C 165.265 269.187,166.962 282.754,171.547 297.500 C 173.942 305.200,176.876 315.775,178.068 321.000 C 181.427 335.721,186.609 350.424,192.823 362.863 C 199.523 376.274,203.555 380.413,216.094 386.750 C 223.391 390.438,225.354 391.000,230.936 391.000 C 234.474 391.000,239.873 390.356,242.934 389.569 C 245.995 388.782,250.525 387.626,253.000 387.000 C 257.631 385.828,260.323 384.111,271.027 375.500 C 277.427 370.351,277.345 368.638,270.806 370.918 C 269.098 371.513,266.723 372.000,265.526 372.000 C 264.330 372.000,258.660 374.422,252.925 377.382 C 246.202 380.853,240.605 383.021,237.164 383.488 C 232.356 384.140,231.191 383.889,225.406 380.953 C 221.295 378.866,216.013 374.781,210.721 369.597 C 202.823 361.859,202.206 360.923,196.816 348.500 C 193.714 341.350,190.881 333.700,190.520 331.500 C 189.253 323.778,187.073 314.456,185.492 310.000 C 183.042 303.096,176.907 279.170,176.004 273.000 C 175.561 269.975,174.675 264.575,174.035 261.000 C 173.148 256.042,173.151 253.020,174.047 248.261 C 174.693 244.829,174.952 241.317,174.622 240.457 C 174.291 239.596,173.974 228.903,173.917 216.696 C 173.820 195.905,173.953 194.183,176.008 189.500 C 177.215 186.750,178.859 182.330,179.661 179.678 C 182.654 169.788,189.494 159.569,198.368 151.729 C 209.507 141.889,214.538 140.579,241.500 140.497 C 251.950 140.465,265.000 140.059,270.500 139.593 C 278.577 138.909,281.750 139.062,287.000 140.390 C 296.834 142.877,305.148 147.387,311.650 153.763 C 317.216 159.222,317.635 159.985,320.282 169.500 C 325.320 187.614,327.000 198.254,327.000 212.058 C 327.000 224.513,328.774 236.014,332.006 244.516 C 332.628 246.152,333.718 250.565,334.429 254.321 C 335.844 261.804,335.616 263.406,330.493 282.000 C 327.920 291.336,326.745 299.128,325.061 318.000 C 324.152 328.193,322.048 334.642,316.903 343.003 C 314.166 347.452,312.719 348.658,307.096 351.177 C 299.577 354.547,296.000 357.483,296.000 360.286 C 296.000 361.976,296.478 362.138,299.750 361.556 C 306.098 360.426,314.871 356.672,319.800 352.976 C 323.408 350.270,325.519 347.451,328.884 340.844 C 333.166 332.437,333.288 331.926,334.158 318.868 C 335.478 299.043,336.629 290.996,339.163 283.891 C 341.179 278.239,341.446 275.593,341.471 261.000 C 341.494 247.681,341.181 243.825,339.845 241.000 C 332.144 224.712,331.772 222.408,330.150 181.000 C 329.344 160.428,327.900 154.076,322.123 145.679 C 319.318 141.602,317.444 140.336,306.253 134.959 C 294.660 129.390,291.367 128.234,285.500 127.679 C 284.400 127.575,268.875 127.733,251.000 128.030 " style="stroke: none; fill: black;">
                    </path></svg>