<svg id="svg-path" width="100%" height="100%" viewBox="0 0 512 512" version="1.1" xmlns="http://www.w3.org/2000/svg" style="fill-rule:evenodd;clip-rule:evenodd;stroke-linejoin:round;stroke-miterlimit:2;">
                        <path d="M94.667 135.816 C 91.872 138.904,91.672 143.314,93.898 152.795 C 95.896 161.303,95.928 162.200,94.504 169.641 C 92.541 179.902,92.570 180.336,95.466 183.777 C 97.529 186.229,98.926 186.812,104.012 187.343 C 112.147 188.194,113.513 189.093,116.919 195.840 C 122.516 206.927,126.627 210.976,138.089 216.691 C 143.815 219.546,155.025 224.208,163.000 227.051 C 180.073 233.136,179.414 232.813,188.608 239.612 C 197.501 246.189,200.000 249.272,200.000 253.668 C 200.000 260.516,189.541 276.434,181.358 282.042 C 176.320 285.494,162.250 294.862,153.426 300.639 C 150.635 302.466,143.391 308.425,137.330 313.880 C 128.620 321.718,125.344 325.446,121.716 331.649 C 119.190 335.967,116.692 340.643,116.166 342.041 C 114.894 345.417,113.331 346.582,108.254 347.940 C 103.872 349.111,100.475 351.927,99.416 355.266 C 99.082 356.318,99.601 360.546,100.570 364.661 C 102.266 371.862,102.263 372.430,100.474 379.821 C 96.874 394.703,98.650 404.000,105.094 404.000 C 106.771 404.000,108.727 403.415,109.442 402.701 C 111.508 400.634,114.000 395.295,114.000 392.933 C 114.000 389.138,123.065 369.003,125.489 367.415 C 126.730 366.602,133.652 365.057,140.873 363.982 C 155.658 361.780,158.691 360.749,165.356 355.662 C 167.935 353.693,171.723 351.806,173.773 351.468 C 175.823 351.130,183.477 349.006,190.783 346.747 C 206.710 341.824,214.969 336.967,218.152 330.652 C 219.304 328.369,220.327 326.401,220.427 326.279 C 220.527 326.158,227.749 324.263,236.476 322.069 C 251.369 318.324,252.595 317.833,256.422 314.081 C 258.665 311.882,262.310 309.445,264.521 308.666 C 266.733 307.887,270.266 306.081,272.372 304.651 C 277.137 301.418,281.615 300.537,288.306 301.517 C 291.163 301.936,298.675 302.192,305.000 302.087 C 315.003 301.920,320.244 301.144,329.658 298.436 C 333.651 297.287,336.000 301.032,336.000 308.550 C 336.000 316.109,334.239 320.308,330.189 322.402 C 324.290 325.453,314.473 327.238,302.879 327.369 C 291.268 327.500,291.251 327.496,283.115 323.543 L 274.971 319.586 271.736 321.500 C 269.956 322.552,266.751 323.433,264.613 323.457 C 261.780 323.488,260.436 324.042,259.654 325.500 C 259.063 326.600,257.732 328.777,256.695 330.338 C 253.811 334.680,255.116 339.212,260.811 344.626 L 265.500 349.083 275.238 348.434 C 283.791 347.865,285.440 348.028,288.786 349.771 C 294.141 352.563,301.146 353.291,311.012 352.082 C 318.822 351.124,338.694 346.450,346.973 343.623 C 351.557 342.058,356.573 335.362,358.540 328.184 C 359.396 325.058,361.248 319.800,362.655 316.500 C 366.713 306.984,367.844 303.748,368.460 299.894 C 368.777 297.910,370.443 294.164,372.162 291.569 C 374.812 287.569,375.414 285.473,376.122 277.804 C 377.308 264.955,378.264 264.189,387.476 268.707 C 392.620 271.230,393.284 271.327,397.248 270.130 C 399.586 269.424,404.425 268.180,408.000 267.367 C 417.040 265.308,422.325 262.426,428.336 256.276 C 434.977 249.483,436.941 245.145,436.974 237.200 C 437.006 229.524,435.621 226.643,429.072 220.754 C 421.366 213.826,416.250 211.848,404.505 211.253 C 391.409 210.590,384.309 212.065,378.918 216.568 C 371.935 222.403,371.189 222.047,356.500 205.867 C 349.984 198.690,338.941 189.188,331.898 184.699 C 319.410 176.739,309.249 173.018,294.606 171.044 C 290.264 170.459,284.189 169.344,281.106 168.567 C 268.670 165.434,261.298 164.858,255.436 166.562 C 251.274 167.772,248.339 167.962,243.228 167.354 C 233.700 166.220,230.959 166.720,227.260 170.266 C 223.304 174.059,222.319 178.434,224.334 183.258 C 226.801 189.161,228.310 189.533,248.602 189.231 C 272.987 188.869,291.001 191.290,299.469 196.069 C 305.509 199.478,308.948 204.525,308.963 210.000 C 308.972 213.602,308.040 214.625,302.642 216.939 C 295.025 220.204,291.234 220.431,283.464 218.085 C 279.634 216.929,273.268 215.583,269.317 215.094 C 264.129 214.451,261.213 213.503,258.817 211.680 C 256.993 210.292,254.150 208.848,252.500 208.473 C 240.400 205.718,230.766 201.623,221.682 195.375 C 218.961 193.503,215.556 191.712,214.117 191.396 C 207.799 190.007,204.954 188.675,198.921 184.285 C 192.634 179.710,192.301 179.598,183.000 178.934 C 173.656 178.266,173.269 178.135,159.500 170.936 L 145.500 163.617 137.000 163.649 C 131.657 163.669,126.915 164.284,124.232 165.303 C 121.885 166.194,119.306 166.671,118.500 166.362 C 117.111 165.828,111.339 154.772,107.343 144.989 C 105.033 139.335,103.105 136.639,100.316 135.159 C 97.374 133.598,96.591 133.689,94.667 135.816 " style="stroke: none; fill: black;">
                    </path></svg>