<svg id="svg-path" width="100%" height="100%" viewBox="0 0 512 512" version="1.1" xmlns="http://www.w3.org/2000/svg" style="fill-rule:evenodd;clip-rule:evenodd;stroke-linejoin:round;stroke-miterlimit:2;">
                        <path d="M372.502 28.066 C 370.854 28.557,367.834 30.769,365.792 32.980 C 363.751 35.191,361.457 37.000,360.695 37.000 C 358.237 37.000,356.189 40.338,354.167 47.639 C 353.079 51.566,351.704 55.685,351.111 56.792 C 349.794 59.253,343.423 62.417,335.821 64.384 C 328.834 66.192,326.349 67.479,325.010 69.982 C 324.440 71.047,322.067 72.763,319.737 73.797 C 313.756 76.448,312.613 78.159,313.329 83.387 C 314.345 90.799,315.632 92.519,321.556 94.386 C 324.513 95.318,327.199 96.513,327.525 97.040 C 328.308 98.308,338.327 98.224,344.000 96.903 C 351.158 95.235,357.967 96.577,365.172 101.076 C 378.954 109.682,393.303 115.000,402.741 115.000 C 407.873 115.000,410.551 114.344,416.345 111.667 C 426.009 107.202,430.350 102.151,432.447 92.935 C 434.471 84.032,434.410 81.455,431.937 71.667 C 428.346 57.450,418.228 43.426,406.679 36.658 C 402.974 34.486,378.275 26.760,376.080 27.086 C 375.761 27.133,374.151 27.574,372.502 28.066 M384.015 40.860 C 385.932 41.883,388.625 43.051,390.000 43.456 C 394.773 44.860,404.520 49.956,408.099 52.918 C 410.078 54.556,413.311 58.966,415.282 62.717 C 419.406 70.565,423.540 85.713,422.590 89.497 C 421.470 93.962,415.506 99.533,409.915 101.339 C 398.802 104.928,392.098 103.180,376.000 92.498 C 372.425 90.126,366.575 87.199,363.000 85.995 C 356.355 83.755,355.915 83.748,339.298 85.605 C 332.156 86.403,327.000 84.641,327.000 81.401 C 327.000 78.720,326.753 78.851,340.000 74.489 C 354.064 69.857,358.914 66.657,360.448 61.000 C 360.821 59.625,361.536 57.600,362.037 56.500 C 362.539 55.400,363.877 51.953,365.012 48.841 C 367.358 42.409,368.129 41.572,373.000 40.180 C 378.218 38.689,380.174 38.810,384.015 40.860 M250.000 55.949 C 243.380 59.467,240.263 65.044,238.090 77.254 C 236.333 87.132,236.587 86.961,224.403 86.460 C 213.045 85.994,212.097 86.243,205.678 91.387 C 202.777 93.712,200.729 94.494,197.178 94.632 C 194.605 94.731,191.959 94.855,191.297 94.906 C 189.556 95.042,177.568 113.603,171.469 125.606 C 165.718 136.924,164.455 141.435,165.940 145.343 C 167.210 148.682,174.162 153.707,179.404 155.075 C 182.215 155.808,184.912 157.656,188.000 160.960 C 192.516 165.794,197.254 167.982,203.231 167.994 C 206.941 168.002,207.708 171.467,205.992 180.475 C 202.203 200.364,205.283 239.611,211.191 246.730 C 213.061 248.984,212.366 262.942,209.811 274.429 C 209.170 277.309,208.663 291.647,208.589 308.929 C 208.485 333.484,208.179 339.433,206.788 344.000 C 204.921 350.124,202.155 373.641,201.317 390.500 C 201.017 396.550,201.357 408.700,202.074 417.500 C 202.791 426.300,203.405 441.600,203.439 451.500 C 203.498 468.991,203.571 469.604,205.996 473.191 C 209.817 478.840,218.966 480.056,223.920 475.573 C 227.038 472.750,228.215 463.590,226.433 456.000 C 224.205 446.506,223.549 432.819,224.927 424.589 C 227.301 410.417,230.152 399.356,233.150 392.689 C 237.227 383.623,238.974 376.734,238.988 369.664 C 238.995 366.454,239.652 361.054,240.449 357.664 C 243.138 346.224,245.026 336.513,245.013 334.185 C 245.006 332.912,246.012 329.542,247.250 326.697 C 248.488 323.851,250.850 317.467,252.500 312.511 C 254.961 305.120,255.895 303.444,257.698 303.187 C 259.394 302.946,260.357 303.779,261.917 306.836 C 264.443 311.790,270.758 331.042,272.004 337.593 C 272.518 340.292,273.861 347.363,274.988 353.307 C 276.116 359.251,278.869 369.089,281.107 375.170 C 285.856 388.076,287.636 393.975,288.451 399.500 C 289.321 405.404,290.566 408.732,295.205 417.551 C 298.733 424.258,299.487 426.749,300.034 433.500 C 300.899 444.185,304.519 460.439,307.272 466.000 C 310.254 472.024,315.502 474.765,320.935 473.138 C 328.712 470.808,330.148 465.044,325.629 454.306 C 320.899 443.068,319.797 435.769,317.961 403.500 C 316.307 374.418,315.467 368.500,311.128 355.360 C 307.318 343.821,307.166 342.892,308.061 336.576 C 308.646 332.444,308.651 322.098,308.075 309.216 C 307.091 287.206,306.392 283.623,299.886 267.224 C 296.809 259.466,296.347 254.477,298.074 247.622 C 298.919 244.265,298.813 242.066,297.574 237.284 C 295.361 228.747,295.563 222.746,298.230 217.710 C 300.224 213.946,300.523 211.542,301.054 195.000 C 301.381 184.825,302.159 174.025,302.785 171.000 C 307.846 146.521,307.851 139.662,302.813 131.747 C 299.412 126.404,299.631 124.363,303.707 123.399 C 309.430 122.044,313.445 115.519,311.145 111.309 C 310.602 110.314,307.677 106.953,304.645 103.839 C 298.272 97.296,296.042 93.224,293.507 83.500 C 289.510 68.169,278.662 57.887,263.535 55.091 C 255.725 53.647,254.141 53.748,250.000 55.949 M235.577 92.125 C 235.960 92.744,236.898 99.547,237.661 107.243 C 239.503 125.804,240.507 124.741,223.308 122.449 C 218.762 121.843,217.288 122.145,211.446 124.878 C 204.133 128.301,201.804 128.674,200.155 126.687 C 197.905 123.975,208.079 108.440,212.745 107.464 C 219.156 106.123,223.562 103.146,228.000 97.155 C 232.461 91.133,234.236 89.955,235.577 92.125 " style="stroke: none; fill: black;">
                    </path></svg>