<svg id="svg-path" width="100%" height="100%" viewBox="0 0 512 512" version="1.1" xmlns="http://www.w3.org/2000/svg" style="fill-rule:evenodd;clip-rule:evenodd;stroke-linejoin:round;stroke-miterlimit:2;">
                        <path d="M255.963 46.648 C 255.117 46.877,253.013 49.222,251.287 51.859 C 245.212 61.138,243.463 65.855,231.578 105.000 C 230.159 109.675,228.562 116.650,228.029 120.500 C 226.631 130.609,223.092 147.625,219.087 163.500 C 216.920 172.089,216.383 184.248,217.985 188.461 C 218.527 189.886,220.160 197.903,221.614 206.276 C 223.069 214.649,224.623 223.525,225.070 226.000 C 226.809 235.651,226.230 240.966,222.868 246.205 L 219.736 251.086 222.494 257.574 C 224.623 262.584,225.099 264.910,224.581 267.781 C 224.212 269.827,223.657 274.875,223.346 279.000 C 222.761 286.777,220.437 296.676,217.626 303.372 C 215.250 309.031,215.611 312.576,219.203 318.855 C 221.974 323.699,222.456 325.601,222.779 332.976 C 223.101 340.332,222.731 342.852,220.076 351.373 C 217.959 358.167,216.995 363.313,216.985 367.873 C 216.977 371.518,216.291 376.453,215.460 378.839 C 214.213 382.418,214.045 387.166,214.498 405.925 C 215.038 428.233,215.107 428.823,218.086 436.585 C 219.758 440.938,222.276 446.473,223.684 448.885 C 225.453 451.917,226.534 455.774,227.187 461.385 C 228.783 475.088,236.128 488.049,244.961 492.750 C 249.645 495.243,253.970 495.582,259.101 493.858 C 264.025 492.205,266.000 490.118,266.000 486.568 C 266.000 482.780,264.516 480.510,256.266 471.675 C 246.861 461.602,245.937 457.644,251.095 449.512 C 252.797 446.828,254.622 443.493,255.151 442.102 C 257.477 435.985,259.827 419.259,260.434 404.500 C 260.796 395.700,261.703 381.750,262.448 373.500 C 264.272 353.329,266.207 348.632,277.169 337.772 C 281.840 333.145,286.534 329.420,288.353 328.899 C 298.478 325.995,326.319 331.452,331.947 337.444 C 334.035 339.666,334.105 340.176,333.032 345.345 C 331.686 351.831,332.258 355.657,336.194 366.500 C 342.806 384.716,344.196 393.936,341.471 401.500 C 340.679 403.700,340.023 407.334,340.015 409.576 C 339.991 416.173,344.048 418.703,357.500 420.477 C 360.250 420.839,364.719 421.781,367.432 422.568 C 373.059 424.202,382.684 424.451,386.349 423.057 C 389.329 421.924,390.527 418.803,388.939 416.313 C 388.303 415.316,383.673 412.000,378.650 408.945 C 367.470 402.144,363.000 396.890,363.000 390.552 C 363.000 388.192,364.350 381.716,366.000 376.162 C 368.747 366.913,368.999 364.819,368.985 351.282 C 368.958 324.316,364.804 314.802,348.500 304.371 C 340.698 299.378,339.213 298.603,332.837 296.186 C 317.489 290.369,313.236 287.374,309.309 279.620 C 307.882 276.804,305.992 273.395,305.108 272.044 C 303.930 270.245,303.463 266.903,303.362 259.544 C 303.278 253.366,302.600 247.575,301.603 244.500 C 299.050 236.626,296.905 218.394,297.968 213.600 C 299.623 206.130,302.206 177.579,301.655 172.833 C 301.358 170.266,299.939 164.763,298.504 160.603 C 296.874 155.882,294.967 146.175,293.429 134.770 C 290.935 116.275,289.251 108.627,286.518 103.388 C 285.690 101.799,285.010 99.985,285.006 99.355 C 285.003 98.726,283.234 93.776,281.076 88.355 C 278.918 82.935,275.501 74.239,273.483 69.032 C 268.466 56.089,265.546 50.575,262.398 48.099 C 259.757 46.021,258.950 45.839,255.963 46.648 M263.901 80.601 C 266.477 83.877,267.568 89.458,266.213 92.433 C 265.029 95.031,258.953 96.976,255.000 96.022 C 250.919 95.036,251.096 91.614,255.764 81.250 C 257.598 77.177,260.995 76.907,263.901 80.601 " style="stroke: none; fill: black;">
                    </path></svg>