<svg id="svg-path" width="100%" height="100%" viewBox="0 0 512 512" version="1.1" xmlns="http://www.w3.org/2000/svg" style="fill-rule:evenodd;clip-rule:evenodd;stroke-linejoin:round;stroke-miterlimit:2;">
                        <path d="M197.223 84.607 C 195.420 85.525,192.833 87.599,191.473 89.215 C 189.331 91.760,189.000 93.142,189.000 99.531 C 189.000 105.048,188.348 108.623,186.414 113.705 C 181.097 127.676,179.019 137.755,179.009 149.628 C 178.996 165.814,180.046 167.785,193.413 176.656 C 204.479 184.000,212.109 190.991,214.188 195.693 C 216.017 199.828,216.015 200.049,214.031 207.623 C 212.831 212.205,210.602 217.403,208.543 220.420 C 202.327 229.529,202.195 237.562,208.048 250.606 C 212.859 261.331,212.083 264.508,203.727 268.284 C 199.629 270.136,198.308 272.517,197.053 280.317 C 196.627 282.966,195.365 286.368,194.249 287.878 C 193.133 289.387,190.800 293.295,189.066 296.561 C 184.086 305.940,179.209 313.963,176.613 317.048 C 171.419 323.221,165.123 336.465,164.008 343.564 C 163.409 347.379,161.623 355.225,160.038 361.000 C 158.454 366.775,156.844 373.300,156.460 375.500 C 154.426 387.164,151.215 395.937,144.013 409.500 C 128.481 438.748,127.011 442.611,130.200 445.800 C 132.951 448.551,135.790 447.024,143.310 438.750 C 148.223 433.345,152.684 429.523,156.246 427.666 C 159.237 426.108,163.605 423.077,165.953 420.930 C 169.903 417.319,170.176 416.747,169.602 413.264 C 167.453 400.217,167.493 399.885,171.886 394.374 C 174.134 391.555,177.155 388.473,178.600 387.526 C 181.376 385.707,188.430 371.792,191.565 361.949 C 193.263 356.619,199.620 346.133,204.362 340.844 C 205.671 339.383,208.553 337.045,210.765 335.648 C 212.978 334.251,216.681 331.089,218.995 328.621 C 223.931 323.354,227.597 321.457,234.646 320.523 C 242.939 319.424,243.465 319.849,262.446 343.000 C 264.926 346.025,268.831 352.100,271.125 356.500 L 275.294 364.500 275.072 381.337 L 274.850 398.175 277.649 402.337 C 281.436 407.970,281.276 412.902,277.028 421.444 C 272.466 430.618,272.999 433.619,281.381 445.922 C 284.969 451.190,288.264 456.432,288.703 457.571 C 290.272 461.647,297.532 472.851,299.332 473.975 C 300.773 474.875,301.705 474.768,303.674 473.478 C 305.904 472.017,306.128 471.318,305.694 467.167 C 305.425 464.600,304.477 460.025,303.587 457.000 C 301.268 449.118,298.755 424.979,299.210 414.944 C 299.520 408.094,300.077 405.611,302.003 402.495 C 304.262 398.841,304.460 397.289,305.260 377.052 C 306.445 347.077,306.144 342.327,302.727 337.163 C 301.214 334.878,299.342 330.643,298.566 327.754 C 297.791 324.864,295.604 319.460,293.708 315.744 C 291.812 312.029,290.012 307.460,289.709 305.592 C 289.405 303.724,287.884 300.271,286.329 297.920 C 284.044 294.469,283.500 292.536,283.500 287.875 C 283.500 282.423,283.732 281.874,287.702 277.944 C 291.342 274.340,298.000 261.602,298.000 258.241 C 298.000 257.747,299.583 252.428,301.517 246.421 C 304.021 238.647,305.309 232.330,305.985 224.500 C 306.508 218.450,307.413 211.845,307.995 209.821 C 309.154 205.799,308.863 205.938,326.500 200.973 C 338.554 197.579,344.059 194.789,348.718 189.711 C 352.536 185.550,353.971 183.037,357.977 173.500 C 360.588 167.282,364.957 149.138,364.987 144.388 C 364.994 143.227,366.800 138.436,369.000 133.741 C 371.200 129.046,373.000 123.787,373.000 122.053 C 373.000 116.140,368.195 110.000,363.567 110.000 C 361.779 110.000,348.009 123.112,347.994 124.828 C 347.952 129.737,345.528 138.146,343.199 141.461 C 341.639 143.682,338.917 148.105,337.151 151.289 C 332.309 160.016,325.782 168.742,323.203 169.936 C 319.930 171.452,315.699 171.254,310.770 169.355 C 303.476 166.545,303.499 166.624,306.472 154.521 C 308.926 144.529,309.027 143.264,307.913 136.363 C 305.864 123.658,300.955 118.341,287.302 114.037 C 284.018 113.002,282.486 112.970,280.265 113.890 C 278.568 114.593,273.420 114.963,267.463 114.811 C 259.579 114.609,256.746 114.926,253.887 116.327 C 248.502 118.966,242.409 127.089,239.847 135.043 L 237.647 141.875 240.439 148.445 C 242.707 153.782,242.999 155.296,241.993 156.508 C 240.529 158.272,234.357 158.428,222.043 157.013 C 208.981 155.511,209.079 155.687,208.963 133.500 C 208.877 117.113,209.061 115.066,211.024 110.653 C 212.871 106.500,213.112 104.513,212.705 96.795 C 212.324 89.581,211.837 87.393,210.261 85.817 C 207.550 83.105,201.309 82.526,197.223 84.607 M244.527 91.318 C 241.674 95.673,234.906 112.312,235.431 113.680 C 235.719 114.431,236.605 115.295,237.399 115.600 C 238.674 116.089,265.864 106.741,271.750 103.790 C 276.242 101.538,274.441 99.522,263.141 94.156 C 251.001 88.392,246.859 87.760,244.527 91.318 M286.250 95.474 C 284.462 96.260,283.000 97.410,283.000 98.030 C 283.000 100.577,309.207 123.000,312.184 123.000 C 314.217 123.000,314.264 122.663,313.779 111.678 C 313.487 105.047,312.699 99.143,311.879 97.428 L 310.477 94.500 299.989 94.272 C 292.644 94.113,288.526 94.473,286.250 95.474 " style="stroke: none; fill: black;">
                    </path></svg>