<svg id="svg-path" width="100%" height="100%" viewBox="0 0 512 512" version="1.1" xmlns="http://www.w3.org/2000/svg" style="fill-rule:evenodd;clip-rule:evenodd;stroke-linejoin:round;stroke-miterlimit:2;">
                        <path d="M204.500 83.789 C 196.105 84.059,195.236 84.290,191.567 87.233 C 189.405 88.968,185.382 90.972,182.628 91.687 C 173.331 94.098,162.524 103.030,159.004 111.212 C 156.174 117.791,156.616 124.487,160.192 129.208 C 163.360 133.390,169.434 149.426,168.637 151.503 C 168.306 152.366,166.564 153.844,164.767 154.787 C 158.554 158.045,148.799 170.175,146.099 178.000 C 144.203 183.495,139.646 207.121,139.734 211.000 C 139.778 212.925,140.624 217.962,141.615 222.192 C 143.415 229.879,143.414 229.889,141.167 235.311 C 139.129 240.228,138.886 242.695,138.576 261.619 C 138.388 273.103,137.701 285.448,137.049 289.051 C 135.565 297.254,137.525 307.024,141.918 313.324 C 145.593 318.594,154.808 327.652,162.157 333.216 C 165.268 335.572,171.163 340.235,175.256 343.578 C 180.005 347.456,184.393 350.130,187.384 350.967 C 190.636 351.878,193.677 353.843,197.321 357.390 C 205.133 364.992,205.884 366.109,208.939 374.652 C 216.342 395.361,226.676 414.611,235.162 423.500 C 237.525 425.976,239.196 428.833,239.548 431.000 C 239.860 432.925,240.312 435.469,240.553 436.654 C 241.258 440.129,248.709 448.811,252.762 450.879 C 254.818 451.929,257.400 453.783,258.500 455.000 C 263.209 460.211,267.577 461.456,281.214 461.479 C 291.873 461.497,294.204 461.225,295.631 459.798 C 299.968 455.460,295.426 445.841,286.866 441.237 C 280.142 437.620,272.740 431.849,270.136 428.191 C 268.608 426.044,267.746 422.554,266.973 415.371 C 265.861 405.048,261.978 386.023,259.616 379.330 C 258.858 377.180,256.671 372.289,254.755 368.461 C 252.840 364.632,250.515 358.052,249.588 353.838 C 248.606 349.373,245.832 342.071,242.940 336.338 C 240.210 330.927,237.108 323.723,236.045 320.329 C 234.983 316.935,233.014 311.985,231.669 309.329 C 230.324 306.673,228.503 302.073,227.623 299.108 C 226.743 296.142,224.893 291.787,223.512 289.430 C 220.651 284.548,220.139 278.268,222.528 277.351 C 225.064 276.378,231.897 260.786,232.904 253.675 C 234.695 241.027,238.100 239.017,251.789 242.525 C 260.720 244.812,266.301 241.973,270.104 233.206 C 273.135 226.218,275.461 225.654,302.190 225.420 C 314.669 225.311,328.872 224.906,333.753 224.520 C 340.873 223.956,343.398 224.139,346.528 225.447 C 348.674 226.344,350.671 227.413,350.965 227.823 C 351.259 228.233,352.786 229.556,354.357 230.762 C 357.929 233.505,361.000 232.327,361.001 228.215 C 361.002 224.821,354.540 212.020,350.376 207.168 C 347.687 204.033,346.687 203.542,343.187 203.634 C 340.598 203.702,337.021 204.926,333.339 207.004 C 326.238 211.011,321.234 211.384,317.299 208.197 C 312.232 204.093,288.682 193.216,279.000 190.507 C 273.775 189.046,267.461 186.550,264.969 184.961 C 262.477 183.373,258.088 181.569,255.216 180.953 C 250.842 180.015,249.012 178.852,243.964 173.804 C 234.840 164.680,234.600 163.960,235.328 147.942 C 235.996 133.270,237.081 126.482,240.082 118.212 C 243.853 107.818,243.216 106.309,228.972 91.876 C 220.486 83.278,220.478 83.276,204.500 83.789 M375.533 172.750 C 375.159 173.713,374.952 186.875,375.074 202.000 C 375.267 225.895,375.081 229.893,373.654 232.500 C 371.614 236.227,371.406 247.805,373.332 250.439 C 374.381 251.875,375.706 252.185,379.582 251.903 C 382.287 251.707,389.675 251.710,396.000 251.910 C 402.325 252.110,415.247 252.325,424.715 252.387 C 446.775 252.532,445.618 253.437,445.172 236.378 C 444.783 221.537,445.482 220.000,452.616 220.000 C 455.758 220.000,457.473 219.408,458.961 217.811 C 460.858 215.775,461.000 214.356,461.000 197.434 C 461.000 176.109,461.124 176.389,452.117 177.330 C 448.905 177.666,443.628 177.505,440.389 176.972 C 437.150 176.440,423.595 175.981,410.267 175.952 C 386.045 175.899,386.032 175.898,383.122 173.450 C 379.709 170.578,376.494 170.281,375.533 172.750 " style="stroke: none; fill: black;">
                    </path></svg>