<svg id="svg-path" width="100%" height="100%" viewBox="0 0 512 512" version="1.1" xmlns="http://www.w3.org/2000/svg" style="fill-rule:evenodd;clip-rule:evenodd;stroke-linejoin:round;stroke-miterlimit:2;">
                        <path d="M362.400 44.542 C 362.031 46.011,362.259 49.580,362.906 52.472 C 364.287 58.641,363.492 68.710,360.985 76.813 C 359.062 83.028,359.391 86.000,362.002 86.000 C 364.487 86.000,366.701 82.183,367.559 76.417 C 367.962 73.713,369.126 69.067,370.146 66.093 C 372.513 59.192,372.452 56.951,369.683 49.000 C 367.930 43.967,366.929 42.429,365.245 42.185 C 363.598 41.947,362.908 42.518,362.400 44.542 M376.363 47.591 C 374.240 50.375,373.859 51.554,374.669 52.841 C 376.348 55.506,378.612 55.319,382.071 52.228 C 384.724 49.858,385.182 48.863,384.632 46.670 C 383.625 42.657,379.801 43.083,376.363 47.591 M388.250 51.031 C 385.667 52.070,385.679 52.026,386.975 55.435 C 387.710 57.368,388.659 58.000,390.829 58.000 C 394.330 58.000,399.247 53.807,398.383 51.557 C 397.715 49.815,392.012 49.519,388.250 51.031 M392.250 63.662 C 390.332 64.436,390.766 67.805,392.934 68.965 C 393.998 69.534,396.248 70.000,397.934 70.000 C 400.304 70.000,401.000 69.559,401.000 68.057 C 401.000 64.708,395.947 62.171,392.250 63.662 M385.667 76.667 C 384.315 78.018,385.057 80.782,386.900 81.264 C 390.198 82.126,394.000 80.909,394.000 78.990 C 394.000 76.466,387.640 74.693,385.667 76.667 M379.250 90.662 C 378.563 90.940,378.000 92.040,378.000 93.108 C 378.000 95.629,382.382 97.401,385.065 95.965 C 387.583 94.617,387.508 93.470,384.777 91.557 C 382.495 89.958,381.425 89.785,379.250 90.662 M355.463 93.680 C 354.109 95.034,353.909 96.445,354.434 100.930 C 356.562 119.131,356.272 126.575,353.389 127.681 C 352.550 128.003,351.014 127.318,349.905 126.128 C 344.048 119.841,336.184 128.808,335.986 142.000 C 335.922 146.294,333.854 148.878,327.210 152.966 C 324.395 154.698,321.091 157.777,319.867 159.807 C 318.643 161.838,315.888 165.440,313.745 167.810 C 306.642 175.666,305.485 182.510,310.358 187.845 C 314.528 192.411,317.795 193.376,329.286 193.440 C 342.101 193.511,342.292 193.664,341.237 203.000 C 340.833 206.575,340.502 214.958,340.501 221.629 L 340.500 233.757 344.362 239.364 C 348.832 245.854,348.755 248.532,344.018 251.330 C 338.757 254.438,337.634 257.147,338.361 264.971 C 338.713 268.763,338.570 273.002,338.042 274.390 C 337.514 275.778,336.393 283.475,335.551 291.494 C 333.633 309.753,333.447 310.493,329.353 316.142 C 324.975 322.182,323.590 325.632,321.178 336.515 C 315.917 360.241,315.675 362.394,316.360 379.341 C 316.878 392.150,316.703 396.640,315.518 401.000 C 313.487 408.473,313.623 416.184,315.932 424.511 C 317.518 430.231,318.658 432.228,322.300 435.669 C 329.251 442.237,337.396 442.614,340.183 436.498 C 341.159 434.355,340.761 432.218,337.584 422.560 C 331.632 404.465,330.949 392.777,335.618 388.902 C 340.888 384.528,349.058 367.701,357.554 343.718 C 358.875 339.989,361.536 334.869,363.466 332.340 C 367.508 327.047,371.444 319.066,372.510 314.000 C 373.423 309.659,377.312 301.816,379.416 300.070 C 380.281 299.352,382.004 299.017,383.244 299.325 C 384.485 299.632,388.303 300.528,391.730 301.314 C 395.156 302.100,399.078 303.476,400.445 304.372 C 401.811 305.267,404.088 306.000,405.505 306.000 C 408.897 306.000,415.578 309.457,416.418 311.648 C 416.890 312.878,415.953 314.413,413.184 316.944 C 410.369 319.518,408.833 322.063,407.659 326.101 C 405.389 333.910,397.757 340.932,386.508 345.561 C 378.643 348.798,377.395 353.847,382.451 361.973 C 383.658 363.913,386.188 369.508,388.073 374.406 C 391.022 382.069,392.164 383.840,396.258 387.091 C 402.651 392.169,404.926 392.810,407.086 390.142 C 408.376 388.549,408.608 387.195,408.030 384.633 C 407.609 382.765,407.003 380.815,406.685 380.300 C 405.553 378.467,405.595 360.515,406.737 358.437 C 408.638 354.977,416.712 348.107,419.691 347.415 C 423.518 346.526,438.397 338.445,442.316 335.128 C 444.067 333.646,447.412 331.205,449.749 329.703 C 458.759 323.914,464.038 311.097,460.490 303.621 C 458.797 300.052,448.084 289.291,443.093 286.144 C 441.658 285.240,436.293 281.358,431.171 277.517 L 421.858 270.535 422.528 264.758 L 423.199 258.981 419.349 257.466 C 413.458 255.148,412.500 254.438,412.500 252.391 C 412.500 250.945,413.418 250.382,416.398 250.000 C 420.595 249.462,420.654 249.390,424.003 240.691 C 427.149 232.522,426.970 221.758,423.332 200.264 C 420.753 185.029,422.587 179.749,432.865 172.808 C 440.447 167.687,447.951 160.996,449.526 157.950 C 452.774 151.668,450.738 146.413,443.684 142.874 C 441.383 141.719,437.250 139.117,434.500 137.090 C 431.750 135.063,427.250 132.104,424.500 130.514 C 421.750 128.924,414.775 124.158,409.000 119.922 C 393.031 108.208,386.405 104.483,379.768 103.488 C 375.940 102.914,374.460 103.171,371.674 104.893 C 365.745 108.557,363.947 107.491,362.578 99.500 C 361.475 93.058,360.971 92.000,359.004 92.000 C 357.980 92.000,356.387 92.756,355.463 93.680 M202.000 115.308 C 199.899 116.383,199.500 117.298,199.500 121.044 C 199.500 123.495,199.130 126.073,198.677 126.772 C 197.785 128.152,186.723 134.000,185.006 134.000 C 184.428 134.000,181.962 132.163,179.526 129.917 C 174.550 125.330,172.168 125.163,170.203 129.262 C 169.110 131.543,168.249 132.000,165.052 132.000 C 160.365 132.000,159.445 133.735,161.510 138.678 C 163.616 143.718,163.378 145.745,160.354 148.548 C 158.474 150.290,156.565 151.000,153.758 151.000 C 146.515 151.000,140.233 157.885,141.327 164.625 C 141.622 166.449,143.911 171.103,146.411 174.969 C 152.980 185.124,155.076 189.586,157.132 197.792 C 159.241 206.217,163.084 211.283,175.493 222.000 C 186.761 231.732,186.636 234.421,174.963 233.351 C 168.938 232.799,167.960 233.002,162.463 235.946 C 157.197 238.767,155.915 239.062,151.500 238.470 C 142.723 237.293,131.258 237.541,129.567 238.945 C 125.581 242.253,130.070 253.198,135.942 254.487 C 137.584 254.848,142.352 254.567,146.539 253.864 C 153.184 252.747,154.746 252.790,158.826 254.200 C 161.397 255.088,164.850 256.103,166.500 256.455 C 170.809 257.374,173.017 259.352,173.399 262.634 C 173.867 266.667,172.228 281.028,170.974 283.877 C 170.049 285.977,169.449 286.189,165.810 285.701 C 163.546 285.398,160.525 284.308,159.096 283.280 C 157.668 282.252,153.230 280.313,149.233 278.972 L 141.965 276.535 133.733 278.821 C 129.205 280.078,122.941 281.710,119.813 282.447 C 112.191 284.242,101.302 287.797,97.550 289.715 C 92.710 292.189,87.000 297.031,87.000 298.661 C 87.000 301.304,81.392 306.000,78.237 306.000 C 72.983 306.000,63.529 300.382,57.956 293.950 C 53.916 289.286,52.187 288.000,49.958 288.000 C 46.576 288.000,44.000 291.145,44.000 295.273 C 44.000 300.993,58.468 332.070,62.206 334.380 C 64.740 335.946,70.503 333.561,77.000 328.257 C 84.967 321.753,86.274 321.430,94.176 324.003 C 100.157 325.950,101.417 326.050,106.280 324.962 C 109.265 324.294,113.461 323.960,115.604 324.220 C 120.150 324.773,125.424 323.143,130.707 319.553 C 132.773 318.149,135.471 317.000,136.701 317.000 C 139.874 317.000,146.809 320.822,147.481 322.941 C 148.019 324.637,143.577 333.572,139.001 339.998 C 137.901 341.544,137.000 343.293,137.000 343.886 C 137.000 344.478,135.155 348.791,132.900 353.470 C 128.997 361.569,128.835 362.277,129.515 368.239 C 129.908 371.682,130.616 375.236,131.089 376.136 C 132.085 378.033,143.995 386.983,148.709 389.378 C 150.474 390.275,152.988 392.079,154.295 393.386 C 161.901 400.992,172.849 407.153,181.130 408.488 C 183.533 408.875,186.438 409.786,187.585 410.511 C 190.671 412.463,194.871 425.075,195.574 434.500 C 196.245 443.494,197.889 447.000,201.434 447.000 C 204.240 447.000,208.496 442.365,211.076 436.500 C 213.355 431.319,218.000 408.615,218.000 402.658 C 218.000 396.795,215.578 395.009,206.332 394.052 C 199.330 393.327,196.000 391.008,196.000 386.857 C 196.000 383.253,193.251 378.506,187.548 372.260 C 184.353 368.761,181.993 365.293,182.175 364.367 C 182.547 362.477,182.998 362.191,192.457 357.851 C 205.496 351.869,219.783 334.155,224.882 317.648 C 227.624 308.770,228.528 307.157,233.226 302.764 C 236.875 299.353,237.170 298.701,236.621 295.264 C 234.825 284.014,234.851 283.605,237.863 275.500 C 250.486 241.535,251.000 239.911,251.000 233.982 C 251.000 226.476,252.963 223.681,262.598 217.465 C 272.046 211.370,274.973 208.502,278.026 202.345 C 280.213 197.935,280.115 196.192,277.220 188.000 C 275.397 182.845,270.206 174.309,267.360 171.788 C 264.824 169.542,257.433 166.330,252.870 165.490 C 248.155 164.623,238.633 167.067,232.593 170.696 C 228.813 172.966,227.339 174.737,224.847 180.000 C 220.060 190.108,216.861 193.551,210.226 195.733 C 205.103 197.417,204.237 198.118,202.000 202.388 C 197.475 211.028,194.468 210.887,186.823 201.674 C 181.667 195.461,172.498 186.872,169.051 185.027 C 165.800 183.287,163.242 176.103,162.691 167.162 C 162.242 159.870,162.417 158.583,164.088 156.912 C 166.697 154.303,168.750 154.512,171.326 157.646 C 176.452 163.884,178.896 165.977,180.384 165.406 C 182.994 164.404,183.168 161.400,180.888 156.706 C 178.744 152.294,178.825 149.000,181.077 149.000 C 181.704 149.000,184.124 151.078,186.456 153.617 C 190.229 157.726,190.932 158.107,192.847 157.082 C 195.503 155.661,195.557 153.466,193.081 147.689 C 191.362 143.678,191.317 142.993,192.648 141.092 C 195.782 136.618,204.999 134.643,209.371 137.508 C 212.178 139.347,216.988 138.591,219.931 135.850 C 223.614 132.418,221.880 129.000,216.455 129.000 C 211.769 129.000,209.573 126.069,210.398 120.914 C 211.427 114.476,208.043 112.217,202.000 115.308 M309.473 252.044 C 308.569 253.506,310.870 256.000,313.122 256.000 C 315.578 256.000,315.540 253.359,313.066 252.035 C 310.654 250.744,310.276 250.745,309.473 252.044 M319.000 259.566 C 319.000 262.303,321.003 265.000,323.035 265.000 C 325.572 265.000,325.541 262.957,322.961 260.189 C 320.566 257.617,319.000 257.371,319.000 259.566 M270.485 267.387 C 268.862 268.574,268.776 269.025,269.910 270.392 C 271.562 272.382,274.012 272.447,276.559 270.567 C 277.836 269.625,278.158 268.808,277.500 268.180 C 275.593 266.359,272.387 265.996,270.485 267.387 M255.529 268.355 C 254.347 269.220,253.915 270.336,254.337 271.435 C 254.858 272.795,255.686 273.014,258.249 272.474 C 262.273 271.626,263.441 270.592,262.664 268.567 C 261.925 266.641,258.031 266.525,255.529 268.355 M287.085 268.398 C 286.166 269.505,286.480 270.233,288.597 271.898 C 292.695 275.121,296.861 274.408,295.448 270.726 C 294.922 269.355,290.894 267.000,289.075 267.000 C 288.619 267.000,287.723 267.629,287.085 268.398 M302.323 273.601 C 301.985 274.481,302.337 275.600,303.104 276.086 C 306.625 278.315,312.398 275.798,309.776 273.176 C 308.035 271.435,303.045 271.719,302.323 273.601 M318.104 272.914 C 316.019 274.235,317.579 277.000,320.410 277.000 C 323.438 277.000,324.584 275.409,322.964 273.456 C 321.589 271.799,320.123 271.636,318.104 272.914 M310.000 287.114 C 302.484 291.209,300.705 292.714,301.625 294.202 C 302.630 295.829,306.864 294.905,313.739 291.559 C 321.414 287.824,322.321 286.999,321.396 284.590 C 320.462 282.156,318.167 282.665,310.000 287.114 " style="stroke: none; fill: black;">
                    </path></svg>