<svg id="svg-path" width="100%" height="100%" viewBox="0 0 512 512" version="1.1" xmlns="http://www.w3.org/2000/svg" style="fill-rule:evenodd;clip-rule:evenodd;stroke-linejoin:round;stroke-miterlimit:2;">
                        <path d="M80.160 137.013 C 77.138 138.393,74.701 138.816,72.137 138.406 C 69.029 137.909,68.030 138.242,65.728 140.545 C 63.200 143.073,63.000 143.876,63.000 151.487 C 63.000 160.830,64.084 164.822,68.148 170.447 C 71.775 175.467,71.743 178.084,68.000 182.347 C 65.552 185.136,65.000 186.653,65.000 190.599 C 65.000 193.258,64.372 197.248,63.603 199.467 C 62.835 201.685,61.683 205.525,61.043 208.000 C 59.726 213.091,57.584 220.807,56.048 226.000 C 55.478 227.925,55.078 232.200,55.160 235.500 C 55.334 242.566,54.357 247.524,52.119 250.943 C 50.953 252.724,50.514 255.666,50.549 261.458 C 50.601 270.002,51.299 272.072,58.323 284.509 C 65.046 296.412,65.860 300.332,66.260 322.710 L 66.621 342.919 69.310 345.412 C 71.659 347.588,72.000 348.672,72.000 353.952 C 72.000 360.653,74.084 364.002,78.250 363.997 C 79.487 363.996,83.453 364.711,87.061 365.587 C 92.323 366.863,94.452 366.955,97.811 366.051 C 103.747 364.452,103.547 361.504,97.232 357.500 C 89.327 352.488,84.179 340.392,83.288 324.738 C 82.992 319.524,83.336 315.422,84.337 312.238 C 85.156 309.632,86.061 302.407,86.347 296.182 C 86.660 289.377,87.363 284.267,88.110 283.368 C 89.589 281.585,92.103 282.069,100.250 285.706 C 106.968 288.705,107.522 290.629,103.500 297.000 C 102.125 299.178,101.000 301.219,101.000 301.536 C 101.000 301.853,99.637 304.860,97.970 308.218 C 96.304 311.577,94.218 317.289,93.334 320.912 C 92.451 324.536,90.816 329.170,89.701 331.212 L 87.675 334.923 90.337 338.765 C 91.802 340.879,93.000 343.099,93.000 343.700 C 93.000 345.191,99.921 351.167,100.927 350.545 C 101.371 350.271,101.952 346.649,102.219 342.496 C 102.634 336.029,103.370 333.621,107.350 325.722 C 109.906 320.650,114.473 312.450,117.499 307.500 C 125.142 294.999,127.979 289.019,127.990 285.385 C 128.003 281.324,122.365 274.438,112.529 266.500 C 108.440 263.200,104.836 259.868,104.519 259.095 C 104.203 258.322,104.783 256.747,105.809 255.595 C 108.069 253.057,110.000 242.782,110.000 233.290 C 110.000 225.386,110.245 225.031,118.851 220.432 C 121.794 218.859,125.169 216.270,126.351 214.679 C 127.533 213.088,129.917 210.259,131.650 208.393 C 134.532 205.289,135.298 204.998,140.650 204.978 C 148.626 204.948,155.000 202.070,155.000 198.498 C 155.000 196.446,154.222 195.573,151.310 194.356 C 146.579 192.379,135.064 193.837,130.861 196.945 C 129.332 198.075,127.163 199.000,126.040 199.000 C 123.320 199.000,123.302 194.773,126.000 189.739 C 127.100 187.686,128.000 185.381,128.000 184.616 C 128.000 183.851,129.402 180.228,131.116 176.566 C 133.428 171.625,134.071 169.106,133.610 166.799 C 132.215 159.824,128.058 159.122,122.042 164.845 C 118.439 168.272,118.000 169.201,118.000 173.385 C 118.000 180.231,111.702 192.000,108.039 192.000 C 104.450 192.000,104.835 188.902,108.985 184.401 C 111.193 182.005,113.000 179.330,113.000 178.456 C 113.000 177.582,111.855 175.365,110.455 173.530 C 108.003 170.315,107.920 169.744,108.205 157.992 L 108.500 145.791 104.673 142.473 C 96.579 135.456,87.834 133.508,80.160 137.013 M364.530 152.633 C 361.250 155.137,359.053 157.893,357.455 161.506 C 354.999 167.058,352.160 169.871,346.791 172.072 C 344.981 172.814,338.325 176.839,332.000 181.015 C 325.675 185.192,318.836 189.620,316.802 190.854 C 312.682 193.355,311.217 196.352,313.040 198.548 C 314.845 200.723,316.243 200.358,321.502 196.343 C 326.353 192.639,347.622 180.000,349.004 180.000 C 349.417 180.000,350.315 179.325,351.000 178.500 C 351.685 177.675,353.243 177.000,354.462 177.000 C 357.221 177.000,359.000 180.603,359.000 186.188 C 359.000 188.439,359.993 192.270,361.207 194.700 C 363.971 200.234,362.993 202.190,356.944 203.222 C 345.747 205.134,339.949 211.114,328.561 232.500 C 325.925 237.450,322.183 243.258,320.246 245.406 C 318.309 247.554,314.576 253.898,311.952 259.504 C 307.865 268.235,306.477 270.214,302.275 273.298 C 296.230 277.736,292.994 283.082,294.936 285.423 C 295.656 286.290,297.202 287.007,298.372 287.015 C 299.543 287.024,301.134 287.432,301.908 287.922 C 304.684 289.679,310.771 285.842,314.493 279.987 C 315.721 278.055,318.250 274.897,320.113 272.968 C 324.307 268.626,337.385 253.378,343.241 246.000 C 348.090 239.891,351.633 238.416,352.401 242.185 C 353.512 247.633,353.969 278.952,352.976 281.564 C 350.631 287.732,346.864 308.144,346.345 317.500 C 346.039 323.000,345.212 329.300,344.507 331.500 C 343.802 333.700,342.920 339.325,342.548 344.000 C 341.666 355.070,340.486 361.937,337.013 376.192 C 333.782 389.452,333.791 389.432,328.889 394.719 C 323.512 400.516,322.651 402.509,324.656 404.513 C 327.219 407.076,332.741 405.579,337.500 401.031 C 339.700 398.929,343.370 396.275,345.655 395.132 C 351.839 392.042,353.413 389.300,356.458 376.313 C 359.408 363.733,359.699 362.775,365.958 345.000 C 371.147 330.266,371.518 329.600,375.628 327.640 C 380.820 325.164,382.273 325.558,388.289 331.068 C 395.893 338.033,398.380 341.991,401.957 352.818 C 405.377 363.170,408.727 370.260,412.958 376.101 C 414.508 378.240,416.063 381.522,416.414 383.395 C 417.238 387.787,418.258 388.530,425.500 390.009 C 428.800 390.682,433.623 392.306,436.217 393.617 C 444.341 397.721,456.191 396.198,451.210 391.690 C 450.229 390.802,447.868 389.397,445.963 388.566 C 439.101 385.573,434.097 379.497,431.495 371.000 C 430.569 367.975,428.924 363.323,427.840 360.663 C 426.756 358.002,425.204 351.927,424.391 347.163 C 423.578 342.398,422.072 334.900,421.043 330.500 C 420.014 326.100,418.435 318.225,417.532 313.000 C 416.630 307.775,414.522 299.093,412.848 293.708 C 411.127 288.169,410.055 282.917,410.381 281.618 C 410.759 280.113,412.345 278.775,414.979 277.740 C 419.706 275.884,419.817 275.180,417.451 262.078 C 415.593 251.786,414.597 249.088,410.293 242.692 C 406.464 237.002,406.034 234.000,409.050 234.000 C 411.486 234.000,416.704 236.516,419.500 239.039 C 420.600 240.031,427.709 243.975,435.299 247.803 C 447.573 253.993,449.413 255.259,451.951 259.262 C 455.328 264.587,455.306 264.572,460.766 265.475 L 465.032 266.181 467.058 261.603 C 469.424 256.252,468.806 254.290,463.763 251.143 C 461.968 250.024,457.525 245.809,453.888 241.777 C 450.146 237.629,443.852 232.192,439.388 229.252 C 426.618 220.842,420.062 215.865,413.591 209.667 C 410.241 206.459,405.628 202.727,403.341 201.375 C 398.482 198.503,397.727 197.025,398.611 192.116 C 399.423 187.616,400.734 185.000,402.177 185.000 C 403.891 185.000,415.782 192.697,423.000 198.478 C 431.042 204.919,431.447 205.149,433.410 204.396 C 438.047 202.617,433.116 196.783,417.938 186.090 C 413.297 182.820,408.488 179.416,407.250 178.526 C 405.444 177.226,405.000 175.941,405.000 172.016 C 405.000 167.358,404.701 166.821,398.750 160.787 C 393.705 155.672,391.381 154.104,386.697 152.657 C 383.471 151.660,379.688 151.129,378.178 151.461 C 376.487 151.832,374.713 151.492,373.481 150.561 C 370.629 148.406,369.821 148.593,364.530 152.633 M167.855 150.739 C 161.996 151.046,161.141 151.347,160.619 153.293 C 159.635 156.964,159.929 187.684,160.975 190.435 L 161.950 193.000 175.853 193.000 C 185.758 193.000,190.052 192.641,190.786 191.750 C 191.353 191.062,192.147 181.792,192.550 171.146 C 193.157 155.117,193.044 151.642,191.892 150.912 C 190.554 150.065,181.931 150.003,167.855 150.739 M184.709 161.000 C 185.457 162.483,185.977 167.377,185.985 173.027 C 186.005 186.006,185.270 187.000,175.643 187.000 C 171.343 187.000,167.912 186.512,167.200 185.800 C 165.511 184.111,165.544 160.856,167.238 159.162 C 168.059 158.341,170.998 158.021,175.962 158.212 C 182.806 158.475,183.556 158.714,184.709 161.000 M260.707 160.533 C 253.610 163.138,246.524 169.272,245.345 173.834 C 245.013 175.118,245.035 179.038,245.394 182.546 C 245.777 186.281,245.582 190.774,244.924 193.389 C 243.897 197.464,244.019 198.221,246.313 202.069 C 248.355 205.493,248.630 206.718,247.778 208.588 C 247.201 209.854,246.131 211.119,245.401 211.400 C 243.223 212.235,233.432 203.536,231.712 199.238 C 230.193 195.441,223.681 190.000,220.656 190.000 C 219.894 190.000,218.071 190.943,216.605 192.096 C 215.140 193.248,213.331 193.957,212.585 193.671 C 211.840 193.385,210.314 193.792,209.195 194.576 C 207.972 195.433,205.290 195.901,202.470 195.751 C 196.008 195.405,194.790 197.329,197.690 203.299 C 199.418 206.856,200.870 208.178,205.409 210.327 C 210.279 212.633,211.000 213.344,211.000 215.837 C 211.000 222.812,226.959 237.317,235.806 238.383 C 238.120 238.662,240.459 239.166,241.003 239.502 C 241.595 239.868,241.894 245.407,241.746 253.307 C 241.515 265.721,241.654 266.825,244.109 272.000 C 248.030 280.265,249.384 287.519,248.076 293.250 C 247.297 296.662,247.297 299.338,248.076 302.750 C 250.120 311.708,248.760 347.276,245.865 360.589 C 244.663 366.114,245.413 368.720,249.267 372.411 C 251.000 374.071,251.189 375.193,250.699 380.911 C 250.388 384.535,249.429 389.173,248.567 391.218 C 246.447 396.248,246.582 397.673,249.455 400.545 C 252.677 403.767,255.810 403.645,260.696 400.105 C 262.894 398.513,266.110 396.478,267.842 395.581 C 273.433 392.690,277.010 380.925,274.493 373.702 C 272.336 367.512,272.415 335.711,274.606 328.088 C 277.721 317.250,281.505 308.586,284.878 304.565 C 290.164 298.267,291.278 294.748,290.486 286.858 C 289.892 280.949,290.080 279.606,291.917 276.634 C 295.058 271.552,296.977 264.270,296.989 257.386 C 296.998 252.219,296.620 250.892,294.544 248.816 C 291.460 245.733,290.000 241.953,290.000 237.057 C 290.000 234.960,289.325 231.629,288.500 229.654 C 287.675 227.680,287.000 223.335,287.000 220.000 C 287.000 213.169,285.327 208.344,281.549 204.271 C 277.607 200.022,277.467 198.284,280.697 193.651 C 284.947 187.554,286.000 184.532,286.000 178.431 C 286.000 173.414,285.658 172.584,281.917 168.526 C 277.906 164.175,269.110 158.932,266.054 159.070 C 265.199 159.109,262.793 159.767,260.707 160.533 " style="stroke: none; fill: black;">
                    </path></svg>