<svg id="svg-path" width="100%" height="100%" viewBox="0 0 512 512" version="1.1" xmlns="http://www.w3.org/2000/svg" style="fill-rule:evenodd;clip-rule:evenodd;stroke-linejoin:round;stroke-miterlimit:2;">
                        <path d="M209.000 112.935 C 203.018 114.967,195.605 116.500,187.000 117.484 C 177.920 118.523,171.506 120.850,163.805 125.902 C 159.787 128.538,153.800 131.512,150.500 132.513 C 147.200 133.513,142.700 135.331,140.500 136.554 C 138.300 137.776,134.700 139.092,132.500 139.478 C 130.300 139.863,128.050 140.527,127.500 140.952 C 126.950 141.377,123.862 142.539,120.637 143.535 C 115.666 145.069,114.187 146.118,110.921 150.422 C 108.802 153.215,106.161 156.687,105.052 158.137 C 103.942 159.588,101.789 161.087,100.267 161.468 C 95.682 162.617,85.787 169.140,81.000 174.168 C 78.525 176.768,74.446 179.767,71.936 180.832 C 67.073 182.896,62.000 188.027,62.000 190.881 C 62.000 193.087,56.848 201.228,51.875 206.879 C 46.296 213.218,43.246 220.279,41.888 230.000 C 40.792 237.845,40.876 239.155,42.969 247.000 C 44.871 254.124,45.273 258.414,45.452 273.500 C 45.637 289.058,45.411 292.167,43.784 296.413 C 40.092 306.045,36.780 324.940,36.669 337.000 C 36.560 348.800,38.427 370.110,39.660 371.133 C 41.359 372.543,45.817 371.946,62.457 368.081 C 69.583 366.425,78.246 363.677,81.707 361.973 C 87.207 359.265,88.000 358.520,88.000 356.060 C 88.000 352.371,86.701 351.452,79.500 350.044 C 64.137 347.040,60.026 344.268,62.423 338.529 C 64.680 333.127,68.955 327.000,70.467 327.000 C 71.260 327.000,72.942 328.072,74.205 329.383 C 75.467 330.694,78.650 334.024,81.279 336.783 C 88.877 344.760,96.669 347.420,100.987 343.512 C 103.489 341.247,103.520 339.054,101.125 333.695 C 98.586 328.015,95.689 314.374,96.411 311.498 C 96.733 310.215,98.562 308.198,100.476 307.015 C 102.622 305.688,105.135 302.651,107.035 299.085 C 108.730 295.906,112.902 290.369,116.308 286.779 C 123.542 279.154,125.676 276.086,130.614 266.212 C 135.530 256.382,135.523 252.875,130.574 245.383 C 128.437 242.147,124.064 236.800,120.857 233.500 C 117.649 230.200,115.019 226.750,115.012 225.834 C 114.999 223.969,122.005 218.000,124.207 218.000 C 124.987 218.000,126.898 219.328,128.453 220.951 C 132.374 225.044,135.642 225.500,143.553 223.056 C 152.986 220.143,159.274 216.464,164.478 210.816 C 169.196 205.694,175.375 202.423,182.338 201.361 C 188.208 200.465,189.719 199.471,191.997 195.006 C 194.707 189.694,194.540 188.265,190.758 184.397 C 187.624 181.192,187.315 181.101,181.508 181.659 C 174.566 182.326,168.154 185.571,164.987 190.019 C 162.489 193.527,158.173 196.000,154.550 196.000 C 152.313 196.000,152.000 195.579,152.000 192.577 C 152.000 188.293,155.513 183.926,160.687 181.777 C 174.827 175.905,175.228 175.798,180.585 176.467 C 186.998 177.269,190.574 175.686,196.317 169.505 C 200.970 164.497,202.893 159.897,204.051 151.000 C 205.429 140.418,205.178 134.112,203.250 130.830 C 201.585 127.997,201.585 127.789,203.245 126.569 C 204.205 125.864,208.488 125.047,212.763 124.754 C 227.212 123.763,231.900 119.459,224.923 113.589 C 221.197 110.453,216.835 110.274,209.000 112.935 M276.211 123.476 C 273.994 125.342,273.386 126.570,273.747 128.458 C 274.291 131.302,272.240 132.433,263.552 134.084 C 255.235 135.663,250.623 142.192,249.422 154.086 C 248.766 160.582,248.820 160.781,253.329 168.598 C 257.598 175.999,260.371 185.005,258.378 184.996 C 257.895 184.994,256.027 184.094,254.226 182.996 C 252.249 181.791,249.189 181.000,246.502 181.000 C 242.585 181.000,241.868 181.354,240.526 183.950 C 238.116 188.610,238.646 190.741,244.365 199.388 C 249.775 207.567,251.388 212.027,252.498 221.881 C 253.253 228.588,258.216 238.685,261.490 240.177 C 263.280 240.993,265.298 240.968,269.207 240.082 C 280.608 237.497,279.530 237.252,281.559 242.895 C 283.641 248.685,294.740 262.019,298.571 263.333 C 301.413 264.308,301.637 266.098,299.355 269.580 C 297.823 271.919,297.833 272.495,299.501 278.004 C 301.804 285.609,301.132 297.346,297.874 306.430 C 295.781 312.265,295.682 313.306,296.844 317.195 C 299.224 325.158,299.880 330.442,299.940 342.100 C 299.999 353.444,299.934 353.791,297.000 357.841 C 294.453 361.358,294.000 362.897,294.000 368.041 C 294.000 371.375,294.651 375.359,295.449 376.901 C 296.721 379.361,296.713 379.964,295.388 381.857 C 292.759 385.610,288.088 387.248,278.533 387.766 C 273.565 388.035,268.938 388.703,268.250 389.250 C 263.583 392.965,272.507 403.287,283.061 406.380 C 289.352 408.224,300.196 408.227,306.790 406.385 C 310.311 405.402,311.960 401.099,311.885 393.090 C 311.827 386.959,312.208 385.359,314.659 381.410 C 316.222 378.893,318.495 375.163,319.712 373.122 C 321.932 369.396,328.000 344.175,328.000 338.673 C 328.000 337.058,328.947 334.203,330.105 332.329 C 331.679 329.784,332.421 326.300,333.041 318.547 C 334.752 297.178,340.539 287.000,350.979 287.000 C 354.733 287.000,357.880 288.129,366.492 292.565 C 374.015 296.440,378.844 298.281,382.398 298.629 C 390.770 299.448,391.754 299.841,396.898 304.409 C 399.609 306.818,403.554 309.337,405.664 310.008 C 407.774 310.680,411.525 312.486,414.000 314.023 C 416.642 315.663,421.184 317.264,425.000 317.900 C 440.531 320.487,442.318 321.342,448.566 329.180 C 452.473 334.080,457.437 336.837,459.765 335.399 C 462.110 333.950,475.665 315.488,478.046 310.500 C 483.061 299.996,477.363 294.138,470.211 302.445 C 466.844 306.357,454.936 311.319,451.238 310.352 C 450.221 310.086,447.924 307.419,446.133 304.426 C 443.929 300.740,441.042 297.749,437.189 295.157 C 422.444 285.241,416.579 280.825,409.884 274.598 C 402.215 267.467,399.408 265.651,394.381 264.570 C 392.665 264.201,388.979 262.009,386.190 259.699 C 383.400 257.390,379.948 254.678,378.518 253.673 C 377.089 252.668,375.671 250.603,375.367 249.084 C 375.026 247.382,373.602 245.620,371.657 244.495 C 369.921 243.490,367.076 241.440,365.336 239.940 C 363.595 238.439,360.624 236.701,358.733 236.077 C 354.298 234.613,353.000 231.638,353.000 222.940 C 353.000 211.629,350.133 202.943,341.661 188.590 C 337.082 180.832,337.170 181.762,338.521 155.677 C 339.396 138.759,338.640 136.686,329.896 132.025 C 324.474 129.135,323.676 129.000,312.060 129.000 C 299.297 129.000,298.038 128.680,290.388 123.489 C 285.510 120.178,280.136 120.173,276.211 123.476 M312.165 144.351 C 317.054 146.937,318.569 148.272,318.802 150.202 C 319.244 153.862,315.070 156.191,307.032 156.766 C 298.984 157.341,298.444 156.832,297.482 147.750 L 296.767 141.000 301.299 141.000 C 304.513 141.000,307.673 141.974,312.165 144.351 M217.513 179.979 C 216.681 181.326,218.640 184.737,220.957 185.977 C 223.674 187.431,224.000 187.289,224.000 184.655 C 224.000 180.928,219.106 177.401,217.513 179.979 M226.750 186.701 C 224.537 187.264,224.534 189.026,226.738 192.866 C 228.453 195.855,228.440 195.931,225.738 198.752 C 222.329 202.310,222.288 203.779,225.565 205.025 C 231.733 207.370,234.336 205.115,235.472 196.444 C 236.008 192.351,235.788 190.986,234.317 189.281 C 232.331 186.978,229.478 186.006,226.750 186.701 M212.500 203.719 C 209.905 204.352,207.000 206.948,207.000 208.636 C 207.000 210.476,211.516 211.428,215.213 210.368 C 219.194 209.226,220.855 206.735,219.070 204.584 C 217.755 203.000,216.259 202.803,212.500 203.719 M229.655 208.829 C 228.745 209.835,228.000 211.851,228.000 213.310 C 228.000 215.309,227.381 216.117,225.484 216.593 C 220.698 217.795,216.543 226.031,220.750 225.978 C 222.957 225.950,226.237 223.311,228.490 219.750 C 229.447 218.238,231.038 217.000,232.026 217.000 C 233.690 217.000,239.000 211.764,239.000 210.123 C 239.000 206.897,232.249 205.962,229.655 208.829 M197.359 210.923 C 195.632 211.976,193.917 213.326,193.548 213.922 C 193.069 214.697,192.285 214.688,190.792 213.889 C 188.470 212.646,181.000 214.288,181.000 216.040 C 181.000 216.568,180.086 217.000,178.968 217.000 C 177.850 217.000,175.343 217.666,173.396 218.479 C 169.317 220.183,169.686 222.565,173.859 221.468 C 175.312 221.086,179.542 220.426,183.259 220.002 C 186.977 219.577,190.728 218.641,191.595 217.921 C 192.462 217.202,195.123 216.577,197.508 216.532 C 202.261 216.442,206.000 213.939,206.000 210.845 C 206.000 208.352,201.509 208.392,197.359 210.923 M158.250 257.031 C 155.546 258.118,155.170 261.945,157.750 262.115 C 163.183 262.473,166.760 260.423,165.668 257.578 C 165.006 255.852,161.775 255.614,158.250 257.031 M95.663 264.564 C 96.484 266.704,94.387 271.000,92.521 271.000 C 90.949 271.000,90.460 267.570,91.607 264.582 C 92.387 262.549,94.885 262.538,95.663 264.564 M139.131 265.361 C 136.341 268.330,136.562 272.366,139.537 272.792 C 142.309 273.189,146.255 268.836,145.832 265.848 C 145.370 262.583,141.972 262.336,139.131 265.361 M151.750 269.112 C 148.850 270.748,149.638 273.860,153.409 275.658 C 157.557 277.636,160.263 276.854,159.820 273.805 C 159.391 270.849,154.112 267.779,151.750 269.112 M140.250 279.662 C 136.982 280.981,140.244 290.000,143.989 290.000 C 146.643 290.000,147.344 286.759,145.595 282.573 C 144.170 279.163,143.028 278.541,140.250 279.662 " style="stroke: none; fill: black;">
                    </path></svg>