<svg id="svg-path" width="100%" height="100%" viewBox="0 0 512 512" version="1.1" xmlns="http://www.w3.org/2000/svg" style="fill-rule:evenodd;clip-rule:evenodd;stroke-linejoin:round;stroke-miterlimit:2;">
                        <path d="M86.646 126.045 C 81.072 127.443,77.342 130.474,73.978 136.340 C 71.083 141.388,71.019 141.806,71.009 155.667 L 71.000 169.835 66.448 171.573 C 61.367 173.513,59.000 176.188,59.000 179.988 C 59.000 181.387,57.102 185.675,54.783 189.516 L 50.566 196.500 49.791 218.000 C 49.364 229.825,48.759 244.014,48.446 249.531 L 47.877 259.563 52.459 270.031 C 62.715 293.461,65.741 298.005,74.329 302.877 C 80.674 306.477,84.670 307.538,97.500 309.032 C 103.428 309.722,109.829 311.174,113.220 312.598 C 116.375 313.923,120.945 315.000,123.411 315.000 C 125.870 315.000,128.162 315.454,128.505 316.008 C 129.281 317.263,129.161 365.677,128.366 372.504 C 127.795 377.399,127.936 377.740,134.772 388.004 C 138.616 393.777,142.669 399.315,143.777 400.311 C 144.920 401.339,148.543 402.520,152.147 403.041 C 162.378 404.520,165.592 404.255,168.579 401.686 C 171.006 399.598,171.144 399.134,169.986 396.936 C 169.280 395.596,167.682 393.272,166.434 391.771 C 163.168 387.844,157.998 376.468,158.014 373.247 C 158.022 371.736,159.842 367.171,162.060 363.103 C 166.141 355.616,166.868 352.566,168.994 334.000 C 169.938 325.763,171.327 318.390,172.948 313.007 C 174.894 306.545,174.224 300.911,170.613 293.376 C 167.329 286.524,167.000 286.194,159.863 282.590 C 155.495 280.384,150.161 276.572,146.750 273.217 L 141.000 267.563 141.000 260.929 C 141.000 257.281,139.912 249.842,138.582 244.398 C 133.332 222.904,133.542 222.343,145.661 225.500 C 148.829 226.325,155.315 227.000,160.075 227.000 C 167.233 227.000,169.173 226.652,171.287 224.989 C 173.995 222.859,180.000 211.552,180.000 208.585 C 180.000 207.619,180.780 203.900,181.734 200.322 C 183.409 194.035,183.404 193.769,181.596 192.446 C 180.324 191.516,179.165 191.376,177.982 192.010 C 176.106 193.014,173.000 199.833,173.000 202.948 C 173.000 203.997,171.831 205.774,170.403 206.898 C 167.854 208.903,167.737 208.907,164.153 207.106 C 162.144 206.096,158.884 204.978,156.910 204.620 C 154.935 204.262,152.235 202.801,150.910 201.374 C 147.885 198.115,138.788 193.597,128.867 190.426 C 118.900 187.241,118.321 186.503,120.065 179.215 C 121.152 174.674,122.290 172.720,125.600 169.702 C 131.457 164.364,132.995 158.697,130.498 151.644 C 128.510 146.028,124.550 139.735,120.856 136.323 C 119.560 135.126,114.922 132.288,110.549 130.017 C 101.875 125.512,93.994 124.202,86.646 126.045 M367.000 146.838 C 355.794 150.545,350.392 154.964,346.282 163.788 C 344.020 168.644,343.916 169.481,345.008 174.034 C 345.662 176.761,346.266 181.286,346.349 184.089 C 346.480 188.526,346.149 189.466,343.787 191.351 C 341.928 192.834,340.271 195.978,338.521 201.340 C 337.116 205.643,335.299 210.454,334.483 212.032 C 333.427 214.074,333.000 218.176,333.000 226.271 C 333.000 237.256,333.132 237.949,336.890 246.742 C 339.029 251.748,342.143 257.566,343.808 259.671 C 345.474 261.777,347.695 265.075,348.743 267.000 C 351.566 272.183,354.922 273.472,361.982 272.083 C 369.012 270.700,371.594 271.525,376.444 276.704 C 383.335 284.062,382.200 287.953,373.128 288.078 C 366.350 288.171,359.652 290.422,353.774 294.582 C 350.221 297.096,348.817 299.095,346.156 305.436 C 341.929 315.506,340.737 322.020,340.655 335.500 C 340.587 346.618,342.950 361.893,345.528 367.000 C 347.483 370.872,351.041 381.872,352.447 388.387 C 354.388 397.382,353.185 400.442,343.870 410.209 C 336.768 417.655,335.990 418.854,336.231 421.977 C 336.579 426.473,339.705 428.219,346.500 427.711 C 350.739 427.394,353.201 426.209,362.679 419.919 C 368.827 415.838,375.812 411.344,378.200 409.931 C 381.931 407.723,382.932 406.368,385.315 400.295 C 386.839 396.408,390.756 389.689,394.018 385.364 C 401.668 375.219,401.704 373.690,394.462 366.505 C 389.619 361.702,389.062 360.753,390.023 358.958 C 390.627 357.828,392.172 356.505,393.456 356.017 C 396.314 354.930,396.881 353.433,395.971 349.384 C 395.141 345.689,396.386 343.000,398.927 343.000 C 399.933 343.000,401.341 342.294,402.058 341.430 C 402.832 340.497,404.199 340.084,405.430 340.410 C 410.871 341.854,434.060 334.663,438.614 330.119 C 442.617 326.125,446.572 319.944,447.966 315.500 C 449.657 310.113,453.593 303.304,457.644 298.759 L 460.978 295.018 458.844 289.759 C 457.671 286.867,456.191 283.150,455.557 281.500 C 454.922 279.850,452.737 275.056,450.702 270.846 C 448.666 266.636,447.000 262.934,447.000 262.619 C 447.000 262.303,444.132 256.073,440.626 248.773 C 433.175 233.256,426.619 224.592,412.492 211.593 C 407.168 206.694,401.197 200.253,399.223 197.280 L 395.633 191.874 397.817 183.083 C 400.383 172.748,400.533 168.157,398.524 161.391 C 396.725 155.334,393.315 151.911,385.747 148.566 C 377.828 145.065,373.550 144.671,367.000 146.838 M285.000 183.694 C 281.453 184.962,281.000 187.157,281.000 203.080 C 281.000 223.666,280.741 223.292,295.370 223.833 C 308.277 224.311,310.752 223.777,312.113 220.222 C 312.686 218.725,313.738 211.200,314.452 203.500 C 316.089 185.827,315.740 184.768,307.990 183.849 C 301.293 183.055,287.057 182.959,285.000 183.694 M201.811 186.188 C 198.922 186.957,197.987 187.785,197.499 190.006 C 197.156 191.566,195.684 194.115,194.227 195.671 C 191.279 198.821,190.228 204.245,190.084 217.050 C 189.998 224.748,190.887 227.000,194.013 227.000 C 194.900 227.000,196.948 228.383,198.563 230.073 C 201.252 232.886,201.879 233.090,206.000 232.495 C 208.475 232.137,211.441 231.241,212.590 230.504 C 213.740 229.766,216.492 228.675,218.705 228.080 C 222.521 227.052,222.762 226.756,223.364 222.358 C 223.714 219.808,224.000 211.982,224.000 204.967 C 224.000 191.502,223.822 191.000,219.056 191.000 C 218.076 191.000,215.576 189.650,213.500 188.000 C 209.533 184.848,207.837 184.585,201.811 186.188 M355.500 211.377 C 357.700 212.636,360.056 214.754,360.735 216.083 C 362.245 219.036,362.368 230.136,360.947 235.250 C 359.300 241.183,356.930 240.231,350.984 231.250 C 346.323 224.209,345.895 223.088,346.303 219.000 C 346.871 213.314,348.575 208.987,350.225 209.043 C 350.926 209.067,353.300 210.117,355.500 211.377 " style="stroke: none; fill: black;">
                    </path></svg>