<svg id="svg-path" width="100%" height="100%" viewBox="0 0 512 512" version="1.1" xmlns="http://www.w3.org/2000/svg" style="fill-rule:evenodd;clip-rule:evenodd;stroke-linejoin:round;stroke-miterlimit:2;">
                        <path d="M212.000 45.803 C 202.637 48.297,197.261 51.385,190.868 57.943 C 170.076 79.269,175.571 114.543,201.835 128.344 C 211.507 133.426,212.300 136.094,204.708 138.005 C 202.394 138.587,193.777 142.290,185.559 146.233 C 171.201 153.123,170.282 153.418,161.972 153.816 C 153.574 154.217,153.265 154.152,151.227 151.562 C 147.894 147.325,143.603 133.319,143.548 126.500 C 143.503 120.912,143.793 120.132,147.755 115.154 C 153.176 108.343,153.770 105.982,151.135 101.718 C 148.190 96.953,144.969 95.587,136.577 95.540 C 127.836 95.492,124.804 96.891,122.480 102.044 C 120.979 105.372,120.913 106.659,121.958 112.178 C 122.616 115.655,123.543 123.000,124.017 128.500 C 124.490 134.000,125.335 141.875,125.893 146.000 C 126.905 153.473,131.989 171.115,134.582 176.148 C 136.396 179.670,143.497 183.000,149.194 183.000 C 151.703 183.000,155.415 183.693,157.442 184.540 C 160.627 185.871,161.643 187.198,164.906 194.290 C 169.083 203.369,170.037 204.456,174.703 205.454 C 179.016 206.375,182.457 209.242,184.023 213.216 C 184.734 215.022,187.045 220.239,189.158 224.809 C 191.271 229.379,193.000 233.528,193.000 234.028 C 193.000 234.529,194.125 238.385,195.500 242.597 C 197.710 249.368,197.997 251.949,197.976 264.878 C 197.962 272.920,197.509 281.418,196.968 283.763 C 195.757 289.012,197.194 292.854,202.389 298.252 C 206.200 302.213,206.794 304.730,204.762 308.316 C 203.894 309.848,203.345 319.602,202.922 341.000 C 202.447 365.041,201.945 373.088,200.552 379.000 C 199.581 383.125,197.748 391.675,196.479 398.000 C 192.311 418.785,189.400 429.629,187.134 432.812 C 183.709 437.622,177.265 442.415,168.944 446.342 C 164.788 448.303,160.119 450.905,158.568 452.125 C 154.589 455.255,152.048 461.457,152.022 468.104 C 152.004 472.685,152.448 474.191,154.452 476.354 C 158.834 481.082,168.528 479.881,184.000 472.694 C 188.125 470.777,196.900 467.317,203.500 465.004 C 210.100 462.691,216.916 459.936,218.646 458.882 C 223.838 455.719,223.999 449.998,219.164 440.500 C 214.724 431.779,216.060 423.191,225.434 400.185 C 228.522 392.605,230.551 385.672,231.580 379.185 C 234.031 363.723,236.083 356.055,238.556 353.115 C 241.076 350.121,248.056 348.000,255.388 348.000 C 260.248 348.000,263.623 345.514,264.588 341.222 C 267.098 330.065,268.800 327.618,273.662 328.175 C 275.805 328.420,277.357 329.781,280.000 333.733 C 284.450 340.386,286.653 341.886,293.649 343.024 C 297.178 343.599,300.242 344.805,301.775 346.223 C 305.466 349.638,312.377 360.490,316.589 369.484 C 318.645 373.875,322.391 380.785,324.914 384.838 C 335.210 401.384,338.736 408.166,342.150 417.990 C 343.975 423.244,343.986 423.785,342.386 430.571 C 339.382 443.311,342.422 448.758,354.021 451.424 C 357.584 452.243,363.425 453.582,367.000 454.399 C 370.575 455.216,375.975 456.619,379.000 457.517 C 394.412 462.093,406.214 463.191,412.364 460.621 C 416.158 459.036,420.000 454.610,420.000 451.825 C 420.000 448.853,416.545 442.891,412.269 438.482 C 408.353 434.445,406.437 433.647,383.000 426.288 C 380.525 425.511,377.505 424.229,376.289 423.440 C 370.506 419.687,361.071 400.987,352.883 377.053 C 351.294 372.406,348.172 365.539,345.946 361.792 C 340.326 352.333,337.021 344.971,337.010 341.888 C 337.004 340.451,338.360 337.563,340.023 335.472 C 343.878 330.620,344.409 328.352,343.602 320.166 C 342.061 304.512,336.732 284.964,331.405 275.422 C 328.354 269.957,328.374 267.237,331.500 263.000 C 335.275 257.883,334.750 254.437,328.000 240.000 C 324.700 232.943,322.000 226.953,322.000 226.691 C 322.000 226.428,318.792 220.653,314.872 213.857 C 307.056 200.308,305.596 196.837,303.444 186.685 C 301.361 176.853,301.602 174.112,305.000 169.000 C 306.645 166.525,307.993 163.652,307.996 162.616 C 307.998 161.580,308.450 158.992,309.000 156.866 C 309.550 154.740,310.493 151.088,311.095 148.750 C 312.500 143.296,315.259 140.337,321.549 137.536 C 328.245 134.555,333.573 128.267,335.069 121.582 C 336.822 113.748,334.774 70.031,332.091 58.000 C 331.539 55.525,331.068 53.197,331.044 52.827 C 331.020 52.456,329.835 50.769,328.411 49.077 C 325.981 46.189,325.398 46.000,318.931 46.000 C 311.352 46.000,304.518 48.164,302.971 51.055 C 302.437 52.052,302.000 54.544,302.000 56.592 C 302.000 59.875,302.818 61.121,308.912 67.119 C 313.140 71.281,316.076 75.068,316.473 76.875 C 317.150 79.958,311.857 109.529,310.011 112.980 C 308.935 114.991,308.039 115.380,301.000 116.895 C 296.256 117.917,258.465 118.799,257.576 117.909 C 257.290 117.624,258.940 113.614,261.241 108.998 C 265.061 101.336,265.460 99.804,265.828 91.376 C 266.297 80.662,264.548 73.521,259.488 65.489 C 249.202 49.163,229.713 41.084,212.000 45.803 " style="stroke: none; fill: black;">
                    </path></svg>