<svg id="svg-path" width="100%" height="100%" viewBox="0 0 512 512" version="1.1" xmlns="http://www.w3.org/2000/svg" style="fill-rule:evenodd;clip-rule:evenodd;stroke-linejoin:round;stroke-miterlimit:2;">
                        <path d="M350.298 24.654 C 347.812 27.319,344.425 31.380,342.772 33.677 C 337.543 40.943,335.817 41.062,322.555 35.067 C 311.344 30.000,311.043 29.926,308.034 31.483 C 304.247 33.441,299.000 40.488,299.000 43.616 C 299.000 45.786,308.945 62.230,311.041 63.525 C 311.568 63.851,312.000 65.626,312.000 67.469 C 312.000 69.928,310.869 72.207,307.750 76.028 C 297.568 88.505,297.440 89.161,303.814 96.216 C 308.942 101.892,310.347 102.184,320.859 99.765 C 328.643 97.974,330.546 97.847,334.021 98.888 C 337.595 99.959,358.291 114.597,360.235 117.429 C 361.789 119.694,360.933 123.714,358.394 126.076 C 355.078 129.160,354.102 131.754,353.024 140.339 C 352.241 146.572,351.744 147.685,348.077 151.422 C 345.835 153.706,344.000 156.369,344.000 157.338 C 344.000 160.685,341.075 164.737,337.399 166.481 C 332.923 168.605,326.331 167.986,321.477 164.986 C 316.608 161.976,309.592 160.149,300.042 159.403 C 295.344 159.037,290.600 158.282,289.500 157.726 C 288.400 157.170,284.918 154.087,281.762 150.875 L 276.024 145.035 276.178 138.768 C 276.409 129.331,274.284 105.031,272.840 100.592 C 272.140 98.442,270.149 95.180,268.416 93.342 C 265.769 90.536,264.558 90.000,260.862 90.000 C 251.347 90.000,233.737 97.052,226.504 103.760 C 225.023 105.132,222.279 108.651,220.406 111.580 C 217.371 116.323,217.000 117.659,217.000 123.833 C 217.000 128.786,217.713 132.656,219.500 137.404 C 222.500 145.375,222.623 150.429,220.019 158.736 C 217.427 167.004,215.810 169.272,209.721 173.179 C 206.907 174.985,203.455 177.546,202.052 178.871 C 200.648 180.195,197.925 182.468,196.000 183.921 C 185.549 191.809,169.746 207.721,164.142 216.000 C 162.095 219.025,157.130 224.650,153.109 228.500 C 149.089 232.350,144.948 237.162,143.908 239.194 C 142.868 241.225,140.348 244.508,138.309 246.489 L 134.601 250.090 133.931 261.295 C 133.018 276.571,134.875 281.000,142.194 281.000 C 147.787 281.000,153.269 275.585,156.267 267.100 C 157.563 263.434,159.377 260.240,160.515 259.624 C 169.012 255.021,176.544 249.656,182.500 243.963 C 186.350 240.283,191.528 235.915,194.006 234.256 C 196.485 232.597,201.947 227.586,206.145 223.120 C 217.752 210.772,219.608 212.073,216.031 230.051 C 213.471 242.921,213.661 248.087,217.064 258.189 C 218.129 261.350,219.000 264.584,219.000 265.374 C 219.000 266.164,217.360 268.766,215.355 271.155 C 210.292 277.190,209.000 280.825,209.000 289.032 C 209.000 294.555,208.423 297.389,206.396 301.814 C 203.343 308.480,201.127 314.490,197.663 325.500 C 191.559 344.901,190.939 348.602,190.548 368.000 C 190.086 390.857,189.139 405.263,187.753 410.500 C 187.171 412.700,186.779 417.313,186.882 420.750 C 187.049 426.358,186.440 428.502,180.954 441.609 C 177.591 449.644,173.301 458.360,171.420 460.979 C 167.278 466.744,166.939 470.646,170.463 471.986 C 175.459 473.885,181.502 470.555,191.903 460.170 C 195.975 456.105,201.689 451.255,204.600 449.393 C 213.257 443.855,215.314 440.341,216.177 429.615 C 217.301 415.656,218.551 407.473,221.315 396.000 C 222.940 389.255,224.037 381.222,224.381 373.538 C 224.859 362.877,225.231 360.973,227.802 356.038 C 229.389 352.992,231.010 349.150,231.404 347.500 C 231.799 345.850,233.297 342.700,234.733 340.500 C 238.918 334.089,250.303 322.000,252.156 322.000 C 254.323 322.000,257.993 326.621,258.022 329.385 C 258.034 330.548,258.969 333.525,260.100 336.000 C 262.712 341.718,269.688 368.708,271.017 378.242 C 271.909 384.637,276.170 404.035,279.201 415.500 C 281.122 422.766,281.293 432.807,279.586 438.028 C 276.653 446.993,277.089 448.277,286.000 456.940 C 290.400 461.218,294.000 465.474,294.000 466.399 C 294.000 471.559,301.062 479.862,307.880 482.719 C 317.763 486.860,322.631 475.069,315.566 464.103 C 312.953 460.047,311.267 455.219,308.508 443.899 L 304.884 429.025 306.577 423.263 C 307.508 420.093,308.239 415.250,308.201 412.500 C 308.164 409.750,308.124 401.707,308.112 394.626 C 308.100 387.545,307.554 379.220,306.899 376.126 C 306.244 373.032,305.586 367.125,305.435 363.000 C 305.285 358.875,304.655 348.075,304.034 339.000 C 303.413 329.925,302.774 315.525,302.613 307.000 C 302.453 298.475,301.959 287.774,301.515 283.220 C 300.762 275.496,300.854 274.784,302.889 272.618 C 306.162 269.134,309.315 256.924,308.564 250.640 C 308.226 247.813,307.693 236.970,307.378 226.545 C 306.799 207.352,307.522 200.781,310.330 199.704 C 311.052 199.427,314.071 199.830,317.039 200.600 C 320.007 201.370,326.837 202.000,332.215 202.000 C 345.437 202.000,352.208 198.962,360.726 189.209 C 363.948 185.519,367.280 181.375,368.130 180.000 C 370.309 176.476,373.821 160.465,373.723 154.500 C 373.678 151.724,374.666 146.440,375.945 142.622 C 378.787 134.137,378.301 127.849,374.285 121.148 C 371.652 116.753,371.500 115.846,371.498 104.500 C 371.496 97.900,371.131 91.150,370.686 89.500 C 369.351 84.556,371.268 83.187,382.000 81.425 C 396.769 78.999,398.795 78.297,400.494 75.011 C 403.163 69.851,401.871 61.649,398.010 59.238 C 396.934 58.567,391.932 57.350,386.893 56.535 C 372.867 54.267,372.923 54.331,370.981 38.500 C 369.723 28.240,368.487 25.791,363.235 23.141 C 355.649 19.314,355.234 19.362,350.298 24.654 M359.794 38.750 C 360.365 40.263,361.085 42.970,361.394 44.768 C 361.704 46.565,363.580 51.364,365.564 55.432 C 369.236 62.964,369.549 63.231,377.500 65.639 C 381.749 66.927,381.218 69.178,376.230 71.020 C 373.881 71.888,371.339 73.251,370.579 74.049 C 369.820 74.847,367.413 77.300,365.230 79.500 C 360.493 84.274,359.673 86.974,361.577 91.531 C 363.511 96.159,363.366 98.634,361.023 100.977 C 358.596 103.404,357.201 102.957,350.000 97.444 C 340.733 90.350,335.185 87.739,330.809 88.413 C 328.714 88.736,325.297 89.263,323.215 89.585 C 320.366 90.025,318.852 89.701,317.091 88.275 C 314.871 86.477,314.830 86.231,316.287 83.440 C 317.131 81.823,319.250 79.150,320.997 77.500 C 325.968 72.804,326.328 71.563,324.028 67.054 C 322.912 64.868,322.000 62.607,322.000 62.029 C 322.000 61.451,319.750 57.388,317.000 53.000 C 314.250 48.612,312.000 44.792,312.000 44.511 C 312.000 43.216,315.812 44.274,321.864 47.250 C 326.930 49.741,329.670 50.471,333.594 50.375 C 342.099 50.167,345.483 48.489,350.640 41.925 C 355.761 35.407,358.213 34.557,359.794 38.750 " style="stroke: none; fill: black;">
                    </path></svg>