<svg id="svg-path" width="100%" height="100%" viewBox="0 0 512 512" version="1.1" xmlns="http://www.w3.org/2000/svg" style="fill-rule:evenodd;clip-rule:evenodd;stroke-linejoin:round;stroke-miterlimit:2;">
                        <path d="M148.855 238.868 C 146.615 240.657,146.014 242.299,144.928 249.598 C 142.880 263.362,138.633 265.880,135.614 255.121 C 134.726 251.957,133.985 248.048,133.967 246.434 C 133.948 244.820,132.998 242.375,131.855 241.000 C 129.789 238.515,129.662 238.498,110.638 238.190 C 100.112 238.019,85.691 238.283,78.592 238.775 C 65.996 239.648,65.619 239.743,63.003 242.671 C 60.805 245.131,60.171 247.100,59.489 253.586 C 57.891 268.785,59.133 283.628,62.344 287.710 L 64.384 290.304 96.442 289.601 C 131.221 288.837,132.400 288.635,133.553 283.237 C 133.875 281.732,134.686 278.925,135.355 277.000 C 137.684 270.297,144.000 272.760,144.000 280.373 C 144.000 281.626,145.161 283.742,146.581 285.076 C 149.010 287.358,150.081 287.539,164.831 288.162 C 173.449 288.525,187.302 288.863,195.615 288.912 C 209.399 288.992,210.959 288.820,213.328 286.957 C 214.947 285.683,216.152 283.517,216.526 281.207 C 217.546 274.915,218.775 272.829,221.253 273.182 C 223.094 273.444,223.626 274.380,224.277 278.500 C 226.088 289.980,226.520 291.309,229.000 293.060 C 231.152 294.579,235.707 294.990,261.762 296.019 C 295.593 297.355,296.097 297.281,297.782 290.745 C 298.913 286.356,301.886 286.001,304.776 289.910 C 306.077 291.670,308.535 293.330,310.744 293.940 C 312.810 294.510,328.225 295.277,345.000 295.644 C 372.436 296.243,375.826 296.141,378.750 294.629 C 380.642 293.651,382.000 292.175,382.000 291.097 C 382.000 287.230,387.301 285.662,389.089 289.000 C 389.531 289.825,390.166 292.208,390.500 294.295 C 391.338 299.532,393.225 300.075,414.000 301.062 C 423.625 301.519,437.575 302.197,445.000 302.568 C 462.359 303.437,462.355 303.440,465.108 289.485 C 467.021 279.788,467.028 279.185,465.337 268.570 C 463.070 254.346,462.084 253.125,451.944 251.988 C 447.812 251.525,433.556 250.821,420.265 250.426 C 393.057 249.615,392.734 249.681,389.110 256.785 C 387.703 259.543,387.334 261.781,387.720 265.211 C 388.345 270.755,387.461 275.000,385.681 275.000 C 384.346 275.000,382.569 267.840,381.462 258.000 C 380.567 250.044,379.260 247.286,375.816 246.086 C 374.169 245.512,359.841 244.736,343.976 244.363 C 311.078 243.589,311.838 243.434,307.621 251.768 C 305.588 255.785,305.292 257.557,305.665 263.500 C 306.123 270.797,305.019 274.419,302.964 272.364 C 301.332 270.732,300.051 264.345,300.024 257.705 C 299.993 250.299,297.583 247.517,290.412 246.612 C 282.468 245.610,253.298 244.010,242.885 244.005 C 231.898 243.999,228.676 245.517,227.479 251.262 C 225.118 262.589,218.000 260.820,218.000 248.907 C 218.000 243.347,214.704 239.971,208.286 238.956 C 205.473 238.511,191.545 237.835,177.336 237.452 C 152.020 236.771,151.447 236.799,148.855 238.868 " style="stroke: none; fill: black;">
                    </path></svg>