<svg id="svg-path" width="100%" height="100%" viewBox="0 0 512 512" version="1.1" xmlns="http://www.w3.org/2000/svg" style="fill-rule:evenodd;clip-rule:evenodd;stroke-linejoin:round;stroke-miterlimit:2;">
                        <path d="M129.985 269.035 C 128.916 271.617,128.994 272.660,130.506 276.013 C 131.484 278.181,133.232 280.271,134.392 280.657 C 137.510 281.695,158.277 281.272,162.702 280.080 C 173.618 277.141,217.542 276.591,247.000 279.024 C 253.325 279.547,272.450 280.891,289.500 282.011 C 306.550 283.130,323.984 284.507,328.243 285.070 C 341.007 286.757,347.000 284.669,347.000 278.536 C 347.000 271.788,346.714 271.702,321.373 270.816 C 289.837 269.714,263.111 268.262,253.000 267.101 C 248.325 266.565,219.017 266.098,187.871 266.063 L 131.243 266.000 129.985 269.035 " style="stroke: none; fill: black;">
                    </path></svg>