<svg id="svg-path" width="100%" height="100%" viewBox="0 0 512 512" version="1.1" xmlns="http://www.w3.org/2000/svg" style="fill-rule:evenodd;clip-rule:evenodd;stroke-linejoin:round;stroke-miterlimit:2;">
                        <path d="M150.743 135.203 C 148.959 137.110,146.723 140.913,145.773 143.654 C 144.664 146.856,143.149 149.118,141.535 149.981 C 140.153 150.721,137.181 154.152,134.931 157.606 C 130.485 164.430,129.860 167.680,128.351 191.821 C 127.841 199.980,127.258 202.807,125.569 205.321 C 123.555 208.318,123.005 208.529,115.966 209.000 C 106.445 209.638,100.825 212.781,94.494 221.008 C 88.919 228.253,87.634 229.000,80.744 229.000 C 70.234 229.000,64.260 232.363,58.012 241.796 C 55.454 245.657,55.000 247.303,55.000 252.711 C 55.000 260.374,56.877 264.508,63.809 272.118 C 66.506 275.078,69.456 278.949,70.366 280.720 C 72.280 284.446,74.713 285.994,78.684 286.014 C 83.887 286.039,85.958 287.202,89.449 292.062 C 92.138 295.805,93.890 297.173,97.211 298.121 C 103.168 299.821,104.685 301.403,106.562 307.873 C 107.459 310.968,109.274 316.073,110.596 319.217 C 113.363 325.803,113.617 331.041,112.332 355.000 C 111.847 364.034,110.979 371.411,110.250 372.684 C 108.270 376.143,108.764 379.776,112.149 386.652 C 114.326 391.073,115.495 395.190,115.934 399.981 C 116.427 405.359,117.105 407.483,118.959 409.456 C 122.136 412.838,125.914 412.743,129.313 409.195 C 132.454 405.917,132.647 404.375,130.250 401.718 C 127.743 398.940,128.133 389.056,130.921 384.721 C 134.731 378.796,137.671 371.582,140.383 361.500 C 141.862 356.000,144.366 347.225,145.948 342.000 C 147.529 336.775,149.571 329.879,150.486 326.675 C 153.431 316.362,156.855 314.974,174.418 316.979 C 181.083 317.739,191.878 318.058,201.500 317.778 C 215.980 317.357,218.165 317.051,224.500 314.558 C 228.350 313.043,232.400 311.601,233.500 311.354 C 237.029 310.559,272.638 323.609,279.000 328.029 C 284.740 332.016,306.787 340.763,320.500 344.494 C 323.250 345.242,329.550 347.075,334.500 348.567 C 341.898 350.797,345.315 351.264,353.699 351.192 C 365.790 351.089,370.996 349.869,375.137 346.168 C 378.959 342.754,380.266 335.409,377.538 332.681 C 375.518 330.661,368.170 330.457,357.988 332.139 C 349.188 333.592,341.384 332.176,332.748 327.557 C 329.312 325.719,324.925 323.886,323.000 323.484 C 315.484 321.912,303.454 314.745,294.665 306.601 C 292.005 304.137,288.535 301.837,286.954 301.490 C 283.358 300.700,265.011 287.046,260.962 282.147 C 256.327 276.539,253.800 270.671,254.588 267.345 C 255.381 263.999,268.493 244.056,273.225 239.000 C 277.914 233.989,287.827 225.765,292.500 223.008 C 294.700 221.710,302.564 216.601,309.975 211.654 C 317.386 206.707,327.286 200.880,331.975 198.705 C 336.664 196.530,341.907 193.701,343.628 192.418 C 345.348 191.135,349.131 189.182,352.035 188.079 C 364.017 183.526,366.598 175.611,358.027 169.704 C 352.828 166.121,347.843 167.543,336.202 175.930 C 331.825 179.083,326.030 181.987,319.500 184.298 C 301.335 190.728,271.582 205.338,260.000 213.516 C 257.525 215.263,254.150 217.369,252.500 218.194 C 250.850 219.020,244.100 222.688,237.500 226.346 C 224.034 233.809,222.216 234.139,212.000 230.966 C 201.471 227.697,192.322 226.000,185.185 225.994 C 177.076 225.988,171.832 224.639,168.507 221.703 C 165.928 219.427,164.767 214.827,158.869 183.500 C 157.730 177.450,156.100 169.231,155.246 165.236 C 153.700 157.995,153.703 157.951,156.398 151.083 C 157.884 147.294,160.202 142.913,161.549 141.347 C 165.732 136.483,164.473 133.141,158.137 132.292 C 154.363 131.785,153.692 132.049,150.743 135.203 M341.992 260.510 C 340.634 262.146,341.053 267.595,342.898 272.313 C 343.836 274.711,344.480 275.080,347.249 274.813 L 350.500 274.500 350.309 268.794 C 350.203 265.655,349.625 262.168,349.023 261.044 C 347.734 258.635,343.796 258.335,341.992 260.510 M426.712 261.431 C 425.706 262.437,425.404 264.445,425.696 268.181 C 426.441 277.727,426.585 278.000,430.897 278.000 C 436.535 278.000,437.381 276.443,436.126 268.379 C 435.551 264.688,434.500 261.300,433.790 260.849 C 431.775 259.571,428.285 259.858,426.712 261.431 M459.827 261.674 C 456.577 262.534,454.558 274.158,457.200 276.800 C 457.860 277.460,459.634 278.000,461.143 278.000 C 464.970 278.000,467.000 274.685,467.000 268.438 C 467.000 263.925,466.699 263.184,464.453 262.161 C 463.052 261.522,461.815 261.052,461.703 261.116 C 461.591 261.180,460.747 261.431,459.827 261.674 M290.195 263.265 C 289.571 264.017,288.766 267.143,288.405 270.213 C 287.814 275.239,287.960 275.908,289.874 276.933 C 294.451 279.382,297.629 274.354,296.827 265.933 C 296.556 263.089,296.057 262.448,293.914 262.199 C 292.492 262.034,290.818 262.514,290.195 263.265 M375.221 267.558 C 373.215 268.963,373.059 269.676,373.631 274.808 C 374.599 283.486,378.093 286.174,383.118 282.106 C 385.365 280.286,385.410 279.985,384.258 274.493 C 382.471 265.974,380.090 264.147,375.221 267.558 M400.000 268.320 C 397.720 269.497,397.518 270.127,397.710 275.492 C 397.880 280.264,398.391 281.845,400.414 283.869 C 402.603 286.057,403.224 286.219,405.482 285.190 C 406.898 284.545,408.331 283.300,408.667 282.424 C 409.547 280.131,406.968 269.727,405.153 268.250 C 403.268 266.716,403.104 266.718,400.000 268.320 " style="stroke: none; fill: black;">
                    </path></svg>