<svg id="svg-path" width="100%" height="100%" viewBox="0 0 512 512" version="1.1" xmlns="http://www.w3.org/2000/svg" style="fill-rule:evenodd;clip-rule:evenodd;stroke-linejoin:round;stroke-miterlimit:2;">
                        <path d="M436.000 70.095 C 432.615 70.956,429.825 71.414,410.454 74.288 C 405.479 75.026,400.820 75.993,400.102 76.437 C 399.383 76.881,392.203 77.382,384.147 77.550 C 370.413 77.836,347.885 79.361,340.000 80.538 C 336.875 81.004,336.310 80.722,334.726 77.908 L 332.953 74.755 321.226 75.350 C 296.702 76.593,282.723 78.377,279.500 80.676 C 276.693 82.679,274.989 82.847,253.000 83.301 C 237.101 83.629,228.611 84.196,226.753 85.052 C 224.415 86.130,223.513 86.053,220.694 84.535 C 217.731 82.939,215.390 82.811,198.441 83.322 C 136.812 85.180,118.892 85.988,117.012 86.994 C 115.883 87.598,114.405 87.735,113.729 87.298 C 111.955 86.152,67.932 84.217,65.232 85.166 C 61.824 86.365,60.910 90.125,60.284 105.509 C 59.645 121.212,59.459 120.716,67.008 123.500 C 74.564 126.287,86.771 128.064,102.632 128.686 C 115.495 129.190,118.103 129.041,120.031 127.691 C 122.054 126.274,122.607 126.262,125.170 127.588 C 127.548 128.817,131.950 128.991,150.771 128.599 C 163.272 128.339,175.075 128.195,177.000 128.279 C 178.925 128.363,189.431 128.447,200.346 128.466 L 220.192 128.500 222.383 125.750 C 223.589 124.238,224.926 123.000,225.354 123.000 C 225.783 123.000,227.755 124.237,229.736 125.750 L 233.338 128.500 254.248 128.807 C 268.696 129.019,275.577 128.766,276.515 127.988 C 277.261 127.368,278.160 125.548,278.513 123.942 C 279.388 119.958,280.734 119.401,283.410 121.915 C 285.578 123.953,286.329 124.017,301.586 123.468 C 323.441 122.683,329.612 121.539,333.248 117.600 C 336.061 114.554,336.137 114.535,337.617 116.500 C 338.446 117.600,339.381 119.753,339.694 121.286 C 340.785 126.617,342.421 126.747,375.288 124.110 C 386.863 123.182,387.147 123.100,391.041 119.582 C 395.714 115.360,396.740 115.185,397.963 118.403 C 398.466 119.724,399.353 121.100,399.936 121.460 C 401.877 122.660,430.146 118.951,443.224 115.780 C 445.823 115.151,450.098 113.013,452.724 111.031 L 457.500 107.426 457.840 100.463 C 458.333 90.350,456.087 74.380,453.754 71.415 C 452.092 69.302,451.083 69.013,445.677 69.102 C 442.280 69.159,437.925 69.605,436.000 70.095 M238.783 145.776 C 237.738 148.044,235.875 150.024,234.020 150.839 C 229.123 152.993,228.603 155.100,231.337 161.726 C 233.610 167.238,233.725 168.632,233.871 192.458 C 234.022 217.360,234.030 217.436,237.011 226.191 C 240.858 237.486,240.974 245.357,237.465 257.051 C 231.893 275.617,230.967 279.891,230.431 289.500 C 229.707 302.481,229.495 303.359,226.139 307.232 C 223.624 310.135,221.166 316.724,215.967 334.500 C 215.484 336.150,214.429 339.750,213.622 342.500 C 212.815 345.250,211.853 349.300,211.484 351.500 C 210.502 357.353,207.374 366.219,202.466 377.062 C 197.237 388.613,190.000 409.906,190.000 413.739 C 190.000 415.265,189.526 418.085,188.946 420.007 C 186.155 429.261,184.000 438.629,184.000 441.512 C 184.000 449.142,192.722 455.378,198.290 451.730 C 200.939 449.994,201.970 445.991,201.989 437.376 C 202.002 431.223,204.233 424.451,207.379 421.014 C 208.645 419.631,210.281 416.925,211.014 415.000 C 214.338 406.269,225.667 385.568,232.256 376.184 C 236.240 370.510,240.887 363.760,242.582 361.184 C 246.106 355.828,249.658 354.461,250.375 358.185 C 252.277 368.068,253.076 380.599,253.463 406.614 C 253.899 435.948,253.845 437.035,251.370 448.614 C 247.486 466.788,247.569 465.866,249.610 468.122 C 250.627 469.246,252.968 470.795,254.812 471.566 C 257.718 472.780,258.548 472.768,261.052 471.473 C 264.760 469.556,265.600 467.839,266.420 460.500 C 267.337 452.301,271.055 435.945,272.557 433.500 C 273.288 432.310,274.268 423.600,274.974 412.000 C 275.932 396.285,276.558 391.627,278.201 388.000 C 279.788 384.499,280.441 380.058,281.144 368.000 C 281.641 359.475,282.421 347.100,282.878 340.500 C 283.518 331.240,283.399 327.615,282.354 324.624 C 281.609 322.493,281.000 319.947,281.000 318.967 C 281.000 317.988,283.925 313.744,287.500 309.538 C 293.992 301.898,294.000 301.882,294.000 295.633 C 294.000 290.699,294.435 288.910,296.060 287.166 C 298.616 284.422,299.419 284.898,301.974 290.673 C 303.090 293.198,305.713 297.791,307.801 300.882 C 311.913 306.965,315.000 313.050,315.000 315.070 C 315.000 315.768,316.335 318.703,317.966 321.594 C 319.600 324.489,321.380 329.632,321.930 333.045 C 322.479 336.453,323.642 340.332,324.516 341.665 C 328.906 348.365,340.000 346.141,340.000 338.561 C 340.000 336.711,338.626 333.299,336.638 330.214 C 334.099 326.273,333.116 323.439,332.624 318.637 C 332.266 315.139,330.854 309.524,329.486 306.159 C 328.119 302.793,327.000 299.018,326.999 297.770 C 326.998 294.696,324.196 287.705,320.184 280.763 C 318.227 277.378,316.957 273.894,317.085 272.263 C 317.516 266.759,316.941 264.941,313.598 261.240 C 309.602 256.817,305.000 248.529,305.000 245.755 C 305.000 244.685,305.765 242.514,306.700 240.931 C 308.277 238.261,308.284 237.694,306.795 233.037 C 305.366 228.570,305.350 227.496,306.644 223.260 C 308.227 218.080,307.740 209.151,305.664 205.295 C 305.011 204.082,302.369 201.590,299.792 199.758 C 297.214 197.925,293.447 194.254,291.420 191.599 L 287.734 186.772 281.623 187.463 C 274.505 188.268,267.094 191.207,264.076 194.420 C 262.909 195.661,260.727 199.081,259.227 202.018 C 254.466 211.342,252.583 209.573,251.088 194.371 C 250.554 188.942,249.191 181.924,248.059 178.775 C 246.493 174.421,246.000 170.626,246.000 162.929 C 246.000 152.376,243.851 141.978,241.679 142.026 C 241.031 142.040,239.727 143.727,238.783 145.776 " style="stroke: none; fill: black;">
                    </path></svg>