<svg id="svg-path" width="100%" height="100%" viewBox="0 0 512 512" version="1.1" xmlns="http://www.w3.org/2000/svg" style="fill-rule:evenodd;clip-rule:evenodd;stroke-linejoin:round;stroke-miterlimit:2;">
                        <path d="M293.000 60.000 C 293.000 60.550,294.323 61.000,295.941 61.000 C 297.559 61.000,299.160 60.550,299.500 60.000 C 299.868 59.405,298.677 59.000,296.559 59.000 C 294.602 59.000,293.000 59.450,293.000 60.000 M276.000 65.330 C 264.184 70.234,256.965 77.299,250.413 90.371 C 248.999 93.192,246.822 96.850,245.575 98.500 C 244.328 100.150,242.318 104.375,241.108 107.889 C 239.172 113.508,238.807 117.431,238.074 140.478 C 237.493 158.765,236.847 167.408,235.934 169.090 C 235.215 170.415,234.285 173.964,233.869 176.975 C 233.452 179.986,231.550 185.611,229.641 189.475 C 227.733 193.339,225.962 197.625,225.706 199.000 C 224.769 204.044,218.003 221.251,214.196 228.275 C 208.768 238.290,207.623 243.261,208.243 254.131 C 208.764 263.260,207.686 273.018,204.447 288.500 C 201.983 300.275,201.179 306.615,201.084 315.004 C 200.999 322.565,202.233 327.006,209.973 347.000 C 212.671 353.967,214.336 358.942,216.501 366.500 C 217.446 369.800,218.807 374.525,219.525 377.000 C 222.128 385.976,223.106 398.014,223.383 424.500 L 223.665 451.500 226.383 457.204 C 232.043 469.080,239.400 471.324,255.071 465.956 C 260.257 464.179,264.950 462.384,265.500 461.965 C 267.167 460.697,277.174 458.000,280.213 458.000 C 286.698 458.000,304.274 466.417,310.234 472.377 C 313.486 475.629,318.005 477.000,325.470 477.000 C 331.700 477.000,333.701 476.583,336.775 474.642 C 343.190 470.593,347.662 464.804,348.924 458.918 C 350.229 452.835,349.480 437.094,347.405 427.000 C 346.671 423.425,345.588 418.025,345.000 415.000 C 344.412 411.975,343.496 407.328,342.965 404.674 C 341.712 398.407,341.737 391.821,343.028 388.427 C 343.593 386.941,346.621 381.849,349.756 377.112 C 354.561 369.852,355.594 367.480,356.334 362.000 C 357.792 351.202,357.120 336.292,354.875 329.628 C 351.867 320.699,353.299 310.994,359.656 297.231 C 367.654 279.917,367.355 281.329,367.431 260.500 C 367.514 237.778,366.228 220.000,364.503 220.000 C 363.847 220.000,362.565 220.823,361.655 221.829 C 359.531 224.176,359.448 237.669,361.500 247.000 C 362.286 250.575,362.946 258.321,362.965 264.213 C 363.003 275.756,362.420 277.961,355.513 292.416 C 353.652 296.312,351.887 301.750,351.592 304.500 C 349.822 321.011,349.815 323.791,351.518 333.016 C 352.482 338.232,353.479 345.919,353.734 350.098 L 354.198 357.695 346.574 372.390 C 341.871 381.454,338.711 388.833,338.325 391.647 C 337.630 396.716,339.130 412.929,342.068 432.114 C 343.131 439.051,343.990 446.926,343.978 449.614 C 343.935 459.279,338.338 466.634,328.894 469.439 C 322.213 471.423,319.128 470.628,312.807 465.296 C 309.888 462.833,306.508 459.980,305.295 458.955 C 301.368 455.636,287.265 452.000,278.321 452.000 C 270.031 452.000,265.121 453.367,259.780 457.161 C 256.796 459.281,247.465 462.002,243.201 461.996 C 238.923 461.990,234.064 458.400,232.003 453.723 C 229.658 448.401,227.633 430.552,228.403 422.000 C 229.469 410.170,226.228 377.805,223.147 369.500 C 222.534 367.850,219.739 359.750,216.934 351.500 C 214.129 343.250,210.487 332.675,208.841 328.000 C 205.529 318.595,205.488 319.587,210.049 299.000 C 211.085 294.325,212.399 286.363,212.970 281.306 C 213.540 276.250,214.455 270.933,215.003 269.491 C 215.552 268.049,216.020 264.762,216.044 262.185 C 216.068 259.608,216.736 255.700,217.529 253.500 C 218.321 251.300,218.977 248.728,218.985 247.785 C 218.993 246.842,219.616 244.142,220.369 241.785 C 221.122 239.428,222.508 234.800,223.449 231.500 C 225.607 223.932,226.725 220.823,229.674 214.181 C 230.973 211.256,232.677 205.406,233.460 201.181 C 235.212 191.728,236.367 186.095,238.931 174.500 C 240.349 168.090,240.951 161.471,241.025 151.500 C 241.082 143.800,241.469 131.130,241.885 123.344 L 242.642 109.188 250.071 97.510 C 254.157 91.086,259.428 83.957,261.784 81.666 C 264.140 79.374,268.605 74.912,271.706 71.750 C 274.807 68.588,277.887 66.000,278.550 66.000 C 279.213 66.000,280.315 65.325,281.000 64.500 C 282.576 62.601,282.575 62.601,276.000 65.330 M310.000 64.479 C 310.000 65.447,319.212 73.410,327.243 79.384 C 335.892 85.818,340.433 91.468,345.822 102.500 C 347.433 105.800,349.086 110.075,349.494 112.000 C 349.903 113.925,350.824 116.625,351.541 118.000 C 354.079 122.863,354.294 117.447,351.887 109.288 C 347.866 95.653,338.163 82.909,325.000 73.973 C 323.075 72.666,319.446 69.887,316.936 67.798 C 312.901 64.441,310.000 63.053,310.000 64.479 M114.274 100.437 C 106.995 102.200,101.634 106.063,96.711 113.091 C 94.395 116.396,88.450 124.515,83.500 131.133 C 70.305 148.774,68.541 151.765,66.684 159.643 C 62.059 179.262,64.931 184.743,95.000 213.679 C 112.737 230.748,116.769 233.419,127.413 235.158 C 134.697 236.348,144.785 235.450,149.866 233.161 C 156.724 230.071,170.915 219.941,174.316 215.708 C 176.177 213.394,179.134 207.900,180.889 203.500 C 184.903 193.434,186.620 190.223,189.892 186.658 C 193.090 183.174,199.062 180.000,202.419 180.000 C 203.794 180.000,208.400 179.482,212.655 178.849 C 222.141 177.438,225.000 175.173,225.000 169.069 C 225.000 163.630,222.035 161.751,212.077 160.882 C 203.955 160.173,195.532 157.033,189.585 152.497 C 185.898 149.685,179.397 141.408,177.021 136.500 C 173.965 130.188,163.638 115.900,158.315 110.620 C 151.329 103.689,146.394 101.362,135.882 100.044 C 125.502 98.743,120.920 98.826,114.274 100.437 M146.449 111.874 C 154.682 117.407,160.874 125.776,166.015 138.314 C 169.624 147.117,169.946 149.835,167.584 151.562 C 165.618 153.000,164.000 157.349,164.000 161.197 C 164.000 164.124,160.597 171.000,159.149 171.000 C 157.860 171.000,149.844 184.953,150.173 186.623 C 150.608 188.832,153.338 190.468,155.321 189.707 C 156.198 189.371,158.111 187.162,159.572 184.798 C 161.034 182.434,163.949 178.700,166.049 176.500 C 169.169 173.232,170.213 171.048,171.752 164.567 C 173.989 155.139,175.538 153.644,180.269 156.344 C 182.046 157.358,184.625 158.807,186.000 159.564 C 189.453 161.463,206.638 167.911,211.461 169.115 C 221.013 171.502,219.261 174.554,207.964 175.208 C 201.377 175.590,198.782 176.275,193.295 179.086 C 187.167 182.224,186.319 183.066,182.811 189.500 C 180.712 193.350,178.333 198.676,177.525 201.336 C 175.610 207.642,173.098 211.580,167.811 216.562 C 153.724 229.836,139.850 234.381,125.000 230.584 C 117.062 228.555,112.908 225.901,105.892 218.377 C 98.672 210.633,92.486 204.446,86.475 198.958 C 80.045 193.087,73.341 185.026,72.039 181.602 C 71.267 179.571,71.391 177.999,72.544 175.240 C 73.386 173.225,74.355 168.859,74.696 165.538 C 75.079 161.823,76.218 158.065,77.659 155.770 C 78.946 153.718,80.000 151.618,80.000 151.103 C 80.000 147.855,84.948 139.647,90.010 134.500 C 93.255 131.200,98.320 125.350,101.266 121.500 C 106.907 114.127,111.269 111.026,119.500 108.540 C 131.242 104.993,137.332 105.747,146.449 111.874 M173.973 140.273 C 174.784 141.711,175.082 143.250,174.637 143.693 C 173.668 144.660,170.000 140.398,170.000 138.306 C 170.000 136.140,172.279 137.268,173.973 140.273 M121.313 142.786 C 120.659 143.201,119.639 144.820,119.044 146.383 C 117.992 149.151,117.823 149.208,112.596 148.555 L 107.228 147.885 103.614 152.295 C 99.553 157.251,99.298 158.718,101.638 163.650 C 102.855 166.213,103.821 167.025,105.388 166.801 C 107.134 166.552,107.587 165.632,108.000 161.500 C 108.457 156.932,108.738 156.473,111.254 156.183 C 113.447 155.931,115.197 157.000,119.845 161.433 C 123.359 164.786,126.569 167.000,127.915 167.000 C 129.575 167.000,130.579 168.027,131.824 170.999 C 133.429 174.830,135.973 176.753,137.878 175.576 C 138.370 175.271,139.069 173.448,139.430 171.523 C 139.831 169.385,140.944 167.569,142.293 166.853 C 146.529 164.606,160.000 151.702,160.000 149.893 C 160.000 147.839,157.180 146.000,154.031 146.000 C 152.875 146.000,150.912 145.333,149.667 144.518 C 147.634 143.185,147.047 143.227,143.872 144.929 C 140.991 146.473,139.242 146.693,134.387 146.120 C 131.114 145.734,127.337 144.649,125.995 143.709 C 123.247 141.784,122.973 141.730,121.313 142.786 M265.395 146.037 C 261.629 147.183,257.176 151.450,256.362 154.694 C 256.034 156.003,256.085 161.445,256.477 166.787 C 256.869 172.129,257.297 179.200,257.429 182.500 C 257.561 185.800,257.999 190.243,258.403 192.374 C 259.045 195.762,258.795 196.605,256.403 199.102 C 247.935 207.940,240.708 227.007,238.972 245.092 C 238.369 251.366,237.980 261.450,238.107 267.500 C 238.322 277.763,238.128 279.028,235.205 286.383 L 232.072 294.267 234.644 298.656 C 237.602 303.702,239.503 304.941,242.945 304.061 C 244.675 303.619,245.651 302.422,246.284 299.968 C 246.775 298.061,248.038 295.695,249.089 294.711 C 251.377 292.569,251.342 293.571,249.449 284.406 C 247.753 276.197,248.018 274.466,251.884 268.500 C 255.125 263.500,257.000 259.292,257.000 257.020 C 257.000 256.057,257.946 254.067,259.102 252.597 C 262.581 248.174,263.720 250.546,264.478 263.793 C 264.846 270.232,265.638 277.075,266.237 279.000 C 267.826 284.098,267.421 315.695,265.621 327.032 C 264.795 332.239,263.828 343.925,263.474 353.000 C 262.946 366.496,263.128 370.774,264.476 376.500 C 265.382 380.350,266.568 387.775,267.113 393.000 C 269.500 415.916,272.964 422.431,281.546 420.151 C 284.155 419.459,284.536 418.872,284.810 415.132 C 284.984 412.759,284.268 408.391,283.183 405.199 C 278.441 391.246,278.393 390.336,281.826 379.095 C 283.543 373.471,285.387 366.312,285.924 363.185 C 286.461 360.058,287.393 355.025,287.995 352.000 C 288.598 348.975,289.506 343.575,290.012 340.000 C 291.602 328.778,293.842 322.000,295.962 322.000 C 296.356 322.000,297.310 323.238,298.082 324.750 C 299.116 326.778,299.632 333.802,300.045 351.500 C 300.555 373.288,301.445 381.960,304.039 390.383 C 304.682 392.472,304.523 393.842,303.463 395.356 C 301.621 397.987,301.599 401.324,303.403 404.813 C 304.175 406.305,305.127 409.666,305.520 412.282 C 306.606 419.530,313.846 424.260,318.040 420.464 C 320.629 418.121,320.517 416.324,317.323 408.959 C 314.721 402.959,314.681 402.576,315.905 395.295 C 316.597 391.175,318.356 384.811,319.814 381.152 C 322.409 374.640,322.467 373.995,322.577 350.500 C 322.689 326.640,322.706 326.470,325.334 321.279 C 328.548 314.930,329.943 309.210,329.976 302.250 C 329.999 297.235,330.551 296.388,333.436 296.943 C 336.550 297.544,338.953 295.690,340.578 291.434 C 342.141 287.341,342.204 285.637,341.174 275.111 C 340.507 268.304,340.292 258.064,340.661 250.777 C 341.283 238.502,340.204 228.055,337.905 224.113 C 337.388 223.226,335.868 219.407,334.527 215.627 C 331.258 206.411,328.546 202.652,322.000 198.258 C 313.675 192.672,312.089 191.002,311.384 187.090 C 310.568 182.563,309.436 180.340,305.841 176.201 C 304.265 174.387,301.706 170.112,300.154 166.701 C 297.248 160.315,290.621 152.000,288.438 152.000 C 287.759 152.000,284.631 150.647,281.488 148.994 C 275.021 145.592,269.933 144.657,265.395 146.037 M74.000 158.777 C 74.000 163.249,71.243 167.991,69.887 165.852 C 68.684 163.954,68.797 160.540,70.161 157.547 C 71.930 153.664,74.000 154.328,74.000 158.777 M132.468 156.353 C 133.880 157.385,134.989 157.453,137.145 156.639 C 140.962 155.199,142.549 156.771,140.390 159.854 C 137.008 164.682,130.733 164.606,128.111 159.707 C 125.903 155.581,128.587 153.515,132.468 156.353 M114.361 183.502 C 113.550 185.615,114.637 189.345,118.499 197.704 C 122.318 205.969,129.851 217.701,131.841 218.481 C 133.047 218.954,137.696 216.308,140.620 213.484 C 142.830 211.350,145.092 205.865,144.513 204.042 C 143.459 200.721,141.163 200.903,138.263 204.537 C 136.744 206.441,134.718 208.000,133.763 208.000 C 131.660 208.000,127.734 201.994,123.538 192.361 C 121.828 188.434,119.827 184.496,119.092 183.611 C 117.413 181.587,115.116 181.535,114.361 183.502 M329.638 266.500 C 329.955 267.325,329.893 268.788,329.500 269.750 C 328.844 271.356,328.718 271.336,327.963 269.500 C 327.511 268.400,327.109 266.938,327.070 266.250 C 326.972 264.495,328.943 264.687,329.638 266.500 " style="stroke: none; fill: black;">
                    </path></svg>