<svg id="svg-path" width="100%" height="100%" viewBox="0 0 512 512" version="1.1" xmlns="http://www.w3.org/2000/svg" style="fill-rule:evenodd;clip-rule:evenodd;stroke-linejoin:round;stroke-miterlimit:2;">
                        <path d="M459.867 214.917 C 457.319 215.274,453.469 216.789,451.313 218.283 C 449.157 219.777,446.067 221.006,444.446 221.014 C 438.792 221.040,437.065 222.045,436.023 225.915 C 435.437 228.091,433.795 230.515,432.015 231.831 C 428.560 234.385,428.287 236.551,430.572 243.258 C 431.889 247.123,432.659 247.986,435.308 248.568 C 437.047 248.950,439.386 249.862,440.505 250.595 C 443.268 252.405,462.242 253.847,468.500 252.722 C 474.406 251.660,476.000 250.550,476.000 247.500 C 476.000 243.158,473.907 242.611,458.173 242.843 C 450.103 242.961,443.005 242.708,442.400 242.279 C 440.346 240.824,438.828 236.823,439.426 234.440 C 439.922 232.461,440.863 231.954,445.073 231.396 C 447.852 231.027,451.587 229.734,453.374 228.521 C 455.161 227.308,458.621 225.997,461.062 225.607 C 466.571 224.728,470.000 222.568,470.000 219.977 C 470.000 217.995,466.657 213.883,465.250 214.134 C 464.837 214.207,462.415 214.559,459.867 214.917 M392.609 220.879 C 390.678 223.013,390.826 224.857,394.506 244.500 C 398.457 265.591,399.384 268.000,403.550 268.000 C 405.910 268.000,410.000 263.818,410.000 261.404 C 410.000 260.672,412.300 259.394,415.129 258.554 C 417.949 257.717,420.874 256.519,421.629 255.893 C 423.570 254.282,423.329 251.607,421.056 249.550 C 419.449 248.096,418.083 247.910,413.194 248.478 C 407.960 249.085,407.225 248.953,406.836 247.332 C 406.037 244.003,407.078 242.141,410.061 241.566 C 411.677 241.255,414.354 240.738,416.008 240.419 C 420.118 239.625,421.639 236.624,419.548 233.433 C 418.114 231.244,417.261 231.000,411.036 231.000 C 403.423 231.000,403.291 230.908,401.000 224.014 C 399.800 220.404,398.989 219.440,396.948 219.203 C 395.383 219.020,393.705 219.669,392.609 220.879 M156.933 223.250 C 155.018 226.305,154.931 227.553,155.492 244.000 C 156.192 264.539,156.669 268.526,158.663 270.520 C 160.603 272.460,163.898 272.402,166.123 270.389 C 167.683 268.977,167.829 267.575,167.309 259.036 C 166.874 251.892,167.042 249.092,167.939 248.538 C 168.611 248.122,172.388 247.241,176.331 246.580 C 183.215 245.425,183.511 245.261,183.788 242.439 C 184.234 237.889,181.383 236.627,173.957 238.088 C 165.822 239.689,165.000 238.892,165.000 229.413 C 165.000 223.177,164.708 221.914,163.066 221.035 C 160.053 219.423,159.122 219.759,156.933 223.250 M131.000 228.504 C 127.975 229.237,122.350 230.147,118.500 230.525 C 110.863 231.276,108.000 232.955,108.000 236.680 C 108.000 240.209,111.926 241.298,121.750 240.495 C 127.624 240.015,130.000 240.147,130.000 240.953 C 130.000 241.988,123.703 249.362,118.290 254.665 C 115.214 257.679,114.463 261.320,116.499 263.356 C 118.813 265.671,121.606 265.402,125.411 262.500 C 127.214 261.125,128.995 260.000,129.368 260.000 C 129.742 260.000,132.338 261.575,135.136 263.500 C 140.832 267.418,142.163 267.694,144.429 265.429 C 146.836 263.021,146.326 260.708,142.588 257.085 C 138.160 252.794,137.722 250.765,140.431 247.094 C 142.317 244.538,142.610 243.001,142.391 236.829 C 142.193 231.263,141.723 229.271,140.375 228.285 C 138.305 226.771,138.128 226.775,131.000 228.504 M321.250 227.662 C 320.420 227.997,320.000 230.482,320.000 235.064 C 320.000 242.747,320.449 242.328,311.106 243.362 C 306.293 243.895,305.039 245.100,305.015 249.215 C 304.996 252.616,307.424 254.000,313.411 254.000 C 319.980 254.000,321.495 256.610,320.660 266.489 C 320.157 272.449,320.337 274.195,321.589 275.446 C 323.602 277.459,326.433 277.424,328.496 275.361 C 329.937 273.920,330.096 271.017,329.817 251.323 C 329.554 232.743,329.244 228.763,328.000 227.977 C 326.407 226.972,323.318 226.828,321.250 227.662 M207.995 232.285 C 205.618 233.541,203.352 235.228,202.959 236.035 C 202.565 236.841,201.516 239.075,200.628 241.000 C 199.739 242.925,198.454 245.281,197.771 246.235 C 195.409 249.535,202.802 260.000,207.494 260.000 C 208.918 260.000,211.050 260.900,212.230 262.000 C 213.411 263.100,215.202 264.000,216.210 264.000 C 221.024 264.000,235.000 250.440,235.000 245.770 C 235.000 244.351,233.484 241.925,231.208 239.703 C 228.050 236.620,226.711 236.000,223.208 236.000 C 220.894 236.000,219.000 235.635,219.000 235.189 C 219.000 233.842,215.015 230.000,213.618 230.000 C 212.901 230.000,210.371 231.028,207.995 232.285 M252.004 234.490 C 250.330 238.892,249.527 260.725,250.974 262.469 C 252.974 264.878,257.887 264.432,258.897 261.750 C 260.405 257.743,261.300 236.428,260.057 234.106 C 258.378 230.970,253.249 231.214,252.004 234.490 M45.637 234.442 C 40.419 235.844,39.039 237.170,39.015 240.806 C 39.007 242.078,37.657 244.340,36.006 245.848 L 33.011 248.583 34.154 262.178 L 35.296 275.773 40.612 281.485 L 45.928 287.198 51.073 286.490 C 58.727 285.437,62.101 281.243,58.328 277.471 C 57.094 276.236,55.674 275.956,52.900 276.400 C 48.740 277.065,46.307 275.493,45.597 271.680 C 44.577 266.200,43.115 247.864,43.598 246.606 C 43.894 245.835,46.237 244.674,48.805 244.028 C 54.659 242.553,56.000 241.445,56.000 238.078 C 56.000 232.986,53.855 232.234,45.637 234.442 M69.546 234.343 C 67.850 235.583,67.777 236.599,68.604 247.593 C 69.097 254.142,69.362 263.870,69.194 269.210 C 68.878 279.228,69.615 282.189,72.861 283.926 C 75.410 285.290,78.812 284.169,79.593 281.707 C 81.518 275.643,79.317 237.292,76.875 234.350 C 75.441 232.622,71.904 232.619,69.546 234.343 M219.927 242.635 C 222.625 246.064,222.509 249.085,219.599 251.198 C 215.242 254.363,212.486 254.434,210.132 251.440 C 207.305 247.846,207.443 245.420,210.646 242.452 C 214.079 239.271,217.332 239.335,219.927 242.635 M279.178 241.869 C 277.816 242.732,276.066 248.770,276.024 252.750 C 275.993 255.693,279.367 259.000,282.401 259.000 C 284.068 259.000,285.411 260.031,286.791 262.370 C 288.443 265.170,289.557 265.856,293.379 266.430 C 299.321 267.321,303.380 265.523,303.810 261.810 C 304.190 258.527,302.470 257.491,295.000 256.503 C 291.975 256.103,288.938 255.321,288.250 254.766 C 287.541 254.192,287.000 251.514,287.000 248.578 C 287.000 245.730,286.460 242.860,285.800 242.200 C 284.415 240.815,281.101 240.650,279.178 241.869 M366.557 252.223 C 365.701 253.445,365.000 256.270,365.000 258.500 C 365.000 265.911,370.349 269.587,374.483 265.018 C 375.896 263.458,376.144 262.067,375.652 258.478 C 375.308 255.971,374.555 253.037,373.978 251.960 C 372.561 249.311,368.495 249.455,366.557 252.223 M449.344 269.100 C 447.543 270.901,446.917 271.026,444.958 269.977 C 442.001 268.395,432.218 269.353,430.143 271.428 C 428.950 272.621,428.827 273.593,429.595 275.734 C 430.558 278.417,430.794 278.495,437.497 278.333 C 442.499 278.211,444.725 277.728,445.563 276.583 C 447.318 274.183,448.622 274.665,450.073 278.250 C 450.797 280.038,452.227 282.657,453.251 284.071 C 455.072 286.588,455.068 286.754,453.025 291.936 C 450.656 297.947,451.078 300.730,454.488 301.586 C 458.551 302.606,460.271 301.639,462.643 297.000 C 465.518 291.376,465.588 288.254,462.901 285.394 C 461.746 284.166,460.580 281.437,460.309 279.330 C 460.038 277.224,458.983 273.587,457.965 271.250 C 455.829 266.350,452.840 265.604,449.344 269.100 M342.008 270.491 C 341.180 271.488,340.994 273.472,341.444 276.477 C 342.037 280.430,341.815 281.276,339.605 283.486 C 337.558 285.533,336.107 286.003,331.795 286.015 C 324.972 286.034,321.595 287.725,321.178 291.334 C 320.689 295.563,322.526 297.000,328.422 297.000 C 331.270 297.000,334.140 297.540,334.800 298.200 C 335.548 298.948,336.000 302.654,336.000 308.045 C 336.000 317.329,337.275 320.000,341.706 320.000 C 345.620 320.000,346.282 317.654,346.541 302.860 C 346.760 290.336,347.020 288.464,348.894 285.930 C 351.294 282.684,351.892 272.292,349.800 270.200 C 348.127 268.527,343.494 268.700,342.008 270.491 M369.045 271.955 C 367.920 273.080,367.000 274.644,367.000 275.432 C 367.000 276.219,365.650 277.825,364.000 279.000 C 360.686 281.360,360.130 284.468,362.468 287.559 C 364.877 290.743,364.258 294.394,360.510 299.109 C 356.501 304.152,356.314 305.069,358.829 307.345 C 361.702 309.945,364.282 309.319,368.500 305.000 C 370.648 302.800,373.102 301.014,373.953 301.031 C 374.804 301.048,377.300 302.171,379.500 303.526 C 384.321 306.495,386.139 306.609,388.425 304.082 C 391.475 300.713,390.069 297.895,383.500 294.211 C 375.759 289.870,374.259 288.455,373.438 284.719 C 372.620 280.995,374.758 279.000,379.569 279.000 C 383.451 279.000,385.251 277.051,384.822 273.310 C 384.509 270.576,384.319 270.492,377.795 270.205 C 372.134 269.957,370.771 270.229,369.045 271.955 M419.948 282.056 C 415.283 287.109,414.674 289.316,417.097 292.396 C 418.241 293.850,419.000 296.397,419.000 298.780 C 419.000 302.195,419.621 303.318,423.478 306.873 C 428.419 311.428,429.513 311.730,432.777 309.443 C 434.709 308.091,435.265 308.072,437.022 309.303 C 438.602 310.409,440.187 310.512,444.272 309.771 C 447.147 309.249,450.063 308.358,450.750 307.789 C 452.778 306.111,452.263 302.218,449.913 301.472 C 447.272 300.634,441.159 301.724,438.345 303.534 C 436.407 304.782,435.791 304.631,432.202 302.031 C 427.910 298.922,425.000 295.364,425.000 293.224 C 425.000 292.493,426.125 290.238,427.500 288.215 C 431.531 282.283,430.593 278.000,425.265 278.000 C 424.400 278.000,422.008 279.825,419.948 282.056 M359.500 323.576 C 356.200 324.311,350.703 324.932,347.285 324.956 C 342.287 324.991,340.876 325.363,340.079 326.852 C 338.772 329.294,338.323 348.749,339.547 349.857 C 342.261 352.311,359.527 353.859,363.066 351.965 C 367.890 349.383,363.736 343.519,356.322 342.446 C 353.670 342.062,350.938 341.299,350.250 340.751 C 348.801 339.596,348.584 336.375,349.901 335.561 C 352.411 334.010,367.732 332.000,377.050 332.000 C 383.922 332.000,388.018 331.582,388.800 330.800 C 390.516 329.084,390.281 325.478,388.348 323.872 C 386.105 322.010,367.392 321.817,359.500 323.576 M369.960 343.831 C 368.196 345.259,367.848 346.259,368.379 348.373 C 369.053 351.061,369.122 351.081,376.779 350.792 L 384.500 350.500 384.836 347.549 C 385.059 345.586,384.577 344.164,383.395 343.299 C 380.712 341.337,372.645 341.657,369.960 343.831 M389.200 347.200 C 388.540 347.860,388.000 350.756,388.000 353.635 C 388.000 356.514,387.537 360.088,386.971 361.576 L 385.942 364.282 365.221 363.796 C 353.825 363.528,343.938 363.502,343.250 363.738 C 341.339 364.393,341.763 369.475,343.889 371.399 C 345.537 372.891,348.629 373.133,368.223 373.304 C 392.608 373.517,393.966 373.245,394.035 368.128 C 394.055 366.682,394.714 364.375,395.500 363.000 C 397.253 359.934,397.463 348.863,395.800 347.200 C 395.140 346.540,393.655 346.000,392.500 346.000 C 391.345 346.000,389.860 346.540,389.200 347.200 " style="stroke: none; fill: black;">
                    </path></svg>