<svg id="svg-path" width="100%" height="100%" viewBox="0 0 512 512" version="1.1" xmlns="http://www.w3.org/2000/svg" style="fill-rule:evenodd;clip-rule:evenodd;stroke-linejoin:round;stroke-miterlimit:2;">
                        <path d="M158.500 139.533 C 155.750 140.291,152.456 140.932,151.180 140.956 C 147.233 141.031,134.492 146.887,130.104 150.643 C 125.532 154.557,122.631 159.510,121.609 165.150 C 121.245 167.157,120.396 169.233,119.724 169.764 C 119.051 170.295,113.343 171.029,107.040 171.395 C 96.555 172.004,95.176 172.320,90.835 175.106 C 84.847 178.949,80.000 183.867,80.000 186.101 C 80.000 187.048,81.426 189.022,83.170 190.489 C 86.303 193.126,86.491 193.153,99.420 192.828 C 106.614 192.648,120.491 192.613,130.258 192.750 L 148.016 193.000 149.537 196.802 C 151.445 201.571,155.464 204.000,161.445 204.000 C 164.594 204.000,168.074 204.980,172.291 207.055 C 175.706 208.735,180.061 210.873,181.969 211.805 C 186.352 213.946,189.106 218.053,193.063 228.344 C 194.787 232.830,197.250 238.750,198.535 241.500 C 201.428 247.692,201.662 252.330,200.225 275.000 C 199.790 281.875,198.886 288.483,198.217 289.684 C 195.200 295.101,197.850 311.759,202.846 318.789 C 203.906 320.280,205.249 323.075,205.832 325.000 C 206.414 326.925,208.321 332.550,210.068 337.500 C 212.796 345.227,213.315 348.269,213.733 359.000 L 214.220 371.500 207.110 385.388 C 203.200 393.026,200.000 400.044,200.000 400.983 C 200.000 404.356,203.151 405.832,210.452 405.882 C 216.506 405.923,217.863 405.580,220.952 403.226 C 224.628 400.424,228.913 395.963,228.968 394.879 C 228.986 394.537,231.250 390.179,234.000 385.194 C 236.750 380.209,239.000 374.967,239.000 373.544 C 239.000 372.121,237.826 369.183,236.391 367.015 L 233.783 363.073 236.300 352.786 C 238.389 344.251,238.928 339.011,239.465 322.000 C 240.374 293.231,243.984 274.535,249.953 267.680 C 255.052 261.825,256.308 258.260,255.630 251.564 C 254.552 240.910,253.357 235.975,251.125 232.955 C 249.927 231.335,248.102 227.291,247.067 223.968 C 245.829 219.989,243.811 216.433,241.156 213.553 C 238.939 211.148,235.992 207.002,234.608 204.340 C 224.922 185.718,199.720 159.029,191.790 158.994 C 191.080 158.991,188.823 158.523,186.774 157.954 C 183.738 157.111,182.006 155.465,177.436 149.082 C 170.039 138.750,166.962 137.198,158.500 139.533 M327.459 145.880 C 325.236 146.889,322.231 149.125,320.782 150.848 C 315.771 156.802,314.495 172.796,318.575 178.515 C 323.562 185.507,324.968 188.668,324.984 192.929 C 324.993 195.365,325.540 198.852,326.201 200.678 C 328.122 205.992,326.651 206.675,316.747 205.069 C 312.211 204.333,305.337 203.454,301.471 203.115 C 295.276 202.573,293.898 202.055,289.866 198.749 C 287.350 196.685,283.838 194.491,282.062 193.872 C 279.287 192.904,278.444 193.035,276.053 194.802 C 274.524 195.933,271.594 197.173,269.542 197.558 C 267.490 197.943,264.675 199.236,263.285 200.431 L 260.758 202.605 262.848 206.702 C 265.562 212.022,270.001 214.597,277.775 215.359 C 284.534 216.022,289.740 218.160,290.703 220.668 C 291.330 222.302,304.617 228.852,313.907 232.106 C 320.568 234.439,324.838 234.495,330.943 232.327 C 333.534 231.406,336.354 230.922,337.209 231.250 C 338.105 231.594,340.124 236.014,341.971 241.673 C 343.735 247.078,346.668 254.650,348.488 258.500 C 354.880 272.016,354.935 272.235,353.851 279.684 C 353.305 283.433,352.251 288.300,351.509 290.500 C 349.779 295.627,342.588 313.013,339.514 319.500 C 338.211 322.250,336.843 326.878,336.474 329.783 C 336.105 332.689,334.930 337.414,333.862 340.283 C 332.794 343.153,331.024 348.115,329.929 351.311 C 328.834 354.507,325.477 361.101,322.469 365.963 C 319.461 370.826,317.000 375.283,317.000 375.867 C 317.000 376.452,315.603 378.521,313.896 380.465 C 311.610 383.069,309.964 384.012,307.646 384.045 C 303.121 384.110,299.843 385.919,295.599 390.692 C 292.472 394.209,291.923 395.489,292.186 398.643 C 292.436 401.635,293.139 402.774,295.630 404.223 C 298.569 405.933,299.913 405.969,317.630 404.820 C 336.030 403.626,336.568 403.528,339.221 400.903 C 340.945 399.198,342.197 396.618,342.638 393.862 C 343.102 390.960,344.342 388.512,346.364 386.506 C 352.158 380.759,360.286 363.910,364.456 349.000 C 370.082 328.881,373.702 323.351,394.231 303.500 C 406.195 291.931,406.681 291.298,407.759 285.888 C 408.568 281.830,408.581 278.283,407.808 273.071 L 406.738 265.865 410.119 262.372 C 413.381 259.001,413.498 258.607,413.435 251.189 C 413.392 246.089,412.582 240.974,411.030 236.000 C 408.106 226.626,407.627 225.768,401.500 218.916 C 398.750 215.841,393.389 208.639,389.587 202.912 C 385.785 197.186,381.369 190.587,379.774 188.249 C 378.179 185.910,376.616 182.411,376.302 180.472 C 375.904 178.018,373.796 174.791,369.365 169.849 C 365.864 165.945,363.000 162.323,363.000 161.800 C 363.000 160.089,353.175 147.755,350.303 145.862 C 346.401 143.288,333.140 143.299,327.459 145.880 " style="stroke: none; fill: black;">
                    </path></svg>