<svg id="svg-path" width="100%" height="100%" viewBox="0 0 512 512" version="1.1" xmlns="http://www.w3.org/2000/svg" style="fill-rule:evenodd;clip-rule:evenodd;stroke-linejoin:round;stroke-miterlimit:2;">
                        <path d="M346.000 149.000 C 343.299 151.701,343.440 152.779,347.500 160.431 C 350.642 166.354,351.000 167.831,351.000 174.875 C 351.000 183.353,351.890 185.373,359.593 194.377 C 361.417 196.509,364.742 201.684,366.981 205.877 C 369.221 210.070,373.291 217.023,376.027 221.328 C 378.762 225.633,381.000 230.080,381.000 231.209 C 381.000 233.595,379.393 233.480,365.000 230.058 C 360.325 228.947,352.772 227.737,348.215 227.369 C 338.100 226.552,336.425 225.486,319.157 208.867 C 312.509 202.469,304.952 195.832,302.363 194.117 C 295.293 189.434,289.185 190.071,278.898 196.564 C 274.053 199.623,272.260 199.614,266.404 196.500 C 253.399 189.585,242.387 197.537,251.148 207.516 C 252.880 209.489,255.693 211.811,257.398 212.677 C 259.104 213.543,263.274 216.895,266.663 220.126 C 270.164 223.462,273.732 226.000,274.923 226.000 C 276.075 226.000,278.431 224.650,280.157 223.000 C 281.884 221.350,283.835 220.000,284.493 220.000 C 287.551 220.000,290.976 226.466,294.436 238.772 C 298.265 252.390,298.295 252.268,288.916 261.250 C 279.929 269.856,276.511 271.123,275.426 266.250 C 273.568 257.901,273.440 257.850,256.363 258.669 C 243.803 259.272,242.376 259.534,240.289 261.620 C 239.030 262.879,238.000 264.822,238.000 265.939 C 238.000 268.888,242.701 273.544,248.894 276.727 C 256.498 280.636,258.346 283.458,258.124 290.828 C 257.964 296.175,258.284 297.213,261.298 301.137 L 264.649 305.500 272.075 305.359 C 279.176 305.224,282.759 304.406,301.863 298.559 C 306.463 297.152,311.969 296.000,314.099 296.000 C 316.229 296.000,319.946 295.472,322.359 294.826 C 327.457 293.463,330.390 294.359,338.030 299.614 C 344.863 304.315,349.322 305.214,361.867 304.420 C 369.563 303.933,373.290 304.085,374.909 304.951 C 378.644 306.950,377.736 308.946,364.588 327.638 C 361.635 331.836,359.729 335.986,358.557 340.768 C 357.222 346.215,356.069 348.504,353.336 351.130 C 349.329 354.981,347.556 358.081,346.656 362.809 C 346.147 365.485,346.493 366.584,348.468 368.559 C 353.787 373.878,361.396 370.772,374.026 358.124 C 382.569 349.569,387.174 343.042,388.401 337.748 C 388.752 336.234,391.856 331.959,395.299 328.248 C 398.742 324.537,403.418 318.984,405.691 315.909 C 407.964 312.834,410.449 309.684,411.212 308.909 C 413.380 306.708,420.373 296.808,421.980 293.665 C 422.777 292.105,424.570 290.237,425.965 289.512 C 427.359 288.788,429.511 286.822,430.746 285.144 C 432.299 283.034,434.150 281.899,436.746 281.467 C 438.811 281.122,442.197 280.202,444.270 279.420 C 446.344 278.639,449.143 278.000,450.490 278.000 C 456.739 278.000,465.767 270.066,468.439 262.226 C 470.461 256.291,470.408 254.720,468.029 250.057 C 463.515 241.209,452.681 236.444,438.684 237.151 C 432.831 237.446,430.441 238.037,428.102 239.766 C 426.441 240.995,424.195 242.000,423.113 242.000 C 420.687 242.000,417.504 238.093,415.933 233.188 C 414.220 227.838,410.813 223.730,404.987 219.992 C 400.813 217.313,399.271 215.477,396.681 210.101 C 394.331 205.224,392.411 202.778,389.329 200.737 C 386.111 198.605,384.041 195.865,380.265 188.737 C 377.573 183.657,374.534 177.475,373.511 175.000 C 372.489 172.525,369.962 168.791,367.895 166.702 C 365.829 164.613,363.862 161.647,363.524 160.111 C 362.825 156.925,357.034 150.992,352.300 148.610 C 348.302 146.599,348.408 146.592,346.000 149.000 M165.694 175.160 C 162.108 176.494,162.375 179.944,166.204 181.773 C 171.243 184.181,178.586 179.391,174.744 176.203 C 172.698 174.504,168.696 174.043,165.694 175.160 M123.176 190.059 C 121.729 190.639,120.977 191.653,121.184 192.745 C 121.852 196.272,133.000 195.165,133.000 191.572 C 133.000 189.062,127.697 188.246,123.176 190.059 M66.853 203.993 C 63.586 207.260,63.336 210.566,66.220 212.374 C 67.614 213.247,68.607 212.804,71.470 210.030 C 75.422 206.199,75.945 203.576,73.066 202.035 C 70.365 200.590,70.206 200.640,66.853 203.993 M214.003 210.752 C 209.907 212.799,209.099 215.347,211.651 218.167 C 213.048 219.710,214.273 220.055,216.862 219.635 C 223.394 218.575,226.097 213.582,221.777 210.557 C 218.973 208.592,218.287 208.609,214.003 210.752 M117.264 216.527 C 113.917 218.872,115.449 221.000,120.485 221.000 C 125.039 221.000,127.638 219.106,126.643 216.513 C 125.880 214.524,120.112 214.533,117.264 216.527 M162.250 216.639 C 160.247 217.484,160.782 221.813,163.038 223.020 C 166.044 224.629,173.082 223.842,174.393 221.750 C 176.324 218.669,173.964 216.527,168.397 216.306 C 165.704 216.199,162.938 216.349,162.250 216.639 M66.250 232.662 C 64.332 233.436,64.766 236.805,66.934 237.965 C 70.898 240.086,77.000 238.928,77.000 236.054 C 77.000 233.180,70.247 231.049,66.250 232.662 M135.250 257.652 C 133.301 258.455,133.773 262.808,135.934 263.965 C 138.972 265.591,144.966 265.253,145.670 263.417 C 146.867 260.299,139.165 256.038,135.250 257.652 M182.893 270.885 C 180.897 272.502,180.756 273.001,181.905 274.385 C 184.395 277.385,194.000 275.888,194.000 272.500 C 194.000 268.970,186.589 267.893,182.893 270.885 M79.250 297.119 C 76.764 297.837,76.000 298.613,76.000 300.422 C 76.000 303.350,77.728 304.076,82.261 303.054 C 86.905 302.006,88.000 301.242,88.000 299.048 C 88.000 296.075,85.089 295.433,79.250 297.119 M118.037 303.931 C 116.665 306.494,118.861 308.696,123.695 309.603 C 130.550 310.889,133.668 306.013,127.609 303.481 C 122.736 301.445,119.280 301.607,118.037 303.931 M203.309 313.636 C 202.098 316.793,204.410 318.484,210.366 318.800 C 214.954 319.044,216.148 318.778,216.679 317.395 C 217.711 314.704,213.540 312.000,208.358 312.000 C 205.188 312.000,203.760 312.463,203.309 313.636 M61.885 318.917 C 59.941 320.513,59.705 321.209,60.609 322.687 C 62.162 325.225,71.786 325.287,73.374 322.769 C 75.931 318.715,66.135 315.431,61.885 318.917 M191.000 327.500 C 189.351 329.487,191.092 331.642,195.047 332.510 C 201.782 333.990,204.554 329.965,198.532 327.449 C 194.139 325.614,192.557 325.624,191.000 327.500 M152.750 336.566 C 152.338 336.988,152.000 338.106,152.000 339.050 C 152.000 342.021,160.142 343.089,163.559 340.567 C 164.950 339.541,165.195 338.825,164.423 338.041 C 163.094 336.690,153.779 335.513,152.750 336.566 " style="stroke: none; fill: black;">
                    </path></svg>