<svg id="svg-path" width="100%" height="100%" viewBox="0 0 512 512" version="1.1" xmlns="http://www.w3.org/2000/svg" style="fill-rule:evenodd;clip-rule:evenodd;stroke-linejoin:round;stroke-miterlimit:2;">
                        <path d="M267.358 156.772 C 264.020 159.465,262.295 163.875,261.520 171.700 C 260.483 182.169,261.486 186.716,265.351 189.072 C 269.691 191.719,274.221 191.527,277.763 188.546 C 283.881 183.398,286.018 162.842,280.993 157.492 C 278.104 154.418,270.758 154.030,267.358 156.772 M210.293 171.567 C 208.529 172.339,206.617 173.848,206.043 174.920 C 202.619 181.317,208.897 199.507,215.368 201.941 C 221.571 204.274,230.000 198.784,230.000 192.410 C 230.000 190.519,229.594 188.191,229.098 187.236 C 228.601 186.281,226.811 182.539,225.119 178.920 C 221.052 170.223,217.448 168.435,210.293 171.567 M328.846 187.895 C 326.916 188.601,317.936 196.904,313.250 202.316 C 308.722 207.545,308.656 213.503,313.077 217.923 C 317.861 222.707,320.672 222.146,330.551 214.432 C 335.177 210.819,339.871 206.709,340.981 205.297 C 342.991 202.741,343.711 196.498,342.226 194.500 C 338.923 190.057,332.119 186.698,328.846 187.895 M165.770 198.966 C 161.987 201.942,160.476 206.320,161.979 209.950 C 164.469 215.961,178.551 227.007,183.710 226.996 C 186.905 226.990,192.085 223.042,193.574 219.478 C 196.109 213.411,192.589 208.452,179.518 199.674 C 174.700 196.438,169.335 196.162,165.770 198.966 M269.000 198.147 C 264.875 198.607,258.453 199.249,254.730 199.574 C 249.756 200.007,247.235 200.766,245.230 202.434 C 243.728 203.683,239.371 205.738,235.546 207.002 C 225.867 210.199,213.081 217.739,210.285 221.898 C 209.028 223.767,208.000 226.519,208.000 228.013 C 208.000 231.897,204.838 235.393,199.090 237.866 C 191.774 241.013,191.000 242.622,191.000 254.675 C 191.000 263.962,192.188 270.000,194.014 270.000 C 194.396 270.000,195.899 271.104,197.354 272.452 C 199.268 274.226,200.000 275.897,200.000 278.492 C 200.000 284.438,203.240 289.007,213.478 297.500 C 224.086 306.300,224.999 306.827,229.800 306.930 C 233.789 307.015,237.671 308.922,240.910 312.390 C 243.878 315.567,248.648 316.563,253.685 315.057 C 266.241 311.303,268.768 310.390,271.265 308.707 C 274.498 306.527,276.549 302.919,277.531 297.688 C 278.360 293.269,280.307 292.000,286.260 292.000 C 291.542 292.000,293.540 290.185,297.821 281.500 C 301.685 273.659,303.641 267.727,305.073 259.503 C 306.063 253.819,306.907 252.046,310.606 247.881 C 317.484 240.136,317.430 238.535,309.949 228.500 C 304.002 220.521,300.838 217.418,295.500 214.327 C 291.527 212.026,289.870 210.207,287.433 205.466 C 284.495 199.752,281.217 196.869,278.000 197.169 C 277.175 197.246,273.125 197.686,269.000 198.147 M273.730 226.743 C 277.540 229.239,282.718 236.636,284.580 242.242 C 286.592 248.298,286.367 249.147,278.531 265.067 C 270.329 281.731,269.053 282.929,254.150 287.950 C 245.832 290.752,241.360 290.563,236.787 287.217 C 229.776 282.087,217.847 271.972,215.584 269.237 C 210.659 263.285,209.483 251.939,212.990 244.212 C 214.788 240.251,215.721 239.556,225.218 235.107 C 240.001 228.182,247.425 225.775,256.500 224.965 C 265.989 224.119,270.424 224.576,273.730 226.743 M148.753 244.897 C 142.339 246.244,141.000 248.255,141.000 256.541 L 141.000 263.772 144.401 265.386 C 149.088 267.610,170.773 267.686,175.013 265.493 C 180.508 262.652,181.339 251.546,176.404 246.909 C 174.260 244.896,172.828 244.620,163.249 244.380 C 157.337 244.232,150.814 244.465,148.753 244.897 M309.367 280.772 C 304.171 284.981,303.570 291.258,307.918 295.912 C 311.573 299.824,321.410 304.410,325.882 304.285 C 333.918 304.061,337.329 294.112,331.482 287.952 C 327.796 284.070,318.015 278.992,314.279 279.022 C 312.750 279.034,310.540 279.822,309.367 280.772 M194.371 302.285 C 191.436 303.959,185.415 309.568,179.750 315.904 C 173.596 322.787,173.425 325.929,178.865 332.110 C 183.891 337.819,188.423 339.557,193.143 337.585 C 198.305 335.428,213.000 319.727,213.000 316.368 C 213.000 313.053,209.096 307.807,203.747 303.932 C 199.337 300.737,197.615 300.435,194.371 302.285 M262.469 323.062 C 260.801 323.547,258.385 324.924,257.099 326.123 C 255.018 328.061,254.829 328.892,255.389 333.653 C 257.115 348.336,264.420 354.549,273.102 348.718 C 275.784 346.917,276.565 345.655,276.809 342.733 C 277.397 335.709,270.662 321.822,266.798 322.090 C 266.084 322.140,264.136 322.577,262.469 323.062 " style="stroke: none; fill: black;">
                    </path></svg>