<svg id="svg-path" width="100%" height="100%" viewBox="0 0 512 512" version="1.1" xmlns="http://www.w3.org/2000/svg" style="fill-rule:evenodd;clip-rule:evenodd;stroke-linejoin:round;stroke-miterlimit:2;">
                        <path d="M319.500 73.593 C 316.750 75.530,313.694 77.651,312.710 78.307 C 311.725 78.963,309.250 81.917,307.210 84.871 L 303.500 90.241 303.500 106.392 L 303.500 122.542 306.824 127.724 C 309.696 132.200,310.162 133.818,310.250 139.602 C 310.338 145.438,310.058 146.535,308.065 148.149 C 306.807 149.167,304.591 150.005,303.139 150.011 C 298.909 150.028,290.870 152.818,286.676 155.724 C 281.402 159.379,274.533 168.552,270.539 177.272 C 262.984 193.769,262.000 196.141,262.000 197.855 C 262.000 199.751,264.652 202.482,269.295 205.368 C 273.749 208.136,274.152 210.699,271.534 219.616 C 270.261 223.952,268.413 230.875,267.429 235.000 C 264.595 246.870,260.446 257.641,256.697 262.859 C 254.795 265.506,252.949 268.587,252.594 269.704 C 252.239 270.822,251.106 272.499,250.076 273.432 C 248.303 275.035,248.116 275.003,246.601 272.841 C 244.746 270.192,244.349 257.084,246.030 253.945 C 246.596 252.886,248.508 251.272,250.280 250.357 C 257.105 246.830,257.662 242.640,252.334 234.894 C 248.962 229.994,248.596 228.757,247.784 219.532 C 247.299 214.015,247.163 207.250,247.482 204.500 C 248.131 198.900,246.510 192.396,242.515 184.581 C 241.132 181.875,240.000 177.963,240.000 175.888 C 240.000 173.812,239.065 170.529,237.922 168.592 C 235.336 164.209,236.015 161.840,240.465 159.718 C 245.725 157.210,247.670 152.266,249.602 136.500 C 251.230 123.216,242.677 110.711,224.341 99.570 C 217.277 95.278,211.968 93.821,207.091 94.836 C 202.487 95.793,200.283 99.099,197.948 108.546 C 196.867 112.921,195.056 118.679,193.924 121.342 C 192.792 124.005,191.460 128.675,190.964 131.719 C 189.785 138.965,187.862 141.701,182.264 144.101 C 178.576 145.682,177.063 145.869,174.679 145.038 C 173.041 144.467,169.931 144.000,167.767 144.000 C 164.342 144.000,162.713 144.942,155.167 151.283 C 150.105 155.537,142.927 160.339,137.910 162.828 C 128.284 167.604,113.059 180.131,107.522 187.833 C 105.677 190.400,102.305 193.625,100.030 195.000 C 92.642 199.466,91.065 201.044,89.985 205.056 C 88.834 209.328,86.096 211.698,81.448 212.444 C 79.826 212.704,76.842 213.175,74.815 213.491 C 71.724 213.973,70.637 214.869,68.065 219.048 C 64.690 224.533,64.210 228.427,66.503 231.701 C 68.344 234.329,72.385 235.639,81.344 236.512 L 88.188 237.179 94.476 230.638 C 101.210 223.634,103.183 222.691,110.080 223.184 C 115.818 223.594,116.059 225.189,111.953 235.568 C 109.878 240.812,108.661 245.872,108.361 250.500 L 107.907 257.500 112.454 262.313 C 117.849 268.025,118.077 270.071,114.121 277.265 C 112.537 280.144,109.995 285.875,108.471 290.000 C 106.948 294.125,104.143 301.550,102.238 306.500 C 100.333 311.450,96.394 322.700,93.484 331.500 C 90.575 340.300,87.483 349.156,86.613 351.179 C 85.744 353.203,83.916 358.603,82.553 363.179 C 77.877 378.871,72.779 391.480,69.451 395.583 C 67.630 397.829,62.283 404.069,57.570 409.449 C 48.906 419.339,47.473 422.487,50.491 424.992 C 52.852 426.952,60.065 425.334,66.631 421.372 C 74.068 416.884,77.600 415.409,83.102 414.495 C 92.908 412.864,95.519 409.784,94.505 401.044 C 93.877 395.634,94.087 394.799,97.928 387.391 C 100.179 383.051,104.301 375.961,107.089 371.635 C 110.312 366.636,113.370 360.079,115.484 353.635 C 119.169 342.404,135.163 310.440,141.196 302.250 C 145.357 296.601,146.966 295.966,149.838 298.838 C 153.351 302.351,153.940 310.838,154.225 362.000 L 154.500 411.500 152.179 414.754 C 146.933 422.109,147.161 428.582,152.899 435.232 C 154.925 437.579,158.754 443.895,161.409 449.266 C 167.963 462.525,172.438 465.653,177.545 460.545 C 180.614 457.477,180.622 455.228,177.592 447.578 C 172.137 433.808,171.828 418.617,176.552 396.500 C 177.967 389.879,179.518 378.224,180.013 370.500 C 180.506 362.800,181.387 352.900,181.970 348.500 C 182.553 344.100,183.459 334.200,183.985 326.500 C 185.433 305.278,186.212 303.139,195.873 293.885 C 205.751 284.422,212.350 274.517,214.523 265.893 C 215.408 262.377,216.809 257.111,217.636 254.192 C 220.066 245.610,223.582 245.895,228.308 255.056 C 230.881 260.045,231.059 261.086,230.444 267.500 C 230.075 271.350,228.894 276.750,227.820 279.500 C 222.622 292.810,222.751 291.646,226.059 295.415 C 227.698 297.281,229.623 300.538,230.338 302.654 C 231.303 305.511,232.626 306.991,235.485 308.412 C 241.366 311.334,246.064 309.322,251.630 301.500 C 253.977 298.200,255.921 294.782,255.949 293.905 C 256.020 291.696,259.226 289.000,261.782 289.000 C 265.332 289.000,269.067 286.770,270.653 283.704 C 271.480 282.106,272.509 277.293,272.941 273.009 C 273.753 264.951,274.347 263.422,285.297 241.193 C 290.714 230.197,291.023 229.760,292.648 230.816 C 296.259 233.162,297.522 245.265,294.575 249.277 C 289.712 255.900,287.000 260.620,287.000 262.461 C 287.000 263.599,287.979 266.323,289.176 268.515 C 291.533 272.832,291.905 280.018,290.170 287.737 C 289.524 290.613,289.668 295.095,290.634 302.202 C 291.433 308.086,291.774 315.338,291.428 319.122 C 290.705 327.030,291.958 329.714,296.797 330.622 C 298.621 330.964,300.712 332.202,301.444 333.372 C 303.377 336.465,305.001 349.472,304.992 361.791 C 304.987 367.681,305.525 378.002,306.188 384.727 C 307.622 399.280,306.952 401.512,299.329 407.582 C 296.673 409.697,291.800 413.863,288.500 416.839 C 285.200 419.815,281.488 423.141,280.250 424.230 C 278.367 425.887,278.005 427.212,278.032 432.355 C 278.067 439.092,279.298 441.535,283.145 442.500 C 286.127 443.249,295.254 440.358,306.000 435.264 C 310.125 433.308,317.028 430.244,321.340 428.455 C 330.327 424.726,335.004 420.823,334.991 417.063 C 334.985 415.653,333.523 412.096,331.741 409.158 C 323.827 396.114,324.066 397.626,327.105 379.828 C 328.807 369.856,329.109 364.938,328.682 354.095 C 327.828 332.388,329.655 326.767,339.141 321.928 C 342.251 320.342,344.169 320.014,347.350 320.525 C 353.763 321.556,355.698 323.305,357.540 329.737 C 358.448 332.907,359.823 337.689,360.596 340.365 C 361.368 343.040,362.000 347.452,362.000 350.169 C 362.000 352.886,363.084 359.021,364.409 363.804 C 370.865 387.102,371.321 394.439,366.866 403.266 C 363.067 410.792,362.661 416.106,365.657 419.102 C 367.011 420.455,371.292 422.074,377.470 423.567 C 382.799 424.856,389.711 426.873,392.830 428.050 C 399.718 430.650,419.078 432.010,421.429 430.059 C 424.092 427.849,424.323 423.298,422.012 418.526 C 420.303 414.994,418.794 413.565,414.680 411.580 C 411.831 410.206,408.150 408.166,406.500 407.047 C 404.850 405.928,402.776 405.010,401.891 405.007 C 401.006 405.003,398.235 403.199,395.734 400.997 C 389.196 395.242,388.012 390.995,387.949 373.072 C 387.920 365.057,387.481 355.350,386.973 351.500 C 386.465 347.650,385.622 339.988,385.100 334.474 C 384.578 328.959,383.853 323.264,383.490 321.817 C 382.643 318.440,384.283 315.422,388.015 313.492 C 392.346 311.252,392.817 307.788,389.642 301.517 C 387.681 297.645,386.997 294.779,386.989 290.400 C 386.983 287.155,386.348 282.424,385.578 279.886 C 384.496 276.320,384.359 272.570,384.977 263.386 C 385.417 256.849,386.081 250.763,386.452 249.863 C 386.824 248.962,386.414 244.687,385.542 240.363 C 383.864 232.039,383.902 232.092,372.964 222.746 C 370.031 220.240,369.785 219.596,370.237 215.585 C 370.944 209.321,381.428 188.632,386.667 183.165 L 390.913 178.733 397.974 179.429 C 405.192 180.140,408.338 179.802,435.500 175.402 C 447.405 173.473,452.382 173.107,459.622 173.626 C 464.639 173.987,469.889 173.994,471.289 173.642 C 475.460 172.595,478.000 167.303,478.000 159.658 C 478.000 153.353,477.865 152.982,475.050 151.526 C 470.808 149.332,460.408 149.599,456.000 152.013 C 444.021 158.576,445.214 158.339,420.091 159.124 L 396.683 159.854 382.997 152.998 C 375.469 149.227,366.961 145.374,364.089 144.434 C 356.546 141.967,355.566 140.015,356.995 130.308 C 357.627 126.013,359.012 118.951,360.072 114.613 C 362.604 104.255,362.549 97.529,359.887 91.938 C 356.742 85.329,353.494 81.428,347.378 76.910 C 340.107 71.539,336.150 69.993,329.782 70.035 C 325.384 70.065,323.663 70.660,319.500 73.593 " style="stroke: none; fill: black;">
                    </path></svg>