<svg id="svg-path" width="100%" height="100%" viewBox="0 0 512 512" version="1.1" xmlns="http://www.w3.org/2000/svg" style="fill-rule:evenodd;clip-rule:evenodd;stroke-linejoin:round;stroke-miterlimit:2;">
                        <path d="M224.500 100.832 C 213.090 106.200,208.866 116.572,209.288 138.179 C 209.473 147.641,209.259 149.178,207.405 151.679 C 205.024 154.889,199.474 157.111,196.542 156.026 C 195.456 155.625,193.045 152.521,191.184 149.130 C 187.001 141.506,185.603 140.677,179.229 142.044 C 174.638 143.029,160.570 150.422,155.000 154.778 C 150.902 157.982,144.770 160.959,141.018 161.565 C 134.639 162.596,129.862 165.301,126.393 169.844 C 124.527 172.288,123.000 174.830,123.000 175.494 C 123.000 176.157,124.303 178.498,125.895 180.696 C 127.487 182.894,129.580 186.221,130.547 188.090 C 131.513 189.959,134.059 193.813,136.204 196.654 C 139.773 201.381,140.802 202.051,148.302 204.522 C 152.811 206.008,156.950 207.573,157.500 207.999 C 158.050 208.426,163.170 209.973,168.877 211.437 C 174.585 212.902,181.789 215.379,184.887 216.943 C 191.240 220.150,203.322 223.474,205.537 222.624 C 206.342 222.315,207.000 220.894,207.000 219.466 C 207.000 218.037,207.526 215.886,208.169 214.684 C 211.837 207.830,210.482 185.863,205.852 177.109 C 201.158 168.237,201.860 166.808,211.106 166.420 C 218.214 166.121,218.407 166.500,216.908 177.764 C 215.669 187.079,216.220 194.196,218.690 200.783 C 220.069 204.458,220.130 206.159,219.119 212.783 C 215.796 234.566,214.934 243.843,214.922 258.000 C 214.914 266.525,214.826 278.450,214.725 284.500 C 214.467 300.063,216.115 303.847,228.806 316.845 C 242.568 330.939,256.334 346.008,258.526 349.379 C 260.394 352.250,260.392 352.264,257.950 354.109 C 256.602 355.127,253.558 357.618,251.185 359.645 C 248.811 361.673,244.761 364.661,242.185 366.286 C 239.608 367.911,237.182 369.786,236.794 370.453 C 236.406 371.120,232.296 374.671,227.661 378.344 C 222.900 382.117,218.701 386.308,218.009 387.978 C 216.557 391.485,214.255 392.428,210.567 391.025 C 206.106 389.329,195.471 389.727,193.876 391.650 C 192.862 392.871,192.285 399.422,191.651 416.900 C 190.554 447.183,192.027 457.000,197.669 457.000 C 200.707 457.000,202.760 454.643,204.023 449.705 C 204.615 447.392,205.256 445.020,205.448 444.433 C 205.905 443.034,217.440 425.222,219.975 422.000 C 221.057 420.625,222.213 418.275,222.545 416.777 C 223.306 413.334,228.379 409.000,231.647 409.000 C 233.018 409.000,236.102 410.350,238.500 412.000 C 240.898 413.650,243.944 415.000,245.268 415.000 C 247.809 415.000,253.444 410.253,271.500 392.901 C 277.000 387.616,284.712 381.242,288.638 378.738 C 292.994 375.960,296.957 372.469,298.804 369.785 C 304.496 361.511,307.072 361.190,310.996 368.261 C 313.549 372.861,320.217 383.119,324.802 389.500 C 326.383 391.700,329.933 397.141,332.691 401.591 C 337.494 409.342,337.728 410.056,338.269 418.591 C 338.898 428.505,341.120 435.191,344.364 436.927 C 346.093 437.853,348.264 437.576,355.506 435.507 C 360.453 434.094,366.198 432.276,368.274 431.467 C 370.350 430.659,375.477 429.078,379.668 427.955 C 388.120 425.690,398.296 420.991,401.750 417.758 C 406.573 413.243,402.984 409.000,394.343 409.000 C 391.476 409.000,387.863 408.512,386.315 407.916 C 384.767 407.320,380.816 406.395,377.536 405.860 C 374.256 405.325,369.981 404.072,368.036 403.075 C 366.091 402.078,363.150 400.858,361.500 400.363 C 359.221 399.680,358.422 398.783,358.174 396.633 C 357.904 394.291,358.812 392.905,363.424 388.613 C 370.048 382.448,370.391 380.316,365.782 373.947 C 364.012 371.501,362.300 369.275,361.978 369.000 C 360.513 367.750,341.713 342.630,336.532 335.000 C 330.459 326.058,323.649 317.365,321.047 315.233 C 320.196 314.536,313.200 309.206,305.500 303.388 C 297.800 297.570,290.703 291.557,289.729 290.026 C 288.718 288.438,287.859 284.937,287.729 281.871 L 287.500 276.500 295.192 276.500 C 305.190 276.500,305.866 275.826,303.419 268.298 C 301.958 263.803,301.597 260.140,301.811 252.000 C 301.963 246.225,302.314 240.742,302.590 239.815 C 302.867 238.888,305.210 237.360,307.797 236.419 C 310.384 235.478,315.875 233.229,320.000 231.422 C 324.336 229.523,330.238 227.831,333.991 227.412 C 339.929 226.749,340.842 226.317,344.704 222.344 C 348.010 218.941,349.644 218.000,352.240 218.000 C 361.502 218.000,367.659 204.365,361.586 197.306 C 358.049 193.194,351.686 193.597,344.467 198.391 C 341.538 200.335,337.872 202.205,336.321 202.546 C 334.769 202.887,331.475 203.972,329.000 204.957 C 326.442 205.975,320.301 207.026,314.769 207.393 C 303.426 208.145,302.978 207.899,298.169 198.279 C 292.142 186.226,290.746 180.411,291.486 170.439 L 292.158 161.379 288.684 157.220 C 285.674 153.618,285.113 152.086,284.490 145.781 C 283.656 137.332,282.844 135.391,279.751 134.453 C 276.419 133.442,273.184 130.118,272.112 126.603 C 271.592 124.896,270.193 120.241,269.002 116.257 C 267.392 110.870,265.735 107.796,262.532 104.257 L 258.227 99.500 243.363 99.225 C 230.521 98.987,227.956 99.205,224.500 100.832 M184.111 159.250 C 194.218 174.257,202.704 198.472,200.078 204.811 C 199.385 206.486,198.071 208.149,197.158 208.507 C 195.763 209.054,182.864 205.291,162.000 198.252 C 159.525 197.417,155.475 196.052,153.000 195.218 C 147.357 193.317,144.559 190.838,140.903 184.500 C 136.251 176.436,136.591 175.694,147.250 170.626 C 152.338 168.207,160.775 163.499,166.000 160.163 C 171.225 156.826,176.642 154.075,178.038 154.048 C 180.008 154.011,181.367 155.174,184.111 159.250 M165.946 177.849 C 159.599 181.916,157.634 184.406,158.392 187.424 C 158.854 189.267,160.025 190.199,162.825 190.953 C 164.918 191.516,167.692 193.108,168.989 194.489 C 171.912 197.599,173.159 197.605,179.750 194.536 C 183.901 192.604,185.000 191.600,185.000 189.742 C 185.000 187.217,179.863 178.306,177.223 176.250 C 174.639 174.238,170.711 174.795,165.946 177.849 " style="stroke: none; fill: black;">
                    </path></svg>