<svg id="svg-path" width="100%" height="100%" viewBox="0 0 512 512" version="1.1" xmlns="http://www.w3.org/2000/svg" style="fill-rule:evenodd;clip-rule:evenodd;stroke-linejoin:round;stroke-miterlimit:2;">
                        <path d="M46.073 157.635 C 43.354 161.091,43.449 162.362,46.876 168.433 C 49.507 173.097,51.010 178.367,52.500 188.159 C 52.894 190.747,54.220 192.870,57.031 195.409 C 59.217 197.384,61.438 199.000,61.967 199.000 C 63.985 199.000,83.542 208.518,130.500 232.353 C 167.412 251.089,172.000 253.868,172.000 257.492 C 172.000 259.755,163.562 271.701,157.628 277.838 C 154.258 281.324,149.140 285.704,146.257 287.571 C 143.373 289.439,137.298 294.613,132.757 299.069 C 128.215 303.524,122.999 307.800,121.165 308.570 C 119.331 309.339,115.127 312.228,111.823 314.989 C 108.519 317.749,104.619 320.252,103.158 320.550 C 94.864 322.239,93.124 323.183,88.050 328.745 C 85.164 331.910,81.306 336.106,79.478 338.069 C 75.711 342.114,70.557 344.000,63.269 344.000 C 56.653 344.000,53.402 346.499,52.534 352.254 C 51.121 361.612,50.731 362.417,44.877 368.040 C 41.447 371.334,39.000 374.539,39.000 375.739 C 39.000 378.987,45.424 384.000,49.587 384.000 C 52.546 384.000,54.256 382.928,60.362 377.250 C 80.675 358.357,87.394 354.591,93.567 358.636 C 97.152 360.985,103.955 359.878,112.747 355.515 C 119.889 351.971,130.935 348.000,133.652 348.000 C 136.222 348.000,147.870 342.199,152.059 338.833 C 154.340 337.000,156.846 334.263,157.628 332.752 C 158.497 331.072,161.383 328.826,165.054 326.973 C 168.357 325.305,172.733 322.432,174.780 320.588 C 176.826 318.744,180.694 316.206,183.376 314.948 C 186.058 313.690,190.830 310.275,193.981 307.357 C 200.324 301.484,206.235 298.540,216.000 296.391 C 219.575 295.604,223.752 294.685,225.282 294.349 C 227.643 293.830,228.659 294.381,231.989 297.988 C 235.414 301.698,236.268 302.144,238.707 301.493 C 240.243 301.083,253.847 300.830,268.937 300.930 C 295.900 301.109,296.468 301.155,301.847 303.616 C 305.153 305.128,312.898 307.055,321.410 308.483 C 329.160 309.783,337.525 311.321,340.000 311.899 C 342.475 312.478,348.601 312.962,353.614 312.976 C 358.626 312.989,365.151 313.473,368.114 314.052 C 371.076 314.631,379.081 315.091,385.902 315.075 C 396.136 315.051,400.039 315.502,408.230 317.658 C 420.368 320.851,423.999 320.171,430.849 313.417 C 433.863 310.446,436.454 308.850,438.897 308.460 C 447.329 307.114,447.142 307.238,446.808 303.216 L 446.500 299.500 439.243 299.206 C 432.498 298.933,431.813 299.099,429.536 301.555 L 427.087 304.198 423.969 301.978 C 421.148 299.969,420.069 299.815,412.675 300.367 C 408.179 300.703,402.925 301.237,401.000 301.555 C 397.972 302.054,397.002 301.658,393.807 298.622 C 391.424 296.357,388.764 294.907,386.307 294.534 C 380.605 293.669,370.692 291.520,359.500 288.721 C 354.000 287.346,347.700 285.833,345.500 285.360 C 339.946 284.166,340.414 282.136,347.075 278.524 C 355.451 273.981,356.772 272.769,359.105 267.496 C 362.823 259.090,360.700 248.637,353.794 241.356 C 348.466 235.737,348.972 235.313,370.916 227.012 C 375.544 225.262,380.269 223.216,381.416 222.465 C 382.562 221.715,386.200 220.391,389.500 219.522 C 394.649 218.166,396.747 218.116,404.293 219.168 C 411.070 220.114,414.362 220.127,418.649 219.228 C 423.231 218.267,424.830 218.320,427.728 219.531 C 432.700 221.608,439.267 221.414,442.119 219.105 C 444.131 217.475,444.320 216.809,443.461 214.355 C 442.568 211.803,441.935 211.467,437.504 211.186 C 433.352 210.923,431.672 210.151,427.159 206.436 C 424.195 203.996,420.809 201.954,419.635 201.899 C 414.172 201.639,410.035 202.349,404.500 204.494 C 395.427 208.010,395.686 207.974,375.950 208.496 C 365.803 208.765,356.375 209.420,355.000 209.952 C 353.625 210.484,348.000 211.422,342.500 212.037 C 337.000 212.651,330.674 213.383,328.443 213.663 C 322.702 214.382,321.310 212.534,323.013 206.455 C 323.710 203.963,324.330 199.204,324.391 195.879 C 324.489 190.454,324.217 189.591,321.740 187.457 C 318.005 184.238,305.812 180.584,298.655 180.538 C 293.344 180.503,292.589 180.774,290.390 183.500 C 289.059 185.150,286.590 191.000,284.903 196.500 C 283.216 202.000,281.086 207.099,280.168 207.830 C 278.955 208.797,276.675 208.987,271.810 208.526 C 263.872 207.772,258.268 209.063,254.045 212.615 C 251.424 214.821,251.000 215.852,251.000 220.018 L 251.000 224.858 245.507 225.999 C 238.834 227.384,237.088 226.870,234.500 222.757 L 232.500 219.580 218.874 219.873 C 206.926 220.131,204.770 219.924,201.374 218.195 C 199.243 217.110,195.475 215.635,193.000 214.917 C 190.525 214.198,186.925 212.641,185.000 211.457 C 178.805 207.644,168.426 203.224,160.360 200.963 C 144.483 196.513,131.835 191.058,118.000 182.694 C 91.288 166.544,84.394 163.000,79.695 163.000 C 78.468 163.000,75.809 164.125,73.785 165.500 C 68.203 169.293,66.452 168.804,59.464 161.500 C 52.399 154.116,49.499 153.279,46.073 157.635 M277.950 215.440 C 278.607 216.231,278.999 218.140,278.822 219.682 C 278.432 223.074,275.693 224.521,267.923 225.441 C 263.307 225.987,261.946 225.777,260.022 224.219 C 256.794 221.605,257.885 217.389,262.285 215.476 C 266.628 213.588,276.394 213.565,277.950 215.440 M452.557 225.223 C 448.549 230.944,453.225 240.375,457.800 235.800 C 458.460 235.140,459.000 232.530,459.000 230.000 C 459.000 223.232,455.677 220.768,452.557 225.223 M431.250 227.706 C 429.068 228.126,429.001 228.490,429.033 239.820 C 429.078 255.725,430.711 288.084,431.584 290.359 C 432.201 291.966,433.193 292.158,439.129 291.823 C 442.888 291.610,446.484 290.916,447.121 290.279 C 447.993 289.407,448.029 281.854,447.270 259.810 C 446.714 243.690,445.928 229.713,445.523 228.750 C 444.934 227.352,443.652 227.027,439.143 227.136 C 436.039 227.211,432.488 227.467,431.250 227.706 M416.049 257.441 C 414.541 259.257,415.380 265.241,417.375 266.896 C 419.591 268.736,422.191 264.904,421.816 260.348 C 421.569 257.334,421.048 256.435,419.412 256.202 C 418.264 256.038,416.751 256.595,416.049 257.441 M455.571 278.571 C 453.181 280.961,453.430 289.625,455.928 290.961 C 458.650 292.418,460.687 291.335,461.930 287.771 C 463.569 283.070,463.218 280.266,460.777 278.557 C 458.009 276.618,457.524 276.619,455.571 278.571 " style="stroke: none; fill: black;">
                    </path></svg>