<svg id="svg-path" width="100%" height="100%" viewBox="0 0 512 512" version="1.1" xmlns="http://www.w3.org/2000/svg" style="fill-rule:evenodd;clip-rule:evenodd;stroke-linejoin:round;stroke-miterlimit:2;">
                        <path d="M95.000 143.864 C 89.864 146.954,86.447 152.659,87.416 156.523 C 88.382 160.372,92.256 162.173,101.604 163.121 C 106.317 163.598,110.585 164.243,111.087 164.554 C 111.590 164.865,112.507 167.129,113.126 169.585 C 114.398 174.636,116.911 176.870,133.074 187.314 C 152.265 199.713,158.540 203.915,160.516 205.690 C 161.625 206.685,166.575 211.127,171.516 215.560 C 176.457 219.993,183.219 225.685,186.541 228.208 C 192.700 232.885,200.000 240.301,200.000 241.880 C 200.000 244.164,197.172 244.981,192.395 244.078 C 182.200 242.150,168.109 241.724,157.253 243.015 C 147.648 244.157,145.235 244.101,135.476 242.508 C 129.439 241.523,120.900 240.563,116.500 240.376 C 112.100 240.189,100.895 239.537,91.599 238.927 C 76.079 237.907,74.231 237.579,68.976 234.908 C 61.574 231.147,53.176 230.822,50.051 234.175 C 45.276 239.301,47.192 250.640,53.379 253.870 C 55.095 254.767,58.247 257.269,60.382 259.431 C 62.892 261.973,65.895 263.804,68.882 264.615 C 81.258 267.974,84.882 268.820,89.500 269.429 C 92.250 269.791,101.925 271.841,111.000 273.983 C 120.075 276.125,132.450 278.624,138.500 279.536 C 144.550 280.448,153.550 282.216,158.500 283.465 C 163.450 284.714,171.325 286.268,176.000 286.918 C 184.403 288.088,201.034 291.870,218.500 296.584 C 223.450 297.920,229.566 299.010,232.090 299.007 C 240.728 298.994,260.106 304.913,276.770 312.654 C 282.121 315.141,288.075 317.757,290.000 318.468 C 314.447 327.502,314.868 327.754,329.533 342.173 C 341.663 354.099,344.251 356.076,355.475 361.987 L 363.095 366.000 379.798 365.994 C 397.160 365.989,403.052 365.112,405.221 362.211 C 407.493 359.170,417.715 352.101,423.604 349.496 C 431.432 346.034,435.236 341.829,437.846 333.749 C 441.442 322.619,440.894 317.664,434.504 303.502 C 433.759 301.851,431.931 297.800,430.441 294.500 C 428.952 291.200,426.707 286.212,425.453 283.417 C 421.785 275.239,406.927 258.000,403.547 258.000 C 403.224 258.000,401.177 256.874,398.997 255.498 C 391.576 250.814,383.082 250.516,356.360 254.007 C 348.730 255.003,338.220 253.767,326.500 250.495 C 323.200 249.573,318.843 248.363,316.818 247.805 C 314.793 247.248,310.807 244.803,307.960 242.373 C 301.616 236.958,300.986 236.640,293.500 235.078 C 285.007 233.305,275.925 228.591,268.247 221.970 C 265.996 220.028,261.981 217.293,259.327 215.893 C 256.672 214.492,249.100 210.489,242.500 206.997 C 235.900 203.506,228.929 199.940,227.008 199.074 C 219.560 195.717,196.423 183.756,195.000 182.528 C 194.175 181.816,190.800 179.736,187.500 177.906 C 184.200 176.075,178.180 172.423,174.122 169.789 C 170.064 167.155,166.212 165.000,165.563 165.000 C 164.914 165.000,161.709 163.380,158.441 161.400 C 155.174 159.420,148.900 155.895,144.500 153.567 C 140.100 151.239,134.299 148.060,131.610 146.503 C 125.175 142.778,117.324 141.017,107.500 141.094 C 100.644 141.148,98.857 141.544,95.000 143.864 M419.986 302.973 C 421.590 305.971,423.085 315.025,422.229 316.556 C 420.357 319.900,416.000 312.200,416.000 305.550 C 416.000 300.590,418.014 299.289,419.986 302.973 " style="stroke: none; fill: black;">
                    </path></svg>