<svg id="svg-path" width="100%" height="100%" viewBox="0 0 512 512" version="1.1" xmlns="http://www.w3.org/2000/svg" style="fill-rule:evenodd;clip-rule:evenodd;stroke-linejoin:round;stroke-miterlimit:2;">
                        <path d="M195.250 149.662 C 192.340 150.837,194.002 154.831,198.897 158.424 C 203.454 161.770,205.000 163.725,205.000 166.145 C 205.000 166.684,200.050 172.099,194.000 178.178 C 183.945 188.281,174.000 201.080,174.000 203.918 C 174.000 206.350,168.689 215.382,164.739 219.667 C 159.270 225.601,156.289 227.000,149.115 227.000 C 145.823 227.000,141.863 227.498,140.315 228.106 C 135.771 229.892,120.184 230.099,114.568 228.449 C 105.703 225.844,99.000 226.986,99.000 231.101 C 99.000 234.038,97.177 237.000,95.369 237.000 C 94.511 237.000,92.614 237.657,91.154 238.460 C 89.694 239.264,85.829 240.438,82.563 241.070 C 76.370 242.269,74.178 243.914,69.000 251.252 C 65.981 255.529,65.880 256.935,68.484 258.391 C 69.575 259.001,72.438 261.177,74.847 263.226 C 77.443 265.434,80.708 267.182,82.864 267.516 C 90.221 268.659,94.165 270.176,96.306 272.687 C 101.518 278.801,111.744 279.835,119.000 274.982 C 123.211 272.166,124.079 271.978,132.500 272.068 C 137.450 272.121,143.072 271.678,144.993 271.082 C 146.915 270.487,150.065 269.986,151.993 269.968 C 153.922 269.951,156.374 269.276,157.441 268.468 C 158.509 267.661,159.970 267.000,160.688 267.000 C 163.526 267.000,172.190 276.295,184.921 293.000 C 189.496 299.003,199.044 308.072,209.017 315.887 C 213.500 319.400,217.643 323.317,218.224 324.592 C 219.651 327.724,217.761 332.125,213.311 336.032 C 208.703 340.078,208.999 343.392,214.000 343.753 C 216.857 343.959,218.265 343.298,221.661 340.161 C 223.949 338.046,227.324 335.721,229.161 334.994 C 238.060 331.468,238.272 327.686,230.028 319.527 C 224.821 314.375,222.826 311.134,214.463 294.246 C 204.111 273.341,195.661 253.357,196.560 251.903 C 196.867 251.406,197.619 251.000,198.231 251.000 C 201.000 251.000,212.878 256.586,217.728 260.168 C 223.672 264.560,234.508 269.998,237.316 269.999 C 238.314 270.000,239.935 270.430,240.917 270.956 C 244.148 272.685,257.377 274.998,264.000 274.993 C 270.258 274.988,298.677 279.067,306.106 281.038 C 308.089 281.564,311.431 283.161,313.533 284.587 C 316.254 286.433,318.146 287.021,320.109 286.628 C 321.627 286.325,328.176 287.358,334.683 288.928 C 341.182 290.496,349.650 292.080,353.500 292.446 C 368.611 293.887,396.842 300.779,405.705 305.192 C 406.961 305.817,410.015 306.040,412.803 305.710 C 416.107 305.318,418.595 305.596,420.463 306.565 C 424.298 308.555,428.966 308.359,435.440 305.937 C 442.080 303.452,445.000 300.108,445.000 294.988 C 445.000 288.409,442.926 287.926,430.000 291.490 L 423.500 293.282 419.610 290.641 C 417.471 289.189,414.684 288.000,413.417 288.000 C 410.233 288.000,394.268 282.554,388.911 279.640 C 386.485 278.320,382.415 276.471,379.867 275.529 C 374.657 273.605,368.000 268.548,368.000 266.515 C 368.000 265.099,380.642 259.869,389.960 257.429 C 392.963 256.643,398.951 256.000,403.267 256.000 C 407.583 256.000,413.090 255.503,415.505 254.895 C 419.406 253.912,420.224 254.024,422.852 255.895 C 424.478 257.053,426.689 258.000,427.766 258.000 C 430.134 258.000,443.573 249.054,445.642 246.101 C 446.495 244.883,446.989 242.406,446.810 240.245 C 446.529 236.849,446.205 236.471,443.330 236.193 C 441.367 236.002,438.154 236.902,434.894 238.554 C 431.699 240.173,428.225 241.157,426.064 241.055 C 424.104 240.963,402.025 240.575,376.999 240.194 L 331.498 239.500 329.209 237.210 C 325.101 233.100,322.611 232.779,317.087 235.645 C 313.862 237.318,309.910 238.383,305.811 238.684 C 299.815 239.124,298.900 238.869,287.501 233.574 C 275.019 227.776,270.180 226.836,264.315 229.074 C 262.232 229.869,260.497 229.818,257.641 228.878 C 254.368 227.801,253.077 227.855,249.141 229.233 C 246.588 230.127,242.700 231.178,240.500 231.569 C 238.300 231.960,232.280 233.342,227.122 234.640 C 221.964 235.938,215.522 237.000,212.806 237.000 C 207.285 237.000,204.414 238.204,201.696 241.659 C 198.386 245.867,194.000 244.091,194.000 238.543 C 194.000 236.862,194.447 233.928,194.993 232.023 C 195.540 230.118,196.641 223.596,197.441 217.530 C 199.639 200.861,205.116 184.978,211.933 175.500 C 219.323 165.227,221.000 162.326,221.000 159.818 C 221.000 157.139,219.569 156.235,212.000 154.131 C 210.075 153.596,206.031 152.223,203.014 151.079 C 197.210 148.879,197.197 148.877,195.250 149.662 M233.965 245.934 C 235.238 248.314,235.328 254.679,234.099 255.439 C 232.766 256.263,220.889 252.299,218.026 250.075 C 215.593 248.185,215.583 248.118,217.431 246.077 C 218.983 244.362,220.496 244.000,226.120 244.000 C 231.829 244.000,233.097 244.313,233.965 245.934 " style="stroke: none; fill: black;">
                    </path></svg>