<svg id="svg-path" width="100%" height="100%" viewBox="0 0 512 512" version="1.1" xmlns="http://www.w3.org/2000/svg" style="fill-rule:evenodd;clip-rule:evenodd;stroke-linejoin:round;stroke-miterlimit:2;">
                        <path d="M302.436 50.967 C 294.790 52.128,290.186 53.960,282.671 58.832 C 266.650 69.217,258.147 88.381,260.997 107.682 C 261.632 111.982,262.390 116.511,262.683 117.746 C 263.189 119.884,262.998 119.962,258.698 119.372 C 254.256 118.763,254.138 118.822,251.578 122.876 C 250.146 125.144,248.453 127.000,247.816 127.000 C 247.178 127.000,243.712 125.822,240.112 124.382 C 234.304 122.058,232.719 121.837,226.034 122.415 C 214.894 123.378,207.055 124.932,203.054 126.968 C 201.099 127.964,195.900 130.012,191.500 131.521 C 187.100 133.031,180.205 135.781,176.177 137.633 C 172.149 139.485,168.663 141.000,168.430 141.000 C 168.196 141.000,165.227 143.045,161.832 145.545 C 150.321 154.019,122.744 182.072,117.255 190.893 C 112.734 198.158,115.232 211.016,121.469 212.582 C 125.100 213.493,128.245 212.457,133.102 208.751 C 136.547 206.121,138.140 203.712,141.431 196.149 C 146.397 184.736,149.815 180.572,159.232 174.461 C 163.229 171.867,169.436 167.774,173.025 165.365 C 179.305 161.149,192.831 156.047,197.816 156.015 C 205.479 155.965,209.162 166.368,205.600 178.000 C 203.780 183.945,199.902 192.594,196.846 197.525 C 192.302 204.857,186.026 221.039,184.043 230.538 C 181.929 240.660,180.541 243.990,175.515 251.000 C 170.953 257.362,169.262 262.656,167.050 277.500 C 165.984 284.650,164.159 294.100,162.994 298.500 C 161.829 302.900,159.554 311.629,157.938 317.897 C 156.323 324.165,154.599 329.790,154.108 330.397 C 153.617 331.004,151.323 336.900,149.010 343.500 C 146.696 350.100,143.578 357.525,142.080 360.000 C 138.012 366.720,134.763 374.068,129.479 388.500 C 122.836 406.644,106.232 437.564,98.891 445.464 C 88.974 456.134,87.575 461.663,93.479 466.847 C 102.216 474.518,112.310 470.221,119.636 455.713 C 122.919 449.211,125.790 445.755,132.050 440.771 C 137.264 436.620,138.201 434.509,139.458 424.094 C 139.817 421.120,140.813 417.295,141.672 415.594 C 143.523 411.926,151.027 401.646,152.207 401.161 C 153.800 400.507,166.215 384.452,168.571 380.000 C 171.892 373.722,172.944 372.579,177.570 370.219 C 182.768 367.568,183.398 366.743,185.766 359.500 C 189.652 347.615,196.857 334.954,203.873 327.681 C 214.925 316.224,222.291 312.000,231.217 312.000 C 236.550 312.000,240.845 313.820,248.500 319.324 C 262.779 329.590,263.495 331.225,256.734 338.138 C 254.388 340.537,250.243 345.349,247.522 348.832 C 240.481 357.846,236.031 360.177,224.148 361.076 C 211.692 362.018,211.265 362.497,205.964 381.500 C 203.609 389.939,202.000 401.557,202.000 410.118 C 202.000 420.416,203.153 423.000,207.747 423.000 C 211.593 423.000,213.007 421.812,216.507 415.638 C 229.086 393.450,246.400 377.760,266.265 370.547 C 269.694 369.301,275.650 366.703,279.500 364.773 C 283.350 362.843,291.000 359.779,296.500 357.964 C 304.688 355.263,307.167 353.955,310.178 350.744 C 314.823 345.793,317.212 340.790,317.790 334.808 C 318.335 329.171,314.365 319.807,307.706 311.022 C 301.094 302.299,285.545 283.748,282.542 281.000 C 278.623 277.414,277.000 273.756,277.000 268.510 C 277.000 265.845,276.134 262.222,274.934 259.871 C 272.314 254.735,271.330 243.746,272.916 237.328 C 273.573 234.673,275.577 230.250,277.370 227.500 C 279.163 224.750,281.620 220.430,282.831 217.901 C 284.042 215.371,286.263 212.168,287.766 210.782 C 289.270 209.396,291.999 206.628,293.831 204.631 C 297.881 200.217,299.760 200.099,303.843 204.000 C 305.569 205.650,307.706 207.000,308.590 207.000 C 309.475 207.000,312.823 205.380,316.030 203.400 C 322.790 199.228,324.252 199.267,339.500 204.023 C 344.450 205.567,349.925 207.121,351.666 207.476 C 356.331 208.428,362.143 206.482,365.723 202.769 C 369.520 198.831,377.912 180.561,381.004 169.500 C 384.377 157.431,388.377 147.176,392.314 140.500 C 397.883 131.058,397.668 127.573,391.114 121.019 C 385.412 115.316,381.228 114.042,375.739 116.336 C 369.915 118.769,368.581 121.858,367.918 134.451 C 367.384 144.597,366.986 146.317,363.042 155.495 C 353.598 177.475,347.569 182.190,337.412 175.535 C 336.124 174.691,333.270 174.000,331.070 174.000 C 327.942 174.000,326.811 173.510,325.880 171.750 C 325.225 170.513,323.244 167.700,321.477 165.500 C 316.232 158.969,315.709 157.464,317.486 154.026 C 318.481 152.103,320.723 150.295,323.767 148.963 C 340.416 141.677,349.192 134.300,354.655 123.000 C 368.636 94.075,354.457 61.329,324.000 52.203 C 318.938 50.687,308.299 50.077,302.436 50.967 " style="stroke: none; fill: black;">
                    </path></svg>