<svg id="svg-path" width="100%" height="100%" viewBox="0 0 512 512" version="1.1" xmlns="http://www.w3.org/2000/svg" style="fill-rule:evenodd;clip-rule:evenodd;stroke-linejoin:round;stroke-miterlimit:2;">
                        <path d="M258.404 54.761 C 248.784 58.211,238.059 68.696,235.567 77.087 C 233.719 83.310,233.596 88.018,235.099 95.028 C 236.280 100.533,235.438 106.084,232.341 113.215 C 230.303 117.908,225.987 119.476,209.448 121.527 C 189.516 124.000,188.251 123.797,180.500 116.888 C 165.374 103.403,161.900 101.525,157.459 104.435 C 155.636 105.630,155.000 106.935,155.000 109.487 C 155.000 112.495,155.786 113.570,161.250 118.043 C 173.190 127.816,174.151 128.861,173.814 131.704 C 173.567 133.787,172.325 134.946,168.000 137.128 C 164.975 138.655,160.269 140.674,157.543 141.614 C 150.872 143.915,147.593 147.239,148.482 150.800 C 149.793 156.054,151.850 157.259,158.496 156.667 C 161.798 156.373,165.738 155.825,167.250 155.450 C 171.319 154.439,170.789 156.695,165.500 162.891 C 163.025 165.791,161.000 169.047,161.000 170.127 C 161.000 173.444,165.441 177.000,169.583 177.000 C 172.829 177.000,174.263 176.031,181.879 168.690 C 186.620 164.120,192.455 158.575,194.845 156.369 C 199.266 152.287,200.035 149.972,198.622 145.000 C 197.184 139.942,202.005 137.609,216.542 136.326 C 225.155 135.567,225.904 136.688,223.546 146.807 C 221.142 157.121,220.685 157.807,214.359 160.605 C 210.020 162.524,208.577 163.768,207.387 166.616 C 205.471 171.202,206.256 174.907,210.673 182.111 C 212.903 185.748,214.418 189.793,214.981 193.611 C 216.803 205.961,219.531 209.000,228.795 209.000 C 235.844 209.000,237.695 211.235,236.013 217.719 C 235.331 220.348,234.445 226.775,234.043 232.000 C 232.952 246.192,229.859 255.950,221.786 270.667 C 217.915 277.725,210.253 292.275,204.760 303.000 C 199.267 313.725,194.261 323.131,193.636 323.903 C 192.970 324.725,192.500 329.151,192.500 334.602 L 192.500 343.899 196.500 348.057 C 198.700 350.344,204.743 355.654,209.929 359.857 C 215.116 364.061,221.641 369.358,224.429 371.628 C 227.218 373.899,234.000 379.860,239.500 384.876 C 246.506 391.265,252.101 395.348,258.188 398.513 C 262.967 400.998,268.223 404.377,269.870 406.023 C 274.369 410.523,278.171 419.267,277.805 424.271 C 277.482 428.678,277.545 428.616,266.997 434.990 C 262.919 437.455,257.625 444.660,256.449 449.348 C 255.485 453.190,260.703 466.572,264.367 469.656 C 267.272 472.100,267.932 472.224,275.510 471.751 C 281.742 471.362,284.916 470.579,289.532 468.291 C 292.815 466.664,298.117 464.294,301.316 463.024 C 311.286 459.064,318.721 453.628,321.230 448.463 L 323.454 443.886 321.129 437.193 C 319.851 433.512,317.787 428.250,316.542 425.500 C 314.042 419.977,308.415 405.797,305.034 396.500 C 301.376 386.442,295.478 376.914,287.491 368.160 C 283.306 363.572,279.435 358.645,278.890 357.210 C 278.020 354.923,279.407 351.501,290.099 329.550 C 300.668 307.851,302.949 303.898,307.147 300.000 C 318.366 289.584,323.245 266.618,319.471 242.000 C 317.967 232.193,317.729 224.054,317.857 186.713 C 318.016 140.351,317.510 133.952,312.983 125.000 C 310.152 119.403,303.768 115.000,298.484 115.000 C 295.096 115.000,292.000 113.319,292.000 111.479 C 292.000 110.681,294.475 104.861,297.500 98.544 C 302.510 88.083,303.000 86.450,303.000 80.225 C 303.000 74.357,302.578 72.726,300.014 68.683 C 296.795 63.608,287.418 56.803,281.106 54.963 C 273.996 52.890,263.872 52.800,258.404 54.761 " style="stroke: none; fill: black;">
                    </path></svg>