<svg id="svg-path" width="100%" height="100%" viewBox="0 0 512 512" version="1.1" xmlns="http://www.w3.org/2000/svg" style="fill-rule:evenodd;clip-rule:evenodd;stroke-linejoin:round;stroke-miterlimit:2;">
                        <path d="M159.117 108.104 C 151.865 110.051,148.029 111.709,144.946 114.230 C 141.340 117.178,134.868 127.083,133.468 131.795 C 132.414 135.346,131.311 137.084,129.809 137.561 C 125.735 138.854,117.366 144.831,114.657 148.383 C 111.347 152.723,106.002 163.814,106.001 166.346 C 105.999 169.706,109.286 173.826,113.422 175.648 C 120.235 178.650,120.501 180.416,115.668 190.528 C 113.835 194.363,112.042 198.984,111.683 200.799 C 111.324 202.613,108.999 206.592,106.515 209.640 C 104.032 212.689,101.997 215.705,101.994 216.342 C 101.990 216.979,101.271 218.850,100.395 220.500 C 99.519 222.150,97.708 226.821,96.369 230.880 C 95.030 234.939,92.550 241.134,90.856 244.645 C 88.430 249.675,87.673 252.776,87.287 259.265 C 86.815 267.195,86.911 267.666,89.880 272.000 L 92.964 276.500 92.982 313.201 C 93.000 349.574,93.565 357.400,96.579 363.000 C 98.875 367.267,101.000 377.846,101.000 385.007 C 101.000 391.660,101.126 392.003,105.488 397.176 C 107.956 400.104,111.443 404.485,113.238 406.912 C 118.930 414.609,129.998 418.025,134.895 413.595 C 138.550 410.288,136.777 401.556,131.923 398.959 C 129.657 397.746,124.000 389.395,124.000 387.263 C 124.000 386.522,122.687 383.108,121.082 379.676 C 117.342 371.677,114.004 354.099,114.002 342.399 C 114.000 334.470,114.339 332.667,116.636 328.399 C 120.090 321.980,120.981 317.860,119.927 313.172 C 119.454 311.064,118.958 306.589,118.825 303.228 C 118.636 298.438,118.986 296.673,120.447 295.059 C 124.756 290.297,130.560 294.057,136.563 305.500 C 138.583 309.350,141.888 314.750,143.908 317.500 C 145.928 320.250,150.249 326.550,153.509 331.500 C 156.770 336.450,163.577 344.638,168.635 349.696 C 173.693 354.755,178.046 359.705,178.309 360.696 C 178.571 361.688,179.353 364.750,180.045 367.500 C 182.330 376.576,185.349 378.334,201.600 380.057 C 215.649 381.546,220.637 381.399,225.250 379.356 C 230.916 376.848,230.236 374.052,223.001 370.118 C 213.073 364.719,200.108 355.940,197.056 352.549 C 195.100 350.376,190.970 345.876,187.879 342.549 C 182.561 336.827,175.993 326.904,171.029 317.093 C 168.683 312.457,166.610 305.916,165.586 299.926 C 165.250 297.961,162.473 292.408,159.414 287.586 C 156.355 282.764,153.773 277.623,153.676 276.160 C 153.483 273.244,153.716 273.209,164.143 274.576 C 170.425 275.399,172.690 273.946,175.697 267.165 C 181.725 253.568,182.515 249.568,182.296 233.750 C 182.102 219.802,182.196 219.000,184.011 219.000 C 185.067 219.000,187.409 220.266,189.215 221.814 C 194.756 226.560,198.152 228.479,207.346 232.057 C 215.328 235.164,216.630 236.054,220.686 241.178 C 226.089 248.001,227.579 248.731,230.025 245.752 C 231.387 244.094,232.250 243.764,233.297 244.500 C 234.079 245.050,235.926 246.351,237.401 247.392 C 242.876 251.255,248.350 245.450,246.152 238.113 C 244.895 233.916,243.001 232.340,236.000 229.659 C 229.359 227.118,226.459 224.245,223.216 216.998 C 221.616 213.422,218.425 208.478,216.125 206.012 C 213.826 203.546,212.069 200.847,212.222 200.014 C 212.513 198.431,222.301 193.159,225.138 193.058 C 226.039 193.026,229.133 194.622,232.015 196.604 C 242.190 203.603,249.000 204.743,249.000 199.445 C 249.000 197.423,248.134 196.558,244.595 195.041 C 242.172 194.002,237.725 190.920,234.713 188.193 C 231.701 185.465,227.496 182.677,225.368 181.996 C 223.241 181.316,219.475 179.721,217.000 178.451 C 214.352 177.093,210.072 175.972,206.600 175.727 C 199.335 175.214,197.656 173.475,198.567 167.404 C 198.996 164.541,198.696 162.313,197.594 160.181 C 196.474 158.015,195.997 154.336,195.989 147.800 C 195.983 142.460,195.344 136.410,194.489 133.591 C 193.670 130.891,192.998 127.516,192.996 126.091 C 192.993 124.666,191.081 120.626,188.746 117.113 C 181.476 106.176,174.357 104.012,159.117 108.104 M352.000 130.775 C 345.625 133.222,341.565 135.565,337.475 139.156 C 332.727 143.325,332.119 144.672,330.998 153.515 C 330.296 159.051,329.362 161.970,327.519 164.386 C 326.134 166.202,325.000 168.627,325.000 169.773 C 325.000 172.479,322.172 175.280,320.204 174.525 C 316.585 173.136,306.954 172.777,304.178 173.926 C 299.808 175.736,286.092 172.912,280.154 168.979 C 273.943 164.865,268.496 163.461,265.667 165.246 C 264.475 165.998,261.606 167.163,259.292 167.834 C 254.365 169.264,254.332 169.306,252.448 176.537 C 250.487 184.069,250.513 184.228,254.500 189.000 C 256.425 191.304,258.000 194.003,258.000 194.997 C 258.000 196.844,262.442 199.000,266.246 199.000 C 267.317 199.000,270.156 200.728,272.555 202.840 C 274.955 204.952,282.224 210.188,288.709 214.475 C 295.194 218.762,301.554 223.222,302.842 224.385 C 304.796 226.150,306.450 226.500,312.842 226.500 L 320.500 226.500 320.370 250.584 C 320.248 273.189,320.104 274.970,318.015 279.584 C 316.334 283.297,315.813 286.250,315.884 291.656 C 315.935 295.592,315.344 300.607,314.570 302.801 C 313.659 305.384,313.431 307.979,313.925 310.166 C 314.344 312.024,314.339 314.434,313.913 315.522 C 313.488 316.610,313.099 319.975,313.049 323.000 C 312.923 330.514,310.579 345.589,309.287 347.191 C 307.650 349.222,303.582 361.193,299.508 375.973 C 296.559 386.667,295.930 390.412,296.437 394.234 C 297.211 400.073,295.153 405.335,289.098 412.995 C 286.844 415.847,285.000 419.098,285.000 420.220 C 285.000 421.999,285.885 425.823,290.044 442.000 C 291.789 448.789,301.052 457.000,306.967 457.000 C 308.092 457.000,309.991 455.875,311.187 454.500 C 313.161 452.230,314.083 452.000,321.214 452.000 C 330.212 452.000,332.865 450.896,347.000 441.271 L 355.500 435.483 356.000 427.992 L 356.500 420.500 360.669 419.575 C 365.201 418.569,367.000 416.138,367.000 411.018 C 367.000 409.430,367.442 406.968,367.982 405.547 C 368.522 404.126,369.674 398.360,370.542 392.732 C 371.411 387.104,372.729 379.350,373.471 375.500 C 374.214 371.650,375.122 361.750,375.489 353.500 C 376.164 338.330,377.214 328.208,378.965 320.000 C 380.224 314.095,383.640 293.841,385.285 282.525 C 386.567 273.700,386.643 273.534,389.771 272.637 C 391.521 272.135,393.197 270.954,393.496 270.012 C 393.795 269.071,392.424 263.845,390.449 258.400 C 386.310 246.990,384.547 238.609,384.791 231.500 C 384.885 228.750,385.153 217.417,385.387 206.316 C 385.771 188.051,385.636 185.816,383.960 182.816 C 379.403 174.657,377.019 169.335,377.010 167.303 C 377.004 166.095,378.161 162.945,379.580 160.303 C 383.185 153.592,382.730 144.921,378.454 138.841 C 372.854 130.879,361.080 127.289,352.000 130.775 M299.954 188.632 C 310.695 192.512,314.105 195.018,312.384 197.764 C 310.939 200.069,307.658 200.463,304.809 198.673 C 303.539 197.876,300.824 196.692,298.775 196.042 C 292.397 194.020,281.545 187.589,281.162 185.605 C 280.838 183.921,281.263 183.812,285.606 184.464 C 288.248 184.860,294.704 186.736,299.954 188.632 M340.000 367.419 C 340.000 372.489,336.319 393.170,334.025 400.993 C 332.696 405.524,332.717 411.602,334.070 414.130 C 335.370 416.561,333.691 418.963,322.722 430.368 C 314.457 438.961,312.043 439.753,310.916 434.242 C 309.851 429.037,310.679 402.921,311.949 401.651 C 312.564 401.036,315.101 400.464,317.586 400.380 C 320.072 400.297,322.255 400.064,322.439 399.864 C 323.359 398.860,331.941 378.972,332.952 375.500 C 334.622 369.765,338.199 362.000,339.171 362.000 C 339.627 362.000,340.000 364.439,340.000 367.419 " style="stroke: none; fill: black;">
                    </path></svg>