<svg id="svg-path" width="100%" height="100%" viewBox="0 0 512 512" version="1.1" xmlns="http://www.w3.org/2000/svg" style="fill-rule:evenodd;clip-rule:evenodd;stroke-linejoin:round;stroke-miterlimit:2;">
                        <path d="M409.370 127.475 C 405.707 131.298,404.440 132.000,401.208 132.000 C 399.104 132.000,396.509 131.339,395.441 130.532 C 394.374 129.724,391.475 129.061,389.000 129.058 C 385.052 129.053,383.534 129.780,376.630 134.987 L 368.760 140.921 364.138 138.461 C 361.596 137.107,358.505 136.000,357.269 136.000 C 356.033 136.000,352.266 138.096,348.898 140.658 C 339.996 147.428,332.523 159.702,331.379 169.431 C 330.762 174.680,330.938 175.333,334.344 180.463 C 337.806 185.676,340.801 188.355,356.460 200.241 C 365.237 206.904,365.837 208.751,366.617 231.500 C 367.137 246.670,367.428 248.823,369.322 251.500 C 372.083 255.404,371.967 261.201,369.048 265.148 C 364.989 270.639,356.827 288.104,352.862 299.784 C 350.550 306.592,347.494 313.358,345.433 316.226 C 340.023 323.756,334.000 340.146,334.000 347.337 C 334.000 351.464,333.592 352.120,327.413 357.933 C 323.790 361.340,318.615 365.717,315.913 367.658 C 304.198 376.075,314.978 378.396,340.412 372.932 C 352.549 370.325,354.000 369.260,354.000 362.952 C 354.000 358.563,354.300 357.836,356.452 357.018 C 359.501 355.859,361.523 351.993,362.466 345.516 C 363.067 341.395,367.509 328.053,371.127 319.500 C 374.365 311.848,384.128 297.872,391.121 290.879 C 394.146 287.854,395.769 287.000,398.494 287.000 C 401.447 287.000,402.471 287.657,405.113 291.250 C 410.884 299.096,411.022 299.908,411.580 329.293 C 411.865 344.257,412.548 358.205,413.098 360.290 C 413.861 363.180,414.935 364.478,417.624 365.760 C 420.652 367.205,421.059 367.798,420.514 369.971 C 418.567 377.724,418.491 377.483,424.339 382.118 C 436.206 391.525,451.571 400.341,455.202 399.826 C 458.991 399.289,458.499 395.834,453.544 388.174 C 451.034 384.294,448.146 379.173,447.126 376.795 C 446.107 374.417,444.537 371.860,443.637 371.113 C 442.291 369.996,442.000 367.664,442.000 357.984 C 442.000 344.419,440.450 327.088,438.782 322.000 C 437.815 319.048,436.607 284.768,436.924 269.250 C 437.575 237.337,437.547 236.569,435.608 233.709 C 432.940 229.772,432.115 224.610,431.467 207.796 C 430.827 191.157,431.047 190.337,438.525 181.500 C 448.500 169.712,450.580 159.418,445.116 148.887 C 438.437 136.013,433.990 131.000,429.249 131.000 C 427.884 131.000,424.683 129.496,422.134 127.658 C 414.787 122.360,414.277 122.353,409.370 127.475 M124.439 132.647 C 111.150 139.615,107.975 147.632,110.925 166.759 C 112.183 174.919,112.171 175.041,109.873 176.902 C 106.830 179.366,88.366 180.502,86.051 178.367 C 83.564 176.074,85.850 171.802,90.792 169.507 C 93.487 168.256,95.296 166.668,95.655 165.238 C 96.442 162.102,94.361 157.531,91.432 155.964 C 89.307 154.826,88.345 154.965,83.900 157.047 C 81.097 158.360,77.933 160.541,76.868 161.895 C 75.803 163.249,72.840 165.739,70.284 167.429 C 63.486 171.922,56.427 181.626,55.017 188.416 C 54.038 193.134,54.118 194.446,55.572 197.510 C 57.494 201.561,63.214 205.829,70.299 208.500 C 79.254 211.876,81.342 217.519,78.570 230.856 C 77.612 235.466,76.570 242.671,76.254 246.869 C 75.856 252.163,75.084 255.308,73.735 257.138 C 71.994 259.498,71.927 260.156,73.096 263.388 C 74.119 266.219,74.148 267.703,73.228 270.250 C 71.105 276.129,68.226 292.283,67.035 305.000 C 66.391 311.875,65.434 320.025,64.909 323.112 C 64.158 327.526,64.305 329.982,65.599 334.612 C 69.003 346.789,70.129 354.971,70.610 371.000 C 71.168 389.586,71.388 388.823,62.250 399.987 C 57.838 405.378,57.337 407.125,58.970 411.421 C 59.812 413.635,60.269 413.848,62.419 413.031 C 63.782 412.513,67.283 410.522,70.199 408.608 C 73.114 406.694,78.425 404.161,82.000 402.978 C 91.046 399.986,92.067 398.863,91.909 392.077 C 91.838 389.010,92.241 384.257,92.804 381.516 C 93.368 378.775,93.640 376.226,93.409 375.852 C 93.177 375.478,93.496 369.470,94.117 362.502 C 94.936 353.303,94.949 347.537,94.163 341.454 C 93.008 332.507,94.142 323.163,97.506 313.892 C 98.382 311.476,99.770 307.363,100.588 304.750 C 101.658 301.338,102.597 300.000,103.922 300.000 C 110.147 300.000,120.273 321.444,127.533 350.000 C 128.442 353.575,129.874 358.075,130.716 360.000 C 131.558 361.925,132.479 367.550,132.762 372.500 C 133.057 377.636,133.862 382.347,134.639 383.473 C 135.388 384.557,136.000 387.300,136.000 389.568 C 136.000 394.064,137.413 395.847,142.600 397.894 C 144.305 398.568,147.655 401.111,150.045 403.546 C 155.535 409.140,160.076 410.835,163.522 408.577 C 168.126 405.561,167.775 402.685,162.021 396.275 C 153.912 387.242,153.000 384.837,153.000 372.498 C 153.000 366.678,152.343 358.672,151.541 354.708 C 150.738 350.744,150.168 346.825,150.274 346.000 C 150.712 342.588,148.756 325.073,147.315 319.500 C 146.461 316.200,145.381 310.575,144.913 307.000 C 144.446 303.425,143.652 298.475,143.150 296.000 C 142.647 293.525,142.296 285.425,142.368 278.000 C 142.482 266.291,142.792 263.903,144.698 260.000 C 145.907 257.525,147.379 254.209,147.969 252.631 C 149.213 249.301,151.634 234.712,151.919 228.821 C 152.104 224.995,154.740 224.002,164.821 223.958 C 177.881 223.902,185.284 221.162,189.365 214.872 C 191.000 212.352,190.950 211.771,188.165 200.872 C 185.379 189.966,183.017 184.559,178.559 178.876 C 177.426 177.433,175.794 174.958,174.931 173.376 C 174.068 171.794,172.190 169.880,170.758 169.122 C 165.795 166.497,159.000 170.382,159.000 175.845 C 159.000 177.420,158.107 179.498,157.000 180.500 C 155.900 181.495,155.000 182.658,155.000 183.083 C 155.000 183.508,157.488 184.167,160.528 184.547 C 166.738 185.323,168.890 187.469,167.000 191.000 C 165.576 193.662,164.641 193.537,159.506 190.004 C 157.111 188.356,153.981 186.563,152.550 186.019 C 151.119 185.475,149.689 184.354,149.373 183.529 C 148.708 181.797,149.941 174.873,152.917 163.623 C 155.489 153.899,155.491 153.024,152.967 147.653 C 149.261 139.770,140.310 132.525,131.939 130.635 C 130.235 130.250,127.724 130.924,124.439 132.647 M419.257 140.750 C 422.900 144.817,428.000 153.365,428.000 155.403 C 428.000 158.062,422.580 165.699,420.202 166.391 C 415.005 167.903,409.388 168.043,407.585 166.705 C 405.728 165.329,405.720 165.030,407.336 156.893 C 408.252 152.277,409.001 147.070,409.001 145.321 C 409.000 143.573,409.707 141.436,410.571 140.571 C 412.664 138.479,417.309 138.574,419.257 140.750 M364.843 151.750 C 365.346 152.713,366.074 157.398,366.461 162.162 C 367.397 173.680,366.683 175.000,359.522 175.000 C 355.067 175.000,353.839 174.608,352.557 172.777 C 350.250 169.485,350.661 164.451,353.666 159.178 C 358.665 150.408,362.731 147.705,364.843 151.750 M240.912 180.184 C 240.863 180.358,240.660 182.633,240.459 185.240 C 240.164 189.087,240.450 190.170,241.975 190.987 C 245.593 192.923,247.123 191.222,246.798 185.625 C 246.521 180.864,246.305 180.478,243.750 180.184 C 242.238 180.010,240.960 180.010,240.912 180.184 M267.324 182.598 C 264.948 188.789,268.319 195.921,271.559 191.559 C 273.054 189.545,273.446 185.326,272.393 182.582 C 271.604 180.526,268.115 180.538,267.324 182.598 M297.667 185.667 C 296.835 186.498,296.822 191.735,297.644 194.804 C 298.121 196.583,298.858 197.038,300.881 196.804 C 303.198 196.535,303.536 196.001,303.811 192.176 C 303.982 189.798,303.590 187.210,302.939 186.426 C 301.703 184.937,298.813 184.521,297.667 185.667 M248.384 205.442 C 247.016 209.007,248.427 210.507,252.951 210.294 C 257.749 210.069,259.383 208.585,257.895 205.804 C 256.674 203.523,249.229 203.240,248.384 205.442 M265.569 206.326 C 263.236 208.032,264.235 211.561,267.283 212.378 C 273.305 213.993,277.000 212.492,277.000 208.431 C 277.000 206.701,276.240 206.136,273.250 205.642 C 268.062 204.784,267.624 204.823,265.569 206.326 M235.765 207.846 C 233.711 208.756,231.813 210.063,231.547 210.750 C 230.633 213.110,232.196 215.000,235.060 215.000 C 241.227 215.000,245.688 210.738,242.960 207.452 C 241.489 205.679,240.542 205.731,235.765 207.846 M286.200 208.200 C 284.407 209.993,284.741 211.705,287.223 213.443 C 291.875 216.702,300.341 214.264,296.246 210.845 C 294.460 209.354,289.506 207.000,288.153 207.000 C 287.739 207.000,286.860 207.540,286.200 208.200 M220.468 217.453 C 217.599 221.215,217.531 223.675,220.250 225.388 C 222.494 226.801,224.847 225.404,227.312 221.195 C 228.733 218.769,228.888 217.659,228.027 216.051 C 226.399 213.009,223.439 213.558,220.468 217.453 M300.667 217.667 C 298.041 220.292,303.758 229.798,307.174 228.487 C 310.053 227.382,309.985 225.280,306.936 221.070 C 304.150 217.225,302.179 216.155,300.667 217.667 M264.750 227.572 C 259.908 230.199,261.998 233.970,267.528 232.582 C 270.579 231.817,274.303 228.299,273.477 226.964 C 272.597 225.539,267.894 225.867,264.750 227.572 M311.704 229.630 C 310.855 230.478,312.040 239.199,313.205 240.683 C 313.805 241.447,313.556 242.748,312.502 244.357 C 311.508 245.874,310.993 248.342,311.185 250.674 C 311.473 254.173,311.752 254.500,314.450 254.500 C 317.092 254.500,317.554 254.008,318.862 249.797 C 320.120 245.744,320.127 244.858,318.911 243.390 C 317.993 242.282,317.620 239.984,317.844 236.810 C 318.046 233.950,317.685 231.326,316.972 230.466 C 315.725 228.964,312.829 228.504,311.704 229.630 M291.133 232.088 C 288.152 235.288,287.873 237.873,290.251 240.251 L 292.354 242.354 295.677 238.511 C 299.475 234.118,299.575 233.718,297.429 231.571 C 295.301 229.444,293.455 229.596,291.133 232.088 M244.340 232.556 C 243.501 234.743,245.202 240.094,247.122 241.305 C 251.553 244.100,253.650 238.367,249.927 233.635 C 247.601 230.677,245.236 230.221,244.340 232.556 M213.330 233.202 C 211.480 235.615,209.769 240.955,210.355 242.482 C 211.269 244.864,214.648 244.263,216.976 241.303 C 219.736 237.794,219.417 232.631,216.412 232.202 C 215.264 232.038,213.877 232.488,213.330 233.202 M267.636 245.072 C 265.652 246.632,264.974 247.964,265.195 249.866 C 265.632 253.643,268.891 253.767,272.367 250.139 C 277.435 244.849,273.406 240.533,267.636 245.072 M241.250 244.667 C 239.734 245.273,239.614 249.410,241.035 252.066 C 241.617 253.152,243.121 254.000,244.468 254.000 C 247.833 254.000,248.770 250.509,246.295 247.193 C 244.218 244.412,243.183 243.893,241.250 244.667 M213.200 251.200 C 211.603 252.797,211.687 255.315,213.479 259.604 C 214.645 262.394,215.440 263.076,217.229 262.822 C 219.258 262.534,219.482 261.988,219.334 257.704 C 219.105 251.068,216.303 248.097,213.200 251.200 M280.200 254.200 C 278.648 255.752,278.648 262.248,280.200 263.800 C 280.860 264.460,282.345 265.000,283.500 265.000 C 284.655 265.000,286.140 264.460,286.800 263.800 C 288.274 262.326,288.363 257.546,286.965 254.934 C 285.808 252.772,282.037 252.363,280.200 254.200 M303.730 260.760 C 302.228 262.327,301.000 264.356,301.000 265.270 C 301.000 267.247,304.271 269.217,306.275 268.448 C 308.477 267.603,312.166 262.103,311.806 260.203 C 311.251 257.277,306.771 257.586,303.730 260.760 M291.216 269.009 C 286.943 271.615,286.228 273.673,288.727 276.172 L 290.733 278.177 294.915 276.043 C 300.149 273.373,301.063 271.279,298.056 268.844 C 295.239 266.563,295.228 266.563,291.216 269.009 M220.250 268.641 C 217.163 269.938,219.501 274.191,224.814 276.941 C 229.141 279.181,231.964 274.080,228.250 270.733 C 226.264 268.943,222.114 267.858,220.250 268.641 M278.440 274.457 C 273.047 276.724,271.420 280.976,275.066 283.272 C 277.096 284.550,285.000 279.741,285.000 277.228 C 285.000 274.346,281.859 273.019,278.440 274.457 M236.139 276.332 C 234.074 278.820,236.302 281.694,240.725 282.248 C 246.842 283.014,250.160 280.038,246.539 277.033 C 244.098 275.006,237.602 274.569,236.139 276.332 M254.712 278.622 C 253.494 279.839,253.930 283.697,255.426 284.939 C 256.210 285.590,258.798 285.982,261.176 285.811 C 265.392 285.508,265.500 285.412,265.500 282.000 C 265.500 278.502,265.497 278.500,260.462 278.205 C 257.690 278.043,255.103 278.230,254.712 278.622 " style="stroke: none; fill: black;">
                    </path></svg>