<svg id="svg-path" width="100%" height="100%" viewBox="0 0 512 512" version="1.1" xmlns="http://www.w3.org/2000/svg" style="fill-rule:evenodd;clip-rule:evenodd;stroke-linejoin:round;stroke-miterlimit:2;">
                        <path d="M271.000 74.967 C 264.978 78.114,261.727 79.102,254.500 79.982 C 249.550 80.585,242.575 81.719,239.000 82.502 C 235.425 83.284,230.700 84.153,228.500 84.433 C 226.300 84.713,220.000 85.604,214.500 86.412 C 196.875 89.003,183.947 90.189,164.880 90.964 C 154.640 91.380,145.742 92.041,145.108 92.433 C 143.591 93.371,115.896 95.863,94.500 96.988 C 74.214 98.055,67.030 99.568,60.421 104.168 C 53.876 108.723,51.452 113.594,51.657 121.779 C 51.829 128.629,53.615 137.343,55.494 140.500 C 56.148 141.600,57.295 144.525,58.042 147.000 C 60.139 153.947,63.427 157.649,69.206 159.568 C 74.721 161.400,79.777 161.228,99.000 158.552 C 104.775 157.748,114.225 156.614,120.000 156.031 C 153.759 152.624,166.936 150.985,173.144 149.422 C 176.249 148.640,183.452 148.000,189.151 148.000 C 194.850 148.000,201.085 147.531,203.007 146.958 C 213.864 143.719,247.951 140.885,250.510 143.009 C 255.310 146.992,248.654 150.032,233.000 151.006 C 216.334 152.043,211.000 155.376,211.000 164.754 C 211.000 172.082,220.091 180.903,227.721 180.978 C 230.939 181.010,239.956 185.225,243.857 188.522 C 247.527 191.622,247.503 191.333,245.413 207.757 C 244.673 213.574,245.900 219.380,249.646 227.780 C 252.402 233.960,252.609 239.096,250.409 246.665 C 248.597 252.899,249.087 256.096,252.556 260.655 C 256.855 266.305,257.536 271.285,255.691 283.587 C 254.307 292.822,254.206 297.421,255.040 313.500 C 256.022 332.455,255.679 339.744,252.712 363.000 C 251.466 372.766,251.282 433.572,252.474 441.625 C 253.781 450.453,270.640 466.000,278.905 466.000 C 282.518 466.000,289.395 461.999,291.028 458.948 C 292.396 456.392,291.145 454.258,284.051 447.052 C 278.202 441.110,273.051 430.741,272.279 423.354 C 271.899 419.712,272.355 416.191,273.841 411.298 C 274.995 407.497,276.422 401.038,277.011 396.944 C 278.046 389.749,281.026 377.031,285.082 362.500 C 287.080 355.342,287.904 351.697,292.395 330.162 C 297.112 307.540,299.784 301.000,304.306 301.000 C 309.700 301.000,324.655 308.569,332.000 315.016 C 333.925 316.706,339.278 320.388,343.896 323.199 C 348.513 326.010,356.513 331.053,361.673 334.405 C 366.834 337.757,374.660 342.750,379.066 345.500 C 383.472 348.250,388.972 351.958,391.288 353.740 C 393.605 355.522,395.903 356.985,396.395 356.990 C 396.887 356.996,400.329 358.875,404.043 361.167 C 409.239 364.374,411.748 366.783,414.931 371.624 C 420.718 380.427,422.000 383.998,422.000 391.320 C 422.000 402.787,428.061 407.957,435.515 402.849 C 442.239 398.242,444.444 389.294,441.936 376.799 C 440.162 367.960,439.146 366.389,428.634 356.240 C 423.060 350.859,413.325 341.031,407.000 334.400 C 400.609 327.700,392.168 320.050,388.000 317.181 C 383.875 314.341,378.440 309.427,375.922 306.259 C 373.404 303.092,369.354 299.022,366.922 297.216 C 358.318 290.826,348.257 280.177,344.987 274.000 C 344.259 272.625,341.190 268.907,338.168 265.738 C 332.686 259.990,332.671 259.958,331.828 251.738 C 330.342 237.247,329.989 234.606,328.819 229.234 C 327.795 224.530,327.925 223.215,330.030 216.912 C 332.223 210.343,332.306 209.308,331.233 201.941 C 330.143 194.468,330.216 193.664,332.540 187.491 C 334.279 182.870,335.000 178.944,335.000 174.096 C 335.000 169.110,335.716 165.363,337.621 160.369 C 343.845 144.057,345.868 124.582,342.105 117.205 C 340.900 114.844,336.680 110.759,330.524 105.995 C 325.197 101.873,317.706 95.912,313.878 92.750 C 307.597 87.561,306.458 86.999,302.209 86.985 C 296.289 86.965,295.535 86.463,293.075 80.903 C 291.074 76.378,289.469 74.600,285.264 72.250 C 281.715 70.266,279.010 70.781,271.000 74.967 M271.289 94.770 C 269.183 99.441,268.588 102.659,268.071 112.180 C 267.575 121.308,267.051 124.286,265.673 125.809 C 263.374 128.349,255.054 129.939,238.080 131.082 C 230.611 131.584,222.250 132.429,219.500 132.959 C 216.750 133.488,207.525 134.850,199.000 135.985 C 190.475 137.119,182.961 138.239,182.303 138.472 C 181.645 138.706,176.920 138.961,171.803 139.040 C 166.686 139.119,158.225 139.784,153.000 140.517 C 147.775 141.250,137.200 142.599,129.500 143.514 C 121.800 144.429,113.055 145.588,110.066 146.089 C 107.078 146.590,101.761 147.000,98.251 147.000 C 94.740 147.000,90.996 147.467,89.929 148.038 C 88.862 148.609,85.179 149.331,81.744 149.641 C 75.830 150.176,75.360 150.056,72.844 147.353 C 68.389 142.566,66.024 137.243,64.852 129.362 C 63.019 117.039,66.112 110.619,74.396 109.548 C 76.653 109.256,89.750 108.593,103.500 108.074 C 117.250 107.555,130.075 106.631,132.000 106.022 C 133.925 105.412,140.675 104.501,147.000 103.998 C 153.325 103.494,160.750 102.640,163.500 102.101 C 166.250 101.561,173.003 101.092,178.507 101.060 C 184.010 101.027,190.085 100.521,192.007 99.936 C 193.928 99.351,202.025 98.499,210.000 98.043 C 217.975 97.588,227.425 96.482,231.000 95.588 C 234.575 94.693,241.100 93.557,245.500 93.063 C 252.793 92.245,259.522 91.114,269.000 89.116 C 270.925 88.710,272.809 88.526,273.186 88.708 C 273.564 88.890,272.710 91.618,271.289 94.770 " style="stroke: none; fill: black;">
                    </path></svg>