<svg id="svg-path" width="100%" height="100%" viewBox="0 0 512 512" version="1.1" xmlns="http://www.w3.org/2000/svg" style="fill-rule:evenodd;clip-rule:evenodd;stroke-linejoin:round;stroke-miterlimit:2;">
                        <path d="M270.604 109.038 C 266.664 110.218,262.132 114.714,260.290 119.272 C 259.288 121.751,256.354 125.007,251.729 128.772 C 242.319 136.432,236.762 145.136,236.185 153.122 C 235.829 158.035,236.239 159.914,238.910 165.621 C 240.638 169.315,242.761 175.524,243.626 179.419 C 245.525 187.964,246.849 190.210,252.001 193.619 C 256.379 196.517,257.724 200.326,256.560 206.531 C 255.681 211.217,249.784 215.510,242.177 217.002 C 239.055 217.615,234.475 218.951,232.000 219.972 C 225.437 222.678,213.089 225.001,205.292 224.995 C 201.446 224.992,196.467 225.719,193.813 226.670 L 189.127 228.350 184.813 225.498 C 182.441 223.929,174.537 216.723,167.250 209.484 C 150.674 193.017,150.688 193.098,162.593 183.574 C 170.266 177.436,176.000 170.135,176.000 166.502 C 176.000 160.666,152.181 139.043,145.715 139.009 C 142.811 138.994,139.401 141.780,134.929 147.822 C 132.618 150.945,130.205 153.950,129.568 154.500 C 126.573 157.083,125.000 160.749,125.000 165.146 C 125.000 169.085,124.490 170.356,121.850 172.996 C 118.982 175.865,118.288 176.095,114.100 175.576 C 108.566 174.889,107.194 175.633,100.226 183.097 C 94.653 189.064,94.053 191.194,96.025 198.000 C 97.212 202.098,99.811 205.201,106.008 209.920 C 108.479 211.801,112.574 215.321,115.109 217.744 C 118.978 221.440,120.257 222.096,123.070 221.824 C 129.815 221.172,134.112 210.886,131.666 201.250 C 131.023 198.718,131.156 198.000,132.266 198.000 C 135.201 198.000,146.404 206.327,156.810 216.244 C 162.729 221.885,170.465 228.750,174.000 231.500 C 177.536 234.250,181.080 237.850,181.877 239.500 C 182.673 241.150,183.876 243.625,184.550 245.000 C 186.176 248.321,191.542 250.997,196.579 250.998 C 199.539 251.000,201.962 250.109,205.416 247.750 C 215.467 240.887,214.182 241.200,230.308 241.692 C 242.173 242.054,246.609 241.791,252.629 240.372 C 258.016 239.102,260.618 238.893,261.822 239.634 C 263.916 240.924,266.159 245.357,269.597 255.000 C 271.067 259.125,273.985 266.010,276.081 270.300 C 280.038 278.399,281.661 285.232,280.615 289.399 C 280.277 290.746,277.119 294.120,273.503 296.997 C 266.178 302.826,265.263 305.753,269.089 311.124 C 270.237 312.738,271.607 315.613,272.132 317.515 C 272.657 319.416,274.220 321.766,275.606 322.736 C 284.066 328.660,284.210 328.880,283.611 334.909 C 282.262 348.461,281.871 363.652,282.809 366.059 C 283.453 367.714,286.045 369.805,290.153 371.982 C 301.479 377.987,316.892 389.148,320.500 393.957 C 322.441 396.544,327.502 401.208,339.496 411.464 C 348.365 419.047,349.500 422.309,349.500 440.213 C 349.500 452.747,349.758 455.228,351.240 456.963 C 353.920 460.100,356.631 459.426,362.155 454.250 C 364.943 451.637,369.086 448.600,371.362 447.500 C 377.720 444.427,378.299 442.348,379.298 419.023 L 380.174 398.547 377.591 396.324 C 376.148 395.083,372.340 393.577,368.967 392.914 C 364.168 391.970,361.108 390.424,354.067 385.387 C 344.143 378.288,340.279 373.950,336.728 365.920 C 334.585 361.075,329.220 355.000,327.084 355.000 C 325.328 355.000,324.045 350.011,325.092 347.254 C 328.078 339.385,331.313 336.045,340.000 331.859 C 344.675 329.606,351.355 326.936,354.845 325.925 C 358.335 324.914,361.765 323.610,362.466 323.028 C 364.476 321.360,364.383 288.183,362.355 283.241 C 359.902 277.261,355.313 270.599,349.965 265.251 C 347.234 262.520,345.000 259.376,345.000 258.263 C 345.000 257.079,346.866 254.712,349.500 252.554 C 351.975 250.525,354.000 248.045,354.000 247.041 C 354.000 245.010,350.268 239.938,341.946 230.663 C 337.938 226.195,336.031 223.084,335.093 219.486 C 332.036 207.751,330.432 204.106,325.299 197.240 C 319.091 188.934,315.030 182.152,315.012 180.062 C 315.005 179.271,312.975 176.047,310.500 172.897 C 305.479 166.506,305.077 164.193,308.027 158.688 C 315.953 143.900,319.000 137.304,319.000 134.936 C 319.000 130.184,310.744 124.296,301.709 122.604 C 295.423 121.427,289.699 118.498,284.976 114.042 C 278.705 108.127,276.369 107.313,270.604 109.038 M210.200 254.200 C 208.205 256.195,208.894 260.317,211.777 263.629 C 214.672 266.955,229.744 280.328,236.708 285.750 C 241.658 289.604,246.345 290.093,248.036 286.933 C 249.306 284.559,247.421 280.831,244.032 279.017 C 242.950 278.438,240.450 275.835,238.478 273.232 C 236.505 270.629,230.766 265.012,225.724 260.750 C 216.504 252.955,212.946 251.454,210.200 254.200 " style="stroke: none; fill: black;">
                    </path></svg>