<svg id="svg-path" width="100%" height="100%" viewBox="0 0 512 512" version="1.1" xmlns="http://www.w3.org/2000/svg" style="fill-rule:evenodd;clip-rule:evenodd;stroke-linejoin:round;stroke-miterlimit:2;">
                        <path d="M204.222 87.470 C 194.208 90.597,189.060 97.809,189.022 108.766 C 189.001 114.831,192.858 136.865,194.864 142.143 C 195.407 143.570,197.009 145.649,198.425 146.763 C 201.341 149.056,201.783 151.762,199.392 152.680 C 198.507 153.019,195.430 152.555,192.554 151.649 C 184.612 149.145,182.773 149.480,176.891 154.500 C 173.992 156.975,171.087 159.000,170.435 159.000 C 169.784 159.000,167.297 158.310,164.908 157.468 C 160.899 156.053,159.909 156.087,152.033 157.908 C 143.659 159.843,136.981 160.843,118.000 163.000 C 111.498 163.740,107.007 164.856,103.768 166.540 C 101.166 167.893,98.608 169.000,98.085 169.000 C 97.561 169.000,94.329 166.750,90.902 164.000 C 87.476 161.250,83.733 159.007,82.586 159.016 C 79.279 159.043,72.768 163.220,70.280 166.913 C 67.050 171.705,67.361 174.662,71.507 178.572 C 75.594 182.426,81.368 183.687,89.346 182.469 C 97.147 181.278,101.802 181.460,109.578 183.261 C 114.646 184.435,124.351 185.100,143.768 185.604 C 158.679 185.991,171.271 186.576,171.750 186.904 C 172.229 187.232,173.384 197.175,174.318 209.000 C 176.194 232.749,176.037 234.295,170.780 243.972 C 159.695 264.378,157.034 271.237,157.002 279.500 C 156.985 284.069,156.375 285.362,149.929 294.500 C 141.170 306.916,136.803 311.506,130.849 314.553 C 125.235 317.426,122.276 320.963,121.396 325.851 C 121.035 327.858,119.193 332.033,117.303 335.128 C 112.934 342.283,110.000 351.678,110.000 358.512 C 110.000 362.759,109.485 364.459,107.472 366.851 C 104.537 370.339,95.713 373.560,86.500 374.508 C 76.971 375.487,75.137 376.014,71.976 378.674 C 68.303 381.764,68.201 384.227,71.635 386.927 C 73.996 388.785,75.631 389.000,87.385 389.001 C 98.196 389.001,101.450 389.362,105.908 391.056 C 113.750 394.037,116.044 392.832,120.615 383.327 L 124.179 375.918 133.658 371.399 C 142.845 367.019,143.685 366.322,160.819 348.854 C 170.544 338.940,180.750 329.203,183.500 327.215 C 186.250 325.228,191.612 320.879,195.416 317.551 L 202.332 311.500 211.926 311.500 C 221.428 311.500,221.597 311.543,229.510 315.968 C 236.309 319.770,240.814 323.759,259.721 342.715 C 280.314 363.360,282.435 365.195,288.661 367.746 C 296.273 370.866,301.595 375.332,302.432 379.304 C 302.744 380.787,303.228 383.104,303.507 384.453 C 303.786 385.801,305.052 388.112,306.321 389.587 C 308.826 392.498,310.381 392.707,320.503 391.489 C 325.060 390.941,327.439 391.156,330.375 392.383 C 335.759 394.633,350.534 394.657,351.393 392.418 C 353.333 387.363,349.474 383.152,340.000 379.986 C 332.379 377.439,321.640 371.738,317.789 368.195 C 315.251 365.859,315.083 365.182,315.166 357.600 C 315.288 346.353,311.124 336.975,302.468 329.000 C 300.976 327.625,298.056 324.219,295.980 321.432 C 293.904 318.644,290.717 315.044,288.899 313.432 C 278.900 304.566,276.186 301.358,275.000 297.000 C 272.246 286.882,258.872 252.429,256.282 248.783 C 252.579 243.568,247.011 232.876,247.021 231.000 C 247.025 230.175,247.729 227.489,248.585 225.032 C 250.343 219.981,249.864 215.614,246.917 209.836 C 244.528 205.154,244.463 200.796,246.752 198.725 C 250.058 195.733,252.053 195.249,280.500 190.537 C 307.931 185.994,325.001 180.942,335.269 174.327 C 340.039 171.253,341.052 171.000,348.568 171.000 C 358.004 171.000,362.115 169.004,365.469 162.792 C 368.511 157.158,366.945 153.978,360.035 151.756 C 357.053 150.797,354.160 149.560,353.606 149.006 C 351.125 146.525,344.042 148.953,338.264 154.266 C 336.579 155.815,333.989 156.509,327.764 157.079 C 323.219 157.495,313.650 158.657,306.500 159.660 C 297.610 160.909,287.437 161.488,274.322 161.493 C 255.958 161.500,255.025 161.405,252.322 159.259 C 250.770 158.027,248.150 156.409,246.500 155.664 C 241.651 153.475,240.544 151.526,241.704 147.218 C 242.814 143.099,243.517 131.249,243.468 117.500 C 243.438 109.260,243.168 108.033,240.275 102.978 C 238.536 99.941,236.071 96.476,234.797 95.279 C 231.572 92.250,222.406 88.361,215.464 87.078 C 208.652 85.819,209.617 85.785,204.222 87.470 M343.200 115.200 C 341.075 117.325,340.811 116.851,353.370 133.500 C 355.029 135.700,359.751 141.235,363.862 145.800 C 370.027 152.646,371.789 154.048,373.918 153.800 C 376.019 153.556,376.558 152.899,376.812 150.273 C 377.066 147.641,376.323 146.166,372.784 142.273 C 370.398 139.648,365.911 134.575,362.812 131.000 C 348.324 114.283,345.994 112.406,343.200 115.200 M396.400 139.428 C 394.694 140.170,393.007 141.539,392.650 142.471 C 392.292 143.402,392.000 152.253,392.000 162.140 C 392.000 172.027,391.522 183.200,390.937 186.968 C 389.648 195.276,390.863 201.090,394.242 202.788 C 395.624 203.482,403.997 204.034,415.831 204.211 C 434.662 204.493,435.208 204.444,436.936 202.318 C 438.508 200.384,438.770 196.979,439.239 172.318 C 439.564 155.286,439.395 143.789,438.804 142.665 C 436.860 138.970,431.919 137.998,415.282 138.039 C 404.310 138.066,398.555 138.490,396.400 139.428 M427.715 151.283 C 429.239 152.805,429.548 155.286,429.825 168.226 C 430.365 193.401,430.010 194.000,414.557 194.000 C 400.620 194.000,401.000 194.567,401.000 173.745 C 401.000 156.510,402.042 151.758,406.206 150.000 C 407.468 149.467,412.422 149.137,417.215 149.265 C 424.026 149.449,426.321 149.890,427.715 151.283 " style="stroke: none; fill: black;">
                    </path></svg>