<svg id="svg-path" width="100%" height="100%" viewBox="0 0 512 512" version="1.1" xmlns="http://www.w3.org/2000/svg" style="fill-rule:evenodd;clip-rule:evenodd;stroke-linejoin:round;stroke-miterlimit:2;">
                        <path d="M192.861 48.875 C 175.314 52.608,161.048 70.535,161.011 88.897 C 161.001 93.593,160.538 94.858,157.442 98.636 C 154.694 101.990,152.680 103.328,148.590 104.517 C 142.862 106.182,139.785 108.789,137.990 113.500 C 136.566 117.233,137.445 135.528,139.700 149.096 C 140.577 154.374,140.990 159.904,140.618 161.386 C 140.246 162.868,137.511 166.725,134.540 169.957 C 125.415 179.882,124.429 183.406,128.090 193.014 C 134.034 208.617,135.932 214.629,136.548 219.809 C 137.288 226.024,138.577 231.278,142.358 243.500 C 143.719 247.900,145.590 254.875,146.515 259.000 C 150.173 275.312,157.046 288.910,166.827 299.186 C 170.857 303.420,175.776 307.726,177.757 308.754 C 183.620 311.796,185.033 315.978,179.751 314.652 C 175.660 313.625,164.835 305.699,161.610 301.368 C 159.899 299.072,156.324 295.756,153.665 294.001 C 147.657 290.036,143.716 290.454,137.940 295.673 C 133.296 299.869,133.112 301.412,136.638 306.610 C 140.006 311.576,141.813 312.826,150.989 316.538 C 162.359 321.136,170.476 327.193,188.623 344.617 C 203.846 359.234,215.434 368.174,223.000 371.137 C 224.375 371.676,227.750 373.164,230.500 374.445 C 237.353 377.636,241.209 378.312,245.613 377.096 C 248.360 376.338,250.035 376.387,251.898 377.281 C 255.099 378.817,258.962 385.530,258.984 389.593 C 259.001 392.875,261.770 401.734,264.296 406.587 C 265.130 408.189,268.142 411.847,270.989 414.717 C 288.248 432.108,318.131 429.906,332.276 410.201 C 336.991 403.633,339.094 397.443,340.876 384.887 C 341.510 380.422,342.907 376.614,345.519 372.231 C 350.112 364.527,353.937 361.194,359.138 360.362 C 363.815 359.614,369.000 354.978,369.000 351.545 C 369.000 350.280,368.273 347.505,367.386 345.380 C 366.175 342.484,365.706 337.507,365.510 325.508 C 365.052 297.484,362.951 285.770,355.862 271.726 C 351.203 262.497,351.129 257.509,355.130 222.500 C 357.627 200.645,357.750 185.399,355.481 178.902 C 352.512 170.403,341.015 152.767,335.792 148.700 C 333.107 146.610,329.401 142.539,327.556 139.654 C 324.592 135.021,313.770 124.369,297.179 109.754 C 289.909 103.350,276.799 94.268,271.702 92.104 C 269.391 91.123,263.450 89.312,258.500 88.078 C 246.408 85.065,243.101 82.788,240.080 75.398 C 235.214 63.498,228.840 56.616,218.224 51.802 C 211.393 48.705,199.896 47.378,192.861 48.875 M177.885 121.416 C 185.758 127.195,190.201 128.500,202.000 128.500 C 211.562 128.500,213.036 128.239,218.500 125.583 C 221.800 123.979,224.725 122.359,225.000 121.983 C 225.275 121.607,226.468 120.790,227.650 120.168 C 230.178 118.838,231.000 120.138,231.000 125.472 C 231.000 127.817,232.301 130.547,235.469 134.851 C 241.094 142.492,252.509 159.915,262.101 175.500 C 266.163 182.100,271.122 189.300,273.121 191.500 C 275.120 193.700,279.014 200.000,281.774 205.500 C 285.966 213.853,288.021 216.653,294.250 222.500 C 298.352 226.350,302.686 230.175,303.881 231.000 C 306.100 232.532,307.044 234.883,313.514 255.000 C 315.549 261.325,318.896 270.100,320.953 274.500 C 325.669 284.585,326.455 287.193,328.493 299.500 C 329.403 305.000,330.609 311.075,331.173 313.000 C 331.737 314.925,332.432 323.069,332.718 331.097 L 333.239 345.694 330.250 347.822 C 325.208 351.412,322.781 351.950,318.957 350.322 C 310.693 346.805,307.047 346.028,298.750 346.015 C 289.393 345.999,288.185 345.215,292.405 341.896 C 295.585 339.395,298.000 332.029,298.000 324.832 C 298.000 314.482,290.783 300.485,276.024 282.211 C 273.231 278.752,267.630 271.532,263.578 266.167 C 259.526 260.803,254.243 254.801,251.838 252.831 C 247.395 249.190,241.000 238.315,241.000 234.400 C 241.000 229.906,237.763 220.497,234.794 216.363 C 231.087 211.200,228.320 210.195,223.893 212.403 C 217.523 215.581,215.000 213.977,215.000 206.750 C 215.000 204.083,214.275 200.498,213.388 198.783 C 209.757 191.762,198.899 175.667,188.910 162.500 C 177.474 147.425,174.442 142.296,172.359 134.500 C 170.708 128.318,170.556 118.000,172.116 118.000 C 172.730 118.000,175.326 119.537,177.885 121.416 M159.391 147.250 C 161.684 150.842,163.320 157.590,162.596 160.474 C 161.692 164.074,158.024 163.558,156.116 159.564 C 152.099 151.159,154.977 140.338,159.391 147.250 " style="stroke: none; fill: black;">
                    </path></svg>