<svg id="svg-path" width="100%" height="100%" viewBox="0 0 512 512" version="1.1" xmlns="http://www.w3.org/2000/svg" style="fill-rule:evenodd;clip-rule:evenodd;stroke-linejoin:round;stroke-miterlimit:2;">
                        <path d="M249.663 179.684 C 246.986 184.861,245.658 185.417,240.587 183.480 C 236.220 181.812,236.021 181.824,232.597 183.940 C 230.665 185.134,225.853 189.772,221.903 194.248 C 217.953 198.723,211.521 205.035,207.610 208.274 C 203.700 211.513,199.621 215.814,198.546 217.832 C 196.238 222.164,194.473 223.683,190.768 224.528 C 188.600 225.022,187.803 226.012,186.905 229.325 C 184.920 236.649,184.242 244.293,185.253 247.955 C 185.932 250.412,185.845 253.523,184.968 258.170 C 183.527 265.808,184.205 274.266,186.675 279.445 C 188.092 282.417,188.156 283.537,187.105 287.044 C 185.618 292.008,185.895 292.521,195.461 302.500 C 199.152 306.350,202.979 311.300,203.965 313.500 C 206.472 319.090,208.775 320.918,223.000 328.609 C 248.228 342.249,247.904 342.128,253.448 340.020 C 255.426 339.268,257.246 339.524,261.263 341.120 C 268.003 343.797,279.938 343.414,285.125 340.354 C 286.981 339.259,290.750 337.816,293.500 337.148 C 300.928 335.343,309.202 331.952,311.750 329.668 C 313.490 328.109,314.000 326.565,314.000 322.859 C 314.000 318.715,314.474 317.593,317.500 314.567 L 321.000 311.067 321.000 300.331 C 321.000 289.636,321.012 289.583,324.160 286.335 L 327.319 283.076 326.162 269.288 C 324.935 254.670,321.976 237.138,319.615 230.500 C 318.833 228.300,317.950 224.795,317.653 222.712 C 316.889 217.346,312.401 208.966,307.270 203.324 C 304.858 200.671,302.205 197.083,301.376 195.351 C 299.732 191.918,292.371 185.273,287.321 182.664 C 285.384 181.664,283.016 181.247,281.262 181.598 C 279.549 181.940,275.773 181.316,271.941 180.056 C 268.399 178.891,262.281 177.665,258.347 177.330 L 251.195 176.723 249.663 179.684 M270.500 189.846 C 285.349 190.876,288.750 193.458,294.136 207.789 C 295.436 211.248,298.441 216.648,300.814 219.789 C 306.959 227.925,307.504 229.198,310.317 242.000 C 314.295 260.106,314.412 262.520,312.062 277.743 C 310.894 285.310,309.279 295.929,308.472 301.343 C 307.666 306.756,306.282 312.711,305.398 314.575 C 303.532 318.505,295.989 324.230,288.049 327.742 C 282.961 329.992,281.529 330.161,270.504 329.812 C 255.960 329.352,256.014 329.374,228.640 312.997 C 221.297 308.604,215.468 304.157,210.640 299.264 C 201.575 290.076,199.071 285.393,199.008 277.500 C 198.982 274.200,198.502 268.350,197.941 264.500 C 196.848 256.993,197.991 244.136,200.626 234.318 C 201.939 229.424,202.643 228.637,213.258 220.201 C 219.441 215.287,229.675 206.009,236.000 199.583 L 247.500 187.899 254.000 188.526 C 257.575 188.870,265.000 189.464,270.500 189.846 M260.886 226.755 C 250.667 233.577,246.590 237.769,247.604 240.411 C 248.635 243.096,251.614 242.205,258.166 237.250 C 264.545 232.427,267.248 228.810,266.307 226.357 C 265.609 224.539,264.032 224.655,260.886 226.755 M286.088 230.580 C 282.167 233.879,274.000 244.588,274.000 246.429 C 274.000 248.873,275.167 251.000,276.507 251.000 C 278.251 251.000,287.405 240.872,290.621 235.385 C 292.723 231.798,292.980 230.681,291.984 229.481 C 290.312 227.467,289.638 227.592,286.088 230.580 M216.688 259.792 C 214.726 261.961,214.585 265.836,216.075 276.678 C 217.323 285.756,217.978 286.787,221.479 285.191 L 224.012 284.037 223.346 273.769 C 222.979 268.121,222.382 262.375,222.018 261.000 C 221.190 257.873,218.896 257.352,216.688 259.792 M264.711 267.469 C 253.879 271.222,249.522 275.000,256.027 275.000 C 259.462 275.000,273.716 270.412,276.417 268.437 C 277.398 267.720,277.904 266.653,277.541 266.067 C 276.521 264.416,272.143 264.895,264.711 267.469 M274.783 282.742 C 272.244 283.322,271.694 288.534,273.348 296.349 C 275.063 304.455,276.471 306.399,278.567 303.559 C 279.555 302.221,280.000 298.890,280.000 292.844 C 280.000 285.483,279.718 283.932,278.250 283.210 C 277.288 282.737,275.727 282.526,274.783 282.742 M233.585 285.639 C 232.691 287.969,236.457 295.207,241.408 300.676 C 247.811 307.748,250.074 304.983,245.645 295.500 C 241.269 286.130,235.277 281.230,233.585 285.639 " style="stroke: none; fill: black;">
                    </path></svg>