<svg id="svg-path" width="100%" height="100%" viewBox="0 0 512 512" version="1.1" xmlns="http://www.w3.org/2000/svg" style="fill-rule:evenodd;clip-rule:evenodd;stroke-linejoin:round;stroke-miterlimit:2;">
                        <path d="M211.849 121.826 C 199.177 128.515,199.000 128.846,199.000 145.904 C 199.000 162.693,198.775 163.000,186.480 163.000 C 176.956 163.000,169.824 165.273,161.605 170.928 C 156.263 174.603,143.520 187.565,138.921 194.000 C 134.336 200.417,118.974 215.351,108.888 223.195 C 100.434 229.770,95.964 232.284,87.000 235.508 C 81.447 237.505,78.891 240.802,78.819 246.062 C 78.750 251.065,80.738 253.387,86.464 254.990 C 92.657 256.724,96.880 255.107,101.587 249.198 C 107.231 242.115,107.626 241.911,114.451 242.567 C 120.164 243.117,120.806 242.949,126.000 239.551 C 131.158 236.176,134.737 235.343,134.315 237.615 C 134.213 238.163,133.581 242.534,132.910 247.327 C 131.732 255.751,131.764 256.120,133.868 258.359 C 136.027 260.657,136.034 260.808,134.849 277.113 C 133.690 293.070,133.722 293.797,135.949 302.025 C 137.211 306.686,138.658 312.633,139.165 315.240 C 139.672 317.848,142.260 325.120,144.917 331.402 C 147.573 337.684,150.052 344.860,150.425 347.348 C 150.798 349.837,152.297 353.589,153.756 355.687 C 155.996 358.907,156.374 360.426,156.187 365.456 C 156.020 369.979,156.539 372.625,158.346 376.456 C 159.655 379.230,161.477 384.200,162.395 387.500 C 163.314 390.800,164.467 394.850,164.957 396.500 C 167.050 403.535,169.834 414.987,171.005 421.373 L 172.266 428.245 169.133 431.173 C 167.410 432.784,165.996 434.866,165.991 435.801 C 165.975 438.567,160.432 447.414,156.612 450.767 C 154.663 452.479,152.789 454.992,152.448 456.353 C 151.172 461.434,158.547 464.860,164.316 461.867 C 167.472 460.229,179.523 451.376,186.500 445.570 C 196.294 437.420,200.812 432.868,202.032 429.922 C 203.764 425.740,205.706 425.615,211.373 429.321 C 230.017 441.512,236.292 445.097,242.441 447.070 C 248.648 449.061,249.651 449.145,251.941 447.865 C 255.999 445.595,255.766 442.369,251.203 437.625 C 246.245 432.473,245.418 430.862,241.384 418.500 L 238.121 408.500 240.616 406.250 C 241.989 405.012,243.896 404.000,244.856 404.000 C 250.567 404.000,250.385 398.821,243.874 376.000 C 242.443 370.984,240.684 349.959,240.873 340.114 C 241.019 332.473,240.778 331.316,238.165 327.114 C 234.718 321.569,233.840 319.285,230.488 307.132 C 229.066 301.979,226.625 293.879,225.063 289.132 C 223.501 284.384,221.451 277.575,220.508 274.000 C 219.564 270.425,217.489 264.404,215.896 260.621 C 212.442 252.417,212.303 248.606,215.123 239.418 C 218.856 227.256,220.169 227.309,226.942 239.892 C 229.283 244.241,232.616 249.170,234.349 250.845 C 238.639 254.991,247.373 256.373,264.000 255.536 C 282.721 254.594,284.715 254.197,287.921 250.766 C 290.593 247.907,291.056 247.784,298.696 247.896 C 307.662 248.027,308.834 247.343,310.952 240.747 C 312.520 235.863,311.507 231.547,308.173 228.910 C 304.689 226.154,298.249 226.801,290.828 230.653 C 285.677 233.327,285.022 233.413,271.093 233.267 C 260.718 233.157,256.328 232.749,255.405 231.807 C 253.901 230.272,249.000 216.032,249.000 213.196 C 249.000 210.710,246.360 204.340,244.975 203.484 C 244.394 203.125,242.865 201.182,241.578 199.166 C 240.290 197.150,238.283 194.419,237.118 193.097 C 233.482 188.971,234.350 186.119,242.250 176.249 C 246.238 171.267,250.682 166.480,252.127 165.612 C 253.572 164.743,256.159 162.719,257.877 161.115 C 262.230 157.049,262.236 150.560,257.895 141.276 C 253.790 132.496,251.448 129.476,246.021 125.966 C 243.535 124.357,240.600 122.409,239.500 121.637 C 238.284 120.783,233.522 119.992,227.349 119.618 C 217.565 119.025,217.004 119.105,211.849 121.826 M343.000 134.146 C 334.729 136.736,329.877 139.094,328.895 141.000 C 321.135 156.060,320.653 160.491,325.395 173.153 C 328.102 180.379,329.000 184.310,329.000 188.931 C 329.000 194.870,329.162 195.259,333.620 200.025 C 337.543 204.219,338.140 205.381,337.577 207.732 C 335.215 217.592,333.562 228.944,334.114 231.500 C 336.092 240.643,333.825 267.096,330.746 270.806 C 329.891 271.836,329.500 276.421,329.500 285.404 C 329.500 297.288,329.718 298.894,331.856 302.760 C 334.710 307.919,334.361 309.810,329.089 317.747 C 323.145 326.696,322.044 330.219,321.069 343.418 C 320.166 355.654,318.736 361.180,313.673 372.000 C 312.258 375.025,310.362 380.419,309.461 383.987 C 307.485 391.810,303.571 397.402,293.460 406.844 C 287.294 412.602,286.000 414.347,286.000 416.899 C 286.000 419.379,286.838 420.600,290.250 423.093 C 294.168 425.955,294.969 426.158,300.500 425.687 C 303.800 425.406,308.464 424.201,310.864 423.010 C 313.264 421.818,317.461 420.490,320.192 420.059 C 322.922 419.627,326.358 418.379,327.828 417.285 C 330.560 415.251,330.852 414.609,333.465 404.891 C 334.663 400.437,336.085 398.172,340.370 393.891 C 343.745 390.519,347.453 385.248,350.269 379.819 C 355.134 370.436,356.838 365.476,360.037 351.375 C 361.532 344.790,363.283 340.337,366.328 335.379 C 370.088 329.259,371.746 327.706,381.524 321.148 C 390.331 315.243,393.565 312.376,397.887 306.644 C 403.946 298.611,405.406 295.585,408.083 285.528 C 410.328 277.092,410.506 266.489,408.527 259.053 C 407.730 256.058,406.568 250.208,405.947 246.053 C 405.325 241.899,403.674 234.675,402.278 230.000 C 400.870 225.284,399.429 217.271,399.042 212.000 C 398.584 205.759,397.635 200.956,396.275 198.000 C 395.136 195.525,393.383 191.025,392.378 188.000 C 391.374 184.975,389.579 180.903,388.391 178.951 C 387.202 177.000,385.452 172.725,384.503 169.451 C 376.268 141.070,372.097 135.058,359.173 132.941 C 351.599 131.700,350.560 131.778,343.000 134.146 M257.338 177.385 C 249.968 180.100,246.000 182.556,246.000 184.401 C 246.000 190.368,256.458 202.271,269.238 210.851 C 279.908 218.013,281.219 218.147,289.931 212.972 C 298.431 207.922,300.681 205.313,301.553 199.492 C 302.433 193.628,301.040 189.952,296.923 187.270 C 295.040 186.044,292.150 183.740,290.500 182.151 C 287.151 178.925,285.516 178.160,279.000 176.774 C 269.868 174.832,263.800 175.003,257.338 177.385 M284.415 188.108 C 288.040 189.916,289.978 191.751,291.901 195.195 L 294.496 199.843 291.998 202.550 C 290.624 204.039,288.027 205.885,286.227 206.652 C 282.396 208.284,281.965 208.119,270.956 200.818 C 262.376 195.128,258.021 189.885,259.947 187.564 C 262.773 184.158,277.135 184.478,284.415 188.108 M193.370 326.250 C 194.730 328.038,196.734 331.768,197.824 334.540 C 198.914 337.313,200.903 341.588,202.245 344.040 C 205.239 349.515,206.717 355.343,207.433 364.500 C 207.735 368.350,209.105 375.550,210.478 380.500 C 212.426 387.519,212.978 391.880,212.988 400.316 C 212.994 406.264,212.534 412.002,211.965 413.066 C 210.388 416.013,207.146 415.531,206.478 412.250 C 206.170 410.738,204.810 405.900,203.455 401.500 C 202.100 397.100,200.994 392.462,200.996 391.192 C 201.005 386.269,196.599 367.987,192.876 357.500 C 188.878 346.237,186.836 331.774,188.377 325.634 C 189.246 322.172,190.374 322.311,193.370 326.250 " style="stroke: none; fill: black;">
                    </path></svg>