<svg id="svg-path" width="100%" height="100%" viewBox="0 0 512 512" version="1.1" xmlns="http://www.w3.org/2000/svg" style="fill-rule:evenodd;clip-rule:evenodd;stroke-linejoin:round;stroke-miterlimit:2;">
                        <path d="M214.000 76.665 C 211.525 78.118,206.818 80.066,203.540 80.995 C 195.360 83.311,193.784 85.615,193.494 95.676 C 193.300 102.418,193.642 104.261,195.964 109.000 C 197.447 112.025,199.266 116.075,200.007 118.000 C 202.682 124.950,206.311 128.956,213.311 132.684 C 220.813 136.680,226.000 141.006,226.000 143.266 C 226.000 145.838,222.087 149.818,217.221 152.194 C 214.625 153.462,209.775 157.199,206.445 160.500 C 203.115 163.800,196.590 169.052,191.945 172.171 C 181.781 178.996,175.266 185.119,173.389 189.612 C 170.771 195.877,172.232 208.528,177.067 221.450 C 180.325 230.158,187.134 242.325,189.913 244.404 C 191.336 245.469,195.088 249.068,198.250 252.402 C 203.694 258.141,205.113 261.381,203.133 263.550 C 200.523 266.409,199.000 274.908,199.000 286.613 C 199.000 293.354,198.572 299.995,198.050 301.369 C 197.527 302.744,193.300 307.878,188.656 312.778 C 176.591 325.509,174.142 331.074,172.036 350.542 C 171.498 355.515,170.325 361.590,169.429 364.042 C 168.275 367.198,167.756 372.295,167.650 381.500 C 167.510 393.648,167.664 394.795,170.000 399.000 C 172.091 402.763,172.513 404.891,172.579 412.000 C 172.681 423.094,174.380 430.648,179.042 440.739 C 180.119 443.071,181.000 445.454,181.000 446.035 C 181.000 446.616,182.105 448.195,183.455 449.545 C 185.508 451.599,186.877 452.000,191.832 452.000 C 196.105 452.000,198.135 451.542,199.118 450.358 C 201.181 447.872,200.601 434.816,198.085 427.120 C 194.597 416.447,194.793 415.839,204.844 406.084 C 210.064 401.018,214.215 396.066,214.973 394.000 C 215.680 392.075,218.272 386.000,220.734 380.500 C 223.195 375.000,225.888 368.925,226.718 367.000 C 232.270 354.116,238.654 343.159,247.402 331.500 C 258.567 316.617,261.096 314.844,268.215 316.900 C 273.439 318.410,291.664 330.365,292.432 332.787 C 293.246 335.349,291.315 357.957,289.957 361.766 C 288.658 365.410,289.055 369.770,291.446 378.150 C 292.930 383.346,292.930 384.149,291.448 388.150 C 288.529 396.027,288.563 396.511,292.324 400.674 C 294.258 402.815,297.835 405.562,300.272 406.779 C 302.709 407.996,307.588 411.131,311.114 413.746 C 314.640 416.361,319.476 419.773,321.860 421.329 C 327.072 424.729,332.796 425.932,334.085 423.897 C 335.673 421.388,335.047 417.211,332.651 414.327 C 328.810 409.705,319.000 393.730,319.000 392.098 C 319.000 390.285,326.021 379.889,330.548 375.000 C 334.690 370.525,339.537 361.818,341.732 354.905 C 343.105 350.579,343.453 345.606,343.474 330.000 C 343.500 310.822,343.456 310.417,340.857 305.500 C 337.565 299.273,329.326 288.000,328.066 288.000 C 327.550 288.000,324.329 284.512,320.908 280.250 C 317.486 275.988,311.682 269.350,308.010 265.500 C 297.897 254.897,294.000 249.868,294.000 247.422 C 294.000 246.202,295.120 243.246,296.488 240.852 C 298.541 237.261,298.978 235.156,298.988 228.815 C 299.001 220.407,300.167 216.000,302.377 216.000 C 303.892 216.000,305.412 217.728,315.274 230.669 C 318.698 235.162,324.569 242.587,328.320 247.169 C 332.070 251.751,336.011 257.175,337.076 259.222 C 339.758 264.379,344.873 270.000,346.881 270.000 C 347.802 270.000,349.561 270.704,350.790 271.565 C 354.709 274.310,358.213 273.070,360.750 268.038 C 364.096 261.403,363.777 255.596,359.750 249.801 C 347.679 232.434,329.790 204.622,326.619 198.294 C 325.185 195.430,321.483 190.255,318.393 186.794 C 315.304 183.332,311.242 177.575,309.368 174.000 C 300.647 157.369,294.320 149.515,286.119 145.144 C 282.679 143.311,279.633 141.208,279.351 140.472 C 279.068 139.736,279.999 137.152,281.419 134.729 C 283.525 131.134,284.000 129.043,284.000 123.356 C 284.000 115.142,281.832 111.361,274.508 106.802 C 271.015 104.628,269.265 102.491,266.529 97.057 C 264.601 93.228,261.700 88.589,260.084 86.748 C 254.233 80.085,237.569 73.990,225.263 74.012 C 219.769 74.022,217.656 74.520,214.000 76.665 M212.811 201.039 C 215.121 203.190,215.417 205.461,215.028 218.000 C 214.722 227.872,211.560 232.370,207.370 228.892 C 204.746 226.715,200.240 216.708,198.965 210.228 C 197.900 204.812,197.954 203.720,199.396 201.518 C 200.779 199.408,201.821 199.000,205.834 199.000 C 209.271 199.000,211.241 199.576,212.811 201.039 " style="stroke: none; fill: black;">
                    </path></svg>