<svg id="svg-path" width="100%" height="100%" viewBox="0 0 512 512" version="1.1" xmlns="http://www.w3.org/2000/svg" style="fill-rule:evenodd;clip-rule:evenodd;stroke-linejoin:round;stroke-miterlimit:2;">
                        <path d="M239.409 185.325 C 236.899 187.483,236.662 188.374,236.103 197.745 C 235.579 206.523,235.191 208.169,233.129 210.363 C 230.142 213.542,223.578 214.998,212.201 215.006 C 196.976 215.015,193.256 217.124,192.311 226.280 C 191.524 233.906,193.471 241.424,196.799 243.604 C 199.598 245.438,209.321 245.868,227.212 244.948 C 235.257 244.534,236.099 244.674,238.212 246.778 L 240.500 249.056 240.566 289.278 C 240.602 311.400,240.972 330.246,241.388 331.158 C 243.872 336.608,253.898 335.003,255.833 328.847 C 256.468 326.826,256.972 311.241,257.105 289.500 C 257.226 269.700,257.700 251.884,258.158 249.909 C 259.450 244.343,261.417 243.268,273.521 241.509 C 293.043 238.673,293.386 238.354,292.851 223.569 C 292.527 214.620,292.310 213.738,290.000 211.964 C 287.062 209.708,282.089 209.496,270.407 211.128 C 263.810 212.050,261.794 212.004,259.508 210.880 C 255.123 208.723,253.000 203.673,253.000 195.400 C 253.000 189.701,252.584 187.741,250.927 185.635 C 248.225 182.200,243.199 182.065,239.409 185.325 " style="stroke: none; fill: black;">
                    </path></svg>