<svg id="svg-path" width="100%" height="100%" viewBox="0 0 512 512" version="1.1" xmlns="http://www.w3.org/2000/svg" style="fill-rule:evenodd;clip-rule:evenodd;stroke-linejoin:round;stroke-miterlimit:2;">
                        <path d="M438.000 80.052 C 406.158 81.146,401.569 82.557,386.000 96.035 C 373.461 106.891,371.454 108.000,364.345 108.000 C 360.239 108.000,353.126 106.719,344.245 104.379 C 331.916 101.131,328.954 100.725,315.500 100.439 C 305.330 100.223,299.399 99.656,297.080 98.679 C 294.670 97.663,292.749 97.500,290.580 98.126 C 287.360 99.054,264.370 97.574,258.000 96.028 C 252.950 94.802,245.501 94.052,228.549 93.061 C 215.518 92.299,212.324 92.434,203.676 94.111 C 198.219 95.168,193.358 96.279,192.873 96.578 C 192.389 96.878,188.957 97.510,185.246 97.984 C 181.536 98.458,176.475 99.288,174.000 99.830 C 166.640 101.441,149.172 103.013,139.000 102.981 C 128.835 102.949,124.383 102.213,113.778 98.810 C 105.595 96.185,102.000 97.099,102.000 101.804 C 102.000 105.323,104.501 107.674,112.961 112.111 C 116.515 113.975,121.915 117.795,124.961 120.600 C 133.783 128.722,137.052 129.672,143.363 125.948 C 146.762 123.943,146.974 123.936,152.671 125.635 C 161.318 128.213,184.474 128.680,192.800 126.443 C 196.464 125.459,200.857 124.967,203.300 125.267 C 209.063 125.974,232.270 134.671,234.878 137.101 C 237.678 139.710,237.560 141.566,234.101 149.275 C 231.602 154.846,230.190 156.497,223.851 161.263 C 219.112 164.826,213.480 167.913,208.000 169.950 C 191.183 176.201,186.399 177.938,180.000 180.116 C 176.425 181.332,171.273 183.698,168.551 185.372 C 163.416 188.531,160.233 188.956,152.410 187.527 C 148.712 186.851,147.971 187.087,144.660 189.993 C 142.647 191.761,141.000 193.778,141.000 194.476 C 141.000 195.734,137.079 199.508,127.152 207.805 C 122.917 211.344,122.000 212.681,122.000 215.315 C 122.000 217.448,122.676 218.941,124.023 219.782 C 125.771 220.874,127.913 220.316,139.773 215.675 C 158.441 208.372,160.488 207.919,176.515 207.548 C 190.673 207.220,200.389 205.642,210.246 202.072 C 213.136 201.025,218.200 199.416,221.500 198.496 C 224.800 197.576,230.344 195.513,233.820 193.912 C 237.296 192.310,240.378 191.000,240.671 191.000 C 240.963 191.000,245.544 188.811,250.851 186.136 C 256.158 183.461,261.625 180.929,263.000 180.510 C 264.375 180.090,267.525 178.306,270.000 176.545 C 279.228 169.978,285.898 167.361,298.000 165.561 C 304.325 164.620,311.137 163.377,313.138 162.800 C 316.291 161.890,317.556 162.108,322.635 164.433 C 334.789 169.997,335.783 173.984,327.230 182.863 C 323.132 187.117,314.040 203.124,310.964 211.500 C 307.928 219.768,304.035 229.199,301.471 234.500 C 300.141 237.250,298.424 241.306,297.654 243.514 C 296.885 245.722,294.848 249.747,293.128 252.460 C 291.188 255.519,290.000 258.697,290.000 260.828 C 290.000 265.417,293.334 270.572,297.165 271.908 C 299.780 272.819,300.810 272.662,303.620 270.926 C 307.976 268.234,310.191 264.858,312.432 257.500 C 314.919 249.332,333.778 213.550,341.948 201.500 C 346.877 194.230,359.662 181.997,362.312 182.015 C 365.680 182.039,366.251 182.759,371.846 194.032 C 374.721 199.825,378.059 205.181,379.264 205.933 C 385.138 209.601,407.166 211.587,412.184 208.901 C 415.256 207.258,425.275 199.493,427.072 197.363 C 429.161 194.888,430.776 188.911,431.438 181.208 C 431.799 177.004,433.143 172.395,435.489 167.317 C 437.420 163.138,439.000 158.966,439.000 158.046 C 439.000 154.883,431.916 149.478,419.364 143.065 C 413.121 139.874,408.757 138.478,400.597 137.062 C 382.671 133.950,382.506 132.229,398.494 115.153 C 404.577 108.657,405.897 107.948,422.370 102.337 C 436.313 97.587,444.714 96.080,457.527 96.031 C 469.306 95.986,472.757 92.475,468.352 85.019 C 466.862 82.496,460.995 78.742,459.216 79.174 C 458.822 79.269,449.275 79.664,438.000 80.052 M47.400 222.399 C 43.720 224.035,42.551 226.408,44.475 228.332 C 45.240 229.097,49.728 231.636,54.450 233.975 C 64.343 238.876,67.000 241.653,67.000 247.095 C 67.000 249.199,68.085 255.325,69.411 260.710 C 70.738 266.094,72.105 274.775,72.450 280.000 C 73.135 290.362,74.203 297.085,76.715 306.846 C 79.116 316.174,84.307 321.491,93.000 323.526 C 96.575 324.363,101.075 325.489,103.000 326.029 C 104.925 326.568,110.129 327.434,114.564 327.953 C 123.317 328.978,129.862 330.903,137.209 334.614 C 141.033 336.545,142.136 337.721,143.081 340.877 C 143.876 343.530,143.937 345.674,143.274 347.632 C 142.393 350.231,141.888 350.491,137.901 350.407 C 135.473 350.355,131.035 349.171,128.000 347.765 C 120.646 344.359,109.593 340.000,108.309 340.000 C 107.740 340.000,105.576 341.350,103.500 343.000 C 99.262 346.368,96.244 346.703,90.000 344.500 C 87.662 343.675,83.760 343.000,81.329 343.000 C 75.755 343.000,72.018 346.274,71.964 351.205 C 71.926 354.777,69.894 363.796,68.109 368.320 C 67.497 369.871,66.520 374.208,65.938 377.959 C 65.072 383.545,65.153 385.431,66.389 388.389 C 69.299 395.354,75.245 392.393,81.418 380.904 C 83.015 377.932,85.637 373.813,87.245 371.750 C 89.757 368.528,90.731 368.000,94.172 368.000 C 96.499 368.000,100.846 369.236,104.549 370.950 C 108.054 372.572,113.077 374.558,115.711 375.362 C 118.345 376.166,126.512 379.366,133.860 382.472 C 153.253 390.670,160.902 391.069,167.370 384.218 C 169.300 382.173,172.222 378.925,173.863 377.000 L 176.846 373.500 182.173 376.158 C 185.103 377.620,188.813 379.195,190.418 379.658 C 194.784 380.918,194.734 382.784,190.314 383.525 C 180.916 385.101,170.503 389.305,166.750 393.036 C 163.345 396.422,163.000 397.258,163.002 402.132 C 163.004 406.429,163.801 409.047,166.997 415.254 C 171.904 424.783,178.145 432.763,183.692 436.600 C 185.998 438.195,188.901 441.300,190.144 443.500 C 191.386 445.700,193.774 449.339,195.451 451.587 C 197.128 453.834,199.400 456.888,200.500 458.372 C 202.262 460.749,203.348 461.133,209.624 461.590 C 217.803 462.187,219.490 461.234,220.584 455.402 C 221.140 452.439,220.823 451.425,218.624 449.129 C 215.637 446.012,215.391 444.750,217.441 443.049 C 218.233 442.392,218.628 441.195,218.319 440.390 C 217.780 438.984,208.204 434.053,203.000 432.501 C 201.625 432.091,199.861 431.248,199.079 430.628 C 196.832 428.845,192.000 420.789,192.000 418.827 C 192.000 415.807,196.281 414.022,206.091 412.953 C 211.266 412.390,217.075 411.685,219.000 411.388 C 222.403 410.862,222.722 411.114,230.500 420.472 C 235.003 425.890,240.677 431.497,243.481 433.299 C 248.238 436.356,248.912 436.500,258.481 436.500 C 268.212 436.500,270.046 436.111,279.000 432.153 C 284.692 429.636,292.606 423.373,295.010 419.483 C 296.960 416.329,297.191 414.861,296.800 408.109 C 295.774 390.391,284.809 377.527,267.352 373.564 C 256.869 371.185,255.708 369.846,257.656 362.387 C 259.120 356.781,263.898 347.196,271.237 335.145 C 275.673 327.861,277.488 320.059,276.530 312.393 C 275.770 306.309,274.275 304.678,266.862 301.841 C 258.861 298.778,252.401 297.301,243.505 296.502 C 239.107 296.107,232.807 294.975,229.505 293.988 C 226.202 293.001,219.861 291.685,215.412 291.065 C 207.571 289.972,204.000 290.290,204.000 292.081 C 204.000 293.638,197.842 296.177,195.495 295.588 C 194.236 295.272,191.367 293.478,189.121 291.601 C 186.875 289.724,181.766 286.909,177.768 285.344 C 171.330 282.825,169.244 282.502,159.500 282.518 L 148.500 282.537 135.394 288.798 C 120.716 295.811,114.682 297.148,108.801 294.690 C 104.193 292.765,102.802 290.033,100.049 277.500 C 98.841 272.000,97.437 266.148,96.930 264.495 C 96.422 262.843,95.569 258.343,95.034 254.495 C 90.973 225.290,90.382 223.456,84.758 222.594 C 82.966 222.319,74.525 221.853,66.000 221.558 C 54.056 221.144,49.789 221.337,47.400 222.399 M374.378 259.456 C 373.849 260.836,376.140 290.836,378.009 307.000 C 379.222 317.486,379.198 331.761,377.965 334.066 C 377.395 335.130,376.351 336.000,375.645 336.000 C 374.938 336.000,369.605 332.625,363.793 328.500 C 357.981 324.375,352.741 321.000,352.148 321.000 C 351.555 321.000,350.569 321.936,349.957 323.081 C 348.985 324.897,349.389 325.667,353.132 329.122 C 355.492 331.300,359.838 334.946,362.790 337.224 L 368.159 341.366 382.187 341.440 L 396.216 341.515 399.332 337.508 C 401.046 335.303,402.715 333.275,403.041 333.000 C 403.367 332.725,405.551 329.938,407.894 326.807 C 412.414 320.767,412.920 317.555,409.661 315.602 C 408.071 314.649,406.715 315.688,399.661 323.260 C 391.482 332.040,388.849 333.514,387.171 330.250 C 386.676 329.288,385.971 321.075,385.604 312.000 C 385.238 302.925,384.512 292.800,383.992 289.500 C 383.472 286.200,382.614 278.545,382.084 272.488 C 381.554 266.432,380.820 260.694,380.453 259.738 C 379.640 257.620,375.163 257.413,374.378 259.456 M238.048 309.926 C 245.692 312.831,250.000 316.488,250.000 320.072 C 250.000 322.259,249.350 323.339,247.535 324.166 C 245.462 325.111,244.229 324.855,239.785 322.555 C 236.878 321.052,231.973 318.544,228.885 316.984 C 222.648 313.832,220.906 311.273,223.637 309.276 C 226.156 307.434,232.207 307.707,238.048 309.926 M137.675 408.806 C 136.776 409.800,135.393 413.962,134.601 418.056 C 133.809 422.150,131.775 429.616,130.081 434.648 C 128.386 439.679,127.000 444.686,127.000 445.775 C 127.000 446.864,126.372 448.276,125.604 448.914 C 124.487 449.841,123.812 449.416,122.227 446.786 C 121.138 444.979,119.455 441.025,118.488 438.000 C 115.150 427.562,112.875 424.926,108.995 427.003 C 106.010 428.600,105.716 431.522,108.074 436.145 C 109.269 438.487,111.068 442.792,112.072 445.710 C 113.076 448.628,114.596 452.012,115.449 453.230 C 116.421 454.618,117.000 457.627,117.000 461.288 C 117.000 470.646,119.151 472.796,125.034 469.321 C 127.797 467.689,127.990 467.721,131.979 470.486 L 136.082 473.329 138.791 471.323 C 140.281 470.219,142.535 467.795,143.801 465.935 C 145.066 464.075,150.129 458.310,155.051 453.122 C 161.842 445.965,164.000 443.030,164.000 440.952 C 164.000 438.469,162.491 437.000,159.942 437.000 C 158.868 437.000,143.335 452.504,140.500 456.406 C 139.400 457.920,137.600 459.235,136.500 459.329 C 134.923 459.464,134.433 458.799,134.182 456.188 C 133.849 452.716,136.121 442.362,138.441 436.776 C 139.190 434.974,140.783 428.831,141.981 423.125 C 143.179 417.419,144.374 412.189,144.637 411.504 C 145.193 410.054,142.445 407.000,140.584 407.000 C 139.883 407.000,138.574 407.813,137.675 408.806 " style="stroke: none; fill: black;">
                    </path></svg>