<svg id="svg-path" width="100%" height="100%" viewBox="0 0 512 512" version="1.1" xmlns="http://www.w3.org/2000/svg" style="fill-rule:evenodd;clip-rule:evenodd;stroke-linejoin:round;stroke-miterlimit:2;">
                        <path d="M229.500 151.913 C 224.719 153.948,222.165 159.839,219.491 175.000 C 216.807 190.223,215.061 198.694,211.933 211.668 C 207.787 228.869,207.985 230.879,214.718 239.894 C 218.287 244.671,218.940 249.409,216.942 256.007 C 216.360 257.928,215.489 262.122,215.007 265.326 C 213.733 273.797,212.382 275.298,203.726 277.868 C 195.539 280.298,193.353 282.138,190.497 289.000 C 186.745 298.018,183.070 300.042,168.777 300.969 C 157.051 301.730,155.207 303.007,152.445 312.286 C 150.958 317.278,149.390 319.778,144.471 325.000 C 140.693 329.011,137.667 333.341,136.569 336.309 C 133.808 343.770,131.927 345.000,123.279 345.000 C 119.240 345.000,114.435 345.627,112.600 346.394 C 108.141 348.257,104.304 353.507,102.982 359.553 C 101.144 367.957,98.861 369.630,87.845 370.645 C 81.274 371.251,80.144 371.677,77.122 374.689 C 74.107 377.694,73.802 378.491,74.287 382.106 C 74.886 386.572,76.944 389.354,81.498 391.852 C 84.165 393.316,91.644 393.564,148.500 394.076 C 192.748 394.474,214.969 395.043,220.500 395.922 C 229.720 397.386,250.639 396.866,261.674 394.898 C 267.565 393.848,269.980 393.857,275.174 394.949 C 279.314 395.820,294.461 396.543,319.000 397.041 C 339.625 397.459,358.750 398.269,361.500 398.841 C 364.250 399.413,375.050 399.940,385.500 400.013 C 395.950 400.086,406.975 400.548,410.000 401.039 C 413.025 401.531,418.526 402.237,422.225 402.609 L 428.949 403.286 432.975 399.261 C 436.629 395.606,437.000 394.763,437.000 390.103 C 437.000 385.703,436.535 384.463,433.738 381.411 C 429.371 376.646,422.495 375.159,399.946 374.103 C 377.938 373.072,376.293 372.350,373.943 362.692 C 372.286 355.883,369.221 352.699,362.317 350.611 C 343.939 345.054,345.798 346.100,342.500 339.468 C 340.850 336.150,338.487 331.735,337.248 329.657 C 336.009 327.579,334.090 322.420,332.983 318.193 C 331.577 312.826,330.110 309.649,328.119 307.658 C 325.517 305.055,324.407 304.739,315.384 304.026 C 302.423 303.002,298.510 301.340,295.990 295.788 C 294.920 293.429,294.034 290.874,294.022 290.110 C 293.992 288.237,289.833 280.000,288.917 280.000 C 287.218 280.000,282.039 270.430,281.420 266.148 C 281.050 263.592,280.392 261.049,279.957 260.498 C 279.522 259.946,278.227 257.114,277.080 254.203 C 275.145 249.295,275.107 248.694,276.550 245.903 C 277.406 244.248,278.886 242.114,279.839 241.161 C 285.620 235.380,287.000 232.427,287.000 225.834 C 287.000 222.271,286.374 217.364,285.609 214.928 C 284.844 212.493,283.437 206.675,282.482 202.000 C 281.527 197.325,279.884 189.675,278.832 185.000 C 277.779 180.325,276.222 173.350,275.373 169.500 C 273.302 160.117,271.407 155.897,268.187 153.500 C 265.779 151.708,263.736 151.477,248.500 151.281 C 239.150 151.160,230.600 151.444,229.500 151.913 M252.019 177.035 C 252.618 178.154,253.985 183.442,255.058 188.785 C 256.130 194.128,257.905 202.325,259.002 207.000 C 260.100 211.675,261.533 219.387,262.187 224.139 C 263.244 231.820,263.190 233.061,261.697 235.339 C 257.788 241.306,239.541 241.573,234.266 235.740 C 232.871 234.197,232.547 232.287,232.724 226.644 C 233.165 212.549,240.820 181.537,245.144 176.327 C 246.814 174.314,250.781 174.722,252.019 177.035 " style="stroke: none; fill: black;">
                    </path></svg>