<svg id="svg-path" width="100%" height="100%" viewBox="0 0 512 512" version="1.1" xmlns="http://www.w3.org/2000/svg" style="fill-rule:evenodd;clip-rule:evenodd;stroke-linejoin:round;stroke-miterlimit:2;">
                        <path d="M237.216 58.250 C 236.599 59.487,235.659 62.075,235.127 64.000 C 230.793 79.690,225.598 96.241,222.175 105.263 C 219.929 111.183,217.419 119.508,216.596 123.763 C 209.410 160.940,208.643 178.949,213.345 200.023 C 214.145 203.610,215.324 211.035,215.964 216.523 C 216.604 222.010,217.559 229.024,218.086 232.109 C 218.614 235.194,218.806 238.344,218.514 239.109 C 218.221 239.874,217.836 247.250,217.657 255.500 C 217.478 263.750,216.995 271.258,216.584 272.184 C 216.050 273.388,217.001 275.130,219.918 278.296 C 224.647 283.426,224.960 285.705,221.500 289.818 C 220.125 291.452,219.000 293.210,219.000 293.724 C 219.000 294.238,216.595 297.323,213.655 300.580 C 209.106 305.618,208.208 307.272,207.629 311.684 C 206.751 318.371,203.247 326.228,198.340 332.510 C 196.196 335.254,191.755 341.501,188.471 346.392 C 185.187 351.283,180.684 357.358,178.464 359.892 C 176.244 362.426,173.578 365.850,172.539 367.500 C 170.361 370.960,165.848 376.422,154.250 389.637 C 148.237 396.488,145.998 399.777,145.994 401.768 C 145.969 414.196,133.318 424.000,117.307 424.000 C 114.522 424.000,110.604 423.315,108.599 422.477 C 104.513 420.770,102.178 421.480,99.551 425.230 C 95.391 431.170,99.497 437.665,109.191 440.479 C 112.661 441.486,119.325 443.635,124.000 445.253 C 137.831 450.040,139.203 450.329,142.304 449.110 C 144.254 448.344,145.718 446.558,147.106 443.254 C 152.378 430.705,153.802 429.258,166.011 424.045 C 177.918 418.960,181.553 415.916,195.041 399.733 C 210.329 381.390,228.218 363.611,237.500 357.534 C 247.005 351.312,250.514 350.000,257.660 350.000 C 264.389 350.000,269.649 352.426,277.500 359.151 C 280.800 361.977,285.183 365.352,287.241 366.651 C 291.491 369.335,297.539 376.636,305.755 389.000 C 314.476 402.123,321.272 410.564,332.338 422.016 C 343.297 433.356,347.374 439.754,348.452 447.303 C 349.392 453.883,351.521 454.809,361.814 453.115 C 366.041 452.419,373.202 451.455,377.726 450.973 C 387.062 449.978,388.738 449.289,392.392 444.946 C 397.885 438.417,395.041 435.000,384.113 435.000 C 374.325 435.000,363.980 430.062,359.338 423.174 C 356.986 419.683,353.581 409.774,352.703 403.866 C 352.406 401.867,350.607 398.042,348.705 395.366 C 344.062 388.832,342.504 385.524,341.001 379.000 C 338.019 366.062,330.496 353.577,322.649 348.543 C 315.872 344.195,314.571 342.620,311.938 335.573 C 310.721 332.314,308.928 328.264,307.955 326.573 C 306.982 324.883,305.635 320.800,304.960 317.500 C 302.973 307.770,301.145 303.009,295.929 293.971 C 290.266 284.160,289.781 280.603,293.500 276.182 C 294.875 274.548,296.000 272.539,296.000 271.717 C 296.000 270.894,294.200 267.142,292.000 263.377 C 288.010 256.548,288.000 256.506,288.000 245.842 C 288.000 235.055,288.509 231.461,292.225 216.000 C 293.349 211.325,294.585 203.450,294.972 198.500 C 295.589 190.604,295.379 188.519,293.261 181.500 C 288.549 165.884,288.360 164.362,290.484 159.171 C 291.659 156.300,292.416 151.995,292.448 148.000 C 292.493 142.329,291.960 140.395,288.262 132.834 C 285.931 128.068,282.388 122.443,280.387 120.334 C 275.043 114.700,274.395 113.474,270.422 101.463 C 266.057 88.270,266.010 88.177,259.479 80.000 C 256.624 76.425,252.600 70.800,250.537 67.500 C 243.620 56.437,239.535 53.600,237.216 58.250 M252.606 93.147 C 256.529 99.017,257.685 105.306,255.464 108.695 C 253.149 112.228,240.175 118.164,237.683 116.830 C 236.094 115.980,235.882 115.114,236.416 111.655 C 236.768 109.370,237.679 105.475,238.439 103.000 C 239.200 100.525,240.078 97.336,240.390 95.912 C 241.276 91.868,244.912 87.846,247.365 88.196 C 248.595 88.371,250.816 90.469,252.606 93.147 " style="stroke: none; fill: black;">
                    </path></svg>