<svg id="svg-path" width="100%" height="100%" viewBox="0 0 512 512" version="1.1" xmlns="http://www.w3.org/2000/svg" style="fill-rule:evenodd;clip-rule:evenodd;stroke-linejoin:round;stroke-miterlimit:2;">
                        <path d="M234.500 101.155 C 228.755 104.122,224.133 108.864,222.996 112.956 C 221.551 118.156,221.784 126.798,223.538 133.032 C 224.383 136.039,225.331 140.311,225.642 142.525 C 226.180 146.340,226.035 146.626,222.855 148.025 C 220.890 148.889,218.961 150.743,218.198 152.500 C 215.892 157.814,215.388 158.436,210.106 162.500 C 200.315 170.032,198.487 175.886,200.182 194.289 C 201.115 204.409,201.047 206.604,199.708 209.789 C 198.850 211.830,197.887 215.750,197.568 218.500 C 197.249 221.250,195.413 226.740,193.488 230.700 L 189.989 237.900 192.485 247.700 C 193.858 253.090,194.981 258.850,194.980 260.500 C 194.978 264.708,192.456 272.547,189.460 277.659 C 186.218 283.191,187.078 284.990,194.747 288.723 C 200.198 291.376,200.579 291.814,203.245 298.507 C 207.464 309.096,212.231 314.740,221.030 319.560 C 226.821 322.732,229.227 324.758,231.733 328.576 C 239.024 339.682,243.281 344.835,246.637 346.618 C 253.442 350.233,253.456 350.328,253.215 390.214 C 253.006 424.623,253.069 425.967,254.933 426.964 C 255.998 427.534,257.728 428.000,258.779 428.000 C 259.830 428.000,261.485 428.879,262.457 429.953 C 264.154 431.828,264.121 432.090,261.604 436.592 C 258.611 441.947,257.103 451.214,258.876 453.351 C 260.274 455.035,265.945 456.732,285.500 461.316 C 311.123 467.322,319.149 467.068,319.813 460.229 C 320.151 456.756,321.557 455.651,326.948 454.626 C 332.576 453.556,335.000 451.427,335.000 447.553 C 335.000 444.937,334.296 443.615,331.950 441.826 C 326.952 438.014,312.551 423.757,310.029 420.125 C 308.740 418.269,307.342 415.119,306.922 413.125 C 306.502 411.131,305.481 407.250,304.652 404.500 C 298.582 384.363,296.980 378.160,295.997 370.975 C 295.382 366.485,294.412 361.616,293.842 360.156 C 293.272 358.695,292.413 352.775,291.934 347.000 C 291.455 341.225,290.378 334.250,289.542 331.500 C 288.691 328.702,288.017 322.702,288.011 317.876 C 288.004 312.794,287.384 307.505,286.500 305.000 C 284.193 298.460,284.540 294.507,287.635 292.073 C 289.084 290.933,291.086 290.000,292.084 290.000 C 294.303 290.000,299.477 284.742,301.923 280.000 C 303.902 276.164,306.000 263.777,306.000 255.929 C 306.000 252.795,305.026 248.627,303.379 244.720 C 300.397 237.641,296.842 226.854,295.070 219.500 C 293.552 213.202,287.700 200.134,283.362 193.352 C 281.538 190.501,278.681 184.643,277.013 180.334 C 275.345 176.025,273.534 171.719,272.990 170.764 C 271.150 167.537,271.984 164.237,275.807 159.610 L 279.615 155.003 279.184 137.251 C 278.754 119.562,278.741 119.477,275.477 113.000 C 272.208 106.511,269.911 103.865,264.785 100.685 C 260.505 98.029,239.934 98.348,234.500 101.155 M277.575 160.917 C 275.128 163.621,276.785 166.215,282.718 168.970 C 285.348 170.191,288.705 172.325,290.177 173.712 C 292.392 175.799,294.373 176.396,301.677 177.175 C 306.530 177.692,315.450 177.834,321.500 177.491 C 336.128 176.659,336.566 176.967,336.315 187.903 C 336.146 195.272,334.342 209.009,331.917 221.394 C 330.850 226.847,332.525 231.013,335.773 230.985 C 339.932 230.948,339.761 231.488,344.433 203.500 C 346.044 193.845,346.949 171.616,345.779 170.445 C 344.370 169.037,325.872 167.704,322.424 168.762 C 320.107 169.473,315.485 169.409,307.107 168.550 C 297.058 167.520,294.572 166.919,291.804 164.852 C 288.363 162.281,281.886 159.000,280.254 159.000 C 279.735 159.000,278.529 159.863,277.575 160.917 M375.579 195.535 C 373.577 196.580,372.335 196.735,371.629 196.029 C 368.694 193.094,356.000 196.298,356.000 199.974 C 356.000 200.822,354.857 203.663,353.460 206.288 C 352.062 208.913,351.183 211.488,351.506 212.010 C 351.829 212.532,352.777 216.879,353.613 221.669 C 355.350 231.617,358.547 241.685,360.784 244.250 C 362.671 246.414,366.071 246.465,372.920 244.431 C 376.697 243.309,379.999 243.055,384.508 243.538 C 393.250 244.474,393.508 243.954,394.881 222.629 L 395.968 205.758 392.812 200.482 C 390.163 196.053,389.081 195.111,386.078 194.614 C 380.628 193.712,378.761 193.876,375.579 195.535 M377.771 201.280 C 379.822 202.534,382.377 204.031,383.449 204.606 C 386.361 206.171,387.039 210.388,386.122 221.236 C 385.230 231.774,384.233 233.832,378.961 236.016 C 375.036 237.642,369.218 236.173,366.811 232.948 C 364.604 229.992,360.618 211.659,361.456 208.319 C 361.789 206.991,363.634 205.207,365.833 204.085 C 367.923 203.019,370.221 201.438,370.939 200.573 C 372.656 198.505,373.351 198.577,377.771 201.280 M284.047 265.088 C 285.390 267.596,284.306 283.693,282.729 284.668 C 281.126 285.658,278.892 281.893,279.694 279.552 C 280.080 278.424,280.296 274.662,280.174 271.194 C 280.051 267.726,280.213 264.464,280.534 263.944 C 281.483 262.410,282.853 262.856,284.047 265.088 " style="stroke: none; fill: black;">
                    </path></svg>