<svg id="svg-path" width="100%" height="100%" viewBox="0 0 512 512" version="1.1" xmlns="http://www.w3.org/2000/svg" style="fill-rule:evenodd;clip-rule:evenodd;stroke-linejoin:round;stroke-miterlimit:2;">
                        <path d="M218.223 118.573 C 208.512 119.971,204.392 122.392,197.524 130.734 C 193.039 136.183,192.624 137.380,192.983 143.843 C 193.145 146.755,197.432 156.126,200.251 159.731 C 201.341 161.125,200.785 166.546,198.936 172.560 C 197.035 178.743,198.233 181.363,205.609 187.160 C 211.941 192.136,212.160 192.456,211.601 195.912 C 211.281 197.886,210.594 203.007,210.074 207.293 C 209.553 211.579,208.635 216.577,208.033 218.400 C 207.426 220.239,207.120 225.613,207.345 230.472 C 207.623 236.457,207.195 241.807,205.993 247.365 C 205.025 251.839,203.693 260.217,203.033 265.981 C 202.372 271.746,201.617 276.810,201.355 277.235 C 200.741 278.228,203.609 296.642,205.629 304.676 C 206.647 308.725,208.357 312.225,210.591 314.835 C 212.466 317.026,214.000 319.494,214.000 320.320 C 214.000 321.146,212.859 326.109,211.464 331.349 C 208.910 340.946,208.121 350.782,209.431 356.707 C 209.965 359.124,211.355 360.662,215.070 362.948 C 219.646 365.764,220.000 366.268,220.000 369.971 C 220.000 374.482,222.231 380.762,225.744 386.141 C 227.263 388.467,228.321 391.900,228.673 395.641 C 228.976 398.864,230.748 405.381,232.612 410.124 C 234.475 414.867,236.000 420.395,236.000 422.407 C 236.000 426.985,232.432 433.733,225.903 441.500 C 215.051 454.412,215.485 462.656,227.131 464.832 C 232.516 465.838,234.373 465.211,239.007 460.822 C 243.224 456.828,258.485 437.468,262.866 430.554 C 266.655 424.574,266.734 422.776,263.486 416.419 C 260.540 410.653,260.583 411.359,262.104 393.847 C 263.131 382.027,263.071 379.000,261.661 371.291 C 260.359 364.175,260.246 361.170,261.099 356.326 C 262.225 349.938,263.296 347.853,269.061 340.835 C 271.019 338.451,273.463 334.475,274.492 332.000 C 275.521 329.525,277.406 326.068,278.681 324.317 C 279.957 322.566,281.000 320.832,281.000 320.463 C 281.000 320.094,284.151 315.322,288.002 309.859 C 299.103 294.111,300.317 291.229,300.794 279.500 C 301.056 273.063,300.630 266.204,299.600 260.250 C 297.682 249.163,297.620 246.581,299.208 244.038 C 300.210 242.434,299.965 241.111,297.777 236.301 C 294.237 228.523,292.514 222.551,290.134 209.807 C 285.859 186.924,277.610 174.926,258.000 163.065 C 254.975 161.235,252.169 159.234,251.765 158.619 C 250.689 156.979,250.841 151.593,252.167 144.395 C 253.586 136.695,252.381 131.642,247.911 126.551 C 241.689 119.465,231.344 116.685,218.223 118.573 M144.000 151.893 C 142.625 152.899,139.700 153.953,137.500 154.234 C 135.300 154.515,131.700 155.594,129.500 156.630 C 125.756 158.394,125.459 158.850,124.860 163.749 C 124.508 166.628,123.977 169.618,123.679 170.394 C 123.381 171.170,123.718 172.599,124.427 173.569 C 125.577 175.142,126.328 175.210,131.362 174.199 C 134.467 173.576,137.681 173.324,138.504 173.640 C 140.750 174.502,140.309 177.564,137.500 180.595 C 136.125 182.078,135.000 184.052,135.000 184.981 C 135.000 186.755,130.800 190.967,127.002 192.999 C 125.175 193.977,124.033 193.868,120.796 192.408 C 115.797 190.154,113.430 191.326,113.654 195.945 C 113.845 199.887,118.640 207.000,121.106 207.000 C 122.114 207.000,127.840 204.302,133.830 201.005 C 148.204 193.092,152.213 191.714,158.602 192.489 C 162.663 192.981,164.398 192.701,167.102 191.119 C 168.971 190.025,173.351 188.814,176.835 188.427 C 183.619 187.673,184.654 186.741,183.557 182.373 L 182.899 179.751 175.013 180.438 C 166.504 181.181,165.856 180.914,161.669 174.939 C 160.315 173.007,159.080 172.500,155.730 172.500 C 151.925 172.500,151.470 172.240,151.199 169.914 C 150.776 166.275,153.038 164.604,156.347 166.112 C 158.470 167.079,159.405 166.974,161.709 165.510 C 170.728 159.776,171.698 154.066,163.668 153.975 C 162.476 153.962,158.843 153.062,155.595 151.975 C 148.402 149.569,147.187 149.560,144.000 151.893 " style="stroke: none; fill: black;">
                    </path></svg>