<svg id="svg-path" width="100%" height="100%" viewBox="0 0 512 512" version="1.1" xmlns="http://www.w3.org/2000/svg" style="fill-rule:evenodd;clip-rule:evenodd;stroke-linejoin:round;stroke-miterlimit:2;">
                        <path d="M136.571 119.122 C 130.990 120.430,124.249 124.970,122.535 128.575 C 121.234 131.309,121.257 132.227,122.735 136.851 C 124.157 141.297,124.228 143.043,123.227 148.880 C 122.445 153.440,122.372 156.812,123.008 159.027 C 124.235 163.306,123.091 164.664,117.708 165.313 C 109.123 166.350,104.730 167.811,102.289 170.445 C 98.240 174.810,95.266 173.702,90.358 166.000 C 88.080 162.425,85.007 158.326,83.530 156.892 C 80.762 154.205,80.467 153.798,73.165 142.640 C 70.781 138.996,67.482 135.055,65.834 133.882 C 63.243 132.037,62.517 131.920,60.465 133.019 C 57.712 134.492,57.025 136.549,58.188 139.834 C 58.835 141.660,58.523 142.571,56.757 144.021 L 54.500 145.874 56.882 147.687 C 65.833 154.500,66.335 155.270,66.604 162.605 C 66.778 167.316,67.823 172.114,69.905 177.754 C 75.436 192.735,77.058 194.622,87.265 197.961 C 90.986 199.177,94.698 200.841,95.515 201.658 C 99.011 205.154,95.757 238.504,90.994 248.000 C 90.029 249.925,89.028 254.654,88.770 258.508 C 88.513 262.362,87.559 266.953,86.651 268.708 C 85.743 270.464,85.000 273.836,84.999 276.200 C 84.999 278.565,84.036 282.975,82.858 286.000 C 80.609 291.777,80.319 295.487,79.724 326.004 C 79.558 334.531,78.997 342.181,78.478 343.004 C 77.959 343.827,77.295 349.788,77.003 356.252 L 76.471 368.004 70.294 374.029 C 59.455 384.603,60.391 386.565,76.763 387.585 C 86.804 388.210,88.242 388.091,90.013 386.488 C 91.106 385.499,92.000 383.789,92.000 382.687 C 92.000 381.586,93.770 378.391,95.933 375.587 C 99.004 371.607,100.009 369.283,100.515 364.994 C 100.871 361.972,102.214 356.342,103.498 352.483 C 105.607 346.146,105.778 344.276,105.267 333.187 C 104.763 322.240,104.924 320.397,106.754 316.204 C 107.883 313.617,109.520 309.102,110.392 306.170 C 111.264 303.239,112.821 299.639,113.852 298.170 C 114.883 296.702,116.663 293.363,117.807 290.750 C 120.739 284.056,123.018 284.327,126.214 291.750 C 127.576 294.913,129.734 302.000,131.009 307.500 C 132.285 313.000,134.234 318.730,135.341 320.234 C 138.770 324.894,144.067 347.014,144.985 360.500 C 146.134 377.397,147.871 383.208,153.217 388.043 C 161.702 395.716,169.332 397.625,172.342 392.828 C 173.470 391.031,173.028 389.831,168.537 382.500 C 165.654 377.793,165.457 375.397,167.531 370.215 C 168.905 366.781,168.905 366.016,167.531 362.727 C 166.689 360.713,166.002 356.912,166.005 354.282 C 166.013 346.820,163.950 323.939,162.870 319.500 C 162.334 317.300,161.078 312.319,160.077 308.430 C 158.544 302.470,158.296 297.921,158.499 279.430 C 158.733 258.173,158.803 257.491,160.792 257.191 C 162.342 256.957,163.017 255.859,163.550 252.707 C 163.937 250.411,165.288 247.175,166.551 245.516 C 167.814 243.857,169.748 239.125,170.848 235.000 C 173.362 225.574,174.813 221.520,177.428 216.613 C 179.311 213.081,180.870 212.088,194.500 205.748 C 217.853 194.886,218.114 194.599,214.959 183.354 C 213.094 176.709,206.265 163.481,203.920 161.972 C 201.773 160.590,201.369 156.404,202.850 150.877 L 204.387 145.141 200.192 141.071 C 197.885 138.832,195.348 137.000,194.555 137.000 C 193.761 137.000,191.849 138.087,190.306 139.415 L 187.500 141.829 187.450 159.415 C 187.417 170.954,187.016 177.384,186.284 178.116 C 185.464 178.936,184.288 178.769,181.835 177.483 C 178.765 175.874,175.243 175.060,162.996 173.131 C 160.518 172.741,157.931 172.075,157.246 171.652 C 154.601 170.018,156.628 163.456,161.000 159.500 C 163.720 157.038,169.000 145.626,169.000 142.208 C 169.000 137.799,162.599 127.806,157.338 124.000 C 149.267 118.161,144.972 117.152,136.571 119.122 M296.709 157.721 C 291.385 159.495,285.109 165.143,282.611 170.408 C 279.700 176.541,280.447 179.931,286.599 188.504 C 292.038 196.086,295.000 202.297,295.000 206.123 C 295.000 208.496,288.597 215.640,284.632 217.690 C 281.661 219.227,281.570 219.198,278.863 215.876 C 277.351 214.019,274.544 210.925,272.627 209.000 C 268.931 205.291,264.003 196.782,263.996 194.101 C 263.994 193.220,263.101 191.037,262.011 189.250 C 260.528 186.819,259.318 186.000,257.206 186.000 C 255.653 186.000,253.509 185.339,252.441 184.532 C 248.365 181.449,243.000 183.675,243.000 188.449 C 243.000 189.717,243.714 191.348,244.586 192.072 C 245.627 192.935,245.987 194.313,245.634 196.079 C 245.170 198.398,245.478 198.846,247.860 199.322 C 249.380 199.626,251.668 200.720,252.943 201.753 C 255.101 203.501,255.173 203.880,253.970 207.207 C 252.783 210.490,252.896 211.201,255.345 215.885 C 262.484 229.539,272.122 240.000,277.563 240.000 C 280.097 240.000,297.265 234.695,300.236 232.994 C 301.191 232.447,302.781 232.000,303.768 232.000 C 307.761 232.000,324.530 252.451,332.330 266.833 L 336.489 274.500 336.550 300.500 C 336.609 325.281,337.620 339.901,340.109 351.982 C 340.730 354.997,341.601 360.847,342.045 364.982 C 342.488 369.117,343.167 373.760,343.552 375.301 C 344.074 377.388,343.743 378.663,342.256 380.301 C 341.157 381.510,339.638 383.691,338.879 385.146 C 336.355 389.988,330.731 397.470,327.847 399.822 C 324.823 402.289,324.019 406.410,326.385 407.317 C 328.272 408.042,337.222 405.407,344.500 401.984 C 347.800 400.433,353.541 397.803,357.259 396.140 C 360.976 394.478,364.298 392.387,364.640 391.495 C 365.360 389.620,363.923 386.045,360.352 380.831 C 356.467 375.156,357.358 372.871,364.341 370.603 L 370.182 368.707 369.684 365.103 C 367.970 352.698,366.820 346.641,364.918 340.000 C 361.959 329.667,361.935 315.331,364.858 304.739 C 366.036 300.470,367.000 295.918,367.000 294.624 C 367.000 291.405,370.668 286.995,373.323 287.022 C 374.520 287.034,376.436 287.822,377.579 288.772 C 380.019 290.800,387.451 301.694,388.370 304.591 C 388.720 305.692,391.273 309.272,394.044 312.547 C 396.815 315.821,399.309 319.625,399.586 321.000 C 400.962 327.817,402.597 332.284,406.854 340.858 C 409.409 346.004,412.487 351.287,413.692 352.597 L 415.885 354.978 420.525 352.989 C 425.876 350.696,428.557 350.479,429.660 352.250 C 430.088 352.938,430.452 356.746,430.469 360.714 C 430.516 371.656,430.372 371.586,449.739 370.112 C 465.330 368.925,471.208 367.732,474.363 365.114 C 476.438 363.391,474.795 360.000,471.885 360.000 C 469.657 360.000,460.127 356.407,450.213 351.829 C 444.058 348.988,440.013 344.688,440.004 340.979 C 439.999 339.036,431.838 325.047,426.836 318.409 C 424.726 315.609,423.000 312.549,423.000 311.609 C 423.000 309.008,420.341 304.425,417.629 302.354 C 416.110 301.194,413.259 295.823,410.008 288.000 C 407.151 281.125,403.684 274.006,402.302 272.180 C 400.915 270.345,399.582 266.989,399.324 264.680 C 399.067 262.381,398.133 258.785,397.249 256.689 C 395.762 253.165,395.768 252.663,397.321 250.035 C 399.650 246.092,399.502 245.321,395.076 238.346 C 390.808 231.617,382.349 225.019,375.608 223.157 C 372.063 222.179,369.106 219.686,369.032 217.614 C 369.014 217.127,371.071 217.012,373.603 217.359 C 377.306 217.867,378.765 217.592,381.068 215.952 C 386.209 212.291,387.444 201.954,384.065 190.855 C 383.001 187.360,381.825 182.808,381.452 180.739 C 381.079 178.670,380.374 176.731,379.887 176.430 C 378.671 175.679,378.763 169.264,380.000 168.500 C 381.806 167.384,381.046 165.146,378.750 164.820 C 377.077 164.582,376.420 163.731,376.188 161.500 C 375.679 156.616,370.846 154.297,367.710 157.433 C 366.922 158.221,365.980 160.723,365.617 162.992 C 365.071 166.408,364.444 167.298,361.979 168.157 C 358.443 169.390,358.440 169.405,361.016 173.023 C 366.189 180.287,368.292 188.716,366.001 192.998 C 365.060 194.756,364.579 194.643,357.747 191.066 C 353.756 188.976,348.244 186.727,345.496 186.067 C 342.748 185.407,339.150 184.546,337.500 184.153 C 329.776 182.315,324.487 177.656,323.572 171.884 C 322.425 164.651,319.976 160.764,314.996 158.271 C 309.690 155.615,303.577 155.431,296.709 157.721 M222.590 232.627 C 221.702 234.941,223.777 237.000,227.000 237.000 C 230.609 237.000,232.743 234.600,231.000 232.500 C 229.296 230.447,223.392 230.536,222.590 232.627 M212.250 233.031 C 208.680 234.466,209.400 237.000,213.378 237.000 C 217.347 237.000,220.257 234.408,217.936 232.939 C 216.195 231.837,215.179 231.854,212.250 233.031 M238.473 236.044 C 237.420 237.748,240.033 240.000,243.063 240.000 C 246.627 240.000,247.869 238.109,245.462 236.348 C 243.270 234.745,239.380 234.576,238.473 236.044 M198.174 238.314 C 195.571 241.086,195.376 243.546,197.689 244.434 C 199.934 245.296,205.526 239.814,204.673 237.589 C 203.791 235.292,200.689 235.638,198.174 238.314 M256.171 241.143 C 256.352 242.402,257.749 244.123,259.275 244.967 C 261.732 246.324,262.157 246.329,262.985 245.006 C 264.336 242.846,261.847 239.568,258.557 239.176 C 256.225 238.898,255.888 239.176,256.171 241.143 M267.000 253.393 C 267.000 257.006,269.644 259.164,271.155 256.784 C 272.234 255.083,272.201 254.244,270.965 251.934 C 269.247 248.724,267.000 249.550,267.000 253.393 M188.567 252.926 C 187.609 253.985,186.982 255.667,187.174 256.664 C 187.714 259.470,190.680 259.418,192.547 256.569 C 195.545 251.994,192.190 248.922,188.567 252.926 M275.016 263.457 C 273.872 266.467,275.311 270.392,277.318 269.734 C 279.146 269.134,279.329 263.518,277.568 262.056 C 276.271 260.980,275.876 261.196,275.016 263.457 M187.422 268.342 C 187.108 269.161,186.997 271.107,187.175 272.666 C 187.411 274.725,188.047 275.500,189.500 275.500 C 191.166 275.500,191.500 274.833,191.500 271.514 C 191.500 268.510,191.068 267.444,189.747 267.190 C 188.783 267.004,187.737 267.522,187.422 268.342 M274.203 274.256 C 273.630 274.946,272.863 276.697,272.499 278.146 C 271.259 283.090,275.947 282.956,278.005 277.989 C 279.758 273.756,276.925 270.975,274.203 274.256 M191.104 282.914 C 189.270 284.076,190.267 286.474,193.451 288.560 C 195.515 289.912,196.299 289.996,197.505 288.996 C 199.461 287.373,199.396 286.803,196.961 284.189 C 194.769 281.835,193.310 281.518,191.104 282.914 M263.494 287.597 C 258.593 292.498,262.821 294.919,268.079 290.221 C 271.435 287.222,271.396 285.000,267.986 285.000 C 266.944 285.000,264.922 286.168,263.494 287.597 M204.000 292.902 C 204.000 295.629,209.825 297.603,211.862 295.567 C 214.010 293.419,211.635 291.000,207.378 291.000 C 204.725 291.000,204.000 291.408,204.000 292.902 M252.000 292.294 C 250.607 292.999,249.500 294.432,249.500 295.530 C 249.500 298.272,253.977 298.649,257.045 296.164 C 259.096 294.504,259.245 294.000,258.095 292.615 C 256.490 290.681,255.312 290.619,252.000 292.294 M219.214 296.186 C 218.299 297.101,218.403 297.787,219.669 299.186 C 221.744 301.480,226.838 301.587,227.694 299.355 C 228.942 296.103,221.921 293.479,219.214 296.186 M237.952 296.838 C 235.344 298.950,236.042 301.000,239.368 301.000 C 242.569 301.000,245.459 298.637,244.694 296.645 C 243.859 294.469,240.768 294.557,237.952 296.838 " style="stroke: none; fill: black;">
                    </path></svg>