<svg id="svg-path" width="100%" height="100%" viewBox="0 0 512 512" version="1.1" xmlns="http://www.w3.org/2000/svg" style="fill-rule:evenodd;clip-rule:evenodd;stroke-linejoin:round;stroke-miterlimit:2;">
                        <path d="M240.151 69.804 C 236.457 70.928,223.259 82.938,221.353 86.911 C 220.269 89.169,219.565 93.280,219.456 98.000 C 219.361 102.125,218.587 107.525,217.736 110.000 C 216.886 112.475,215.437 117.200,214.517 120.500 C 212.517 127.670,206.365 140.181,198.778 152.508 C 195.735 157.454,192.292 163.390,191.127 165.701 C 189.962 168.011,185.591 174.440,181.412 179.987 C 174.953 188.562,172.442 190.997,164.657 196.236 C 153.285 203.890,150.515 204.893,140.500 204.988 C 130.390 205.084,128.527 206.242,129.473 211.842 C 130.109 215.604,129.865 216.128,124.958 221.546 C 119.890 227.142,119.783 227.389,120.257 232.323 C 120.838 238.374,123.062 240.587,129.536 241.558 C 136.696 242.631,139.987 241.466,146.000 235.728 C 159.305 223.031,163.957 219.290,168.597 217.558 C 171.294 216.552,177.100 214.032,181.500 211.960 C 191.851 207.085,199.568 204.888,207.102 204.673 C 212.636 204.515,213.379 204.750,215.634 207.366 C 217.557 209.598,218.037 211.137,217.802 214.324 C 217.531 217.990,216.911 218.863,211.839 222.711 C 203.679 228.902,193.331 242.651,185.915 257.156 C 181.518 265.758,175.944 288.507,173.026 309.771 C 172.401 314.320,171.061 321.295,170.048 325.271 C 169.034 329.247,167.907 334.631,167.543 337.236 C 167.157 339.998,164.606 346.330,161.425 352.423 C 158.424 358.170,155.120 366.164,154.083 370.186 C 148.413 392.181,145.740 398.442,137.831 408.246 C 134.493 412.383,134.974 418.423,139.776 432.670 C 145.925 450.914,148.206 454.596,155.700 458.383 C 160.138 460.625,162.354 460.414,165.923 457.411 C 168.563 455.190,168.995 454.160,168.964 450.161 C 168.945 447.597,168.277 442.800,167.480 439.500 C 164.150 425.710,166.600 405.777,173.256 392.500 C 177.393 384.247,194.738 358.297,197.330 356.481 C 198.493 355.667,200.807 355.000,202.473 355.001 C 206.508 355.002,223.702 359.759,226.648 361.689 C 230.158 363.988,231.299 369.298,230.603 380.076 C 230.268 385.259,229.623 395.800,229.171 403.500 C 228.440 415.928,228.046 418.053,225.662 422.422 C 224.184 425.130,222.332 429.510,221.546 432.157 C 219.743 438.228,215.410 444.570,206.921 453.564 C 203.253 457.450,199.938 461.619,199.554 462.830 C 198.573 465.921,200.675 471.599,203.674 473.958 C 211.918 480.443,223.285 475.879,234.148 461.722 C 241.235 452.486,241.881 451.226,244.764 441.000 C 246.082 436.325,248.227 428.702,249.530 424.059 C 250.832 419.417,253.078 412.892,254.519 409.559 C 255.961 406.227,257.524 402.600,257.992 401.500 C 259.356 398.300,260.200 394.218,261.903 382.599 C 263.849 369.317,264.888 368.177,276.154 366.959 C 293.625 365.070,297.394 361.485,299.084 345.150 C 301.319 323.548,301.311 323.036,298.563 313.000 C 293.546 294.678,293.441 293.830,295.353 286.954 C 296.304 283.533,297.576 274.529,298.179 266.945 C 299.233 253.675,299.196 253.030,297.178 249.828 C 291.811 241.309,291.730 241.060,293.458 238.424 C 295.448 235.387,298.506 235.310,300.415 238.250 C 301.219 239.488,302.787 243.875,303.900 248.000 C 305.012 252.125,307.941 261.483,310.407 268.796 C 312.874 276.109,315.184 284.209,315.541 286.796 C 316.475 293.558,318.928 302.960,320.602 306.198 C 322.321 309.521,331.389 314.977,335.215 314.991 C 336.836 314.996,339.355 313.749,341.465 311.896 L 345.000 308.793 345.000 298.531 C 345.000 287.100,345.096 287.323,335.889 277.391 C 330.927 272.037,329.534 268.530,328.588 259.000 C 328.287 255.975,327.551 248.773,326.952 242.996 C 325.712 231.043,326.058 229.513,331.460 223.047 C 339.515 213.406,341.277 206.736,339.421 192.906 C 337.149 175.974,334.069 164.606,328.608 153.000 C 325.179 145.714,325.213 143.215,328.750 142.419 C 337.513 140.445,340.069 139.399,345.500 135.565 C 348.800 133.235,353.697 130.246,356.382 128.921 C 362.701 125.805,364.029 123.066,361.498 118.367 C 360.462 116.443,358.110 113.548,356.272 111.934 C 353.583 109.573,352.010 109.001,348.215 109.006 C 341.344 109.014,336.658 110.608,331.955 114.538 C 324.402 120.848,320.861 120.091,314.454 110.794 C 312.104 107.384,311.145 104.660,310.660 100.019 C 309.923 92.974,305.638 83.168,301.184 78.335 C 299.580 76.594,295.874 73.957,292.950 72.475 C 287.698 69.813,287.416 69.784,270.066 70.056 C 260.405 70.208,250.250 70.053,247.500 69.711 C 244.750 69.369,241.443 69.411,240.151 69.804 " style="stroke: none; fill: black;">
                    </path></svg>