<svg id="svg-path" width="100%" height="100%" viewBox="0 0 512 512" version="1.1" xmlns="http://www.w3.org/2000/svg" style="fill-rule:evenodd;clip-rule:evenodd;stroke-linejoin:round;stroke-miterlimit:2;">
                        <path d="M250.805 74.672 C 250.087 76.142,247.843 78.280,245.818 79.422 C 240.771 82.270,236.000 86.701,236.000 88.540 C 236.000 91.518,238.847 96.817,240.777 97.429 C 241.854 97.771,243.950 97.589,245.433 97.025 C 248.561 95.836,251.367 96.949,253.018 100.033 C 253.646 101.206,254.006 107.446,253.897 115.260 L 253.712 128.500 259.061 140.813 C 262.962 149.793,264.148 153.542,263.442 154.660 C 261.715 157.399,251.738 162.078,248.920 161.471 C 247.500 161.166,244.206 161.393,241.600 161.978 C 238.221 162.735,235.697 162.726,232.805 161.947 C 229.626 161.091,227.208 161.194,221.624 162.423 C 216.907 163.461,209.094 164.014,198.500 164.059 C 172.488 164.171,165.308 164.009,149.235 162.951 C 137.662 162.189,133.430 162.235,131.735 163.142 C 130.506 163.800,124.325 164.685,118.000 165.110 C 93.764 166.737,87.029 167.790,82.109 170.719 C 77.720 173.332,76.957 173.452,66.117 173.220 C 58.754 173.062,54.251 173.377,53.367 174.110 C 51.777 175.430,51.505 184.568,52.943 188.351 C 53.552 189.952,53.496 193.187,52.785 197.480 C 51.202 207.030,52.357 208.002,66.672 209.175 C 73.436 209.730,79.001 210.759,81.500 211.917 C 88.883 215.340,93.418 216.153,109.545 216.947 C 120.790 217.501,126.490 218.202,128.594 219.290 C 133.453 221.803,143.517 224.941,151.793 226.525 C 161.658 228.413,170.898 228.391,184.576 226.449 C 201.130 224.098,212.673 225.993,215.169 231.472 C 216.706 234.846,219.213 235.367,230.835 234.728 C 237.585 234.357,242.752 233.409,247.969 231.584 C 256.839 228.480,276.468 226.314,278.728 228.189 C 279.800 229.079,280.055 232.548,279.884 243.916 C 279.763 251.937,280.268 265.578,281.006 274.229 C 282.278 289.127,282.252 290.064,280.519 291.979 C 279.225 293.408,277.435 294.000,274.402 294.000 C 267.170 294.000,265.436 298.941,270.681 304.601 C 273.008 307.112,273.534 307.231,280.233 306.751 C 286.750 306.285,287.500 306.436,289.525 308.622 C 293.492 312.902,294.393 311.828,295.323 301.709 C 295.565 299.075,296.416 296.150,297.214 295.209 C 298.012 294.269,299.630 291.190,300.810 288.366 C 302.666 283.925,303.037 280.555,303.560 263.366 C 304.053 247.177,304.514 242.646,306.052 238.887 C 307.464 235.433,307.784 232.968,307.324 229.084 C 306.745 224.200,306.902 223.697,309.996 220.504 C 313.984 216.389,315.098 209.565,312.713 203.857 C 310.525 198.619,311.651 197.645,320.179 197.401 C 337.086 196.916,347.202 193.309,350.370 186.633 C 353.488 180.062,351.795 167.935,346.699 160.334 C 344.056 156.392,339.189 154.000,333.812 154.000 C 328.555 154.000,312.354 158.779,308.735 161.398 C 306.262 163.187,305.809 163.238,304.451 161.880 C 303.616 161.045,302.694 158.593,302.402 156.431 C 301.434 149.271,301.092 148.537,296.370 143.500 C 293.792 140.750,290.670 136.317,289.432 133.650 C 288.195 130.982,286.003 127.569,284.562 126.064 C 281.206 122.562,273.000 101.327,273.000 96.147 C 273.000 90.657,270.301 86.339,264.187 82.050 C 260.969 79.793,257.347 76.608,256.138 74.973 C 253.429 71.309,252.473 71.255,250.805 74.672 M87.050 189.526 C 88.672 190.365,90.000 191.253,90.000 191.500 C 90.000 192.562,83.851 195.000,81.172 195.000 C 77.696 195.000,71.000 192.377,71.000 191.015 C 71.000 188.351,82.682 187.267,87.050 189.526 M438.384 249.442 C 437.286 252.304,438.600 254.516,442.761 256.812 C 451.936 261.873,448.515 262.603,412.000 263.373 C 384.543 263.951,340.416 262.882,329.250 261.367 L 325.000 260.790 325.000 264.328 C 325.000 266.826,325.514 268.022,326.750 268.400 C 329.900 269.364,384.865 270.998,414.168 270.999 C 429.936 271.000,443.548 271.273,444.418 271.607 C 446.912 272.564,446.270 274.645,443.072 275.970 C 438.662 277.797,436.790 280.315,437.560 283.382 C 438.410 286.769,440.782 286.779,451.943 283.443 C 465.763 279.314,467.000 278.590,467.000 274.639 C 467.000 272.772,467.675 270.685,468.500 270.000 C 470.500 268.340,470.409 263.584,468.345 261.872 C 467.435 261.118,466.087 259.057,465.350 257.294 C 464.169 254.469,463.147 253.840,456.755 252.004 C 452.765 250.859,448.466 249.489,447.203 248.961 C 443.785 247.531,439.017 247.791,438.384 249.442 M198.635 283.073 C 193.453 287.149,196.432 293.336,205.687 297.718 C 209.574 299.559,213.288 302.681,218.805 308.744 C 223.037 313.397,229.340 319.437,232.812 322.167 C 236.283 324.897,238.948 327.664,238.735 328.315 C 238.084 330.300,232.394 330.228,227.822 328.177 C 220.113 324.719,218.704 324.505,203.500 324.485 C 186.436 324.462,145.894 322.506,129.500 320.914 C 123.450 320.327,106.125 319.496,91.000 319.068 C 68.190 318.422,62.824 317.991,59.536 316.542 C 52.021 313.229,42.971 316.935,43.015 323.306 C 43.047 327.885,46.478 329.775,57.000 331.009 C 60.575 331.428,67.325 332.528,72.000 333.454 C 79.062 334.854,80.923 335.635,83.000 338.071 C 85.306 340.776,86.152 341.046,93.904 341.538 C 98.526 341.832,102.660 342.290,103.091 342.556 C 103.522 342.822,107.615 343.481,112.187 344.021 C 121.566 345.127,135.708 348.780,147.314 353.095 C 151.612 354.693,155.662 356.010,156.314 356.022 C 156.966 356.034,158.625 356.913,160.000 357.975 C 162.202 359.675,162.321 360.070,161.000 361.290 C 159.230 362.924,149.756 366.000,146.492 366.000 C 142.406 366.000,128.769 369.169,124.080 371.209 C 121.561 372.304,116.445 373.595,112.712 374.078 C 97.804 376.004,93.014 377.218,88.483 380.219 C 84.323 382.975,83.241 383.228,76.183 383.100 C 69.998 382.988,67.200 383.465,62.242 385.480 C 58.831 386.866,54.943 388.000,53.603 388.000 C 50.545 388.000,42.923 391.219,40.687 393.456 C 38.438 395.704,38.518 401.254,40.829 403.345 C 43.843 406.073,48.838 405.410,58.500 400.997 C 63.373 398.771,69.524 398.176,84.000 398.527 C 100.173 398.919,110.161 397.822,125.000 394.023 C 131.434 392.375,136.691 392.069,162.000 391.870 L 191.500 391.637 195.713 394.427 C 200.315 397.474,203.162 397.562,212.304 394.936 C 216.426 393.752,217.232 393.758,217.984 394.974 C 219.437 397.325,217.293 399.828,209.691 404.653 C 205.736 407.163,201.150 410.482,199.500 412.028 C 197.424 413.972,194.619 415.203,190.395 416.021 C 182.939 417.465,182.736 417.589,180.261 422.233 C 173.856 434.246,187.529 438.193,201.225 428.285 C 203.824 426.404,208.484 423.976,211.580 422.887 C 214.676 421.799,218.175 420.301,219.355 419.559 C 220.535 418.816,222.625 417.883,224.000 417.485 C 225.375 417.087,228.750 415.718,231.500 414.443 C 236.391 412.176,239.315 411.378,251.500 408.987 C 265.980 406.146,276.212 400.031,281.920 390.807 C 283.889 387.625,286.175 385.014,287.000 385.004 C 291.521 384.950,307.874 389.553,310.750 391.689 C 315.022 394.861,320.265 397.003,323.718 396.987 C 328.823 396.963,344.687 391.287,346.815 388.723 C 347.451 387.956,347.920 385.066,347.858 382.299 C 347.770 378.395,348.333 376.404,350.372 373.403 C 355.204 366.292,352.776 357.038,344.180 349.805 C 340.396 346.621,330.791 343.635,326.550 344.323 C 318.963 345.555,300.190 349.899,297.264 351.100 C 293.075 352.819,292.275 351.976,290.429 343.895 C 289.625 340.378,288.480 336.286,287.884 334.802 C 285.576 329.054,264.069 314.137,255.725 312.495 C 254.198 312.195,251.273 310.468,249.225 308.659 C 245.468 305.340,233.625 297.339,229.000 294.996 C 227.625 294.300,223.575 291.358,220.000 288.460 C 214.706 284.167,212.400 282.986,207.566 282.095 C 204.303 281.493,201.551 281.000,201.451 281.000 C 201.351 281.000,200.084 281.933,198.635 283.073 " style="stroke: none; fill: black;">
                    </path></svg>