<svg id="svg-path" width="100%" height="100%" viewBox="0 0 512 512" version="1.1" xmlns="http://www.w3.org/2000/svg" style="fill-rule:evenodd;clip-rule:evenodd;stroke-linejoin:round;stroke-miterlimit:2;">
                        <path d="M53.156 63.529 C 52.061 64.921,50.858 67.881,50.482 70.107 C 49.931 73.369,50.182 74.578,51.775 76.328 C 52.863 77.523,54.904 80.300,56.312 82.500 C 57.719 84.700,60.645 88.427,62.813 90.783 C 65.633 93.847,67.229 96.836,68.420 101.283 C 69.336 104.702,71.151 110.200,72.453 113.500 C 78.413 128.604,80.085 134.200,81.529 143.867 C 83.151 154.719,82.613 159.417,79.449 162.042 C 77.224 163.889,77.725 168.519,80.507 171.826 C 84.746 176.863,88.885 187.005,89.965 195.000 C 92.263 212.014,92.692 218.778,91.837 224.525 C 91.348 227.811,90.893 240.175,90.826 252.000 C 90.705 273.206,90.739 273.569,93.265 278.546 C 95.146 282.250,95.991 285.840,96.442 292.046 C 97.218 302.705,98.528 309.206,102.137 320.307 C 103.987 325.999,105.000 331.230,105.000 335.096 C 105.000 340.726,105.229 341.304,108.881 344.884 C 112.299 348.233,112.911 349.574,114.000 356.094 C 119.006 386.049,120.487 391.926,125.617 402.173 L 127.956 406.847 125.978 416.103 C 122.659 431.633,123.930 458.168,128.211 462.724 C 131.802 466.547,136.439 465.825,141.632 460.632 L 146.000 456.263 146.000 437.599 C 146.000 418.749,145.567 415.992,141.784 410.763 C 140.741 409.323,140.907 408.300,142.756 404.763 C 143.981 402.419,145.420 397.350,145.953 393.500 C 146.486 389.650,147.599 382.900,148.426 378.500 C 149.253 374.100,149.946 367.113,149.965 362.973 C 150.012 352.940,151.095 351.474,159.132 350.565 C 166.389 349.744,172.954 346.666,179.461 341.034 C 186.918 334.580,190.085 335.899,189.867 345.369 C 189.750 350.426,190.158 351.654,193.654 356.768 C 197.617 362.567,198.510 364.283,201.316 371.500 C 204.309 379.199,205.222 383.243,204.698 386.477 C 204.100 390.158,206.162 404.713,208.455 413.000 C 210.736 421.247,210.450 423.496,206.571 427.790 C 202.218 432.608,201.369 435.879,203.435 439.875 C 204.314 441.575,205.317 445.031,205.663 447.555 C 206.112 450.834,206.962 452.584,208.639 453.683 C 211.828 455.773,214.767 454.831,219.933 450.062 L 224.265 446.062 223.605 439.781 C 223.242 436.327,222.424 430.268,221.789 426.318 C 220.907 420.837,220.915 417.286,221.823 411.318 C 223.439 400.703,223.311 393.058,221.352 383.188 C 219.741 375.075,219.750 374.812,221.721 372.188 C 224.004 369.149,227.974 368.806,236.000 370.953 C 240.803 372.239,245.493 371.901,258.500 369.332 C 268.423 367.372,271.413 365.881,274.262 361.473 C 276.412 358.144,279.393 356.265,281.500 356.909 C 291.387 359.930,294.326 360.162,309.756 359.137 C 321.529 358.355,327.770 357.422,334.500 355.437 C 342.809 352.986,344.537 352.819,357.000 353.258 C 368.262 353.654,371.826 354.185,378.500 356.459 C 385.956 359.000,387.285 359.146,398.034 358.613 C 404.377 358.298,413.279 357.336,417.816 356.475 C 424.273 355.251,427.293 355.138,431.716 355.955 C 441.353 357.737,443.159 357.384,451.122 352.160 C 460.678 345.891,465.500 339.417,465.500 332.855 C 465.500 329.615,464.896 327.542,463.503 326.003 C 460.290 322.453,454.982 323.678,444.960 330.282 C 440.201 333.418,433.057 337.026,428.627 338.531 C 421.224 341.046,420.330 341.137,413.627 340.063 C 409.707 339.435,401.607 338.279,395.626 337.494 C 381.449 335.634,379.094 334.100,377.585 325.742 C 376.518 319.834,373.679 318.536,365.019 319.997 C 357.118 321.329,348.000 320.542,348.000 318.527 C 348.000 316.856,351.935 315.399,360.000 314.085 C 363.575 313.503,369.063 311.686,372.195 310.049 C 376.187 307.963,381.421 306.472,389.695 305.065 C 396.188 303.961,406.000 301.418,411.500 299.416 C 426.176 294.072,435.007 294.517,451.218 301.417 C 455.927 303.422,459.940 303.431,462.777 301.443 C 464.539 300.210,464.999 298.912,464.996 295.193 C 464.991 289.178,462.109 284.379,457.228 282.263 C 453.142 280.492,433.536 280.073,410.500 281.266 C 403.900 281.608,381.400 281.919,360.500 281.957 C 326.978 282.019,320.793 282.281,308.018 284.181 C 293.841 286.289,293.352 286.297,284.795 284.568 C 277.245 283.042,275.366 282.978,270.999 284.097 C 266.829 285.166,264.416 285.156,257.222 284.040 C 252.425 283.296,243.909 282.420,238.297 282.094 C 232.666 281.766,227.574 280.978,226.932 280.335 C 226.049 279.450,226.147 278.129,227.340 274.835 C 228.203 272.451,229.428 267.800,230.062 264.500 C 230.695 261.200,232.715 254.637,234.550 249.916 C 236.386 245.195,238.184 238.895,238.547 235.916 C 239.527 227.877,242.696 215.818,246.041 207.397 C 250.368 196.503,249.724 191.847,243.343 187.903 C 238.951 185.188,236.533 186.090,232.919 191.789 C 229.788 196.725,229.193 201.698,230.984 207.943 C 232.247 212.348,230.813 217.160,224.112 231.000 C 221.315 236.775,218.735 243.075,218.377 245.000 C 216.760 253.690,209.588 263.707,201.653 268.358 C 196.183 271.563,190.632 279.631,188.481 287.500 C 186.226 295.751,183.574 298.000,176.099 298.000 C 168.138 298.000,166.486 296.167,167.323 288.262 C 167.659 285.093,168.635 280.452,169.493 277.949 C 170.895 273.857,170.899 272.964,169.526 269.074 C 166.492 260.475,167.542 258.975,177.253 258.024 C 182.075 257.552,185.659 256.617,187.328 255.396 C 191.033 252.684,193.140 246.704,193.635 237.500 C 193.884 232.855,195.189 225.796,196.747 220.666 L 199.430 211.833 196.965 207.186 C 195.042 203.562,193.290 201.918,189.000 199.715 C 183.971 197.132,182.838 196.935,175.761 197.413 C 168.266 197.919,168.003 197.861,167.429 195.574 C 166.334 191.211,170.045 180.906,174.422 176.158 L 178.448 171.791 178.170 161.645 C 177.873 150.747,178.930 146.244,184.424 135.000 C 188.498 126.663,193.941 113.358,196.626 105.173 C 197.948 101.143,200.758 95.293,202.871 92.173 C 208.482 83.884,210.000 80.536,210.000 76.451 C 210.000 71.867,207.419 66.321,204.351 64.310 C 202.223 62.916,201.762 62.926,199.500 64.408 C 198.125 65.309,197.000 66.484,197.000 67.020 C 197.000 67.556,195.444 69.717,193.542 71.822 C 189.013 76.834,188.003 79.745,187.988 87.815 C 187.978 93.178,187.318 96.007,184.649 102.120 C 182.819 106.311,180.318 111.149,179.091 112.872 C 177.864 114.595,175.156 119.267,173.073 123.253 C 167.871 133.207,166.420 133.258,161.155 123.665 C 158.209 118.297,155.736 115.260,152.285 112.772 C 146.244 108.417,140.078 106.000,135.007 106.000 C 129.958 106.000,120.802 110.318,115.839 115.039 C 112.197 118.503,112.000 119.007,112.000 124.856 C 112.000 131.420,114.378 148.044,116.200 154.218 C 117.579 158.889,116.119 161.000,111.512 161.000 C 108.233 161.000,103.000 157.777,103.000 155.757 C 103.000 155.153,101.709 151.699,100.130 148.080 C 97.223 141.414,96.119 137.669,92.974 123.799 C 92.013 119.564,89.654 113.264,87.731 109.799 C 79.811 95.529,74.183 83.224,73.559 78.813 C 72.891 74.085,69.965 68.807,65.211 63.750 C 61.694 60.009,56.007 59.905,53.156 63.529 " style="stroke: none; fill: black;">
                    </path></svg>