<svg id="svg-path" width="100%" height="100%" viewBox="0 0 512 512" version="1.1" xmlns="http://www.w3.org/2000/svg" style="fill-rule:evenodd;clip-rule:evenodd;stroke-linejoin:round;stroke-miterlimit:2;">
                        <path d="M166.531 90.250 C 157.843 109.896,155.769 116.197,156.215 121.582 C 156.571 125.871,157.295 127.712,159.584 130.152 C 163.158 133.960,171.896 139.720,175.122 140.395 C 176.430 140.668,186.275 142.977,197.000 145.526 C 207.725 148.075,217.512 150.357,218.750 150.599 C 221.780 151.190,221.582 153.294,218.006 158.491 C 210.011 170.112,211.705 185.508,223.924 212.251 C 227.506 220.092,227.555 225.035,224.183 238.500 C 222.530 245.100,220.431 256.505,219.519 263.843 C 217.953 276.432,217.957 277.295,219.585 279.093 C 220.534 280.142,221.767 281.000,222.326 281.000 C 222.885 281.000,224.113 281.697,225.054 282.549 C 226.658 284.001,226.561 284.514,223.492 290.799 C 221.693 294.484,219.894 299.075,219.495 301.000 C 218.004 308.203,207.711 332.558,203.920 337.851 C 201.764 340.862,200.000 344.052,200.000 344.940 C 200.000 346.888,185.001 376.651,181.116 382.413 C 176.550 389.185,175.552 392.505,177.020 396.048 C 178.172 398.830,178.062 399.331,175.749 401.798 C 174.355 403.284,172.083 406.750,170.700 409.500 C 166.555 417.744,162.420 422.749,159.166 423.463 C 155.395 424.292,148.000 431.070,148.000 433.699 C 148.000 436.741,152.214 442.351,155.320 443.443 C 159.022 444.746,162.972 442.553,170.584 434.971 C 173.838 431.730,177.691 428.811,179.146 428.483 C 182.458 427.737,184.632 425.375,185.573 421.500 C 187.126 415.107,191.084 408.101,194.811 405.150 C 198.274 402.407,209.302 387.100,213.291 379.500 C 218.420 369.727,243.540 347.402,256.716 340.907 C 265.684 336.487,267.586 337.391,277.944 351.000 C 293.453 371.377,302.295 386.488,308.576 403.351 C 312.027 412.615,314.945 416.000,319.481 416.000 C 323.684 416.000,325.970 418.647,326.819 424.499 C 327.447 428.819,327.849 429.356,331.949 431.343 C 335.620 433.123,336.644 434.255,337.805 437.820 C 338.580 440.196,340.896 443.909,342.952 446.070 C 346.066 449.343,347.347 450.000,350.623 450.000 C 352.785 450.000,355.521 449.324,356.701 448.497 C 359.191 446.753,361.416 440.834,360.548 438.266 C 360.219 437.295,356.396 432.754,352.052 428.176 C 343.801 419.480,339.000 410.570,339.000 403.950 C 339.000 402.284,338.146 399.247,337.102 397.201 C 336.059 395.155,333.563 389.211,331.556 383.991 C 325.973 369.468,323.911 364.726,321.992 362.000 C 320.020 359.199,309.561 328.619,308.535 322.656 C 308.172 320.542,306.461 316.042,304.734 312.656 C 302.919 309.098,301.301 304.055,300.901 300.706 C 300.277 295.495,299.681 294.355,294.958 289.362 L 289.708 283.811 293.854 280.021 C 297.370 276.807,298.000 275.633,298.000 272.299 C 298.000 270.137,298.479 265.777,299.064 262.612 C 299.896 258.109,299.794 254.910,298.591 247.909 C 295.992 232.779,298.170 222.411,306.856 208.573 C 310.975 202.011,316.370 186.652,317.476 178.337 C 318.283 172.279,317.866 171.323,310.097 161.436 C 307.019 157.518,303.375 152.805,302.000 150.961 C 300.625 149.118,298.262 146.175,296.750 144.423 C 289.553 136.082,297.728 133.114,307.458 140.536 C 309.345 141.975,313.094 143.461,316.140 143.977 C 319.088 144.477,325.325 145.593,330.000 146.457 C 334.675 147.322,342.100 148.683,346.500 149.483 C 350.900 150.282,355.857 151.211,357.516 151.546 C 365.643 153.190,373.642 136.818,374.709 116.357 C 375.469 101.785,375.666 101.930,349.000 97.542 C 340.475 96.139,331.062 94.543,328.083 93.996 C 320.363 92.577,313.458 92.743,312.100 94.380 C 310.454 96.363,305.425 111.660,304.595 117.207 C 303.083 127.306,298.726 128.314,290.339 120.503 C 287.680 118.026,284.671 116.000,283.653 116.000 C 282.635 116.000,280.509 117.385,278.928 119.077 L 276.053 122.154 266.777 121.484 C 258.923 120.916,256.886 120.391,253.500 118.058 C 248.618 114.695,244.893 113.907,239.014 114.991 C 232.520 116.188,231.000 115.036,231.000 108.917 C 231.000 101.484,229.038 100.135,211.815 95.728 C 203.942 93.713,193.249 90.925,188.053 89.532 C 182.857 88.140,176.212 87.000,173.287 87.000 C 168.247 87.000,167.892 87.171,166.531 90.250 M234.999 128.499 C 236.652 130.490,234.919 134.746,230.880 138.615 C 227.272 142.071,225.808 140.727,227.104 135.148 C 227.571 133.142,227.963 131.195,227.976 130.821 C 228.018 129.629,231.096 127.000,232.449 127.000 C 233.167 127.000,234.315 127.675,234.999 128.499 M269.456 132.417 C 272.581 133.723,273.089 134.365,272.819 136.670 C 272.414 140.117,268.704 141.200,258.696 140.793 C 252.245 140.530,251.469 140.281,251.199 138.388 C 251.028 137.196,252.090 134.858,253.636 133.021 C 256.188 129.988,256.696 129.804,261.075 130.322 C 263.660 130.629,267.431 131.571,269.456 132.417 " style="stroke: none; fill: black;">
                    </path></svg>