<svg id="svg-path" width="100%" height="100%" viewBox="0 0 512 512" version="1.1" xmlns="http://www.w3.org/2000/svg" style="fill-rule:evenodd;clip-rule:evenodd;stroke-linejoin:round;stroke-miterlimit:2;">
                        <path d="M262.388 143.980 C 260.113 144.899,249.839 156.088,247.045 160.689 C 244.677 164.589,244.018 169.741,245.141 175.560 C 246.500 182.600,243.045 221.713,240.745 225.332 C 236.358 232.233,233.000 246.620,233.000 258.518 C 233.000 263.340,233.399 264.553,235.764 266.918 C 238.525 269.679,245.033 272.250,252.400 273.490 C 258.751 274.560,261.486 278.178,262.844 287.308 C 264.481 298.317,264.330 310.462,262.511 313.979 C 260.944 317.008,259.972 317.499,253.500 318.531 C 239.788 320.716,236.662 325.437,237.296 343.000 C 237.697 354.093,239.083 357.601,244.084 360.177 C 247.469 361.921,248.091 361.937,255.244 360.458 C 261.991 359.062,263.401 359.053,268.159 360.372 C 276.919 362.802,295.773 364.283,301.544 362.995 C 311.554 360.762,313.943 356.933,312.139 346.014 C 310.919 338.622,310.781 322.977,311.857 314.000 C 313.091 303.718,309.010 283.581,304.267 276.543 C 301.936 273.083,301.565 271.562,301.693 266.000 C 301.878 257.916,304.976 246.151,308.865 238.756 C 313.968 229.056,317.600 216.385,319.544 201.501 C 320.493 194.235,322.898 188.602,330.048 176.900 C 334.982 168.823,336.385 165.667,336.329 162.771 C 336.187 155.367,330.416 151.000,320.775 151.000 C 317.793 151.000,311.609 149.879,307.033 148.510 C 299.068 146.126,298.468 146.083,292.962 147.510 C 284.992 149.575,283.410 149.422,277.346 146.000 C 271.943 142.951,266.691 142.241,262.388 143.980 M305.068 184.126 C 306.976 187.693,304.798 191.000,300.540 191.000 C 297.675 191.000,296.928 190.562,296.434 188.593 C 296.102 187.269,296.334 185.244,296.950 184.093 C 298.487 181.221,303.524 181.241,305.068 184.126 M185.500 259.118 C 178.950 262.901,176.629 268.447,179.373 273.755 C 181.056 277.009,192.658 288.132,197.500 291.133 C 202.395 294.167,207.598 293.602,211.600 289.600 C 215.197 286.003,215.903 282.504,214.027 277.571 C 212.963 274.772,204.565 265.948,198.966 261.745 C 194.893 258.688,188.429 257.427,185.500 259.118 M190.500 309.533 C 187.750 310.291,185.252 310.932,184.949 310.956 C 184.646 310.980,181.671 312.772,178.339 314.937 C 165.842 323.057,162.943 328.567,167.189 336.123 C 170.177 341.439,173.895 343.286,181.272 343.120 L 187.155 342.987 193.173 349.446 C 198.322 354.974,199.826 356.001,203.597 356.567 C 208.864 357.357,210.626 356.384,219.891 347.576 C 227.759 340.097,232.000 334.430,232.000 331.397 C 232.000 325.229,225.738 319.792,216.713 318.124 C 210.350 316.948,208.120 315.942,203.000 311.939 C 198.313 308.275,196.397 307.906,190.500 309.533 " style="stroke: none; fill: black;">
                    </path></svg>