<svg id="svg-path" width="100%" height="100%" viewBox="0 0 512 512" version="1.1" xmlns="http://www.w3.org/2000/svg" style="fill-rule:evenodd;clip-rule:evenodd;stroke-linejoin:round;stroke-miterlimit:2;">
                        <path d="M216.500 179.832 C 204.969 182.464,189.348 188.327,175.100 195.370 C 162.495 201.601,154.239 208.131,147.752 217.000 C 143.226 223.187,132.767 242.117,131.802 245.867 C 127.748 261.623,126.003 272.718,126.001 282.750 C 126.000 293.244,124.539 296.000,118.978 296.000 C 113.644 296.000,104.000 306.603,104.000 312.468 C 104.000 315.234,107.793 318.000,111.587 318.000 C 114.595 318.000,116.167 317.054,121.337 312.128 C 125.069 308.572,129.078 305.766,131.500 305.013 C 133.700 304.329,137.425 302.922,139.777 301.885 C 145.794 299.233,149.098 299.501,153.500 303.000 C 158.672 307.110,163.214 307.408,168.062 303.956 C 169.631 302.839,172.602 301.341,174.666 300.626 C 177.316 299.709,179.058 298.178,180.598 295.414 C 184.691 288.068,191.091 288.407,194.736 296.163 C 195.860 298.552,198.854 303.268,201.389 306.641 C 203.925 310.014,206.000 313.783,206.000 315.016 C 206.000 316.248,204.589 319.722,202.865 322.736 C 199.106 329.306,196.709 330.484,185.124 331.456 L 176.748 332.159 169.482 324.580 C 165.485 320.411,161.561 317.000,160.762 317.000 C 158.945 317.000,156.316 319.859,154.157 324.181 C 153.116 326.267,150.829 328.352,148.000 329.794 C 144.884 331.382,142.487 333.691,140.206 337.304 C 138.394 340.174,135.372 343.577,133.490 344.866 C 129.101 347.874,116.437 351.233,112.500 350.433 C 108.578 349.637,99.494 343.684,97.458 340.576 C 95.590 337.725,96.418 335.429,101.100 330.473 C 107.126 324.096,105.200 317.000,97.444 317.000 C 93.382 317.000,89.656 320.402,85.842 327.591 L 83.586 331.845 85.832 336.673 C 87.402 340.047,88.019 343.079,87.881 346.746 C 87.643 353.048,88.740 354.517,96.946 358.890 C 101.216 361.167,104.108 362.000,107.735 362.000 C 111.420 362.000,113.154 362.513,114.500 364.000 C 115.495 365.100,117.197 366.000,118.281 366.000 C 120.619 366.000,131.211 360.786,135.583 357.483 C 137.278 356.201,140.420 354.824,142.564 354.422 C 146.505 353.683,149.110 351.522,154.270 344.712 L 157.040 341.057 165.743 341.520 C 170.530 341.775,175.822 342.637,177.504 343.435 C 181.155 345.167,192.509 347.126,194.492 346.365 C 195.264 346.069,197.052 344.309,198.467 342.455 C 200.260 340.104,202.167 338.880,204.769 338.410 C 210.468 337.381,211.817 336.351,216.068 329.773 C 220.663 322.663,220.936 319.901,217.453 315.761 C 215.096 312.960,214.954 312.238,215.559 306.103 L 216.212 299.472 211.215 294.986 C 208.467 292.519,204.093 288.737,201.496 286.582 L 196.775 282.664 197.434 275.582 C 198.391 265.308,199.502 262.733,204.961 258.130 C 211.068 252.981,212.073 252.608,226.980 249.963 C 236.429 248.286,241.989 247.886,251.827 248.173 C 264.107 248.532,264.779 248.668,273.500 252.569 C 290.354 260.110,303.958 270.698,311.649 282.263 C 316.144 289.021,316.464 289.927,316.481 295.947 C 316.499 302.205,316.397 302.463,313.000 304.764 C 311.075 306.068,307.363 309.073,304.750 311.442 C 300.259 315.514,300.000 316.030,300.000 320.884 C 300.000 325.224,299.536 326.504,297.000 329.157 C 295.239 331.000,294.000 333.371,294.001 334.898 C 294.002 338.280,299.096 348.947,301.904 351.445 C 303.865 353.191,304.549 353.268,308.571 352.192 C 312.678 351.094,313.468 351.203,317.993 353.497 C 320.710 354.874,323.362 356.000,323.885 356.000 C 324.408 356.000,327.209 353.975,330.109 351.500 C 336.350 346.173,337.809 346.028,348.205 349.707 C 355.337 352.231,356.194 352.331,359.705 351.052 C 361.792 350.292,365.430 349.766,367.790 349.883 C 371.185 350.052,373.637 349.237,379.548 345.973 C 386.220 342.291,387.363 341.959,390.259 342.864 C 392.041 343.422,396.975 344.415,401.223 345.072 C 410.853 346.561,413.361 345.396,414.391 338.956 C 414.874 335.933,416.019 333.927,418.530 331.704 C 421.971 328.658,421.999 328.564,421.900 320.566 C 421.758 309.071,421.247 307.819,415.959 306.010 C 412.204 304.726,411.144 303.741,409.243 299.768 C 406.809 294.682,408.090 295.330,391.746 290.928 C 387.259 289.720,385.345 287.090,384.074 280.389 C 382.141 270.198,373.590 252.513,365.530 242.038 C 359.890 234.710,353.162 228.689,332.500 212.483 C 319.894 202.596,313.936 198.677,304.416 194.011 C 290.399 187.142,287.810 186.209,271.000 181.976 C 260.027 179.212,256.424 178.778,241.500 178.417 C 227.556 178.081,223.062 178.335,216.500 179.832 M384.072 301.446 C 386.170 303.342,389.825 305.391,392.193 306.000 C 406.108 309.580,406.762 309.877,407.902 313.149 C 409.267 317.065,409.310 322.055,408.006 325.483 C 405.977 330.820,395.185 332.628,387.141 328.978 C 384.743 327.890,382.099 327.000,381.264 327.000 C 380.429 327.000,376.357 328.871,372.214 331.158 C 363.479 335.979,359.308 336.456,350.894 333.592 C 346.403 332.063,344.507 331.882,341.360 332.681 C 339.200 333.229,336.547 333.332,335.466 332.909 C 334.385 332.486,331.908 332.109,329.962 332.070 C 326.953 332.011,325.860 332.674,322.662 336.500 C 318.410 341.587,315.277 342.287,312.089 338.865 C 307.629 334.078,308.723 328.234,315.249 321.995 C 319.738 317.703,323.012 316.120,334.000 312.928 C 339.225 311.411,348.000 308.390,353.500 306.216 C 377.898 296.572,378.563 296.469,384.072 301.446 " style="stroke: none; fill: black;">
                    </path></svg>