<svg id="svg-path" width="100%" height="100%" viewBox="0 0 512 512" version="1.1" xmlns="http://www.w3.org/2000/svg" style="fill-rule:evenodd;clip-rule:evenodd;stroke-linejoin:round;stroke-miterlimit:2;">
                        <path d="M203.500 269.396 C 192.382 273.190,173.315 279.000,171.982 279.000 C 171.149 279.000,164.309 280.551,156.781 282.447 C 138.799 286.976,106.906 289.979,95.115 288.253 C 90.927 287.641,86.713 286.835,85.750 286.463 C 84.574 286.008,84.000 286.264,84.000 287.245 C 84.000 289.586,96.170 292.455,106.000 292.430 C 121.743 292.391,140.199 290.268,152.822 287.045 C 157.334 285.893,164.057 284.338,167.763 283.590 C 171.468 282.841,178.325 281.001,183.000 279.501 C 202.580 273.218,204.544 272.772,213.000 272.681 L 221.500 272.590 237.000 280.633 C 252.251 288.546,255.046 289.669,270.004 293.895 C 277.108 295.903,277.987 295.940,286.504 294.603 C 291.452 293.826,297.975 292.290,301.000 291.189 C 304.025 290.088,310.100 288.647,314.500 287.987 C 318.900 287.327,324.744 286.115,327.486 285.296 C 330.229 284.476,334.504 283.426,336.986 282.964 C 339.469 282.502,345.325 281.165,350.000 279.994 C 354.675 278.823,361.482 277.783,365.127 277.682 C 371.381 277.510,372.072 277.725,377.401 281.500 C 390.635 290.874,396.359 292.604,411.249 291.730 C 420.751 291.172,428.811 288.997,439.000 284.241 C 442.025 282.829,446.502 281.141,448.949 280.489 C 451.396 279.838,453.571 278.786,453.783 278.152 C 454.511 275.966,447.219 276.963,440.820 279.924 C 426.334 286.626,419.338 288.397,407.500 288.359 C 394.199 288.315,389.437 286.735,379.811 279.170 C 373.628 274.311,372.888 274.000,367.505 274.000 C 362.522 274.000,350.544 276.300,328.500 281.490 C 325.200 282.266,317.968 283.601,312.428 284.456 C 306.814 285.322,300.396 287.003,297.928 288.253 C 294.015 290.236,291.987 290.497,280.500 290.499 C 272.322 290.499,265.645 289.976,262.500 289.087 C 259.750 288.310,249.026 283.452,238.670 278.292 C 222.373 270.172,219.010 268.851,213.670 268.471 C 209.927 268.204,205.926 268.569,203.500 269.396 " style="stroke: none; fill: black;">
                    </path></svg>