<svg id="svg-path" width="100%" height="100%" viewBox="0 0 512 512" version="1.1" xmlns="http://www.w3.org/2000/svg" style="fill-rule:evenodd;clip-rule:evenodd;stroke-linejoin:round;stroke-miterlimit:2;">
                        <path d="M209.515 133.081 C 204.148 135.117,202.210 137.076,198.878 143.834 C 196.944 147.756,196.784 149.373,197.199 160.863 C 197.618 172.468,197.894 173.962,200.406 178.249 C 204.695 185.568,203.700 187.073,191.981 190.989 C 184.862 193.367,181.270 196.295,174.177 205.500 C 171.634 208.800,168.487 212.625,167.183 214.000 C 165.879 215.375,162.341 220.208,159.321 224.740 C 153.627 233.284,148.067 238.846,139.500 244.570 C 136.750 246.407,132.250 249.499,129.500 251.441 C 126.750 253.382,122.250 256.090,119.500 257.458 C 113.560 260.414,109.473 265.766,110.384 269.396 C 111.087 272.195,116.644 276.000,120.030 276.000 C 121.292 276.000,124.181 274.912,126.449 273.582 C 128.718 272.253,133.483 270.424,137.037 269.519 C 140.592 268.613,147.951 265.664,153.391 262.965 C 158.832 260.265,163.669 258.296,164.141 258.587 C 165.512 259.434,165.148 261.635,163.049 265.193 C 161.976 267.012,159.918 271.635,158.476 275.467 C 156.314 281.211,155.966 283.405,156.495 287.967 C 157.124 293.405,157.048 293.624,152.068 300.713 C 149.280 304.680,147.000 308.193,147.000 308.520 C 147.000 308.847,144.975 313.362,142.500 318.553 C 140.025 323.745,138.000 328.483,138.000 329.084 C 138.000 329.684,136.468 332.948,134.595 336.338 C 132.723 339.727,130.238 346.029,129.073 350.343 C 126.650 359.317,124.758 363.443,121.435 367.003 C 118.208 370.461,111.412 385.578,110.733 390.811 C 110.426 393.182,109.133 396.641,107.861 398.498 C 105.262 402.291,96.339 408.422,87.836 412.256 C 84.721 413.661,81.685 415.721,81.089 416.833 C 77.323 423.871,89.501 426.486,100.500 421.000 C 105.449 418.532,107.731 418.007,113.527 418.004 C 122.232 417.999,124.564 416.589,125.518 410.756 C 125.941 408.169,127.698 404.539,129.997 401.500 C 132.078 398.750,135.152 393.755,136.829 390.399 C 138.506 387.043,140.955 382.993,142.272 381.399 C 143.588 379.805,146.517 375.057,148.781 370.850 C 155.643 358.093,159.143 352.760,164.506 346.892 C 167.325 343.808,170.820 338.773,172.274 335.704 C 175.462 328.970,182.799 321.000,185.810 321.000 C 188.326 321.000,188.517 321.633,190.183 335.500 C 191.661 347.802,192.077 425.875,190.693 431.166 C 189.889 434.239,190.082 435.396,191.882 438.310 C 193.064 440.222,195.578 442.966,197.469 444.409 C 199.948 446.299,201.400 448.592,202.670 452.621 C 203.989 456.805,205.543 459.189,208.856 462.105 C 213.858 466.507,217.165 467.030,219.443 463.777 C 221.519 460.813,221.428 459.808,218.502 453.412 C 215.126 446.031,212.000 436.574,212.000 433.743 C 212.000 432.467,212.971 429.640,214.158 427.461 C 216.696 422.801,217.629 414.965,221.949 362.000 C 222.420 356.225,223.704 347.000,224.803 341.500 C 225.902 336.000,227.558 326.325,228.482 320.000 C 230.412 306.787,231.040 304.008,235.028 291.000 C 236.630 285.775,238.530 279.250,239.250 276.500 C 240.226 272.772,241.077 271.425,242.597 271.204 C 244.882 270.873,245.368 271.682,252.383 287.500 C 254.822 293.000,258.147 298.850,259.771 300.500 C 263.048 303.829,266.000 309.043,266.000 311.501 C 266.000 313.892,272.388 316.206,276.735 315.390 C 280.983 314.593,285.000 310.698,285.000 307.376 C 285.000 306.094,283.907 302.672,282.570 299.772 C 279.298 292.672,270.393 266.949,268.628 259.500 C 267.847 256.200,266.235 251.353,265.047 248.728 C 262.499 243.099,262.577 236.282,265.207 234.634 C 266.446 233.857,268.092 233.931,271.207 234.904 C 273.568 235.641,280.450 236.455,286.500 236.713 C 292.550 236.971,298.064 237.648,298.753 238.217 C 299.443 238.785,301.395 243.807,303.090 249.375 C 308.620 267.531,310.178 271.405,314.717 278.279 C 320.000 286.281,324.658 289.753,331.292 290.633 C 338.318 291.565,339.232 292.875,338.443 300.884 C 337.846 306.940,338.102 308.340,341.343 316.730 C 343.298 321.792,345.197 327.636,345.564 329.717 C 346.848 336.995,351.317 346.554,356.449 353.000 C 363.161 361.429,367.270 366.778,371.266 372.286 C 373.045 374.737,378.706 382.286,383.848 389.062 C 388.989 395.839,393.610 402.534,394.118 403.941 C 394.626 405.349,395.445 407.400,395.938 408.500 C 398.026 413.156,399.121 418.020,400.010 426.594 C 400.529 431.604,401.536 437.457,402.246 439.601 L 403.538 443.500 412.019 443.182 C 417.962 442.959,421.202 442.361,422.846 441.182 C 427.013 438.194,429.595 429.762,430.341 416.701 C 431.047 404.324,430.732 402.842,425.939 396.000 C 424.975 394.625,423.911 391.874,423.574 389.887 C 422.915 386.003,412.596 361.547,409.423 356.350 C 408.365 354.617,405.599 350.420,403.275 347.023 C 399.762 341.888,399.081 340.124,399.236 336.560 C 399.362 333.667,398.637 330.792,397.004 327.715 C 394.637 323.252,394.612 322.947,395.803 313.328 C 397.300 301.232,397.375 280.901,395.933 277.797 C 395.347 276.534,392.096 273.700,388.711 271.500 L 382.555 267.500 379.503 257.113 C 376.464 246.766,376.432 246.712,371.329 243.438 C 365.356 239.605,359.377 232.232,358.081 227.100 C 357.581 225.120,356.727 220.482,356.183 216.792 C 355.204 210.155,355.235 210.003,359.072 202.292 C 365.916 188.541,365.355 185.000,356.332 185.000 C 350.754 185.000,348.521 182.156,350.014 176.953 C 351.331 172.360,351.258 166.271,349.812 160.005 C 348.509 154.361,345.674 152.000,340.200 152.000 C 338.606 152.000,335.321 150.658,332.900 149.018 C 329.055 146.412,327.609 146.034,321.432 146.018 C 305.357 145.977,292.769 152.055,287.681 162.315 C 284.665 168.398,283.086 169.150,279.136 166.383 C 277.866 165.493,273.338 163.060,269.075 160.977 C 262.867 157.943,260.606 156.190,257.717 152.169 C 255.618 149.248,252.101 146.013,249.305 144.433 C 246.662 142.939,242.025 140.032,239.000 137.974 C 235.975 135.915,231.758 133.503,229.628 132.615 C 224.566 130.504,215.773 130.707,209.515 133.081 M253.971 166.485 C 257.633 168.379,260.287 172.183,262.360 178.511 C 264.302 184.438,266.103 186.502,277.723 196.116 C 291.002 207.103,294.000 210.153,294.000 212.680 C 294.000 216.077,289.867 218.378,285.254 217.550 C 278.980 216.423,261.791 211.093,259.420 209.540 C 256.244 207.459,251.210 198.198,250.406 192.957 C 250.030 190.506,249.109 187.285,248.361 185.800 C 246.961 183.022,246.406 166.927,247.667 165.667 C 248.728 164.606,250.876 164.884,253.971 166.485 " style="stroke: none; fill: black;">
                    </path></svg>