<svg id="svg-path" width="100%" height="100%" viewBox="0 0 512 512" version="1.1" xmlns="http://www.w3.org/2000/svg" style="fill-rule:evenodd;clip-rule:evenodd;stroke-linejoin:round;stroke-miterlimit:2;">
                        <path d="M211.000 78.649 C 210.175 78.977,208.150 80.469,206.500 81.965 C 204.850 83.461,202.039 85.260,200.254 85.962 C 197.687 86.972,196.778 88.102,195.904 91.370 C 195.296 93.641,194.383 96.559,193.874 97.854 C 193.365 99.149,192.933 104.610,192.914 109.991 C 192.869 122.670,194.210 126.029,200.676 129.425 C 210.687 134.681,213.379 137.189,215.279 143.031 C 217.407 149.575,221.373 153.549,226.669 154.444 C 232.174 155.374,233.105 156.205,234.164 161.128 C 236.157 170.401,236.272 175.970,234.594 181.950 C 233.122 187.196,232.602 199.862,233.114 217.973 C 233.160 219.595,232.033 221.431,229.842 223.306 C 216.104 235.063,210.995 242.454,211.044 250.500 C 211.058 252.700,212.433 258.325,214.100 263.000 C 220.152 279.965,227.113 301.609,228.032 306.315 C 229.514 313.899,227.613 317.240,219.691 320.984 C 210.811 325.179,204.991 333.935,209.250 336.691 C 210.731 337.649,224.620 338.188,241.942 337.959 C 255.665 337.777,257.921 337.020,260.048 331.884 C 262.725 325.422,257.905 284.769,252.918 271.736 C 250.255 264.777,250.867 263.704,258.365 262.199 C 265.134 260.839,290.745 250.822,297.996 246.698 C 307.524 241.278,311.986 234.798,315.133 221.810 C 318.096 209.581,317.437 203.603,311.900 192.500 C 309.432 187.550,306.365 180.350,305.084 176.500 C 301.958 167.101,294.365 150.491,290.799 145.253 C 289.209 142.918,284.147 136.977,279.549 132.052 C 274.951 127.128,270.142 121.002,268.862 118.439 C 266.343 113.394,262.383 109.639,260.389 110.404 C 259.703 110.667,257.604 111.171,255.725 111.524 C 251.336 112.347,249.749 110.790,247.414 103.366 C 244.923 95.447,236.336 86.336,227.219 81.939 C 220.681 78.785,214.043 77.439,211.000 78.649 M270.500 355.484 C 268.300 356.807,263.658 358.344,260.184 358.900 C 254.806 359.760,244.455 362.711,226.572 368.482 C 223.051 369.618,221.512 369.452,211.688 366.875 C 195.812 362.709,182.864 362.917,178.474 367.408 C 170.989 375.064,164.083 383.485,162.355 387.061 C 155.934 400.352,153.785 414.162,156.401 425.312 C 157.281 429.059,158.000 433.425,158.000 435.015 C 158.000 439.109,159.982 443.018,163.736 446.329 C 165.711 448.070,167.386 450.804,168.034 453.341 C 169.666 459.730,172.911 467.468,176.005 472.346 C 181.075 480.342,195.093 484.589,202.970 480.516 C 206.251 478.819,211.417 472.671,215.355 465.777 C 218.145 460.892,224.826 456.000,228.706 456.000 C 229.823 456.000,235.520 458.475,241.367 461.500 C 250.066 466.001,252.898 467.000,256.962 467.000 C 261.613 467.000,262.327 466.635,268.209 461.250 C 279.583 450.837,281.000 449.242,281.007 446.850 C 281.016 443.549,283.664 439.901,290.622 433.604 C 295.281 429.388,297.561 426.247,300.763 419.636 C 303.823 413.318,305.682 410.699,307.933 409.535 C 311.119 407.887,312.704 404.221,311.513 401.252 C 311.126 400.289,310.474 395.591,310.063 390.814 C 309.469 383.901,308.597 380.635,305.794 374.814 C 303.856 370.791,302.004 365.757,301.678 363.626 C 300.487 355.841,295.529 352.985,283.300 353.039 C 275.823 353.072,273.899 353.440,270.500 355.484 " style="stroke: none; fill: black;">
                    </path></svg>