<svg id="svg-path" width="100%" height="100%" viewBox="0 0 512 512" version="1.1" xmlns="http://www.w3.org/2000/svg" style="fill-rule:evenodd;clip-rule:evenodd;stroke-linejoin:round;stroke-miterlimit:2;">
                        <path d="M222.000 63.260 C 220.625 63.879,217.331 65.398,214.679 66.636 C 209.458 69.075,203.144 70.496,193.074 71.499 C 185.324 72.271,180.111 74.763,177.737 78.831 C 176.767 80.493,174.292 82.862,172.237 84.094 C 160.956 90.859,155.002 96.226,150.344 103.828 C 147.759 108.048,145.056 112.203,144.337 113.062 C 142.909 114.769,138.989 135.986,139.018 141.849 C 139.029 143.857,139.687 149.177,140.482 153.672 C 141.726 160.703,141.735 163.076,140.546 170.672 C 139.786 175.527,138.857 182.425,138.482 186.000 C 137.766 192.818,136.230 200.475,133.067 213.000 C 132.025 217.125,130.866 222.740,130.491 225.478 C 130.116 228.216,128.534 234.291,126.975 238.978 C 122.781 251.586,121.785 258.908,122.143 274.499 C 122.438 287.380,122.274 288.951,120.095 294.136 C 117.026 301.439,117.673 304.252,122.904 306.345 C 127.108 308.027,130.000 311.280,130.000 314.327 C 130.000 316.396,140.379 327.041,145.357 330.076 C 149.754 332.757,152.016 332.503,159.277 328.512 C 164.178 325.818,165.894 325.294,166.812 326.212 C 167.465 326.865,167.998 327.872,167.995 328.450 C 167.990 329.558,161.396 342.792,159.998 344.500 C 158.679 346.110,156.000 357.466,156.000 361.444 C 156.000 365.798,158.247 370.527,161.022 372.012 C 162.542 372.825,163.870 372.681,166.546 371.411 C 170.919 369.336,172.426 367.222,175.001 359.548 C 177.654 351.642,178.585 350.185,180.049 351.649 C 180.829 352.429,181.156 359.733,181.102 375.140 C 180.998 404.645,183.206 426.614,187.653 440.341 C 190.759 449.928,198.373 455.643,209.413 456.674 C 220.001 457.663,222.043 455.650,235.965 430.500 C 243.053 417.694,244.482 415.271,246.867 412.000 C 250.846 406.543,254.194 404.075,257.673 404.036 C 263.118 403.974,266.749 408.827,274.477 426.500 C 281.195 441.862,288.598 453.421,294.830 458.279 C 297.592 460.431,299.392 461.000,303.439 461.000 C 308.964 461.000,311.135 459.922,317.335 454.101 C 322.524 449.228,324.493 445.058,326.393 434.922 C 328.333 424.566,328.610 398.996,326.818 395.684 C 325.068 392.450,323.115 380.482,323.035 372.500 C 322.958 364.726,321.087 354.776,317.906 345.217 C 315.520 338.048,315.934 334.000,319.052 334.000 C 321.403 334.000,329.751 338.070,335.543 342.040 C 337.767 343.564,341.586 345.350,344.030 346.008 C 346.912 346.784,349.533 348.423,351.487 350.671 C 363.949 365.009,366.653 366.850,373.390 365.587 C 376.935 364.922,381.371 360.836,382.460 357.234 C 383.913 352.428,378.167 341.178,371.993 336.740 C 369.896 335.233,367.577 333.985,366.840 333.966 C 362.037 333.844,349.520 323.800,332.853 306.694 C 326.524 300.198,325.998 299.133,322.971 286.660 C 320.480 276.395,314.577 263.235,309.891 257.500 C 308.094 255.300,302.883 249.873,298.312 245.441 L 290.000 237.382 290.000 217.350 C 290.000 202.473,290.383 196.055,291.489 192.409 C 292.308 189.709,292.983 186.107,292.989 184.405 C 292.999 181.567,295.494 178.000,297.469 178.000 C 297.916 178.000,300.258 178.987,302.674 180.194 C 308.343 183.025,311.300 187.859,318.472 206.018 C 323.655 219.141,330.140 230.756,333.938 233.718 C 334.797 234.388,336.907 234.951,338.628 234.968 C 343.558 235.018,344.258 236.782,344.659 250.169 C 344.985 261.074,345.293 262.783,347.760 267.388 C 351.300 273.994,354.363 274.768,356.521 269.604 C 357.334 267.657,358.000 264.284,358.000 262.108 C 358.000 259.933,358.530 255.858,359.177 253.054 C 360.740 246.284,358.688 222.861,355.843 215.000 C 354.749 211.975,353.035 207.215,352.034 204.421 C 351.034 201.628,349.267 197.484,348.108 195.211 C 345.096 189.308,345.313 184.401,348.705 181.674 C 354.177 177.275,361.192 169.365,363.936 164.500 C 369.269 155.048,371.224 147.039,370.843 136.217 C 370.522 127.110,370.292 126.201,367.191 121.734 C 362.771 115.368,360.956 113.793,354.269 110.518 C 348.271 107.581,345.780 107.494,327.865 109.595 L 322.230 110.256 318.365 105.059 C 313.643 98.709,305.162 93.332,297.690 91.950 C 294.669 91.392,288.991 89.375,285.072 87.468 C 281.153 85.560,277.397 83.996,276.724 83.990 C 274.481 83.972,265.551 79.303,261.500 76.030 C 257.303 72.639,249.914 68.508,244.000 66.246 C 232.550 61.866,226.826 61.089,222.000 63.260 M216.999 198.695 C 219.198 204.671,222.046 208.154,229.789 214.332 C 237.715 220.655,241.054 226.392,239.190 230.482 C 238.523 231.945,236.938 233.168,235.284 233.494 C 225.419 235.441,218.076 237.529,215.341 239.163 C 209.430 242.695,200.340 253.615,194.607 264.070 C 191.523 269.694,189.000 274.499,189.000 274.748 C 189.000 274.997,186.591 279.993,183.648 285.851 C 180.704 291.708,178.001 297.716,177.640 299.203 C 177.280 300.689,175.917 303.148,174.610 304.667 C 172.526 307.089,171.933 307.290,169.771 306.305 C 168.416 305.688,165.176 302.348,162.571 298.883 C 157.152 291.674,157.118 291.202,160.757 274.000 C 161.862 268.775,163.546 259.100,164.498 252.500 C 165.450 245.900,167.329 236.787,168.675 232.249 C 170.863 224.870,171.610 223.601,175.742 220.249 C 178.283 218.187,184.067 213.060,188.595 208.856 C 198.255 199.888,208.107 193.859,212.478 194.240 C 214.974 194.458,215.705 195.178,216.999 198.695 M218.883 297.434 C 220.104 299.989,220.051 301.990,218.471 312.934 C 217.474 319.845,216.567 328.650,216.458 332.500 C 216.348 336.350,215.516 344.225,214.609 350.000 C 213.104 359.575,212.280 363.122,208.993 374.162 C 207.608 378.816,205.130 379.879,202.690 376.866 C 200.747 374.466,200.737 370.155,202.605 340.226 C 203.195 330.770,203.022 328.108,201.534 323.726 C 199.621 318.089,199.967 316.412,204.677 308.500 C 205.659 306.850,207.982 302.887,209.838 299.694 C 213.691 293.065,216.464 292.372,218.883 297.434 M301.259 310.750 C 304.330 313.957,308.381 322.574,307.493 324.012 C 306.550 325.536,300.704 325.181,298.230 323.449 C 294.715 320.986,293.770 318.309,294.512 312.913 C 295.312 307.099,297.187 306.498,301.259 310.750 M304.926 375.862 C 305.633 377.182,305.536 378.252,304.593 379.542 C 303.322 381.280,303.214 381.268,302.135 379.253 C 300.981 377.096,301.533 374.000,303.072 374.000 C 303.544 374.000,304.378 374.838,304.926 375.862 " style="stroke: none; fill: black;">
                    </path></svg>