<svg id="svg-path" width="100%" height="100%" viewBox="0 0 512 512" version="1.1" xmlns="http://www.w3.org/2000/svg" style="fill-rule:evenodd;clip-rule:evenodd;stroke-linejoin:round;stroke-miterlimit:2;">
                        <path d="M303.766 90.750 C 301.204 93.362,298.071 97.016,296.804 98.868 C 294.547 102.168,288.935 104.952,284.473 104.985 C 281.064 105.010,278.345 107.697,277.051 112.318 C 275.949 116.253,276.041 117.181,277.909 121.048 C 280.983 127.410,280.659 130.260,276.499 133.433 C 269.827 138.522,268.349 144.976,272.125 152.536 C 274.013 156.316,274.136 157.445,273.227 162.646 C 272.208 168.478,272.719 174.530,274.923 182.713 C 276.291 187.793,281.562 192.648,286.729 193.586 C 291.751 194.497,296.938 197.200,300.000 200.500 C 303.284 204.039,308.480 206.591,313.789 207.271 C 316.148 207.573,318.785 208.406,319.648 209.123 C 321.058 210.293,327.209 222.523,334.306 238.267 C 335.735 241.439,337.881 247.514,339.073 251.767 C 340.265 256.020,343.479 263.876,346.214 269.224 C 350.206 277.029,351.375 280.481,352.138 286.724 C 353.306 296.280,354.450 300.700,357.597 307.816 L 360.037 313.331 359.430 343.916 C 358.733 379.053,358.341 381.209,351.148 389.428 C 344.916 396.549,343.429 400.697,345.408 405.434 C 346.746 408.635,347.287 409.000,350.699 408.999 C 356.617 408.999,364.682 405.395,370.860 399.991 C 373.962 397.278,378.975 393.342,382.000 391.244 C 389.344 386.151,390.654 383.368,388.578 377.274 C 387.710 374.727,386.998 371.711,386.996 370.572 C 386.994 369.432,389.008 362.425,391.472 355.000 C 398.403 334.108,398.825 332.270,399.515 320.000 C 400.401 304.244,401.546 298.043,405.573 287.189 C 410.161 274.825,413.520 268.360,416.307 266.535 C 417.567 265.709,422.734 264.185,427.788 263.148 C 438.201 261.012,440.000 259.944,440.000 255.892 C 440.000 248.384,432.087 223.273,427.609 216.572 C 425.745 213.782,422.158 208.350,419.638 204.500 C 417.117 200.650,414.088 196.307,412.907 194.850 C 410.805 192.257,410.796 192.101,412.478 187.698 C 414.889 181.383,414.034 179.640,407.742 178.048 C 398.142 175.619,390.642 172.980,386.550 170.592 C 384.322 169.291,380.025 166.888,377.000 165.249 C 373.975 163.611,369.925 161.384,368.000 160.301 C 366.075 159.217,361.800 157.544,358.500 156.582 C 355.200 155.620,348.900 153.690,344.500 152.293 C 338.521 150.395,334.353 149.755,328.000 149.761 C 320.473 149.768,318.914 149.439,314.378 146.885 C 309.823 144.319,308.295 144.000,300.563 144.000 C 291.748 144.000,288.000 142.992,288.000 140.621 C 288.000 139.901,289.769 136.655,291.931 133.406 C 294.093 130.158,297.040 123.824,298.480 119.330 C 300.760 112.216,301.812 110.473,306.626 105.830 C 309.666 102.899,312.794 99.285,313.577 97.800 C 316.423 92.400,314.559 86.000,310.141 86.000 C 309.197 86.000,306.329 88.138,303.766 90.750 M123.069 114.250 C 122.015 115.487,120.321 117.546,119.306 118.825 L 117.460 121.150 114.901 119.137 C 109.952 115.244,108.179 115.529,98.711 121.737 C 89.257 127.936,87.677 130.333,90.354 134.418 C 92.249 137.310,100.157 141.191,109.583 143.855 C 113.387 144.930,118.224 146.549,120.331 147.452 C 122.438 148.355,127.925 149.792,132.524 150.646 C 146.336 153.208,147.013 155.057,136.847 162.454 C 133.409 164.956,128.246 169.266,125.374 172.032 C 121.149 176.102,119.947 178.018,119.076 182.080 C 118.484 184.840,118.000 187.728,118.000 188.498 C 118.000 189.267,116.830 191.158,115.399 192.698 C 110.984 197.455,109.749 200.996,109.210 210.449 C 108.781 217.982,108.243 220.207,105.942 223.982 C 103.192 228.495,101.577 233.298,100.521 240.114 C 100.130 242.632,98.677 244.953,95.730 247.765 C 93.404 249.985,90.314 253.196,88.865 254.901 C 86.644 257.513,85.527 258.000,81.750 258.000 C 73.075 258.000,68.990 263.777,68.229 277.122 L 67.733 285.811 70.817 287.405 C 72.513 288.282,75.962 289.000,78.481 289.000 C 81.995 289.000,84.743 289.951,90.281 293.083 C 99.349 298.211,100.142 298.940,105.631 307.197 C 108.105 310.919,113.272 316.757,117.114 320.171 C 120.955 323.585,126.155 329.473,128.669 333.255 C 132.558 339.104,133.316 341.065,133.743 346.388 C 134.078 350.558,133.704 354.506,132.623 358.226 C 130.836 364.372,130.432 379.534,131.917 384.712 C 132.422 386.471,133.357 393.776,133.995 400.945 L 135.155 413.979 132.578 419.427 C 131.160 422.424,130.000 426.013,130.000 427.403 C 130.000 430.562,134.600 435.887,140.778 439.879 C 143.375 441.558,147.486 445.253,149.914 448.092 C 156.158 455.392,162.194 459.000,168.161 459.000 C 171.852 459.000,173.164 458.563,173.965 457.066 C 176.448 452.426,174.071 435.155,168.944 420.582 L 165.806 411.664 166.933 392.582 C 168.432 367.178,169.672 358.195,173.116 347.767 C 176.358 337.952,176.659 333.147,174.541 325.066 C 170.912 311.219,169.042 300.999,169.566 297.876 C 170.677 291.248,170.981 290.463,173.579 287.500 C 177.245 283.318,178.249 280.188,177.511 275.243 C 176.708 269.862,178.840 268.565,182.638 272.123 C 186.394 275.642,188.000 280.421,188.000 288.075 C 188.000 291.832,188.488 295.978,189.085 297.288 C 192.733 305.293,210.545 304.645,212.606 296.433 C 212.969 294.986,213.033 289.910,212.747 285.152 C 212.194 275.931,208.446 263.123,197.778 234.000 C 196.429 230.319,195.633 225.193,195.369 218.500 C 194.743 202.618,193.252 190.212,191.562 186.823 C 189.173 182.034,189.627 180.275,194.001 177.381 C 198.676 174.287,201.479 170.118,203.533 163.201 C 204.622 159.533,205.990 157.504,208.755 155.456 C 214.792 150.983,216.902 148.055,219.012 141.225 C 221.419 133.431,221.452 132.169,219.377 126.983 C 217.565 122.455,212.840 118.783,204.000 115.033 C 199.588 113.161,196.102 112.604,186.375 112.219 C 174.597 111.753,174.109 111.818,169.375 114.470 C 164.267 117.331,158.951 123.086,153.641 131.500 C 149.202 138.535,146.427 138.723,141.748 132.304 C 139.822 129.662,137.113 125.250,135.728 122.500 C 132.762 116.613,128.726 112.000,126.541 112.000 C 125.686 112.000,124.124 113.013,123.069 114.250 M123.073 128.750 C 131.014 137.136,131.429 137.778,130.016 139.481 C 128.295 141.555,122.678 141.406,120.713 139.235 C 118.194 136.452,115.803 124.000,117.788 124.000 C 118.221 124.000,120.599 126.138,123.073 128.750 " style="stroke: none; fill: black;">
                    </path></svg>