<svg id="svg-path" width="100%" height="100%" viewBox="0 0 512 512" version="1.1" xmlns="http://www.w3.org/2000/svg" style="fill-rule:evenodd;clip-rule:evenodd;stroke-linejoin:round;stroke-miterlimit:2;">
                        <path d="M163.500 116.647 C 159.550 118.711,158.097 120.656,158.722 123.046 C 159.328 125.364,162.245 125.614,164.000 123.500 C 165.667 121.492,169.906 121.590,170.698 123.656 C 171.910 126.813,167.529 128.984,160.156 128.880 C 156.495 128.829,152.655 128.338,151.623 127.790 C 149.342 126.579,148.038 128.192,148.015 132.250 C 148.004 134.213,147.491 135.000,146.223 135.000 C 145.245 135.000,143.388 135.741,142.095 136.646 C 139.944 138.153,139.797 138.784,140.356 144.130 C 140.931 149.634,140.788 150.171,137.874 153.490 C 134.550 157.277,134.519 157.819,137.014 168.500 C 137.656 171.250,138.372 174.504,138.605 175.732 C 139.087 178.269,143.665 181.000,147.436 181.000 C 149.278 181.000,150.682 179.927,152.569 177.075 C 155.330 172.903,157.536 171.440,158.562 173.101 C 159.559 174.714,158.105 179.012,155.070 183.424 C 153.528 185.666,151.126 189.525,149.734 192.000 C 148.342 194.475,145.334 198.227,143.050 200.338 C 138.428 204.609,135.089 211.323,132.548 221.454 C 131.617 225.167,129.530 230.360,127.909 232.993 C 124.857 237.953,121.918 245.931,120.021 254.401 C 119.213 258.012,119.227 260.655,120.076 264.448 C 120.929 268.259,120.945 272.047,120.139 279.047 C 117.764 299.665,115.984 309.162,113.462 314.677 C 112.041 317.782,110.535 322.165,110.114 324.417 C 109.694 326.668,107.515 331.208,105.272 334.505 C 103.029 337.802,100.280 342.525,99.164 345.000 C 98.048 347.475,95.726 352.650,94.002 356.500 C 92.279 360.350,90.207 366.650,89.398 370.500 C 88.582 374.385,86.728 379.280,85.231 381.500 C 83.285 384.387,82.530 386.780,82.518 390.101 C 82.501 394.501,82.865 395.090,90.864 403.601 C 102.836 416.340,108.083 418.768,116.609 415.512 C 125.377 412.163,124.664 406.366,114.365 397.268 C 107.053 390.808,105.868 387.606,108.499 381.412 C 109.413 379.260,110.991 374.297,112.006 370.382 C 114.265 361.664,123.678 345.970,128.690 342.565 C 135.031 338.256,138.690 331.870,143.539 316.646 C 146.438 307.548,153.548 297.000,156.782 297.000 C 160.903 297.000,175.299 308.694,178.181 314.383 C 179.328 316.647,181.549 320.131,183.117 322.123 C 184.685 324.116,187.580 329.516,189.550 334.123 C 191.520 338.731,194.859 345.875,196.970 350.000 C 199.080 354.125,202.625 361.040,204.846 365.367 C 207.460 370.457,209.114 375.222,209.532 378.867 C 210.528 387.542,211.888 391.869,213.968 392.983 C 215.013 393.542,218.646 394.000,222.040 394.000 C 225.434 394.000,230.976 394.733,234.356 395.628 C 237.735 396.524,243.130 397.308,246.345 397.370 C 251.374 397.467,252.460 397.150,254.122 395.098 C 255.774 393.057,255.864 392.427,254.741 390.736 C 254.019 389.648,251.542 387.750,249.238 386.518 C 242.409 382.865,234.673 376.578,231.664 372.237 C 225.986 364.043,215.576 333.826,212.148 315.586 C 211.360 311.391,209.595 307.467,206.075 302.086 C 203.346 297.914,200.218 292.397,199.125 289.827 L 197.137 285.153 200.708 287.577 C 202.672 288.909,205.362 290.000,206.685 290.000 C 209.490 290.000,213.986 285.898,214.032 283.295 C 214.049 282.308,214.724 280.626,215.532 279.559 C 217.379 277.117,217.406 272.316,215.604 266.785 C 214.837 264.428,213.916 258.599,213.559 253.832 C 212.956 245.787,213.050 245.119,214.875 244.540 C 218.118 243.510,226.104 248.015,232.022 254.210 C 236.658 259.063,238.472 260.232,243.321 261.495 C 251.006 263.497,252.268 263.408,254.826 260.686 C 258.975 256.269,257.088 247.813,251.306 244.911 C 245.086 241.789,242.980 239.888,237.276 232.246 C 228.956 221.099,219.476 209.636,212.000 201.684 C 208.425 197.881,204.866 193.188,204.092 191.256 C 202.839 188.132,202.874 187.390,204.402 184.551 C 205.348 182.796,207.444 180.578,209.061 179.623 C 210.677 178.668,212.000 177.547,212.000 177.132 C 212.000 176.717,212.787 175.486,213.750 174.398 C 214.713 173.309,216.278 171.511,217.230 170.403 C 219.313 167.975,222.000 154.689,222.000 146.814 C 222.000 141.463,217.476 126.950,214.631 123.177 C 212.665 120.569,206.050 118.000,201.290 117.996 C 198.655 117.994,192.450 117.327,187.500 116.514 C 175.897 114.607,167.314 114.655,163.500 116.647 M357.792 139.370 C 349.339 142.197,347.458 143.923,345.943 150.237 C 344.800 155.004,345.196 170.949,346.597 176.530 C 346.908 177.771,346.340 179.593,345.204 180.997 C 343.662 182.900,341.930 183.507,336.402 184.079 C 330.125 184.729,329.244 185.110,326.388 188.414 C 324.666 190.406,320.081 198.441,316.200 206.268 C 310.250 218.266,309.084 221.459,308.768 226.606 C 308.472 231.424,307.692 233.805,305.070 237.890 C 301.127 244.035,296.000 259.686,296.000 265.578 C 296.000 270.147,296.969 271.357,301.494 272.443 C 306.734 273.699,306.772 273.844,306.262 290.763 C 305.984 299.998,306.272 310.219,306.960 315.500 C 307.605 320.450,308.495 329.450,308.938 335.500 C 309.381 341.550,310.554 349.327,311.544 352.781 C 313.258 358.759,313.264 359.679,311.673 371.833 C 310.657 379.591,310.000 391.509,310.000 402.191 C 310.000 422.499,310.279 423.266,318.419 425.338 C 325.425 427.121,325.831 428.395,321.618 435.382 C 319.668 438.617,317.324 442.089,316.411 443.099 C 314.395 445.326,314.245 449.714,316.125 451.444 C 318.227 453.379,325.676 456.000,329.072 456.000 C 330.740 456.000,333.870 454.987,336.030 453.750 L 339.956 451.500 344.228 453.690 C 354.662 459.038,366.983 459.470,370.235 454.600 C 370.639 453.995,370.976 452.570,370.985 451.433 C 371.001 449.190,365.929 438.684,363.572 436.079 C 362.771 435.194,361.695 432.597,361.180 430.306 C 359.793 424.133,361.283 421.980,368.409 419.865 C 377.263 417.237,377.520 416.787,376.181 406.311 C 375.562 401.465,374.794 392.100,374.476 385.500 C 374.100 377.702,373.168 371.096,371.816 366.635 C 370.034 360.754,369.909 359.248,370.949 356.135 C 372.775 350.667,374.895 324.527,374.951 306.790 L 375.000 291.081 379.011 287.369 C 384.047 282.710,385.785 277.564,384.158 272.134 C 382.438 266.393,382.783 262.953,385.526 258.500 C 386.881 256.300,387.992 252.964,387.995 251.088 C 387.998 248.955,389.210 245.789,391.228 242.645 C 394.440 237.640,394.455 237.553,394.413 224.895 C 394.368 211.092,394.017 210.107,386.432 202.523 C 383.472 199.563,383.383 197.754,386.019 194.189 C 387.129 192.687,388.474 188.768,389.009 185.479 C 389.543 182.191,390.885 176.351,391.990 172.503 C 393.102 168.632,394.000 162.530,394.000 158.843 L 394.000 152.180 388.250 146.191 C 385.087 142.896,381.060 139.481,379.300 138.601 C 374.825 136.362,365.822 136.685,357.792 139.370 " style="stroke: none; fill: black;">
                    </path></svg>