<svg id="svg-path" width="100%" height="100%" viewBox="0 0 512 512" version="1.1" xmlns="http://www.w3.org/2000/svg" style="fill-rule:evenodd;clip-rule:evenodd;stroke-linejoin:round;stroke-miterlimit:2;">
                        <path d="M245.061 88.517 C 227.843 95.292,220.146 107.567,219.817 128.780 C 219.691 136.853,219.949 138.238,222.339 142.315 C 225.210 147.215,225.744 151.162,223.750 152.752 C 223.063 153.300,217.550 156.314,211.500 159.449 C 204.277 163.192,197.238 167.891,191.000 173.134 C 180.948 181.583,171.384 188.276,164.074 191.979 C 159.476 194.307,156.881 194.332,146.000 192.150 C 121.970 187.331,115.020 185.595,105.500 182.031 C 93.341 177.480,87.785 177.016,87.155 180.500 C 86.578 183.694,84.116 185.801,78.959 187.514 C 73.534 189.316,72.554 190.244,71.586 194.500 C 71.211 196.150,70.665 198.424,70.373 199.553 C 69.983 201.061,70.508 201.910,72.344 202.747 C 73.720 203.374,74.993 204.881,75.173 206.097 C 75.420 207.765,76.744 208.710,80.584 209.958 C 86.524 211.888,86.631 211.864,94.617 206.838 C 105.358 200.079,104.084 200.066,128.668 207.168 C 156.947 215.336,159.533 215.385,179.261 208.131 C 186.830 205.348,194.969 201.930,197.349 200.536 C 202.860 197.306,207.470 197.195,209.215 200.250 C 210.161 201.907,210.521 209.092,210.579 227.500 C 210.653 251.110,211.565 263.947,213.743 272.044 C 214.900 276.344,213.891 279.454,210.806 281.100 C 208.601 282.277,187.449 295.935,178.000 302.284 C 165.268 310.839,162.915 315.647,160.519 338.000 C 158.946 352.667,158.326 357.046,154.563 380.058 C 153.703 385.314,153.000 391.028,153.000 392.756 C 153.000 398.858,143.402 408.188,128.464 416.607 C 126.091 417.945,125.420 420.596,126.979 422.475 C 128.915 424.807,140.191 425.425,149.317 423.699 C 153.817 422.848,162.000 421.391,167.500 420.462 C 185.006 417.504,185.926 416.559,181.082 406.517 C 179.387 403.002,178.000 398.707,178.000 396.974 C 178.000 395.240,179.374 387.899,181.054 380.661 C 183.877 368.494,186.920 352.131,188.463 340.820 C 189.623 332.321,192.832 330.328,211.658 326.412 C 220.758 324.519,227.547 325.039,229.636 327.789 C 230.529 328.964,230.951 333.261,230.983 341.500 C 231.047 358.183,234.214 367.533,240.718 370.243 C 242.798 371.110,248.829 373.660,254.119 375.910 C 259.409 378.159,264.085 380.000,264.509 380.000 C 264.934 380.000,267.130 380.885,269.390 381.967 C 273.100 383.743,279.586 386.188,298.877 393.082 C 305.576 395.476,310.571 399.665,313.468 405.321 C 314.364 407.069,316.483 410.750,318.178 413.500 C 319.873 416.250,322.099 420.926,323.124 423.891 C 324.150 426.856,325.497 429.894,326.117 430.641 C 327.731 432.585,331.682 432.318,333.885 430.115 C 336.281 427.719,340.533 410.134,342.626 393.960 C 344.927 376.182,343.383 374.263,330.230 378.556 C 318.029 382.539,316.182 382.021,302.000 370.632 C 296.775 366.436,290.925 362.264,289.000 361.360 C 260.584 348.016,261.623 349.132,267.560 338.318 C 272.295 329.693,279.171 318.944,285.150 310.819 C 289.318 305.155,290.040 303.341,292.117 293.330 C 294.166 283.450,294.299 281.428,293.267 275.830 C 285.645 234.479,285.063 228.902,287.032 216.000 C 287.577 212.425,288.434 205.051,288.934 199.613 C 289.560 192.826,290.350 189.221,291.455 188.113 C 292.757 186.809,296.271 186.390,309.783 185.927 C 334.843 185.068,336.635 183.900,340.325 166.000 C 341.176 161.875,342.160 154.675,342.513 150.000 C 343.819 132.709,346.194 126.729,353.440 122.482 C 359.401 118.989,360.627 117.308,361.954 110.812 C 363.284 104.301,362.047 100.571,357.586 97.648 C 354.294 95.491,351.760 95.567,347.858 97.940 C 344.988 99.686,344.391 99.736,341.897 98.447 C 339.273 97.090,339.026 97.159,337.234 99.757 C 334.771 103.328,332.510 111.410,331.012 122.000 C 329.817 130.451,322.116 155.452,319.384 159.750 C 316.926 163.618,311.646 162.742,293.138 155.399 C 265.728 144.523,266.694 145.498,272.928 135.004 C 282.000 119.734,282.660 115.518,277.921 103.108 C 273.618 91.840,268.280 87.640,256.824 86.509 C 252.622 86.095,250.143 86.518,245.061 88.517 M408.789 325.750 C 407.314 327.446,405.392 343.624,401.863 384.035 L 400.681 397.571 403.978 406.785 L 407.274 416.000 411.602 416.000 C 417.812 416.000,418.450 414.329,417.488 400.571 C 416.525 386.789,416.718 379.847,418.507 364.000 C 421.356 338.753,422.092 326.816,420.890 325.367 C 419.186 323.315,410.672 323.584,408.789 325.750 M323.318 455.082 C 321.668 456.732,324.854 465.819,327.362 466.615 C 330.005 467.454,332.146 464.494,331.360 461.088 C 329.982 455.120,326.146 452.254,323.318 455.082 M307.667 458.667 C 306.184 460.149,307.165 462.961,309.995 465.342 C 313.642 468.411,316.863 469.537,318.193 468.207 C 319.671 466.729,317.562 463.454,313.243 460.519 C 309.273 457.821,308.702 457.632,307.667 458.667 M291.134 465.750 C 290.619 466.712,289.883 469.598,289.498 472.161 C 288.878 476.300,289.042 476.952,290.967 477.982 C 294.497 479.871,297.718 477.066,298.574 471.356 C 299.158 467.462,298.968 466.450,297.447 465.337 C 294.920 463.490,292.250 463.665,291.134 465.750 M238.500 467.000 C 237.514 470.106,238.800 472.713,242.420 474.950 C 246.674 477.580,248.641 477.540,250.111 474.793 C 251.171 472.812,250.854 472.198,247.017 468.793 C 242.267 464.578,239.457 463.986,238.500 467.000 M219.483 468.389 C 217.693 469.698,217.638 470.242,218.759 475.589 C 220.167 482.299,221.017 483.447,223.899 482.532 C 225.643 481.979,225.997 481.069,225.985 477.183 C 225.970 472.442,224.362 467.942,222.460 467.315 C 221.887 467.127,220.548 467.610,219.483 468.389 M272.144 469.327 C 270.333 471.509,268.000 477.761,268.000 480.433 C 268.000 483.570,271.425 485.722,273.576 483.937 C 275.369 482.449,279.000 474.396,279.000 471.908 C 279.000 470.187,276.307 468.000,274.188 468.000 C 273.669 468.000,272.749 468.597,272.144 469.327 " style="stroke: none; fill: black;">
                    </path></svg>