<svg id="svg-path" width="100%" height="100%" viewBox="0 0 512 512" version="1.1" xmlns="http://www.w3.org/2000/svg" style="fill-rule:evenodd;clip-rule:evenodd;stroke-linejoin:round;stroke-miterlimit:2;">
                        <path d="M269.973 149.730 C 265.791 152.656,260.120 159.287,258.030 163.695 C 254.390 171.372,254.389 175.014,258.020 182.893 C 261.448 190.329,261.618 193.911,258.817 199.643 C 257.778 201.771,256.129 202.724,251.000 204.166 C 247.425 205.170,242.117 205.994,239.206 205.996 C 236.294 205.998,230.894 206.753,227.206 207.672 C 220.713 209.292,218.963 210.070,210.564 215.073 C 207.474 216.913,205.337 217.381,200.620 217.251 C 194.620 217.084,194.604 217.092,189.306 222.390 C 183.173 228.523,182.730 230.883,186.923 235.077 C 190.744 238.898,194.817 238.883,202.148 235.018 L 207.796 232.041 238.493 232.771 L 269.190 233.500 271.566 236.480 C 272.873 238.119,274.206 240.663,274.529 242.134 C 274.852 243.604,277.982 249.625,281.485 255.513 C 284.988 261.401,287.606 266.863,287.303 267.651 C 287.001 268.440,282.422 272.269,277.127 276.161 C 261.798 287.430,256.000 293.695,256.000 298.994 C 256.000 301.097,261.592 316.868,265.113 324.695 C 266.151 327.002,267.000 329.841,267.000 331.002 C 267.000 336.746,269.319 342.084,273.122 345.097 C 278.592 349.429,278.313 351.397,270.602 362.850 C 266.409 369.079,266.094 371.630,269.335 373.107 C 272.296 374.456,275.831 372.708,286.628 364.556 C 301.438 353.374,302.040 352.252,297.853 343.633 L 295.705 339.213 297.853 335.739 C 299.034 333.828,300.000 331.818,300.000 331.273 C 300.000 330.728,298.270 328.306,296.155 325.891 C 290.126 319.006,289.654 317.684,291.089 311.678 C 292.412 306.139,294.990 303.000,298.216 303.000 C 299.312 303.000,302.449 301.875,305.187 300.500 C 307.924 299.125,311.026 298.000,312.079 298.000 C 315.856 298.000,326.611 309.782,332.298 320.150 C 333.701 322.708,335.918 326.533,337.224 328.650 C 338.530 330.768,340.866 335.425,342.415 339.000 C 343.965 342.575,348.413 351.494,352.300 358.820 C 358.659 370.804,360.076 372.744,366.434 378.172 C 377.024 387.212,377.170 387.352,381.805 392.873 C 386.990 399.047,389.790 399.507,394.099 394.894 C 395.694 393.186,396.997 391.049,396.993 390.144 C 396.984 387.883,394.312 384.162,389.120 379.182 C 384.890 375.126,384.766 374.835,385.515 370.740 C 387.148 361.823,386.656 358.847,382.499 352.500 C 377.211 344.424,375.261 339.999,374.476 334.292 C 373.354 326.133,371.941 321.674,368.995 317.000 C 367.435 314.525,365.476 310.025,364.642 307.000 C 361.838 296.832,357.286 282.540,355.233 277.463 C 354.113 274.693,352.878 269.743,352.489 266.463 C 352.099 263.183,350.705 257.765,349.390 254.422 C 348.076 251.078,347.000 246.840,347.000 245.003 C 347.000 240.683,344.998 228.978,343.896 226.855 C 342.193 223.575,345.116 222.864,353.614 224.491 C 358.342 225.395,367.193 226.000,375.715 226.000 L 389.930 226.000 393.347 229.000 C 396.839 232.066,399.399 232.782,400.500 231.000 C 400.840 230.450,402.238 230.000,403.607 230.000 C 406.597 230.000,411.013 225.564,410.968 222.604 C 410.925 219.726,409.109 217.655,405.250 216.082 C 402.037 214.772,401.801 214.412,401.602 210.500 C 401.515 208.795,400.615 208.424,395.500 207.985 C 391.092 207.606,387.775 206.500,383.000 203.818 C 378.188 201.115,374.422 199.867,368.500 199.012 C 358.557 197.576,343.833 192.817,338.579 189.340 C 332.784 185.505,326.800 184.273,316.435 184.782 C 305.560 185.316,303.422 184.127,304.400 178.088 C 304.720 176.115,305.266 171.532,305.614 167.904 C 306.217 161.618,306.111 161.162,303.373 158.211 C 301.793 156.508,297.425 153.514,293.667 151.557 C 287.686 148.444,285.936 148.000,279.639 148.000 C 274.439 148.000,271.760 148.479,269.973 149.730 M150.500 219.202 C 149.400 219.845,147.902 220.965,147.172 221.692 C 144.870 223.983,142.507 224.866,136.923 225.525 C 133.940 225.877,129.843 226.787,127.818 227.547 C 125.792 228.308,122.192 228.892,119.818 228.845 C 115.058 228.751,108.218 231.179,107.535 233.205 C 107.295 233.917,106.615 236.392,106.023 238.705 C 105.431 241.018,104.387 243.493,103.702 244.205 C 99.636 248.435,98.074 251.583,97.452 256.802 C 96.972 260.820,96.053 263.270,94.332 265.111 C 92.473 267.101,92.051 268.354,92.558 270.375 C 93.081 272.458,92.411 274.208,89.447 278.513 C 86.627 282.607,85.459 285.534,84.840 290.059 C 83.915 296.828,84.999 300.082,89.985 305.500 C 91.504 307.150,93.028 309.702,93.372 311.170 C 93.825 313.104,94.829 314.023,97.009 314.502 C 98.665 314.866,101.362 315.833,103.003 316.651 C 104.643 317.470,106.841 317.868,107.887 317.536 C 109.002 317.182,110.454 317.597,111.395 318.537 C 113.469 320.611,113.419 321.589,111.158 323.193 C 110.145 323.912,109.081 325.175,108.793 326.000 C 108.169 327.790,109.648 331.000,111.097 331.000 C 111.662 331.000,114.498 332.123,117.399 333.496 C 122.625 335.968,122.684 336.046,123.588 341.746 C 124.497 347.482,124.511 347.500,128.000 347.500 C 131.204 347.500,131.507 347.246,131.582 344.500 C 131.723 339.389,131.928 339.000,134.474 339.000 C 136.212 339.000,137.410 338.107,138.500 336.000 C 140.390 332.345,141.962 332.221,144.813 335.500 C 146.009 336.875,147.491 338.000,148.107 338.000 C 150.473 338.000,157.000 333.551,157.000 331.938 C 157.000 331.007,157.635 329.718,158.410 329.074 C 159.531 328.144,160.534 328.530,163.292 330.952 C 167.273 334.447,169.504 334.795,170.924 332.142 C 171.699 330.694,171.296 329.423,169.103 326.392 C 167.554 324.251,166.009 321.038,165.669 319.250 C 165.099 316.256,165.255 316.000,167.659 316.000 C 172.008 316.000,178.057 313.763,179.130 311.757 C 179.874 310.368,179.725 309.229,178.571 307.468 C 176.082 303.670,176.680 302.161,181.590 299.853 C 187.025 297.298,187.856 295.719,185.692 292.055 C 184.409 289.884,184.157 287.127,184.445 278.419 C 184.643 272.416,184.387 266.724,183.876 265.769 C 183.170 264.450,183.554 263.505,185.474 261.836 C 189.080 258.700,188.698 255.763,184.250 252.414 C 179.564 248.885,178.019 246.789,175.500 240.536 C 174.102 237.066,172.597 235.136,170.500 234.123 C 168.850 233.327,166.375 232.108,165.000 231.414 C 163.625 230.721,160.888 227.532,158.918 224.327 C 155.130 218.166,153.732 217.315,150.500 219.202 " style="stroke: none; fill: black;">
                    </path></svg>