<svg id="svg-path" width="100%" height="100%" viewBox="0 0 512 512" version="1.1" xmlns="http://www.w3.org/2000/svg" style="fill-rule:evenodd;clip-rule:evenodd;stroke-linejoin:round;stroke-miterlimit:2;">
                        <path d="M271.817 84.325 C 271.039 85.104,267.950 90.131,264.951 95.497 C 258.780 106.543,255.302 110.555,251.100 111.478 C 246.028 112.592,237.220 120.082,232.819 127.022 C 230.559 130.585,226.926 138.675,224.744 145.000 C 220.697 156.733,219.911 159.338,217.499 169.000 C 216.744 172.025,215.606 176.525,214.970 179.000 C 214.200 181.997,214.067 186.673,214.570 193.000 C 215.925 210.032,215.644 221.131,213.761 225.000 C 210.865 230.950,208.976 245.282,209.091 260.427 C 209.186 272.884,209.474 275.157,211.599 280.220 C 213.479 284.699,214.000 287.735,214.001 294.220 C 214.001 298.774,214.639 305.650,215.418 309.500 C 216.197 313.350,217.141 321.675,217.516 328.000 C 218.025 336.583,218.807 341.042,220.599 345.578 C 221.966 349.040,223.007 353.776,223.017 356.578 C 223.039 362.817,224.531 377.599,226.440 390.500 C 227.253 396.000,228.333 404.170,228.840 408.656 C 229.346 413.142,230.524 418.317,231.458 420.156 C 234.430 426.005,237.758 439.244,238.225 447.072 C 238.723 455.410,240.633 459.768,244.886 462.263 C 246.888 463.437,250.311 463.762,259.500 463.648 C 270.024 463.518,271.869 463.237,274.500 461.358 C 281.042 456.687,281.954 454.282,284.072 436.128 C 284.610 431.524,285.916 425.674,286.976 423.128 C 288.591 419.248,289.008 414.946,289.558 396.500 C 290.551 363.147,290.665 344.984,290.056 317.000 L 289.500 291.500 285.386 286.000 C 279.480 278.102,278.659 275.065,281.150 270.315 C 285.104 262.774,285.978 257.949,286.004 243.500 C 286.019 235.800,286.435 228.861,286.929 228.081 C 287.673 226.906,293.986 226.622,323.664 226.433 C 346.878 226.285,360.733 225.807,363.000 225.078 C 364.930 224.456,373.110 223.942,381.239 223.930 C 398.381 223.906,398.000 224.137,398.000 213.721 C 398.000 204.481,396.942 203.749,384.346 204.270 C 378.931 204.494,367.525 205.671,359.000 206.885 C 345.769 208.769,340.206 209.039,321.000 208.725 C 298.195 208.352,291.475 207.403,290.319 204.389 C 290.005 203.572,291.110 199.887,292.773 196.201 C 298.047 184.516,303.000 168.624,303.000 163.388 C 303.000 160.288,301.351 153.416,298.522 144.733 C 293.282 128.646,292.219 126.404,287.418 121.313 C 282.537 116.139,281.519 113.376,279.564 100.000 C 277.364 84.956,275.321 80.822,271.817 84.325 M259.142 383.079 C 261.605 403.892,264.841 421.007,266.963 424.441 L 269.240 428.125 267.057 434.812 C 262.242 449.557,258.993 449.718,253.640 435.479 C 250.966 428.367,250.172 420.630,252.000 419.500 C 252.571 419.147,253.015 413.866,253.035 407.191 C 253.055 400.761,253.708 391.450,254.486 386.500 C 255.265 381.550,255.924 377.350,255.951 377.167 C 255.978 376.983,256.563 377.019,257.250 377.245 C 257.938 377.472,258.789 380.097,259.142 383.079 " style="stroke: none; fill: black;">
                    </path></svg>