<svg id="svg-path" width="100%" height="100%" viewBox="0 0 512 512" version="1.1" xmlns="http://www.w3.org/2000/svg" style="fill-rule:evenodd;clip-rule:evenodd;stroke-linejoin:round;stroke-miterlimit:2;">
                        <path d="M237.166 144.846 C 234.522 147.288,232.994 149.571,232.985 151.096 C 232.962 154.624,231.662 156.117,227.954 156.876 C 226.137 157.247,224.487 158.040,224.288 158.637 C 224.089 159.234,225.480 161.582,227.380 163.856 C 230.719 167.853,232.858 173.293,236.480 187.000 C 237.424 190.575,239.787 198.675,241.730 205.000 C 243.673 211.325,245.316 216.925,245.381 217.444 C 245.447 217.964,243.250 218.767,240.500 219.229 C 220.338 222.619,216.497 223.531,213.329 225.681 C 211.449 226.956,209.551 228.000,209.111 228.000 C 207.795 228.000,205.000 231.540,205.000 233.206 C 205.000 234.058,204.303 235.333,203.452 236.040 C 202.180 237.096,201.283 237.028,198.418 235.662 C 196.501 234.748,193.710 234.000,192.216 234.001 C 188.686 234.002,175.733 236.696,170.059 238.609 C 166.836 239.695,162.162 240.033,153.013 239.840 C 141.084 239.587,140.227 239.702,137.030 241.979 C 134.128 244.045,131.948 244.501,121.576 245.210 C 104.745 246.362,98.571 247.398,90.500 250.429 C 84.118 252.826,82.095 253.073,67.593 253.225 C 52.398 253.385,51.560 253.499,48.843 255.785 C 45.240 258.817,44.925 264.627,48.129 268.960 C 49.601 270.952,50.063 272.613,49.627 274.350 C 48.319 279.562,51.461 283.796,61.565 290.437 C 69.381 295.575,72.568 296.045,82.339 293.500 C 91.362 291.150,95.364 291.503,99.347 295.000 C 101.226 296.650,103.892 298.000,105.271 298.000 C 106.650 298.000,113.116 296.135,119.639 293.856 C 126.163 291.576,134.200 289.338,137.500 288.882 C 140.800 288.426,145.075 287.799,147.000 287.489 C 149.432 287.097,152.635 287.723,157.500 289.542 C 161.350 290.981,166.282 292.828,168.460 293.647 C 173.015 295.358,185.777 295.135,193.000 293.217 C 195.475 292.560,199.089 291.791,201.032 291.507 C 202.998 291.220,206.006 289.674,207.817 288.020 C 210.697 285.389,211.569 285.116,215.410 285.643 C 217.797 285.970,221.343 285.712,223.290 285.069 C 225.237 284.427,230.131 283.873,234.165 283.838 C 238.199 283.804,244.973 282.860,249.219 281.740 C 258.239 279.360,259.985 280.028,260.024 285.872 C 260.057 290.733,261.684 297.615,263.955 302.500 C 264.982 304.711,266.788 313.431,267.992 322.000 C 270.263 338.161,271.225 340.844,275.764 343.683 C 277.269 344.625,281.019 347.980,284.098 351.140 C 290.513 357.725,293.785 359.026,297.614 356.517 C 299.759 355.112,300.109 354.293,299.615 351.825 C 299.286 350.181,299.495 347.944,300.078 346.854 C 301.380 344.422,300.184 342.773,294.537 339.208 C 286.346 334.037,286.117 333.500,280.928 307.365 C 279.889 302.133,280.431 296.945,283.599 281.803 C 284.369 278.119,285.002 274.069,285.004 272.803 C 285.007 271.536,286.352 268.475,287.994 266.000 L 290.980 261.500 299.240 261.435 C 318.395 261.284,329.811 253.771,329.952 241.225 C 330.004 236.608,324.781 224.853,321.360 221.887 C 318.099 219.060,313.281 218.858,304.013 221.160 C 296.784 222.955,294.975 223.809,293.399 226.168 C 289.722 231.675,285.713 230.789,284.555 224.214 C 283.069 215.788,282.062 214.000,278.799 214.000 C 274.762 214.000,263.737 206.128,260.424 200.880 C 259.047 198.698,256.404 193.219,254.551 188.706 C 252.699 184.193,249.982 177.611,248.514 174.079 L 245.845 167.659 247.923 161.509 C 250.283 154.521,250.399 152.978,248.957 147.784 C 246.811 140.059,243.300 139.184,237.166 144.846 M396.500 168.604 C 389.517 170.343,378.033 174.585,374.823 176.612 C 372.742 177.925,370.779 179.000,370.460 179.000 C 370.141 179.000,367.913 180.502,365.509 182.338 C 358.447 187.730,352.073 195.871,347.375 205.500 C 336.905 226.961,337.188 247.937,348.240 269.443 C 353.205 279.105,366.973 293.531,376.618 299.176 C 392.657 308.565,410.252 311.831,427.257 308.578 C 452.855 303.680,473.681 285.037,479.288 262.000 C 482.535 248.663,483.163 241.870,482.022 232.457 C 480.560 220.405,478.697 215.136,472.133 204.500 C 462.277 188.530,448.457 177.429,430.808 171.305 C 424.838 169.233,421.212 168.708,411.000 168.438 C 404.125 168.255,397.600 168.330,396.500 168.604 M97.316 265.242 C 98.517 265.924,102.875 266.712,107.000 266.992 C 112.716 267.379,114.500 267.851,114.500 268.976 C 114.500 269.788,113.150 270.867,111.500 271.374 C 103.513 273.829,99.766 275.468,97.307 277.582 C 92.458 281.748,83.498 281.857,74.184 277.864 C 67.967 275.200,63.842 272.054,64.197 270.249 C 65.019 266.073,91.685 262.041,97.316 265.242 " style="stroke: none; fill: black;">
                    </path></svg>