<svg id="svg-path" width="100%" height="100%" viewBox="0 0 512 512" version="1.1" xmlns="http://www.w3.org/2000/svg" style="fill-rule:evenodd;clip-rule:evenodd;stroke-linejoin:round;stroke-miterlimit:2;">
                        <path d="M161.250 139.542 C 158.363 141.434,156.000 143.341,156.000 143.780 C 156.000 145.279,141.219 160.000,139.713 160.000 C 138.887 160.000,136.731 158.617,134.921 156.926 C 126.561 149.117,119.812 148.207,109.776 153.536 C 100.792 158.306,97.680 162.071,98.292 167.429 C 98.548 169.668,99.107 172.583,99.536 173.907 C 100.274 176.187,100.145 176.279,97.073 175.665 C 92.141 174.678,88.502 171.564,85.498 165.760 C 84.001 162.867,82.122 159.757,81.323 158.850 C 77.812 154.861,73.191 156.642,74.414 161.512 C 76.046 168.015,86.556 175.817,99.275 179.968 C 104.718 181.745,106.528 182.883,108.481 185.757 C 111.167 189.710,111.264 189.338,105.565 196.878 C 103.329 199.835,100.957 202.985,100.294 203.878 C 99.631 204.770,98.779 209.215,98.400 213.756 C 98.021 218.297,97.214 222.642,96.606 223.410 C 95.216 225.168,71.672 234.000,68.378 234.000 C 64.385 234.000,59.000 236.700,59.004 238.699 C 59.010 241.480,62.771 247.000,64.660 247.000 C 65.589 247.000,69.674 245.852,73.738 244.450 C 78.861 242.682,82.716 241.992,86.313 242.200 C 91.492 242.500,91.500 242.505,91.804 246.136 L 92.107 249.772 83.304 252.914 C 74.058 256.213,65.525 260.312,63.007 262.664 C 62.011 263.593,61.281 267.133,60.818 273.279 C 59.755 287.388,57.452 300.879,55.006 307.332 C 52.703 313.407,50.287 316.700,41.216 326.130 C 37.657 329.829,36.200 332.006,36.965 332.479 C 38.806 333.616,45.014 332.081,51.000 329.007 C 54.025 327.454,58.750 325.396,61.500 324.434 C 68.983 321.817,70.138 320.328,70.471 312.871 C 70.628 309.359,71.496 304.238,72.401 301.492 C 74.075 296.411,74.471 295.390,77.361 288.716 C 78.263 286.635,79.000 282.410,79.000 279.326 C 79.000 275.160,79.449 273.379,80.750 272.392 C 82.762 270.865,92.590 270.527,93.472 271.955 C 93.797 272.480,91.809 275.399,89.054 278.441 C 83.768 284.278,82.391 287.439,83.395 291.439 C 84.036 293.993,92.484 304.968,100.376 313.500 C 102.920 316.250,106.365 320.830,108.033 323.679 L 111.065 328.857 109.401 337.954 C 107.814 346.626,107.821 347.144,109.536 349.040 C 113.265 353.161,118.795 348.792,122.016 339.180 C 123.247 335.506,125.097 330.830,126.127 328.790 C 128.589 323.912,128.491 321.362,125.759 319.240 C 120.558 315.202,115.173 308.990,113.021 304.543 C 111.753 301.923,109.173 297.760,107.289 295.291 C 105.404 292.822,104.108 290.162,104.408 289.379 C 105.010 287.812,120.563 280.302,129.038 277.487 C 133.888 275.876,135.328 275.826,143.704 276.976 C 154.795 278.499,156.558 277.789,155.513 272.219 C 154.938 269.153,155.283 268.431,158.937 265.058 C 161.172 262.995,163.000 260.544,163.000 259.610 C 163.000 258.677,160.750 255.841,158.000 253.308 C 155.087 250.625,153.000 247.836,153.000 246.628 C 153.000 245.393,155.430 242.241,159.000 238.844 C 162.300 235.704,165.000 232.836,165.000 232.472 C 165.000 232.107,164.024 230.438,162.831 228.762 C 160.871 226.011,160.774 225.292,161.831 221.343 C 162.474 218.939,163.000 215.429,163.000 213.545 C 163.000 211.660,163.357 209.897,163.794 209.627 C 165.478 208.587,171.285 213.529,175.253 219.381 C 177.535 222.746,180.212 226.372,181.201 227.439 C 182.191 228.505,183.000 229.708,183.000 230.112 C 183.000 230.516,184.104 232.159,185.454 233.763 C 186.804 235.367,188.898 239.339,190.109 242.590 C 191.319 245.840,192.962 249.507,193.761 250.737 C 195.556 253.502,195.159 268.241,193.239 270.161 C 192.238 271.162,191.040 271.146,187.244 270.080 C 178.806 267.712,178.294 267.706,176.047 269.953 C 172.240 273.760,175.867 279.597,184.289 283.220 C 186.924 284.353,189.522 286.108,190.063 287.118 C 191.325 289.475,188.832 300.329,180.947 326.811 C 178.035 336.589,177.659 337.262,173.672 339.811 C 162.776 346.779,160.153 350.223,163.577 353.064 C 164.874 354.140,165.987 354.142,169.827 353.076 C 172.397 352.362,178.035 350.991,182.356 350.027 C 186.676 349.064,190.552 347.725,190.968 347.052 C 191.384 346.379,191.974 342.604,192.278 338.664 C 192.704 333.160,193.780 329.447,196.922 322.637 C 199.172 317.762,201.275 312.131,201.596 310.124 C 202.903 301.950,205.271 301.493,219.279 306.709 C 225.405 308.991,227.973 310.604,231.370 314.303 C 234.762 317.998,236.356 319.000,238.841 319.000 C 241.871 319.000,246.000 316.137,246.000 314.036 C 246.000 313.506,249.161 309.793,253.024 305.786 C 258.371 300.239,260.404 297.307,261.540 293.500 C 262.361 290.750,264.038 287.739,265.266 286.810 C 267.407 285.190,267.525 284.291,268.098 265.310 C 268.674 246.254,268.612 245.329,266.483 241.000 C 265.266 238.525,263.932 235.375,263.520 234.000 C 263.108 232.625,261.826 230.469,260.673 229.210 C 258.624 226.972,258.371 225.717,255.376 202.880 C 254.991 199.938,255.175 198.010,255.885 197.571 C 257.665 196.471,257.175 193.164,255.066 192.035 C 251.692 190.230,248.480 190.890,245.500 194.000 C 242.762 196.858,242.235 197.000,234.394 197.000 L 226.163 197.000 224.000 200.500 C 222.666 202.659,221.051 204.000,219.786 204.000 C 214.150 204.000,208.285 211.043,210.705 214.905 C 211.931 216.861,215.841 217.559,217.315 216.085 C 217.912 215.488,218.983 215.000,219.695 215.000 C 220.844 215.000,223.645 220.088,225.414 225.391 C 226.409 228.372,223.473 231.821,219.268 232.610 C 215.064 233.398,209.859 235.620,205.758 238.377 C 201.870 240.989,200.319 239.916,198.419 233.297 C 196.394 226.242,187.959 209.266,183.208 202.683 C 181.107 199.773,177.624 196.676,174.410 194.863 C 171.484 193.211,168.828 191.033,168.507 190.022 C 167.917 188.162,161.571 184.683,156.402 183.386 C 154.852 182.997,150.879 182.639,147.574 182.589 C 142.228 182.510,141.419 182.224,140.243 180.000 C 137.761 175.304,139.312 170.260,145.011 164.489 C 147.850 161.614,151.822 156.888,153.837 153.988 C 157.849 148.211,162.428 146.045,170.691 146.015 C 172.996 146.007,175.114 145.625,175.397 145.167 C 176.097 144.034,171.495 137.404,169.468 136.626 C 167.120 135.725,167.019 135.761,161.250 139.542 M316.780 140.491 C 313.635 142.961,310.330 146.394,309.437 148.121 C 307.920 151.055,307.946 151.858,309.837 160.380 C 313.644 177.539,313.636 177.718,308.739 184.514 C 303.398 191.926,292.336 209.950,289.399 216.027 C 285.963 223.135,282.256 234.992,281.636 240.856 C 281.324 243.802,280.604 246.772,280.036 247.457 C 279.468 248.142,278.738 250.681,278.414 253.101 C 277.881 257.086,278.128 257.806,281.032 260.750 C 284.844 264.616,285.912 264.738,289.207 261.684 C 291.235 259.804,291.837 258.032,292.406 252.261 C 292.954 246.692,293.736 244.284,296.015 241.138 C 297.615 238.929,300.933 233.313,303.389 228.658 C 309.159 217.716,312.789 212.000,313.966 212.000 C 316.087 212.000,321.958 228.454,321.994 234.500 C 322.004 236.150,322.728 238.850,323.603 240.500 C 325.729 244.507,328.000 253.290,328.000 257.500 C 328.000 259.371,328.686 263.512,329.525 266.701 C 330.746 271.341,330.827 273.441,329.935 277.211 C 329.096 280.753,329.114 282.815,330.006 285.520 C 330.880 288.168,330.919 290.751,330.154 295.309 C 327.934 308.527,325.953 339.566,327.116 342.903 C 328.192 345.990,327.919 357.269,326.420 371.588 L 325.783 377.676 329.619 380.838 C 331.729 382.577,334.408 384.000,335.573 384.000 C 339.855 384.000,340.800 381.338,341.433 367.500 C 341.825 358.919,342.700 352.290,344.006 348.000 C 345.094 344.425,345.988 339.639,345.992 337.365 C 345.997 335.090,346.633 331.040,347.408 328.365 C 350.948 316.128,354.194 304.117,355.071 300.009 C 358.577 283.583,366.464 267.183,373.931 260.791 C 378.697 256.711,391.904 250.054,401.000 247.146 C 407.337 245.120,425.945 243.011,437.672 242.989 C 440.877 242.983,445.709 242.308,448.409 241.489 C 451.109 240.670,456.085 240.000,459.468 240.000 C 463.120 240.000,466.385 239.439,467.506 238.619 C 469.438 237.207,471.815 228.402,471.936 222.210 C 471.971 220.401,472.900 217.156,474.000 215.000 C 477.514 208.113,476.290 203.000,471.129 203.000 C 467.568 203.000,465.168 205.631,463.443 211.426 C 462.612 214.217,460.677 218.300,459.143 220.500 L 456.354 224.500 449.927 224.229 C 446.392 224.080,434.957 223.006,424.515 221.842 C 407.210 219.912,404.557 219.843,394.515 221.059 C 388.457 221.794,381.608 222.328,379.297 222.247 C 374.636 222.083,369.014 219.620,368.974 217.724 C 368.959 217.051,368.780 211.679,368.576 205.788 C 368.127 192.844,368.397 192.447,376.999 193.420 C 380.290 193.793,391.453 193.563,401.803 192.909 C 415.642 192.035,422.270 192.010,426.845 192.816 C 434.375 194.142,436.000 193.639,436.000 189.982 C 436.000 186.735,431.410 182.309,427.173 181.470 C 425.703 181.179,421.125 180.092,417.000 179.055 C 410.170 177.338,389.861 175.108,382.500 175.268 C 374.943 175.431,365.370 173.713,362.500 171.677 C 360.363 170.162,357.568 169.439,352.780 169.164 C 344.660 168.697,343.090 167.405,344.823 162.613 C 346.608 157.675,346.299 147.101,344.248 143.014 C 342.101 138.734,336.030 136.133,328.000 136.055 C 322.963 136.006,322.019 136.379,316.780 140.491 M248.541 175.133 C 245.184 179.123,245.557 180.812,250.507 184.027 C 262.142 191.585,275.910 195.224,278.960 191.548 C 280.221 190.029,279.509 186.000,277.980 186.000 C 277.493 186.000,274.909 183.814,272.237 181.142 C 268.189 177.094,266.556 176.164,262.440 175.564 C 259.723 175.168,256.503 174.204,255.285 173.422 C 252.176 171.426,251.521 171.592,248.541 175.133 M218.000 278.372 C 222.559 279.844,223.402 283.517,219.518 284.993 C 215.278 286.605,205.534 286.688,203.654 285.128 C 201.061 282.976,201.690 280.161,205.250 277.975 C 208.606 275.915,210.573 275.976,218.000 278.372 " style="stroke: none; fill: black;">
                    </path></svg>