<svg id="svg-path" width="100%" height="100%" viewBox="0 0 512 512" version="1.1" xmlns="http://www.w3.org/2000/svg" style="fill-rule:evenodd;clip-rule:evenodd;stroke-linejoin:round;stroke-miterlimit:2;">
                        <path d="M261.164 56.302 C 259.549 58.248,254.286 73.753,253.222 79.698 C 252.163 85.617,246.620 95.357,238.813 105.020 C 230.195 115.685,227.570 121.017,221.243 140.707 C 211.779 170.160,210.519 178.238,213.480 190.500 C 214.277 193.800,214.945 198.525,214.965 201.000 C 214.984 203.475,215.662 208.960,216.472 213.190 C 217.281 217.419,218.068 225.294,218.222 230.690 C 218.473 239.565,218.272 240.866,216.109 244.346 C 213.859 247.966,213.759 248.762,214.425 257.846 C 215.397 271.127,215.360 271.470,212.409 276.144 L 209.796 280.283 201.148 279.647 C 196.392 279.298,186.200 278.544,178.500 277.973 C 161.823 276.736,90.073 277.576,83.008 279.092 C 80.363 279.659,77.563 280.883,76.786 281.812 C 74.250 284.842,71.652 304.995,72.431 315.602 C 73.272 327.056,74.325 330.371,77.597 331.862 C 80.910 333.372,136.445 333.438,140.748 331.938 C 142.980 331.160,148.170 331.287,160.148 332.413 C 184.110 334.664,195.224 336.050,197.014 337.008 C 198.350 337.722,198.580 339.926,198.470 350.933 C 198.354 362.540,198.113 364.262,196.319 366.255 C 193.282 369.628,193.167 369.968,191.484 380.617 C 190.625 386.053,188.814 395.061,187.461 400.636 C 184.748 411.810,184.284 422.747,186.176 430.943 C 187.177 435.277,187.106 436.554,185.705 439.493 C 183.602 443.903,181.357 444.448,168.540 443.664 C 161.313 443.222,158.017 443.383,157.179 444.221 C 154.937 446.463,155.944 450.420,159.946 455.089 C 162.967 458.612,165.693 460.431,171.690 462.921 C 175.986 464.705,181.872 467.253,184.772 468.583 C 195.786 473.633,201.859 471.042,203.963 460.397 C 206.041 449.883,208.914 442.709,215.519 431.542 C 219.083 425.515,222.000 420.207,222.000 419.746 C 222.000 419.285,223.576 415.542,225.501 411.429 C 227.427 407.316,229.461 401.824,230.022 399.225 C 230.583 396.626,231.887 391.800,232.921 388.500 C 233.955 385.200,235.577 379.160,236.527 375.077 C 238.453 366.794,239.646 363.942,245.871 352.750 C 248.241 348.488,250.792 345.000,251.539 345.000 C 253.439 345.000,257.355 350.486,260.107 357.000 C 263.228 364.391,269.603 375.073,275.657 383.058 C 278.392 386.665,283.394 394.808,286.773 401.154 C 292.560 412.022,301.851 426.887,309.169 436.986 C 313.025 442.308,316.478 451.399,317.498 458.912 C 318.799 468.499,323.137 470.648,335.040 467.603 C 338.043 466.835,344.550 465.689,349.500 465.058 C 360.218 463.691,367.342 460.617,367.833 457.148 C 368.734 450.784,365.449 448.000,357.038 448.000 C 354.013 448.000,349.114 446.833,344.093 444.915 C 335.962 441.811,334.275 440.362,330.794 433.500 C 329.958 431.850,328.539 429.150,327.643 427.500 C 326.668 425.706,326.010 422.154,326.006 418.664 C 326.001 413.847,325.314 411.489,322.071 405.164 C 313.544 388.529,308.466 373.627,306.924 360.715 C 306.479 356.983,304.964 351.416,303.557 348.344 C 302.151 345.272,301.000 342.207,301.000 341.534 C 301.000 338.739,304.844 336.984,313.075 336.022 C 344.942 332.297,355.488 330.393,361.087 327.355 C 365.928 324.729,368.074 324.238,377.155 323.683 C 395.004 322.591,427.570 317.520,433.194 314.957 C 434.532 314.348,436.447 312.326,437.449 310.465 C 439.100 307.400,439.164 306.202,438.128 297.790 C 436.983 288.503,432.183 270.333,429.281 264.303 C 427.499 260.602,423.810 258.997,417.101 259.006 C 412.206 259.013,385.393 262.367,377.948 263.905 C 365.287 266.519,359.934 267.936,355.797 269.766 C 353.106 270.956,346.792 272.250,340.371 272.926 C 329.110 274.113,326.167 274.534,304.685 278.031 C 289.697 280.471,285.681 280.366,285.141 277.522 C 284.934 276.433,285.348 272.456,286.060 268.684 C 287.181 262.741,287.130 260.654,285.677 253.076 C 283.599 242.234,283.572 233.587,285.588 224.500 C 286.442 220.650,287.529 214.307,288.004 210.404 C 288.480 206.502,289.878 199.077,291.112 193.904 C 292.346 188.732,293.369 181.800,293.385 178.500 C 293.426 170.312,291.373 145.721,289.539 132.428 C 288.139 122.282,287.397 118.668,283.391 102.500 C 282.574 99.200,279.498 89.975,276.556 82.000 C 273.614 74.025,270.677 65.256,270.030 62.513 C 269.382 59.771,268.380 56.958,267.804 56.263 C 266.438 54.618,262.543 54.641,261.164 56.302 M267.443 95.223 C 269.442 98.077,269.539 107.308,267.586 108.928 C 265.788 110.421,260.070 109.058,258.643 106.796 C 256.786 103.851,261.772 93.000,264.982 93.000 C 265.480 93.000,266.587 94.000,267.443 95.223 M379.571 244.571 C 377.876 246.267,377.507 250.673,378.878 252.837 C 379.345 253.573,380.785 254.023,382.080 253.837 C 383.873 253.580,384.644 252.602,385.321 249.728 C 386.670 243.997,383.231 240.912,379.571 244.571 M334.701 244.632 C 333.409 245.924,333.960 251.771,335.427 252.334 C 337.478 253.121,339.197 250.581,338.822 247.319 C 338.515 244.645,336.198 243.135,334.701 244.632 M368.621 245.521 C 364.936 249.207,368.390 257.629,372.388 254.706 C 373.700 253.746,374.057 252.316,373.818 248.972 C 373.466 244.038,371.446 242.697,368.621 245.521 M397.332 245.578 C 396.532 247.663,400.209 252.500,402.594 252.500 C 404.870 252.500,405.433 250.269,404.065 246.671 C 402.906 243.622,398.365 242.885,397.332 245.578 M133.281 246.250 C 132.751 246.938,132.604 248.625,132.954 250.000 C 133.824 253.420,138.348 253.570,138.827 250.195 C 139.399 246.157,135.495 243.379,133.281 246.250 M351.950 248.093 C 350.416 250.960,351.563 255.000,353.911 255.000 C 356.225 255.000,357.479 250.763,355.989 247.979 C 354.627 245.435,353.354 245.471,351.950 248.093 M112.115 250.099 C 110.150 255.737,114.753 259.830,117.148 254.574 C 118.648 251.283,117.478 247.000,115.079 247.000 C 113.872 247.000,112.808 248.113,112.115 250.099 M313.505 249.976 C 312.764 253.351,313.446 255.000,315.584 255.000 C 317.326 255.000,319.188 250.653,318.365 248.509 C 317.330 245.812,314.213 246.753,313.505 249.976 M155.919 250.278 C 153.841 254.839,158.150 260.780,161.513 257.989 C 163.297 256.508,163.481 250.881,161.800 249.200 C 159.885 247.285,157.045 247.806,155.919 250.278 M95.783 251.578 C 93.618 256.329,97.736 259.859,100.507 255.629 C 101.783 253.682,101.899 252.680,101.036 251.067 C 99.525 248.244,97.198 248.471,95.783 251.578 M172.035 250.934 C 170.568 253.675,170.752 256.550,172.487 257.989 C 175.567 260.545,178.061 256.977,177.199 251.250 C 176.776 248.434,173.481 248.233,172.035 250.934 M189.643 251.500 C 188.739 252.404,188.000 254.461,188.000 256.071 C 188.000 260.167,191.311 260.077,193.027 255.934 C 194.097 253.352,194.060 252.631,192.791 251.363 C 191.450 250.022,191.106 250.037,189.643 251.500 " style="stroke: none; fill: black;">
                    </path></svg>