<svg id="svg-path" width="100%" height="100%" viewBox="0 0 512 512" version="1.1" xmlns="http://www.w3.org/2000/svg" style="fill-rule:evenodd;clip-rule:evenodd;stroke-linejoin:round;stroke-miterlimit:2;">
                        <path d="M294.000 48.423 C 283.554 52.044,280.047 54.974,275.357 64.000 C 272.598 69.311,272.500 69.999,272.500 84.000 C 272.500 99.458,272.066 101.230,267.371 104.922 C 263.751 107.770,261.818 107.555,254.566 103.500 L 248.308 100.000 234.404 100.004 C 222.346 100.007,220.072 100.268,217.277 101.973 C 214.071 103.928,213.607 104.962,212.604 112.393 C 211.970 117.093,208.958 120.536,204.103 122.110 C 192.498 125.871,174.956 136.871,155.152 152.805 C 142.439 163.034,140.751 163.986,135.315 163.994 C 123.399 164.011,118.079 171.972,122.896 182.579 C 128.616 195.171,140.170 193.659,152.467 178.708 C 156.522 173.779,158.820 172.034,164.967 169.218 C 169.110 167.320,180.477 161.985,190.226 157.363 C 207.348 149.246,214.027 146.789,213.976 148.625 C 213.859 152.811,210.892 160.147,205.558 169.442 C 198.945 180.966,192.278 195.201,187.500 208.000 C 185.657 212.934,183.258 217.061,180.485 220.062 C 178.168 222.571,175.725 225.645,175.057 226.893 C 174.389 228.141,173.478 235.313,173.033 242.831 C 172.499 251.846,171.379 259.735,169.745 266.000 C 168.382 271.225,166.726 278.378,166.064 281.895 C 164.741 288.931,162.959 293.901,154.554 314.000 C 144.934 337.002,141.704 347.351,137.973 367.120 C 137.390 370.211,135.362 375.974,133.467 379.928 C 130.332 386.470,127.633 394.915,123.377 411.500 C 121.229 419.870,120.486 434.346,122.016 438.038 C 123.552 441.747,130.115 447.740,133.598 448.614 C 137.034 449.476,144.287 446.018,146.671 442.380 C 148.037 440.294,148.590 436.519,149.129 425.595 C 150.146 404.985,154.828 382.212,160.250 371.500 C 161.364 369.300,165.061 363.450,168.465 358.500 C 171.869 353.550,175.465 347.700,176.455 345.500 C 178.832 340.217,180.509 338.396,186.578 334.503 C 192.273 330.849,193.869 328.131,197.323 316.208 C 202.029 299.960,212.899 285.911,229.172 275.044 C 237.974 269.166,244.563 267.470,253.108 268.881 C 256.836 269.496,269.924 270.007,282.193 270.015 C 294.462 270.024,305.088 270.404,305.807 270.859 C 306.814 271.498,307.200 277.928,307.492 298.956 C 307.860 325.456,307.802 326.459,305.435 334.627 C 302.522 344.681,302.421 347.540,304.841 351.500 C 307.049 355.115,308.856 356.082,320.500 359.886 C 325.450 361.503,332.839 364.032,336.921 365.507 C 343.124 367.748,345.257 368.074,349.921 367.496 C 352.989 367.116,356.992 366.185,358.815 365.426 C 361.737 364.211,362.093 363.659,361.815 360.774 C 361.485 357.348,360.341 356.515,350.471 352.525 C 346.322 350.847,340.067 345.559,337.378 341.455 C 335.313 338.302,333.024 329.397,333.021 324.500 C 333.019 320.451,337.250 296.149,338.933 290.545 C 340.169 286.432,341.919 275.388,343.029 264.700 C 343.532 259.860,344.202 255.483,344.517 254.973 C 345.411 253.525,343.070 246.013,340.743 242.866 C 339.587 241.302,337.034 238.919,335.071 237.569 C 330.966 234.748,312.347 227.979,303.500 226.091 C 300.200 225.386,295.623 224.154,293.330 223.353 C 288.242 221.575,287.000 218.713,287.000 208.764 L 287.000 201.827 293.135 195.438 C 303.864 184.265,305.381 185.005,314.787 206.000 C 318.296 213.833,321.538 217.843,327.615 221.868 C 332.611 225.178,350.164 231.292,367.625 235.805 C 376.519 238.104,380.187 239.635,385.910 243.440 C 394.717 249.295,399.188 250.146,404.743 247.024 C 409.961 244.092,412.000 240.415,412.000 233.940 C 412.000 229.912,411.431 227.943,409.556 225.485 C 405.686 220.410,401.472 218.946,391.274 219.131 C 386.205 219.223,381.497 218.801,380.273 218.146 C 379.095 217.516,377.243 217.000,376.158 217.000 C 373.334 217.000,349.226 204.716,343.562 200.392 C 338.787 196.746,334.031 188.833,334.010 184.500 C 334.005 183.400,335.332 180.025,336.961 177.000 C 338.589 173.975,339.938 170.820,339.960 169.989 C 339.982 169.158,336.894 163.163,333.098 156.667 C 321.613 137.015,321.632 136.908,340.791 111.639 C 350.075 99.394,352.977 93.263,352.990 85.872 C 353.003 78.683,351.557 75.333,344.117 65.319 C 339.157 58.644,337.083 56.711,332.596 54.589 C 329.277 53.019,325.383 52.000,322.701 52.000 C 320.268 52.000,314.733 50.875,310.401 49.500 C 301.782 46.764,299.262 46.599,294.000 48.423 M294.415 410.023 C 285.652 414.361,284.032 417.854,280.925 439.097 C 279.528 448.652,281.223 469.855,283.702 473.834 C 286.225 477.884,290.310 478.698,311.459 479.370 C 322.437 479.718,335.037 480.440,339.459 480.974 C 359.594 483.405,362.677 483.619,365.705 482.799 C 367.467 482.322,369.767 480.840,370.815 479.508 C 373.792 475.723,378.083 448.585,376.825 441.500 C 376.435 439.300,376.071 434.350,376.016 430.500 C 375.882 420.967,373.007 414.992,367.726 413.268 C 361.557 411.254,325.921 408.040,309.500 408.017 C 300.453 408.004,297.775 408.360,294.415 410.023 " style="stroke: none; fill: black;">
                    </path></svg>