<svg id="svg-path" width="100%" height="100%" viewBox="0 0 512 512" version="1.1" xmlns="http://www.w3.org/2000/svg" style="fill-rule:evenodd;clip-rule:evenodd;stroke-linejoin:round;stroke-miterlimit:2;">
                        <path d="M40.006 148.989 C 38.219 152.328,39.118 156.446,41.715 156.815 C 43.366 157.050,44.087 156.503,44.548 154.667 C 46.041 148.716,42.513 144.305,40.006 148.989 M258.607 152.927 C 254.723 153.696,253.001 156.429,255.086 158.515 C 256.420 159.849,257.189 159.886,260.555 158.783 C 267.165 156.618,265.484 151.566,258.607 152.927 M201.000 155.729 C 196.743 157.349,198.427 161.000,203.431 161.000 C 207.452 161.000,210.541 158.852,209.694 156.645 C 209.062 154.998,204.251 154.491,201.000 155.729 M315.250 155.737 C 313.203 156.441,313.830 159.581,316.250 160.740 C 320.540 162.796,321.950 162.907,323.542 161.315 C 324.897 159.960,324.932 159.504,323.774 158.345 C 322.136 156.707,317.001 155.136,315.250 155.737 M403.230 160.757 C 402.553 160.982,402.000 161.958,402.000 162.925 C 402.000 165.189,409.654 167.746,411.351 166.049 C 413.804 163.596,407.345 159.385,403.230 160.757 M283.532 171.673 C 282.450 171.980,280.157 173.304,278.438 174.615 C 276.718 175.927,275.067 177.000,274.770 177.000 C 273.348 177.000,261.788 185.463,259.507 188.174 C 254.413 194.228,252.533 202.484,255.392 206.250 C 256.123 207.213,257.433 208.000,258.304 208.000 C 260.639 208.000,265.450 212.463,264.599 213.840 C 264.202 214.482,262.860 214.752,261.615 214.439 C 260.187 214.081,258.858 214.467,258.013 215.484 C 256.888 216.840,256.939 217.650,258.338 220.582 C 259.252 222.499,260.000 224.678,260.000 225.424 C 260.000 226.170,257.915 229.613,255.366 233.075 C 249.350 241.247,246.230 247.552,245.477 253.062 C 245.143 255.503,244.019 260.875,242.980 265.000 C 238.393 283.206,237.872 301.479,241.798 306.471 C 242.941 307.923,244.827 311.076,245.989 313.477 C 247.151 315.878,250.104 319.483,252.551 321.488 C 256.899 325.051,257.000 325.267,257.000 331.018 C 257.000 334.255,257.733 339.512,258.629 342.701 C 259.887 347.180,260.329 354.192,260.571 373.500 C 260.743 387.250,261.177 403.000,261.534 408.500 C 262.144 417.878,261.992 419.097,259.092 428.103 C 257.391 433.385,256.000 438.898,256.000 440.353 C 256.000 443.415,259.157 447.000,261.854 447.000 C 265.818 447.000,270.967 439.270,270.994 433.279 C 270.997 432.607,272.125 429.513,273.500 426.404 C 275.351 422.220,276.000 419.021,276.000 414.091 C 276.000 409.965,276.771 405.237,278.026 401.665 C 280.783 393.822,283.107 382.230,283.982 371.956 C 284.993 360.079,287.712 355.556,290.117 361.750 C 290.704 363.262,291.597 371.025,292.101 379.000 C 292.622 387.232,293.884 396.860,295.022 401.274 C 296.846 408.350,296.890 409.312,295.513 411.975 C 293.441 415.981,293.598 417.939,296.490 424.151 C 297.860 427.093,298.995 431.300,299.012 433.500 C 299.053 438.649,302.221 445.618,304.908 446.471 C 308.074 447.476,310.853 446.185,312.538 442.926 C 313.908 440.277,313.887 439.441,312.316 434.247 C 309.918 426.317,309.969 411.884,312.413 406.500 C 313.980 403.049,314.253 399.346,314.402 379.499 C 314.497 366.848,314.946 355.896,315.400 355.161 C 316.382 353.572,318.319 329.045,318.413 317.000 C 318.450 312.219,317.843 306.409,317.025 303.721 C 315.593 299.019,315.620 298.851,318.683 293.221 C 322.497 286.212,324.447 277.805,323.624 271.919 C 322.038 260.576,321.769 250.983,322.997 249.503 C 323.973 248.327,326.666 248.006,335.372 248.027 C 348.072 248.058,382.512 249.539,394.671 250.577 C 402.716 251.264,402.881 251.232,405.421 248.491 C 408.949 244.684,408.693 242.341,404.474 239.852 C 402.535 238.708,400.511 236.955,399.977 235.957 C 399.183 234.474,397.405 234.063,390.253 233.708 C 377.117 233.057,365.358 231.159,357.130 228.364 C 353.076 226.987,346.101 225.028,341.630 224.012 C 330.610 221.506,312.773 215.218,311.310 213.323 C 310.577 212.374,310.327 210.000,310.658 207.141 C 311.933 196.138,305.812 177.092,299.874 173.584 C 297.034 171.907,286.893 170.721,283.532 171.673 M348.667 174.667 C 347.410 175.923,348.002 177.849,350.589 180.923 C 355.368 186.603,358.894 183.350,354.377 177.428 C 351.858 174.125,350.072 173.261,348.667 174.667 M46.579 181.180 C 44.640 187.393,45.440 192.000,48.458 192.000 C 50.098 192.000,52.282 186.006,51.822 182.767 C 51.462 180.232,47.271 178.963,46.579 181.180 M101.182 183.030 C 95.198 186.679,99.052 191.776,105.477 188.712 C 109.575 186.758,110.773 184.636,108.989 182.487 C 107.316 180.471,105.131 180.623,101.182 183.030 M170.667 183.667 C 169.524 184.810,169.937 188.763,171.250 189.242 C 171.938 189.493,174.172 189.494,176.215 189.244 C 183.937 188.299,183.368 183.000,175.544 183.000 C 173.228 183.000,171.033 183.300,170.667 183.667 M465.161 188.547 C 463.563 192.052,463.707 194.950,465.513 195.643 C 468.008 196.601,470.000 194.041,470.000 189.878 C 470.000 186.779,469.630 186.000,468.161 186.000 C 467.149 186.000,465.799 187.146,465.161 188.547 M136.427 192.118 C 135.080 194.298,134.269 199.816,135.100 201.148 C 137.136 204.411,142.204 196.580,140.660 192.556 C 139.967 190.751,137.434 190.489,136.427 192.118 " style="stroke: none; fill: black;">
                    </path></svg>