<svg id="svg-path" width="100%" height="100%" viewBox="0 0 512 512" version="1.1" xmlns="http://www.w3.org/2000/svg" style="fill-rule:evenodd;clip-rule:evenodd;stroke-linejoin:round;stroke-miterlimit:2;">
                        <path d="M310.405 216.104 C 308.593 218.105,308.476 220.922,308.000 273.854 C 307.497 329.799,307.286 332.949,303.854 335.647 C 300.957 337.924,296.478 338.341,266.500 339.121 C 249.450 339.565,230.080 340.214,223.455 340.563 C 207.940 341.382,204.997 340.373,202.630 333.427 C 200.736 327.869,200.542 318.004,202.091 305.974 C 202.691 301.313,203.588 284.900,204.084 269.500 C 204.580 254.100,205.256 239.165,205.586 236.311 C 206.061 232.191,205.805 230.600,204.342 228.592 C 201.195 224.270,194.932 224.220,189.548 228.474 C 187.399 230.172,185.976 239.197,184.027 263.500 C 183.454 270.650,182.549 278.300,182.016 280.500 C 181.484 282.700,181.021 288.325,180.989 293.000 C 180.956 297.675,180.286 304.425,179.500 308.000 C 178.522 312.444,178.059 321.087,178.035 335.327 L 178.000 356.154 180.923 359.077 L 183.846 362.000 246.173 361.971 C 301.420 361.945,309.693 361.738,319.000 360.150 C 335.372 357.357,334.171 359.202,333.608 337.692 C 333.346 327.686,332.731 303.722,332.241 284.438 C 331.751 265.153,330.984 248.783,330.536 248.058 C 330.089 247.334,329.399 240.365,329.004 232.571 C 328.608 224.777,327.755 217.411,327.107 216.200 C 326.071 214.264,325.113 214.000,319.120 214.000 C 313.468 214.000,311.986 214.358,310.405 216.104 M256.035 231.734 C 253.538 232.716,251.068 236.375,251.033 239.144 C 251.013 240.716,252.177 243.048,253.901 244.894 C 256.680 247.869,257.141 248.000,264.812 248.000 C 272.529 248.000,272.917 247.887,275.411 244.923 C 278.277 241.517,278.514 240.222,276.915 236.712 C 275.134 232.804,270.927 230.991,263.846 231.079 C 260.356 231.122,256.841 231.417,256.035 231.734 M224.743 240.084 C 221.323 242.076,219.000 248.474,219.000 255.903 C 219.000 261.986,219.287 263.087,221.223 264.443 C 224.312 266.608,226.431 266.393,229.694 263.587 C 232.293 261.351,232.526 260.544,232.850 252.642 C 233.181 244.597,233.055 243.964,230.646 241.555 C 227.819 238.728,227.295 238.598,224.743 240.084 M287.441 260.419 C 284.711 262.414,283.958 278.761,286.423 282.522 C 288.274 285.348,292.051 285.807,294.369 283.488 C 297.786 280.071,297.857 262.831,294.464 260.350 C 292.094 258.617,289.877 258.639,287.441 260.419 M249.550 277.126 C 244.082 278.408,242.000 280.570,242.000 284.968 C 242.000 287.658,242.728 289.318,244.750 291.242 C 248.306 294.624,251.739 295.417,256.862 294.037 C 262.106 292.625,265.000 289.552,265.000 285.393 C 265.000 280.790,264.146 279.127,260.928 277.463 C 257.778 275.834,255.371 275.762,249.550 277.126 M221.635 309.073 C 219.533 310.726,219.003 311.990,219.015 315.323 C 219.042 322.590,221.454 324.000,233.862 324.000 C 242.386 324.000,242.963 323.863,244.927 321.365 C 247.805 317.707,247.639 312.548,244.545 309.455 C 242.307 307.216,241.308 307.000,233.180 307.000 C 225.680 307.000,223.853 307.328,221.635 309.073 M262.455 312.455 C 260.702 314.207,260.004 315.994,260.015 318.705 C 260.043 325.568,262.628 327.000,274.984 327.000 C 286.019 327.000,289.619 325.549,290.521 320.737 C 291.270 316.746,289.769 312.482,287.114 311.061 C 286.023 310.477,280.581 310.000,275.020 310.000 C 265.618 310.000,264.737 310.172,262.455 312.455 " style="stroke: none; fill: black;">
                    </path></svg>