<svg id="svg-path" width="100%" height="100%" viewBox="0 0 512 512" version="1.1" xmlns="http://www.w3.org/2000/svg" style="fill-rule:evenodd;clip-rule:evenodd;stroke-linejoin:round;stroke-miterlimit:2;">
                        <path d="M229.595 29.168 C 228.718 30.420,228.000 33.341,228.000 35.659 C 228.000 39.213,226.252 44.915,220.938 58.697 C 219.711 61.880,215.958 63.981,210.304 64.650 C 205.464 65.224,205.286 65.149,202.191 61.241 C 200.451 59.044,197.642 54.153,195.950 50.373 C 192.254 42.116,188.611 38.000,185.001 38.000 C 181.642 38.000,178.000 41.379,178.000 44.496 C 178.000 46.902,186.377 63.913,190.221 69.311 C 193.133 73.400,195.000 80.424,195.000 87.290 C 195.000 91.224,195.987 96.205,197.892 101.881 C 201.263 111.924,201.900 114.458,203.028 122.303 C 203.689 126.895,204.608 128.930,207.432 132.056 C 209.394 134.228,211.000 136.826,211.000 137.829 C 211.000 139.934,207.818 143.098,203.500 145.286 C 199.389 147.370,191.215 156.142,185.646 164.445 C 178.281 175.426,168.000 197.321,168.000 202.023 C 168.000 204.967,170.879 207.935,176.943 211.243 L 180.139 212.987 179.481 221.243 C 179.119 225.784,178.415 231.075,177.917 233.000 C 177.419 234.925,176.989 239.425,176.962 243.000 C 176.935 246.575,176.477 251.525,175.945 254.000 C 175.412 256.475,174.526 261.425,173.974 265.000 C 173.423 268.575,171.854 274.317,170.486 277.761 C 167.243 285.926,166.865 300.663,169.829 303.345 C 172.383 305.656,177.020 305.408,183.315 302.624 C 190.349 299.514,193.000 295.787,193.000 289.012 C 193.000 283.276,194.952 282.384,196.136 287.578 C 197.227 292.366,199.995 308.027,200.984 315.000 C 201.490 318.575,202.609 324.425,203.470 328.000 C 204.330 331.575,205.424 336.440,205.900 338.810 C 206.833 343.462,209.831 347.322,214.329 349.661 C 217.455 351.287,220.000 356.330,220.000 360.896 C 220.000 362.524,221.124 368.051,222.497 373.178 C 223.871 378.305,225.003 384.300,225.013 386.500 C 225.022 388.700,225.952 395.450,227.078 401.500 C 228.205 407.550,229.499 414.986,229.955 418.024 C 230.411 421.062,231.360 425.470,232.064 427.820 C 233.156 431.464,233.092 433.159,231.633 439.351 C 230.691 443.344,228.448 449.061,226.647 452.055 C 224.846 455.050,222.516 459.975,221.469 463.000 C 220.423 466.025,218.202 470.525,216.533 473.000 C 213.079 478.124,212.629 484.448,215.344 489.699 C 217.024 492.948,220.977 496.000,223.505 496.000 C 228.529 496.000,238.890 487.209,250.133 473.406 C 255.042 467.379,270.370 453.000,271.886 453.000 C 272.318 453.000,274.678 454.980,277.133 457.399 C 280.053 460.278,283.133 462.212,286.047 462.994 C 290.829 464.279,302.726 468.216,318.000 473.569 C 328.919 477.396,336.551 477.967,340.785 475.273 C 344.508 472.905,344.967 472.075,344.985 467.677 C 344.998 464.435,344.126 462.864,339.250 457.338 C 334.486 451.940,332.042 450.144,325.000 446.868 C 311.192 440.444,309.643 439.456,306.545 435.106 C 303.178 430.377,302.663 426.490,301.100 394.000 C 300.521 381.946,299.651 373.790,298.605 370.591 C 297.722 367.891,297.000 362.546,297.000 358.712 L 297.000 351.742 302.596 346.365 L 308.192 340.988 307.582 335.744 C 307.247 332.860,306.571 322.625,306.079 313.000 C 305.565 302.922,304.478 292.743,303.518 289.000 C 300.344 276.629,300.403 273.008,303.886 266.399 C 307.647 259.265,307.773 256.354,304.516 251.898 C 299.330 244.803,297.993 242.410,297.594 239.500 C 297.367 237.850,296.456 231.775,295.570 226.000 C 294.683 220.225,293.967 215.152,293.979 214.728 C 293.990 214.303,295.878 211.917,298.174 209.427 C 301.631 205.677,302.479 203.940,303.105 199.326 C 303.638 195.397,304.618 192.964,306.430 191.073 C 309.656 187.705,309.740 183.670,306.667 179.594 C 305.384 177.892,303.177 174.025,301.763 171.000 C 297.792 162.507,284.361 149.741,270.280 141.077 C 267.483 139.356,264.871 137.172,264.477 136.224 C 263.205 133.163,262.829 105.803,263.970 99.252 C 265.318 91.512,264.439 87.780,259.192 78.962 C 255.718 73.122,254.664 72.163,248.243 69.000 C 236.189 63.062,235.154 60.934,239.000 50.000 C 241.213 43.709,241.570 33.691,239.712 30.000 C 237.922 26.443,231.853 25.944,229.595 29.168 M261.312 345.250 C 264.778 348.467,270.474 367.010,271.987 380.000 C 272.660 385.775,274.479 395.450,276.029 401.500 C 279.819 416.292,280.876 431.417,278.547 437.517 C 276.410 443.112,273.557 445.364,270.595 443.795 C 267.869 442.351,257.221 432.082,255.773 429.500 C 253.711 425.823,252.040 411.639,252.004 397.500 C 251.982 388.825,251.418 381.218,250.520 377.500 C 249.710 374.146,249.056 366.505,249.036 360.173 C 249.000 348.967,249.031 348.815,251.923 345.923 C 255.429 342.417,258.058 342.229,261.312 345.250 " style="stroke: none; fill: black;">
                    </path></svg>