<svg id="svg-path" width="100%" height="100%" viewBox="0 0 512 512" version="1.1" xmlns="http://www.w3.org/2000/svg" style="fill-rule:evenodd;clip-rule:evenodd;stroke-linejoin:round;stroke-miterlimit:2;">
                        <path d="M255.769 84.084 C 247.699 85.266,239.481 89.337,238.236 92.769 C 237.145 95.776,235.240 106.167,234.062 115.532 C 233.645 118.850,232.785 122.533,232.152 123.717 C 231.518 124.900,231.000 129.176,231.000 133.219 C 231.000 140.715,229.550 146.176,224.572 157.433 C 223.230 160.468,221.381 167.442,220.463 172.931 C 218.934 182.073,218.925 183.554,220.354 190.562 C 222.308 200.144,224.723 204.884,229.087 207.709 C 236.399 212.440,235.997 211.553,236.506 224.098 C 237.053 237.574,240.072 249.664,245.527 260.223 C 249.148 267.232,249.687 270.986,247.964 277.190 C 247.400 279.219,246.823 285.969,246.681 292.190 C 246.460 301.864,246.067 304.223,243.962 308.500 C 241.873 312.743,241.513 314.862,241.578 322.500 C 241.632 328.749,242.192 332.722,243.410 335.500 C 244.714 338.475,245.399 344.113,246.082 357.500 C 246.991 375.311,247.037 375.573,250.530 382.500 C 253.864 389.113,254.071 390.109,254.280 400.517 C 254.499 411.495,254.488 411.554,251.000 417.371 C 249.075 420.581,244.463 426.404,240.750 430.310 C 235.344 435.998,234.000 438.040,234.000 440.567 C 234.000 443.269,234.624 444.053,238.341 446.025 L 242.683 448.328 248.213 445.164 C 251.255 443.424,254.251 442.000,254.872 442.000 C 255.512 442.000,256.000 443.648,256.000 445.809 C 256.000 451.467,257.575 452.898,264.601 453.624 C 271.319 454.317,276.293 453.130,280.485 449.833 C 283.922 447.129,294.988 425.030,295.040 420.765 C 295.062 418.969,296.411 415.025,298.039 412.000 C 300.800 406.870,301.001 405.760,301.024 395.500 C 301.038 389.450,301.498 382.554,302.046 380.176 C 302.595 377.798,303.432 372.173,303.908 367.676 C 307.139 337.111,311.736 313.684,318.690 292.331 L 323.305 278.161 322.441 267.331 C 321.966 261.374,321.698 252.821,321.847 248.324 C 322.067 241.641,321.733 239.397,320.022 236.043 C 318.870 233.786,317.522 230.040,317.026 227.719 C 315.109 218.757,310.866 202.231,309.011 196.500 C 307.943 193.200,306.189 186.900,305.114 182.500 C 298.467 155.306,296.272 148.461,290.564 137.128 L 287.092 130.234 289.128 121.867 C 291.829 110.761,291.319 102.258,287.544 95.458 C 283.783 88.685,283.301 88.186,277.846 85.422 C 272.702 82.815,266.847 82.460,255.769 84.084 M183.903 99.683 C 181.393 100.738,179.929 100.833,178.215 100.052 C 173.966 98.116,171.381 98.836,167.616 103.003 C 163.880 107.139,163.248 109.891,164.986 114.462 C 165.698 116.337,165.564 118.224,164.500 121.277 C 162.402 127.301,162.632 129.273,165.786 132.295 C 169.814 136.154,174.127 136.758,177.994 134.004 C 180.650 132.113,181.896 131.882,186.393 132.443 C 191.633 133.098,191.703 133.071,195.460 128.913 C 199.072 124.915,199.217 124.487,198.632 119.611 C 198.294 116.800,198.013 112.528,198.009 110.118 C 198.001 106.429,197.458 105.225,194.573 102.504 C 190.274 98.450,188.163 97.892,183.903 99.683 " style="stroke: none; fill: black;">
                    </path></svg>