<svg id="svg-path" width="100%" height="100%" viewBox="0 0 512 512" version="1.1" xmlns="http://www.w3.org/2000/svg" style="fill-rule:evenodd;clip-rule:evenodd;stroke-linejoin:round;stroke-miterlimit:2;">
                        <path d="M335.224 166.661 C 331.394 168.472,328.790 170.711,325.724 174.828 C 321.863 180.013,321.515 180.973,321.672 186.000 C 321.767 189.025,323.004 194.704,324.422 198.621 C 325.840 202.538,327.000 206.610,327.000 207.671 C 327.000 212.256,322.012 213.139,311.500 210.413 C 308.200 209.557,302.800 208.427,299.500 207.901 C 296.200 207.374,290.441 206.221,286.703 205.337 C 282.368 204.312,277.892 203.938,274.346 204.304 C 268.240 204.934,268.691 205.206,260.893 196.177 C 257.874 192.681,256.685 192.000,253.598 192.000 C 248.700 192.000,245.000 195.586,245.000 200.332 C 245.000 202.215,245.631 204.279,246.402 204.919 C 247.173 205.558,248.068 207.133,248.390 208.418 C 249.266 211.908,253.521 214.150,260.377 214.736 C 266.558 215.264,268.399 216.109,280.311 223.889 C 283.165 225.753,293.052 231.079,302.283 235.724 C 311.513 240.370,319.704 245.145,320.484 246.335 C 323.155 250.411,325.166 265.663,324.462 276.500 C 323.710 288.064,322.513 290.626,317.411 291.583 C 313.816 292.257,306.331 297.920,297.338 306.768 C 293.117 310.920,293.000 311.207,293.000 317.439 C 293.000 323.965,296.014 338.679,298.645 345.000 C 301.196 351.129,306.378 357.806,310.312 360.037 C 315.856 363.180,316.356 365.457,313.558 374.805 C 312.260 379.143,310.214 384.619,309.013 386.975 C 307.046 390.830,306.982 391.410,308.368 392.796 C 309.754 394.183,310.324 394.048,314.084 391.442 C 316.381 389.850,319.308 386.888,320.589 384.860 C 321.869 382.831,323.912 380.475,325.128 379.623 C 329.443 376.600,336.000 369.798,336.000 368.343 C 336.000 367.531,334.786 365.275,333.302 363.329 L 330.604 359.792 332.302 355.012 C 333.471 351.721,334.000 347.090,334.000 340.151 C 334.000 328.655,334.442 328.000,342.212 328.000 C 347.610 328.000,349.255 329.144,356.380 337.854 C 361.662 344.309,362.185 345.419,363.588 353.157 C 365.038 361.151,365.809 363.858,368.528 370.500 C 369.204 372.150,370.482 375.528,371.368 378.007 C 372.254 380.486,374.946 384.566,377.349 387.073 C 382.178 392.113,383.964 398.335,382.037 403.403 C 380.046 408.640,380.717 411.857,384.250 414.011 C 386.038 415.101,388.091 415.994,388.814 415.996 C 390.727 416.002,400.696 420.699,401.477 421.962 C 402.633 423.834,412.074 428.131,414.322 427.809 C 418.592 427.198,417.216 424.231,408.594 415.451 C 395.283 401.899,393.203 395.427,399.370 386.753 C 401.681 383.503,402.956 380.360,403.427 376.756 C 403.804 373.865,404.810 369.086,405.661 366.136 C 408.121 357.609,405.968 343.261,400.213 329.831 C 397.542 323.598,397.499 323.150,397.407 301.000 C 397.327 281.541,397.023 277.312,395.157 269.711 C 391.772 255.920,392.525 241.475,396.856 237.144 C 397.805 236.195,403.738 233.716,410.041 231.635 C 416.343 229.554,426.840 225.335,433.367 222.259 C 443.748 217.368,446.071 216.647,451.910 216.499 C 459.482 216.309,460.512 215.866,464.715 211.000 C 467.061 208.285,467.712 206.612,467.619 203.539 C 467.519 200.214,466.955 199.210,464.102 197.289 C 459.326 194.072,456.798 194.414,451.506 198.995 C 445.863 203.878,443.669 204.488,436.832 203.070 C 431.539 201.972,420.365 203.247,400.648 207.199 C 396.161 208.098,392.886 208.095,386.596 207.186 C 376.397 205.711,369.478 205.674,366.851 207.080 C 365.277 207.922,364.426 207.790,362.977 206.479 C 361.409 205.060,361.137 203.378,361.226 195.650 C 361.334 186.382,359.206 175.937,356.277 171.353 C 353.921 167.666,347.691 163.993,343.946 164.083 C 342.051 164.129,338.126 165.289,335.224 166.661 M94.032 283.941 C 93.193 285.508,93.422 286.182,95.219 287.441 C 96.443 288.298,98.071 289.000,98.835 289.000 C 99.600 289.000,106.486 290.575,114.138 292.500 C 121.790 294.425,129.952 296.020,132.276 296.044 C 138.501 296.108,145.117 297.584,146.143 299.138 C 147.554 301.274,145.003 313.001,143.129 313.000 C 142.783 312.999,130.125 311.178,115.000 308.952 C 79.163 303.679,78.854 303.649,76.779 305.305 C 73.852 307.641,69.053 323.180,67.424 335.597 C 65.199 352.569,63.319 351.222,96.500 356.432 C 102.000 357.295,110.742 358.676,115.926 359.501 C 121.111 360.325,126.683 361.000,128.310 361.000 C 129.937 361.000,135.793 362.627,141.323 364.616 C 152.800 368.744,163.612 370.915,172.945 370.965 C 178.568 370.996,179.741 370.664,182.136 368.370 C 185.321 365.319,188.000 365.770,188.000 369.358 C 188.000 373.576,190.953 375.957,197.500 377.017 C 205.252 378.272,250.096 378.294,253.383 377.045 C 258.431 375.125,259.015 372.781,259.267 353.400 C 259.515 334.330,259.048 330.625,256.259 329.531 C 255.291 329.152,241.675 328.393,226.000 327.843 C 192.951 326.686,193.518 326.852,196.271 319.101 C 198.643 312.422,198.467 310.822,195.000 307.500 C 191.412 304.063,191.102 301.213,194.250 300.600 C 199.680 299.542,220.795 297.709,235.500 297.019 C 250.230 296.327,251.840 296.424,255.779 298.237 C 259.598 299.995,269.000 309.761,269.000 311.969 C 269.000 313.203,266.752 314.664,263.750 315.381 C 261.540 315.909,261.000 316.603,261.000 318.912 C 261.000 322.308,262.363 323.000,269.056 323.000 C 273.430 323.000,274.106 322.696,275.431 320.134 C 276.399 318.261,277.974 317.055,279.973 316.655 C 283.078 316.034,284.467 313.879,285.691 307.783 C 286.139 305.553,285.765 304.850,283.609 303.868 C 281.324 302.826,280.675 302.957,278.646 304.863 C 275.692 307.638,274.131 307.014,269.898 301.364 C 268.029 298.870,264.250 295.180,261.500 293.164 L 256.500 289.500 241.209 289.179 C 232.799 289.002,221.999 289.386,217.209 290.032 C 212.419 290.677,202.200 291.604,194.500 292.091 C 186.800 292.578,177.502 293.257,173.837 293.599 C 168.734 294.076,164.288 293.629,154.837 291.687 C 148.052 290.292,138.848 288.911,134.385 288.618 C 126.796 288.118,120.771 286.915,108.412 283.433 C 100.989 281.342,95.315 281.542,94.032 283.941 M61.303 360.084 C 60.143 360.513,58.383 362.236,57.392 363.914 C 56.058 366.172,54.541 367.170,51.545 367.760 L 47.500 368.556 47.198 374.937 C 46.879 381.680,47.579 382.955,51.615 382.985 C 52.778 382.993,54.929 382.057,56.395 380.904 L 59.060 378.808 62.280 381.233 C 67.391 385.082,81.024 392.000,83.499 392.000 C 84.740 392.000,86.315 391.325,87.000 390.500 C 88.824 388.302,89.760 388.635,91.564 392.123 L 93.179 395.247 105.839 394.547 L 118.500 393.848 121.665 397.424 C 124.787 400.952,124.935 401.000,132.665 401.000 C 138.196 401.000,142.852 401.731,148.500 403.485 C 153.406 405.009,158.941 405.976,162.812 405.985 C 166.284 405.993,171.301 406.712,173.962 407.582 C 179.495 409.392,190.119 409.141,199.110 406.989 C 203.795 405.867,206.870 405.865,217.768 406.976 C 230.612 408.286,230.906 408.271,236.496 406.002 C 241.587 403.935,242.691 403.816,247.164 404.848 C 254.063 406.441,261.542 406.288,265.032 404.483 C 266.646 403.649,270.111 402.687,272.733 402.345 C 279.715 401.435,281.492 399.634,278.429 396.571 C 276.167 394.310,267.258 394.528,261.859 396.978 C 257.199 399.093,250.517 399.645,249.500 398.000 C 248.621 396.578,239.289 396.760,236.684 398.250 C 235.155 399.125,228.499 399.531,214.500 399.603 C 203.500 399.660,190.871 400.041,186.435 400.451 C 179.793 401.064,177.147 400.843,171.435 399.199 C 167.621 398.102,161.800 396.928,158.500 396.591 C 155.200 396.254,149.575 395.330,146.000 394.537 C 142.425 393.745,136.125 392.621,132.000 392.039 C 126.052 391.200,124.044 390.466,122.298 388.491 C 120.124 386.032,119.890 386.000,104.107 386.000 C 95.313 386.000,87.869 385.596,87.564 385.103 C 87.259 384.610,83.673 382.989,79.595 381.502 C 69.222 377.719,63.313 371.000,70.359 371.000 C 75.290 371.000,76.754 365.196,72.523 362.423 C 69.184 360.235,63.881 359.130,61.303 360.084 " style="stroke: none; fill: black;">
                    </path></svg>