<svg id="svg-path" width="100%" height="100%" viewBox="0 0 512 512" version="1.1" xmlns="http://www.w3.org/2000/svg" style="fill-rule:evenodd;clip-rule:evenodd;stroke-linejoin:round;stroke-miterlimit:2;">
                        <path d="M294.757 159.750 C 293.903 160.713,292.200 163.656,290.972 166.291 C 288.449 171.709,285.744 173.488,278.487 174.505 C 275.744 174.889,271.925 176.210,270.000 177.439 C 268.075 178.669,265.375 179.969,264.000 180.328 C 260.123 181.343,259.436 182.116,257.308 187.867 C 255.041 193.995,253.242 195.268,244.603 196.866 C 236.011 198.454,233.060 201.858,236.427 206.297 C 237.822 208.138,239.720 208.504,246.189 208.183 C 248.899 208.049,251.105 206.938,254.500 204.000 C 257.150 201.706,260.155 200.000,261.544 200.000 C 263.461 200.000,264.520 198.907,266.622 194.758 C 269.863 188.364,271.237 187.267,277.000 186.474 C 283.527 185.576,286.798 184.092,288.969 181.043 C 290.032 179.551,292.634 177.827,294.806 177.176 C 298.249 176.145,299.047 175.287,301.363 170.126 C 304.575 162.970,304.630 161.555,301.777 159.557 C 298.879 157.527,296.676 157.587,294.757 159.750 M201.500 184.716 C 195.138 186.634,194.265 187.382,192.840 192.141 C 191.630 196.180,191.528 196.238,183.500 197.527 C 176.484 198.653,174.110 202.857,177.642 207.900 C 179.171 210.082,179.793 210.212,186.606 209.775 C 194.952 209.239,196.680 208.220,197.605 203.292 C 198.145 200.412,199.000 199.450,202.382 197.914 C 204.647 196.886,208.190 196.034,210.255 196.022 C 213.641 196.002,214.429 196.544,218.255 201.527 C 222.777 207.416,225.541 208.851,228.895 207.056 C 232.294 205.237,232.541 201.599,229.605 196.589 C 226.176 190.737,222.560 188.000,218.259 188.000 C 216.016 188.000,213.738 187.116,211.818 185.500 C 208.451 182.667,208.326 182.658,201.500 184.716 M229.481 231.403 C 223.229 232.833,218.950 234.543,213.016 237.981 C 210.610 239.375,207.732 240.000,203.720 240.000 C 200.207 240.000,194.773 241.015,189.981 242.566 C 183.249 244.745,181.432 245.839,177.936 249.816 C 175.672 252.392,171.959 255.661,169.685 257.081 C 166.997 258.759,164.667 261.383,163.025 264.581 C 161.053 268.423,159.351 270.116,155.250 272.313 C 152.363 273.861,150.000 275.750,150.000 276.513 C 150.000 277.275,151.575 279.100,153.500 280.568 C 157.523 283.636,157.882 286.056,155.397 293.347 C 153.763 298.145,153.889 302.880,155.811 308.784 C 156.783 311.769,156.602 312.384,153.827 315.545 C 149.853 320.071,151.035 321.580,159.295 322.522 C 162.708 322.912,171.350 325.261,178.500 327.743 C 191.343 332.200,191.648 332.253,203.788 332.116 L 216.076 331.977 222.278 336.189 C 229.068 340.800,234.003 342.888,238.268 342.956 C 240.367 342.989,242.607 344.666,247.542 349.898 C 257.839 360.813,264.301 362.885,275.063 358.724 C 278.603 357.355,282.247 355.987,283.160 355.683 C 284.122 355.364,286.436 356.355,288.660 358.038 C 293.253 361.514,295.734 361.686,301.180 358.908 C 306.614 356.136,310.699 351.650,313.578 345.294 C 316.318 339.244,318.068 337.927,327.293 334.974 C 334.888 332.542,338.821 329.687,342.125 324.208 C 343.354 322.168,345.696 318.775,347.330 316.667 C 350.872 312.096,353.934 301.625,353.961 294.000 C 353.989 285.591,350.653 270.800,347.492 265.324 C 344.998 261.003,326.526 242.012,324.809 242.003 C 324.429 242.002,320.154 240.132,315.309 237.848 C 307.617 234.223,305.393 233.637,297.769 233.227 C 291.469 232.888,286.913 233.258,281.404 234.555 C 273.235 236.479,274.713 236.631,259.500 232.303 C 252.185 230.222,236.674 229.757,229.481 231.403 " style="stroke: none; fill: black;">
                    </path></svg>