<svg id="svg-path" width="100%" height="100%" viewBox="0 0 512 512" version="1.1" xmlns="http://www.w3.org/2000/svg" style="fill-rule:evenodd;clip-rule:evenodd;stroke-linejoin:round;stroke-miterlimit:2;">
                        <path d="M337.973 54.652 C 335.409 56.365,327.073 64.067,316.386 74.598 C 311.443 79.469,309.828 81.871,308.358 86.532 C 307.331 89.793,305.139 93.831,303.391 95.684 C 300.586 98.659,299.697 99.000,294.756 99.000 C 291.056 99.000,287.394 98.180,283.596 96.500 C 276.676 93.440,274.607 93.406,269.548 96.272 C 266.339 98.089,264.772 100.149,261.223 107.221 C 257.140 115.354,256.289 116.347,248.360 122.215 C 236.013 131.354,229.000 142.752,229.000 153.682 C 229.000 164.138,234.562 170.759,247.837 176.106 C 256.749 179.696,264.000 185.941,264.000 190.027 C 264.000 192.500,261.869 196.785,257.429 203.240 C 255.634 205.849,253.734 210.006,253.207 212.477 C 251.903 218.592,254.021 234.892,257.044 242.000 C 259.057 246.732,259.360 248.987,259.216 258.152 C 259.124 264.010,258.363 275.980,257.524 284.751 L 255.998 300.698 259.452 315.599 C 263.525 333.169,265.658 349.223,266.482 368.500 C 268.492 415.486,269.613 424.258,274.623 432.195 C 277.848 437.304,282.035 439.000,291.419 439.000 C 298.773 439.000,302.541 438.277,316.500 434.185 C 320.350 433.056,325.750 431.818,328.500 431.433 C 345.025 429.120,349.800 420.884,351.072 392.500 C 351.491 383.150,352.369 374.028,353.022 372.229 C 353.938 369.708,353.945 361.122,353.052 334.806 C 352.068 305.805,351.621 300.040,350.094 296.577 C 349.104 294.335,347.975 291.602,347.585 290.505 C 346.498 287.451,348.095 259.253,349.461 257.385 C 350.265 256.284,353.057 255.533,358.218 255.028 C 363.366 254.524,367.190 253.496,370.147 251.823 C 383.724 244.141,394.315 237.784,398.067 235.066 C 400.410 233.369,404.391 231.351,406.914 230.581 C 413.660 228.523,417.298 226.437,422.854 221.441 C 429.853 215.149,432.596 209.962,434.091 200.196 C 435.205 192.924,435.153 191.326,433.649 186.556 C 432.712 183.584,430.389 178.567,428.487 175.408 C 424.165 168.232,423.564 165.042,424.332 153.358 C 425.121 141.339,426.871 137.914,435.424 131.654 C 439.066 128.988,443.160 125.346,444.523 123.559 C 446.843 120.517,447.000 119.546,447.000 108.245 L 447.000 96.178 443.923 93.589 C 442.231 92.165,440.191 91.000,439.390 91.000 C 438.589 91.000,435.713 89.875,433.000 88.500 C 425.027 84.460,419.628 85.432,409.739 92.691 C 405.638 95.702,403.628 96.472,398.987 96.807 C 389.141 97.520,385.309 93.263,386.507 82.944 C 387.120 77.659,386.878 76.498,383.912 70.472 C 380.267 63.069,377.504 60.568,368.000 56.075 C 362.026 53.250,360.648 53.002,350.973 53.001 C 342.848 53.000,339.881 53.377,337.973 54.652 M356.296 58.577 C 364.172 60.618,368.605 62.968,373.308 67.594 C 378.553 72.754,380.000 76.783,380.000 86.221 C 380.000 95.919,381.647 99.871,386.922 102.836 C 393.032 106.270,397.869 105.720,408.395 100.391 C 418.908 95.070,424.961 93.026,430.250 93.011 C 433.274 93.002,434.744 93.744,437.844 96.844 C 442.229 101.229,443.474 105.525,441.975 111.093 C 440.922 115.003,439.254 116.955,427.871 127.598 C 422.183 132.916,421.128 134.484,419.620 139.857 C 418.512 143.806,417.840 150.055,417.749 157.259 L 417.607 168.500 421.697 176.500 C 428.303 189.425,429.116 193.367,426.823 201.384 C 425.128 207.313,418.536 216.985,413.673 220.680 C 411.052 222.670,406.498 224.657,401.494 225.993 C 393.389 228.156,387.101 231.648,372.312 242.198 C 366.264 246.512,364.260 247.397,359.676 247.777 C 351.196 248.480,350.466 247.281,349.706 231.391 C 348.788 212.200,345.319 202.675,337.138 196.885 C 331.706 193.041,327.610 191.997,318.101 192.032 C 302.991 192.087,284.876 195.304,278.687 199.030 C 271.941 203.091,267.785 205.118,267.267 204.600 C 266.970 204.304,267.689 201.826,268.864 199.095 C 274.685 185.563,268.238 174.673,250.500 168.078 C 243.860 165.609,238.627 162.040,236.890 158.794 C 233.064 151.645,238.979 138.048,249.338 130.183 C 257.868 123.705,262.229 118.924,265.915 112.009 C 269.261 105.730,273.068 102.000,276.131 102.000 C 277.155 102.000,280.743 102.952,284.105 104.115 C 298.913 109.240,310.355 104.006,313.898 90.485 C 315.413 84.705,320.021 77.930,325.099 74.014 C 327.519 72.147,332.248 68.030,335.606 64.865 C 338.964 61.700,343.014 58.821,344.606 58.468 C 346.198 58.114,347.950 57.675,348.500 57.491 C 349.050 57.308,349.660 57.122,349.856 57.079 C 350.051 57.036,352.949 57.709,356.296 58.577 M150.500 167.042 C 143.609 172.186,143.002 173.384,142.985 181.861 C 142.969 190.206,141.533 194.319,138.475 194.780 C 132.851 195.628,132.001 196.089,132.035 198.269 C 132.055 199.496,132.676 201.592,133.415 202.926 C 134.611 205.085,134.442 206.058,131.876 211.776 C 130.291 215.309,128.153 219.392,127.125 220.850 C 122.970 226.742,118.976 235.576,114.983 247.712 C 111.622 257.923,110.106 261.132,107.456 263.635 C 105.511 265.474,103.660 268.548,102.982 271.067 C 102.346 273.429,100.671 276.875,99.261 278.725 C 95.717 283.371,93.534 295.649,95.081 302.237 C 95.693 304.842,96.064 312.042,95.905 318.237 L 95.618 329.500 100.910 341.000 C 103.820 347.325,106.786 354.334,107.501 356.576 C 108.215 358.818,110.409 363.848,112.377 367.755 C 117.164 377.262,117.722 381.336,115.237 388.651 C 114.145 391.868,112.700 398.325,112.028 403.000 C 111.355 407.675,110.340 413.525,109.773 416.000 C 109.205 418.475,108.809 422.300,108.892 424.500 C 108.975 426.700,109.023 431.294,108.998 434.708 C 108.957 440.204,109.572 442.215,114.361 452.253 C 120.393 464.896,124.915 470.000,130.084 470.000 C 133.853 470.000,138.536 467.644,139.452 465.287 C 139.834 464.304,140.514 455.625,140.962 446.000 C 141.852 426.924,142.311 425.239,148.793 417.250 C 150.689 414.913,152.821 413.000,153.529 413.000 C 154.238 413.000,157.221 409.963,160.159 406.252 C 168.314 395.948,170.418 392.941,174.002 386.466 C 175.819 383.185,178.361 378.933,179.652 377.018 C 182.540 372.734,182.605 369.045,180.044 354.671 C 178.065 343.561,176.369 339.345,167.510 323.500 C 165.050 319.100,163.029 314.335,163.019 312.911 C 162.998 310.104,166.353 304.980,172.211 298.870 C 175.770 295.159,176.187 295.000,182.385 295.000 C 185.939 295.000,191.115 294.477,193.886 293.837 C 198.886 292.683,198.961 292.702,203.627 296.337 C 206.212 298.352,209.110 300.000,210.065 300.000 C 211.617 300.000,217.704 293.627,223.804 285.615 C 225.078 283.941,226.000 281.290,226.000 279.299 C 226.000 275.219,226.791 273.631,233.254 264.746 C 239.134 256.661,240.687 255.646,244.922 257.123 C 247.335 257.964,248.408 257.906,249.658 256.869 C 251.891 255.016,255.165 247.074,254.505 245.112 C 253.848 243.160,247.184 238.787,236.753 233.462 C 227.963 228.975,227.049 229.119,223.338 235.581 C 218.757 243.557,221.363 247.117,230.135 244.869 C 233.702 243.955,235.607 243.891,236.813 244.647 C 240.209 246.775,239.280 249.670,232.307 258.687 C 226.149 266.650,224.725 267.886,217.544 271.500 C 211.660 274.462,208.385 275.500,204.926 275.500 C 200.547 275.500,199.951 275.164,195.378 270.115 C 188.710 262.753,187.857 260.985,189.019 256.934 C 190.065 253.288,187.390 242.223,184.556 238.475 C 182.208 235.369,182.728 232.795,186.365 229.525 C 190.977 225.379,193.000 221.003,193.000 215.175 C 193.000 212.467,193.675 208.338,194.500 206.000 C 196.748 199.629,196.434 191.274,193.750 186.017 C 192.071 182.729,189.523 180.267,183.704 176.313 C 179.416 173.399,174.691 170.763,173.204 170.455 C 171.717 170.147,167.968 168.569,164.873 166.948 C 157.853 163.270,155.532 163.285,150.500 167.042 M327.791 198.531 C 336.248 201.042,340.727 208.826,343.384 225.626 C 344.784 234.477,344.790 236.432,343.443 244.500 C 341.139 258.306,340.552 278.655,341.971 295.528 C 342.663 303.763,343.567 317.925,343.979 327.000 C 344.516 338.834,345.221 344.773,346.473 348.000 C 347.893 351.662,348.101 354.269,347.591 362.000 C 347.246 367.225,346.533 373.300,346.006 375.500 C 345.479 377.700,345.037 384.931,345.024 391.568 C 344.997 404.978,343.388 412.407,339.352 417.751 C 335.971 422.227,333.105 423.494,319.921 426.338 C 313.640 427.693,304.759 429.746,300.187 430.901 C 289.939 433.489,287.356 433.515,283.350 431.072 C 276.856 427.112,274.654 415.540,273.061 377.000 C 272.079 353.234,268.656 322.130,265.203 305.593 C 263.514 297.507,263.472 295.987,264.741 289.093 C 266.215 281.088,266.791 259.602,266.069 239.500 C 265.588 226.097,266.904 219.602,271.548 212.459 C 276.568 204.738,282.561 202.141,302.500 199.047 C 317.602 196.703,321.378 196.626,327.791 198.531 M149.486 359.116 C 153.740 363.825,153.742 365.516,149.502 374.776 C 146.380 381.596,144.689 381.187,143.893 373.421 C 143.560 370.165,142.939 365.388,142.515 362.806 C 141.070 354.016,143.646 352.652,149.486 359.116 " style="stroke: none; fill: black;">
                    </path></svg>