<svg id="svg-path" width="100%" height="100%" viewBox="0 0 512 512" version="1.1" xmlns="http://www.w3.org/2000/svg" style="fill-rule:evenodd;clip-rule:evenodd;stroke-linejoin:round;stroke-miterlimit:2;">
                        <path d="M185.919 209.015 C 168.734 210.079,166.669 211.067,153.500 224.518 C 143.901 234.324,143.240 234.797,137.000 236.320 C 133.019 237.292,121.425 238.325,107.081 238.986 C 82.353 240.127,79.505 240.704,75.006 245.494 C 73.668 246.918,72.578 249.610,72.296 252.188 C 71.704 257.587,74.673 262.373,80.500 265.413 C 84.232 267.360,86.111 267.500,108.500 267.500 C 128.604 267.500,133.425 267.786,138.199 269.263 C 141.334 270.233,144.173 271.470,144.508 272.013 C 144.844 272.556,145.760 273.000,146.544 273.000 C 147.328 273.000,150.131 274.330,152.773 275.955 C 156.771 278.415,158.115 280.075,160.795 285.858 C 162.595 289.743,165.555 294.158,167.511 295.876 C 172.121 299.923,180.730 302.411,187.395 301.622 C 190.203 301.290,198.130 300.594,205.010 300.076 C 211.891 299.557,218.766 298.659,220.288 298.081 C 221.810 297.502,225.268 294.959,227.973 292.429 C 231.723 288.921,233.539 286.127,235.621 280.664 C 237.123 276.724,239.848 270.624,241.676 267.108 C 245.559 259.640,246.124 251.859,243.297 244.770 C 241.395 240.002,228.259 219.990,224.274 215.790 C 217.817 208.985,209.662 207.544,185.919 209.015 M306.542 211.729 C 301.184 213.090,296.389 217.826,290.729 227.345 C 285.710 235.787,281.833 238.383,270.234 241.065 C 258.975 243.669,256.765 244.575,253.746 247.823 C 247.313 254.744,250.549 263.381,260.500 265.850 C 262.700 266.396,267.650 267.627,271.500 268.586 C 275.350 269.544,280.094 271.326,282.042 272.546 C 286.224 275.163,291.699 281.173,293.272 284.873 C 295.823 290.870,301.320 296.270,307.920 299.263 C 315.048 302.495,315.830 302.516,338.500 300.082 C 354.339 298.381,358.600 296.344,368.685 285.655 C 373.047 281.031,376.877 278.128,381.685 275.800 L 388.500 272.500 414.250 272.770 C 438.356 273.023,440.252 272.912,443.934 271.034 C 451.001 267.429,452.721 262.520,449.017 256.528 C 445.868 251.433,437.093 248.527,422.000 247.582 C 384.535 245.235,379.028 243.358,368.478 229.342 C 364.832 224.498,360.884 220.615,357.186 218.238 C 351.591 214.641,351.323 214.580,340.432 214.384 C 333.792 214.265,327.218 213.548,324.000 212.593 C 318.876 211.071,310.721 210.668,306.542 211.729 M341.698 237.147 C 352.983 244.223,356.599 247.797,358.096 253.355 C 360.388 261.869,356.784 268.051,346.688 272.920 C 328.739 281.577,312.115 277.820,307.624 264.091 C 305.799 258.510,305.513 249.293,306.999 243.943 C 308.946 236.935,317.697 231.221,326.698 231.081 C 331.399 231.008,332.832 231.588,341.698 237.147 M203.006 233.265 C 212.289 236.535,216.004 242.399,215.994 253.770 C 215.986 263.624,214.658 267.251,209.342 271.931 C 204.642 276.067,199.914 277.985,194.388 277.994 C 189.731 278.003,172.340 272.196,169.370 269.642 C 167.017 267.618,166.785 266.763,166.879 260.489 C 167.072 247.607,171.453 240.421,183.000 234.047 C 187.135 231.764,197.586 231.356,203.006 233.265 " style="stroke: none; fill: black;">
                    </path></svg>