<svg id="svg-path" width="100%" height="100%" viewBox="0 0 512 512" version="1.1" xmlns="http://www.w3.org/2000/svg" style="fill-rule:evenodd;clip-rule:evenodd;stroke-linejoin:round;stroke-miterlimit:2;">
                        <path d="M250.493 45.856 C 245.151 47.674,234.034 54.049,232.062 56.425 C 231.408 57.214,230.415 62.426,229.856 68.009 C 228.628 80.267,229.561 85.187,235.165 96.000 C 239.016 103.429,239.046 103.577,238.393 111.696 C 237.779 119.323,237.920 120.249,240.426 125.040 C 244.512 132.854,243.807 134.393,229.619 148.625 C 220.686 157.585,215.887 161.588,211.365 163.847 C 202.805 168.124,202.000 169.138,202.000 175.631 C 202.000 180.879,201.770 181.364,196.750 186.684 C 186.397 197.657,168.175 210.132,159.060 212.489 C 151.451 214.455,145.472 217.328,144.677 219.399 C 144.364 220.216,142.956 221.638,141.549 222.560 C 138.251 224.721,136.733 223.537,134.653 217.179 C 132.509 210.622,128.208 203.181,125.824 201.906 C 123.429 200.624,113.853 201.174,101.292 203.315 C 94.837 204.415,91.101 204.602,88.798 203.942 C 83.573 202.444,79.185 202.777,78.169 204.750 C 77.673 205.713,76.972 209.875,76.613 214.000 C 76.253 218.125,75.278 223.750,74.445 226.500 C 72.494 232.947,71.047 255.404,71.021 279.622 C 71.001 297.367,70.817 299.306,68.456 306.537 L 65.913 314.329 66.377 371.414 C 66.632 402.812,67.236 431.064,67.718 434.197 C 68.914 441.977,70.934 444.000,77.506 444.000 C 85.212 444.000,88.745 442.421,91.022 437.957 C 92.094 435.855,93.539 433.785,94.232 433.357 C 94.925 432.928,98.583 432.671,102.359 432.784 C 108.413 432.967,109.631 433.347,112.648 435.996 C 115.864 438.819,116.570 439.000,124.380 439.000 C 136.391 439.000,136.595 438.692,136.169 421.142 C 135.284 384.708,135.312 384.399,140.026 378.468 C 144.210 373.203,144.198 365.925,139.990 357.300 C 138.334 353.906,136.706 349.136,136.372 346.698 C 135.813 342.620,136.054 341.946,139.382 338.262 C 142.953 334.310,143.000 334.144,143.000 325.594 C 143.000 319.902,142.521 316.170,141.604 314.715 C 140.162 312.428,138.722 296.326,138.813 283.500 C 138.914 269.207,140.233 250.460,141.223 249.250 C 141.785 248.563,144.102 247.996,146.372 247.991 C 152.053 247.978,158.847 243.869,169.483 234.016 C 177.564 226.529,184.222 221.985,200.274 213.000 C 203.713 211.075,209.117 207.813,212.283 205.750 C 220.311 200.519,223.059 200.708,230.500 207.000 C 234.920 210.737,237.225 212.000,239.629 212.000 C 244.103 212.000,250.763 206.677,254.694 199.959 C 261.867 187.701,262.606 187.535,271.587 196.159 C 278.706 202.995,279.214 204.700,276.004 210.993 C 273.947 215.025,273.308 221.527,272.613 245.500 C 272.282 256.914,271.851 258.604,265.188 274.558 C 263.567 278.440,261.908 283.587,261.500 285.997 C 261.093 288.407,259.532 293.106,258.031 296.439 C 253.090 307.414,252.956 308.154,252.516 327.021 C 252.098 344.978,251.583 348.616,247.641 361.500 C 245.944 367.045,243.521 381.006,242.521 391.000 C 242.163 394.575,240.550 402.611,238.935 408.858 C 235.123 423.610,235.016 432.730,238.529 443.493 C 241.584 452.852,242.494 454.695,245.809 458.250 C 248.301 460.921,248.683 461.000,259.152 461.000 C 269.148 461.000,270.013 460.844,271.077 458.856 C 272.759 455.713,271.689 450.277,267.608 441.238 C 265.619 436.834,263.570 431.006,263.055 428.288 C 262.014 422.798,263.181 403.055,264.789 398.968 C 266.132 395.553,269.403 388.330,274.510 377.500 C 276.844 372.550,279.993 365.350,281.507 361.500 C 283.022 357.650,286.270 351.244,288.725 347.264 C 292.318 341.441,294.519 339.144,299.991 335.506 C 310.363 328.611,316.415 326.228,325.506 325.460 C 332.466 324.873,333.800 325.027,335.713 326.642 C 338.707 329.169,345.274 344.803,347.430 354.538 C 349.248 362.741,351.638 372.560,355.211 386.500 C 357.093 393.839,357.176 395.615,356.214 408.000 C 355.012 423.484,352.819 430.496,345.312 442.862 C 339.519 452.405,337.749 456.633,338.523 459.073 C 339.081 460.831,340.162 461.000,350.845 461.000 C 359.837 461.000,363.072 460.638,364.783 459.440 C 366.846 457.994,378.000 443.687,378.000 442.486 C 378.000 442.192,379.575 439.662,381.500 436.864 C 385.697 430.763,385.926 427.340,382.881 416.232 C 380.561 407.766,380.098 392.375,381.972 386.007 C 382.537 384.085,382.995 376.660,382.989 369.507 C 382.979 358.041,382.635 355.374,380.086 347.000 C 378.496 341.775,375.801 334.050,374.098 329.833 C 372.317 325.427,371.000 320.354,371.000 317.904 C 371.000 314.005,371.448 313.253,376.250 309.098 C 379.137 306.600,386.239 299.818,392.030 294.028 C 403.354 282.706,406.184 278.119,409.505 265.701 C 411.830 257.007,411.241 255.665,399.662 243.288 C 390.854 233.873,390.489 233.186,389.627 224.379 C 389.021 218.197,383.363 201.557,381.262 199.776 C 380.433 199.074,377.673 197.341,375.128 195.925 C 369.494 192.790,368.512 190.880,366.946 180.000 C 364.205 160.959,364.499 159.000,370.096 159.000 C 373.806 159.000,397.845 171.185,401.347 174.840 C 403.249 176.825,404.328 179.373,404.990 183.436 C 405.506 186.611,406.508 189.907,407.215 190.760 C 409.217 193.175,414.495 195.000,419.477 195.000 C 423.586 195.000,424.583 195.520,429.968 200.471 C 433.241 203.480,437.175 206.187,438.710 206.487 C 440.244 206.787,443.402 207.470,445.726 208.006 C 453.952 209.901,458.000 205.453,458.000 194.519 C 458.000 187.318,458.092 187.470,449.112 179.865 C 446.638 177.770,445.993 176.438,445.968 173.365 C 445.951 171.239,445.310 168.673,444.543 167.662 C 442.906 165.501,437.419 164.057,430.718 164.024 C 424.607 163.993,420.522 162.256,413.834 156.843 C 410.882 154.454,404.777 150.090,400.267 147.145 C 392.650 142.172,391.916 141.388,389.972 136.145 C 387.246 128.797,378.891 116.068,373.642 111.268 C 371.364 109.184,365.569 105.283,360.765 102.598 C 348.848 95.939,345.117 92.486,338.493 81.989 C 333.569 74.185,332.691 72.033,331.916 65.857 C 330.889 57.679,330.291 56.732,324.063 53.412 C 321.553 52.074,317.396 49.466,314.824 47.616 L 310.148 44.252 282.824 44.203 C 259.620 44.160,254.745 44.410,250.493 45.856 " style="stroke: none; fill: black;">
                    </path></svg>