<svg id="svg-path" width="100%" height="100%" viewBox="0 0 512 512" version="1.1" xmlns="http://www.w3.org/2000/svg" style="fill-rule:evenodd;clip-rule:evenodd;stroke-linejoin:round;stroke-miterlimit:2;">
                        <path d="M250.721 45.916 C 237.704 52.258,231.161 62.103,229.139 78.387 C 228.362 84.642,227.593 86.575,223.501 92.551 L 218.763 99.472 219.421 107.581 C 220.201 117.196,219.961 117.526,211.500 118.493 C 208.200 118.869,201.526 120.084,196.669 121.191 C 185.209 123.804,173.452 123.466,169.318 120.405 C 165.225 117.375,159.369 106.778,156.383 97.000 C 150.434 77.519,149.718 76.099,144.068 72.562 C 134.968 66.865,125.043 65.593,118.520 69.287 C 111.232 73.415,107.288 85.236,111.829 89.345 C 114.203 91.494,115.414 91.434,121.617 88.863 C 127.608 86.380,131.204 86.856,133.554 90.442 C 134.422 91.767,136.208 99.072,137.523 106.676 C 142.156 133.468,148.364 144.867,160.032 148.009 C 162.106 148.567,167.251 149.461,171.465 149.996 C 177.545 150.766,180.041 151.623,183.553 154.146 L 187.979 157.324 194.912 156.085 C 202.871 154.663,205.096 155.352,207.490 159.980 C 209.503 163.873,209.418 166.012,206.859 175.762 C 204.732 183.866,204.725 184.137,206.473 189.912 C 207.454 193.151,208.012 197.083,207.713 198.650 C 207.413 200.218,204.820 207.262,201.948 214.304 C 196.102 228.642,196.126 230.557,202.187 233.796 C 203.940 234.733,206.449 236.526,207.762 237.780 C 209.959 239.877,210.119 240.679,209.757 247.780 C 209.541 252.026,208.647 258.425,207.772 262.000 C 206.089 268.871,204.238 278.075,203.316 284.153 C 202.900 286.901,203.458 289.254,205.568 293.653 C 209.089 300.992,209.687 308.535,207.743 321.059 C 205.797 333.589,206.113 355.624,208.343 362.932 C 209.568 366.946,210.005 372.294,210.017 383.432 C 210.038 401.114,211.572 409.761,216.091 417.658 C 217.835 420.706,220.078 426.862,221.075 431.337 C 222.671 438.496,222.768 441.220,221.887 453.987 C 221.336 461.969,219.997 472.149,218.913 476.608 C 216.650 485.914,217.103 488.226,221.991 492.339 C 227.838 497.259,233.370 497.098,237.071 491.900 C 238.768 489.516,239.417 486.796,239.893 480.071 C 240.419 472.633,240.950 470.683,243.476 466.919 C 247.289 461.236,247.360 455.745,243.728 447.445 C 241.218 441.711,241.149 441.128,242.422 436.445 C 243.161 433.725,244.928 429.459,246.349 426.964 C 250.640 419.429,252.328 410.901,251.536 400.770 L 250.847 391.965 254.704 385.233 C 256.825 381.530,260.718 374.225,263.354 369.000 C 265.990 363.775,268.676 358.807,269.324 357.959 C 273.759 352.150,284.535 348.000,295.182 348.000 C 305.829 348.000,315.497 345.084,332.053 336.879 C 349.633 328.166,354.133 324.426,356.652 316.435 C 358.115 311.792,358.115 310.908,356.647 305.857 C 355.235 301.002,353.880 299.222,345.272 290.921 C 339.898 285.738,332.140 278.573,328.033 274.999 C 323.926 271.424,316.726 264.838,312.033 260.362 C 307.340 255.887,300.930 250.596,297.788 248.606 C 289.953 243.642,289.684 242.470,290.266 215.937 C 290.780 192.534,291.537 188.636,298.109 175.565 C 302.289 167.253,303.545 166.204,312.601 163.464 C 316.945 162.149,323.200 160.167,326.500 159.059 C 329.800 157.951,335.854 156.308,339.953 155.407 C 349.550 153.298,354.249 150.333,356.361 145.055 C 359.478 137.265,357.959 129.855,349.276 110.500 C 346.809 105.000,344.163 99.082,343.395 97.349 C 340.581 90.994,342.288 87.542,348.782 86.457 C 358.926 84.763,360.402 83.065,357.293 76.666 C 353.394 68.641,342.897 65.748,336.023 70.804 C 334.636 71.825,331.713 75.234,329.530 78.381 C 326.023 83.434,325.514 84.906,325.170 90.997 C 324.919 95.448,325.341 99.774,326.362 103.197 C 331.795 121.407,331.922 122.558,328.927 126.365 C 326.979 128.842,326.346 129.000,318.358 129.000 C 311.125 129.000,308.754 128.539,302.418 125.902 C 294.074 122.428,292.000 120.231,292.000 114.868 C 292.000 111.797,292.756 110.460,296.520 106.872 C 301.958 101.690,303.464 97.066,302.637 88.094 C 301.878 79.865,299.608 73.767,294.947 67.439 C 285.738 54.933,268.409 42.918,259.772 43.050 C 257.972 43.077,253.899 44.367,250.721 45.916 M283.210 312.011 C 285.518 314.861,284.960 318.034,281.306 322.835 C 276.164 329.593,268.661 331.658,260.021 328.694 C 253.853 326.577,253.374 319.256,259.056 313.947 C 262.787 310.462,267.911 309.029,275.399 309.376 C 280.200 309.598,281.653 310.088,283.210 312.011 " style="stroke: none; fill: black;">
                    </path></svg>