<svg id="svg-path" width="100%" height="100%" viewBox="0 0 512 512" version="1.1" xmlns="http://www.w3.org/2000/svg" style="fill-rule:evenodd;clip-rule:evenodd;stroke-linejoin:round;stroke-miterlimit:2;">
                        <path d="M298.007 72.593 C 293.280 74.643,290.490 77.431,286.353 84.242 L 282.862 89.990 284.027 97.681 C 284.669 101.911,284.900 108.106,284.543 111.447 C 283.917 117.290,284.009 117.634,286.946 120.448 C 288.626 122.058,290.000 123.731,290.000 124.167 C 290.000 124.603,288.207 125.874,286.015 126.993 C 278.357 130.899,278.234 131.568,281.052 154.136 C 282.641 166.864,282.328 167.630,273.108 173.585 C 265.294 178.632,264.590 180.389,265.882 191.625 C 271.313 238.830,272.375 245.765,276.218 259.134 C 278.448 266.895,281.241 269.954,286.772 270.696 C 291.788 271.369,292.369 270.455,292.242 262.084 C 292.180 258.041,292.594 255.243,293.321 254.780 C 295.108 253.644,313.858 253.854,316.066 255.035 C 318.641 256.414,318.497 258.677,315.526 263.500 C 311.116 270.660,312.723 275.000,319.785 275.000 C 327.562 275.000,329.505 272.941,335.082 258.793 C 337.050 253.798,346.552 240.548,351.353 236.103 C 354.380 233.300,363.545 206.347,362.711 202.704 C 360.221 191.837,354.847 183.464,348.389 180.386 C 346.677 179.571,344.811 177.880,344.241 176.629 C 343.056 174.029,344.415 150.385,346.025 145.601 C 347.334 141.710,347.261 133.666,345.890 130.657 C 344.538 127.690,342.278 126.588,334.603 125.149 C 328.738 124.050,325.000 121.827,325.000 119.440 C 325.000 118.752,326.575 116.304,328.500 114.000 C 330.425 111.696,332.000 109.165,332.000 108.375 C 332.000 107.586,330.875 104.267,329.500 101.000 C 328.125 97.733,326.997 93.809,326.994 92.280 C 326.965 77.628,311.156 66.891,298.007 72.593 M257.699 155.109 C 256.708 155.685,251.940 160.114,247.105 164.949 C 241.173 170.881,237.041 174.160,234.406 175.026 C 232.258 175.733,228.093 178.269,225.151 180.661 C 222.210 183.054,218.797 185.264,217.568 185.572 C 216.338 185.881,212.616 185.218,209.295 184.099 C 204.566 182.506,202.527 182.275,199.886 183.033 C 198.031 183.565,194.967 184.000,193.076 184.000 C 188.097 184.000,182.179 190.680,178.097 200.908 C 175.525 207.355,175.068 209.606,175.614 213.153 C 176.412 218.336,179.637 225.044,183.899 230.388 C 187.174 234.494,187.660 237.134,185.961 241.601 C 185.390 243.104,184.777 247.971,184.598 252.416 C 184.417 256.930,183.550 262.210,182.637 264.372 C 181.736 266.502,181.000 269.053,181.000 270.041 C 181.000 271.029,179.486 274.996,177.636 278.856 C 173.019 288.490,172.111 296.682,175.037 302.296 C 177.773 307.544,177.167 311.906,173.054 316.592 C 170.517 319.481,170.000 320.919,170.000 325.084 C 170.000 327.843,169.391 331.314,168.646 332.800 C 167.901 334.285,166.763 337.663,166.117 340.308 C 165.471 342.952,164.055 346.770,162.971 348.793 C 161.887 350.815,161.000 353.087,161.000 353.840 C 161.000 354.593,159.821 357.525,158.381 360.355 C 155.568 365.880,153.093 374.698,153.036 379.398 C 153.016 380.992,151.455 386.842,149.566 392.398 C 146.341 401.885,140.967 422.556,139.399 431.500 C 139.014 433.700,138.084 436.445,137.332 437.600 C 135.710 440.095,127.822 444.506,123.262 445.470 C 119.175 446.333,115.662 450.501,116.967 452.939 C 117.475 453.888,118.478 455.123,119.195 455.684 C 121.631 457.588,130.470 459.960,138.965 460.989 C 150.310 462.364,151.088 461.642,152.008 448.890 C 152.612 440.511,152.918 439.467,155.392 437.339 C 156.888 436.053,158.954 435.000,159.983 435.000 C 162.726 435.000,165.476 430.929,167.425 423.983 C 169.656 416.031,182.860 390.105,187.717 384.141 C 189.795 381.588,195.980 374.887,201.460 369.250 C 212.556 357.835,213.620 357.401,221.460 361.086 C 229.637 364.930,229.629 366.524,221.404 371.720 C 218.984 373.249,217.003 374.819,217.002 375.208 C 216.998 376.580,208.450 380.905,204.488 381.538 C 200.005 382.255,192.666 386.778,192.219 389.101 C 192.059 389.932,195.088 395.353,198.951 401.148 C 210.462 418.420,220.498 426.214,222.901 419.750 C 223.815 417.292,223.732 416.891,220.762 409.377 C 219.105 405.184,218.898 403.369,219.625 399.377 C 220.321 395.553,220.962 394.436,222.594 394.202 C 223.738 394.038,225.253 394.600,225.960 395.452 C 228.677 398.726,233.056 397.246,246.500 388.509 C 273.154 371.189,273.990 370.368,273.996 361.501 C 274.000 356.534,273.944 356.447,265.367 348.118 C 260.619 343.506,253.864 336.207,250.356 331.897 C 244.671 324.912,243.984 323.595,244.040 319.780 C 244.075 317.426,243.651 311.246,243.098 306.046 C 241.692 292.805,243.282 291.526,252.838 298.214 C 255.223 299.884,258.713 301.597,260.593 302.021 C 264.858 302.983,286.213 300.456,291.000 298.423 C 292.925 297.605,299.225 296.359,305.000 295.654 C 317.439 294.135,320.000 293.020,320.000 289.125 C 320.000 285.522,317.605 284.415,307.827 283.498 C 301.695 282.924,299.687 283.111,296.988 284.506 C 295.165 285.449,292.060 286.254,290.087 286.296 C 283.031 286.447,269.449 284.699,266.636 283.278 C 261.344 280.604,255.002 273.789,252.051 267.607 C 250.078 263.474,245.690 257.789,238.474 250.019 C 223.366 233.750,222.663 231.811,229.816 226.145 C 235.638 221.535,238.890 208.242,235.836 201.539 C 234.255 198.069,235.849 195.287,242.083 190.632 C 244.779 188.619,247.613 185.469,248.381 183.630 C 249.191 181.693,252.286 178.358,255.746 175.695 L 261.715 171.103 262.413 163.395 C 262.945 157.532,262.799 155.489,261.806 154.859 C 260.159 153.815,259.895 153.831,257.699 155.109 " style="stroke: none; fill: black;">
                    </path></svg>