<svg id="svg-path" width="100%" height="100%" viewBox="0 0 512 512" version="1.1" xmlns="http://www.w3.org/2000/svg" style="fill-rule:evenodd;clip-rule:evenodd;stroke-linejoin:round;stroke-miterlimit:2;">
                        <path d="M255.740 143.540 C 253.559 145.563,253.000 146.972,253.000 150.452 C 253.000 154.141,253.499 155.242,256.201 157.516 C 258.857 159.750,260.075 160.119,263.348 159.680 C 268.978 158.925,271.333 156.187,271.333 150.397 C 271.333 146.507,270.858 145.275,268.611 143.342 C 264.843 140.100,259.358 140.185,255.740 143.540 M143.000 184.735 C 136.839 187.108,136.195 196.912,141.976 200.326 C 146.203 202.824,149.437 202.409,152.923 198.923 C 156.974 194.872,157.025 190.871,153.077 186.923 C 150.233 184.079,146.697 183.312,143.000 184.735 M405.500 230.208 C 400.253 233.217,399.249 240.648,403.552 244.635 C 409.082 249.761,419.000 245.501,419.000 238.000 C 419.000 231.563,411.094 227.000,405.500 230.208 M299.146 267.855 C 295.683 270.519,295.067 277.564,297.975 281.250 C 299.794 283.554,300.903 283.998,304.823 283.985 C 310.040 283.968,310.879 283.576,313.308 280.027 C 315.882 276.266,315.441 272.287,312.077 268.923 C 308.601 265.447,302.890 264.975,299.146 267.855 M210.000 279.699 C 204.699 281.613,203.337 290.064,207.636 294.364 C 212.907 299.635,221.435 296.474,222.657 288.796 C 223.166 285.596,222.832 284.679,220.200 282.046 C 217.247 279.093,213.847 278.311,210.000 279.699 M122.898 350.284 C 119.871 352.318,119.467 353.127,119.201 357.695 C 118.921 362.499,119.116 362.987,122.295 365.412 C 126.459 368.587,128.729 368.659,133.033 365.750 C 138.970 361.738,138.970 354.262,133.033 350.250 C 128.849 347.422,127.147 347.428,122.898 350.284 M343.775 350.559 C 336.127 354.709,337.940 366.960,346.438 368.554 C 357.617 370.652,362.503 355.327,352.316 350.117 C 349.430 348.641,347.086 348.762,343.775 350.559 " style="stroke: none; fill: black;">
                    </path></svg>