<svg id="svg-path" width="100%" height="100%" viewBox="0 0 512 512" version="1.1" xmlns="http://www.w3.org/2000/svg" style="fill-rule:evenodd;clip-rule:evenodd;stroke-linejoin:round;stroke-miterlimit:2;">
                        <path d="M456.775 160.051 C 453.032 161.984,448.532 163.308,443.775 163.878 C 434.813 164.952,410.195 173.402,396.271 180.184 C 390.463 183.013,383.764 185.495,380.771 185.926 C 377.872 186.343,371.450 187.929,366.500 189.449 C 346.502 195.590,332.128 200.356,325.320 203.103 C 317.222 206.370,312.683 206.765,310.789 204.367 C 305.249 197.353,302.144 195.000,298.428 195.000 C 295.160 195.000,293.975 195.692,290.060 199.888 C 286.089 204.145,274.921 211.769,264.702 217.202 C 262.231 218.516,258.825 218.915,249.779 218.952 C 239.308 218.995,237.440 218.726,232.279 216.437 C 229.100 215.027,223.800 213.234,220.500 212.452 C 205.843 208.978,199.556 212.031,195.694 224.500 C 190.490 241.302,189.000 247.000,189.000 250.098 C 189.000 252.011,187.903 255.584,186.562 258.038 C 185.222 260.492,182.959 264.818,181.535 267.651 C 178.249 274.184,177.569 274.698,171.500 275.244 C 168.750 275.491,162.000 276.233,156.500 276.892 C 151.000 277.551,142.225 278.545,137.000 279.100 C 131.775 279.656,123.390 281.024,118.366 282.141 C 109.905 284.022,109.006 284.054,106.166 282.586 C 102.160 280.514,101.394 280.574,97.714 283.250 C 96.012 284.488,92.342 286.193,89.559 287.040 C 85.151 288.382,84.457 288.954,84.164 291.491 C 83.683 295.663,86.108 297.000,94.160 297.000 C 98.681 297.000,103.489 296.167,108.597 294.500 C 112.809 293.125,117.556 292.000,119.145 292.000 C 120.734 292.000,126.246 291.088,131.393 289.972 C 136.540 288.857,143.620 288.017,147.126 288.105 C 150.632 288.192,157.775 287.763,163.000 287.149 C 168.225 286.536,175.148 286.027,178.384 286.017 C 181.620 286.008,185.932 285.501,187.966 284.892 C 191.398 283.864,192.220 284.079,199.417 287.892 C 207.088 291.956,207.283 292.000,217.835 292.015 C 223.701 292.024,228.972 292.361,229.548 292.765 C 230.125 293.169,231.571 294.896,232.762 296.603 C 235.162 300.042,241.489 304.494,253.387 311.113 C 257.724 313.526,263.215 317.206,265.587 319.291 C 270.987 324.038,277.613 325.227,283.388 322.486 C 289.780 319.453,291.132 313.794,288.464 301.250 L 287.773 298.000 296.919 298.000 C 303.223 298.000,307.219 298.510,309.782 299.642 C 312.638 300.903,317.847 301.395,332.252 301.762 C 352.249 302.273,354.409 301.855,353.798 297.597 C 353.227 293.617,348.702 292.540,330.000 291.931 C 305.082 291.121,300.198 288.553,312.366 282.658 C 317.217 280.309,318.500 279.136,319.776 275.887 C 321.423 271.695,321.856 271.490,330.923 270.591 C 333.906 270.295,336.809 269.591,337.373 269.027 C 337.938 268.462,341.520 268.000,345.334 268.000 C 351.974 268.000,354.269 268.401,365.500 271.519 C 368.250 272.283,375.900 273.401,382.500 274.005 C 389.100 274.608,399.000 275.509,404.500 276.008 C 422.082 277.601,445.746 281.134,451.000 282.951 C 452.375 283.426,455.963 284.574,458.974 285.501 C 463.810 286.991,467.215 289.111,474.497 295.166 C 486.473 305.125,487.154 305.449,488.965 302.066 C 491.153 297.976,489.549 291.730,484.610 285.111 C 483.219 283.247,481.539 279.197,480.876 276.111 C 478.348 264.340,474.617 261.010,463.953 261.004 C 457.759 261.000,442.247 258.185,436.608 256.041 C 435.182 255.499,428.275 254.326,421.258 253.434 C 407.811 251.725,398.538 248.743,388.098 242.770 C 380.673 238.522,368.000 227.306,368.000 224.982 C 368.000 222.707,372.731 219.008,379.500 215.992 C 386.013 213.089,387.606 212.294,413.000 199.279 C 424.825 193.218,436.975 187.205,440.000 185.917 C 443.025 184.629,447.975 182.133,451.000 180.370 C 454.025 178.607,459.200 176.488,462.500 175.660 C 474.464 172.660,477.463 170.344,477.290 164.238 C 477.069 156.443,467.534 154.497,456.775 160.051 M29.513 276.979 C 27.832 279.699,31.294 280.542,60.436 284.511 C 74.457 286.420,78.000 286.426,78.000 284.539 C 78.000 282.623,74.068 281.726,54.000 279.064 C 44.925 277.860,35.869 276.630,33.876 276.330 C 31.602 275.988,29.976 276.230,29.513 276.979 M54.261 290.418 C 39.991 291.580,36.314 292.714,38.790 295.190 C 39.710 296.110,43.215 296.095,54.240 295.121 C 78.192 293.007,78.000 293.041,78.000 290.903 C 78.000 288.654,76.338 288.620,54.261 290.418 M68.500 302.668 C 65.200 304.038,57.775 306.960,52.000 309.160 C 46.225 311.361,40.038 313.851,38.250 314.695 C 34.709 316.365,33.870 319.000,36.879 319.000 C 38.865 319.000,69.743 307.587,76.428 304.383 C 85.809 299.886,78.835 298.377,68.500 302.668 " style="stroke: none; fill: black;">
                    </path></svg>