<svg id="svg-path" width="100%" height="100%" viewBox="0 0 512 512" version="1.1" xmlns="http://www.w3.org/2000/svg" style="fill-rule:evenodd;clip-rule:evenodd;stroke-linejoin:round;stroke-miterlimit:2;">
                        <path d="M252.256 29.547 C 248.271 30.878,243.096 33.177,240.756 34.654 C 234.408 38.661,226.759 47.112,223.553 53.660 C 214.126 72.913,217.138 93.098,231.855 109.282 C 237.156 115.112,237.931 116.446,237.377 118.782 C 236.407 122.867,234.379 124.684,225.551 129.377 C 216.895 133.980,210.863 137.491,197.402 145.761 C 186.621 152.385,176.866 156.553,166.558 158.940 C 156.947 161.166,152.723 162.442,135.104 168.440 C 127.626 170.985,119.863 173.000,117.534 173.000 C 113.061 173.000,110.699 171.403,98.988 160.462 C 93.957 155.762,92.953 155.257,87.488 154.685 C 82.400 154.152,53.676 153.654,43.250 153.918 C 39.203 154.020,36.000 157.080,36.000 160.845 C 36.000 166.026,38.011 166.719,54.513 167.220 C 73.296 167.791,74.421 168.265,73.743 175.325 C 73.194 181.039,73.885 183.155,78.759 190.692 C 84.236 199.160,84.562 199.187,113.500 193.546 C 120.100 192.259,130.000 190.670,135.500 190.013 C 149.872 188.298,174.399 182.369,188.485 177.206 C 198.902 173.388,202.697 172.904,208.719 174.629 C 213.422 175.976,214.272 175.965,217.326 174.516 C 219.189 173.631,221.988 171.578,223.544 169.954 C 226.397 166.977,229.356 166.148,230.504 168.006 C 231.798 170.101,231.155 177.001,229.116 182.893 C 227.952 186.256,227.000 191.174,227.000 193.820 C 227.000 201.913,225.017 210.139,221.170 218.000 C 218.085 224.305,217.480 226.616,217.375 232.500 C 217.307 236.350,216.556 242.200,215.708 245.500 C 212.928 256.310,210.974 266.360,210.025 274.730 C 209.512 279.256,208.681 283.756,208.178 284.730 C 207.675 285.703,206.950 288.233,206.567 290.351 C 205.117 298.379,195.550 323.073,188.340 337.399 C 184.216 345.594,180.010 355.551,178.993 359.526 C 177.977 363.501,174.903 370.999,172.164 376.190 C 169.424 381.380,166.030 388.365,164.621 391.712 C 163.212 395.059,160.526 401.106,158.652 405.149 C 156.779 409.192,153.729 416.997,151.876 422.493 C 148.842 431.491,147.875 433.155,142.172 439.201 C 135.342 446.441,125.419 452.283,114.617 455.423 C 110.234 456.697,108.699 457.662,107.959 459.609 C 106.027 464.689,109.597 470.218,115.500 471.290 C 117.150 471.589,122.089 470.981,126.474 469.938 C 132.894 468.411,136.696 468.150,145.974 468.598 C 156.404 469.101,157.804 468.961,160.701 467.121 C 164.839 464.494,166.567 461.023,168.550 451.361 C 170.623 441.252,174.518 433.148,182.277 422.800 C 185.700 418.235,189.508 412.925,190.739 411.000 C 194.480 405.154,200.648 391.910,203.081 384.500 C 206.103 375.296,208.485 371.824,217.221 363.887 C 222.584 359.015,225.521 355.330,228.379 349.887 C 235.538 336.256,244.606 323.576,254.590 313.237 C 268.879 298.440,268.153 298.253,293.850 323.363 C 298.992 328.389,304.143 333.850,305.296 335.500 C 312.001 345.095,321.121 355.524,327.132 360.469 C 334.492 366.523,335.675 368.258,339.351 378.385 C 342.679 387.556,350.047 397.922,360.338 407.917 C 369.609 416.919,380.774 429.752,383.031 434.000 C 383.762 435.375,385.597 441.593,387.110 447.818 C 388.622 454.043,390.563 460.210,391.422 461.521 C 393.485 464.669,398.102 465.370,405.324 463.631 C 408.527 462.859,413.027 462.333,415.324 462.461 C 449.430 464.363,449.363 464.364,456.765 462.073 C 472.321 457.258,473.151 448.730,458.331 445.997 C 454.574 445.304,449.250 443.897,446.500 442.869 C 443.750 441.842,440.771 441.001,439.881 441.001 C 437.276 441.000,419.058 431.288,413.237 426.797 C 410.299 424.531,403.711 418.276,398.598 412.897 C 390.561 404.446,388.549 401.584,383.767 391.809 C 380.724 385.589,375.260 375.775,371.623 370.000 C 365.204 359.806,363.349 355.299,357.567 335.846 C 356.152 331.087,353.421 324.854,351.497 321.996 C 347.395 315.900,347.228 314.454,350.250 311.226 C 352.278 309.061,352.494 307.852,352.442 298.996 C 352.386 289.411,352.279 288.967,348.087 280.934 C 344.354 273.781,343.543 271.042,341.918 260.099 C 340.888 253.170,340.024 244.125,339.996 240.000 C 339.945 232.370,336.306 209.978,333.495 200.000 C 331.485 192.864,332.172 190.292,337.274 185.845 L 341.467 182.191 339.110 175.845 C 337.814 172.355,336.335 167.025,335.825 164.000 C 334.773 157.769,329.658 146.566,324.988 140.265 C 322.774 137.278,319.883 135.094,315.175 132.852 C 311.504 131.103,306.271 128.143,303.546 126.273 C 300.407 124.119,297.861 123.065,296.598 123.395 C 294.231 124.014,292.000 122.415,292.000 120.100 C 292.000 119.190,294.637 116.124,297.860 113.287 C 307.541 104.765,312.479 95.765,315.024 82.000 C 317.324 69.560,312.127 53.582,302.354 43.047 C 289.235 28.906,269.823 23.675,252.256 29.547 M315.577 240.477 C 318.709 245.257,319.576 254.000,316.918 254.000 C 316.397 254.000,315.079 252.537,313.988 250.750 C 309.327 243.108,310.850 233.262,315.577 240.477 " style="stroke: none; fill: black;">
                    </path></svg>