<svg id="svg-path" width="100%" height="100%" viewBox="0 0 512 512" version="1.1" xmlns="http://www.w3.org/2000/svg" style="fill-rule:evenodd;clip-rule:evenodd;stroke-linejoin:round;stroke-miterlimit:2;">
                        <path d="M132.500 102.101 C 126.541 105.593,121.998 111.899,119.584 120.028 C 117.134 128.278,117.522 133.889,121.000 140.500 C 122.650 143.637,124.000 147.157,124.000 148.323 C 124.000 149.555,121.667 152.800,118.428 156.073 C 111.562 163.012,111.000 164.998,110.390 184.500 C 109.774 204.210,109.769 204.919,110.163 216.000 C 110.481 224.970,110.340 225.766,107.640 230.275 C 104.649 235.271,104.607 236.366,107.099 244.617 C 108.378 248.852,108.370 248.901,103.998 265.000 C 102.583 270.210,102.805 285.811,104.383 292.040 C 108.891 309.843,110.519 321.506,109.038 325.401 C 108.440 326.974,104.471 331.689,100.218 335.880 C 95.966 340.071,91.822 344.850,91.009 346.500 C 90.197 348.150,87.618 352.629,85.279 356.454 C 82.939 360.278,80.307 365.570,79.429 368.213 C 77.404 374.310,75.531 375.365,69.793 373.638 C 64.463 372.034,61.601 372.902,59.705 376.698 C 57.988 380.137,55.457 411.893,56.400 418.179 C 57.271 423.990,62.085 430.013,65.823 429.968 C 70.313 429.915,75.000 424.735,75.000 419.825 C 75.000 416.691,76.623 412.562,79.210 409.115 C 81.711 405.783,81.458 403.873,78.000 400.000 C 75.944 397.697,75.000 395.595,75.000 393.320 C 75.000 389.582,75.782 389.319,80.157 391.581 C 84.285 393.716,87.364 392.734,90.635 388.242 C 94.263 383.259,103.198 374.791,116.000 364.203 C 133.128 350.038,137.973 343.995,145.061 327.960 C 147.791 321.784,152.041 313.754,154.506 310.116 C 163.071 297.469,163.783 297.011,174.973 296.965 C 179.663 296.946,186.232 296.343,189.570 295.626 C 197.214 293.985,199.550 294.788,200.406 299.351 C 201.045 302.758,207.055 316.773,211.035 324.136 C 213.829 329.307,213.487 332.684,209.497 339.300 C 203.293 349.589,204.868 352.466,219.714 357.974 C 223.996 359.562,230.200 361.996,233.500 363.382 C 247.668 369.334,258.500 368.958,258.500 362.514 C 258.500 360.026,257.602 358.961,252.859 355.822 C 249.757 353.769,246.201 350.382,244.957 348.295 C 243.714 346.208,240.307 342.239,237.387 339.476 L 232.077 334.451 232.129 312.877 C 232.196 285.203,229.942 269.616,224.776 262.032 C 221.042 256.550,213.142 253.143,201.500 251.997 C 179.099 249.790,173.771 249.055,172.491 247.992 C 171.432 247.114,171.173 241.898,171.260 223.254 C 171.358 202.553,171.580 199.420,173.052 197.948 C 174.436 196.564,177.624 196.166,191.116 195.693 C 206.349 195.159,211.950 194.351,224.268 190.908 C 228.996 189.587,229.063 189.602,232.078 192.617 C 233.909 194.448,235.617 197.618,236.369 200.579 C 237.900 206.608,241.064 208.648,246.813 207.312 C 252.050 206.095,254.228 201.623,253.745 193.074 C 253.391 186.798,253.269 186.548,248.486 182.339 C 242.787 177.325,235.998 173.825,227.335 171.435 C 221.971 169.956,220.151 169.893,213.335 170.953 C 209.026 171.624,200.105 172.021,193.512 171.836 C 178.886 171.426,178.054 170.465,186.681 163.951 C 193.092 159.111,194.208 158.195,204.588 149.250 C 214.403 140.793,217.936 141.070,220.267 150.479 C 221.855 156.889,225.114 158.479,229.811 155.135 C 235.423 151.138,236.528 140.091,231.820 135.038 C 227.918 130.849,218.138 126.998,211.500 127.036 C 203.570 127.081,194.662 129.087,188.500 132.215 C 181.919 135.556,177.625 136.460,176.249 134.794 C 175.660 134.083,174.845 131.713,174.437 129.529 C 173.332 123.620,169.476 115.536,166.302 112.475 C 161.530 107.873,147.503 101.799,140.577 101.335 C 136.988 101.095,133.681 101.409,132.500 102.101 M385.000 103.349 C 383.625 104.002,380.025 106.123,377.000 108.063 C 373.975 110.003,368.197 112.646,364.160 113.937 C 355.979 116.553,347.669 122.238,340.707 129.981 C 331.440 140.288,323.230 162.493,322.075 180.370 C 321.468 189.776,321.298 190.351,318.469 192.615 C 316.836 193.921,314.984 194.992,314.354 194.995 C 310.179 195.013,302.390 211.012,299.354 225.804 C 297.347 235.579,296.915 236.363,289.855 243.022 L 284.000 248.544 284.000 255.637 C 284.000 261.216,283.573 263.273,282.000 265.273 C 279.486 268.469,279.492 268.602,282.451 275.293 C 284.581 280.109,284.893 282.253,284.833 291.667 C 284.717 309.831,290.299 327.774,299.834 339.887 C 301.300 341.750,303.850 345.198,305.500 347.548 C 307.150 349.899,310.413 353.916,312.750 356.475 C 317.367 361.530,317.956 363.836,315.250 366.252 C 313.005 368.257,300.133 374.261,290.215 377.930 C 270.852 385.093,269.618 386.071,267.139 396.222 C 266.504 398.819,264.257 404.894,262.144 409.722 C 257.450 420.451,256.660 423.496,257.948 425.903 C 260.702 431.049,265.953 428.863,277.793 417.642 C 282.761 412.934,288.010 408.785,289.457 408.421 C 290.940 408.049,294.660 408.483,297.982 409.415 C 304.889 411.353,307.540 410.887,314.497 406.515 C 317.249 404.786,321.750 402.542,324.500 401.529 C 335.805 397.364,350.419 389.469,355.615 384.721 C 361.130 379.680,364.000 373.534,364.000 366.762 C 364.000 363.767,358.299 348.991,354.873 343.105 C 352.070 338.291,353.007 336.682,358.257 337.294 C 365.208 338.104,385.029 343.594,386.447 345.102 C 387.170 345.871,390.260 352.800,393.314 360.500 C 398.548 373.695,413.283 404.226,415.993 407.492 C 416.676 408.314,419.688 410.391,422.688 412.108 C 425.687 413.824,430.176 416.988,432.662 419.140 C 439.175 424.778,443.656 426.746,451.796 427.549 C 463.853 428.737,465.244 425.089,456.210 415.970 C 448.065 407.750,442.624 399.617,443.361 396.764 C 443.682 395.519,446.433 392.590,449.473 390.255 C 453.314 387.305,454.994 385.323,454.982 383.755 C 454.964 381.492,452.069 375.815,446.182 366.500 C 442.460 360.610,437.053 348.087,432.798 335.500 C 431.124 330.550,428.496 324.025,426.958 321.000 C 423.688 314.569,414.221 304.695,408.500 301.748 C 402.747 298.785,386.049 294.177,364.000 289.467 C 354.469 287.432,352.573 286.072,352.707 281.368 C 352.848 276.385,355.385 274.195,361.725 273.583 C 367.786 272.999,370.501 271.453,374.565 266.270 C 382.996 255.521,382.135 255.981,396.642 254.464 C 411.072 252.954,415.848 251.977,427.000 248.252 C 440.057 243.891,443.148 241.639,445.626 234.681 C 448.081 227.789,448.606 211.340,446.567 205.201 C 443.587 196.230,446.165 193.965,454.670 198.082 C 460.180 200.750,464.437 199.989,466.517 195.966 C 468.618 191.904,468.400 190.442,464.941 185.415 C 460.233 178.571,458.270 177.669,449.219 178.193 C 437.258 178.886,433.132 182.253,430.466 193.500 C 429.553 197.350,427.428 204.244,425.744 208.821 C 421.732 219.720,418.983 222.000,409.856 222.000 C 402.970 222.000,401.000 220.980,401.000 217.413 C 401.000 213.910,407.027 205.923,413.193 201.255 C 418.257 197.422,418.961 196.445,419.564 192.419 C 420.989 182.922,418.363 173.562,411.500 163.673 C 408.164 158.867,406.320 157.336,400.395 154.455 C 389.355 149.086,378.896 150.286,369.744 157.970 C 365.667 161.392,360.000 171.460,360.000 175.280 C 360.000 176.566,359.325 178.491,358.500 179.559 C 357.017 181.478,356.982 181.477,355.413 179.500 C 351.237 174.238,357.376 155.519,367.091 143.892 C 370.318 140.028,373.503 135.055,374.166 132.840 C 374.830 130.625,376.594 127.505,378.088 125.906 C 380.718 123.091,381.100 123.000,390.345 123.000 C 399.071 123.000,400.020 122.810,401.443 120.777 C 404.500 116.414,402.403 108.035,397.238 103.973 C 394.428 101.762,388.933 101.482,385.000 103.349 " style="stroke: none; fill: black;">
                    </path></svg>