<svg id="svg-path" width="100%" height="100%" viewBox="0 0 512 512" version="1.1" xmlns="http://www.w3.org/2000/svg" style="fill-rule:evenodd;clip-rule:evenodd;stroke-linejoin:round;stroke-miterlimit:2;">
                        <path d="M233.500 105.063 C 220.682 108.214,211.588 116.448,206.969 129.084 C 203.096 139.682,204.894 151.927,211.938 162.903 C 215.127 167.874,215.983 173.617,213.851 175.749 C 213.096 176.504,210.554 176.696,206.420 176.310 C 200.429 175.751,199.936 175.878,195.818 179.045 C 193.443 180.872,189.327 184.623,186.671 187.381 C 182.669 191.536,181.952 192.832,182.482 194.948 C 184.398 202.596,184.462 202.386,178.020 209.599 C 172.744 215.507,161.000 231.914,161.000 233.377 C 161.000 233.642,159.200 236.569,157.000 239.881 C 154.800 243.193,153.000 246.573,153.000 247.392 C 153.000 248.212,152.543 249.164,151.985 249.509 C 151.427 249.854,150.308 251.721,149.499 253.657 C 148.690 255.592,146.672 258.889,145.014 260.982 C 141.687 265.183,141.438 266.871,143.184 273.400 C 144.291 277.536,144.201 278.048,141.819 281.164 C 140.416 282.999,136.884 286.975,133.970 290.000 C 122.987 301.400,119.699 305.763,115.131 315.000 C 102.765 340.006,72.429 370.518,54.000 376.484 C 47.023 378.743,45.828 379.725,46.199 382.891 C 46.829 388.260,55.256 389.112,66.677 384.964 C 69.524 383.929,76.049 382.778,81.177 382.405 C 93.664 381.497,95.544 380.444,97.542 373.237 C 98.417 370.082,99.564 366.366,100.092 364.981 C 101.049 362.469,108.132 356.785,119.500 349.409 C 125.944 345.228,129.311 342.007,131.481 337.949 C 132.232 336.546,134.389 334.567,136.275 333.551 C 138.161 332.535,140.537 330.159,141.554 328.271 C 143.792 324.114,149.092 318.738,154.487 315.151 C 156.680 313.693,159.517 311.611,160.790 310.524 C 162.064 309.437,165.274 307.295,167.924 305.766 C 171.811 303.521,172.952 303.237,173.830 304.295 C 174.945 305.639,174.673 306.409,170.329 314.206 C 169.323 316.012,166.882 319.742,164.905 322.495 C 161.816 326.796,156.051 337.397,152.123 346.000 C 151.495 347.375,149.488 350.346,147.663 352.602 C 145.838 354.858,142.373 361.376,139.963 367.087 C 134.966 378.930,130.276 384.484,122.899 387.297 C 117.385 389.400,115.908 392.038,115.471 400.574 C 115.282 404.258,114.110 409.177,112.492 413.074 C 111.026 416.608,109.582 422.271,109.283 425.657 C 108.743 431.794,108.752 431.820,111.978 433.489 C 118.125 436.667,120.817 434.499,125.000 423.000 C 127.341 416.566,133.165 406.298,137.760 400.500 C 139.068 398.850,141.414 395.804,142.974 393.732 C 144.534 391.660,152.484 383.110,160.641 374.732 C 168.799 366.354,176.180 358.235,177.044 356.688 C 179.723 351.894,190.981 338.978,202.050 328.000 C 207.873 322.225,213.834 315.700,215.296 313.500 C 216.758 311.300,219.895 307.144,222.267 304.264 C 225.331 300.543,227.390 296.537,229.381 290.422 C 230.923 285.689,233.001 280.999,234.000 280.000 C 234.998 279.002,238.368 277.613,241.489 276.915 C 247.820 275.498,248.955 276.134,248.985 281.109 C 249.008 285.026,243.419 294.934,238.421 299.837 C 235.989 302.222,234.000 304.701,234.000 305.347 C 234.000 308.119,241.468 314.000,244.988 314.000 C 246.940 314.000,252.254 308.429,254.413 304.120 C 255.687 301.579,258.151 294.550,259.890 288.500 C 261.630 282.450,263.900 274.575,264.935 271.000 C 267.485 262.194,267.836 260.535,270.428 245.000 C 272.953 229.865,275.686 222.450,279.237 221.100 C 283.543 219.463,284.513 217.366,283.212 212.504 C 280.846 203.656,276.852 197.202,267.479 187.081 C 261.613 180.748,258.295 176.396,258.641 175.493 C 258.946 174.698,261.402 172.462,264.098 170.525 C 266.794 168.588,269.000 166.601,269.000 166.109 C 269.000 165.617,269.753 164.925,270.673 164.572 C 271.866 164.114,273.612 165.377,276.756 168.972 C 279.182 171.745,283.068 175.128,285.392 176.490 C 288.688 178.421,290.110 180.155,291.855 184.364 L 294.093 189.763 291.546 194.324 C 290.146 196.832,289.003 200.148,289.008 201.692 C 289.012 203.237,288.023 209.327,286.811 215.228 L 284.607 225.955 286.906 230.046 C 289.185 234.101,289.191 234.205,287.602 242.089 C 286.644 246.847,286.000 255.047,286.000 262.506 C 286.000 274.929,285.057 281.456,282.334 287.890 C 281.544 289.755,280.633 294.125,280.308 297.601 C 279.552 305.695,281.335 309.000,286.458 309.000 C 293.566 309.000,298.000 305.739,298.000 300.510 C 298.000 291.861,301.755 291.856,306.273 300.500 C 307.135 302.150,310.850 311.264,314.528 320.752 C 318.206 330.241,322.093 339.119,323.165 340.482 C 324.996 342.810,325.626 342.946,333.606 342.730 C 343.721 342.456,342.973 341.791,351.337 358.474 C 354.418 364.620,358.191 371.296,359.720 373.310 C 361.249 375.323,364.300 379.494,366.500 382.577 C 368.700 385.661,371.719 389.642,373.208 391.426 C 379.401 398.842,383.894 411.475,383.964 421.673 C 383.993 425.778,384.547 427.497,386.649 429.994 C 388.797 432.548,389.789 433.020,391.899 432.497 C 398.497 430.860,401.172 423.596,398.906 413.470 C 398.027 409.545,397.979 407.341,398.736 405.681 C 399.762 403.427,400.118 403.371,412.145 403.547 C 418.940 403.647,427.875 404.037,432.000 404.413 C 440.075 405.151,444.189 403.972,444.811 400.742 C 445.283 398.290,440.571 394.333,435.155 392.635 C 425.684 389.664,417.429 385.780,414.941 383.126 C 413.533 381.624,410.019 374.344,407.132 366.948 C 404.244 359.552,400.123 349.793,397.974 345.262 C 395.824 340.730,393.158 333.530,392.049 329.262 C 390.940 324.993,389.028 317.824,387.800 313.330 C 385.794 305.993,385.691 304.560,386.783 299.270 C 388.689 290.042,388.354 285.801,385.372 281.406 C 383.926 279.276,382.141 277.075,381.404 276.516 C 379.195 274.839,377.160 268.791,374.091 254.784 C 372.491 247.478,370.241 239.121,369.091 236.213 C 366.268 229.074,366.453 226.137,370.036 221.265 C 372.429 218.011,372.928 216.540,372.390 214.318 C 371.174 209.294,361.886 191.590,358.726 188.272 C 354.558 183.897,347.375 181.598,340.541 182.452 C 335.598 183.069,335.090 182.930,333.118 180.422 C 330.280 176.816,330.384 171.692,333.375 167.683 C 345.249 151.770,343.002 130.111,328.083 116.680 C 320.884 110.199,316.069 108.571,304.000 108.533 C 294.420 108.503,293.018 108.747,288.000 111.316 C 284.975 112.865,280.542 116.015,278.149 118.316 C 274.087 122.222,273.722 122.375,272.649 120.616 C 270.182 116.570,263.223 110.754,257.500 107.955 C 250.741 104.650,240.300 103.391,233.500 105.063 M176.411 245.711 C 174.681 248.452,172.214 249.614,170.905 248.305 C 170.038 247.438,170.419 246.490,172.455 244.455 C 174.490 242.419,175.438 242.038,176.305 242.905 C 177.120 243.720,177.150 244.538,176.411 245.711 M373.411 343.077 C 374.835 344.769,376.000 346.621,376.000 347.192 C 376.000 348.823,382.474 361.661,388.006 371.000 C 394.790 382.452,398.265 389.762,397.508 390.987 C 396.437 392.720,393.173 392.102,390.980 389.750 C 388.224 386.794,384.374 379.608,378.520 366.492 C 375.896 360.613,372.714 353.934,371.450 351.651 C 368.346 346.046,367.230 340.000,369.300 340.000 C 370.137 340.000,371.987 341.385,373.411 343.077 " style="stroke: none; fill: black;">
                    </path></svg>