<svg id="svg-path" width="100%" height="100%" viewBox="0 0 512 512" version="1.1" xmlns="http://www.w3.org/2000/svg" style="fill-rule:evenodd;clip-rule:evenodd;stroke-linejoin:round;stroke-miterlimit:2;">
                        <path d="M222.446 15.498 C 215.328 19.093,207.281 26.972,198.458 38.984 C 194.223 44.751,190.553 50.001,190.304 50.651 C 190.054 51.301,188.084 53.002,185.925 54.431 C 179.108 58.942,180.270 61.407,193.500 70.506 C 197.350 73.154,204.213 78.951,208.750 83.388 C 217.031 91.486,218.550 94.468,215.630 96.892 C 214.877 97.517,211.277 104.089,207.630 111.495 C 201.839 123.257,201.000 125.672,201.000 130.585 C 201.000 136.771,204.150 144.403,208.661 149.148 C 210.046 150.604,212.601 153.836,214.339 156.329 C 216.078 158.821,219.256 163.375,221.403 166.447 C 224.854 171.387,225.174 172.323,224.168 174.532 C 223.017 177.056,220.754 178.380,215.768 179.445 C 211.747 180.305,206.885 185.051,203.642 191.285 C 202.069 194.306,198.807 199.188,196.392 202.132 C 191.785 207.747,191.619 208.297,191.970 216.775 C 192.176 221.761,191.829 222.583,185.631 231.806 C 182.024 237.172,177.655 244.698,175.922 248.531 C 171.774 257.706,165.771 267.868,159.399 276.500 C 150.490 288.568,149.106 293.322,153.043 298.328 C 157.599 304.119,166.592 302.671,169.497 295.678 C 175.085 282.230,177.781 276.871,181.663 271.500 C 191.116 258.420,198.158 248.122,203.006 240.288 C 207.656 232.774,211.971 228.000,214.112 228.000 C 214.575 228.000,215.736 229.193,216.691 230.652 C 217.934 232.548,218.626 236.464,219.120 244.402 C 219.501 250.506,220.134 258.875,220.528 263.000 C 221.304 271.130,220.463 274.120,215.492 280.898 C 213.355 283.812,212.999 285.377,212.993 291.898 C 212.989 296.079,212.089 303.241,210.993 307.813 C 208.750 317.168,208.584 320.118,209.957 326.236 C 210.483 328.581,211.642 336.752,212.533 344.394 L 214.153 358.287 210.827 364.844 C 207.013 372.362,206.567 378.406,209.424 383.882 C 210.633 386.201,211.000 388.401,210.590 390.882 C 209.822 395.527,208.219 415.473,207.125 434.000 C 206.385 446.548,205.903 449.308,203.550 454.500 C 202.054 457.800,200.221 461.850,199.477 463.500 C 194.218 475.165,193.850 478.467,197.382 482.279 C 198.693 483.692,201.545 485.383,203.720 486.034 C 207.058 487.034,208.181 486.958,210.916 485.543 C 214.341 483.772,217.938 477.435,217.978 473.102 C 217.990 471.783,219.592 466.092,221.539 460.456 C 224.850 450.865,225.014 449.815,224.093 444.094 C 222.788 435.991,224.576 425.357,228.817 416.000 C 229.938 413.525,232.472 406.160,234.446 399.633 C 237.360 390.000,238.771 386.931,241.941 383.329 C 246.160 378.536,250.697 368.392,255.576 352.843 C 256.552 349.732,258.178 346.132,259.189 344.843 L 261.027 342.500 263.020 344.869 C 265.407 347.706,267.618 355.004,268.922 364.351 C 269.833 370.881,270.161 371.497,275.884 377.457 C 279.260 380.974,282.153 384.979,282.491 386.606 C 283.887 393.329,286.613 402.101,290.071 411.000 C 297.821 430.949,299.228 437.033,297.835 444.593 C 296.454 452.088,296.976 454.353,301.396 460.044 C 303.299 462.495,305.830 467.112,307.021 470.305 C 308.211 473.498,310.874 477.885,312.938 480.055 C 316.227 483.513,317.248 484.000,321.210 484.000 C 327.410 484.000,331.000 481.147,331.000 476.221 C 331.000 473.588,329.879 470.989,326.933 466.789 C 324.696 463.600,321.144 457.281,319.040 452.746 C 315.346 444.786,315.175 443.928,314.084 428.000 C 312.474 404.495,311.366 396.051,308.886 388.374 C 306.755 381.779,306.746 381.526,308.485 377.064 C 311.305 369.828,311.386 367.340,309.043 359.918 C 307.248 354.228,306.677 349.051,305.937 331.724 C 304.897 307.383,303.738 295.780,301.920 291.500 C 301.063 289.482,300.435 279.988,300.002 262.500 C 299.483 241.557,299.011 235.437,297.576 231.034 C 294.675 222.136,297.011 214.000,302.467 214.000 C 303.653 214.000,307.520 216.025,311.062 218.500 C 321.438 225.753,342.013 239.255,348.427 243.020 C 351.687 244.934,356.862 248.802,359.927 251.616 C 368.773 259.736,374.207 264.426,378.349 267.517 L 382.198 270.389 384.077 267.944 C 388.419 262.295,384.290 252.576,374.723 245.927 C 367.495 240.903,359.861 234.267,346.046 221.000 C 340.605 215.775,333.120 209.700,329.412 207.500 C 321.721 202.937,318.545 199.999,311.507 190.932 C 303.108 180.113,296.406 174.058,289.226 170.803 C 283.205 168.073,281.941 167.854,275.058 168.347 C 270.901 168.644,266.434 169.026,265.131 169.194 C 261.367 169.680,260.351 167.028,261.920 160.807 C 263.591 154.184,264.101 131.181,262.725 124.535 C 261.327 117.779,258.616 111.927,255.552 109.049 C 254.148 107.730,253.000 106.048,253.000 105.311 C 253.000 103.472,258.441 100.271,264.714 98.418 C 268.587 97.275,270.715 95.885,272.990 93.012 C 275.000 90.475,277.677 88.568,280.777 87.467 C 289.749 84.279,303.750 78.050,306.551 76.000 C 313.465 70.940,313.266 63.119,305.810 47.000 C 297.032 28.020,296.243 27.045,287.904 24.868 L 283.309 23.668 268.902 30.834 C 251.448 39.516,249.311 39.776,244.904 33.750 C 243.194 31.413,240.451 26.575,238.807 23.000 C 237.164 19.425,235.115 15.713,234.255 14.750 C 232.083 12.321,228.257 12.563,222.446 15.498 M234.561 33.452 C 241.109 44.816,245.031 49.499,247.826 49.288 C 250.130 49.114,260.859 44.534,275.845 37.326 C 287.240 31.845,289.154 32.016,292.131 38.775 C 293.276 41.374,296.196 47.550,298.622 52.500 C 303.946 63.366,304.196 66.816,299.923 70.411 C 298.231 71.835,295.643 73.269,294.173 73.598 C 285.515 75.534,275.061 80.405,270.550 84.606 C 267.908 87.067,264.517 89.716,263.015 90.492 C 259.401 92.361,241.365 96.000,235.715 96.000 C 230.889 96.000,232.214 97.158,217.000 79.643 C 215.625 78.060,210.556 73.609,205.736 69.751 C 200.916 65.893,196.717 61.719,196.405 60.476 C 196.093 59.233,196.540 56.857,197.398 55.197 C 199.812 50.528,209.812 36.789,212.826 34.000 C 226.954 20.924,227.337 20.915,234.561 33.452 " style="stroke: none; fill: black;">
                    </path></svg>