<svg id="svg-path" width="100%" height="100%" viewBox="0 0 512 512" version="1.1" xmlns="http://www.w3.org/2000/svg" style="fill-rule:evenodd;clip-rule:evenodd;stroke-linejoin:round;stroke-miterlimit:2;">
                        <path d="M270.268 56.983 C 268.658 57.963,266.619 60.280,265.739 62.132 C 264.858 63.984,261.212 68.268,257.636 71.651 C 250.707 78.209,246.204 86.262,242.570 98.601 C 240.815 104.562,240.821 104.891,242.826 113.018 C 245.462 123.698,244.588 125.888,236.477 128.923 C 233.423 130.065,230.623 131.000,230.255 131.000 C 229.886 131.000,227.990 132.521,226.042 134.380 C 221.983 138.253,210.819 143.528,208.536 142.652 C 206.385 141.827,206.601 137.141,209.098 130.467 C 210.461 126.824,210.987 123.743,210.598 121.672 C 209.721 116.994,211.303 112.706,217.014 104.289 C 222.085 96.815,223.075 92.820,220.000 92.236 C 219.145 92.073,217.430 93.683,216.014 95.975 C 211.949 102.557,207.751 100.616,211.677 93.970 C 213.066 91.618,213.131 90.863,212.054 89.566 C 209.515 86.505,207.112 87.672,205.880 92.562 C 204.892 96.485,204.203 97.335,200.957 98.634 C 196.923 100.248,195.565 102.577,194.621 109.500 C 194.210 112.511,193.163 114.273,190.389 116.625 C 186.782 119.682,186.707 119.891,186.884 126.327 C 187.025 131.460,186.488 134.276,184.441 139.140 C 181.097 147.085,179.039 156.792,179.017 164.727 C 179.002 170.399,179.241 171.112,181.704 172.727 C 185.310 175.092,194.208 175.039,204.500 172.592 C 216.817 169.663,219.786 169.496,222.114 171.604 C 223.826 173.153,224.031 174.183,223.477 178.463 C 222.617 185.096,218.552 201.561,215.395 211.192 C 213.262 217.700,213.037 219.471,213.932 222.692 C 216.521 232.017,214.952 235.110,204.009 242.259 C 195.316 247.939,194.753 249.211,195.462 261.569 C 195.969 270.398,195.776 272.271,193.902 276.782 C 192.681 279.721,192.012 282.910,192.341 284.223 C 193.121 287.330,197.800 289.910,204.693 291.031 C 212.759 292.344,213.733 293.683,215.229 305.510 C 217.261 321.566,216.713 332.651,213.177 347.000 C 208.900 364.361,205.025 398.826,204.983 419.895 C 204.973 424.628,204.300 432.550,203.486 437.500 C 202.673 442.450,202.010 449.875,202.013 454.000 C 202.018 460.471,202.424 462.206,204.971 466.647 C 208.134 472.162,212.228 476.000,214.948 476.000 C 216.736 476.000,219.783 472.987,224.557 466.500 L 227.500 462.500 228.130 433.500 C 228.782 403.455,229.280 398.928,233.333 386.125 C 234.661 381.931,236.975 373.100,238.476 366.500 C 239.977 359.900,242.310 350.675,243.659 346.000 C 246.622 335.737,248.641 327.473,250.088 319.686 C 251.841 310.253,255.955 310.785,255.985 320.448 C 256.003 326.300,257.625 339.327,259.726 350.500 C 260.663 355.482,261.418 367.393,261.727 382.076 C 262.187 403.887,262.063 406.272,260.077 413.934 C 256.766 426.709,253.274 432.690,242.784 443.559 C 236.694 449.869,235.033 454.013,236.405 459.477 C 237.807 465.065,247.144 467.638,254.646 464.503 C 260.182 462.190,264.539 457.804,271.499 447.539 C 280.039 434.943,280.633 433.630,281.466 425.500 C 282.300 417.367,285.057 398.638,287.943 381.500 C 290.253 367.781,290.549 353.782,288.824 339.847 C 287.791 331.501,287.866 328.793,289.377 319.847 C 290.338 314.156,291.809 307.025,292.645 304.000 C 296.306 290.757,298.557 283.412,299.309 282.250 C 299.813 281.472,302.455 281.000,306.309 280.999 C 312.130 280.999,312.842 280.730,318.231 276.499 C 321.384 274.025,324.614 272.000,325.410 272.000 C 326.735 272.000,330.856 275.740,335.250 280.932 C 336.576 282.499,338.178 283.000,341.865 283.000 C 347.831 283.000,351.997 280.197,352.006 276.177 C 352.010 274.705,352.685 272.211,353.506 270.636 C 354.328 269.060,355.000 267.464,355.000 267.089 C 355.000 266.713,352.962 263.303,350.471 259.510 C 344.782 250.848,344.257 248.795,346.616 244.414 L 348.480 240.953 344.258 233.136 C 341.936 228.837,339.410 222.435,338.644 218.909 C 337.879 215.384,336.258 208.450,335.043 203.500 C 333.828 198.550,332.394 192.475,331.857 190.000 C 331.321 187.525,329.812 184.375,328.506 183.000 C 327.199 181.625,324.679 177.575,322.907 174.000 C 318.348 164.807,308.061 141.161,306.825 137.036 C 305.328 132.035,306.326 125.886,309.360 121.421 C 312.384 116.970,312.739 112.500,310.339 109.073 C 309.270 107.547,308.394 103.336,307.881 97.254 C 306.986 86.652,306.157 84.801,297.508 74.096 C 292.650 68.083,292.000 66.746,292.000 62.762 C 292.000 60.278,291.438 57.799,290.750 57.255 C 290.063 56.710,285.832 56.025,281.348 55.733 C 274.649 55.297,272.674 55.520,270.268 56.983 M312.488 214.198 C 318.610 221.007,320.642 225.183,322.627 235.036 C 324.228 242.977,324.219 243.226,322.268 245.177 L 320.267 247.177 316.290 245.148 C 310.444 242.166,307.183 234.046,304.283 215.255 C 303.087 207.505,306.119 207.114,312.488 214.198 " style="stroke: none; fill: black;">
                    </path></svg>