<svg id="svg-path" width="100%" height="100%" viewBox="0 0 512 512" version="1.1" xmlns="http://www.w3.org/2000/svg" style="fill-rule:evenodd;clip-rule:evenodd;stroke-linejoin:round;stroke-miterlimit:2;">
                        <path d="M118.544 93.745 C 118.176 94.705,118.184 100.929,118.563 107.576 C 119.372 121.770,118.959 122.974,112.094 126.452 C 106.269 129.404,102.475 133.683,100.838 139.145 C 99.043 145.138,96.370 146.411,84.312 147.015 C 69.873 147.738,69.995 147.582,69.837 165.548 C 69.720 178.809,69.854 179.822,72.547 186.000 C 74.106 189.575,76.195 193.573,77.190 194.885 C 78.186 196.197,79.000 198.542,79.000 200.098 C 79.000 204.349,75.342 212.782,71.604 217.150 C 68.833 220.387,68.188 222.087,67.684 227.484 C 67.352 231.037,66.451 235.194,65.681 236.722 C 63.056 241.932,62.814 248.803,65.024 255.418 L 67.056 261.500 64.932 268.500 C 61.383 280.194,61.438 281.462,65.942 291.929 C 68.174 297.116,70.000 301.933,70.000 302.635 C 70.000 303.337,71.159 307.951,72.575 312.889 C 75.663 323.654,75.556 333.622,72.207 347.000 C 71.037 351.675,69.567 357.651,68.940 360.279 C 68.313 362.908,67.674 372.497,67.520 381.588 L 67.240 398.118 64.120 402.000 C 61.814 404.870,61.000 406.909,61.000 409.814 C 61.000 415.046,67.426 434.516,70.740 439.326 C 76.088 447.085,81.548 449.145,84.565 444.541 C 85.971 442.395,86.112 439.050,85.669 418.291 C 85.173 394.996,85.211 394.396,87.477 389.500 C 92.918 377.745,105.259 343.789,108.175 332.549 C 109.310 328.176,111.340 322.933,112.686 320.898 C 114.270 318.505,115.503 314.604,116.180 309.849 C 117.843 298.153,118.033 298.000,130.912 298.000 C 139.918 298.000,142.162 298.311,144.019 299.814 C 146.238 301.611,146.244 301.693,144.676 308.064 C 143.804 311.604,142.869 319.675,142.598 326.000 C 142.327 332.325,142.081 337.665,142.053 337.867 C 142.024 338.068,139.300 340.900,136.000 344.159 C 132.584 347.533,130.000 350.959,130.000 352.114 C 130.000 354.189,133.655 361.125,137.581 366.500 C 138.786 368.150,140.782 371.509,142.016 373.965 C 145.718 381.330,151.007 387.000,154.177 387.000 C 158.375 387.000,159.137 384.543,157.930 374.913 C 157.359 370.359,156.664 366.265,156.385 365.814 C 155.457 364.313,155.932 345.309,156.965 342.592 C 157.524 341.121,159.418 339.148,161.172 338.209 C 166.992 335.092,168.569 332.568,170.501 323.279 C 171.505 318.451,174.053 309.881,176.163 304.236 C 181.167 290.852,181.338 285.079,176.893 279.687 C 173.528 275.604,165.665 271.305,152.000 266.079 C 147.325 264.291,142.488 262.427,141.250 261.936 C 138.235 260.739,138.415 258.790,142.000 253.841 C 143.650 251.564,145.000 248.904,145.000 247.932 C 145.000 242.125,147.741 241.630,153.099 246.471 C 155.212 248.380,159.542 251.254,162.720 252.859 C 166.312 254.672,170.131 257.712,172.810 260.889 C 176.497 265.263,177.630 266.000,180.658 266.000 C 182.605 266.000,185.728 265.274,187.599 264.386 C 190.878 262.830,191.000 262.569,191.000 257.093 C 191.000 251.726,190.723 251.086,185.959 245.457 C 177.714 235.714,178.310 232.579,188.976 229.587 C 192.210 228.679,195.776 227.164,196.899 226.218 C 199.401 224.114,201.554 216.342,200.642 212.709 C 199.928 209.864,194.719 206.437,192.858 207.588 C 189.769 209.497,176.583 211.968,169.405 211.983 C 161.663 211.999,161.044 211.828,155.197 208.049 C 150.528 205.031,148.482 202.912,146.541 199.082 C 145.144 196.323,144.000 193.364,144.000 192.506 C 144.000 191.648,146.035 189.045,148.521 186.723 C 152.942 182.594,153.064 182.313,153.992 174.118 C 154.900 166.112,156.022 163.121,159.374 159.769 C 162.917 156.226,166.000 150.511,166.000 147.486 C 166.000 138.427,155.797 122.408,148.492 119.997 C 142.630 118.063,141.639 116.039,142.257 107.261 C 142.931 97.675,142.196 94.793,138.767 93.587 C 134.820 92.199,133.000 94.223,133.000 100.000 C 133.000 103.065,132.452 105.210,131.458 106.035 C 129.354 107.781,128.426 106.517,127.078 100.068 C 126.454 97.081,125.451 94.043,124.849 93.318 C 123.279 91.426,119.332 91.693,118.544 93.745 M319.629 117.250 C 317.174 119.588,313.553 122.782,311.582 124.348 C 306.397 128.472,307.219 134.412,313.347 137.111 C 315.966 138.265,316.553 139.137,316.811 142.259 C 317.109 145.865,316.936 146.099,312.561 147.974 C 310.052 149.049,308.000 150.557,308.000 151.325 C 308.000 152.093,309.125 154.379,310.500 156.405 C 311.875 158.431,313.000 160.897,313.000 161.884 C 313.000 164.290,308.945 165.998,303.203 166.011 C 298.279 166.022,291.042 167.866,286.421 170.288 C 284.067 171.521,283.077 171.522,279.099 170.293 C 273.363 168.521,267.493 169.188,264.558 171.945 C 261.149 175.148,247.626 180.000,242.108 180.000 C 233.568 180.000,225.362 187.322,228.207 192.405 C 228.698 193.282,230.180 194.000,231.501 194.000 C 234.468 194.000,244.150 191.525,246.863 190.073 C 249.461 188.683,255.113 188.701,258.685 190.111 C 264.868 192.552,293.719 194.212,301.250 192.561 C 304.741 191.795,305.000 191.898,305.000 194.054 C 305.000 195.328,302.475 200.792,299.388 206.196 C 293.697 216.160,289.000 228.985,289.000 234.563 C 289.000 236.661,289.945 238.531,292.000 240.500 C 293.650 242.081,294.999 244.077,294.998 244.937 C 294.997 245.797,293.636 249.079,291.974 252.232 C 290.312 255.385,288.241 261.235,287.371 265.232 C 284.032 280.575,277.532 299.295,269.147 317.719 C 266.448 323.648,263.330 330.525,262.217 333.000 C 261.104 335.475,258.754 341.775,256.995 347.000 C 255.236 352.225,253.378 357.285,252.866 358.245 C 250.332 362.994,247.000 382.713,247.000 392.955 L 247.000 403.608 250.250 406.684 C 256.217 412.331,260.416 413.408,263.441 410.065 C 265.563 407.720,265.719 403.605,264.175 390.689 C 262.870 379.770,263.571 374.858,267.558 367.000 C 268.814 364.525,273.029 356.079,276.925 348.232 C 280.821 340.385,286.187 330.485,288.850 326.232 C 293.139 319.383,295.188 315.780,303.278 300.864 C 306.932 294.125,312.291 288.750,315.355 288.750 C 321.577 288.750,328.456 298.946,335.124 318.050 C 336.938 323.247,340.764 332.048,343.626 337.608 C 349.291 348.610,352.097 356.835,355.701 373.000 C 360.961 396.597,360.905 396.198,359.964 403.500 C 357.886 419.624,359.228 425.000,365.334 425.000 C 368.351 425.000,371.716 423.326,374.846 420.266 C 377.079 418.084,377.357 404.735,375.603 383.997 C 373.553 359.772,371.412 349.663,363.743 328.000 C 360.376 318.490,358.110 309.285,356.082 296.885 C 354.718 288.548,354.654 253.515,355.997 251.005 C 357.385 248.412,371.715 238.529,376.189 237.080 C 380.476 235.691,384.423 237.180,387.785 241.454 C 388.864 242.826,394.888 248.838,401.171 254.814 C 410.873 264.042,413.216 265.779,416.720 266.339 C 422.308 267.233,426.058 270.661,430.103 278.578 C 434.565 287.310,436.842 289.629,441.772 290.461 C 450.003 291.852,452.806 286.655,449.013 277.033 C 446.796 271.408,443.995 268.342,437.883 264.849 C 434.040 262.652,431.000 257.590,431.000 253.387 C 431.000 251.027,429.001 248.027,416.661 231.862 C 414.549 229.096,410.854 225.446,408.450 223.752 C 404.619 221.051,403.627 219.505,400.425 211.239 C 398.415 206.052,395.470 200.327,393.881 198.517 C 392.291 196.707,390.338 193.375,389.540 191.113 C 388.265 187.501,388.271 186.484,389.583 182.764 C 390.405 180.434,392.131 177.397,393.418 176.014 C 394.706 174.631,397.014 171.475,398.549 169.001 C 401.126 164.846,401.337 163.735,401.307 154.481 C 401.281 146.159,400.901 143.726,399.067 140.131 C 395.785 133.698,389.635 127.501,385.276 126.236 C 377.286 123.917,370.367 123.699,364.398 125.576 C 358.718 127.362,358.680 127.360,354.757 125.102 C 351.256 123.087,345.723 122.208,335.371 122.020 C 334.751 122.009,333.676 120.632,332.984 118.960 C 331.588 115.590,328.476 113.000,325.824 113.000 C 324.872 113.000,322.084 114.912,319.629 117.250 " style="stroke: none; fill: black;">
                    </path></svg>