<svg id="svg-path" width="100%" height="100%" viewBox="0 0 512 512" version="1.1" xmlns="http://www.w3.org/2000/svg" style="fill-rule:evenodd;clip-rule:evenodd;stroke-linejoin:round;stroke-miterlimit:2;">
                        <path d="M122.025 172.975 C 119.218 175.782,118.537 179.568,120.028 184.085 C 121.153 187.495,121.106 188.225,119.659 189.825 C 116.637 193.163,117.725 195.559,124.500 200.496 C 128.999 203.773,134.952 210.002,134.981 211.462 C 134.991 211.991,137.588 214.837,140.750 217.787 L 146.500 223.150 143.842 225.325 C 142.380 226.521,139.288 228.625,136.970 230.000 C 134.653 231.375,129.577 236.009,125.692 240.299 L 118.627 248.097 113.540 247.462 C 107.418 246.697,85.887 249.490,81.862 251.571 C 78.458 253.332,72.320 262.633,70.409 268.928 C 69.646 271.443,69.017 277.367,69.011 282.093 C 68.994 295.229,73.281 301.941,83.080 304.118 C 85.511 304.659,89.164 306.430,91.197 308.055 C 98.306 313.735,103.741 314.391,111.419 310.496 C 117.972 307.171,119.397 307.330,122.699 311.748 C 131.915 324.080,137.336 330.039,139.822 330.568 C 144.339 331.530,147.000 332.895,147.000 334.251 C 147.000 335.735,132.354 350.286,126.749 354.370 C 124.686 355.873,122.343 358.370,121.542 359.918 C 120.180 362.553,120.244 362.881,122.543 365.041 C 124.644 367.014,125.000 368.255,125.000 373.596 C 125.000 379.693,125.101 379.931,129.180 383.422 C 131.479 385.390,134.126 387.000,135.061 387.000 C 137.944 387.000,141.659 380.996,142.183 375.491 C 143.007 366.838,144.570 364.802,152.317 362.289 C 157.443 360.626,160.542 358.792,164.808 354.893 C 167.928 352.041,172.735 348.024,175.490 345.965 C 184.589 339.168,187.333 335.625,187.333 330.676 C 187.333 327.284,186.563 325.219,183.931 321.554 C 180.638 316.968,180.591 316.772,182.456 315.409 C 183.891 314.359,187.970 313.992,198.441 313.967 C 206.198 313.950,217.431 313.196,223.500 312.287 C 235.103 310.549,257.550 310.213,277.500 311.478 C 287.432 312.108,288.979 311.969,293.437 310.043 C 298.062 308.046,298.981 307.983,307.937 309.052 C 313.197 309.679,317.858 310.414,318.296 310.684 C 318.734 310.954,322.784 311.785,327.296 312.531 C 331.808 313.277,339.550 314.805,344.500 315.927 C 355.131 318.335,366.113 318.577,371.913 316.531 C 374.421 315.646,378.948 315.149,383.289 315.281 L 390.500 315.500 398.000 309.879 C 406.914 303.198,408.436 301.594,410.462 296.746 C 412.643 291.525,412.380 288.605,409.411 285.077 C 407.340 282.615,406.047 282.000,402.944 282.000 C 399.767 282.000,398.153 282.811,394.009 286.492 C 391.227 288.963,387.113 291.922,384.866 293.068 C 380.783 295.151,380.780 295.151,376.141 293.192 C 373.588 292.114,368.800 290.914,365.500 290.526 C 360.290 289.914,348.306 287.070,327.954 281.618 C 324.904 280.800,320.139 279.237,317.366 278.144 C 314.593 277.051,308.545 275.604,303.926 274.929 C 292.058 273.194,286.319 270.577,289.261 268.244 C 291.908 266.144,308.501 262.024,314.500 261.976 C 317.559 261.952,322.275 260.755,343.500 254.611 C 350.100 252.701,360.042 250.005,365.594 248.620 C 374.875 246.305,376.058 246.213,380.274 247.482 C 384.901 248.875,388.827 250.978,392.500 254.032 C 393.600 254.947,396.429 256.442,398.787 257.354 C 402.644 258.847,403.366 258.862,405.992 257.504 C 408.027 256.452,409.100 254.985,409.537 252.657 C 410.643 246.760,408.558 241.972,402.278 235.982 C 388.330 222.679,389.731 223.522,381.194 223.297 C 376.962 223.185,369.900 222.816,365.500 222.476 C 360.047 222.055,354.793 222.360,349.000 223.435 C 344.325 224.302,335.171 225.915,328.658 227.019 C 322.145 228.124,316.048 229.439,315.109 229.941 C 311.543 231.850,301.573 232.177,294.000 230.632 C 281.196 228.022,271.011 227.566,264.904 229.330 C 261.550 230.299,254.380 231.007,246.000 231.196 L 232.500 231.500 228.072 228.500 C 223.943 225.702,223.066 225.510,215.072 225.647 C 210.357 225.728,203.575 226.509,200.000 227.383 C 196.425 228.256,191.393 228.977,188.817 228.985 C 183.832 229.001,183.859 229.030,182.501 222.276 C 182.063 220.097,180.498 218.015,177.676 215.858 C 175.379 214.102,171.025 210.299,168.000 207.407 C 162.976 202.604,159.632 200.405,148.734 194.735 C 143.845 192.191,141.012 188.507,140.952 184.615 C 140.926 182.902,140.135 179.928,139.196 178.006 C 136.168 171.815,126.128 168.872,122.025 172.975 " style="stroke: none; fill: black;">
                    </path></svg>