<svg id="svg-path" width="100%" height="100%" viewBox="0 0 512 512" version="1.1" xmlns="http://www.w3.org/2000/svg" style="fill-rule:evenodd;clip-rule:evenodd;stroke-linejoin:round;stroke-miterlimit:2;">
                        <path d="M273.025 65.975 C 271.939 67.061,270.854 68.973,270.614 70.225 C 268.816 79.579,266.971 93.292,266.984 97.201 C 267.006 103.727,265.186 111.549,263.023 114.219 C 261.396 116.230,259.980 116.533,249.354 117.150 C 242.834 117.529,236.375 118.104,235.000 118.428 C 231.177 119.329,229.320 117.093,227.115 108.935 C 226.009 104.846,224.000 98.350,222.649 94.500 C 221.299 90.650,218.951 83.539,217.433 78.698 C 214.464 69.228,212.827 67.440,208.085 68.481 C 203.221 69.550,202.585 72.459,205.407 80.741 C 206.764 84.724,208.188 90.068,208.570 92.618 C 208.952 95.167,210.144 99.559,211.217 102.377 C 215.765 114.312,217.000 118.060,217.000 119.926 C 217.000 121.013,217.694 124.512,218.543 127.701 C 219.735 132.184,219.935 136.138,219.422 145.119 C 218.554 160.325,219.257 162.326,229.061 172.563 C 236.835 180.681,238.981 184.726,238.994 191.285 C 238.997 192.817,239.675 195.100,240.500 196.360 C 243.759 201.334,244.963 217.917,244.982 258.131 L 245.000 296.762 242.386 303.631 C 238.955 312.646,238.211 315.149,236.485 323.500 C 234.023 335.407,231.124 344.724,228.169 350.225 C 226.610 353.126,224.840 356.850,224.235 358.500 C 223.630 360.150,221.822 364.650,220.219 368.500 C 218.615 372.350,216.987 377.201,216.600 379.281 C 216.214 381.360,214.385 386.596,212.536 390.915 C 207.767 402.058,205.792 410.462,206.526 416.493 C 207.338 423.165,206.020 424.716,197.989 426.539 C 187.440 428.935,184.514 430.650,180.548 436.760 C 175.922 443.887,175.272 446.538,177.536 449.040 C 179.193 450.871,180.728 451.000,200.872 451.000 C 228.284 451.000,232.525 449.776,237.251 440.500 C 238.372 438.300,242.301 433.350,245.983 429.500 C 249.664 425.650,254.410 419.575,256.528 416.000 C 258.647 412.425,262.786 406.042,265.727 401.815 C 268.668 397.589,273.870 388.717,277.287 382.100 C 284.362 368.401,291.875 358.965,310.073 340.925 C 320.585 330.505,322.244 328.359,326.693 319.425 C 333.909 304.938,334.224 302.793,333.667 272.000 C 333.117 241.547,332.312 233.202,328.652 220.000 C 322.341 197.238,317.232 186.192,310.013 179.701 C 307.137 177.116,304.398 175.000,303.927 175.000 C 302.496 175.000,288.508 166.219,286.625 164.138 C 285.413 162.799,284.585 159.424,283.978 153.345 C 282.988 143.449,282.048 139.564,278.250 129.680 C 275.833 123.391,275.718 122.416,276.769 117.180 C 277.396 114.056,278.607 105.650,279.461 98.500 C 280.315 91.350,281.444 82.334,281.969 78.463 C 282.494 74.593,282.659 70.318,282.335 68.963 C 281.151 64.022,276.478 62.522,273.025 65.975 " style="stroke: none; fill: black;">
                    </path></svg>