<svg id="svg-path" width="100%" height="100%" viewBox="0 0 512 512" version="1.1" xmlns="http://www.w3.org/2000/svg" style="fill-rule:evenodd;clip-rule:evenodd;stroke-linejoin:round;stroke-miterlimit:2;">
                        <path d="M367.500 100.512 C 356.098 104.260,348.258 110.088,349.473 113.915 C 350.376 116.760,354.126 116.607,357.726 113.577 C 361.485 110.414,372.471 106.725,375.894 107.477 C 380.121 108.405,384.271 112.291,384.543 115.576 C 384.676 117.184,385.120 121.078,385.528 124.228 C 386.194 129.371,386.022 130.292,383.839 133.228 C 380.723 137.420,372.000 151.567,372.000 152.428 C 372.000 152.789,371.148 153.998,370.106 155.116 C 368.422 156.924,368.249 158.486,368.539 169.222 C 368.792 178.591,369.220 181.649,370.451 182.880 C 371.664 184.093,372.445 184.210,373.769 183.378 C 375.201 182.478,375.586 180.238,376.000 170.395 C 376.557 157.144,376.339 157.716,386.072 144.020 C 391.529 136.341,392.040 135.194,391.479 131.873 C 391.108 129.678,391.289 127.940,391.929 127.544 C 393.436 126.612,393.260 120.847,391.569 115.785 C 390.782 113.428,389.994 110.161,389.819 108.525 C 389.429 104.892,383.282 101.013,378.216 101.203 C 376.407 101.271,374.403 100.803,373.763 100.163 C 372.419 98.819,372.701 98.803,367.500 100.512 M288.500 112.867 C 286.850 113.306,283.951 114.472,282.058 115.457 C 275.930 118.648,272.731 119.261,258.500 119.968 C 249.633 120.409,242.483 121.312,239.000 122.431 C 235.975 123.403,229.900 125.341,225.500 126.737 C 211.683 131.121,204.987 136.439,205.020 143.000 C 205.038 146.454,210.253 154.768,219.445 166.000 C 221.921 169.025,225.129 172.951,226.573 174.725 C 230.886 180.022,231.321 184.357,228.296 191.917 C 226.871 195.481,223.686 201.119,221.219 204.448 C 214.888 212.991,213.881 215.877,214.103 224.823 C 214.667 247.497,214.621 248.205,212.500 249.384 C 205.623 253.205,204.165 254.998,201.552 262.845 C 200.109 267.177,197.595 272.824,195.964 275.395 C 194.334 277.966,193.000 280.526,193.000 281.083 C 193.000 283.635,182.663 298.972,179.488 301.131 C 176.090 303.443,169.982 313.512,168.649 319.000 C 168.102 321.253,161.820 330.123,153.339 340.617 C 143.196 353.168,141.266 355.581,139.000 358.545 C 132.785 366.676,121.995 374.255,100.031 385.915 C 95.979 388.067,92.527 393.980,93.368 397.330 C 93.686 398.597,95.079 400.239,96.463 400.980 C 99.540 402.627,103.464 401.576,115.652 395.838 C 122.744 392.498,124.738 392.000,130.997 392.000 C 139.043 392.000,142.707 390.460,145.364 385.960 C 146.264 384.437,147.002 382.136,147.004 380.846 C 147.006 379.556,147.899 377.038,148.989 375.250 C 151.211 371.607,154.639 371.007,159.000 373.500 C 164.531 376.662,165.978 375.797,175.754 363.487 C 180.782 357.155,186.301 349.339,188.017 346.119 C 189.734 342.898,192.795 338.503,194.819 336.352 C 202.287 328.416,229.969 311.000,235.114 311.000 C 239.668 311.000,249.553 322.686,255.781 335.433 C 258.641 341.285,261.265 347.294,261.614 348.787 C 262.180 351.213,264.818 357.762,272.700 376.314 C 274.708 381.041,275.044 383.046,274.496 387.030 C 273.880 391.511,274.056 392.147,276.557 394.465 C 278.061 395.859,280.041 397.000,280.957 397.000 C 281.873 397.000,283.608 397.918,284.811 399.039 C 287.250 401.311,287.556 404.874,285.922 411.967 C 284.568 417.843,285.146 419.608,290.233 425.134 C 293.168 428.321,295.713 432.780,298.385 439.418 C 300.737 445.258,303.258 449.844,304.770 451.034 C 307.773 453.396,312.727 453.580,315.777 451.443 C 317.652 450.131,318.000 448.952,318.000 443.925 C 318.000 438.777,317.327 436.622,313.067 428.133 C 307.180 416.402,303.131 402.745,301.968 390.691 C 301.500 385.846,300.666 379.546,300.114 376.691 C 299.562 373.836,298.829 369.025,298.485 366.000 C 298.141 362.975,296.734 355.809,295.359 350.075 C 293.983 344.342,293.068 338.847,293.325 337.866 C 293.581 336.884,292.919 334.454,291.853 332.464 C 290.642 330.206,290.169 328.044,290.592 326.710 C 291.691 323.246,291.066 310.863,289.546 306.000 C 286.933 297.638,285.761 287.524,286.921 283.347 C 288.362 278.154,288.273 274.437,286.627 271.200 C 283.357 264.770,283.468 264.260,289.418 258.451 C 294.908 253.091,297.715 251.781,298.420 254.250 C 298.616 254.938,299.521 260.406,300.432 266.403 C 302.135 277.627,304.872 284.891,309.509 290.500 C 312.170 293.718,312.574 296.359,311.028 300.426 C 309.589 304.212,310.609 305.642,316.010 307.408 C 321.939 309.348,321.274 309.364,323.750 307.217 C 326.473 304.855,328.123 298.378,328.092 290.175 C 327.951 252.922,328.633 234.107,330.378 227.115 C 332.887 217.064,332.277 202.635,329.042 195.500 C 327.795 192.750,325.908 186.900,324.848 182.500 C 323.788 178.100,321.848 172.475,320.536 170.000 L 318.152 165.500 320.710 157.000 C 322.827 149.967,323.288 146.315,323.384 135.835 C 323.496 123.630,323.409 123.073,321.000 120.490 C 315.780 114.893,311.000 112.999,300.881 112.516 C 295.722 112.270,290.150 112.428,288.500 112.867 M261.835 142.356 C 262.265 144.618,256.350 151.000,253.824 151.000 C 250.913 151.000,244.000 147.881,244.000 146.567 C 244.000 145.011,255.708 140.157,258.991 140.352 C 260.552 140.445,261.614 141.193,261.835 142.356 M365.636 199.283 C 363.182 205.709,363.472 209.438,366.533 210.833 C 369.996 212.411,376.277 213.241,377.520 212.285 C 379.345 210.881,381.000 205.995,381.000 202.010 C 381.000 197.065,378.323 195.000,371.913 195.000 C 367.368 195.000,367.238 195.089,365.636 199.283 " style="stroke: none; fill: black;">
                    </path></svg>