<svg id="svg-path" width="100%" height="100%" viewBox="0 0 512 512" version="1.1" xmlns="http://www.w3.org/2000/svg" style="fill-rule:evenodd;clip-rule:evenodd;stroke-linejoin:round;stroke-miterlimit:2;">
                        <path d="M251.500 41.396 C 248.750 42.650,244.363 45.848,241.750 48.503 L 237.000 53.330 237.000 67.978 L 237.000 82.626 239.988 85.488 C 243.340 88.699,244.774 94.005,243.216 97.425 C 242.304 99.428,241.051 99.826,232.680 100.777 C 216.141 102.656,210.642 106.505,197.844 125.162 C 194.576 129.926,191.250 134.074,190.453 134.380 C 189.568 134.719,188.358 133.878,187.346 132.218 C 186.434 130.723,184.721 127.925,183.539 126.000 C 178.451 117.714,176.561 111.738,176.583 104.000 C 176.600 97.816,177.077 95.597,179.302 91.355 C 183.694 82.980,182.457 80.024,176.472 84.589 C 173.630 86.757,172.494 87.099,170.716 86.322 C 169.166 85.645,167.749 85.748,166.000 86.662 C 164.625 87.382,162.332 87.977,160.905 87.985 C 159.478 87.993,157.512 88.882,156.536 89.960 C 154.830 91.846,154.865 92.094,157.466 96.532 C 160.840 102.289,162.924 115.738,162.968 132.047 C 163.013 148.309,167.675 168.492,172.792 174.576 C 175.811 178.164,179.874 180.238,183.754 180.171 C 190.250 180.058,202.841 175.395,209.055 170.801 C 210.625 169.640,212.300 169.178,213.404 169.601 C 214.964 170.200,215.146 171.282,214.797 177.895 C 214.471 184.074,213.494 187.751,209.587 197.500 C 206.942 204.100,203.700 211.628,202.383 214.229 C 201.065 216.830,199.043 221.483,197.888 224.570 C 195.875 229.949,195.855 230.421,197.394 235.907 C 199.180 242.274,199.431 250.434,198.027 256.492 C 197.518 258.688,196.793 265.082,196.417 270.701 C 195.866 278.928,196.036 281.558,197.289 284.208 C 198.619 287.020,198.700 289.323,197.847 300.000 C 197.298 306.875,196.517 321.275,196.112 332.000 C 195.509 347.972,194.994 352.585,193.264 357.500 C 191.302 363.077,191.193 364.882,191.724 383.094 C 192.196 399.315,192.026 403.475,190.734 407.267 C 189.208 411.745,189.229 411.921,191.654 415.173 C 193.836 418.100,194.059 419.161,193.513 424.000 C 192.142 436.134,184.674 454.091,176.042 466.009 C 169.988 474.368,168.874 476.508,169.596 478.389 C 170.490 480.718,173.753 481.330,178.355 480.031 C 185.212 478.096,189.915 474.118,193.609 467.128 C 197.330 460.086,199.469 457.845,204.275 455.951 C 209.166 454.025,213.000 450.045,213.000 446.896 C 213.000 445.394,212.100 442.066,211.000 439.500 C 209.709 436.488,209.000 432.612,209.000 428.566 C 209.000 417.571,212.077 412.711,217.480 415.173 C 219.613 416.145,220.354 416.074,221.653 414.775 C 224.306 412.123,224.911 405.550,224.956 378.899 C 224.980 364.819,225.403 351.994,225.895 350.399 C 226.387 348.805,227.783 343.225,228.998 338.000 C 231.498 327.238,236.229 310.941,239.012 303.500 C 240.040 300.750,241.363 296.634,241.952 294.353 C 243.055 290.077,244.738 288.602,246.951 289.970 C 247.649 290.401,249.058 295.334,250.082 300.931 C 251.784 310.238,254.365 320.875,260.530 344.000 C 261.776 348.675,263.612 354.300,264.610 356.500 C 266.224 360.059,266.402 363.200,266.222 385.000 C 266.111 398.475,265.903 411.500,265.760 413.944 L 265.500 418.387 270.443 420.165 C 278.137 422.931,279.500 424.833,279.500 432.802 C 279.500 438.285,279.078 440.085,277.250 442.409 C 273.464 447.222,274.205 451.018,279.923 456.113 C 282.631 458.526,286.298 461.602,288.070 462.948 C 290.081 464.474,292.528 468.103,294.571 472.587 C 298.276 480.717,300.635 483.243,308.445 487.443 C 313.793 490.318,313.964 490.343,315.959 488.538 C 319.536 485.300,318.031 479.298,311.867 472.222 C 308.253 468.073,305.925 463.452,302.687 454.000 C 298.372 441.407,298.025 436.277,298.914 398.296 C 299.804 360.240,299.179 351.192,295.108 343.212 C 292.617 338.330,292.537 336.481,294.422 327.373 C 295.204 323.593,296.597 314.200,297.518 306.500 C 298.724 296.411,299.759 291.571,301.223 289.176 C 303.222 285.906,303.226 285.718,301.498 277.676 C 297.978 261.299,297.564 255.469,298.822 240.079 C 299.478 232.060,300.019 218.075,300.024 209.000 C 300.032 195.830,300.431 190.987,302.000 185.000 C 303.081 180.875,303.973 175.170,303.983 172.321 C 304.019 161.549,311.059 161.200,322.834 171.389 C 329.125 176.832,330.969 177.414,339.891 176.776 C 350.822 175.994,352.174 174.514,356.137 159.000 C 358.860 148.342,359.675 118.362,357.367 113.800 C 355.627 110.363,355.619 106.003,357.347 103.473 C 359.323 100.578,362.000 92.090,362.000 88.716 C 362.000 87.026,360.906 84.489,359.412 82.713 C 356.752 79.551,356.735 79.305,358.582 70.139 C 359.054 67.799,358.851 66.526,357.913 65.946 C 356.143 64.852,354.226 66.523,352.493 70.670 C 350.680 75.010,348.816 74.882,346.377 70.250 C 345.291 68.188,343.749 66.500,342.951 66.500 C 341.737 66.500,341.557 68.709,341.847 80.000 C 342.235 95.132,340.854 107.501,337.774 116.471 C 334.665 125.524,333.875 125.748,327.361 119.417 C 322.006 114.212,313.844 108.583,306.500 105.028 C 302.367 103.027,299.398 102.508,289.378 102.033 C 276.055 101.401,274.000 100.572,274.000 95.828 C 274.000 93.073,276.425 87.101,277.990 86.000 C 280.399 84.305,281.269 79.875,281.123 70.054 C 280.936 57.475,279.177 51.309,274.207 45.807 C 267.826 38.744,260.454 37.312,251.500 41.396 " style="stroke: none; fill: black;">
                    </path></svg>