<svg id="svg-path" width="100%" height="100%" viewBox="0 0 512 512" version="1.1" xmlns="http://www.w3.org/2000/svg" style="fill-rule:evenodd;clip-rule:evenodd;stroke-linejoin:round;stroke-miterlimit:2;">
                        <path d="M248.500 110.481 C 235.082 114.786,226.115 121.233,222.804 128.958 C 219.482 136.707,218.798 141.917,220.370 147.500 C 225.682 166.363,225.662 166.000,221.401 166.000 C 218.418 166.000,211.848 162.766,207.020 158.921 C 200.937 154.077,174.939 141.331,169.770 140.659 C 161.352 139.564,158.746 137.837,153.171 129.657 C 150.327 125.483,148.000 121.364,148.000 120.503 C 148.000 117.833,145.128 117.620,143.089 120.139 L 141.182 122.493 139.930 119.747 C 138.523 116.657,137.757 116.383,136.100 118.380 C 135.346 119.288,135.184 121.715,135.626 125.479 C 136.418 132.215,135.219 133.682,130.791 131.392 C 128.283 130.095,127.897 130.104,127.371 131.475 C 126.737 133.129,138.431 144.760,144.504 148.515 C 146.296 149.624,154.229 156.903,162.131 164.691 C 176.812 179.159,183.149 184.530,200.177 196.936 C 214.088 207.071,214.398 207.631,213.713 221.344 C 213.406 227.480,212.495 234.750,211.689 237.500 C 206.897 253.831,206.849 254.150,208.065 261.486 C 209.458 269.889,211.571 276.183,214.693 281.230 C 216.255 283.756,217.000 286.494,217.000 289.709 C 217.000 295.395,212.833 307.101,209.065 312.000 C 205.118 317.131,204.808 317.784,203.406 323.909 C 200.789 335.347,199.890 338.319,197.826 342.360 C 196.662 344.637,194.039 349.875,191.996 354.000 C 185.530 367.053,174.608 382.811,163.845 394.615 C 158.510 400.466,157.059 402.765,156.525 406.207 C 155.259 414.380,153.920 416.846,147.468 422.881 C 140.590 429.315,137.449 430.980,121.653 436.561 C 110.961 440.338,107.000 443.291,107.000 447.484 C 107.000 448.789,107.689 450.547,108.532 451.389 C 111.833 454.690,123.197 454.688,132.099 451.385 C 134.780 450.390,140.994 449.559,148.000 449.257 C 154.325 448.984,160.270 448.358,161.212 447.866 C 162.163 447.368,163.817 443.977,164.934 440.235 C 167.311 432.269,168.910 431.000,176.567 431.000 C 185.450 431.000,195.528 425.460,213.000 410.972 C 217.675 407.096,226.858 399.580,233.407 394.269 C 246.982 383.263,253.010 377.552,261.937 367.241 C 265.393 363.249,269.344 359.701,270.716 359.356 C 274.016 358.528,278.573 360.792,284.876 366.390 C 290.158 371.081,296.843 376.267,307.574 384.000 C 323.198 395.258,328.230 398.702,333.145 401.500 C 341.694 406.366,348.439 410.317,353.193 413.242 C 356.121 415.044,360.663 416.510,366.436 417.517 C 377.372 419.424,378.387 419.974,382.094 425.998 C 385.790 432.006,389.719 433.691,396.050 431.986 C 398.350 431.367,406.293 430.484,413.703 430.023 C 425.684 429.278,427.441 428.934,429.587 426.918 C 432.612 424.077,432.730 419.758,429.855 417.080 C 428.676 415.981,425.188 414.587,422.105 413.982 C 398.641 409.377,395.822 408.361,394.306 403.963 C 393.650 402.058,393.087 398.783,393.056 396.684 C 392.978 391.383,391.663 389.401,385.686 385.569 C 382.834 383.740,378.250 379.817,375.500 376.851 C 354.263 353.944,350.119 349.230,347.250 344.711 C 345.462 341.896,344.000 339.225,344.000 338.776 C 344.000 338.328,342.958 336.282,341.684 334.230 C 335.662 324.531,328.737 307.590,325.381 294.343 C 323.452 286.729,321.193 279.451,320.361 278.169 C 319.528 276.886,316.650 274.819,313.965 273.575 C 306.320 270.033,306.001 269.576,305.989 262.128 C 305.983 258.482,305.338 253.390,304.555 250.811 C 303.326 246.761,303.325 244.919,304.546 237.311 C 305.324 232.465,306.515 227.450,307.193 226.167 C 308.703 223.312,315.110 219.450,320.500 218.147 C 329.460 215.980,353.092 206.989,361.891 202.399 C 367.056 199.705,372.887 196.665,374.849 195.644 C 376.810 194.624,383.015 192.628,388.636 191.211 C 397.818 188.895,399.261 188.766,402.841 189.947 C 406.721 191.228,410.330 191.101,422.485 189.257 C 427.320 188.523,427.490 188.384,428.095 184.646 C 428.642 181.270,429.692 179.753,432.168 178.766 C 432.535 178.620,432.261 176.250,431.558 173.500 C 430.082 167.720,428.726 167.089,422.641 169.351 C 420.364 170.198,416.700 171.175,414.500 171.523 C 412.300 171.870,407.470 172.854,403.767 173.708 C 395.911 175.521,372.745 175.059,367.143 172.977 C 363.525 171.633,361.182 171.964,344.000 176.244 C 329.244 179.920,284.391 178.820,280.252 174.681 C 278.355 172.784,276.259 161.343,277.104 157.500 C 278.199 152.519,278.072 140.333,276.872 135.264 C 273.435 120.745,271.783 116.547,268.025 112.790 C 264.464 109.228,263.882 109.006,258.368 109.099 C 255.140 109.153,250.700 109.775,248.500 110.481 " style="stroke: none; fill: black;">
                    </path></svg>