<svg id="svg-path" width="100%" height="100%" viewBox="0 0 512 512" version="1.1" xmlns="http://www.w3.org/2000/svg" style="fill-rule:evenodd;clip-rule:evenodd;stroke-linejoin:round;stroke-miterlimit:2;">
                        <path d="M197.026 175.220 C 194.566 176.348,189.213 177.645,185.132 178.103 C 172.920 179.473,169.323 181.181,157.387 191.285 C 151.399 196.353,144.475 201.507,142.000 202.738 C 139.525 203.969,136.261 205.971,134.746 207.186 C 131.733 209.604,123.902 210.859,111.261 210.949 C 101.099 211.021,92.262 214.623,87.254 220.734 L 83.569 225.232 77.310 224.591 C 71.915 224.038,70.781 224.219,69.099 225.901 C 66.590 228.410,67.381 231.539,70.845 232.810 C 72.305 233.345,75.571 234.519,78.101 235.418 C 83.106 237.195,85.692 240.790,84.136 243.807 C 83.656 244.738,82.950 247.300,82.567 249.500 C 80.986 258.591,79.732 261.144,75.559 263.772 C 68.834 268.007,67.390 271.233,70.829 274.345 C 73.268 276.553,73.818 276.483,81.342 273.000 C 89.709 269.127,93.676 269.177,101.316 273.250 C 106.825 276.187,108.233 276.500,115.956 276.500 C 123.863 276.500,124.809 276.276,128.640 273.500 C 130.917 271.850,133.606 269.284,134.616 267.798 C 139.239 260.994,143.904 261.820,149.403 270.416 C 156.056 280.816,166.627 284.673,193.500 286.504 C 199.000 286.879,206.200 287.784,209.500 288.516 C 218.033 290.409,239.427 291.341,245.726 290.095 C 248.679 289.511,253.729 287.307,257.335 285.030 C 260.844 282.814,264.792 280.995,266.108 280.989 C 270.217 280.971,278.156 278.118,281.770 275.362 C 285.164 272.773,285.445 272.734,295.867 273.375 C 301.715 273.734,310.775 274.667,316.000 275.448 C 321.225 276.229,329.550 277.398,334.500 278.045 C 339.450 278.693,348.895 280.297,355.489 281.611 C 370.027 284.508,375.116 284.599,380.434 282.057 C 384.180 280.266,385.439 280.194,396.441 281.142 C 411.303 282.421,415.536 281.831,420.431 277.796 L 424.237 274.659 423.767 266.579 C 423.354 259.475,423.565 258.075,425.520 254.973 C 429.982 247.894,429.403 241.324,423.879 236.364 C 421.390 234.129,395.840 225.000,392.074 225.000 C 389.593 225.000,384.882 222.741,380.500 219.451 C 376.950 216.786,354.619 211.000,347.881 211.000 C 341.975 211.000,335.491 208.995,330.610 205.659 C 327.163 203.302,325.770 203.000,318.357 203.000 C 305.925 203.000,283.192 196.588,274.087 190.514 C 267.731 186.273,263.181 184.133,248.739 178.593 C 241.547 175.834,235.420 175.376,228.150 177.052 C 224.349 177.928,223.103 177.736,218.279 175.528 C 211.382 172.370,203.491 172.255,197.026 175.220 M397.000 244.609 C 404.592 248.308,415.000 255.529,415.000 257.099 C 415.000 259.218,409.480 261.120,398.750 262.697 C 387.134 264.404,387.133 264.404,382.317 262.198 C 379.667 260.985,373.675 258.899,369.000 257.564 C 364.325 256.229,357.125 253.721,353.000 251.990 C 348.875 250.260,343.334 248.237,340.687 247.496 C 335.303 245.988,330.476 243.192,331.494 242.170 C 332.238 241.424,376.638 240.142,384.500 240.639 C 387.713 240.842,392.180 242.261,397.000 244.609 M394.557 302.223 C 392.264 305.496,392.468 324.845,394.918 336.500 C 400.320 362.195,400.641 364.101,401.954 378.314 C 402.453 383.711,403.397 388.774,404.053 389.564 C 405.757 391.617,415.874 391.477,418.899 389.359 C 421.042 387.857,421.186 387.238,420.583 382.109 C 420.221 379.024,419.322 374.025,418.586 371.000 C 417.277 365.623,416.518 361.327,413.457 342.000 C 412.629 336.775,411.518 330.475,410.986 328.000 C 410.455 325.525,409.747 319.089,409.413 313.698 C 408.906 305.518,408.460 303.575,406.714 301.948 C 403.664 299.107,396.628 299.266,394.557 302.223 M275.129 312.758 C 274.588 313.769,274.222 329.314,274.269 349.324 C 274.347 383.223,274.402 384.168,276.397 385.565 C 279.075 387.441,286.440 387.417,288.331 385.526 C 290.555 383.302,290.915 377.184,290.698 345.332 L 290.500 316.163 288.076 313.582 C 286.124 311.503,284.718 311.000,280.861 311.000 C 277.313 311.000,275.826 311.456,275.129 312.758 M208.244 316.250 C 206.926 317.896,204.385 330.244,203.047 341.500 C 202.459 346.450,201.511 352.750,200.940 355.500 C 200.369 358.250,199.646 364.664,199.332 369.754 C 198.642 380.945,199.226 382.000,206.122 382.000 C 211.819 382.000,214.993 379.589,215.012 375.250 C 215.018 373.738,215.688 370.025,216.500 367.000 C 217.312 363.975,217.982 357.319,217.988 352.208 C 217.995 347.097,218.723 339.447,219.606 335.208 C 221.606 325.608,221.779 318.643,220.067 316.581 C 218.465 314.651,209.721 314.406,208.244 316.250 M313.571 316.571 C 311.659 318.484,311.542 316.720,314.483 330.326 C 315.976 337.230,317.384 348.331,318.014 358.156 C 319.297 378.170,320.405 386.578,322.016 388.519 C 323.690 390.537,332.861 390.486,335.777 388.443 C 338.513 386.527,338.564 384.178,336.093 373.637 C 335.044 369.162,333.884 359.650,333.515 352.500 C 332.774 338.135,329.750 318.609,327.927 316.412 C 326.246 314.386,315.639 314.504,313.571 316.571 " style="stroke: none; fill: black;">
                    </path></svg>