<svg id="svg-path" width="100%" height="100%" viewBox="0 0 512 512" version="1.1" xmlns="http://www.w3.org/2000/svg" style="fill-rule:evenodd;clip-rule:evenodd;stroke-linejoin:round;stroke-miterlimit:2;">
                        <path d="M247.563 172.898 C 247.258 173.392,244.725 174.617,241.936 175.620 C 238.237 176.950,235.664 178.848,232.435 182.628 L 228.006 187.812 227.660 198.156 C 227.369 206.835,226.903 209.305,224.768 213.500 C 221.153 220.601,219.000 228.508,219.000 234.679 C 219.000 239.349,219.425 240.464,222.500 243.868 C 226.515 248.313,226.799 250.867,224.809 264.632 L 223.619 272.867 226.809 278.000 C 228.564 280.823,230.000 283.766,230.000 284.541 C 230.000 285.315,228.537 286.689,226.750 287.595 C 219.421 291.308,217.982 295.268,222.635 298.927 C 225.760 301.386,232.528 301.671,235.441 299.468 C 239.005 296.773,242.711 297.618,245.756 301.822 C 249.090 306.425,254.480 311.138,258.297 312.790 C 262.369 314.551,265.800 314.279,269.096 311.932 C 273.208 309.004,272.999 305.231,268.500 301.136 C 266.575 299.385,265.001 297.400,265.002 296.726 C 265.003 296.052,267.063 294.199,269.581 292.608 C 280.746 285.554,286.000 277.802,286.000 268.384 C 286.000 265.005,288.873 254.455,291.007 250.000 C 291.807 248.329,300.280 248.349,316.000 250.059 C 320.675 250.568,327.672 250.987,331.550 250.992 C 338.909 251.000,341.000 251.961,341.000 255.332 C 341.000 256.395,341.902 258.723,343.004 260.506 C 344.579 263.054,344.739 263.965,343.754 264.761 C 341.974 266.199,335.725 267.085,324.632 267.471 C 308.774 268.024,301.728 272.645,297.140 285.500 C 292.967 297.191,287.633 308.023,284.154 311.871 C 282.478 313.725,280.818 316.553,280.466 318.155 C 279.473 322.676,276.173 324.324,270.815 322.975 C 264.978 321.505,257.979 322.061,256.705 324.095 C 255.286 326.360,256.587 330.531,259.771 333.922 C 262.592 336.928,274.859 341.710,282.314 342.710 C 285.987 343.203,286.385 342.949,293.035 335.861 C 296.833 331.813,304.710 321.638,310.539 313.252 C 318.220 302.202,321.832 297.829,323.661 297.370 C 325.100 297.009,329.529 297.653,333.963 298.868 C 338.241 300.041,342.868 301.000,344.246 301.000 C 345.624 301.000,349.351 302.150,352.528 303.555 C 360.140 306.921,366.973 308.138,373.774 307.339 C 378.923 306.734,379.717 306.266,384.800 300.852 C 387.813 297.643,390.944 293.776,391.758 292.259 C 398.516 279.660,400.534 274.267,401.585 266.000 C 401.970 262.975,402.715 259.375,403.241 258.000 C 403.768 256.625,404.611 249.425,405.116 242.000 C 405.620 234.575,406.291 225.941,406.605 222.813 C 407.177 217.137,407.169 217.116,402.726 212.674 C 399.338 209.285,397.227 208.050,393.887 207.502 C 388.227 206.573,386.307 204.789,385.451 199.661 C 384.409 193.422,381.181 185.842,378.258 182.768 C 376.829 181.265,373.720 179.295,371.350 178.390 C 367.366 176.868,366.852 176.867,364.555 178.372 C 363.096 179.328,360.006 180.000,357.070 180.000 C 352.915 180.000,351.479 180.519,348.573 183.070 C 343.460 187.559,341.045 192.066,340.222 198.654 L 339.492 204.493 335.496 205.231 C 333.298 205.638,326.775 206.949,321.000 208.146 C 315.225 209.342,306.816 210.506,302.313 210.732 C 296.715 211.013,293.738 211.611,292.899 212.622 C 291.082 214.811,293.957 217.226,299.214 217.928 C 302.381 218.351,303.758 219.087,304.487 220.750 C 305.753 223.636,307.245 223.585,311.785 220.500 C 315.889 217.712,317.726 217.485,322.929 219.127 C 336.309 223.348,338.202 224.310,337.373 226.472 C 336.611 228.457,329.113 230.005,314.555 231.184 C 297.332 232.578,295.396 232.574,293.674 231.144 C 292.871 230.478,289.086 224.661,285.263 218.217 C 280.032 209.400,277.903 204.680,276.661 199.149 C 274.809 190.903,270.185 181.469,266.169 177.742 C 261.761 173.652,249.130 170.363,247.563 172.898 M98.126 182.317 C 92.172 190.971,89.000 198.452,89.000 203.840 C 89.000 208.463,89.418 209.404,93.523 214.025 C 98.077 219.154,98.173 219.760,95.013 223.500 C 91.856 227.237,91.147 231.478,90.662 249.500 C 90.215 266.097,89.535 271.966,86.859 282.334 C 86.315 284.442,85.616 289.192,85.306 292.890 C 84.593 301.391,87.984 316.947,91.582 321.683 C 92.912 323.434,94.000 325.109,94.000 325.406 C 94.000 325.703,95.099 328.320,96.443 331.223 C 97.787 334.125,99.357 338.329,99.932 340.565 C 100.507 342.801,102.167 345.726,103.621 347.065 C 106.835 350.026,110.977 358.514,110.990 362.169 C 111.004 365.986,113.794 376.571,116.480 383.000 C 122.945 398.473,125.000 404.208,125.000 406.777 C 125.000 410.150,129.458 417.372,132.566 419.035 C 133.786 419.688,136.070 422.015,137.642 424.207 C 146.261 436.224,148.165 437.047,155.570 431.952 C 161.849 427.632,161.596 425.244,154.108 418.112 C 149.676 413.891,147.481 410.765,145.253 405.500 C 140.623 394.557,139.927 392.018,139.364 384.000 C 139.073 379.845,137.913 374.270,136.765 371.500 C 135.081 367.440,134.602 363.652,134.215 351.355 C 133.759 336.862,133.827 336.163,135.787 335.114 C 137.930 333.967,143.652 334.628,144.580 336.129 C 144.876 336.608,145.951 337.000,146.969 337.000 C 147.987 337.000,151.091 338.795,153.867 340.989 C 157.668 343.994,159.212 346.029,160.124 349.239 C 160.790 351.583,162.385 354.932,163.667 356.683 C 164.950 358.434,166.000 360.087,166.000 360.357 C 166.000 360.627,169.600 366.882,174.000 374.257 C 178.400 381.631,182.000 388.585,182.000 389.710 C 182.000 393.799,183.901 394.149,197.477 392.560 C 211.982 390.863,216.306 389.076,216.830 384.560 C 217.247 380.965,215.895 380.145,210.548 380.747 C 204.646 381.413,199.304 378.753,197.181 374.093 C 196.281 372.117,194.535 369.244,193.302 367.709 C 192.069 366.174,190.134 361.808,189.002 358.007 C 185.433 346.021,178.023 328.877,173.468 322.065 C 168.737 314.990,157.625 300.732,150.220 292.235 C 145.493 286.811,143.041 281.546,143.015 276.760 C 142.999 273.922,148.968 264.421,156.201 255.767 C 160.964 250.070,163.109 249.405,179.500 248.550 C 189.839 248.010,192.469 248.206,198.497 249.962 C 202.345 251.083,206.042 252.000,206.712 252.000 C 208.450 252.000,215.000 246.049,215.000 244.470 C 215.000 243.743,212.111 240.143,208.580 236.470 L 202.160 229.792 196.330 229.768 C 193.031 229.755,188.648 230.501,186.234 231.487 C 182.935 232.835,181.350 232.995,179.234 232.195 C 173.132 229.885,165.118 228.083,158.500 227.531 C 154.436 227.193,148.774 225.832,145.000 224.288 C 135.776 220.514,135.800 220.541,137.680 215.841 C 139.188 212.074,139.162 211.601,137.205 207.178 C 136.067 204.605,134.895 200.081,134.600 197.124 C 133.690 187.988,131.887 186.388,116.494 181.054 C 104.133 176.771,101.833 176.929,98.126 182.317 " style="stroke: none; fill: black;">
                    </path></svg>