<svg id="svg-path" width="100%" height="100%" viewBox="0 0 512 512" version="1.1" xmlns="http://www.w3.org/2000/svg" style="fill-rule:evenodd;clip-rule:evenodd;stroke-linejoin:round;stroke-miterlimit:2;">
                        <path d="M205.853 41.370 C 202.747 42.648,198.922 44.679,197.353 45.884 C 193.091 49.158,179.598 64.392,175.523 70.531 C 173.559 73.490,171.478 76.205,170.899 76.563 C 167.662 78.563,156.970 80.094,150.391 79.499 C 142.402 78.776,138.404 79.946,133.676 84.388 C 132.123 85.847,128.523 88.206,125.676 89.631 C 118.967 92.988,110.396 99.411,108.824 102.260 C 108.145 103.492,107.290 107.621,106.925 111.435 C 106.150 119.517,104.469 121.507,97.536 122.547 C 91.177 123.500,89.194 126.152,87.392 136.113 C 86.557 140.726,85.369 146.975,84.752 150.000 C 84.136 153.025,83.459 160.139,83.250 165.810 C 82.883 175.728,82.988 176.356,85.997 182.344 L 89.124 188.568 88.690 215.034 C 88.255 241.561,87.128 256.054,85.090 261.315 C 83.667 264.989,83.692 275.779,85.134 280.101 C 85.758 281.970,87.797 285.505,89.667 287.956 C 91.536 290.407,93.264 293.332,93.506 294.456 C 94.925 301.036,96.000 308.939,96.000 312.788 C 96.000 320.558,104.300 334.237,114.092 342.606 C 117.378 345.414,123.314 349.321,127.283 351.288 C 134.890 355.057,148.163 365.699,150.756 370.106 C 153.558 374.870,153.792 374.493,129.194 404.863 C 122.795 412.763,115.606 420.828,113.217 422.786 C 104.712 429.755,104.374 433.591,111.048 447.435 C 113.186 451.871,115.460 457.750,116.102 460.500 C 118.078 468.963,119.014 470.707,124.664 476.447 C 130.471 482.348,133.483 483.334,136.276 480.247 C 137.567 478.821,137.922 475.266,138.181 461.157 C 138.491 444.325,138.569 443.763,140.861 441.910 C 142.159 440.859,144.538 440.000,146.146 440.000 C 147.754 440.000,150.179 439.273,151.535 438.385 C 153.999 436.771,160.811 426.909,164.479 419.648 C 167.064 414.530,172.776 409.851,175.991 410.217 C 179.594 410.626,179.622 413.355,176.080 418.875 C 172.637 424.241,172.001 430.129,174.483 433.673 C 175.299 434.837,178.373 437.148,181.313 438.808 C 184.254 440.468,190.335 444.934,194.826 448.733 C 206.338 458.473,219.934 463.666,223.800 459.800 C 226.644 456.956,225.285 453.310,217.858 443.861 C 213.796 438.692,205.000 420.758,205.000 417.644 C 205.000 413.490,206.589 411.291,210.528 409.991 C 218.800 407.261,219.889 401.113,221.617 347.428 C 222.196 329.423,222.079 326.969,220.484 323.607 C 217.200 316.688,200.066 303.122,186.000 296.304 C 180.775 293.772,174.935 290.417,173.022 288.850 C 171.109 287.282,169.057 286.000,168.462 286.000 C 166.655 286.000,161.013 279.901,160.341 277.221 C 159.525 273.971,160.690 252.696,161.968 247.500 C 162.510 245.300,162.963 236.934,162.976 228.910 C 162.998 215.400,163.221 213.660,165.988 205.410 C 169.300 195.534,169.733 189.689,167.541 184.443 C 164.969 178.288,167.744 176.217,177.083 177.323 C 184.719 178.228,188.384 180.452,191.415 186.021 C 192.887 188.726,194.492 191.186,194.982 191.489 C 195.472 191.792,197.973 195.199,200.540 199.061 C 203.412 203.381,207.865 208.229,212.116 211.663 C 219.620 217.726,219.642 217.774,220.378 229.474 C 220.987 239.157,225.289 248.547,231.344 253.412 L 235.189 256.500 251.844 256.500 C 266.800 256.500,269.623 256.214,279.500 253.700 C 285.550 252.160,293.031 249.798,296.125 248.450 C 302.543 245.654,308.323 245.361,315.298 247.477 C 319.681 248.807,320.502 248.773,324.798 247.085 C 327.384 246.068,331.999 244.720,335.053 244.088 C 343.215 242.401,356.083 234.696,364.527 226.442 C 376.743 214.501,383.019 197.825,382.985 177.400 C 382.958 160.566,377.172 149.531,363.677 140.574 C 354.329 134.369,354.213 130.057,363.202 122.910 C 370.680 116.965,380.253 112.617,384.389 113.288 C 386.189 113.580,391.170 116.110,395.459 118.910 C 399.748 121.709,404.346 124.000,405.678 124.000 C 410.044 124.000,413.954 121.043,419.497 113.547 C 424.103 107.319,425.937 105.701,431.228 103.193 C 448.558 94.978,454.418 81.251,442.377 77.078 L 438.274 75.656 424.360 82.293 C 405.245 91.411,396.460 92.326,388.529 86.023 C 386.505 84.414,382.295 82.405,379.174 81.558 C 366.629 78.154,361.933 76.321,348.832 69.717 C 337.381 63.944,333.945 62.675,327.650 61.894 C 318.249 60.727,313.450 61.736,302.946 67.088 C 285.181 76.139,282.931 81.247,286.584 104.227 C 288.534 116.493,288.087 119.000,283.949 119.000 C 279.766 119.000,274.520 116.633,268.308 111.943 C 259.571 105.346,253.860 105.345,250.155 111.939 C 248.918 114.140,247.514 116.183,247.034 116.479 C 246.555 116.775,242.189 117.707,237.332 118.551 C 227.188 120.312,221.568 121.895,214.500 124.981 C 201.652 130.589,196.728 131.231,191.472 127.982 C 186.060 124.638,184.571 121.447,184.714 113.500 C 184.783 109.650,185.737 103.575,186.835 100.000 C 187.932 96.425,189.144 91.475,189.527 89.000 C 189.910 86.525,190.868 82.925,191.656 81.000 C 193.306 76.968,201.726 68.071,210.694 60.882 C 221.003 52.618,223.814 45.359,218.365 41.073 C 215.019 38.440,212.850 38.492,205.853 41.370 M215.500 149.924 C 226.982 151.154,240.561 153.695,243.197 155.106 C 245.621 156.403,245.471 157.842,242.447 162.293 C 239.389 166.794,237.000 173.230,237.000 176.971 C 237.000 183.199,230.934 184.456,224.500 179.562 C 219.951 176.102,209.984 171.363,205.560 170.556 C 202.511 170.000,199.958 168.226,194.268 162.709 C 185.398 154.108,185.154 152.320,192.500 149.752 C 195.391 148.741,199.187 148.182,201.500 148.427 C 203.700 148.661,210.000 149.334,215.500 149.924 " style="stroke: none; fill: black;">
                    </path></svg>