<svg id="svg-path" width="100%" height="100%" viewBox="0 0 512 512" version="1.1" xmlns="http://www.w3.org/2000/svg" style="fill-rule:evenodd;clip-rule:evenodd;stroke-linejoin:round;stroke-miterlimit:2;">
                        <path d="M112.500 236.165 C 110.850 236.781,108.348 238.091,106.939 239.076 C 105.530 240.061,103.055 241.181,101.439 241.565 C 99.823 241.949,97.514 243.157,96.309 244.251 C 93.404 246.885,89.000 258.056,89.000 262.788 C 89.000 269.543,87.408 270.619,76.296 271.370 C 65.239 272.117,61.437 271.348,55.519 267.170 C 49.322 262.794,48.306 262.674,45.367 265.972 C 43.936 267.578,41.531 269.164,40.023 269.495 C 38.515 269.826,36.048 271.384,34.541 272.957 C 30.922 276.735,31.689 281.413,36.329 283.855 C 38.047 284.760,40.899 287.020,42.665 288.879 C 45.691 292.061,46.187 292.230,51.189 291.785 C 54.279 291.510,59.338 289.955,63.285 288.067 C 69.244 285.217,70.705 284.902,75.285 285.478 C 84.516 286.639,91.307 289.045,95.147 292.514 C 100.337 297.203,102.038 297.934,110.115 298.948 C 116.571 299.759,117.669 300.238,121.384 303.865 C 123.648 306.075,126.767 308.360,128.315 308.942 C 132.963 310.689,143.382 310.214,149.000 308.000 C 151.791 306.900,156.140 306.000,158.665 306.000 C 162.590 306.000,164.215 306.709,169.878 310.889 C 178.613 317.339,189.454 322.761,196.118 324.013 C 199.078 324.569,205.337 326.348,210.026 327.966 C 214.715 329.583,221.915 331.396,226.026 331.993 C 230.137 332.590,237.550 333.720,242.500 334.503 C 247.450 335.286,254.767 336.196,258.759 336.525 C 265.168 337.053,266.376 336.869,269.067 334.952 C 272.348 332.616,283.060 329.020,286.775 329.008 C 288.026 329.003,292.159 330.566,295.959 332.479 C 303.997 336.527,316.596 340.039,333.500 342.944 C 348.316 345.490,351.558 345.507,358.782 343.074 C 362.503 341.821,368.866 340.919,377.000 340.492 C 383.875 340.130,394.069 339.003,399.654 337.986 C 412.762 335.600,423.894 336.492,435.716 340.877 C 446.974 345.053,450.977 347.221,456.105 351.920 C 463.042 358.276,466.790 357.097,467.774 348.249 C 468.082 345.482,469.282 342.209,470.651 340.406 C 473.593 336.530,473.581 336.080,470.364 329.731 C 466.284 321.680,445.768 298.584,439.969 295.515 C 436.721 293.796,434.906 294.754,428.930 301.344 C 424.427 306.309,424.261 306.389,417.566 306.815 C 413.194 307.093,408.762 306.687,405.136 305.676 C 394.550 302.725,386.092 301.000,382.294 301.017 C 378.528 301.034,367.086 303.735,361.685 305.881 C 357.282 307.631,354.551 307.217,351.924 304.400 C 347.853 300.035,339.489 295.012,332.660 292.831 C 325.407 290.515,314.000 282.127,314.000 279.110 C 314.000 278.120,314.900 276.495,316.000 275.500 C 318.604 273.143,318.529 271.584,315.750 270.291 C 314.512 269.716,310.575 267.863,307.000 266.174 C 296.895 261.401,294.081 261.012,269.671 261.006 L 246.841 261.000 241.115 255.038 C 237.966 251.759,233.389 248.169,230.945 247.060 C 222.720 243.329,209.839 245.048,196.769 251.621 C 191.519 254.261,187.667 255.320,179.269 256.430 C 173.346 257.213,166.475 258.777,164.000 259.905 C 156.958 263.115,155.691 262.746,150.474 255.966 C 144.950 248.788,135.161 240.403,129.249 237.787 C 123.917 235.427,116.419 234.701,112.500 236.165 " style="stroke: none; fill: black;">
                    </path></svg>