<svg id="svg-path" width="100%" height="100%" viewBox="0 0 512 512" version="1.1" xmlns="http://www.w3.org/2000/svg" style="fill-rule:evenodd;clip-rule:evenodd;stroke-linejoin:round;stroke-miterlimit:2;">
                        <path d="M292.887 93.244 C 289.679 94.786,284.434 100.729,283.035 104.407 C 281.773 107.726,281.714 123.245,282.931 131.656 C 283.421 135.042,285.299 140.781,287.104 144.409 L 290.387 151.005 288.444 153.579 C 286.185 156.572,284.057 157.865,274.500 162.057 C 263.653 166.814,262.973 167.228,260.684 170.464 C 259.504 172.134,254.564 177.730,249.707 182.900 C 244.850 188.070,237.713 196.731,233.845 202.148 C 229.978 207.565,226.446 212.224,225.997 212.502 C 225.549 212.779,222.643 216.782,219.540 221.397 C 210.173 235.331,205.904 238.759,195.812 240.450 C 193.000 240.921,191.396 242.057,189.062 245.231 C 185.195 250.488,185.099 254.145,188.750 257.021 C 191.013 258.804,192.314 259.080,196.097 258.580 C 199.800 258.090,201.192 258.363,203.255 259.986 C 204.663 261.094,206.306 262.000,206.906 262.000 C 208.603 262.000,239.517 233.026,249.000 222.548 C 258.930 211.576,265.525 205.880,267.445 206.617 C 268.196 206.906,269.298 209.697,269.893 212.821 C 270.487 215.944,271.598 221.650,272.361 225.500 C 273.124 229.350,274.049 235.680,274.416 239.568 C 275.047 246.230,274.903 246.975,271.899 252.568 C 270.147 255.830,267.467 261.013,265.944 264.084 C 264.422 267.156,260.942 273.091,258.212 277.273 C 255.481 281.455,252.948 286.071,252.582 287.529 C 252.216 288.988,250.162 292.960,248.017 296.355 C 244.132 302.508,242.502 307.415,241.477 316.049 C 240.976 320.273,239.266 323.989,225.620 350.505 C 223.354 354.908,220.433 360.004,219.129 361.830 C 217.441 364.193,216.608 367.008,216.240 371.603 C 215.785 377.268,215.346 378.372,212.651 380.640 C 210.962 382.061,206.187 384.812,202.040 386.754 C 189.817 392.475,189.573 392.634,187.823 395.996 C 185.860 399.767,186.235 401.330,189.455 402.798 C 192.214 404.054,201.290 402.420,210.000 399.099 C 213.836 397.636,217.798 397.001,223.095 397.001 C 231.416 397.000,231.886 396.725,235.388 389.803 C 237.281 386.060,241.982 383.000,245.838 383.000 C 249.207 383.000,252.870 378.103,258.325 366.308 C 262.993 356.213,274.636 338.517,283.190 328.517 C 286.660 324.460,292.200 322.651,296.097 324.302 C 299.941 325.931,310.584 339.429,312.510 345.119 C 314.331 350.499,318.855 356.984,329.520 369.500 C 335.892 376.979,337.809 380.101,340.862 387.970 C 344.261 396.734,344.981 397.798,350.517 402.226 C 354.965 405.783,356.966 408.223,358.317 411.734 C 360.825 418.251,361.384 418.738,367.827 420.011 C 376.703 421.764,379.531 422.864,384.176 426.371 C 389.682 430.529,395.954 433.000,401.001 433.000 C 404.361 433.000,405.054 432.631,405.571 430.572 C 406.555 426.652,405.321 424.760,398.727 420.078 C 385.906 410.975,381.967 407.683,379.906 404.349 C 377.929 401.149,377.871 400.486,379.024 394.373 C 380.193 388.178,380.143 387.681,378.097 385.162 C 376.208 382.836,374.871 380.269,370.984 371.500 C 368.051 364.882,361.758 336.202,361.496 328.258 C 361.381 324.747,360.712 322.339,359.472 320.969 C 358.077 319.427,357.467 316.652,356.999 309.711 C 356.657 304.645,355.743 299.375,354.968 298.000 C 353.962 296.214,353.524 291.501,353.437 281.500 C 353.310 266.881,353.089 265.647,344.346 230.731 C 341.750 220.363,340.285 205.986,341.379 201.625 C 342.204 198.338,344.851 198.205,348.673 201.258 C 355.170 206.448,361.134 210.026,372.000 215.253 C 388.378 223.131,402.102 229.329,405.500 230.381 C 406.600 230.721,410.599 233.916,414.386 237.480 C 421.572 244.243,425.202 245.800,431.007 244.613 C 432.653 244.276,435.382 243.719,437.072 243.376 C 442.436 242.286,443.392 235.168,439.002 229.003 C 437.476 226.860,434.931 225.519,428.505 223.473 C 421.303 221.180,419.709 220.265,417.948 217.416 C 414.847 212.399,390.194 194.547,367.000 180.522 C 333.878 160.495,336.002 162.326,335.993 153.795 C 335.989 150.333,336.709 142.482,337.593 136.349 C 339.053 126.215,339.057 124.709,337.640 119.849 C 334.085 107.656,323.882 97.713,311.834 94.702 C 302.222 92.300,295.869 91.811,292.887 93.244 M135.105 190.373 C 133.719 192.044,134.473 194.390,137.875 198.981 C 141.985 204.529,141.438 208.755,135.834 214.746 C 130.422 220.533,127.755 225.267,128.189 228.318 C 128.687 231.814,132.360 231.634,135.129 227.977 C 136.433 226.256,139.350 222.744,141.610 220.173 C 148.815 211.982,149.308 209.700,145.911 200.288 C 144.021 195.052,139.301 189.000,137.107 189.000 C 136.633 189.000,135.732 189.618,135.105 190.373 M117.500 191.135 C 116.400 191.752,113.638 194.044,111.362 196.227 C 108.249 199.214,104.903 201.001,97.862 203.438 C 87.625 206.981,86.041 208.544,86.015 215.128 C 85.997 219.436,88.297 221.933,90.818 220.343 C 91.726 219.770,93.376 217.557,94.484 215.425 C 96.294 211.944,97.149 211.378,102.855 209.888 C 107.943 208.559,110.048 207.358,113.414 203.864 C 115.727 201.464,119.167 198.591,121.059 197.479 C 125.405 194.927,125.963 190.642,122.000 190.257 C 120.625 190.123,118.600 190.518,117.500 191.135 M83.571 225.571 C 81.188 227.955,81.191 227.974,87.554 248.500 C 88.918 252.900,90.028 258.525,90.021 261.000 C 89.997 268.955,95.472 274.751,98.997 270.503 C 99.955 269.349,99.983 267.991,99.120 264.561 C 98.504 262.115,98.000 258.837,98.000 257.275 C 98.000 255.714,97.315 251.975,96.478 248.968 C 95.641 245.961,94.002 239.900,92.837 235.500 C 89.969 224.676,87.313 221.830,83.571 225.571 M128.098 240.149 C 127.494 241.881,126.990 244.694,126.978 246.399 C 126.966 248.105,126.120 251.341,125.098 253.590 C 122.390 259.553,121.108 283.015,123.387 284.906 C 125.598 286.741,129.629 285.505,130.380 282.761 C 130.720 281.517,131.243 275.775,131.542 270.000 C 131.842 264.225,132.570 256.027,133.160 251.782 C 134.468 242.384,133.700 237.000,131.053 237.000 C 129.869 237.000,128.798 238.142,128.098 240.149 M97.200 277.200 C 94.069 280.331,96.924 289.500,101.030 289.500 C 103.229 289.500,103.534 289.024,103.811 285.168 C 104.291 278.499,100.486 273.914,97.200 277.200 M110.667 290.667 C 109.100 292.233,110.240 298.409,113.528 306.171 C 115.593 311.045,117.293 316.989,117.627 320.500 C 117.940 323.800,119.533 330.136,121.167 334.579 L 124.136 342.658 123.119 364.381 C 122.560 376.328,122.352 386.755,122.658 387.552 C 122.964 388.348,124.040 389.000,125.050 389.000 C 128.143 389.000,130.000 385.092,130.000 378.580 C 130.000 375.293,130.517 366.438,131.148 358.901 C 132.166 346.758,132.109 344.729,130.648 341.079 C 129.742 338.813,129.000 335.759,129.000 334.292 C 129.000 332.826,127.258 325.747,125.128 318.563 C 122.998 311.378,120.702 303.405,120.024 300.844 C 117.810 292.475,113.522 287.811,110.667 290.667 M125.667 296.667 C 125.300 297.033,125.000 298.958,125.000 300.944 C 125.000 305.558,127.486 309.215,130.347 308.807 C 132.144 308.551,132.550 307.734,132.800 303.871 C 133.010 300.624,132.616 298.759,131.478 297.621 C 129.819 295.962,126.858 295.475,125.667 296.667 M132.091 316.830 C 130.445 319.906,135.539 328.000,139.120 328.000 C 142.416 328.000,143.288 324.484,141.070 320.138 C 138.366 314.838,134.015 313.235,132.091 316.830 M141.048 336.442 C 139.228 338.635,139.189 346.881,140.994 347.996 C 144.715 350.296,149.332 342.218,147.098 337.315 C 145.911 334.709,142.853 334.268,141.048 336.442 M141.928 355.586 C 140.190 357.681,138.836 379.230,140.197 383.135 C 141.031 385.527,141.754 386.000,144.579 386.000 C 148.350 386.000,148.456 385.776,149.437 375.750 C 149.747 372.587,150.286 367.540,150.637 364.533 C 151.127 360.321,150.892 358.484,149.613 356.533 C 147.715 353.635,143.934 353.169,141.928 355.586 " style="stroke: none; fill: black;">
                    </path></svg>