<svg id="svg-path" width="100%" height="100%" viewBox="0 0 512 512" version="1.1" xmlns="http://www.w3.org/2000/svg" style="fill-rule:evenodd;clip-rule:evenodd;stroke-linejoin:round;stroke-miterlimit:2;">
                        <path d="M121.595 187.207 C 119.621 188.312,119.595 190.880,121.532 193.441 C 122.339 194.509,123.000 197.281,123.000 199.602 C 123.000 203.087,122.464 204.273,119.923 206.411 C 117.375 208.555,115.834 209.000,110.953 209.000 C 105.565 209.000,104.870 208.743,102.842 206.000 C 101.613 204.338,99.704 203.006,98.562 203.013 C 95.581 203.032,83.291 210.102,77.750 214.984 C 74.038 218.255,73.000 219.836,73.000 222.217 C 73.000 225.926,75.873 230.776,80.352 234.628 C 82.188 236.208,86.744 240.995,90.475 245.267 C 96.959 252.691,97.235 253.214,96.711 257.115 C 95.716 264.539,93.186 265.915,72.000 270.559 C 54.243 274.451,51.356 276.483,54.031 283.205 C 55.495 286.883,62.249 295.295,68.835 301.642 C 71.220 303.940,74.440 308.224,75.991 311.160 C 77.542 314.097,79.527 316.645,80.401 316.822 C 81.276 317.000,85.377 315.276,89.516 312.991 L 97.041 308.837 102.981 313.984 C 106.249 316.814,109.958 321.009,111.224 323.304 C 113.824 328.017,116.254 328.985,119.074 326.433 C 120.593 325.058,121.000 323.338,121.000 318.289 L 121.000 311.888 125.608 309.849 C 129.558 308.102,131.378 307.909,138.358 308.495 C 142.836 308.872,148.432 309.595,150.792 310.103 C 154.343 310.868,156.329 310.605,162.292 308.582 C 166.257 307.238,172.650 305.369,176.500 304.431 C 186.927 301.889,191.997 299.140,195.280 294.250 C 200.099 287.070,199.313 287.178,238.500 288.319 C 251.971 288.711,260.410 288.469,267.500 287.486 C 281.827 285.502,302.267 286.920,314.000 290.714 C 316.475 291.514,323.603 292.425,329.840 292.737 C 338.619 293.178,341.310 293.645,341.755 294.805 C 342.141 295.809,338.375 300.146,330.358 307.934 C 323.773 314.331,316.557 322.025,314.323 325.032 C 312.088 328.039,307.502 333.341,304.130 336.814 C 300.759 340.286,298.000 343.539,298.000 344.043 C 298.000 344.547,299.800 345.878,302.000 347.000 C 304.200 348.122,306.000 349.473,306.000 350.001 C 306.000 350.530,307.075 351.232,308.389 351.561 C 311.435 352.326,322.662 346.035,329.000 340.012 C 335.734 333.613,360.353 316.000,362.563 316.000 C 363.798 316.000,377.415 306.433,381.829 302.464 C 384.516 300.048,389.305 294.905,392.471 291.035 C 396.154 286.533,398.956 284.000,400.252 284.000 C 401.365 284.000,404.205 285.777,406.561 287.950 C 414.469 295.239,427.719 296.845,438.988 291.880 C 445.339 289.081,447.720 286.475,449.491 280.382 C 450.969 275.298,450.942 274.855,448.891 270.492 C 446.357 265.100,440.383 259.984,433.707 257.488 C 429.418 255.884,428.155 255.829,421.707 256.970 C 417.743 257.671,412.796 258.920,410.714 259.745 C 407.257 261.116,406.764 261.096,405.021 259.519 C 403.972 258.570,402.812 256.377,402.443 254.646 C 400.204 244.131,392.083 233.578,382.537 228.778 C 379.216 227.108,374.925 224.516,373.000 223.018 C 369.857 220.572,361.724 217.272,353.500 215.107 C 351.850 214.673,348.942 213.458,347.038 212.409 C 345.134 211.359,339.059 208.113,333.538 205.195 L 323.500 199.890 311.750 199.597 C 305.288 199.436,300.000 199.564,300.000 199.880 C 300.000 200.197,301.688 202.069,303.750 204.040 C 311.981 211.907,322.000 222.719,322.000 223.734 C 322.000 224.325,319.413 226.269,316.250 228.054 C 311.736 230.602,309.467 231.263,305.693 231.129 C 303.049 231.036,298.774 231.689,296.193 232.582 C 291.017 234.372,280.445 235.149,257.000 235.466 C 232.316 235.799,217.085 237.050,212.167 239.150 C 206.766 241.456,193.648 241.630,186.591 239.489 C 179.830 237.438,172.016 237.625,165.260 240.000 C 157.368 242.774,154.712 242.564,150.464 238.834 C 146.749 235.572,140.000 223.520,140.000 220.147 C 140.000 219.101,140.675 217.685,141.500 217.000 C 144.257 214.712,143.209 209.851,138.080 201.136 C 130.687 188.575,126.090 184.691,121.595 187.207 M127.417 223.250 C 128.222 224.488,129.190 227.863,129.569 230.750 C 130.239 235.855,130.189 236.000,127.782 236.000 C 124.792 236.000,120.199 233.805,113.500 229.175 C 110.750 227.274,108.275 225.519,108.000 225.274 C 107.725 225.028,108.562 223.967,109.861 222.914 C 111.674 221.444,113.813 221.000,119.088 221.000 C 125.108 221.000,126.134 221.277,127.417 223.250 M263.561 260.662 C 266.260 261.697,264.611 264.454,260.425 265.905 C 253.539 268.292,248.555 265.569,251.101 260.812 C 252.057 259.024,252.810 258.850,257.109 259.420 C 259.813 259.779,262.716 260.338,263.561 260.662 " style="stroke: none; fill: black;">
                    </path></svg>