<svg id="svg-path" width="100%" height="100%" viewBox="0 0 512 512" version="1.1" xmlns="http://www.w3.org/2000/svg" style="fill-rule:evenodd;clip-rule:evenodd;stroke-linejoin:round;stroke-miterlimit:2;">
                        <path d="M209.750 69.102 C 205.855 70.610,206.207 73.821,210.750 78.247 C 214.688 82.083,223.313 86.405,229.254 87.520 C 231.184 87.882,234.145 89.018,235.834 90.045 C 241.760 93.649,242.974 98.298,245.028 125.264 L 246.077 139.028 243.038 143.444 C 239.267 148.926,239.155 152.841,242.552 160.522 C 246.347 169.103,245.837 170.501,237.000 175.749 C 232.875 178.198,227.250 181.578,224.500 183.260 C 221.750 184.941,215.450 188.791,210.500 191.816 C 205.550 194.840,196.550 200.539,190.500 204.480 C 171.737 216.702,170.536 217.289,165.735 216.594 C 153.380 214.804,149.602 214.921,145.024 217.236 C 139.219 220.172,136.300 224.927,137.939 228.779 C 139.714 232.954,143.494 235.110,151.107 236.288 C 158.906 237.495,163.773 236.637,174.399 232.180 C 177.755 230.772,183.425 229.316,187.000 228.944 C 190.575 228.572,197.100 226.839,201.500 225.093 C 205.900 223.347,212.200 220.973,215.500 219.817 C 221.988 217.544,235.655 211.055,239.233 208.550 C 243.485 205.571,247.000 207.574,247.000 212.974 C 247.000 214.132,247.944 216.931,249.099 219.193 C 251.051 223.020,251.114 223.838,250.003 230.904 C 249.346 235.082,248.593 240.116,248.329 242.092 C 248.066 244.068,248.786 249.625,249.930 254.442 C 251.805 262.336,251.895 264.063,250.842 271.969 C 249.743 280.228,249.796 280.934,251.763 284.119 C 254.789 289.017,255.780 298.878,254.789 314.212 C 253.997 326.464,253.661 328.046,250.477 334.500 C 246.496 342.571,243.060 352.428,243.025 355.885 C 243.011 357.197,244.204 364.252,245.676 371.563 L 248.353 384.855 245.546 394.177 C 243.890 399.679,242.410 407.599,241.936 413.500 C 240.838 427.153,239.914 429.664,232.271 439.744 C 224.789 449.613,225.201 449.277,215.000 453.816 C 205.491 458.048,202.000 461.248,202.000 465.733 C 202.000 470.625,205.417 473.596,212.088 474.505 C 215.065 474.911,219.654 476.088,222.287 477.121 C 229.592 479.988,236.861 479.345,252.500 474.449 C 255.250 473.588,261.533 472.454,266.463 471.928 C 276.948 470.810,283.666 468.004,285.145 464.126 C 286.398 460.841,285.401 453.798,282.906 448.305 C 280.462 442.926,280.491 437.398,283.000 430.260 C 284.100 427.130,285.000 422.074,285.000 419.025 C 285.000 415.793,286.452 408.182,288.483 400.774 C 290.398 393.786,292.240 386.140,292.575 383.784 C 292.910 381.428,294.469 374.775,296.040 369.000 C 297.610 363.225,299.413 355.575,300.045 352.000 C 303.197 334.197,305.156 328.751,311.589 319.916 C 315.528 314.506,320.901 299.185,322.082 290.000 C 322.926 283.433,321.985 277.263,318.418 265.974 C 317.632 263.485,316.811 258.085,316.595 253.974 C 316.189 246.251,315.674 243.330,313.517 236.500 C 312.541 233.408,312.428 225.461,313.021 201.502 C 313.762 171.543,313.719 170.369,311.761 166.502 C 310.646 164.301,308.444 160.860,306.867 158.856 C 303.365 154.405,303.280 152.100,306.436 147.102 C 310.173 141.182,311.822 136.606,313.558 127.342 C 315.366 117.694,314.884 112.732,311.487 106.000 C 307.683 98.461,300.961 94.214,287.863 91.072 C 277.090 88.487,274.926 88.487,269.864 91.070 C 262.940 94.602,260.660 94.076,253.682 87.338 C 245.912 79.835,237.221 73.429,231.174 70.748 C 225.812 68.371,213.985 67.462,209.750 69.102 " style="stroke: none; fill: black;">
                    </path></svg>