<svg id="svg-path" width="100%" height="100%" viewBox="0 0 512 512" version="1.1" xmlns="http://www.w3.org/2000/svg" style="fill-rule:evenodd;clip-rule:evenodd;stroke-linejoin:round;stroke-miterlimit:2;">
                        <path d="M288.000 39.684 C 279.678 41.053,265.797 44.160,261.976 45.509 C 256.814 47.330,242.348 54.997,236.500 59.011 C 222.705 68.480,209.560 84.763,201.960 101.795 C 195.494 116.286,193.675 125.186,193.741 142.000 C 193.803 157.823,195.331 166.082,200.512 178.597 C 210.502 202.731,228.420 221.282,252.613 232.539 C 267.773 239.593,277.947 241.333,300.436 240.718 C 321.316 240.148,328.250 238.693,342.482 231.896 C 371.096 218.231,393.172 190.718,399.077 161.364 C 401.257 150.530,401.690 130.025,399.903 122.264 C 396.539 107.652,395.322 103.776,391.812 96.500 C 384.710 81.779,372.204 67.320,357.970 57.377 C 351.255 52.687,335.729 45.166,329.239 43.461 C 315.959 39.971,296.876 38.223,288.000 39.684 M256.500 254.474 C 247.442 256.458,232.640 262.734,228.425 266.379 C 226.366 268.159,222.165 273.414,219.090 278.057 C 214.130 285.549,212.449 287.197,204.167 292.691 C 199.034 296.096,192.641 300.933,189.960 303.441 C 187.279 305.948,184.610 308.000,184.028 308.000 C 183.446 308.000,182.079 309.462,180.989 311.250 C 177.515 316.947,178.671 327.455,183.489 333.986 C 188.012 340.116,186.719 342.591,177.000 346.413 C 174.525 347.386,169.588 350.279,166.030 352.841 C 155.565 360.376,154.454 360.881,146.018 361.938 C 136.571 363.123,123.716 368.277,117.081 373.540 C 114.386 375.678,109.899 377.848,105.581 379.104 C 101.686 380.236,97.375 381.539,96.000 382.000 C 94.625 382.460,90.299 383.096,86.386 383.413 C 69.327 384.794,63.181 391.807,69.531 402.644 C 74.011 410.288,79.951 411.245,86.500 405.378 C 93.831 398.810,97.354 397.833,116.431 397.085 C 125.831 396.716,134.110 396.050,134.830 395.605 C 135.549 395.160,141.395 394.453,147.819 394.034 C 157.768 393.384,160.464 392.822,166.000 390.243 C 183.040 382.304,184.988 381.588,186.214 382.814 C 186.870 383.470,187.653 388.014,187.954 392.912 C 188.448 400.968,188.795 402.183,191.598 405.659 C 193.650 408.202,198.044 411.260,204.598 414.709 C 213.958 419.632,214.911 419.918,222.000 419.937 C 232.792 419.965,236.227 418.062,250.070 404.390 L 261.745 392.858 269.429 393.927 C 273.656 394.515,278.183 395.559,279.490 396.248 C 283.147 398.175,294.571 407.634,303.994 416.537 C 308.672 420.957,316.100 427.479,320.500 431.029 C 324.900 434.579,330.671 439.548,333.325 442.071 C 336.226 444.829,340.215 447.387,343.325 448.483 C 353.973 452.235,360.440 456.237,367.949 463.722 C 380.067 475.800,385.981 477.685,392.213 471.454 C 397.737 465.930,398.177 458.805,393.393 452.357 C 391.592 449.930,389.401 448.712,383.780 447.016 C 379.776 445.807,375.066 443.940,373.313 442.867 C 369.912 440.783,364.957 434.406,360.051 425.795 C 358.391 422.883,354.762 417.575,351.986 414.000 C 331.322 387.391,331.351 387.445,330.410 372.894 C 329.605 360.441,330.282 358.540,336.084 356.977 C 339.555 356.043,340.743 356.181,344.383 357.943 C 346.720 359.075,349.526 360.000,350.620 360.000 C 354.222 360.000,359.064 353.739,361.077 346.477 C 363.344 338.301,362.880 337.106,354.184 328.733 C 350.437 325.126,345.930 319.135,342.146 312.733 C 334.118 299.151,331.166 292.227,330.053 284.367 C 329.545 280.781,328.363 276.643,327.428 275.173 C 323.196 268.526,312.572 262.383,295.993 256.998 C 284.662 253.317,282.846 253.006,273.093 253.079 C 267.267 253.123,259.800 253.751,256.500 254.474 " style="stroke: none; fill: black;">
                    </path></svg>