<svg id="svg-path" width="100%" height="100%" viewBox="0 0 512 512" version="1.1" xmlns="http://www.w3.org/2000/svg" style="fill-rule:evenodd;clip-rule:evenodd;stroke-linejoin:round;stroke-miterlimit:2;">
                        <path d="M177.557 68.047 C 172.676 70.482,169.653 73.250,165.808 78.804 C 161.845 84.531,160.793 87.968,160.090 97.500 L 159.500 105.500 153.500 106.078 C 147.077 106.696,144.442 107.731,141.838 110.657 C 139.727 113.030,135.473 120.778,134.512 124.000 C 132.730 129.975,124.501 150.048,121.393 156.000 C 119.526 159.575,116.154 164.931,113.900 167.902 C 110.180 172.804,109.786 173.887,109.640 179.618 C 109.500 185.108,108.806 187.228,104.325 195.846 C 95.601 212.626,94.943 225.244,102.013 240.189 C 103.655 243.660,104.999 247.283,104.999 248.239 C 105.000 249.196,105.900 252.346,106.999 255.239 C 108.099 258.133,108.999 261.265,108.999 262.199 C 109.000 263.709,103.303 269.000,101.678 269.000 C 99.502 269.000,85.409 276.640,79.704 280.911 C 75.967 283.710,72.117 286.000,71.149 286.000 C 70.181 286.000,67.864 284.875,66.000 283.500 C 59.651 278.816,57.486 280.273,48.753 295.113 C 40.523 309.097,38.000 315.305,38.000 321.568 C 38.000 325.930,38.400 327.166,40.223 328.443 C 44.148 331.193,46.776 330.349,52.815 324.400 C 55.942 321.320,59.683 318.186,61.129 317.437 C 64.591 315.642,65.185 313.789,63.998 308.489 C 62.980 303.950,63.999 299.000,65.951 299.000 C 66.501 299.000,68.385 300.575,70.136 302.500 C 73.479 306.173,75.370 306.636,80.429 305.018 C 82.118 304.478,90.250 302.425,98.500 300.458 C 119.795 295.378,126.977 293.178,131.190 290.445 C 135.610 287.577,141.836 277.544,147.500 264.162 C 149.700 258.964,152.261 254.233,153.191 253.648 C 154.426 252.872,156.723 253.032,161.691 254.240 C 165.436 255.151,170.126 256.154,172.113 256.468 C 176.559 257.171,178.184 258.904,181.553 266.534 C 186.916 278.681,188.271 281.613,190.782 286.500 C 198.425 301.372,198.214 300.665,198.384 312.026 C 198.494 319.350,198.973 323.263,199.895 324.374 C 203.353 328.540,230.533 323.804,241.454 317.132 C 249.011 312.517,250.988 307.511,246.961 303.189 C 245.388 301.501,243.730 300.985,239.711 300.935 C 236.845 300.899,230.944 300.337,226.599 299.685 C 215.156 297.969,214.735 297.236,213.984 277.723 C 213.663 269.351,212.916 261.600,212.325 260.500 C 211.734 259.400,210.956 255.800,210.595 252.500 C 210.235 249.200,209.229 243.460,208.361 239.745 C 206.974 233.813,206.203 232.472,202.033 228.745 C 199.421 226.410,194.858 223.238,191.892 221.696 C 171.392 211.033,167.572 208.557,168.381 206.449 C 168.630 205.801,171.088 202.173,173.843 198.386 C 176.599 194.598,179.816 189.025,180.993 186.000 C 182.170 182.975,183.693 179.926,184.379 179.223 C 185.174 178.408,189.939 177.723,197.562 177.328 C 208.872 176.743,212.623 175.942,224.921 171.492 C 228.301 170.269,231.156 170.051,237.055 170.565 L 244.770 171.238 248.635 167.695 C 252.089 164.529,252.490 163.666,252.404 159.575 C 252.299 154.584,250.474 151.814,245.645 149.316 C 242.023 147.444,239.410 148.113,232.233 152.752 C 227.194 156.010,225.774 156.451,220.500 156.400 C 217.200 156.368,210.722 155.750,206.105 155.026 C 196.568 153.531,194.000 151.770,194.000 146.723 C 194.000 143.968,194.676 143.009,198.250 140.690 C 206.095 135.600,208.649 135.364,216.372 139.013 C 221.450 141.412,223.941 142.062,226.276 141.595 C 231.626 140.525,234.000 138.351,234.000 134.524 C 234.000 126.877,230.635 124.179,215.804 119.928 C 211.571 118.715,207.895 117.170,207.636 116.493 C 207.376 115.817,208.702 113.100,210.582 110.456 C 213.685 106.091,214.000 105.007,214.000 98.684 C 214.000 89.546,211.568 84.721,202.785 76.436 C 191.767 66.042,185.651 64.009,177.557 68.047 M374.866 95.511 C 370.518 97.873,370.393 102.985,374.452 112.367 C 376.660 117.472,375.938 118.992,371.281 119.035 C 362.484 119.117,349.812 123.247,344.424 127.789 C 339.739 131.738,338.749 134.521,339.465 141.732 C 340.090 148.026,339.922 148.902,337.068 154.231 C 334.639 158.769,334.000 161.190,334.000 165.859 C 334.000 174.749,331.078 175.936,324.756 169.613 C 323.917 168.775,321.271 167.067,318.875 165.818 C 316.479 164.569,308.382 157.462,300.881 150.024 C 282.420 131.718,274.111 123.886,270.289 121.186 C 264.654 117.207,256.450 115.000,247.298 115.000 C 239.668 115.000,238.681 115.228,236.392 117.517 C 234.568 119.342,234.054 120.647,234.525 122.267 C 235.695 126.293,238.342 127.505,249.023 128.905 C 266.016 131.131,266.643 131.630,272.633 147.699 C 279.709 166.681,283.230 173.232,288.954 178.058 C 291.844 180.495,295.123 184.281,296.241 186.472 C 299.563 192.984,305.277 200.088,312.791 207.049 C 316.679 210.650,320.147 214.736,320.496 216.128 C 320.934 217.872,319.983 221.433,317.439 227.579 C 314.517 234.639,313.585 238.480,312.971 245.999 C 312.035 257.465,311.670 258.480,307.928 260.030 C 304.518 261.442,304.273 263.040,306.891 266.790 C 308.396 268.946,309.026 272.770,309.975 285.500 C 311.237 302.411,311.907 308.818,313.973 323.703 C 314.675 328.765,314.979 333.614,314.647 334.477 C 313.411 337.699,309.961 337.771,301.081 334.760 C 293.746 332.274,291.362 331.912,284.662 332.266 C 277.369 332.651,276.534 332.483,272.662 329.858 C 265.995 325.338,261.757 325.855,254.457 332.077 C 248.172 337.434,242.172 341.000,239.444 341.000 C 236.954 341.000,232.070 344.203,231.416 346.265 C 230.590 348.868,233.438 352.719,236.716 353.431 C 238.247 353.763,243.550 353.554,248.500 352.965 C 272.049 350.163,272.579 350.263,276.629 358.256 C 279.901 364.712,284.059 367.250,290.071 366.461 C 293.858 365.964,296.088 366.459,303.071 369.344 C 321.947 377.141,333.108 379.177,339.098 375.915 C 342.803 373.898,347.936 367.684,349.100 363.807 C 350.876 357.893,352.965 343.648,352.983 337.332 C 353.003 330.170,353.635 328.000,355.702 328.000 C 356.521 328.000,361.123 330.407,365.929 333.349 C 370.735 336.291,377.903 339.934,381.856 341.445 C 387.167 343.475,389.757 345.126,391.772 347.768 L 394.500 351.343 394.687 374.922 C 394.790 387.890,395.341 400.525,395.912 403.000 C 396.484 405.475,396.962 411.160,396.976 415.634 L 397.000 423.767 400.865 427.134 C 408.567 433.841,420.078 442.512,424.227 444.731 C 427.179 446.310,430.162 447.000,434.035 447.000 C 443.966 447.000,444.586 443.176,436.057 434.527 C 429.571 427.950,423.000 417.862,423.000 414.483 C 423.000 411.546,426.528 408.624,432.672 406.472 C 439.874 403.950,440.786 401.912,438.579 393.276 C 437.627 389.549,436.260 384.925,435.541 383.000 C 433.547 377.661,432.162 368.644,431.473 356.500 C 430.747 343.729,428.688 333.623,425.330 326.353 C 423.039 321.394,420.597 318.987,407.500 308.779 C 400.940 303.667,389.762 291.864,385.750 285.815 C 381.643 279.622,381.237 277.070,383.500 271.654 C 384.518 269.218,385.000 264.606,385.000 257.303 C 385.000 245.998,386.359 240.582,392.542 227.253 C 393.880 224.367,395.275 220.132,395.641 217.843 C 396.044 215.325,398.016 211.274,400.632 207.590 C 403.011 204.240,406.551 198.455,408.500 194.733 C 410.448 191.012,413.730 185.162,415.794 181.733 C 423.534 168.873,427.969 157.687,427.989 150.972 C 428.003 146.577,422.244 134.355,417.340 128.370 C 415.328 125.914,411.761 123.030,409.415 121.961 C 405.733 120.284,398.000 112.602,398.000 110.622 C 398.000 108.569,389.348 96.714,386.941 95.469 C 383.380 93.628,378.299 93.646,374.866 95.511 " style="stroke: none; fill: black;">
                    </path></svg>