<svg id="svg-path" width="100%" height="100%" viewBox="0 0 512 512" version="1.1" xmlns="http://www.w3.org/2000/svg" style="fill-rule:evenodd;clip-rule:evenodd;stroke-linejoin:round;stroke-miterlimit:2;">
                        <path d="M199.037 129.930 C 198.469 130.992,196.997 132.004,195.766 132.180 C 194.075 132.422,193.385 133.357,192.949 136.000 C 192.631 137.925,191.806 140.541,191.117 141.812 C 190.053 143.774,190.176 144.725,191.929 148.089 C 193.066 150.269,195.797 154.332,197.998 157.117 C 201.639 161.723,202.000 162.709,202.000 168.059 C 202.000 172.136,201.339 175.208,199.842 178.078 C 198.400 180.844,197.411 185.250,196.858 191.359 C 195.189 209.832,193.764 215.070,188.632 221.590 C 182.621 229.225,177.555 234.365,174.346 236.082 C 171.977 237.350,171.607 237.245,169.393 234.670 C 168.077 233.140,167.000 231.118,167.000 230.176 C 167.000 227.467,162.238 221.174,158.869 219.432 C 153.827 216.825,146.935 215.025,139.467 214.365 C 132.205 213.723,128.934 214.655,117.075 220.742 C 112.991 222.838,107.471 230.544,105.904 236.337 C 104.739 240.641,106.118 255.591,107.991 258.958 C 108.462 259.806,112.301 263.908,116.520 268.074 C 123.275 274.742,124.299 276.237,125.088 280.574 C 125.998 285.581,126.608 286.326,136.179 294.119 C 139.310 296.668,139.363 296.844,138.198 300.735 C 137.539 302.933,137.000 308.306,137.000 312.675 C 137.000 322.646,135.864 324.564,130.477 323.690 C 125.881 322.944,119.629 318.166,119.167 315.046 C 118.667 311.668,119.727 308.478,122.406 305.294 C 125.920 301.117,126.018 298.833,122.750 297.235 C 121.238 296.496,120.000 295.105,120.000 294.145 C 120.000 291.877,118.080 290.000,115.760 290.000 C 114.747 290.000,112.611 289.033,111.012 287.851 C 108.309 285.853,107.936 285.812,105.709 287.271 C 103.325 288.833,103.313 288.929,103.435 306.171 C 103.570 325.233,103.960 326.791,110.111 332.804 C 112.783 335.417,113.489 337.038,114.059 341.866 C 114.663 346.995,115.247 348.204,118.626 351.333 C 123.622 355.959,136.075 362.000,140.616 362.000 C 148.373 362.000,158.333 354.704,164.506 344.500 C 175.609 326.145,178.598 324.293,188.678 329.523 C 191.623 331.051,196.490 332.404,201.020 332.954 C 205.134 333.454,212.299 334.563,216.942 335.419 C 226.495 337.179,230.869 336.520,236.914 332.412 C 241.271 329.452,246.007 329.315,256.177 331.857 C 261.339 333.147,265.107 334.858,268.519 337.463 C 273.769 341.470,272.903 341.369,285.097 339.398 C 289.439 338.696,295.958 340.760,304.515 345.545 C 307.912 347.445,311.185 349.000,311.787 349.000 C 312.389 349.000,316.793 350.841,321.573 353.091 C 332.890 358.418,336.584 359.679,343.336 360.523 C 351.360 361.525,356.234 358.924,363.627 349.693 C 366.796 345.737,369.864 342.050,370.444 341.500 C 371.025 340.950,375.546 335.775,380.492 330.000 C 385.437 324.225,390.387 318.695,391.492 317.712 C 398.940 311.078,399.000 310.984,399.000 305.938 C 399.000 298.916,401.128 297.724,412.685 298.275 C 417.533 298.506,423.464 299.227,425.865 299.878 C 433.725 302.009,436.593 299.028,433.147 292.307 C 430.209 286.578,426.992 284.124,418.350 281.019 C 414.033 279.468,407.204 276.809,403.177 275.111 C 396.209 272.175,395.707 272.100,392.841 273.582 C 390.804 274.636,389.056 276.885,387.446 280.526 C 386.136 283.488,383.861 286.700,382.390 287.664 C 380.919 288.628,372.917 296.342,364.608 304.808 C 356.299 313.273,348.302 320.821,346.837 321.580 C 344.493 322.796,343.938 322.754,342.208 321.231 C 338.543 318.005,328.898 305.861,324.283 298.663 C 315.235 284.550,314.801 280.781,321.040 270.500 C 334.434 248.429,361.458 216.419,378.228 202.758 C 381.827 199.826,382.967 198.156,383.493 195.043 C 384.657 188.151,390.828 183.363,409.133 175.149 C 419.228 170.620,421.481 165.808,416.250 159.954 C 410.581 153.610,402.064 155.148,391.116 164.493 C 388.213 166.972,385.481 169.000,385.046 169.000 C 384.611 169.000,381.522 171.138,378.182 173.750 C 374.841 176.363,369.497 179.974,366.304 181.777 C 359.331 185.713,343.087 199.187,327.000 214.378 C 314.692 226.001,309.021 230.602,298.070 237.847 C 294.457 240.238,288.500 244.416,284.833 247.130 C 280.496 250.341,276.155 252.590,272.411 253.565 C 269.246 254.390,264.037 256.813,260.836 258.951 C 250.858 265.614,246.810 265.491,241.914 258.375 C 238.497 253.409,235.839 252.000,229.885 252.000 C 224.736 252.000,220.193 249.616,219.412 246.505 C 219.073 245.153,219.034 242.124,219.326 239.773 C 221.427 222.877,222.902 207.625,223.518 196.429 C 224.211 183.826,224.147 183.163,221.733 177.929 C 213.978 161.115,212.788 152.144,217.065 142.756 C 218.653 139.272,217.727 137.216,214.392 136.822 C 212.288 136.574,211.399 135.701,210.495 133.000 C 209.612 130.361,208.607 129.345,206.412 128.868 C 201.347 127.770,200.097 127.950,199.037 129.930 M68.485 238.048 C 68.127 239.174,68.337 240.701,68.951 241.440 C 70.669 243.511,75.472 245.189,78.643 244.827 C 80.934 244.565,81.564 243.943,81.822 241.690 C 82.313 237.407,80.489 236.000,74.445 236.000 C 69.972 236.000,69.032 236.323,68.485 238.048 M67.200 256.200 C 65.657 257.743,65.657 261.257,67.200 262.800 C 68.757 264.357,78.243 264.357,79.800 262.800 C 81.461 261.139,81.300 258.443,79.429 256.571 C 77.543 254.686,68.974 254.426,67.200 256.200 M58.028 271.113 C 50.841 273.982,53.824 281.006,61.609 279.545 C 67.296 278.479,71.415 272.141,67.418 270.607 C 65.153 269.738,60.901 269.967,58.028 271.113 " style="stroke: none; fill: black;">
                    </path></svg>