<svg id="svg-path" width="100%" height="100%" viewBox="0 0 512 512" version="1.1" xmlns="http://www.w3.org/2000/svg" style="fill-rule:evenodd;clip-rule:evenodd;stroke-linejoin:round;stroke-miterlimit:2;">
                        <path d="M395.000 92.743 C 394.175 93.065,389.102 97.192,383.726 101.914 C 378.350 106.636,370.250 113.594,365.726 117.376 C 355.878 125.609,345.073 135.750,339.259 142.218 C 336.927 144.812,332.427 148.244,329.259 149.843 C 326.092 151.442,320.473 154.719,316.773 157.125 C 313.074 159.531,303.849 165.277,296.273 169.894 C 278.102 180.967,272.903 184.453,267.608 189.114 C 265.180 191.251,262.658 193.000,262.004 193.000 C 260.862 193.000,251.878 185.087,234.616 168.878 C 230.152 164.686,225.517 160.749,224.316 160.128 C 220.988 158.409,215.838 158.789,212.500 161.000 C 208.260 163.808,205.874 163.452,203.000 159.581 C 190.072 142.168,160.446 106.282,156.314 103.033 C 152.960 100.394,147.562 100.423,142.485 103.107 C 129.249 110.104,107.795 127.627,104.381 134.230 C 101.345 140.100,104.006 145.114,121.000 165.554 C 124.575 169.854,132.994 179.990,139.710 188.080 C 146.425 196.169,153.625 203.848,155.710 205.144 C 159.723 207.639,165.904 208.141,173.167 206.562 L 176.833 205.765 191.667 219.959 C 199.825 227.766,206.934 235.080,207.464 236.214 C 208.280 237.959,207.723 238.903,203.820 242.387 C 201.286 244.649,195.473 251.000,190.903 256.500 C 186.332 262.000,181.393 267.850,179.927 269.500 C 178.460 271.150,175.289 274.793,172.880 277.595 C 170.471 280.397,164.940 286.819,160.588 291.867 C 155.980 297.211,151.700 301.243,150.338 301.522 C 149.052 301.785,146.763 302.249,145.250 302.554 C 137.780 304.060,83.936 338.989,76.019 347.465 C 72.918 350.785,72.863 355.852,75.866 361.737 C 77.153 364.260,78.000 367.795,78.000 370.644 C 78.000 373.361,78.870 377.166,80.047 379.597 C 82.949 385.593,89.600 392.807,93.866 394.586 C 95.865 395.419,98.850 397.375,100.500 398.931 C 108.802 406.760,111.285 406.198,134.500 391.224 C 172.389 366.787,183.000 358.236,183.000 352.144 C 183.000 350.549,182.325 347.629,181.500 345.654 C 179.694 341.332,179.584 339.000,181.185 339.000 C 181.837 339.000,185.413 340.575,189.133 342.500 C 201.422 348.859,200.939 349.173,229.209 316.429 C 240.666 303.159,248.976 292.967,251.776 288.750 C 253.253 286.525,255.068 285.000,256.239 285.000 C 258.873 285.000,264.282 289.309,277.534 301.963 C 283.603 307.759,291.810 315.200,295.773 318.500 C 300.560 322.487,304.304 326.708,306.933 331.080 C 309.776 335.808,317.388 344.107,333.978 360.565 C 346.677 373.163,358.919 384.714,361.184 386.235 C 366.731 389.960,371.452 389.904,376.773 386.049 C 384.401 380.524,400.855 363.901,405.665 356.861 C 410.927 349.160,411.729 344.568,408.636 339.848 C 406.039 335.885,358.996 290.723,353.701 287.111 C 350.157 284.693,348.299 282.473,346.594 278.617 C 344.264 273.347,343.826 272.904,324.224 255.936 C 319.672 251.996,315.531 247.993,315.022 247.041 C 313.550 244.290,315.975 241.851,329.260 232.720 C 346.467 220.893,354.577 214.693,361.500 208.073 C 364.800 204.918,372.225 198.632,378.000 194.103 C 394.066 181.506,428.808 150.539,435.767 142.612 C 439.952 137.847,440.131 132.923,436.323 127.390 C 434.851 125.250,431.984 121.025,429.952 118.000 C 425.740 111.730,407.589 94.555,403.553 93.020 C 400.653 91.918,397.387 91.812,395.000 92.743 " style="stroke: none; fill: black;">
                    </path></svg>