<svg id="svg-path" width="100%" height="100%" viewBox="0 0 512 512" version="1.1" xmlns="http://www.w3.org/2000/svg" style="fill-rule:evenodd;clip-rule:evenodd;stroke-linejoin:round;stroke-miterlimit:2;">
                        <path d="M285.750 79.080 C 284.299 79.925,283.996 81.585,283.976 88.800 C 283.963 93.585,283.516 99.300,282.983 101.500 C 282.450 103.700,281.757 111.125,281.444 118.000 C 281.130 124.875,280.266 133.425,279.524 137.000 C 275.136 158.125,272.496 178.967,271.542 200.000 C 271.280 205.775,270.547 216.238,269.912 223.252 C 269.001 233.321,269.020 236.319,270.002 237.502 C 271.544 239.360,273.408 239.419,274.871 237.656 C 276.238 236.009,277.747 221.379,279.014 197.500 C 279.540 187.600,280.649 175.900,281.480 171.500 C 282.311 167.100,283.458 159.242,284.029 154.038 C 284.600 148.833,285.801 142.083,286.698 139.038 C 287.594 135.992,288.436 129.675,288.569 125.000 C 288.701 120.325,289.288 113.125,289.874 109.000 C 290.459 104.875,290.952 96.486,290.969 90.357 C 290.995 81.100,290.732 79.111,289.418 78.607 C 287.527 77.881,287.888 77.835,285.750 79.080 M325.188 101.300 C 323.999 102.566,321.822 106.862,320.351 110.848 C 318.516 115.816,316.778 118.734,314.822 120.126 C 311.113 122.767,309.002 126.961,308.994 131.700 C 308.990 133.790,308.228 136.850,307.300 138.500 C 306.067 140.693,305.649 143.645,305.749 149.472 C 305.840 154.847,305.225 159.732,303.861 164.472 C 300.019 177.812,298.195 185.520,297.464 191.500 C 296.837 196.619,295.350 200.683,291.045 209.033 C 290.610 209.876,289.938 212.006,289.551 213.767 C 289.164 215.528,285.998 222.612,282.514 229.510 C 278.589 237.283,275.921 243.942,275.497 247.024 C 274.787 252.183,274.093 253.349,272.424 252.184 C 271.457 251.509,264.092 241.708,256.505 231.000 C 254.362 227.975,251.234 223.823,249.554 221.772 C 247.874 219.722,245.150 216.382,243.501 214.350 C 241.852 212.318,237.088 203.871,232.914 195.578 C 225.237 180.323,223.360 176.624,220.315 170.750 C 219.389 168.963,217.532 165.280,216.189 162.566 C 214.845 159.853,212.504 155.918,210.985 153.821 C 209.467 151.725,207.912 148.320,207.531 146.255 C 206.695 141.727,203.748 138.323,199.939 137.487 C 198.182 137.101,195.003 134.448,191.451 130.402 C 188.328 126.844,184.452 123.251,182.837 122.416 C 180.122 121.012,179.650 121.053,176.557 122.965 C 172.925 125.209,170.000 130.296,170.000 134.366 C 170.000 137.097,170.964 138.143,180.738 146.024 C 187.832 151.743,190.000 155.208,190.000 160.823 C 190.000 162.981,190.903 166.787,192.006 169.281 C 193.110 171.776,195.091 177.346,196.409 181.658 C 202.900 202.894,205.713 210.113,214.874 229.052 C 221.678 243.115,228.943 261.175,232.820 273.658 C 233.872 277.045,235.638 281.095,236.745 282.658 C 237.851 284.221,239.082 287.449,239.480 289.832 C 239.878 292.214,240.830 295.364,241.596 296.832 C 244.236 301.892,243.464 304.376,238.500 306.788 L 234.000 308.974 234.000 314.865 C 234.000 320.782,232.351 323.953,230.021 322.513 C 229.435 322.151,227.622 319.213,225.993 315.986 C 223.922 311.883,221.672 309.182,218.515 307.010 C 216.032 305.302,213.999 303.588,213.998 303.202 C 213.998 302.816,211.410 299.765,208.248 296.423 C 205.087 293.081,201.261 287.906,199.747 284.923 C 194.207 274.012,186.280 267.000,179.484 267.000 C 175.497 267.000,173.756 271.926,175.712 277.669 C 176.524 280.050,177.595 282.250,178.094 282.558 C 179.295 283.301,179.258 287.722,178.044 288.473 C 176.252 289.580,178.243 292.094,183.653 295.554 C 189.228 299.121,191.482 302.697,190.708 306.746 C 190.471 307.984,190.876 309.786,191.607 310.749 C 192.338 311.712,192.951 314.202,192.968 316.282 C 192.986 318.361,193.877 322.636,194.950 325.782 C 200.081 340.828,202.124 346.128,203.975 349.184 C 205.079 351.008,206.302 353.175,206.693 354.000 C 210.488 362.022,220.896 376.556,226.245 381.303 C 239.776 393.311,246.272 397.177,255.000 398.418 C 261.238 399.305,262.145 400.108,262.724 405.246 C 263.182 409.303,262.894 410.116,259.760 413.619 C 253.880 420.193,253.593 421.275,255.939 428.052 C 257.073 431.328,258.000 435.339,258.000 436.966 C 258.000 441.455,261.908 450.953,265.281 454.659 C 273.968 464.205,289.812 464.450,299.761 455.191 C 304.668 450.625,306.471 447.177,307.990 439.457 C 309.105 433.790,309.023 433.110,306.587 427.784 C 305.164 424.673,304.000 420.727,304.000 419.014 C 304.000 414.235,301.613 410.655,297.096 408.662 C 289.349 405.245,292.802 401.121,304.753 399.517 C 309.264 398.911,310.904 398.012,316.358 393.156 C 319.851 390.045,324.065 386.355,325.722 384.956 C 329.597 381.685,331.378 378.153,333.516 369.500 C 334.467 365.650,335.577 362.050,335.983 361.500 C 336.389 360.950,338.164 356.079,339.927 350.676 C 342.204 343.696,343.222 338.500,343.443 332.734 C 343.711 325.728,344.062 324.368,346.009 322.791 C 348.547 320.736,350.272 314.267,350.410 306.285 C 350.495 301.383,350.815 300.751,355.750 295.754 C 358.637 292.830,361.000 289.944,361.000 289.341 C 361.000 288.737,359.991 287.574,358.757 286.755 C 356.636 285.346,356.582 285.013,357.757 280.618 C 359.455 274.272,359.287 270.931,357.129 268.125 C 354.633 264.879,350.915 265.107,346.264 268.791 C 342.986 271.387,341.947 273.268,339.151 281.666 C 334.288 296.270,333.678 297.260,326.168 302.739 C 316.366 309.891,316.195 309.678,316.564 290.775 C 316.727 282.374,317.338 271.450,317.920 266.500 C 318.503 261.550,319.896 248.500,321.017 237.500 C 323.123 216.831,323.402 214.891,326.909 196.581 C 328.059 190.575,329.000 183.822,329.000 181.574 C 329.000 179.326,329.485 175.915,330.078 173.993 C 331.507 169.363,332.063 144.524,330.845 139.680 C 329.657 134.953,331.697 128.137,336.386 121.170 C 341.468 113.617,342.391 110.714,341.025 106.574 C 338.641 99.352,329.788 96.404,325.188 101.300 " style="stroke: none; fill: black;">
                    </path></svg>