<svg id="svg-path" width="100%" height="100%" viewBox="0 0 512 512" version="1.1" xmlns="http://www.w3.org/2000/svg" style="fill-rule:evenodd;clip-rule:evenodd;stroke-linejoin:round;stroke-miterlimit:2;">
                        <path d="M303.000 22.878 C 298.023 23.984,287.736 29.415,283.387 33.233 C 281.352 35.020,278.408 39.186,276.844 42.491 C 274.405 47.647,274.001 49.725,274.001 57.124 C 274.000 62.139,274.612 67.484,275.463 69.895 C 276.993 74.231,277.235 74.796,283.971 89.738 C 286.475 95.294,288.009 100.077,287.818 101.738 C 287.518 104.342,287.042 104.590,279.500 106.074 C 269.576 108.026,267.735 108.996,256.311 118.287 C 251.258 122.398,245.610 126.696,243.761 127.839 C 241.912 128.982,238.898 132.006,237.065 134.560 C 232.190 141.347,223.773 147.048,204.045 156.921 C 194.395 161.751,184.250 167.028,181.500 168.649 C 176.446 171.628,167.498 176.000,166.455 176.000 C 164.960 176.000,148.036 183.698,144.584 185.948 C 141.412 188.016,140.226 189.733,138.337 195.000 C 137.054 198.575,136.004 202.677,136.002 204.115 C 135.999 207.782,139.228 211.474,144.166 213.450 C 147.915 214.950,149.298 214.991,156.935 213.836 C 165.420 212.551,165.550 212.488,170.853 207.020 C 173.798 203.984,177.264 199.855,178.556 197.845 C 182.493 191.719,187.127 188.172,195.500 184.872 C 199.900 183.139,206.770 180.224,210.766 178.394 C 214.763 176.565,220.163 174.349,222.766 173.471 C 225.370 172.592,230.988 169.834,235.250 167.342 C 239.513 164.849,244.784 162.570,246.964 162.278 C 250.513 161.802,251.052 162.021,252.124 164.373 C 253.971 168.428,251.602 179.345,245.478 195.000 C 242.573 202.425,239.437 210.646,238.508 213.269 C 237.381 216.453,235.483 219.112,232.797 221.269 C 224.034 228.306,221.105 231.227,215.798 238.221 C 211.059 244.466,209.691 247.346,206.171 258.500 C 203.914 265.650,201.563 273.975,200.947 277.000 C 200.330 280.025,197.789 287.000,195.299 292.500 C 192.810 298.000,189.500 305.308,187.943 308.741 C 183.994 317.450,177.284 323.881,168.500 327.373 C 158.858 331.206,148.709 337.703,140.000 345.618 C 138.075 347.368,133.350 350.731,129.500 353.093 C 121.960 357.718,119.846 358.068,108.500 356.570 C 101.025 355.583,94.698 357.145,91.290 360.818 C 88.994 363.293,88.852 364.002,89.446 370.000 C 89.801 373.575,90.458 387.525,90.906 401.000 C 91.871 429.988,92.564 433.569,97.657 435.890 C 101.366 437.580,103.194 437.263,108.258 434.052 C 114.098 430.348,116.987 424.994,117.035 417.790 C 117.091 409.432,119.345 400.997,123.515 393.540 C 128.676 384.311,131.974 380.753,138.243 377.652 C 141.134 376.222,149.350 372.167,156.500 368.642 C 163.650 365.116,172.101 360.648,175.280 358.713 C 178.459 356.778,184.759 353.972,189.280 352.478 C 202.166 348.220,204.720 346.548,217.500 333.997 C 234.496 317.306,239.636 316.288,245.266 328.500 C 252.669 344.556,251.759 343.588,261.753 346.036 C 267.832 347.526,269.603 350.630,269.123 358.956 C 268.317 372.936,268.646 389.853,269.872 397.500 C 271.440 407.278,272.403 413.710,274.099 425.736 C 275.532 435.901,275.305 437.677,270.490 453.954 C 267.962 462.501,267.811 463.844,268.909 467.954 C 271.823 478.857,275.070 479.767,314.140 480.632 L 344.780 481.311 347.390 478.701 C 349.522 476.569,350.000 475.155,350.000 470.986 C 350.000 466.212,349.666 465.527,344.862 460.447 C 338.926 454.171,332.887 451.098,321.500 448.558 C 308.667 445.695,304.317 441.953,301.424 431.286 C 299.288 423.408,299.356 372.633,301.520 360.227 C 303.283 350.114,304.031 348.637,308.959 345.526 C 311.089 344.181,313.165 342.541,313.573 341.882 C 315.587 338.624,316.932 327.137,316.956 313.000 C 316.981 298.103,316.841 297.014,313.351 285.000 C 311.354 278.125,309.521 270.217,309.278 267.426 C 308.836 262.354,308.838 262.349,314.418 257.249 C 317.488 254.443,322.553 250.898,325.672 249.372 C 328.792 247.846,333.382 244.833,335.874 242.676 C 341.560 237.755,346.062 235.824,359.598 232.499 C 377.275 228.157,380.739 225.494,382.232 215.099 C 384.443 199.700,384.314 192.865,381.636 183.653 C 378.680 173.488,374.509 165.602,366.541 155.119 C 359.250 145.526,356.847 141.283,352.978 131.168 L 349.791 122.836 353.011 115.168 C 355.921 108.239,356.159 106.922,355.484 101.500 C 354.418 92.937,354.543 88.576,356.115 79.500 C 356.877 75.100,357.486 67.675,357.469 63.000 C 357.433 53.139,356.547 50.988,348.264 40.667 C 339.303 29.501,327.497 23.225,314.105 22.508 C 309.922 22.284,304.925 22.450,303.000 22.878 " style="stroke: none; fill: black;">
                    </path></svg>