<svg id="svg-path" width="100%" height="100%" viewBox="0 0 512 512" version="1.1" xmlns="http://www.w3.org/2000/svg" style="fill-rule:evenodd;clip-rule:evenodd;stroke-linejoin:round;stroke-miterlimit:2;">
                        <path d="M293.000 32.490 C 290.525 33.766,280.175 38.712,270.000 43.481 C 233.665 60.509,231.000 62.149,231.000 67.478 C 231.000 73.191,237.776 90.997,243.638 100.685 C 246.750 105.829,249.046 110.287,248.741 110.593 C 248.435 110.898,246.006 110.380,243.343 109.442 C 238.909 107.880,238.188 107.867,234.801 109.296 C 230.265 111.208,223.687 119.446,220.321 127.430 C 217.257 134.695,215.589 148.638,216.387 160.323 L 216.989 169.145 205.076 181.087 C 195.659 190.527,191.820 193.657,186.745 196.032 C 178.017 200.116,168.515 201.959,156.000 201.996 C 148.385 202.017,143.758 202.572,139.161 204.013 C 133.911 205.658,129.993 206.000,116.361 206.000 C 103.870 206.000,99.218 206.353,97.072 207.463 C 92.606 209.772,91.852 213.524,94.666 219.426 C 96.940 224.195,100.379 225.274,107.187 223.355 C 115.025 221.146,126.062 219.003,129.602 219.001 C 131.329 219.001,134.211 220.101,136.102 221.484 C 145.153 228.100,145.173 228.108,151.153 227.449 C 157.260 226.776,158.515 227.271,166.500 233.497 C 168.700 235.213,174.818 239.254,180.096 242.478 C 189.171 248.022,190.005 248.825,195.440 257.248 C 204.058 270.602,209.221 281.162,215.364 298.000 C 218.413 306.359,218.466 306.824,218.582 326.000 C 218.646 336.725,219.230 365.050,219.880 388.944 C 221.183 436.875,221.019 439.200,215.706 448.117 C 213.163 452.384,211.272 454.151,206.584 456.641 C 199.490 460.409,197.281 463.731,199.206 467.735 C 201.172 471.822,206.578 475.000,211.566 475.000 C 215.185 475.000,216.648 474.308,221.156 470.459 C 224.082 467.962,227.606 465.687,228.988 465.403 C 242.737 462.580,242.927 462.241,242.241 441.720 C 241.842 429.801,242.151 424.382,243.838 413.720 C 245.207 405.067,246.293 391.172,246.981 373.500 C 248.649 330.647,249.239 328.000,257.120 328.000 C 264.152 328.000,270.529 336.199,281.620 359.500 C 284.238 365.000,287.615 371.527,289.125 374.004 C 290.634 376.481,293.196 382.106,294.819 386.504 C 298.241 395.779,301.216 401.287,305.080 405.500 C 306.594 407.150,310.193 413.186,313.078 418.914 C 317.212 427.119,318.458 430.724,318.957 435.914 C 319.304 439.536,320.137 443.494,320.808 444.709 C 322.524 447.820,327.642 451.359,333.500 453.487 C 336.250 454.486,340.075 456.520,342.000 458.007 C 347.581 462.318,349.493 463.000,356.000 463.000 C 362.546 463.000,365.391 462.028,366.379 459.455 C 367.382 456.841,365.360 454.364,359.140 450.585 C 349.067 444.466,341.374 433.509,334.506 415.500 C 329.890 403.395,323.632 389.128,316.304 374.000 C 312.174 365.475,306.658 352.200,304.045 344.500 C 298.619 328.506,296.260 322.474,291.428 312.233 C 289.543 308.237,288.000 304.344,288.000 303.582 C 288.000 302.821,289.588 301.261,291.529 300.115 L 295.058 298.033 294.880 271.267 C 294.706 245.014,294.654 244.394,292.197 239.000 C 290.225 234.672,289.671 231.775,289.595 225.405 C 289.540 220.718,289.977 216.719,290.634 215.905 C 292.350 213.779,301.430 196.239,304.044 190.000 C 305.312 186.975,308.208 182.250,310.479 179.500 C 317.043 171.555,318.671 168.855,320.388 163.068 C 323.332 153.147,321.848 144.912,316.481 141.396 C 313.931 139.725,313.471 139.723,307.367 141.349 L 300.938 143.062 291.219 139.950 C 276.413 135.208,275.933 134.965,269.354 128.855 C 265.974 125.715,261.474 122.262,259.354 121.180 C 257.234 120.098,254.600 118.198,253.500 116.957 L 251.500 114.701 254.500 115.561 C 259.696 117.052,264.499 116.501,270.089 113.774 C 273.065 112.322,278.425 109.916,282.000 108.427 C 301.206 100.430,318.479 91.675,322.004 88.150 C 328.279 81.875,328.472 77.276,323.095 62.265 C 319.400 51.951,310.889 36.889,305.983 31.983 C 303.372 29.372,298.689 29.555,293.000 32.490 M281.342 151.498 C 283.314 152.322,285.392 153.864,285.959 154.923 C 286.851 156.589,286.215 157.402,281.245 160.950 C 277.492 163.629,274.633 164.955,273.000 164.775 C 270.783 164.531,270.398 163.854,269.594 158.790 C 268.916 154.515,269.010 152.693,269.967 151.540 C 271.590 149.584,276.716 149.565,281.342 151.498 " style="stroke: none; fill: black;">
                    </path></svg>