<svg id="svg-path" width="100%" height="100%" viewBox="0 0 512 512" version="1.1" xmlns="http://www.w3.org/2000/svg" style="fill-rule:evenodd;clip-rule:evenodd;stroke-linejoin:round;stroke-miterlimit:2;">
                        <path d="M245.000 181.153 C 243.625 181.718,239.350 182.622,235.500 183.163 C 227.245 184.322,223.222 187.402,219.387 195.500 C 216.618 201.349,216.485 203.288,218.467 208.907 C 219.838 212.792,219.805 213.195,217.967 215.033 C 216.651 216.349,214.644 217.000,211.900 217.000 C 206.093 217.000,201.879 221.413,199.103 230.403 C 197.946 234.147,197.000 238.448,197.000 239.959 C 197.000 243.875,201.026 247.726,206.581 249.125 C 210.206 250.038,212.812 251.766,217.661 256.473 C 221.147 259.859,224.000 263.326,224.000 264.179 C 224.000 266.859,219.942 271.134,217.711 270.804 C 216.219 270.584,215.220 269.129,214.077 265.508 C 212.089 259.214,208.695 257.176,203.030 258.873 C 197.019 260.674,195.554 263.093,195.170 271.852 C 194.744 281.540,195.865 284.386,201.444 287.780 C 206.219 290.685,208.000 293.937,208.000 299.749 C 208.000 303.274,211.029 307.023,217.304 311.265 C 219.041 312.439,220.116 314.279,220.515 316.765 C 221.696 324.115,222.115 325.202,224.686 327.585 C 228.018 330.672,230.908 330.625,240.622 327.321 C 246.837 325.208,250.471 324.628,257.836 324.571 C 266.705 324.504,267.288 324.365,269.503 321.790 C 270.785 320.300,272.572 316.475,273.473 313.290 C 275.190 307.221,276.137 304.945,281.707 293.500 C 284.618 287.518,285.246 284.900,286.027 275.500 C 286.529 269.450,287.495 260.070,288.172 254.655 C 289.584 243.363,288.883 240.983,283.261 237.988 C 277.318 234.823,276.957 234.225,277.608 228.632 C 278.093 224.459,277.691 222.192,275.452 216.500 C 272.477 208.937,270.263 205.944,265.439 202.962 C 261.538 200.551,260.000 197.205,260.000 191.127 C 260.000 185.884,257.946 183.060,252.685 181.067 C 249.324 179.793,248.284 179.805,245.000 181.153 M252.800 216.200 C 255.795 219.195,252.494 225.000,247.797 225.000 C 245.237 225.000,244.415 220.542,246.413 217.493 C 248.169 214.812,250.866 214.266,252.800 216.200 M269.664 240.567 C 270.620 243.059,267.933 247.134,265.557 246.794 C 262.590 246.370,262.350 242.569,265.166 240.597 C 268.021 238.596,268.906 238.591,269.664 240.567 M243.372 281.514 C 244.593 282.735,244.675 283.656,243.798 286.264 C 242.293 290.739,241.125 292.000,238.485 292.000 C 234.144 292.000,233.835 287.011,237.923 282.923 C 241.314 279.532,241.374 279.517,243.372 281.514 " style="stroke: none; fill: black;">
                    </path></svg>