<svg id="svg-path" width="100%" height="100%" viewBox="0 0 512 512" version="1.1" xmlns="http://www.w3.org/2000/svg" style="fill-rule:evenodd;clip-rule:evenodd;stroke-linejoin:round;stroke-miterlimit:2;">
                        <path d="M63.286 156.216 C 62.117 157.472,60.503 160.300,59.700 162.500 C 55.535 173.909,55.076 178.636,58.000 179.991 C 68.431 184.825,69.281 185.511,75.946 194.496 C 84.303 205.762,90.905 212.115,97.759 215.485 C 101.035 217.096,103.948 219.471,105.484 221.785 C 106.839 223.828,110.481 227.516,113.575 229.980 C 119.004 234.302,119.183 234.598,118.675 238.383 C 118.317 241.059,117.251 243.052,115.325 244.652 C 110.135 248.961,98.045 255.946,93.246 257.407 C 74.822 263.017,70.727 264.546,64.500 268.141 C 55.535 273.318,55.973 273.051,51.400 276.097 C 49.255 277.525,45.078 279.271,42.119 279.978 C 39.159 280.684,35.948 282.052,34.984 283.016 C 33.312 284.688,33.338 285.225,35.523 294.492 C 37.399 302.446,38.414 304.832,41.104 307.607 C 44.370 310.977,49.000 312.218,49.000 309.724 C 49.000 304.151,51.399 291.216,52.700 289.779 C 53.567 288.821,56.511 287.203,59.241 286.185 C 63.185 284.714,64.969 284.537,67.919 285.324 C 71.049 286.159,72.727 285.897,78.594 283.655 C 82.659 282.102,90.121 280.419,96.528 279.611 C 104.583 278.594,108.697 277.553,112.000 275.692 C 114.475 274.299,118.750 272.841,121.500 272.453 C 124.250 272.065,128.750 270.904,131.500 269.874 C 134.250 268.844,137.902 268.001,139.615 268.001 C 141.328 268.000,143.925 267.061,145.384 265.912 C 147.763 264.041,148.528 263.938,152.769 264.920 C 155.371 265.522,162.000 266.937,167.500 268.064 C 173.422 269.278,180.259 271.494,184.267 273.498 C 196.621 279.676,204.707 279.207,220.318 271.406 C 227.730 267.702,230.070 267.000,234.995 267.000 C 240.134 267.000,241.110 266.676,242.927 264.365 C 244.086 262.892,245.000 260.255,245.000 258.384 C 245.000 254.389,246.530 253.781,255.500 254.212 C 260.944 254.473,261.528 254.305,261.800 252.398 C 261.995 251.035,261.204 249.708,259.550 248.625 C 258.148 247.706,257.000 246.269,257.000 245.431 C 257.000 242.896,252.327 238.999,249.295 239.007 C 247.758 239.010,245.150 239.907,243.500 241.000 C 239.420 243.702,236.584 243.512,229.516 240.067 C 209.010 230.069,201.088 227.774,190.230 228.684 C 183.452 229.252,182.928 229.132,176.499 225.537 L 169.815 221.799 165.624 223.399 C 159.467 225.751,158.357 225.478,152.377 220.148 C 147.186 215.521,141.801 213.000,137.113 213.000 C 134.823 213.000,129.080 209.637,122.500 204.444 C 120.300 202.708,116.700 200.323,114.500 199.144 C 112.300 197.966,107.800 195.446,104.500 193.545 C 101.200 191.645,94.079 187.707,88.675 184.795 C 73.556 176.648,73.123 176.163,70.516 164.457 C 68.118 153.693,66.914 152.319,63.286 156.216 M446.734 187.995 C 445.339 189.092,440.441 191.359,435.849 193.032 C 424.226 197.266,417.850 200.562,409.533 206.636 C 401.591 212.436,398.234 213.882,386.500 216.559 C 382.100 217.562,377.488 219.023,376.252 219.806 C 374.691 220.793,372.662 221.026,369.617 220.570 C 366.192 220.056,364.341 220.376,361.173 222.027 C 357.866 223.751,355.674 224.090,349.308 223.865 C 341.231 223.578,328.832 224.996,316.246 227.645 C 310.858 228.780,307.130 230.396,301.746 233.933 C 292.441 240.047,290.545 242.232,290.545 246.840 C 290.545 251.757,295.367 258.833,300.737 261.797 C 303.026 263.060,306.516 266.297,308.493 268.990 C 312.834 274.904,320.681 281.644,324.961 283.136 C 327.567 284.045,328.419 283.931,330.046 282.459 C 331.121 281.486,332.000 279.960,332.000 279.068 C 332.000 278.175,332.701 276.445,333.557 275.223 C 334.903 273.300,336.022 273.000,341.847 273.000 C 345.550 273.000,351.171 272.325,354.339 271.500 C 357.506 270.675,361.486 270.000,363.183 270.000 C 364.880 270.000,367.945 269.498,369.994 268.884 C 373.060 267.965,375.317 268.143,382.750 269.888 C 387.717 271.054,394.642 272.294,398.140 272.644 C 401.638 272.993,405.715 273.892,407.200 274.640 C 408.686 275.388,411.753 276.000,414.016 276.000 C 416.280 276.000,418.997 276.463,420.054 277.029 C 428.129 281.350,461.866 287.570,471.500 286.514 C 479.895 285.594,483.469 281.991,481.382 276.554 C 480.235 273.564,477.500 272.945,472.349 274.507 C 464.181 276.985,458.857 276.457,450.725 272.361 C 446.751 270.359,441.120 267.902,438.211 266.901 C 435.303 265.900,431.627 264.159,430.043 263.031 C 426.361 260.409,414.547 255.439,410.000 254.600 C 405.200 253.714,397.077 249.062,394.701 245.837 C 392.112 242.323,393.010 239.006,397.209 236.573 C 406.923 230.943,414.204 225.560,419.476 220.109 C 425.372 214.014,426.736 212.974,439.118 205.130 C 447.207 200.005,453.323 198.950,460.713 201.405 C 463.449 202.313,466.398 202.784,467.267 202.451 C 471.595 200.790,469.212 194.240,463.294 191.536 C 461.207 190.582,457.670 188.947,455.434 187.901 C 450.368 185.532,449.857 185.538,446.734 187.995 M255.439 232.099 C 254.335 233.885,258.024 236.135,261.500 235.794 C 263.735 235.575,264.500 234.990,264.500 233.500 C 264.500 231.869,263.732 231.444,260.342 231.197 C 257.871 231.017,255.881 231.383,255.439 232.099 M277.000 235.943 C 277.000 237.719,277.624 238.000,281.573 238.000 C 285.389 238.000,286.092 237.710,285.815 236.250 C 285.573 234.973,284.335 234.417,281.241 234.193 C 277.528 233.923,277.000 234.141,277.000 235.943 M236.091 250.873 L 238.404 252.745 233.452 255.854 C 228.052 259.243,224.000 259.935,224.000 257.468 C 224.000 256.625,224.652 254.375,225.449 252.468 C 226.704 249.464,227.358 249.000,230.338 249.000 C 232.230 249.000,234.819 249.843,236.091 250.873 M275.667 253.667 C 274.228 255.106,275.126 256.815,277.655 257.450 C 280.670 258.206,282.531 256.345,280.820 254.284 C 279.683 252.914,276.769 252.565,275.667 253.667 M251.185 270.750 C 251.417 271.973,252.643 272.593,255.258 272.810 C 258.470 273.077,259.000 272.829,259.000 271.060 C 259.000 269.317,258.373 269.000,254.927 269.000 C 251.588 269.000,250.913 269.315,251.185 270.750 M272.000 270.892 C 272.000 273.223,276.554 274.615,278.608 272.910 C 280.640 271.224,278.518 269.000,274.878 269.000 C 272.722 269.000,272.000 269.474,272.000 270.892 " style="stroke: none; fill: black;">
                    </path></svg>