<svg id="svg-path" width="100%" height="100%" viewBox="0 0 512 512" version="1.1" xmlns="http://www.w3.org/2000/svg" style="fill-rule:evenodd;clip-rule:evenodd;stroke-linejoin:round;stroke-miterlimit:2;">
                        <path d="M253.823 198.775 C 252.351 198.964,250.709 199.655,250.174 200.309 C 247.693 203.345,242.898 214.264,242.026 218.862 C 240.575 226.514,237.633 231.584,233.887 232.890 C 232.127 233.503,224.306 234.000,216.410 234.000 C 207.143 234.000,201.880 234.385,201.442 235.094 C 201.027 235.765,199.169 235.959,196.633 235.597 C 183.206 233.676,172.238 232.778,154.000 232.104 C 134.226 231.374,133.230 231.238,125.871 228.245 C 113.745 223.313,110.609 222.791,90.500 222.353 C 80.050 222.126,69.250 221.854,66.500 221.750 C 60.245 221.512,54.739 224.069,52.016 228.474 C 49.644 232.312,49.375 238.236,51.492 239.994 C 53.570 241.718,62.918 240.454,70.578 237.413 C 78.192 234.391,81.447 234.414,86.500 237.526 C 88.700 238.881,91.272 239.992,92.215 239.995 C 93.158 239.998,95.858 240.616,98.215 241.369 C 100.572 242.122,105.200 243.514,108.500 244.463 C 111.800 245.412,116.525 247.105,119.000 248.225 C 125.598 251.213,142.725 257.000,144.970 257.000 C 148.213 257.000,152.100 259.243,151.777 260.928 C 151.547 262.131,149.525 262.677,143.165 263.254 C 138.594 263.669,133.944 264.495,132.833 265.090 C 131.721 265.684,125.567 266.558,119.156 267.032 C 98.919 268.526,94.757 269.023,84.149 271.212 L 73.798 273.349 65.508 271.174 C 54.342 268.246,49.594 268.315,46.455 271.455 C 43.791 274.118,43.506 275.572,44.920 279.289 C 46.660 283.867,51.456 285.607,64.360 286.344 C 70.853 286.715,77.141 287.568,78.333 288.239 C 79.966 289.160,94.214 289.466,136.168 289.480 L 191.836 289.500 193.461 293.183 C 194.985 296.637,195.438 296.911,200.727 297.572 C 208.033 298.484,223.986 297.396,231.000 295.506 C 234.025 294.691,238.361 294.018,240.636 294.012 C 244.362 294.001,244.932 294.337,246.386 297.401 C 247.274 299.272,248.000 301.357,248.000 302.035 C 248.000 304.370,255.197 317.507,258.203 320.659 C 259.860 322.396,262.630 324.081,264.358 324.402 C 269.983 325.448,291.244 321.035,294.368 318.173 C 299.005 313.926,307.208 310.783,315.950 309.905 C 337.753 307.716,345.385 307.004,357.208 306.053 C 364.197 305.490,372.972 304.173,376.708 303.125 C 392.046 298.823,409.226 290.992,418.430 284.108 C 421.819 281.574,427.126 277.780,430.223 275.678 C 435.991 271.764,438.000 268.471,438.000 262.933 C 438.000 256.409,441.000 255.237,446.656 259.551 C 452.466 263.983,456.116 265.006,463.650 264.315 C 471.937 263.556,477.380 261.334,481.861 256.884 C 488.284 250.505,488.647 244.945,483.291 235.001 C 478.250 225.642,477.854 225.468,462.362 225.817 C 454.814 225.987,453.850 226.258,449.049 229.560 C 442.275 234.220,439.254 233.966,436.443 228.500 C 435.312 226.300,432.291 221.259,429.731 217.299 C 425.765 211.163,424.495 209.941,421.156 209.042 C 413.014 206.850,397.090 205.011,386.000 204.982 C 379.675 204.966,372.700 204.463,370.500 203.866 C 362.436 201.676,358.537 201.787,347.938 204.512 C 338.007 207.065,336.717 207.165,321.373 206.557 C 308.502 206.047,304.464 206.211,301.373 207.372 C 293.159 210.456,290.162 210.260,282.025 206.107 C 270.588 200.271,261.191 197.827,253.823 198.775 M280.000 220.627 C 283.179 221.025,285.457 222.103,287.758 224.299 C 290.283 226.709,291.788 227.356,294.450 227.176 C 297.193 226.992,299.053 227.855,303.692 231.469 C 306.886 233.958,312.640 238.369,316.478 241.273 C 324.797 247.567,328.013 251.942,327.965 256.898 C 327.918 261.585,326.739 263.561,319.440 271.177 C 313.550 277.322,299.729 293.898,293.347 302.471 C 290.889 305.773,289.345 306.847,286.347 307.342 C 281.221 308.189,275.765 308.140,274.359 307.235 C 273.611 306.753,273.094 301.115,272.859 290.863 L 272.500 275.227 282.264 274.261 C 290.882 273.408,292.616 272.896,297.044 269.897 C 302.628 266.116,303.538 264.118,303.391 255.958 C 303.168 243.520,297.379 239.000,281.673 239.000 C 271.869 239.000,270.000 238.267,270.000 234.422 C 270.000 233.224,269.325 230.629,268.500 228.654 C 267.675 226.680,267.000 223.653,267.000 221.927 C 267.000 218.803,267.018 218.793,271.250 219.427 C 273.587 219.777,277.525 220.317,280.000 220.627 " style="stroke: none; fill: black;">
                    </path></svg>