<svg id="svg-path" width="100%" height="100%" viewBox="0 0 512 512" version="1.1" xmlns="http://www.w3.org/2000/svg" style="fill-rule:evenodd;clip-rule:evenodd;stroke-linejoin:round;stroke-miterlimit:2;">
                        <path d="M296.943 98.845 C 294.776 100.600,294.632 101.571,293.981 118.794 C 293.093 142.297,292.984 142.506,282.156 141.521 C 277.945 141.138,270.900 140.198,266.500 139.431 C 254.373 137.318,251.180 137.510,249.847 140.436 C 247.322 145.978,250.300 147.210,271.680 149.466 C 279.387 150.280,286.432 151.229,287.336 151.575 C 289.813 152.526,291.291 159.567,290.569 166.984 C 290.221 170.568,289.679 178.470,289.366 184.543 C 288.892 193.742,289.054 195.800,290.335 196.863 C 292.690 198.817,295.774 196.620,296.835 192.233 C 298.184 186.652,300.021 169.349,300.010 162.321 C 299.994 152.522,299.749 152.620,322.786 153.245 C 341.867 153.762,342.162 153.739,342.980 151.635 C 345.251 145.794,338.443 143.529,317.500 143.159 C 305.499 142.946,304.358 142.760,302.656 140.737 C 301.275 139.096,300.972 137.662,301.451 135.023 C 303.387 124.342,303.962 118.494,303.980 109.285 C 303.998 100.198,303.787 98.956,302.066 98.035 C 299.560 96.694,299.609 96.686,296.943 98.845 M212.235 143.037 C 208.757 144.434,207.717 148.378,209.146 154.762 C 210.557 161.068,213.575 164.026,222.093 167.450 C 228.283 169.938,228.737 170.903,228.933 182.000 C 229.013 186.534,229.830 191.675,231.000 195.000 C 234.364 204.563,234.050 205.519,224.726 214.103 C 209.981 227.679,207.006 227.851,206.991 215.128 C 206.982 208.515,206.588 206.814,204.022 202.340 C 199.054 193.678,197.087 192.826,176.387 190.358 C 170.406 189.645,163.667 191.557,156.789 195.919 C 150.496 199.910,147.993 205.376,148.022 215.066 C 148.051 224.829,150.113 229.221,157.876 236.054 C 163.687 241.170,163.999 241.676,163.986 245.972 C 163.963 253.752,163.276 255.000,159.018 255.000 C 154.604 255.000,150.806 257.639,149.022 261.947 C 147.288 266.133,148.172 268.561,154.010 275.656 C 158.808 281.487,159.122 282.226,159.942 289.656 L 160.808 297.500 168.060 304.227 C 177.113 312.625,182.304 314.880,188.143 312.953 C 190.385 312.213,193.806 310.346,195.747 308.804 C 197.687 307.262,199.608 306.000,200.015 306.000 C 201.173 306.000,202.473 307.945,206.547 315.776 C 211.185 324.689,216.793 330.030,224.569 332.940 C 232.146 335.775,232.840 336.399,235.740 343.000 C 237.069 346.025,239.494 349.895,241.129 351.600 C 243.732 354.314,244.271 355.934,245.458 364.600 C 246.203 370.045,247.096 377.875,247.442 382.000 C 248.441 393.916,250.217 402.218,252.593 406.068 C 257.017 413.236,264.702 415.724,271.577 412.214 C 275.413 410.256,291.010 399.440,292.000 398.051 C 292.899 396.791,304.393 389.335,309.000 387.024 C 315.320 383.854,317.000 382.123,317.000 378.779 C 317.000 374.396,318.654 372.156,322.410 371.451 C 326.846 370.619,336.276 372.616,342.311 375.665 C 349.394 379.244,353.304 377.197,350.707 371.271 C 348.452 366.125,345.859 363.118,340.972 359.982 C 335.963 356.768,329.000 349.783,329.000 347.972 C 329.000 345.916,334.648 344.883,343.481 345.324 C 375.225 346.908,386.419 348.352,393.000 351.711 C 396.196 353.343,396.506 353.328,400.699 351.338 C 403.993 349.776,404.503 349.786,409.300 351.511 C 412.105 352.519,416.897 354.816,419.950 356.614 C 423.002 358.413,428.243 361.485,431.596 363.442 C 440.687 368.748,446.342 368.023,447.586 361.391 C 447.961 359.397,447.733 356.051,447.072 353.846 C 446.086 350.557,444.752 349.157,439.193 345.584 C 435.333 343.104,428.267 339.913,422.500 338.046 C 417.000 336.266,409.411 333.240,405.635 331.323 C 396.411 326.639,372.365 320.435,356.000 318.516 C 343.537 317.055,337.851 315.558,325.000 310.352 C 310.107 304.319,302.169 300.495,294.261 295.541 C 291.380 293.736,287.330 291.987,285.261 291.654 C 280.792 290.935,277.000 288.495,277.000 286.338 C 277.000 285.486,278.139 283.435,279.531 281.780 C 283.596 276.950,283.628 276.996,263.142 257.578 C 257.107 251.858,249.000 239.996,249.000 236.885 C 249.000 235.757,250.290 231.608,251.868 227.667 C 253.445 223.725,255.071 218.925,255.481 217.000 C 255.891 215.075,257.132 211.489,258.238 209.032 C 262.212 200.202,261.502 190.467,256.074 179.373 C 252.875 172.835,250.270 169.720,246.221 167.591 C 242.191 165.472,235.790 158.332,231.581 151.260 C 229.539 147.829,226.897 144.341,225.711 143.510 C 223.349 141.856,215.832 141.591,212.235 143.037 M80.688 235.646 C 79.539 236.794,79.903 238.896,82.000 243.236 C 84.555 248.525,84.519 249.164,81.500 252.000 C 79.512 253.868,79.000 255.324,79.000 259.111 C 79.000 264.557,76.076 277.590,73.528 283.500 C 72.580 285.700,71.244 291.734,70.560 296.908 C 69.413 305.583,69.455 306.455,71.102 308.102 C 72.085 309.085,74.601 310.187,76.694 310.553 C 78.787 310.918,82.075 312.248,84.000 313.508 C 86.336 315.037,89.806 316.032,94.434 316.499 C 100.083 317.069,101.718 317.643,103.257 319.599 C 104.744 321.490,106.033 321.979,109.323 321.900 C 115.587 321.751,117.630 320.848,120.404 317.000 C 124.603 311.176,128.981 303.585,128.991 302.110 C 128.996 301.345,129.939 298.839,131.087 296.540 L 133.174 292.361 131.038 279.985 L 128.902 267.609 122.652 259.059 C 119.215 254.356,115.539 250.342,114.484 250.139 C 113.428 249.936,111.200 248.734,109.532 247.468 C 107.864 246.203,104.565 244.397,102.201 243.455 C 98.005 241.785,97.848 241.794,95.636 243.872 C 92.227 247.075,90.599 246.505,86.885 240.812 C 83.499 235.623,81.978 234.355,80.688 235.646 M143.239 242.666 C 142.545 242.946,141.496 244.073,140.909 245.170 C 139.083 248.582,142.282 251.000,148.620 251.000 C 152.840 251.000,154.141 250.604,154.961 249.072 C 156.211 246.737,155.402 244.285,152.948 242.972 C 151.059 241.961,145.429 241.784,143.239 242.666 M102.321 252.463 C 107.860 254.913,110.479 257.658,109.180 259.653 C 108.401 260.849,91.967 262.308,89.581 261.393 C 87.201 260.479,87.679 256.535,90.589 253.077 C 93.718 249.358,95.132 249.284,102.321 252.463 M170.404 260.306 C 172.569 261.889,172.216 266.343,169.890 266.786 C 168.092 267.129,165.381 261.810,166.463 260.060 C 167.325 258.666,168.239 258.723,170.404 260.306 M121.025 270.565 C 121.561 271.976,122.000 275.071,122.000 277.443 C 122.000 279.815,122.675 283.371,123.500 285.346 C 125.726 290.672,125.360 295.044,122.295 299.772 C 119.223 304.510,117.390 305.569,115.287 303.823 C 113.394 302.252,113.998 297.374,117.079 289.338 L 119.442 283.176 117.221 278.728 C 114.910 274.102,114.584 272.249,115.607 269.582 C 116.568 267.078,119.931 267.688,121.025 270.565 M86.365 286.250 C 87.142 287.488,88.315 290.195,88.971 292.266 C 90.005 295.525,89.912 296.467,88.282 299.266 C 86.059 303.084,82.666 303.912,79.816 301.333 C 78.174 299.847,77.904 298.714,78.376 295.273 C 79.181 289.403,81.601 284.000,83.426 284.000 C 84.266 284.000,85.589 285.012,86.365 286.250 M109.608 287.573 C 110.389 290.684,109.020 292.286,105.967 291.835 C 100.745 291.062,101.310 285.000,106.603 285.000 C 108.303 285.000,109.142 285.719,109.608 287.573 M110.750 307.989 C 112.537 309.079,114.000 310.411,114.000 310.950 C 114.000 312.378,110.838 313.842,106.125 314.596 L 102.000 315.256 102.000 311.294 C 102.000 309.116,102.300 307.033,102.667 306.667 C 103.915 305.418,107.493 306.003,110.750 307.989 M312.629 348.475 C 313.625 351.072,309.054 356.823,303.191 360.348 C 296.059 364.636,289.398 368.000,288.040 368.000 C 286.249 368.000,286.893 364.425,289.885 357.756 C 293.889 348.833,296.493 347.000,305.166 347.000 C 310.321 347.000,312.206 347.372,312.629 348.475 " style="stroke: none; fill: black;">
                    </path></svg>