<svg id="svg-path" width="100%" height="100%" viewBox="0 0 512 512" version="1.1" xmlns="http://www.w3.org/2000/svg" style="fill-rule:evenodd;clip-rule:evenodd;stroke-linejoin:round;stroke-miterlimit:2;">
                        <path d="M233.244 70.043 C 221.522 72.144,209.643 79.727,201.808 90.110 C 187.427 109.168,187.615 134.138,202.286 153.500 C 207.698 160.642,215.173 166.416,223.625 169.982 C 230.885 173.045,233.000 174.620,233.000 176.967 C 233.000 179.975,229.498 182.033,218.351 185.577 C 204.861 189.867,197.151 191.143,185.000 191.097 C 179.775 191.078,160.808 191.162,142.850 191.285 C 112.350 191.494,110.062 191.634,108.100 193.409 C 105.472 195.788,105.415 200.114,107.937 205.669 C 110.596 211.526,112.638 212.346,122.372 211.466 C 134.947 210.329,152.306 210.683,165.501 212.346 C 173.655 213.373,179.102 213.579,182.500 212.988 C 185.250 212.510,192.495 212.092,198.601 212.060 C 208.640 212.006,210.161 212.244,214.492 214.547 C 218.756 216.814,220.010 217.022,225.922 216.439 C 231.525 215.887,233.282 216.122,237.155 217.943 C 243.490 220.921,245.208 223.074,249.967 234.000 C 255.926 247.682,257.632 252.452,259.958 261.944 C 261.097 266.589,263.372 272.769,265.014 275.679 C 268.406 281.689,268.989 288.697,266.577 294.471 C 264.023 300.583,250.355 317.236,237.417 330.000 C 226.687 340.586,224.192 343.648,221.123 350.000 C 218.022 356.420,217.517 358.436,217.620 364.000 C 217.778 372.606,220.502 378.639,226.420 383.488 C 232.653 388.596,256.360 417.633,262.139 427.238 C 268.095 437.140,270.285 446.587,272.631 472.500 C 273.540 482.545,277.265 485.807,282.052 480.750 C 285.061 477.571,290.588 466.249,291.449 461.500 C 291.848 459.300,293.710 453.517,295.587 448.650 C 300.860 434.976,300.065 431.094,291.061 426.531 C 284.730 423.323,281.789 419.639,278.501 410.803 C 272.083 393.553,270.765 390.237,268.442 385.500 C 267.093 382.750,263.720 377.851,260.947 374.614 C 258.175 371.376,256.039 368.001,256.203 367.114 C 256.366 366.226,259.399 364.029,262.943 362.231 C 266.486 360.434,274.361 355.974,280.443 352.322 C 300.562 340.238,305.543 338.529,312.345 341.371 C 316.039 342.914,328.073 357.133,337.283 370.836 C 344.692 381.861,345.975 383.175,352.977 386.907 C 360.118 390.713,363.708 390.807,377.280 387.541 C 391.141 384.205,413.515 379.999,417.361 380.006 C 426.344 380.022,432.823 385.230,442.510 400.222 C 445.532 404.898,448.559 408.387,450.184 409.066 C 453.892 410.616,458.199 409.446,461.511 405.989 C 466.727 400.544,466.430 391.393,460.771 383.167 C 459.029 380.635,455.647 374.056,453.255 368.547 C 450.864 363.038,447.916 357.476,446.705 356.186 C 444.268 353.591,441.764 353.566,428.870 356.003 C 421.976 357.306,421.932 357.302,402.638 353.453 C 394.920 351.914,394.595 351.932,384.910 354.426 C 369.203 358.473,366.879 356.466,362.995 335.500 C 361.976 330.000,359.530 319.650,357.559 312.500 C 355.589 305.350,353.513 296.575,352.947 293.000 C 351.654 284.839,348.985 277.538,343.878 268.192 L 339.884 260.883 343.442 253.683 C 345.399 249.723,347.000 245.803,347.000 244.973 C 347.000 244.143,345.847 241.767,344.437 239.693 C 340.519 233.926,341.334 230.994,347.500 228.673 C 356.055 225.454,365.271 220.925,370.980 217.137 C 383.674 208.714,394.000 196.348,394.000 189.571 C 394.000 184.451,389.848 175.930,384.659 170.400 C 380.512 165.981,378.225 164.471,373.000 162.702 L 366.500 160.500 365.980 153.500 C 365.694 149.650,364.695 145.085,363.759 143.356 C 361.544 139.261,352.587 131.325,342.266 124.313 C 329.498 115.639,326.358 112.595,324.543 107.131 C 323.659 104.467,321.937 101.371,320.717 100.252 C 315.774 95.713,305.538 96.617,300.698 102.020 C 298.341 104.651,297.944 105.880,298.198 109.764 L 298.500 114.381 308.000 120.691 C 318.132 127.421,329.165 138.165,330.820 142.915 C 331.572 145.070,331.481 146.296,330.463 147.749 C 328.564 150.461,318.684 153.852,308.057 155.439 C 302.700 156.240,297.722 157.627,295.680 158.889 C 293.801 160.050,290.660 161.000,288.699 161.000 C 283.346 161.000,283.040 158.343,287.538 150.937 C 293.504 141.117,295.143 135.692,295.725 123.849 C 296.144 115.323,295.889 112.032,294.448 107.349 C 289.227 90.393,277.095 77.668,260.500 71.742 C 254.518 69.606,240.544 68.735,233.244 70.043 M116.519 120.750 C 115.109 122.263,112.439 126.425,110.584 130.000 C 103.092 144.440,94.969 158.100,88.699 166.799 C 85.059 171.849,81.632 176.820,81.083 177.844 C 80.535 178.869,78.492 181.616,76.543 183.949 C 72.254 189.083,71.995 192.652,75.602 196.939 C 78.625 200.532,81.842 208.698,81.250 211.279 C 80.794 213.269,67.499 223.000,65.238 223.000 C 64.441 223.000,62.452 221.875,60.818 220.500 C 59.184 219.125,56.844 218.000,55.619 218.000 C 53.155 218.000,45.345 222.631,43.001 225.481 C 42.177 226.484,39.157 229.037,36.291 231.154 C 28.421 236.968,23.000 242.464,23.000 244.629 C 23.000 246.522,31.238 258.293,34.399 260.916 C 35.273 261.642,37.004 262.012,38.244 261.738 C 42.270 260.852,59.302 254.301,67.126 250.631 C 75.375 246.762,76.491 245.198,74.918 239.713 C 73.530 234.873,73.709 234.270,77.642 230.560 C 83.015 225.492,86.352 224.346,89.578 226.459 C 92.750 228.538,95.000 233.648,95.000 238.777 C 95.000 240.889,95.639 243.491,96.420 244.559 C 97.760 246.391,99.286 246.503,123.670 246.550 C 147.884 246.596,150.339 246.773,162.912 249.367 C 170.289 250.890,177.299 251.891,178.491 251.592 C 181.418 250.857,183.357 246.535,181.944 243.895 C 180.612 241.407,178.114 240.460,170.500 239.555 C 167.200 239.163,159.550 237.836,153.500 236.606 C 143.595 234.592,140.808 234.437,125.500 235.051 C 106.802 235.801,104.813 235.377,103.556 230.367 C 102.465 226.020,92.580 206.036,88.609 200.150 C 86.624 197.207,85.000 194.210,85.000 193.489 C 85.000 192.769,86.707 190.002,88.794 187.340 C 98.113 175.452,116.959 146.042,117.017 143.297 C 117.026 142.858,119.051 139.146,121.517 135.046 C 127.653 124.842,127.583 118.000,121.340 118.000 C 120.098 118.000,117.928 119.237,116.519 120.750 M65.435 230.928 C 67.442 233.146,66.829 236.447,64.212 237.513 C 53.511 241.873,44.000 244.084,44.000 242.212 C 44.000 241.221,52.669 232.846,55.973 230.647 C 59.277 228.446,63.297 228.565,65.435 230.928 " style="stroke: none; fill: black;">
                    </path></svg>