<svg id="svg-path" width="100%" height="100%" viewBox="0 0 512 512" version="1.1" xmlns="http://www.w3.org/2000/svg" style="fill-rule:evenodd;clip-rule:evenodd;stroke-linejoin:round;stroke-miterlimit:2;">
                        <path d="M440.741 123.947 C 435.142 125.047,431.173 126.412,429.741 127.730 C 428.274 129.079,424.390 130.380,418.500 131.494 C 394.918 135.957,386.449 140.684,386.547 149.331 C 386.602 154.085,391.831 166.725,395.864 171.849 C 401.988 179.631,402.165 180.100,401.595 187.000 C 401.299 190.575,400.150 197.100,399.041 201.500 C 397.931 205.900,397.018 211.111,397.012 213.081 C 397.005 215.050,395.877 218.875,394.504 221.581 C 392.472 225.586,392.008 227.964,392.004 234.382 C 392.001 240.522,391.557 242.981,389.993 245.511 C 384.645 254.165,379.778 269.360,375.577 290.525 C 374.810 294.389,371.716 304.064,368.702 312.025 C 365.688 319.986,362.745 328.075,362.161 330.000 C 360.076 336.883,357.166 344.779,355.596 347.814 C 354.718 349.512,354.000 352.483,354.000 354.417 C 354.000 357.167,353.020 359.037,349.500 363.000 C 343.757 369.466,343.294 373.992,348.077 376.901 C 351.915 379.235,354.236 378.665,357.748 374.525 C 359.262 372.742,363.393 367.834,366.928 363.619 C 371.321 358.382,373.681 356.281,374.382 356.982 C 375.800 358.400,377.889 366.231,378.923 374.000 C 379.902 381.363,380.658 383.748,382.807 386.250 C 386.378 390.408,390.000 387.241,390.000 379.960 C 390.000 374.908,392.682 364.072,394.446 362.000 C 396.855 359.169,401.000 351.324,401.000 349.593 C 401.000 347.451,412.320 324.602,415.413 320.500 C 416.657 318.850,420.242 312.850,423.378 307.166 C 426.515 301.482,430.111 295.182,431.371 293.166 C 434.489 288.174,438.352 279.632,440.490 273.000 C 443.455 263.803,446.932 257.000,448.668 257.000 C 450.039 257.000,450.181 257.913,449.637 263.250 C 449.287 266.688,448.735 270.890,448.411 272.589 C 447.672 276.456,449.944 279.000,454.137 279.000 C 458.479 279.000,460.442 277.613,462.190 273.311 C 466.880 261.765,467.950 253.512,468.001 228.500 C 468.030 214.196,468.476 206.649,469.568 202.000 C 472.458 189.699,472.456 190.085,469.641 187.147 C 468.208 185.651,466.753 183.013,466.407 181.284 C 466.061 179.555,464.703 177.130,463.389 175.896 C 460.367 173.057,460.395 172.475,463.750 168.530 C 465.262 166.751,467.288 163.991,468.251 162.398 C 469.214 160.804,470.932 158.056,472.069 156.291 C 475.160 151.492,475.646 143.525,473.183 138.000 C 469.077 128.786,460.102 121.845,452.641 122.113 C 450.913 122.175,445.558 123.000,440.741 123.947 M231.000 144.100 C 229.075 145.251,225.700 147.887,223.500 149.957 C 218.416 154.743,207.197 160.458,199.685 162.088 C 195.148 163.073,193.573 163.916,192.517 165.925 C 191.774 167.341,189.271 170.300,186.956 172.500 C 178.472 180.562,175.314 187.982,178.130 193.242 C 179.622 196.030,186.283 202.021,192.500 206.166 C 199.171 210.614,199.512 213.306,194.221 219.743 C 192.071 222.359,189.808 225.850,189.193 227.500 C 186.748 234.058,182.999 252.297,182.978 257.736 C 182.964 261.358,182.199 265.170,180.918 267.994 C 179.675 270.733,178.508 276.393,177.927 282.494 C 177.064 291.557,176.193 296.786,174.596 302.500 C 174.289 303.600,173.133 308.325,172.027 313.000 C 170.921 317.675,167.492 329.600,164.406 339.500 C 156.924 363.504,156.810 364.937,161.651 374.179 C 166.143 382.755,172.860 390.000,176.319 390.000 C 178.890 390.000,182.000 387.212,182.000 384.906 C 182.000 384.117,181.100 381.791,180.000 379.739 C 177.501 375.075,177.483 372.437,179.920 367.657 C 180.992 365.554,182.151 360.495,182.544 356.196 C 182.932 351.963,183.929 347.150,184.761 345.500 C 187.101 340.859,192.014 335.000,193.565 335.000 C 195.773 335.000,196.292 339.366,194.573 343.480 C 192.349 348.802,192.580 350.589,196.135 355.538 C 199.772 360.603,199.622 363.950,195.478 370.212 C 191.269 376.573,191.764 377.625,202.642 385.430 C 210.512 391.077,214.274 393.000,217.450 393.000 C 220.770 393.000,220.874 389.863,217.697 385.594 C 211.560 377.348,208.188 368.371,209.405 363.521 C 209.770 362.068,211.759 359.915,214.104 358.435 C 218.169 355.868,218.169 355.867,217.493 350.949 C 216.977 347.196,217.341 344.428,219.028 339.265 C 221.253 332.459,222.430 325.434,223.881 310.303 C 224.313 305.795,225.247 301.408,225.955 300.554 C 226.664 299.700,227.865 296.037,228.625 292.414 C 229.384 288.792,231.129 283.019,232.503 279.585 C 233.876 276.152,235.000 272.429,235.000 271.311 C 235.000 270.193,236.139 267.601,237.531 265.549 C 244.518 255.254,248.000 244.711,248.000 233.854 C 248.000 231.226,249.119 225.572,250.487 221.288 C 253.765 211.025,253.688 208.310,250.000 204.000 C 248.353 202.075,247.004 199.981,247.002 199.347 C 247.001 198.713,249.363 195.917,252.250 193.133 L 257.500 188.072 257.609 181.286 C 257.668 177.554,258.057 171.570,258.472 167.990 C 259.504 159.095,257.865 155.441,250.361 149.897 C 244.260 145.390,238.001 141.997,235.798 142.004 C 235.084 142.006,232.925 142.949,231.000 144.100 M424.281 149.401 C 425.233 155.116,424.696 155.926,418.812 157.664 C 414.003 159.083,412.219 158.407,409.781 154.237 C 408.405 151.883,408.305 150.989,409.281 149.749 C 411.193 147.319,418.245 144.018,420.982 144.271 C 423.127 144.469,423.575 145.166,424.281 149.401 M322.165 151.562 C 318.681 153.453,314.716 155.000,313.353 155.000 C 310.890 155.000,304.455 156.788,296.162 159.776 C 287.554 162.878,286.989 169.183,294.006 183.846 C 296.232 188.496,298.000 193.689,298.000 195.573 C 298.000 199.737,294.815 208.335,288.113 222.266 C 285.301 228.110,283.000 233.537,283.000 234.324 C 283.000 235.111,282.315 237.396,281.477 239.401 C 280.373 242.044,280.235 243.571,280.977 244.957 C 282.761 248.291,282.110 250.312,277.852 254.651 C 272.147 260.464,270.375 267.968,268.441 294.500 C 267.599 306.050,266.286 317.525,265.522 320.000 C 259.792 338.580,258.228 347.544,258.891 358.000 C 258.978 359.375,258.760 366.205,258.406 373.177 C 257.764 385.843,257.766 385.857,260.336 388.427 C 263.025 391.115,265.465 391.623,268.000 390.021 C 269.208 389.258,269.517 386.377,269.588 375.215 C 269.658 364.298,270.027 360.735,271.329 358.428 C 272.237 356.818,275.043 349.272,277.564 341.661 C 283.402 324.035,285.577 319.000,287.356 319.000 C 289.553 319.000,290.198 323.532,289.116 331.373 C 287.095 346.017,285.762 360.975,286.250 363.526 C 286.527 364.977,285.948 369.389,284.962 373.332 C 282.553 382.971,281.759 390.190,282.914 391.950 C 283.452 392.771,285.423 393.400,287.455 393.400 C 293.124 393.400,295.000 390.723,296.230 380.881 C 296.869 375.760,298.237 370.584,299.745 367.573 C 301.102 364.864,302.809 360.589,303.537 358.073 C 304.786 353.760,307.442 337.301,308.310 328.500 C 308.904 322.471,313.866 305.341,316.130 301.503 C 317.228 299.643,319.649 294.454,321.511 289.973 C 323.373 285.491,325.974 280.401,327.291 278.662 C 329.633 275.570,331.943 271.632,338.537 259.500 C 341.867 253.373,347.403 239.792,350.524 230.094 C 351.824 226.058,352.130 222.732,351.735 216.969 L 351.206 209.251 355.603 205.576 C 359.900 201.984,360.000 201.764,360.000 195.917 C 360.000 191.517,360.662 188.628,362.500 185.000 C 366.122 177.853,365.985 169.944,362.134 163.873 C 357.677 156.844,351.579 152.444,342.999 150.067 C 332.904 147.269,329.644 147.503,322.165 151.562 M320.094 170.000 C 320.679 175.424,319.872 178.000,317.588 178.000 C 315.725 178.000,308.000 170.544,308.000 168.747 C 308.000 166.210,312.085 163.896,316.000 164.215 C 319.459 164.497,319.507 164.565,320.094 170.000 M213.960 174.452 C 216.664 177.710,210.652 183.616,207.388 180.907 C 205.463 179.310,205.647 178.005,208.174 175.314 C 210.686 172.641,212.262 172.406,213.960 174.452 M73.500 177.074 C 70.200 178.680,67.022 179.995,66.438 179.997 C 65.854 179.999,63.513 180.900,61.236 182.000 C 58.959 183.100,56.381 184.000,55.505 184.000 C 52.845 184.000,44.344 192.776,41.653 198.300 C 37.573 206.676,36.979 208.840,36.876 215.699 C 36.781 222.042,36.880 222.302,40.995 226.495 C 43.315 228.858,47.077 231.575,49.356 232.533 C 62.989 238.260,63.591 238.696,66.369 244.889 C 70.288 253.621,71.062 268.649,68.130 279.064 C 65.470 288.510,65.461 292.035,68.077 299.478 C 69.611 303.844,70.036 306.969,69.703 311.443 C 68.950 321.556,65.971 346.229,64.955 350.764 C 64.430 353.110,64.000 357.489,64.000 360.496 C 64.000 366.696,62.496 377.638,60.426 386.500 C 59.655 389.800,58.770 396.100,58.458 400.500 C 57.786 410.003,56.307 416.323,53.730 420.715 C 51.194 425.037,52.168 427.753,56.549 428.575 C 62.097 429.616,62.297 429.429,66.936 418.824 C 68.062 416.253,70.336 413.185,71.991 412.006 C 73.995 410.580,75.000 409.009,75.000 407.304 C 75.000 405.896,76.354 402.377,78.009 399.484 C 79.664 396.591,81.425 392.261,81.923 389.862 C 82.420 387.463,84.441 380.826,86.413 375.114 C 88.386 369.402,90.000 363.650,90.000 362.332 C 90.000 361.014,90.636 358.413,91.414 356.552 C 92.191 354.691,93.383 349.723,94.063 345.511 C 95.352 337.517,97.649 333.268,100.159 334.231 C 102.096 334.974,106.000 349.357,106.000 355.748 C 106.000 358.502,106.638 363.847,107.418 367.627 C 110.637 383.221,110.973 386.079,111.107 399.000 C 111.253 413.145,111.548 414.457,115.457 418.366 C 116.783 419.692,118.147 422.514,118.489 424.638 C 119.316 429.774,121.650 434.928,123.463 435.624 C 124.269 435.934,126.337 435.185,128.057 433.960 C 131.480 431.522,131.600 429.777,129.012 420.000 C 127.542 414.443,128.302 406.010,130.994 398.019 C 134.686 387.058,134.605 368.249,130.809 355.195 C 129.693 351.356,129.798 350.220,131.779 344.695 C 133.077 341.076,134.000 336.162,134.000 332.876 C 134.000 328.843,134.674 326.014,136.381 322.876 C 137.691 320.469,139.016 316.168,139.326 313.318 C 139.636 310.469,140.829 306.296,141.976 304.046 L 144.063 299.956 141.880 287.228 C 140.322 278.143,139.570 268.776,139.255 254.500 C 138.832 235.344,138.705 234.299,136.243 229.741 C 134.244 226.041,131.959 223.883,125.964 220.038 L 118.255 215.093 117.804 209.646 C 117.473 205.655,116.337 202.501,113.557 197.849 C 111.470 194.357,109.521 189.700,109.226 187.500 C 108.451 181.719,106.273 179.011,100.259 176.351 C 92.317 172.839,81.607 173.128,73.500 177.074 M70.675 203.250 C 72.925 205.588,75.231 208.412,75.798 209.526 C 78.054 213.954,72.789 216.820,68.441 213.532 C 67.374 212.724,65.458 212.049,64.184 212.032 C 60.971 211.988,58.000 210.231,58.000 208.375 C 58.000 206.048,63.272 199.046,65.042 199.021 C 65.890 199.010,68.425 200.912,70.675 203.250 M391.481 319.665 C 389.967 322.476,387.000 324.310,387.000 322.434 C 387.000 321.432,389.210 317.553,390.853 315.673 C 393.233 312.949,393.654 315.630,391.481 319.665 M387.000 329.832 C 387.000 332.942,382.906 344.894,381.060 347.174 C 378.402 350.457,375.635 348.978,376.527 344.751 C 378.384 335.948,387.000 323.675,387.000 329.832 " style="stroke: none; fill: black;">
                    </path></svg>