<svg id="svg-path" width="100%" height="100%" viewBox="0 0 512 512" version="1.1" xmlns="http://www.w3.org/2000/svg" style="fill-rule:evenodd;clip-rule:evenodd;stroke-linejoin:round;stroke-miterlimit:2;">
                        <path d="M113.452 98.914 C 108.408 101.808,104.744 105.539,98.655 113.985 C 95.872 117.844,94.591 118.693,89.461 120.072 C 81.568 122.193,68.110 128.551,67.356 130.514 C 67.027 131.372,67.555 132.956,68.530 134.034 C 70.145 135.818,71.487 135.971,83.538 135.746 C 98.985 135.459,98.981 135.457,103.914 145.478 C 106.097 149.911,108.827 153.385,112.904 156.917 C 118.932 162.139,121.000 166.453,121.000 173.804 C 121.000 175.409,122.138 180.272,123.530 184.611 C 124.921 188.950,126.332 194.412,126.665 196.749 C 127.008 199.148,128.241 201.979,129.497 203.249 C 132.891 206.682,135.000 211.483,135.000 215.775 C 135.000 219.727,135.948 221.140,141.250 225.095 C 143.906 227.075,143.979 227.377,143.377 233.857 C 142.859 239.422,143.110 241.350,144.842 245.154 C 145.991 247.676,147.326 251.495,147.808 253.639 C 148.290 255.784,149.767 259.331,151.092 261.522 C 152.416 263.713,154.625 267.707,156.000 270.397 C 157.375 273.088,162.775 279.651,168.000 284.982 C 173.225 290.313,179.975 297.273,183.000 300.449 C 186.025 303.625,191.875 308.485,196.000 311.250 C 206.935 318.580,207.566 319.323,214.027 332.485 C 225.370 355.591,227.068 357.912,232.668 357.968 C 234.411 357.986,236.560 358.278,237.444 358.617 C 239.858 359.543,251.596 373.623,255.038 379.721 C 259.387 387.428,264.288 388.635,272.373 383.991 C 275.250 382.339,290.243 375.920,294.192 374.651 C 297.796 373.493,299.124 369.666,298.394 362.543 C 297.833 357.063,297.287 355.579,295.372 354.324 C 293.499 353.097,292.404 353.012,289.868 353.896 C 288.126 354.503,284.667 355.000,282.179 355.000 C 278.103 355.000,277.218 354.541,273.198 350.346 L 268.738 345.692 269.343 338.096 C 269.890 331.238,269.676 329.869,267.144 324.000 C 265.601 320.425,262.013 313.469,259.169 308.542 C 256.326 303.615,254.000 298.869,254.000 297.996 C 254.000 293.921,242.953 279.732,227.914 264.491 C 207.707 244.011,204.780 238.436,211.089 232.437 C 216.196 227.582,217.297 224.611,216.084 218.957 C 214.805 212.993,215.276 211.611,219.467 209.020 C 224.132 206.138,225.672 206.430,233.319 211.651 C 238.531 215.210,241.304 216.419,245.089 216.783 C 248.877 217.147,250.566 217.884,252.282 219.923 C 257.806 226.489,260.000 224.776,260.000 213.898 C 260.000 205.340,262.013 198.599,265.055 196.971 C 266.052 196.437,269.288 196.000,272.245 196.000 C 275.611 196.000,280.005 195.066,284.000 193.500 C 292.038 190.350,295.531 190.398,305.500 193.795 C 313.318 196.458,313.491 196.589,313.118 199.510 C 312.907 201.155,312.560 220.122,312.345 241.660 L 311.955 280.820 314.319 282.679 C 315.619 283.701,317.120 285.429,317.655 286.519 C 318.189 287.609,318.728 295.925,318.852 305.000 C 319.101 323.298,319.648 328.914,321.649 333.701 C 322.392 335.480,323.001 340.213,323.001 344.218 C 323.003 355.982,326.885 371.919,329.776 372.027 C 331.556 372.094,340.459 381.146,345.003 387.510 C 358.644 406.615,358.059 405.501,360.129 416.332 C 363.355 433.208,363.383 433.968,361.023 440.240 C 359.835 443.398,357.079 448.348,354.898 451.240 C 349.817 457.978,349.223 460.401,351.577 464.774 C 353.800 468.900,358.695 471.544,362.393 470.616 C 363.826 470.257,368.711 466.146,373.249 461.482 C 377.787 456.817,382.299 453.001,383.275 453.001 C 384.441 453.000,385.252 454.012,385.640 455.949 C 385.964 457.571,387.109 459.693,388.183 460.666 C 389.953 462.268,390.387 462.293,392.800 460.939 C 394.266 460.116,396.748 456.933,398.317 453.865 C 400.658 449.287,401.345 446.243,402.148 436.893 C 402.685 430.627,403.335 423.250,403.592 420.500 C 404.123 414.821,404.029 414.639,398.285 410.168 C 391.372 404.788,387.375 394.676,383.988 374.000 C 383.492 370.975,382.357 366.479,381.465 364.009 C 380.506 361.353,380.095 358.289,380.459 356.509 C 380.798 354.854,381.514 346.750,382.051 338.500 C 383.365 318.329,384.307 310.979,385.961 308.000 C 386.929 306.257,387.365 301.714,387.401 293.000 C 387.449 281.280,387.255 280.001,384.304 272.500 C 382.573 268.100,380.611 262.623,379.945 260.330 C 379.278 258.036,376.768 253.765,374.366 250.837 L 370.000 245.514 370.024 235.507 C 370.037 230.003,370.495 223.700,371.041 221.500 C 371.588 219.300,372.028 213.132,372.020 207.792 C 372.002 196.619,372.745 194.483,377.898 190.887 C 379.957 189.450,382.431 186.611,383.395 184.579 C 384.360 182.547,387.307 178.847,389.945 176.357 C 394.057 172.476,394.823 171.139,395.316 166.984 C 395.631 164.318,396.814 160.324,397.945 158.108 C 399.075 155.893,400.000 153.306,400.000 152.360 C 400.000 151.413,398.152 147.803,395.894 144.337 L 391.787 138.034 393.526 133.197 C 395.174 128.616,395.175 128.170,393.541 124.728 C 391.406 120.229,387.316 118.624,381.500 120.004 C 379.300 120.525,374.272 120.963,370.326 120.976 C 363.508 120.999,363.037 120.850,360.826 117.974 C 354.428 109.648,354.202 109.452,352.311 110.565 C 351.315 111.151,349.600 113.453,348.500 115.681 C 345.495 121.768,344.364 122.719,339.218 123.485 C 336.623 123.871,333.876 124.701,333.113 125.329 C 331.226 126.884,328.395 133.700,327.544 138.741 C 326.222 146.564,324.876 146.298,315.210 136.311 C 305.349 126.122,299.306 121.686,291.733 119.079 C 288.855 118.088,284.925 116.317,283.000 115.142 C 278.655 112.492,276.422 112.468,269.761 114.999 C 262.306 117.833,259.285 117.563,253.654 113.559 C 247.364 109.087,244.484 108.547,236.820 110.400 C 233.344 111.241,227.338 111.857,223.473 111.768 C 216.733 111.613,216.224 111.771,210.973 115.631 C 207.963 117.845,203.250 120.931,200.500 122.489 C 197.750 124.048,194.150 126.560,192.500 128.071 C 188.774 131.483,184.074 133.444,173.479 136.005 C 160.537 139.134,159.884 138.906,158.026 130.615 C 156.251 122.695,149.951 109.812,145.579 105.160 C 136.654 95.664,123.557 93.118,113.452 98.914 M249.172 127.299 C 251.553 129.114,254.676 132.827,256.113 135.549 C 258.764 140.572,262.247 142.887,265.359 141.693 C 266.235 141.356,267.892 139.080,269.042 136.635 C 272.922 128.380,279.192 128.227,283.035 136.293 C 284.199 138.738,286.811 141.738,289.269 143.455 C 301.121 151.733,306.000 157.262,306.000 162.410 C 306.000 164.473,305.332 165.091,302.250 165.879 C 300.188 166.407,293.286 168.225,286.912 169.919 C 280.539 171.614,274.332 173.000,273.119 173.000 C 271.907 173.000,268.796 174.944,266.207 177.320 C 263.618 179.697,259.996 182.682,258.157 183.955 C 256.282 185.253,253.992 188.186,252.942 190.634 C 251.496 194.008,250.540 195.000,248.736 195.000 C 247.451 195.000,245.921 194.521,245.335 193.935 C 244.749 193.349,240.947 192.019,236.885 190.978 C 231.690 189.647,229.055 188.418,228.000 186.834 C 224.292 181.268,221.670 179.187,215.139 176.624 C 211.292 175.115,207.610 173.235,206.955 172.445 C 205.979 171.270,207.806 168.887,217.058 159.262 C 229.424 146.399,234.000 140.076,234.000 135.851 C 234.000 131.844,235.674 128.806,239.289 126.250 C 243.431 123.322,244.040 123.387,249.172 127.299 " style="stroke: none; fill: black;">
                    </path></svg>