<svg id="svg-path" width="100%" height="100%" viewBox="0 0 512 512" version="1.1" xmlns="http://www.w3.org/2000/svg" style="fill-rule:evenodd;clip-rule:evenodd;stroke-linejoin:round;stroke-miterlimit:2;">
                        <path d="M216.119 31.847 C 209.378 35.515,208.015 43.674,212.740 52.079 C 215.473 56.941,215.475 56.962,213.637 60.227 C 211.934 63.251,206.699 68.191,189.203 83.282 C 173.563 96.771,169.732 100.510,166.570 105.369 C 164.734 108.191,160.670 112.975,157.539 116.000 C 148.551 124.683,147.549 128.693,153.408 132.532 C 157.447 135.178,162.232 132.941,170.479 124.551 C 179.508 115.367,187.331 106.477,190.490 101.812 C 193.763 96.980,206.568 87.000,209.495 87.000 C 212.161 87.000,213.000 88.678,213.000 94.005 C 213.000 100.090,209.653 103.180,199.588 106.386 C 191.826 108.858,190.639 109.595,186.027 114.798 C 181.552 119.845,177.201 127.605,169.090 145.000 C 167.936 147.475,165.424 152.200,163.508 155.500 C 160.720 160.302,160.021 162.568,160.012 166.850 C 159.999 172.627,159.713 173.020,149.055 181.866 C 145.208 185.060,145.000 185.516,145.000 190.775 C 145.000 195.837,144.491 197.106,139.128 205.409 C 135.899 210.409,132.096 216.750,130.679 219.500 C 129.262 222.250,125.154 227.616,121.551 231.424 C 113.815 239.601,113.261 242.299,117.980 248.814 C 123.146 255.945,127.560 257.090,137.631 253.911 C 142.829 252.271,147.000 241.159,147.000 228.954 C 147.000 221.540,148.593 217.563,153.723 212.171 C 157.598 208.097,157.845 208.000,164.298 208.000 C 172.120 208.000,175.497 209.310,176.880 212.880 C 177.438 214.321,178.046 220.900,178.231 227.500 C 178.558 239.187,178.682 239.761,182.982 249.500 C 187.404 259.516,191.654 265.000,194.995 265.000 C 195.976 265.000,197.832 265.853,199.120 266.896 L 201.461 268.792 197.704 283.146 C 190.769 309.645,188.106 323.902,186.055 345.500 C 185.533 351.000,183.989 360.100,182.623 365.723 C 181.257 371.345,179.631 379.445,179.009 383.723 C 178.387 388.000,177.423 394.650,176.866 398.500 C 175.805 405.848,174.607 410.504,172.496 415.500 C 171.798 417.150,169.954 421.650,168.397 425.500 C 165.723 432.113,159.835 442.751,154.081 451.364 C 148.386 459.890,147.032 462.637,147.016 465.693 C 146.996 469.674,149.998 472.000,155.157 472.000 C 161.082 472.000,163.651 470.494,172.892 461.603 C 178.596 456.116,183.394 452.456,186.806 450.988 C 189.671 449.756,193.403 447.166,195.100 445.233 L 198.185 441.719 197.522 429.610 C 196.816 416.736,197.398 413.707,202.822 402.000 C 208.827 389.038,212.516 377.097,213.542 367.300 C 214.249 360.553,218.828 343.094,225.686 321.000 C 229.738 307.945,235.115 296.841,238.781 293.958 C 242.375 291.131,247.867 291.394,251.277 294.556 C 256.475 299.375,264.053 316.786,268.882 335.000 C 269.976 339.125,272.217 346.584,273.863 351.574 C 275.509 356.565,277.574 364.440,278.451 369.074 C 281.261 383.928,284.084 393.280,288.539 402.500 C 296.696 419.379,298.312 424.520,297.733 431.735 C 296.918 441.886,297.764 445.451,302.179 450.466 C 304.893 453.550,308.691 456.157,314.579 458.981 C 319.247 461.220,325.227 464.603,327.867 466.500 C 334.646 471.370,340.813 473.953,345.727 473.978 C 349.142 473.996,350.267 473.521,351.587 471.507 C 354.147 467.601,352.592 464.276,344.837 457.073 C 326.235 439.794,322.385 431.353,314.924 391.500 C 313.792 385.450,311.078 373.898,308.893 365.830 C 306.709 357.761,304.502 348.761,303.990 345.830 C 303.478 342.898,302.326 337.350,301.430 333.500 C 299.583 325.560,298.853 322.009,296.604 310.024 C 295.730 305.362,293.391 295.012,291.408 287.024 C 289.424 279.036,287.780 270.025,287.754 267.000 C 287.659 255.835,289.011 215.421,289.559 213.076 C 289.871 211.743,291.457 208.798,293.085 206.531 C 295.098 203.729,296.375 200.343,297.075 195.955 C 297.642 192.405,299.174 187.154,300.480 184.287 C 303.551 177.548,306.058 176.778,312.548 180.581 C 315.136 182.098,319.464 183.688,322.164 184.115 C 327.022 184.883,329.970 186.705,339.687 194.948 C 341.990 196.902,347.083 200.750,351.005 203.500 C 360.932 210.461,366.000 218.611,366.000 227.616 C 366.000 232.254,370.648 245.996,373.098 248.604 C 377.699 253.502,386.089 251.212,392.535 243.298 C 397.520 237.178,397.818 235.816,395.112 231.500 C 391.657 225.988,357.696 184.766,346.093 172.000 C 342.329 167.859,342.003 167.053,342.001 161.898 C 341.999 154.209,339.357 150.480,330.737 146.000 C 323.530 142.255,309.206 128.654,303.500 120.138 C 299.681 114.438,296.605 112.201,290.436 110.635 C 284.052 109.014,282.766 106.637,284.163 99.038 C 284.716 96.034,285.805 92.344,286.584 90.838 C 288.400 87.326,288.366 81.635,286.497 76.271 C 285.344 72.959,285.273 71.494,286.173 69.521 C 288.524 64.360,293.652 66.992,301.041 77.151 C 303.806 80.953,306.907 85.062,307.932 86.282 C 308.957 87.502,312.449 91.650,315.691 95.500 C 318.933 99.350,323.111 104.469,324.976 106.875 C 330.606 114.141,338.122 115.417,340.790 109.561 C 342.161 106.553,340.529 103.512,332.500 94.107 C 323.141 83.143,317.591 75.990,313.645 69.808 C 309.321 63.032,296.365 51.521,288.284 47.277 C 285.103 45.606,280.025 43.696,277.000 43.033 C 273.975 42.370,267.442 40.520,262.483 38.923 C 235.546 30.247,222.671 28.282,216.119 31.847 " style="stroke: none; fill: black;">
                    </path></svg>