<svg id="svg-path" width="100%" height="100%" viewBox="0 0 512 512" version="1.1" xmlns="http://www.w3.org/2000/svg" style="fill-rule:evenodd;clip-rule:evenodd;stroke-linejoin:round;stroke-miterlimit:2;">
                        <path d="M242.500 198.921 C 241.400 199.358,237.575 200.022,234.000 200.397 C 224.368 201.406,215.852 203.114,212.789 204.651 C 208.825 206.640,205.241 213.487,204.494 220.500 C 204.142 223.800,204.392 236.400,205.049 248.500 C 206.411 273.607,207.293 290.777,208.901 323.500 C 210.089 347.676,211.410 354.948,215.219 358.258 C 216.331 359.225,220.296 360.944,224.030 362.078 C 230.028 363.900,232.668 364.085,246.660 363.667 C 267.984 363.030,292.300 361.349,298.886 360.057 C 301.849 359.476,306.302 359.000,308.782 359.000 C 314.299 359.000,320.931 355.140,323.451 350.462 C 324.842 347.878,325.051 345.838,324.532 339.881 C 324.179 335.821,323.577 314.275,323.195 292.000 C 322.798 268.839,322.085 250.858,321.530 250.000 C 320.993 249.169,320.539 239.804,320.512 229.000 C 320.457 206.849,319.938 204.880,312.991 200.495 L 309.040 198.000 276.770 198.063 C 259.021 198.098,243.600 198.484,242.500 198.921 " style="stroke: none; fill: black;">
                    </path></svg>