<svg id="svg-path" width="100%" height="100%" viewBox="0 0 512 512" version="1.1" xmlns="http://www.w3.org/2000/svg" style="fill-rule:evenodd;clip-rule:evenodd;stroke-linejoin:round;stroke-miterlimit:2;">
                        <path d="M177.812 32.324 C 174.002 34.247,173.288 35.170,171.679 40.253 C 170.639 43.540,169.031 46.448,167.929 47.038 C 165.186 48.506,165.420 54.415,168.551 62.727 C 171.329 70.104,173.896 79.011,177.709 94.500 C 179.581 102.105,180.361 108.812,180.965 122.500 C 181.712 139.437,182.924 146.629,185.954 152.113 C 187.883 155.604,188.935 166.489,189.468 188.500 C 189.774 201.150,190.454 214.650,190.980 218.500 C 192.496 229.616,192.234 250.911,190.511 256.591 C 189.452 260.082,189.019 266.285,189.011 278.064 C 188.995 301.763,192.482 325.511,197.352 334.879 C 212.139 363.321,212.737 364.904,216.474 385.500 C 223.673 425.184,222.971 423.039,231.882 432.581 C 239.414 440.646,241.000 444.562,241.000 455.099 C 241.000 462.526,244.513 468.000,249.278 468.000 C 250.053 468.000,253.536 466.087,257.017 463.750 C 265.033 458.368,269.130 458.211,277.443 462.967 C 285.383 467.510,289.552 467.310,298.871 461.938 C 303.306 459.381,306.629 456.684,307.557 454.890 C 308.943 452.209,308.861 451.333,306.495 443.575 C 303.722 434.485,302.759 422.229,304.634 419.898 C 305.253 419.129,306.512 415.871,307.434 412.659 C 308.924 407.462,308.985 404.870,307.985 389.159 C 306.938 372.697,307.007 370.652,309.001 359.000 C 311.368 345.163,311.827 335.085,310.574 324.449 C 309.898 318.714,310.047 316.809,311.372 314.248 C 313.398 310.330,313.434 305.765,311.500 298.339 C 310.675 295.171,309.995 288.512,309.988 283.540 C 309.977 275.346,309.641 273.752,306.401 266.500 C 300.378 253.018,299.723 249.366,300.400 233.000 C 300.972 219.157,301.631 211.233,303.979 190.000 C 304.557 184.775,305.402 174.875,305.857 168.000 C 306.574 157.164,307.097 154.601,309.782 148.745 C 314.276 138.943,314.611 134.887,312.013 121.733 L 309.793 110.500 312.072 99.000 C 313.326 92.675,314.544 83.675,314.780 79.000 C 315.208 70.520,313.527 51.809,312.089 49.039 C 311.672 48.235,309.811 46.729,307.954 45.691 C 306.097 44.654,304.110 43.239,303.539 42.549 C 301.664 40.282,297.596 38.000,295.429 38.000 C 293.888 38.000,292.884 39.069,291.777 41.885 C 290.825 44.309,289.170 46.287,287.376 47.143 C 284.786 48.379,284.450 49.112,284.000 54.508 C 283.552 59.871,282.753 62.317,278.648 70.900 C 277.010 74.325,275.864 73.879,273.012 68.707 C 271.630 66.202,269.375 62.932,268.000 61.440 C 264.190 57.307,256.018 52.380,250.021 50.599 C 232.976 45.537,213.223 54.022,205.639 69.662 C 204.616 71.773,203.378 74.281,202.889 75.236 C 202.400 76.191,202.000 77.654,202.000 78.486 C 202.000 80.299,200.048 80.543,199.889 78.750 C 199.630 75.823,200.301 72.319,201.604 69.800 C 203.671 65.802,203.422 57.692,201.171 55.655 C 200.165 54.745,198.601 54.000,197.694 54.000 C 195.084 54.000,193.061 49.881,192.356 43.128 C 191.241 32.460,185.699 28.343,177.812 32.324 M266.500 415.765 C 268.045 416.900,274.542 425.222,275.930 427.843 C 277.473 430.758,276.518 435.000,274.319 435.000 C 271.765 435.000,264.466 430.360,262.642 427.576 C 260.574 424.421,260.539 420.103,262.557 417.223 C 264.216 414.854,264.910 414.597,266.500 415.765 " style="stroke: none; fill: black;">
                    </path></svg>