<svg id="svg-path" width="100%" height="100%" viewBox="0 0 512 512" version="1.1" xmlns="http://www.w3.org/2000/svg" style="fill-rule:evenodd;clip-rule:evenodd;stroke-linejoin:round;stroke-miterlimit:2;">
                        <path d="M254.353 99.926 C 249.246 103.040,248.154 108.574,247.131 136.526 C 246.509 153.536,246.196 156.012,244.178 159.883 C 242.784 162.557,241.360 168.211,240.453 174.670 C 238.753 186.779,237.368 189.991,232.566 192.959 C 225.698 197.204,224.266 199.944,223.487 210.330 C 223.099 215.502,222.494 220.172,222.141 220.707 C 221.788 221.242,219.515 223.106,217.088 224.848 C 214.662 226.591,212.088 228.857,211.369 229.884 C 210.013 231.820,207.452 248.498,205.976 265.000 C 205.509 270.225,204.382 277.425,203.471 281.000 C 202.332 285.472,201.694 293.187,201.426 305.727 C 200.958 327.676,200.337 329.574,191.759 335.246 C 182.890 341.112,182.449 342.177,183.664 354.808 L 184.685 365.422 189.012 368.961 C 199.135 377.240,201.766 380.555,203.024 386.617 C 203.682 389.785,203.940 394.419,203.598 396.915 C 203.256 399.411,203.278 408.827,203.648 417.840 C 204.270 433.021,204.491 434.430,206.648 436.993 C 209.608 440.511,212.025 441.128,215.762 439.318 C 220.069 437.232,221.036 434.159,222.140 419.037 C 222.684 411.592,223.481 400.657,223.911 394.737 C 224.341 388.818,224.874 383.821,225.096 383.635 C 228.777 380.538,232.440 381.396,234.092 385.742 C 235.464 389.350,235.370 402.256,233.903 411.840 C 232.921 418.253,232.941 421.308,234.003 427.517 C 235.771 437.853,238.318 441.000,244.915 441.000 C 250.021 441.000,253.066 438.817,254.488 434.136 C 254.884 432.837,254.665 421.812,254.003 409.636 C 252.620 384.206,253.100 379.673,257.227 379.190 C 262.481 378.574,263.467 382.425,264.988 409.500 C 266.072 428.795,266.988 433.059,270.669 435.955 C 273.939 438.526,279.725 438.580,282.736 436.067 C 288.348 431.385,288.714 423.956,285.312 383.842 C 284.670 376.273,285.955 374.000,290.880 374.000 C 298.063 374.000,298.516 375.499,301.005 407.500 C 302.409 425.555,302.632 426.513,306.111 429.440 C 311.591 434.051,317.313 431.863,319.033 424.500 C 319.547 422.300,319.929 410.825,319.883 399.000 C 319.837 387.175,320.133 376.150,320.541 374.500 C 322.142 368.031,324.881 364.200,329.583 361.851 C 336.640 358.327,339.000 354.947,339.000 348.366 C 339.000 333.579,333.920 326.584,323.986 327.694 C 318.429 328.315,314.595 325.705,312.984 320.205 C 310.799 312.743,310.108 299.671,311.175 286.000 C 312.077 274.446,311.992 271.419,310.582 265.000 C 309.675 260.875,308.231 253.675,307.371 249.000 C 304.499 233.377,303.908 231.811,298.859 226.458 C 293.811 221.106,292.114 216.555,291.976 208.000 C 291.882 202.115,289.311 197.032,285.160 194.521 C 283.323 193.409,280.445 191.342,278.766 189.927 C 275.795 187.423,275.694 187.053,275.062 176.336 C 274.453 166.002,274.198 164.983,270.956 159.930 L 267.500 154.542 267.434 133.021 C 267.356 107.285,266.880 103.918,262.838 100.517 C 259.250 97.498,258.429 97.441,254.353 99.926 M267.420 197.356 C 269.808 198.920,272.000 205.365,272.000 210.821 C 272.000 215.445,274.618 220.557,280.066 226.573 C 282.834 229.630,285.586 233.339,286.181 234.815 C 286.778 236.297,287.376 245.564,287.516 255.500 C 287.765 273.253,288.445 279.740,291.498 293.500 C 292.486 297.956,293.262 308.313,293.632 322.000 C 294.213 343.483,294.212 343.503,291.820 347.000 C 288.067 352.489,284.692 353.147,257.223 353.748 C 221.022 354.540,221.717 355.128,221.509 323.500 C 221.361 300.993,223.251 273.805,225.477 266.415 C 226.292 263.712,227.468 257.000,228.091 251.500 C 229.759 236.772,231.320 232.373,237.067 226.208 C 239.780 223.297,242.020 220.822,242.044 220.708 C 242.068 220.593,242.471 215.861,242.941 210.192 C 243.900 198.617,244.918 196.695,250.833 195.287 C 255.363 194.208,264.322 195.326,267.420 197.356 " style="stroke: none; fill: black;">
                    </path></svg>