<svg id="svg-path" width="100%" height="100%" viewBox="0 0 512 512" version="1.1" xmlns="http://www.w3.org/2000/svg" style="fill-rule:evenodd;clip-rule:evenodd;stroke-linejoin:round;stroke-miterlimit:2;">
                        <path d="M140.500 142.638 C 129.843 146.726,129.142 147.187,127.558 151.146 C 126.701 153.288,126.000 156.140,126.000 157.483 C 126.000 158.827,125.100 162.209,124.000 165.000 C 121.277 171.908,121.479 175.653,125.000 183.500 C 129.352 193.200,129.146 198.370,124.157 204.682 C 122.043 207.356,118.822 212.234,116.999 215.522 C 115.176 218.810,112.714 223.075,111.527 225.000 C 110.340 226.925,108.342 231.067,107.087 234.204 C 105.832 237.342,102.824 243.122,100.402 247.049 C 97.981 250.976,96.000 254.525,96.000 254.935 C 96.000 255.345,94.655 259.690,93.012 264.590 C 91.059 270.413,90.011 275.579,89.986 279.500 C 89.963 283.111,88.963 288.473,87.474 292.965 C 85.715 298.273,85.003 302.607,85.009 307.965 C 85.024 319.548,87.908 323.792,105.754 338.500 C 112.847 344.346,114.852 347.268,113.163 349.303 C 111.514 351.291,96.193 353.301,85.078 352.989 C 64.479 352.411,65.328 352.343,62.736 354.777 C 61.348 356.082,59.582 359.681,58.604 363.201 C 57.005 368.953,54.255 373.135,46.251 381.990 C 45.013 383.359,44.000 385.652,44.000 387.085 C 44.000 389.893,46.718 393.000,49.173 393.000 C 50.007 393.000,54.861 390.015,59.961 386.367 C 65.061 382.719,71.318 379.092,73.867 378.307 C 76.883 377.378,87.053 376.561,103.000 375.967 C 137.306 374.690,141.896 373.832,148.222 367.505 C 154.266 361.461,153.996 353.176,147.322 339.883 C 145.495 336.244,144.000 332.397,144.000 331.333 C 144.000 328.875,145.858 327.000,148.295 327.000 C 151.286 327.000,163.791 331.037,164.808 332.331 C 165.314 332.974,166.010 336.687,166.355 340.583 C 167.514 353.656,173.350 372.475,179.510 383.000 C 180.571 384.813,180.809 387.148,180.376 391.500 C 179.438 400.939,179.679 401.040,201.365 400.295 C 217.269 399.748,219.512 399.456,222.324 397.561 C 226.114 395.007,227.907 390.798,226.122 388.647 C 225.449 387.837,222.560 386.855,219.700 386.466 C 214.001 385.690,204.528 381.358,201.712 378.238 C 200.725 377.146,199.267 372.727,198.458 368.379 C 197.651 364.046,196.540 358.568,195.988 356.207 C 194.364 349.259,192.000 331.070,192.000 325.522 C 192.000 319.191,188.177 311.000,183.589 307.500 C 181.827 306.156,176.136 302.956,170.943 300.389 C 165.749 297.822,160.262 294.853,158.750 293.793 C 155.709 291.660,155.106 287.987,157.474 286.022 C 158.284 285.349,159.229 283.295,159.574 281.457 C 159.961 279.394,162.595 275.318,166.455 270.807 C 169.895 266.788,174.176 260.897,175.969 257.717 C 179.740 251.026,180.905 250.309,196.511 245.080 C 204.957 242.249,210.713 239.488,218.466 234.545 C 224.246 230.860,230.556 227.409,232.487 226.876 C 236.573 225.748,237.291 223.000,233.500 223.000 C 230.479 223.000,230.337 221.659,233.000 218.273 C 235.708 214.830,235.525 213.651,232.405 214.435 C 229.858 215.074,229.822 215.011,230.493 211.043 C 231.286 206.346,230.096 205.792,227.179 209.500 C 224.608 212.768,223.004 212.672,222.985 209.250 C 222.976 207.738,222.599 205.916,222.146 205.203 C 221.067 203.501,219.564 205.299,218.557 209.494 C 217.277 214.831,214.396 216.811,213.820 212.750 C 213.644 211.512,212.825 210.500,212.000 210.500 C 210.896 210.500,210.420 211.882,210.198 215.729 C 209.855 221.685,207.694 224.000,202.477 224.000 C 196.884 224.000,195.234 219.514,199.046 214.669 C 200.171 213.238,201.714 209.690,202.474 206.784 C 203.235 203.878,204.162 200.713,204.536 199.750 C 205.432 197.437,203.136 197.437,201.428 199.750 C 199.553 202.287,197.367 200.051,198.907 197.173 C 200.412 194.361,200.276 192.000,198.608 192.000 C 197.843 192.000,196.926 193.157,196.572 194.571 C 195.796 197.659,193.778 197.296,192.982 193.926 C 192.618 192.381,191.700 191.500,190.455 191.500 C 188.842 191.500,188.412 192.376,188.000 196.500 C 187.725 199.250,186.763 202.625,185.861 204.000 C 184.960 205.375,183.700 208.152,183.060 210.170 C 181.645 214.637,179.738 216.369,177.140 215.545 C 174.016 214.553,173.838 212.212,176.508 207.197 C 179.302 201.949,179.621 197.710,177.500 194.000 C 174.695 189.093,176.290 184.738,183.681 177.117 C 185.884 174.847,185.963 174.259,185.369 164.617 C 184.670 153.279,183.502 150.493,176.975 144.597 C 172.633 140.674,170.551 140.192,167.983 142.515 C 166.973 143.430,163.626 144.208,159.541 144.478 C 154.165 144.833,151.982 144.521,148.926 142.962 C 146.811 141.883,144.949 141.023,144.790 141.052 C 144.630 141.080,142.700 141.794,140.500 142.638 M330.605 149.251 C 327.363 151.009,323.199 153.916,321.352 155.709 C 317.059 159.879,311.000 169.323,311.000 171.847 C 311.000 172.915,312.800 178.276,315.000 183.759 C 317.200 189.243,319.000 194.705,319.000 195.897 C 319.000 197.089,319.682 199.697,320.516 201.693 C 321.350 203.689,321.787 206.097,321.486 207.043 C 320.427 210.379,308.138 214.454,279.107 221.096 C 273.956 222.274,267.035 226.771,264.561 230.547 C 262.925 233.045,262.492 233.167,257.504 232.544 C 252.881 231.966,251.933 232.156,250.213 234.002 C 249.125 235.169,247.970 237.784,247.646 239.812 C 246.023 249.961,252.610 252.801,262.500 246.214 L 266.500 243.551 293.500 243.350 C 308.350 243.240,321.603 243.118,322.951 243.080 C 326.317 242.985,329.774 246.528,339.524 260.065 C 347.383 270.976,352.000 280.525,352.000 285.868 C 352.000 286.930,350.204 290.189,348.010 293.109 C 345.815 296.030,343.354 300.688,342.541 303.460 C 341.727 306.232,339.810 310.300,338.281 312.500 C 335.562 316.410,335.502 316.802,335.580 330.000 C 335.654 342.661,335.857 344.020,338.846 351.863 C 340.599 356.463,343.263 361.945,344.767 364.045 C 347.670 368.100,354.351 373.000,356.978 373.000 C 357.845 373.000,359.555 373.701,360.777 374.557 C 365.063 377.559,362.731 385.865,355.289 394.102 C 352.401 397.298,351.647 398.961,351.582 402.276 C 351.518 405.546,351.892 406.517,353.329 406.808 C 357.759 407.702,360.853 405.504,369.620 395.234 C 371.623 392.888,375.395 389.769,378.003 388.303 C 385.005 384.367,385.603 382.914,382.933 376.336 C 380.898 371.320,380.831 370.543,382.110 366.690 C 384.083 360.742,383.488 351.201,380.496 340.798 C 379.077 335.869,378.191 330.973,378.526 329.918 C 379.559 326.664,382.477 327.719,384.972 332.250 C 390.519 342.324,399.272 355.909,403.495 361.000 C 406.005 364.025,408.328 367.625,408.657 369.000 C 409.847 373.959,413.238 378.132,417.874 380.341 L 422.500 382.545 422.500 388.611 C 422.500 392.253,423.044 395.335,423.861 396.324 C 424.609 397.231,428.084 398.831,431.583 399.880 C 435.082 400.930,440.095 403.359,442.722 405.278 C 449.323 410.098,457.261 412.858,459.405 411.079 C 460.282 410.351,461.000 409.061,461.000 408.213 C 461.000 407.365,456.540 402.357,451.089 397.085 C 439.523 385.898,437.209 381.754,439.038 375.500 C 439.682 373.300,440.630 370.426,441.145 369.113 C 441.747 367.579,441.690 364.719,440.987 361.113 C 437.379 342.629,436.515 338.786,434.440 332.000 C 433.178 327.875,431.604 320.225,430.941 315.000 C 430.278 309.775,429.377 303.025,428.939 300.000 C 425.526 276.443,425.516 275.004,428.727 271.480 C 435.877 263.634,436.177 261.995,432.387 251.500 C 430.997 247.650,429.612 243.375,429.309 242.000 C 428.478 238.222,421.499 223.538,418.758 219.798 C 400.403 194.754,398.383 192.563,389.500 188.064 C 383.853 185.204,382.821 185.025,371.950 185.013 C 364.316 185.004,359.993 184.593,359.200 183.800 C 358.540 183.140,358.000 180.392,358.000 177.694 C 358.000 162.775,348.288 145.956,339.715 146.027 C 337.947 146.041,333.847 147.492,330.605 149.251 " style="stroke: none; fill: black;">
                    </path></svg>