<svg id="svg-path" width="100%" height="100%" viewBox="0 0 512 512" version="1.1" xmlns="http://www.w3.org/2000/svg" style="fill-rule:evenodd;clip-rule:evenodd;stroke-linejoin:round;stroke-miterlimit:2;">
                        <path d="M236.000 78.200 C 225.389 83.417,215.260 93.007,211.358 101.530 C 208.233 108.355,208.443 113.174,212.404 125.500 C 213.818 129.900,215.000 135.750,215.031 138.500 C 215.062 141.250,215.736 145.300,216.529 147.500 C 219.104 154.648,218.812 155.282,207.518 167.039 C 205.120 169.535,201.885 172.212,200.329 172.988 C 195.383 175.454,190.947 179.090,188.116 182.999 C 185.138 187.109,169.854 200.241,161.000 206.296 C 157.975 208.364,154.150 211.789,152.500 213.907 C 148.275 219.329,144.133 221.913,137.002 223.577 C 127.761 225.732,122.530 229.250,117.963 236.379 C 114.107 242.399,112.797 248.636,114.765 251.610 C 115.926 253.364,121.674 256.005,124.200 255.946 C 130.435 255.798,139.132 249.938,145.494 241.597 C 149.497 236.348,152.805 234.820,157.225 236.177 C 160.331 237.130,161.834 236.832,170.127 233.619 C 177.594 230.725,181.558 228.353,189.507 222.019 C 201.132 212.756,203.818 211.484,207.022 213.728 C 209.005 215.117,209.175 215.856,208.612 220.644 C 207.823 227.353,205.925 232.228,199.905 243.000 C 195.440 250.991,195.096 252.138,194.169 262.145 C 193.627 267.999,192.617 273.847,191.925 275.141 C 188.757 281.060,173.531 300.190,166.873 306.616 C 160.641 312.631,158.958 315.008,156.000 321.969 C 153.935 326.829,150.688 332.248,148.081 335.187 C 145.651 337.928,141.151 343.696,138.081 348.005 C 128.742 361.117,120.024 371.938,117.431 373.637 C 116.070 374.529,110.193 375.871,104.277 376.642 C 98.395 377.408,91.764 378.538,89.541 379.153 C 87.319 379.767,81.785 380.353,77.244 380.454 C 69.639 380.623,68.751 380.864,65.994 383.506 C 62.414 386.935,62.242 389.017,65.250 392.473 C 67.537 395.101,82.243 400.898,86.794 400.966 C 89.405 401.005,98.987 403.169,110.000 406.208 C 119.490 408.827,126.640 409.544,128.432 408.057 C 130.650 406.216,135.000 396.204,135.000 392.941 C 135.000 387.804,137.531 383.143,140.684 382.473 C 142.233 382.144,144.625 381.643,146.000 381.360 C 147.375 381.077,151.062 378.231,154.193 375.036 C 157.325 371.841,162.050 367.511,164.693 365.415 C 167.337 363.318,174.900 356.385,181.500 350.008 C 188.100 343.630,195.975 336.801,199.000 334.832 C 202.025 332.863,207.776 329.057,211.780 326.376 C 222.684 319.072,227.879 316.701,234.000 316.232 L 239.500 315.811 247.000 323.680 C 257.942 335.160,264.646 344.292,275.032 361.865 C 280.114 370.464,285.927 379.750,287.951 382.500 C 289.974 385.250,292.863 390.650,294.371 394.500 C 295.879 398.350,298.705 403.845,300.651 406.711 L 304.190 411.923 302.132 420.653 C 299.773 430.661,300.381 433.420,305.509 435.968 C 308.890 437.648,347.006 439.784,353.124 438.637 C 358.441 437.639,361.000 434.733,361.000 429.693 C 361.000 422.714,357.827 419.287,345.870 413.354 C 340.167 410.524,333.418 407.470,330.872 406.568 C 324.414 404.279,322.643 402.072,323.447 397.312 C 323.883 394.727,323.435 391.380,322.054 386.910 C 320.934 383.285,319.571 376.009,319.025 370.741 C 317.836 359.277,316.216 354.098,310.501 343.500 C 308.129 339.100,305.445 333.025,304.537 330.000 C 303.630 326.975,301.824 321.125,300.524 317.000 C 299.224 312.875,296.950 305.000,295.471 299.500 C 293.991 294.000,292.165 288.519,291.413 287.320 C 290.661 286.122,289.762 283.364,289.415 281.193 C 288.854 277.686,289.163 276.813,292.183 273.373 C 294.053 271.243,296.117 268.262,296.770 266.750 C 297.423 265.238,298.379 264.000,298.895 264.000 C 299.410 264.000,301.315 265.913,303.128 268.250 C 304.941 270.587,307.237 273.175,308.229 274.000 C 309.221 274.825,311.637 280.599,313.597 286.831 C 315.558 293.063,318.025 299.025,319.081 300.081 C 321.227 302.227,325.161 302.537,329.785 300.925 C 338.027 298.052,338.336 285.949,330.435 275.387 C 327.196 271.056,326.490 267.668,328.482 266.015 C 330.570 264.282,361.231 265.831,363.167 267.767 C 363.843 268.443,364.702 271.957,365.077 275.577 C 365.452 279.197,366.284 282.685,366.928 283.329 C 368.560 284.963,434.101 285.551,437.077 283.959 C 439.126 282.862,439.160 282.337,438.887 256.124 L 438.608 229.407 442.435 223.107 L 446.262 216.807 445.803 192.873 C 445.380 170.790,445.188 168.728,443.316 166.219 C 439.897 161.635,432.522 160.906,392.771 161.223 L 358.043 161.500 355.271 164.271 L 352.500 167.042 352.177 192.771 C 351.814 221.641,352.358 225.631,356.787 226.534 C 365.470 228.304,367.346 232.889,361.650 238.420 C 357.117 242.822,354.091 243.384,342.425 241.991 C 337.119 241.357,331.728 241.102,330.446 241.424 C 325.962 242.550,323.131 240.170,321.117 233.585 C 318.641 225.486,316.545 216.030,314.007 201.500 C 311.226 185.575,308.628 177.974,303.938 172.041 C 299.740 166.731,291.221 161.206,284.000 159.112 C 276.005 156.793,273.438 154.564,270.598 147.468 C 267.381 139.432,267.270 133.461,270.233 127.781 C 274.183 120.207,273.588 96.568,269.154 84.904 C 267.542 80.665,262.446 76.350,257.613 75.133 C 249.470 73.082,245.165 73.693,236.000 78.200 " style="stroke: none; fill: black;">
                    </path></svg>