<svg id="svg-path" width="100%" height="100%" viewBox="0 0 512 512" version="1.1" xmlns="http://www.w3.org/2000/svg" style="fill-rule:evenodd;clip-rule:evenodd;stroke-linejoin:round;stroke-miterlimit:2;">
                        <path d="M322.566 102.893 C 320.855 105.662,315.089 107.316,304.526 108.067 C 288.163 109.230,280.959 112.456,279.605 119.225 C 278.669 123.907,277.245 125.000,272.081 125.000 C 267.984 125.000,266.961 125.464,263.813 128.750 C 259.118 133.651,257.267 137.485,256.407 144.094 C 255.686 149.633,255.170 151.298,248.132 170.819 C 243.097 184.782,241.110 188.501,233.612 198.000 C 226.236 207.343,224.685 210.921,224.723 218.500 C 224.760 225.808,226.354 229.813,232.376 237.732 C 234.919 241.076,237.000 244.278,237.000 244.847 C 237.000 247.141,234.789 247.000,231.840 244.518 C 230.124 243.075,228.071 242.142,227.278 242.447 C 226.485 242.751,225.448 243.000,224.974 243.000 C 224.499 243.000,221.896 245.250,219.189 248.000 C 214.919 252.337,213.740 253.000,210.289 253.000 C 207.746 253.000,205.761 252.368,204.788 251.250 C 202.368 248.467,201.785 241.703,203.524 236.580 C 204.756 232.952,204.817 231.679,203.833 230.104 C 201.334 226.103,198.540 225.795,189.232 228.494 C 178.721 231.541,177.203 231.573,170.955 228.885 C 164.200 225.979,160.044 226.825,156.767 231.773 C 155.372 233.881,152.343 236.476,149.796 237.747 C 145.791 239.746,144.751 239.875,140.396 238.914 C 137.703 238.320,132.314 237.601,128.421 237.316 C 121.918 236.841,120.828 237.058,115.036 239.982 C 109.010 243.024,106.494 245.290,90.967 261.665 C 87.924 264.874,83.526 268.997,81.194 270.826 C 75.953 274.937,71.020 283.261,71.016 288.000 C 71.014 289.925,71.805 292.701,72.773 294.169 C 76.817 300.300,95.007 315.090,109.526 324.052 C 125.384 333.841,131.026 335.409,138.493 332.106 C 141.549 330.755,145.331 330.000,149.050 330.000 C 153.774 330.000,155.396 329.537,157.818 327.500 C 161.694 324.238,163.399 324.347,166.016 328.023 C 168.581 331.625,173.885 334.491,179.813 335.479 C 183.138 336.033,185.515 335.677,190.198 333.926 C 195.304 332.017,197.003 330.711,200.878 325.721 C 203.859 321.882,207.179 318.930,210.282 317.357 C 213.428 315.763,215.402 313.994,216.023 312.214 C 219.447 302.387,227.316 298.598,236.409 302.398 C 239.659 303.756,239.766 303.987,240.184 310.543 C 240.564 316.517,240.934 317.533,243.411 319.396 C 246.055 321.385,252.617 327.674,255.558 331.038 C 256.298 331.883,260.331 333.429,264.521 334.472 C 271.003 336.086,272.363 336.802,273.637 339.264 C 275.649 343.155,275.090 354.875,271.671 380.500 C 270.203 391.500,269.002 401.930,269.001 403.679 C 268.999 409.755,275.412 412.354,278.558 407.551 C 280.556 404.503,282.965 382.810,283.006 367.500 C 283.043 353.780,284.519 339.285,286.070 337.416 C 286.716 336.637,288.794 336.000,290.688 336.000 C 294.739 336.000,298.000 334.478,298.000 332.587 C 298.000 329.495,300.795 328.631,306.430 329.983 C 313.468 331.672,316.302 330.826,321.596 325.455 C 324.012 323.005,326.554 320.951,327.244 320.891 C 327.935 320.831,333.519 320.871,339.653 320.981 C 349.256 321.152,351.479 320.875,355.653 318.989 C 358.961 317.494,363.340 316.624,369.447 316.249 C 380.914 315.545,383.177 314.186,390.615 303.535 C 396.470 295.151,398.280 293.755,405.000 292.440 C 412.483 290.977,420.992 284.455,421.005 280.173 C 421.008 279.253,422.119 276.700,423.474 274.500 C 424.829 272.300,425.952 269.329,425.969 267.898 C 426.054 260.829,415.170 253.048,405.154 253.017 C 398.657 252.996,395.712 251.343,390.783 244.947 C 384.837 237.230,379.628 234.771,367.081 233.758 C 357.515 232.986,353.190 232.365,344.750 230.552 C 341.049 229.758,341.253 227.823,345.748 221.104 C 351.371 212.698,353.000 208.434,352.996 202.141 C 352.992 195.857,350.807 191.230,346.517 188.419 C 344.450 187.065,342.657 186.861,337.470 187.393 C 331.030 188.053,331.000 188.044,331.000 185.508 C 331.000 184.107,332.121 180.202,333.490 176.831 C 334.860 173.460,336.467 167.282,337.062 163.101 C 337.657 158.920,338.554 152.604,339.055 149.065 C 340.081 141.828,341.396 137.133,343.836 132.000 C 346.005 127.438,345.887 117.593,343.612 113.207 C 340.405 107.024,324.754 99.353,322.566 102.893 M321.527 195.044 C 322.521 196.651,319.198 201.000,316.977 201.000 C 315.546 201.000,315.000 200.324,315.000 198.550 C 315.000 195.118,319.935 192.467,321.527 195.044 M270.996 259.495 C 271.996 260.700,271.918 261.476,270.595 263.495 C 269.692 264.873,268.140 266.000,267.146 266.000 C 264.987 266.000,262.487 261.780,263.336 259.567 C 264.108 257.554,269.344 257.504,270.996 259.495 " style="stroke: none; fill: black;">
                    </path></svg>