<svg id="svg-path" width="100%" height="100%" viewBox="0 0 512 512" version="1.1" xmlns="http://www.w3.org/2000/svg" style="fill-rule:evenodd;clip-rule:evenodd;stroke-linejoin:round;stroke-miterlimit:2;">
                        <path d="M271.000 105.220 C 269.075 106.527,266.825 107.910,266.000 108.293 C 265.175 108.676,262.286 110.586,259.580 112.537 C 255.774 115.281,254.042 115.949,251.933 115.485 C 248.387 114.706,242.438 117.218,241.768 119.777 C 241.084 122.394,241.938 123.646,245.270 124.913 C 248.903 126.294,248.810 129.314,245.000 133.653 C 242.915 136.028,242.000 138.115,242.000 140.497 C 242.000 142.383,241.074 146.399,239.943 149.422 C 238.313 153.779,238.120 155.356,239.013 157.024 C 240.477 159.760,238.944 161.667,233.347 164.066 C 229.635 165.657,228.566 165.712,223.833 164.563 C 214.143 162.210,209.110 159.262,200.168 150.706 C 195.401 146.144,189.700 141.107,187.500 139.514 C 179.963 134.057,177.067 130.721,175.400 125.576 C 173.499 119.713,169.874 115.342,165.282 113.377 C 160.659 111.399,159.207 111.639,155.923 114.923 C 151.206 119.640,151.786 124.160,158.119 132.051 C 160.935 135.560,163.734 139.571,164.338 140.965 C 165.685 144.070,174.657 157.406,180.556 165.072 C 188.384 175.246,203.670 185.782,215.179 188.937 C 217.753 189.643,220.903 191.331,222.179 192.687 C 224.713 195.381,224.395 192.000,226.950 243.500 C 227.469 253.950,228.171 263.850,228.510 265.500 C 229.003 267.893,227.904 270.970,223.082 280.702 C 219.757 287.414,215.532 295.289,213.693 298.202 C 211.854 301.116,208.595 307.325,206.452 312.000 C 202.528 320.557,196.611 330.944,192.495 336.500 C 191.273 338.150,188.412 343.264,186.137 347.865 C 183.862 352.465,180.033 359.215,177.627 362.865 C 175.221 366.514,171.088 373.775,168.444 379.000 C 160.960 393.786,149.600 408.000,145.266 408.000 C 144.691 408.000,141.583 409.915,138.360 412.255 C 135.137 414.596,130.025 417.348,127.000 418.371 C 121.435 420.254,118.000 423.034,118.000 425.656 C 118.000 426.445,119.105 428.195,120.455 429.545 C 122.633 431.724,123.770 432.000,130.560 432.000 C 134.768 432.000,140.751 431.367,143.856 430.592 C 146.960 429.818,154.225 428.626,160.000 427.943 C 166.299 427.197,171.200 426.098,172.250 425.195 C 173.675 423.969,174.000 422.022,174.000 414.706 L 174.000 405.723 179.323 399.111 C 189.115 386.948,198.721 373.575,204.545 363.995 C 207.720 358.773,212.873 351.125,215.996 347.000 C 219.118 342.875,222.969 337.475,224.553 335.000 C 228.871 328.253,232.771 323.913,238.258 319.750 C 242.873 316.249,243.663 316.000,250.166 316.000 C 260.088 316.000,261.814 317.176,267.033 327.493 C 269.864 333.089,272.024 340.390,274.578 353.000 C 275.525 357.675,277.357 365.263,278.650 369.862 C 279.942 374.461,281.000 379.196,281.000 380.385 C 281.000 382.425,283.134 391.265,288.028 409.500 C 291.253 421.516,291.155 430.910,287.717 439.254 C 283.814 448.725,284.137 449.210,298.304 455.141 C 311.646 460.727,321.479 463.960,325.185 463.980 C 330.477 464.009,333.851 462.442,334.557 459.629 C 335.408 456.240,333.591 453.343,329.217 451.110 C 324.719 448.814,322.574 446.480,321.303 442.500 C 320.777 440.850,318.806 438.457,316.923 437.182 C 312.585 434.244,311.080 431.525,311.035 426.544 C 311.016 424.368,310.346 418.293,309.546 413.044 C 308.746 407.795,307.185 396.975,306.077 389.000 C 304.968 381.025,303.318 369.550,302.410 363.500 C 300.082 347.990,295.762 299.285,294.321 272.295 C 293.810 262.726,293.939 261.763,296.388 256.848 C 299.247 251.111,299.599 247.270,297.860 240.764 C 296.788 236.753,296.937 236.072,300.360 229.275 C 302.362 225.301,304.000 221.544,304.000 220.926 C 304.000 218.707,307.188 213.142,308.827 212.498 C 309.747 212.137,320.680 211.438,333.122 210.945 C 353.098 210.153,356.692 209.749,363.839 207.491 C 374.609 204.089,387.085 194.800,388.500 189.130 C 389.472 185.232,391.819 183.103,398.498 180.061 C 401.799 178.557,406.012 176.047,407.860 174.482 C 410.990 171.832,411.188 171.308,410.756 166.809 C 410.117 160.163,407.932 158.000,401.861 158.000 C 396.223 158.000,392.974 160.407,387.731 168.466 C 385.954 171.197,382.996 174.443,381.157 175.679 C 376.802 178.606,367.795 181.983,361.500 183.048 C 358.750 183.513,353.125 184.810,349.000 185.930 C 344.875 187.050,340.856 187.973,340.068 187.983 C 337.045 188.019,322.826 183.683,321.448 182.305 C 319.307 180.164,319.687 174.886,322.342 169.894 C 327.756 159.711,327.865 154.678,322.786 149.273 L 320.613 146.959 322.768 145.450 C 325.031 143.865,326.985 138.433,326.994 133.700 C 327.000 130.896,324.724 125.578,322.620 123.481 C 320.104 120.971,311.272 114.869,308.000 113.378 C 306.075 112.502,301.790 110.522,298.477 108.979 C 292.820 106.344,286.108 104.496,278.000 103.341 C 275.392 102.970,273.608 103.448,271.000 105.220 " style="stroke: none; fill: black;">
                    </path></svg>