<svg id="svg-path" width="100%" height="100%" viewBox="0 0 512 512" version="1.1" xmlns="http://www.w3.org/2000/svg" style="fill-rule:evenodd;clip-rule:evenodd;stroke-linejoin:round;stroke-miterlimit:2;">
                        <path d="M370.004 80.496 C 368.425 82.177,366.578 83.000,364.385 83.000 C 362.588 83.000,360.874 83.394,360.576 83.877 C 360.278 84.359,360.735 87.111,361.590 89.993 C 364.428 99.549,360.935 103.231,346.778 105.609 C 340.825 106.609,334.454 108.542,329.000 111.003 C 324.325 113.112,318.925 115.291,317.000 115.844 C 315.075 116.398,310.125 118.294,306.000 120.058 C 300.053 122.600,297.005 123.288,291.282 123.382 L 284.065 123.500 277.282 116.828 C 269.475 109.148,253.450 96.900,247.296 93.909 C 241.835 91.255,225.290 88.727,216.965 89.273 C 207.109 89.920,202.314 92.563,192.090 102.985 C 183.904 111.330,183.008 113.236,183.004 122.316 C 183.002 126.614,183.472 131.014,184.049 132.092 C 185.759 135.287,191.206 160.068,192.636 171.158 C 193.227 175.739,193.166 175.867,188.957 178.917 C 186.602 180.622,183.988 183.026,183.148 184.259 C 178.890 190.501,166.226 204.244,159.427 210.000 C 155.204 213.575,148.993 218.923,145.624 221.884 C 142.256 224.845,136.108 229.906,131.961 233.132 C 127.187 236.846,123.373 240.793,121.561 243.896 C 118.364 249.370,114.252 251.918,104.525 254.452 C 97.712 256.226,96.904 256.906,94.645 262.770 C 91.742 270.306,92.678 274.152,98.127 277.068 C 99.530 277.819,101.116 277.787,103.632 276.957 C 105.771 276.250,109.272 276.053,112.504 276.457 C 117.833 277.123,117.851 277.116,123.282 272.197 C 128.460 267.508,129.126 267.213,137.111 266.081 C 141.725 265.427,147.517 264.140,149.981 263.222 C 155.758 261.069,180.829 248.212,183.410 246.079 C 184.009 245.583,188.965 242.463,194.422 239.145 C 205.702 232.288,205.863 232.293,211.268 239.733 C 215.463 245.508,216.687 250.789,217.473 266.500 C 217.905 275.141,218.792 280.875,220.640 286.984 C 223.779 297.358,223.489 301.124,218.743 311.676 C 216.808 315.979,213.995 322.796,212.494 326.826 C 210.969 330.918,208.115 336.056,206.028 338.468 C 203.799 341.043,201.804 344.723,201.082 347.590 C 200.416 350.233,197.650 357.047,194.936 362.731 C 192.221 368.416,190.000 373.497,190.000 374.022 C 190.000 374.548,186.859 381.396,183.020 389.239 C 177.200 401.131,175.772 405.074,174.427 412.979 C 173.540 418.192,172.113 423.815,171.255 425.473 C 169.934 428.027,162.598 438.426,161.006 440.000 C 158.984 441.999,151.962 453.264,151.837 454.707 C 151.504 458.584,152.115 459.805,154.981 460.992 C 159.179 462.731,162.452 461.593,167.895 456.502 C 171.422 453.202,173.739 451.906,177.052 451.376 C 179.954 450.912,182.478 449.676,184.352 447.801 C 186.942 445.212,187.153 444.503,186.542 440.434 C 185.560 433.880,187.339 429.551,192.465 426.024 C 198.360 421.968,200.930 418.635,204.868 409.938 C 211.651 394.960,213.255 391.881,220.988 379.000 C 223.134 375.425,225.754 370.475,226.811 368.000 C 227.868 365.525,231.383 359.900,234.621 355.500 C 237.859 351.100,241.407 345.755,242.504 343.623 C 248.023 332.902,261.686 322.612,270.500 322.541 C 274.677 322.507,276.449 323.135,281.268 326.359 C 290.467 332.514,299.221 341.738,301.331 347.500 C 302.338 350.250,305.571 357.450,308.516 363.500 C 311.460 369.550,314.169 375.625,314.536 377.000 C 314.903 378.375,318.477 386.250,322.479 394.500 C 326.481 402.750,330.524 412.176,331.463 415.448 C 332.402 418.719,334.422 423.894,335.952 426.948 C 337.482 430.001,339.061 434.737,339.461 437.471 C 340.371 443.683,344.873 448.404,350.790 449.350 C 353.987 449.862,356.039 451.327,361.617 457.079 C 373.450 469.281,381.541 471.351,384.977 463.055 C 387.609 456.701,385.787 453.473,368.750 434.319 L 364.000 428.979 364.000 420.012 C 364.000 409.587,361.982 403.213,353.980 388.368 C 350.521 381.951,348.441 376.468,346.983 369.926 C 343.733 355.335,338.617 343.322,332.572 336.086 C 330.607 333.735,329.000 331.209,329.000 330.475 C 329.000 328.741,321.647 306.356,318.378 298.140 C 316.219 292.711,316.021 291.364,317.025 288.940 C 318.371 285.689,326.327 278.021,333.299 273.254 C 339.171 269.239,340.394 266.363,339.110 259.587 C 338.579 256.789,337.873 252.142,337.540 249.261 C 337.010 244.683,334.182 235.970,323.657 206.500 C 322.282 202.650,320.157 195.809,318.935 191.298 L 316.713 183.097 319.575 177.440 C 322.728 171.208,332.416 161.573,341.778 155.359 C 349.526 150.216,351.504 147.836,356.197 138.000 C 359.067 131.986,360.482 127.461,361.036 122.527 C 361.940 114.463,364.140 111.776,371.266 110.033 C 377.743 108.448,382.342 105.784,383.778 102.782 C 384.903 100.430,384.813 99.480,383.107 95.735 C 381.700 92.645,381.296 90.210,381.697 87.222 C 382.108 84.160,381.888 82.923,380.879 82.614 C 377.996 81.731,376.434 80.980,374.428 79.510 C 372.518 78.111,372.171 78.189,370.004 80.496 M380.066 97.035 C 382.619 98.402,382.579 102.620,380.000 104.000 C 375.612 106.348,372.016 101.127,375.571 97.571 C 377.431 95.712,377.564 95.696,380.066 97.035 " style="stroke: none; fill: black;">
                    </path></svg>