<svg id="svg-path" width="100%" height="100%" viewBox="0 0 512 512" version="1.1" xmlns="http://www.w3.org/2000/svg" style="fill-rule:evenodd;clip-rule:evenodd;stroke-linejoin:round;stroke-miterlimit:2;">
                        <path d="M301.000 59.936 L 292.500 60.500 292.879 73.000 C 293.121 80.993,293.722 86.168,294.545 87.353 C 295.253 88.372,298.092 90.728,300.853 92.587 C 310.861 99.327,314.140 107.643,312.065 121.019 C 311.479 124.794,311.000 130.542,311.000 133.792 C 311.000 140.724,309.688 145.089,307.125 146.690 C 305.297 147.831,286.244 150.989,280.500 151.103 C 278.850 151.135,270.794 150.977,262.597 150.752 C 245.654 150.285,244.762 149.863,243.531 141.747 C 243.176 139.411,242.497 136.600,242.021 135.500 C 239.529 129.742,237.634 123.071,234.612 109.422 C 231.053 93.347,230.676 92.371,224.500 83.257 C 220.509 77.367,211.943 70.106,206.418 67.928 C 191.819 62.175,170.804 62.841,160.834 69.373 C 157.687 71.435,151.779 79.282,148.584 85.645 C 146.068 90.655,146.000 91.307,146.000 110.417 C 146.000 129.843,146.029 130.108,148.836 136.272 C 152.660 144.667,155.928 148.274,164.120 153.141 C 171.422 157.479,180.485 167.098,181.652 171.750 C 182.691 175.890,175.943 188.029,170.911 191.074 C 168.705 192.408,162.529 196.260,157.185 199.633 C 133.356 214.675,129.687 215.575,119.000 209.000 C 115.425 206.801,112.084 205.001,111.575 205.001 C 109.059 204.999,93.739 196.479,91.528 193.851 C 88.477 190.225,88.374 187.669,90.999 180.761 C 93.704 173.644,93.511 170.423,90.011 164.321 C 86.638 158.440,83.702 156.000,80.000 156.000 C 78.399 156.000,76.438 154.851,74.745 152.922 C 73.181 151.140,71.299 149.988,70.272 150.185 C 68.658 150.496,68.476 152.296,68.228 170.376 C 67.965 189.639,68.029 190.378,70.400 195.363 C 71.744 198.188,75.916 203.673,79.672 207.552 C 83.427 211.431,88.032 216.381,89.905 218.552 C 96.066 225.693,109.556 237.447,114.975 240.393 C 123.577 245.070,131.297 244.129,159.483 234.969 C 166.623 232.649,173.507 230.750,174.781 230.750 C 177.187 230.750,179.913 233.463,179.968 235.912 C 180.031 238.720,184.958 245.617,190.852 251.149 C 198.619 258.438,198.891 259.919,196.139 279.914 C 193.479 299.231,193.431 303.175,195.829 305.345 C 198.278 307.562,201.700 307.430,207.829 304.882 C 214.396 302.153,217.634 302.880,219.571 307.515 C 221.444 311.998,221.686 325.635,220.050 334.500 C 217.310 349.346,215.773 353.946,209.026 367.500 C 201.372 382.877,196.120 397.436,195.276 405.617 C 194.031 417.673,199.640 430.554,207.962 434.750 C 212.346 436.961,213.058 437.000,249.002 437.000 C 278.803 437.000,286.684 437.287,291.540 438.549 C 297.615 440.129,306.502 445.311,315.490 452.515 C 326.108 461.026,335.409 467.000,338.040 467.000 C 338.666 467.000,341.146 464.975,343.552 462.500 C 346.527 459.439,348.758 458.000,350.528 458.000 C 353.321 458.000,357.001 456.389,358.297 454.600 C 358.735 453.995,358.796 444.642,358.433 433.815 C 357.851 416.456,357.986 413.444,359.576 408.315 C 363.866 394.484,376.212 377.981,404.625 348.097 C 414.344 337.874,416.000 335.501,416.000 331.788 C 416.000 328.138,409.611 315.851,405.870 312.307 C 399.234 306.021,387.148 301.673,363.468 297.054 C 357.436 295.877,349.125 294.065,345.000 293.027 C 340.875 291.989,334.350 290.439,330.500 289.583 C 323.827 288.099,323.168 287.682,316.383 280.672 C 311.203 275.319,308.817 271.966,307.616 268.351 C 306.537 265.101,304.389 261.848,301.403 258.942 C 294.419 252.144,293.906 250.609,290.560 226.500 C 289.797 221.000,288.450 214.475,287.569 212.000 C 285.305 205.648,284.460 195.718,285.889 192.268 C 287.360 188.716,289.121 187.630,296.000 186.029 C 302.583 184.498,314.191 179.327,320.175 175.260 C 322.554 173.643,327.378 170.801,330.896 168.943 C 339.522 164.388,340.948 161.284,340.978 147.000 C 340.999 136.583,339.422 125.651,336.648 117.000 C 335.854 114.525,334.218 108.675,333.012 104.000 C 331.806 99.325,328.998 90.775,326.772 85.000 C 318.853 64.457,315.541 58.830,311.576 59.186 C 310.434 59.289,305.675 59.626,301.000 59.936 M347.838 356.675 C 348.471 357.807,348.148 360.616,346.839 365.337 C 343.867 376.065,340.154 382.772,334.628 387.396 C 331.931 389.653,326.642 394.274,322.876 397.665 C 311.224 408.154,302.651 409.670,280.415 405.172 C 272.212 403.512,263.629 401.862,261.342 401.505 C 249.849 399.710,252.000 393.279,267.500 383.090 C 271.350 380.559,276.101 377.266,278.059 375.772 C 284.524 370.835,299.959 364.277,308.000 363.049 C 321.287 361.022,335.012 358.219,340.500 356.412 C 345.813 354.663,346.731 354.696,347.838 356.675 " style="stroke: none; fill: black;">
                    </path></svg>