<svg id="svg-path" width="100%" height="100%" viewBox="0 0 512 512" version="1.1" xmlns="http://www.w3.org/2000/svg" style="fill-rule:evenodd;clip-rule:evenodd;stroke-linejoin:round;stroke-miterlimit:2;">
                        <path d="M287.333 106.064 C 281.233 109.084,271.893 117.316,238.000 149.547 C 233.875 153.469,227.023 159.236,222.773 162.362 C 214.309 168.587,213.000 170.288,213.000 175.066 C 213.000 176.825,212.141 179.667,211.090 181.382 C 210.040 183.097,207.953 188.100,206.452 192.500 C 203.668 200.667,203.070 205.608,201.064 237.000 C 197.841 287.451,196.001 303.531,191.167 323.500 C 189.037 332.300,186.720 342.200,186.018 345.500 C 185.316 348.800,184.121 354.056,183.362 357.180 C 182.032 362.651,182.074 363.033,184.491 367.579 C 186.720 371.771,187.007 373.538,187.064 383.399 C 187.136 395.771,188.729 405.157,191.172 407.600 C 192.619 409.048,200.094 409.274,262.546 409.761 C 329.524 410.284,332.357 410.232,333.652 408.461 C 335.665 405.708,335.282 401.974,332.526 397.500 L 330.062 393.500 330.031 358.493 C 330.012 336.577,330.397 322.180,331.061 319.993 C 331.645 318.072,332.766 314.130,333.553 311.233 C 334.340 308.336,336.082 303.799,337.424 301.150 C 339.602 296.852,340.826 292.591,345.083 274.500 C 346.205 269.732,346.722 265.665,348.959 244.000 C 349.499 238.775,350.384 231.125,350.926 227.000 C 352.236 217.038,352.252 194.447,350.953 189.769 C 350.299 187.415,348.599 185.033,346.347 183.316 C 342.510 180.389,337.265 173.577,323.947 154.225 C 311.337 135.901,309.071 132.030,307.427 126.000 C 304.225 114.260,297.804 103.999,293.661 104.001 C 292.472 104.001,289.625 104.930,287.333 106.064 M278.351 138.472 C 279.526 141.535,272.445 157.875,268.850 160.392 C 267.588 161.276,264.968 162.000,263.027 162.001 C 259.149 162.002,248.300 166.716,246.123 169.347 C 245.112 170.569,244.938 172.403,245.468 176.255 C 247.447 190.644,246.409 192.000,233.416 192.000 C 223.862 192.000,221.000 190.931,221.000 187.363 C 221.000 182.826,228.771 173.750,237.428 168.177 C 245.252 163.139,251.950 157.608,265.188 145.250 C 273.795 137.216,277.197 135.464,278.351 138.472 M300.128 144.648 C 300.882 145.555,302.443 148.521,303.596 151.240 C 306.696 158.553,327.486 186.499,331.657 188.960 C 334.641 190.721,335.082 191.461,334.813 194.254 L 334.500 197.500 313.007 197.771 C 283.499 198.142,282.755 197.753,285.597 183.442 C 286.919 176.786,287.038 174.380,286.144 172.417 C 284.279 168.324,284.801 164.630,288.474 155.921 C 293.362 144.331,296.963 140.848,300.128 144.648 M269.965 176.934 C 271.304 179.436,271.288 179.569,269.429 181.429 C 267.569 183.288,262.899 183.499,261.200 181.800 C 259.526 180.126,259.682 179.375,262.189 177.039 C 264.950 174.466,268.617 174.417,269.965 176.934 M253.500 210.070 C 262.850 210.616,277.250 211.477,285.500 211.984 C 293.750 212.492,307.344 213.291,315.709 213.761 C 335.671 214.883,335.452 214.713,334.645 228.500 C 334.323 234.000,333.620 242.325,333.083 247.000 C 331.274 262.748,330.004 275.453,329.437 283.500 C 328.645 294.727,328.421 295.440,324.551 299.090 C 320.671 302.751,319.729 304.716,317.406 314.000 C 315.206 322.796,314.270 366.288,315.972 380.653 C 316.854 388.099,316.881 391.355,316.071 392.867 C 314.113 396.526,308.952 397.184,287.000 396.570 C 275.725 396.255,253.225 395.660,237.000 395.249 C 220.775 394.837,206.892 394.108,206.148 393.628 C 203.818 392.125,202.137 386.632,201.493 378.418 C 201.135 373.840,200.000 368.531,198.804 365.832 C 196.770 361.243,196.764 361.022,198.475 352.832 C 204.482 324.070,205.743 318.626,209.431 305.500 C 212.948 292.984,213.502 288.888,215.079 263.739 C 215.604 255.357,216.438 244.225,216.931 239.000 C 217.424 233.775,218.157 225.572,218.561 220.772 C 219.522 209.330,221.321 207.637,231.500 208.603 C 234.250 208.864,244.150 209.524,253.500 210.070 M246.734 228.750 C 244.593 231.128,241.490 239.248,239.008 248.969 C 236.307 259.547,236.972 261.000,244.516 261.000 L 249.961 261.000 252.231 265.750 L 254.500 270.500 260.000 270.406 C 271.150 270.215,291.660 269.133,297.000 268.454 C 304.331 267.522,306.082 265.869,305.878 260.077 C 305.789 257.560,306.051 251.900,306.460 247.500 C 307.480 236.521,306.561 234.477,299.790 232.657 C 293.887 231.070,281.776 229.401,266.000 228.000 C 250.893 226.658,248.535 226.750,246.734 228.750 M289.735 244.560 C 291.117 244.851,292.224 246.043,292.636 247.684 C 293.690 251.887,290.634 253.544,279.308 254.911 C 273.913 255.562,265.711 256.580,261.080 257.175 C 253.597 258.135,252.524 258.070,251.443 256.591 C 249.425 253.832,252.003 245.304,255.215 244.116 C 257.232 243.370,285.825 243.738,289.735 244.560 M256.106 276.535 C 249.855 278.058,249.036 278.998,249.015 284.679 C 248.996 289.818,250.970 292.000,255.637 292.000 C 261.345 292.000,263.000 293.442,263.000 298.413 C 263.000 304.314,260.700 309.374,256.771 312.118 C 252.597 315.035,252.034 315.884,252.015 319.295 C 251.994 323.211,255.778 326.625,261.090 327.481 C 267.581 328.528,270.000 330.397,270.000 334.368 C 270.000 339.625,267.368 341.216,257.360 342.011 C 245.684 342.939,245.772 342.810,241.488 365.000 C 239.570 374.929,239.633 376.633,242.000 379.000 C 243.820 380.820,245.333 381.000,258.845 381.000 C 271.957 381.000,273.883 380.786,275.345 379.171 C 277.311 376.999,277.451 373.452,275.708 370.000 C 274.588 367.780,273.612 367.425,267.000 366.833 C 260.996 366.296,259.204 365.736,257.753 363.944 C 254.258 359.627,257.415 355.444,264.885 354.497 C 272.886 353.482,280.441 351.107,282.107 349.084 C 284.218 346.519,286.310 335.690,285.451 331.775 C 285.078 330.078,283.146 327.200,281.158 325.378 C 277.736 322.243,277.522 321.675,277.174 314.782 C 276.736 306.102,278.351 296.375,280.652 293.832 C 281.924 292.427,283.772 292.000,288.584 292.000 C 295.389 292.000,297.509 290.806,298.630 286.339 C 299.480 282.953,296.572 280.141,290.900 278.864 C 273.394 274.921,265.030 274.361,256.106 276.535 " style="stroke: none; fill: black;">
                    </path></svg>