<svg id="svg-path" width="100%" height="100%" viewBox="0 0 512 512" version="1.1" xmlns="http://www.w3.org/2000/svg" style="fill-rule:evenodd;clip-rule:evenodd;stroke-linejoin:round;stroke-miterlimit:2;">
                        <path d="M218.000 79.732 C 216.075 79.958,213.375 81.170,212.000 82.425 C 210.625 83.680,208.691 84.992,207.702 85.340 C 206.259 85.849,206.031 86.647,206.544 89.382 C 206.895 91.256,206.708 93.677,206.128 94.762 C 205.252 96.398,205.577 97.183,208.036 99.375 C 209.666 100.827,211.000 102.617,211.000 103.353 C 211.000 104.088,211.925 105.528,213.057 106.551 C 214.670 108.012,217.150 108.502,224.569 108.826 C 233.555 109.219,234.145 109.384,236.473 112.151 C 238.958 115.103,240.984 120.716,240.994 124.673 C 240.997 125.869,242.131 128.191,243.514 129.834 C 247.394 134.446,249.000 139.329,249.000 146.518 C 249.000 154.459,247.766 157.074,241.062 163.345 C 237.111 167.041,235.330 168.057,233.224 167.814 C 230.632 167.515,230.510 167.257,230.699 162.500 C 230.808 159.750,231.190 154.105,231.548 149.955 C 232.035 144.303,231.820 141.506,230.693 138.808 C 228.877 134.462,220.211 127.632,213.693 125.411 C 209.511 123.986,208.178 123.991,198.800 125.468 C 183.839 127.824,181.178 128.672,174.293 133.275 C 165.789 138.962,162.756 144.547,162.234 155.488 C 161.813 164.286,161.773 164.193,170.343 174.369 C 174.120 178.855,174.194 179.102,174.742 189.047 C 175.201 197.367,175.707 199.763,177.596 202.546 C 182.209 209.344,182.195 209.086,178.542 219.641 C 176.666 225.064,174.814 232.351,174.427 235.836 C 173.826 241.239,173.049 243.078,169.142 248.336 C 166.623 251.726,164.098 254.831,163.531 255.235 C 162.964 255.639,160.064 255.976,157.088 255.985 C 152.747 255.997,150.711 256.619,146.803 259.126 C 142.675 261.775,141.250 262.176,137.468 261.749 C 133.644 261.318,131.998 260.297,125.983 254.623 C 118.145 247.229,115.292 246.379,112.518 250.612 C 111.001 252.928,110.358 253.153,106.858 252.593 C 103.134 251.998,102.849 252.135,101.849 255.002 C 101.267 256.674,99.937 258.499,98.895 259.056 C 97.363 259.876,97.000 261.203,97.000 265.988 C 97.000 271.731,97.100 271.954,100.387 273.513 C 102.811 274.664,103.947 275.986,104.383 278.166 C 104.974 281.118,105.122 281.192,109.246 280.583 C 111.586 280.238,118.402 279.688,124.393 279.362 C 136.658 278.694,141.059 279.582,147.069 283.935 C 152.655 287.981,161.298 289.468,170.360 287.940 C 181.428 286.074,187.121 282.821,197.728 272.299 C 202.884 267.185,207.729 263.000,208.493 263.000 C 210.155 263.000,217.047 271.608,222.250 280.183 C 224.951 284.634,226.001 287.501,226.005 290.431 C 226.009 294.292,225.457 295.037,215.215 305.001 C 204.218 315.698,201.292 320.024,198.573 329.605 C 197.809 332.297,196.036 337.875,194.632 342.000 C 185.999 367.370,183.000 378.668,183.000 385.826 C 183.000 394.285,181.795 397.600,176.117 404.754 C 171.848 410.133,167.193 413.587,161.000 415.969 C 157.095 417.471,151.639 419.726,145.229 422.485 C 140.653 424.454,138.823 427.877,140.965 430.458 C 143.756 433.821,150.975 434.898,170.000 434.792 L 188.500 434.688 191.574 431.594 C 193.891 429.262,194.962 426.899,195.922 422.000 C 197.830 412.274,200.856 403.441,202.920 401.572 C 203.929 400.659,206.719 398.919,209.119 397.706 C 214.555 394.959,217.533 390.587,218.283 384.257 C 218.601 381.570,221.593 373.014,224.931 365.242 C 228.269 357.471,231.003 350.524,231.007 349.806 C 231.017 347.736,234.659 342.757,237.190 341.353 C 239.774 339.919,244.861 339.625,246.715 340.803 C 247.980 341.607,253.410 354.485,256.496 364.000 C 260.392 376.014,265.717 384.304,273.031 389.743 C 275.636 391.681,288.892 394.036,302.500 394.979 C 309.650 395.475,317.075 396.371,319.000 396.971 C 325.055 398.857,342.160 401.796,350.845 402.442 C 358.857 403.038,365.099 405.238,370.096 409.226 C 371.984 410.733,375.000 416.310,375.000 418.295 C 375.000 420.301,378.302 423.000,380.756 423.000 C 381.910 423.000,383.788 421.814,384.927 420.365 C 388.146 416.273,387.762 407.156,383.912 396.248 C 381.744 390.108,380.658 384.870,380.269 378.680 C 379.504 366.501,379.866 366.692,356.063 365.935 C 339.111 365.395,336.979 365.122,331.500 362.783 C 328.200 361.375,322.964 359.758,319.866 359.189 C 311.804 357.708,299.197 352.230,297.344 349.402 C 295.527 346.629,296.103 343.452,301.673 325.539 C 305.590 312.941,306.820 300.261,305.121 290.000 C 304.414 285.732,302.103 279.551,298.392 272.000 C 292.638 260.296,290.401 254.589,287.020 243.000 C 284.658 234.905,279.233 220.868,274.642 210.978 C 272.715 206.828,270.412 199.517,269.504 194.672 C 267.572 184.363,268.108 180.635,273.361 167.827 C 277.367 158.061,279.556 144.619,278.510 136.205 C 278.120 133.067,276.332 127.350,274.538 123.500 C 272.743 119.650,270.980 115.559,270.620 114.408 C 269.638 111.271,266.130 108.473,260.000 105.939 C 251.267 102.330,241.247 95.231,232.983 86.799 C 228.204 81.923,224.620 79.060,223.420 79.160 C 222.364 79.248,219.925 79.505,218.000 79.732 M123.029 185.972 C 119.539 189.383,119.182 193.473,122.208 195.368 C 123.557 196.212,124.820 195.803,128.208 193.421 C 131.853 190.860,132.500 189.884,132.500 186.952 C 132.500 183.809,132.217 183.473,129.342 183.194 C 126.919 182.958,125.450 183.605,123.029 185.972 M136.263 196.250 C 134.661 198.290,133.980 203.817,135.000 206.500 C 136.032 209.214,139.060 209.837,140.834 207.700 C 142.641 205.523,143.407 198.195,142.004 196.505 C 140.486 194.676,137.600 194.548,136.263 196.250 M114.921 203.147 C 112.335 207.980,117.597 216.820,122.349 215.627 C 125.406 214.860,126.143 212.985,124.981 208.935 C 122.817 201.388,117.500 198.329,114.921 203.147 " style="stroke: none; fill: black;">
                    </path></svg>