<svg id="svg-path" width="100%" height="100%" viewBox="0 0 512 512" version="1.1" xmlns="http://www.w3.org/2000/svg" style="fill-rule:evenodd;clip-rule:evenodd;stroke-linejoin:round;stroke-miterlimit:2;">
                        <path d="M147.927 178.908 C 145.987 180.508,143.143 183.630,141.607 185.845 C 139.290 189.188,137.972 190.055,133.858 190.937 C 131.132 191.522,126.974 192.000,124.617 192.000 C 121.036 192.000,119.649 192.631,116.166 195.846 C 111.306 200.334,110.598 204.598,114.127 208.127 C 115.958 209.958,117.061 210.182,122.031 209.731 C 128.220 209.170,129.996 209.998,130.006 213.450 C 130.010 214.675,131.212 216.183,132.992 217.195 C 135.627 218.695,135.899 219.273,135.343 222.195 C 134.401 227.148,132.509 230.346,128.375 233.976 C 124.822 237.095,124.373 237.219,118.778 236.635 C 115.549 236.297,112.058 235.566,111.020 235.011 C 107.896 233.339,103.480 233.862,99.890 236.329 C 87.712 244.697,82.810 248.426,81.056 250.655 C 79.959 252.051,77.862 257.038,76.397 261.739 C 71.460 277.580,74.309 290.144,85.407 301.470 C 89.428 305.573,89.702 305.677,101.000 307.394 C 109.899 308.747,113.518 308.905,117.000 308.095 C 126.082 305.983,127.770 306.450,134.160 312.840 C 138.289 316.969,140.000 319.443,140.000 321.283 C 140.000 324.754,136.701 326.988,132.566 326.317 C 125.548 325.178,123.660 332.872,129.250 339.828 C 131.037 342.052,133.175 344.185,134.000 344.567 C 136.614 345.781,153.234 347.928,160.293 347.965 C 167.010 348.000,167.141 347.948,172.030 343.375 C 179.636 336.260,180.622 329.623,174.983 323.500 C 171.505 319.723,170.568 316.676,172.039 313.927 C 173.093 311.958,173.742 311.828,179.844 312.373 C 195.702 313.790,215.305 314.131,225.500 313.169 C 235.992 312.179,236.619 311.989,239.073 309.065 C 240.488 307.379,242.389 306.000,243.297 306.000 C 244.205 306.000,248.317 307.338,252.435 308.974 C 260.263 312.084,266.283 312.638,286.377 312.099 C 294.747 311.874,305.132 313.604,319.000 317.533 C 323.675 318.857,330.875 320.215,335.000 320.550 C 339.125 320.884,346.325 322.078,351.000 323.201 C 356.934 324.628,365.236 325.492,378.500 326.063 C 397.941 326.900,400.103 327.230,410.500 330.947 C 415.669 332.795,417.073 332.934,420.634 331.949 C 429.810 329.410,433.108 316.671,425.775 312.091 C 424.583 311.347,419.984 310.380,415.554 309.943 C 411.124 309.505,403.128 308.510,397.784 307.732 C 388.658 306.403,387.801 306.071,383.679 302.272 C 381.266 300.047,378.213 297.897,376.896 297.494 C 375.578 297.091,372.562 295.892,370.193 294.830 C 367.824 293.767,361.441 291.798,356.009 290.454 C 350.577 289.110,344.640 287.154,342.816 286.107 C 340.992 285.059,336.800 283.442,333.500 282.512 C 330.200 281.583,326.027 279.706,324.226 278.342 C 322.426 276.978,318.601 275.063,315.726 274.087 C 310.411 272.281,308.528 269.779,311.598 268.601 C 312.532 268.243,316.716 267.693,320.898 267.381 C 325.079 267.068,330.027 266.127,331.894 265.290 C 336.862 263.064,353.682 261.071,368.000 261.012 C 377.916 260.971,382.464 260.451,390.000 258.500 C 402.550 255.250,407.922 255.342,419.341 259.000 C 435.581 264.202,440.000 262.675,440.000 251.862 C 440.000 244.866,438.010 239.912,434.164 237.328 C 432.077 235.926,429.332 235.517,421.500 235.441 C 408.689 235.315,397.700 233.734,392.000 231.196 C 387.902 229.371,384.595 229.138,355.000 228.596 C 333.679 228.205,320.194 227.529,315.795 226.630 C 312.107 225.877,308.047 225.460,306.773 225.703 C 305.498 225.947,297.675 225.438,289.388 224.573 C 268.517 222.394,265.713 222.515,256.163 226.000 C 251.642 227.650,247.144 229.000,246.167 229.000 C 245.191 229.000,242.906 227.466,241.089 225.592 C 239.044 223.482,236.207 221.825,233.643 221.242 C 228.999 220.186,202.497 220.421,191.000 221.619 C 181.080 222.653,176.905 222.233,174.576 219.968 C 172.716 218.159,172.707 217.830,174.288 210.298 C 179.018 187.772,178.911 186.017,172.458 180.068 L 168.045 176.000 159.750 176.000 C 152.068 176.000,151.195 176.215,147.927 178.908 " style="stroke: none; fill: black;">
                    </path></svg>