<svg id="svg-path" width="100%" height="100%" viewBox="0 0 512 512" version="1.1" xmlns="http://www.w3.org/2000/svg" style="fill-rule:evenodd;clip-rule:evenodd;stroke-linejoin:round;stroke-miterlimit:2;">
                        <path d="M234.408 77.129 C 233.257 78.433,231.052 82.537,229.508 86.250 C 227.963 89.963,226.111 93.000,225.390 93.000 C 224.670 93.000,223.531 91.088,222.859 88.750 C 221.027 82.379,218.411 79.188,214.057 78.015 C 211.943 77.446,209.603 77.198,208.857 77.463 C 208.111 77.728,203.225 78.402,198.000 78.960 C 192.775 79.519,183.775 80.621,178.000 81.411 C 172.225 82.200,162.239 83.531,155.809 84.369 C 139.588 86.481,136.526 87.444,133.527 91.376 C 131.103 94.554,131.000 95.259,131.000 108.652 C 131.000 129.405,134.919 149.212,139.784 153.052 C 142.282 155.023,143.345 155.154,153.000 154.677 C 158.775 154.392,168.675 153.233,175.000 152.102 C 181.325 150.970,189.282 150.035,192.683 150.022 C 197.971 150.003,198.956 150.286,199.492 151.974 C 200.315 154.566,197.425 160.538,194.122 163.071 C 192.680 164.176,185.348 169.123,177.830 174.063 C 156.999 187.750,149.599 197.147,153.384 205.106 C 156.053 210.720,167.958 222.687,176.931 228.778 C 186.429 235.224,188.801 238.670,189.694 247.321 C 190.212 252.346,188.701 262.122,187.039 264.500 C 186.654 265.050,184.880 269.550,183.096 274.500 C 178.716 286.655,178.296 287.414,172.101 294.358 C 169.131 297.687,165.605 302.806,164.264 305.735 C 161.247 312.325,162.079 315.664,168.002 320.734 C 172.536 324.615,172.976 327.062,170.410 334.124 C 168.207 340.189,168.112 359.258,170.238 368.500 C 173.318 381.889,175.345 398.055,174.100 399.300 C 173.368 400.032,168.007 400.499,159.228 400.596 C 150.188 400.696,143.402 401.304,139.356 402.374 C 135.976 403.268,129.632 404.000,125.256 404.000 C 118.088 404.000,116.649 403.654,110.706 400.500 C 107.079 398.575,103.163 397.000,102.006 397.000 C 99.426 397.000,94.411 399.517,91.594 402.226 C 90.442 403.334,85.900 405.933,81.500 408.001 C 69.895 413.457,63.000 421.586,63.000 429.813 C 63.000 436.276,71.496 438.035,81.223 433.586 C 88.822 430.111,95.151 428.319,106.500 426.432 C 119.510 424.268,126.955 424.891,140.500 429.273 C 146.550 431.230,156.225 433.580,162.000 434.495 C 167.775 435.410,175.292 436.798,178.706 437.579 C 182.119 438.361,188.134 439.000,192.073 439.000 C 199.017 439.000,199.349 438.886,202.978 435.250 C 208.522 429.695,209.838 423.882,210.519 401.938 C 211.246 378.539,211.642 375.411,214.180 373.047 C 215.307 371.997,218.091 370.844,220.365 370.486 C 230.652 368.866,244.254 364.341,256.500 358.463 C 267.600 353.135,270.526 352.323,271.306 354.354 C 271.979 356.108,269.523 386.549,268.470 389.500 C 268.078 390.600,265.337 396.540,262.379 402.699 C 259.420 408.859,257.000 414.619,257.000 415.499 C 257.000 418.191,259.700 422.505,262.165 423.752 C 263.449 424.401,267.001 426.010,270.058 427.326 C 275.478 429.661,277.785 431.851,282.336 438.985 C 287.204 446.616,299.418 449.673,304.545 444.545 C 308.751 440.340,307.867 437.531,300.050 430.270 C 294.727 425.326,292.757 422.724,291.638 419.157 C 288.027 407.645,288.931 396.709,294.404 385.711 C 303.481 367.471,311.000 341.757,311.000 328.954 C 311.000 319.479,309.335 315.825,303.795 313.143 C 297.016 309.861,288.926 310.351,268.000 315.311 C 264.975 316.028,261.712 316.443,260.750 316.234 C 256.651 315.342,260.336 305.843,267.434 299.000 C 270.002 296.525,275.072 290.086,278.702 284.691 C 288.851 269.604,292.635 265.861,301.703 261.936 C 305.991 260.080,312.639 256.794,316.476 254.635 C 320.313 252.476,325.038 250.071,326.976 249.292 C 340.192 243.978,347.317 239.043,350.113 233.266 C 352.157 229.044,352.218 228.258,351.129 220.138 C 348.902 203.534,346.971 195.163,343.810 188.407 C 339.015 178.162,339.766 168.850,345.502 167.410 C 346.846 167.073,351.630 167.292,356.132 167.898 C 360.634 168.504,371.836 169.000,381.024 169.000 C 402.878 169.000,402.178 169.516,407.461 149.500 C 409.913 140.208,411.837 128.547,412.496 118.981 C 413.098 110.243,412.978 109.242,411.030 106.766 C 408.529 103.586,404.542 102.295,393.000 100.931 C 388.325 100.378,382.925 99.531,381.000 99.048 C 377.823 98.252,372.094 97.267,351.612 93.999 C 347.824 93.394,340.174 92.631,334.612 92.302 C 325.399 91.757,324.213 91.454,321.267 88.897 C 317.725 85.823,314.966 84.944,301.500 82.598 C 270.982 77.283,260.146 75.775,249.000 75.296 C 236.783 74.770,236.453 74.812,234.408 77.129 M251.000 147.531 C 255.675 148.432,260.850 149.376,262.500 149.628 C 264.150 149.880,268.200 150.533,271.500 151.081 C 274.800 151.628,282.712 152.453,289.083 152.913 C 295.453 153.374,301.634 154.269,302.817 154.902 C 304.004 155.537,306.827 159.894,309.112 164.613 C 311.391 169.321,315.036 175.231,317.213 177.746 C 323.968 185.551,324.619 190.057,319.982 196.900 C 316.054 202.697,316.169 205.816,320.500 211.000 C 324.677 216.000,324.846 217.856,321.419 221.076 C 319.119 223.237,317.944 223.500,310.592 223.500 C 303.062 223.500,302.019 223.252,298.601 220.645 C 293.717 216.919,292.888 214.504,294.780 209.500 C 295.632 207.248,296.329 202.003,296.376 197.500 C 296.448 190.591,296.018 188.470,293.218 181.947 C 289.594 173.500,283.899 167.159,277.628 164.588 C 271.525 162.085,259.706 162.480,252.158 165.438 C 239.518 170.392,233.738 175.911,229.457 187.111 C 227.300 192.758,226.038 194.531,222.174 197.341 C 212.909 204.081,211.839 204.368,203.408 202.381 C 199.319 201.417,195.239 199.817,194.342 198.826 C 192.825 197.149,192.886 196.762,195.214 193.262 C 196.590 191.193,198.315 187.925,199.047 186.000 C 201.253 180.201,203.159 178.178,211.000 173.311 C 222.021 166.469,223.627 164.689,226.076 156.597 C 229.484 145.337,230.124 144.668,236.847 145.332 C 239.956 145.640,246.325 146.629,251.000 147.531 " style="stroke: none; fill: black;">
                    </path></svg>