<svg id="svg-path" width="100%" height="100%" viewBox="0 0 512 512" version="1.1" xmlns="http://www.w3.org/2000/svg" style="fill-rule:evenodd;clip-rule:evenodd;stroke-linejoin:round;stroke-miterlimit:2;">
                        <path d="M226.537 89.056 C 218.235 93.198,213.709 99.389,211.955 109.005 C 210.829 115.180,210.899 115.780,213.385 121.186 C 214.823 124.313,216.000 128.230,216.000 129.889 C 216.000 134.924,218.101 138.114,222.720 140.094 C 225.722 141.381,227.000 142.526,227.000 143.929 C 227.000 146.539,224.805 147.627,216.689 149.040 C 209.826 150.236,207.425 151.655,199.439 159.241 C 197.272 161.299,195.185 162.987,194.801 162.991 C 192.821 163.016,188.446 171.029,186.451 178.285 C 185.208 182.803,182.548 191.167,180.539 196.871 C 177.876 204.430,176.731 209.582,176.316 215.871 C 175.843 223.032,175.352 224.925,173.430 227.000 C 170.763 229.881,169.024 236.568,169.162 243.422 C 169.251 247.853,168.908 248.530,164.129 253.370 C 161.308 256.226,159.000 259.011,159.000 259.559 C 159.000 260.107,159.938 261.358,161.083 262.339 C 162.418 263.482,162.927 264.730,162.501 265.812 C 162.135 266.740,161.586 269.848,161.281 272.717 C 160.665 278.513,162.336 282.332,165.896 283.263 C 168.856 284.037,175.688 279.215,177.556 275.034 C 178.425 273.090,179.527 270.600,180.006 269.500 C 180.485 268.400,181.597 264.894,182.478 261.708 C 184.551 254.214,186.789 250.632,191.321 247.557 C 193.341 246.186,196.326 244.079,197.955 242.875 C 203.102 239.070,203.725 240.780,203.370 257.739 C 203.200 265.858,202.617 276.325,202.073 281.000 C 201.530 285.675,200.369 297.375,199.493 307.000 C 197.885 324.683,196.295 335.722,193.516 348.500 C 192.679 352.350,191.534 359.775,190.971 365.000 C 190.408 370.225,189.537 377.425,189.036 381.000 C 188.535 384.575,188.319 394.159,188.556 402.297 C 189.036 418.763,188.921 419.266,182.092 430.590 C 177.854 437.616,177.210 440.587,179.117 444.316 C 181.018 448.032,184.258 449.954,188.661 449.978 C 193.964 450.006,196.977 446.694,199.593 437.959 C 200.959 433.399,202.294 431.114,204.638 429.327 C 208.095 426.690,211.000 420.651,211.000 416.102 C 211.000 414.530,211.675 411.629,212.500 409.654 C 213.397 407.506,214.000 402.937,214.000 398.279 C 214.000 393.464,214.768 387.824,216.012 383.497 C 219.318 371.996,222.000 360.041,222.000 356.803 C 222.000 355.132,223.800 349.767,226.000 344.881 C 228.200 339.995,230.000 335.258,230.000 334.354 C 230.000 333.450,232.419 328.163,235.375 322.605 C 240.311 313.328,242.841 306.940,244.430 299.750 C 244.765 298.238,245.642 297.000,246.380 297.000 C 247.642 297.000,253.632 304.417,262.534 317.000 C 266.358 322.406,270.451 327.590,276.617 334.837 C 278.332 336.851,280.074 339.625,280.490 341.000 C 280.905 342.375,281.586 343.950,282.003 344.500 C 282.420 345.050,286.228 352.475,290.465 361.000 C 294.703 369.525,298.785 377.625,299.538 379.000 C 300.290 380.375,302.260 384.200,303.915 387.500 C 305.571 390.800,307.867 394.654,309.019 396.064 C 310.170 397.474,311.666 400.849,312.342 403.564 C 313.431 407.934,314.082 408.759,318.013 410.757 C 320.455 411.999,325.614 416.387,329.477 420.508 C 337.912 429.507,339.979 429.979,345.279 424.112 C 349.678 419.243,350.737 415.054,348.450 411.564 C 347.526 410.154,346.459 409.000,346.080 409.000 C 345.700 409.000,342.379 406.517,338.701 403.483 C 331.489 397.534,329.000 393.273,329.000 386.874 C 329.000 384.739,328.100 381.314,327.000 379.261 C 325.900 377.209,325.000 374.758,325.000 373.814 C 325.000 372.871,323.394 367.689,321.432 362.300 C 319.470 356.910,316.522 348.487,314.881 343.582 C 313.240 338.676,309.417 329.901,306.385 324.082 C 303.353 318.262,299.581 310.350,298.002 306.500 C 293.447 295.394,287.000 277.758,287.000 276.404 C 287.000 275.723,285.425 272.197,283.500 268.569 C 281.575 264.940,280.000 261.118,280.000 260.075 C 280.000 259.031,279.045 255.682,277.877 252.630 C 276.709 249.579,276.013 246.410,276.328 245.587 C 276.644 244.764,278.724 243.161,280.951 242.025 C 284.912 240.004,285.000 239.845,285.000 234.671 C 285.000 228.824,286.801 225.326,289.315 226.291 C 290.197 226.629,292.116 229.269,293.580 232.158 C 295.184 235.323,299.697 240.803,304.944 245.955 C 314.266 255.109,317.493 259.108,320.809 265.618 C 324.292 272.457,332.465 280.677,336.542 281.442 C 344.269 282.892,346.662 278.735,343.001 270.223 C 341.712 267.227,341.000 263.769,341.189 261.424 C 341.486 257.739,341.245 257.389,336.003 253.857 C 330.156 249.918,327.755 246.085,328.562 241.981 C 328.840 240.565,328.401 238.593,327.561 237.481 C 326.737 236.391,326.049 233.666,326.032 231.425 C 326.005 227.965,323.989 221.408,317.753 204.500 C 315.312 197.882,299.674 173.895,294.682 169.111 C 282.798 157.725,273.104 151.688,264.885 150.554 C 258.197 149.632,256.500 148.045,256.500 142.714 C 256.500 138.871,257.078 137.639,260.750 133.655 C 265.310 128.708,265.976 125.836,263.638 121.200 C 262.889 119.715,262.010 115.800,261.685 112.500 C 260.808 103.609,255.813 94.390,249.629 90.250 C 245.259 87.325,244.060 87.004,237.637 87.040 C 232.595 87.068,229.337 87.660,226.537 89.056 M245.023 311.472 C 243.621 313.162,242.515 323.714,240.987 350.000 C 240.395 360.175,239.484 370.975,238.962 374.000 C 238.440 377.025,237.349 384.782,236.537 391.237 C 235.725 397.693,234.313 405.793,233.399 409.237 C 232.485 412.682,231.603 419.325,231.440 424.000 C 231.276 428.675,230.674 435.425,230.101 439.000 C 228.731 447.562,227.836 465.497,228.622 468.630 C 229.116 470.598,229.786 471.047,231.872 470.805 C 234.467 470.504,234.508 470.373,235.181 460.243 C 235.555 454.602,236.404 447.402,237.067 444.243 C 237.731 441.084,238.249 434.675,238.219 430.000 C 238.187 425.109,239.153 416.193,240.493 409.000 C 243.856 390.941,246.706 369.347,247.553 355.500 C 247.754 352.200,248.475 342.525,249.154 334.000 C 250.704 314.532,250.678 312.042,248.921 310.930 C 246.972 309.696,246.435 309.771,245.023 311.472 " style="stroke: none; fill: black;">
                    </path></svg>