<svg id="svg-path" width="100%" height="100%" viewBox="0 0 512 512" version="1.1" xmlns="http://www.w3.org/2000/svg" style="fill-rule:evenodd;clip-rule:evenodd;stroke-linejoin:round;stroke-miterlimit:2;">
                        <path d="M165.500 86.531 C 163.850 87.883,162.169 88.992,161.764 88.995 C 160.984 89.000,142.304 107.304,140.104 110.218 C 139.143 111.492,138.705 118.778,138.412 138.373 C 138.030 163.930,138.099 165.136,140.508 174.632 C 141.879 180.034,143.000 185.131,143.000 185.958 C 143.000 186.785,143.838 189.720,144.862 192.481 C 145.886 195.241,147.966 201.325,149.485 206.000 C 151.003 210.675,153.132 215.971,154.215 217.768 C 159.536 226.594,166.414 239.961,169.000 246.500 C 169.435 247.600,172.137 251.650,175.004 255.500 C 177.871 259.350,181.325 264.975,182.679 268.000 C 184.034 271.025,186.348 276.192,187.821 279.483 C 192.242 289.357,203.459 311.158,206.839 316.446 C 209.084 319.959,210.000 322.593,210.000 325.541 C 210.000 329.582,212.163 333.000,214.720 333.000 C 216.170 333.000,222.910 329.864,226.166 327.673 C 231.327 324.202,230.626 320.683,223.932 316.457 C 220.195 314.098,214.573 306.679,207.773 295.131 C 205.165 290.701,204.074 285.000,205.834 285.000 C 206.293 285.000,208.724 287.137,211.235 289.750 C 216.526 295.253,223.076 300.174,232.800 305.950 C 240.466 310.504,243.682 313.507,244.101 316.500 C 244.254 317.600,243.799 323.675,243.088 330.000 C 241.816 341.318,241.836 341.640,244.398 350.362 C 245.829 355.236,247.014 359.961,247.032 360.862 C 247.073 362.984,249.013 365.441,251.338 366.314 C 252.348 366.694,256.173 366.143,259.838 365.091 C 263.502 364.038,270.325 362.180,275.000 360.962 C 293.254 356.206,300.497 353.931,301.919 352.509 C 303.145 351.284,303.208 350.204,302.286 346.264 C 299.303 333.516,296.565 325.208,294.392 322.317 C 290.937 317.719,291.381 315.545,296.968 309.698 C 299.700 306.839,304.313 301.992,307.218 298.926 C 311.615 294.285,313.672 292.966,319.500 291.046 C 327.783 288.317,332.000 285.586,332.000 282.951 C 332.000 281.899,330.435 278.593,328.523 275.604 C 322.615 266.368,319.000 255.941,319.000 248.137 C 319.000 241.764,318.733 240.945,314.846 235.413 C 312.561 232.161,309.691 228.375,308.467 227.000 C 307.244 225.625,305.476 222.700,304.538 220.500 C 303.600 218.300,302.213 215.060,301.456 213.299 C 300.699 211.538,298.936 209.349,297.540 208.434 C 294.642 206.536,294.246 202.942,296.500 199.000 C 298.801 194.976,298.261 191.629,294.522 186.733 C 291.484 182.754,291.061 181.503,291.181 176.839 C 291.386 168.799,285.036 152.872,277.490 142.500 C 276.290 140.850,274.369 136.877,273.222 133.672 C 270.970 127.380,265.892 119.422,259.457 112.100 C 257.233 109.570,252.561 104.014,249.075 99.753 C 244.223 93.823,241.887 91.780,239.118 91.042 C 231.736 89.074,221.032 88.022,204.000 87.592 C 192.374 87.298,184.654 86.625,181.000 85.587 C 173.179 83.364,169.057 83.615,165.500 86.531 M209.000 99.980 C 221.925 100.501,233.773 101.228,235.330 101.596 C 239.018 102.466,243.595 107.265,250.346 117.341 C 260.489 132.480,266.907 144.234,268.059 149.783 C 268.675 152.753,270.029 157.055,271.068 159.342 C 274.904 167.790,272.917 168.960,263.156 164.000 C 257.931 161.345,256.247 161.000,248.498 161.000 C 240.607 161.000,239.228 161.295,234.511 163.994 C 231.118 165.935,225.652 167.715,218.961 169.056 C 207.149 171.424,201.878 174.106,196.342 180.565 C 194.229 183.031,190.228 187.625,187.452 190.774 C 181.089 197.990,180.000 200.567,180.000 208.408 C 180.000 215.187,181.904 219.167,187.855 224.826 C 193.403 230.102,195.005 233.600,197.082 244.969 C 198.195 251.062,199.803 257.949,200.655 260.274 C 202.328 264.836,204.009 277.000,202.967 277.000 C 201.959 277.000,191.000 263.936,191.000 262.735 C 191.000 262.472,188.804 258.262,186.120 253.379 C 183.436 248.495,180.904 242.940,180.493 241.034 C 179.669 237.210,172.782 223.416,166.196 212.402 C 163.324 207.597,161.197 202.251,159.613 195.855 C 158.326 190.658,156.304 184.216,155.120 181.539 C 150.752 171.664,149.938 165.201,150.598 145.655 C 150.983 134.263,150.821 125.835,150.163 123.031 C 148.730 116.925,150.444 113.633,159.374 105.339 C 168.816 96.569,170.461 95.921,178.863 97.660 C 182.513 98.415,196.075 99.459,209.000 99.980 M353.000 183.058 C 341.221 186.245,319.256 196.614,317.233 199.942 C 316.537 201.088,315.692 204.656,315.356 207.870 C 314.730 213.855,315.281 216.101,321.028 231.000 C 326.765 245.875,328.291 249.923,330.072 255.000 C 331.133 258.025,332.427 261.400,332.947 262.500 C 333.467 263.600,334.881 266.882,336.088 269.792 C 338.742 276.193,341.088 278.000,346.739 278.000 C 354.082 278.000,372.715 272.247,385.000 266.187 C 396.901 260.317,401.000 257.126,401.000 253.731 C 401.000 251.827,395.418 237.598,377.766 194.500 C 373.426 183.904,370.184 179.940,366.000 180.113 C 364.625 180.170,358.775 181.495,353.000 183.058 M157.000 260.673 C 140.195 266.441,136.728 268.046,123.171 276.322 C 114.461 281.639,111.401 285.371,112.529 289.300 C 113.157 291.489,121.607 309.697,133.505 334.500 C 136.935 341.650,140.710 349.578,141.896 352.118 C 144.758 358.252,147.143 360.242,151.719 360.316 C 156.401 360.391,175.222 353.011,183.500 347.854 C 186.800 345.798,191.843 342.747,194.706 341.074 C 203.031 336.210,203.728 333.194,199.028 322.355 C 193.391 309.352,169.133 262.804,167.185 261.250 C 165.630 260.010,159.880 259.684,157.000 260.673 M312.500 380.046 C 303.527 382.652,294.594 384.494,279.000 386.953 C 272.125 388.038,261.550 389.816,255.500 390.906 C 239.922 393.712,220.938 396.779,211.000 398.096 C 206.325 398.715,201.267 399.810,199.760 400.529 C 198.253 401.248,195.605 402.148,193.875 402.528 C 189.764 403.430,182.000 411.161,182.000 414.351 C 182.000 415.673,182.675 417.315,183.500 418.000 C 184.485 418.818,185.000 421.049,185.000 424.504 C 185.000 429.108,185.405 430.164,188.250 432.991 C 190.037 434.766,193.150 437.276,195.166 438.569 C 197.182 439.861,199.123 441.390,199.479 441.967 C 200.662 443.881,206.367 446.268,216.991 449.295 C 227.430 452.269,227.652 452.288,250.450 452.067 C 267.951 451.897,274.051 451.508,276.141 450.427 C 277.649 449.647,282.111 448.552,286.058 447.992 C 290.004 447.432,293.621 446.734,294.095 446.441 C 294.570 446.148,298.005 445.296,301.729 444.549 C 305.453 443.801,312.325 442.001,317.000 440.548 C 321.675 439.095,328.856 437.590,332.958 437.203 L 340.415 436.500 342.599 430.152 C 343.800 426.661,345.344 418.771,346.029 412.620 C 347.141 402.643,347.099 401.092,345.638 398.267 C 344.737 396.525,344.000 394.416,344.000 393.580 C 344.000 391.422,340.317 384.634,337.491 381.585 C 335.818 379.779,334.068 379.000,331.687 379.000 C 329.813 379.000,326.304 378.778,323.890 378.506 C 321.093 378.192,316.960 378.750,312.500 380.046 M333.433 393.353 C 337.549 398.376,337.932 401.858,335.515 412.281 C 332.454 425.479,330.199 428.461,322.500 429.492 C 319.750 429.860,315.935 430.644,314.022 431.234 C 312.110 431.823,307.835 432.625,304.522 433.015 C 296.345 433.978,279.117 437.945,275.800 439.629 C 272.459 441.325,241.624 441.568,237.322 439.933 L 234.515 438.865 237.236 437.214 C 241.056 434.896,242.000 431.280,242.000 418.962 C 242.000 409.821,242.288 407.870,243.935 405.861 C 245.757 403.639,245.972 403.600,247.596 405.196 C 250.265 407.821,252.030 413.754,252.692 422.331 C 253.253 429.589,253.487 430.237,255.898 431.176 C 259.154 432.444,270.116 431.418,271.179 429.745 C 271.614 429.060,271.973 425.350,271.978 421.500 C 271.985 416.178,271.510 413.781,270.000 411.500 C 266.413 406.084,267.954 400.000,272.913 400.000 C 277.024 400.000,277.925 401.711,279.040 411.628 C 279.588 416.508,280.551 422.188,281.179 424.250 C 282.292 427.907,282.440 428.000,287.140 428.000 C 289.791 428.000,293.769 427.276,295.980 426.391 C 300.567 424.556,300.726 423.800,298.480 414.500 C 296.589 406.666,296.566 398.605,298.430 397.058 C 300.206 395.584,301.445 397.628,302.335 403.500 C 303.554 411.550,305.785 420.036,307.097 421.616 C 309.028 423.944,319.501 422.943,322.279 420.166 C 324.237 418.207,324.244 417.957,322.639 407.647 C 320.543 394.190,320.561 391.355,322.750 390.080 C 326.555 387.864,329.733 388.838,333.433 393.353 M222.128 407.651 C 223.783 409.643,225.078 435.770,223.622 437.788 C 222.403 439.477,214.850 438.417,209.734 435.840 C 207.663 434.797,203.285 431.143,200.006 427.721 C 192.496 419.885,192.154 417.144,197.940 411.181 C 202.086 406.909,203.182 406.599,215.628 406.175 C 219.332 406.048,221.136 406.458,222.128 407.651 " style="stroke: none; fill: black;">
                    </path></svg>