<svg id="svg-path" width="100%" height="100%" viewBox="0 0 512 512" version="1.1" xmlns="http://www.w3.org/2000/svg" style="fill-rule:evenodd;clip-rule:evenodd;stroke-linejoin:round;stroke-miterlimit:2;">
                        <path d="M63.395 142.081 C 58.770 143.423,55.161 147.637,53.374 153.785 C 51.373 160.667,52.069 165.175,55.968 170.605 C 57.636 172.927,59.000 175.248,59.000 175.763 C 59.000 176.279,60.381 178.606,62.068 180.935 C 64.878 184.815,65.035 185.437,63.934 188.335 C 63.273 190.076,62.350 196.000,61.884 201.500 C 61.418 207.000,60.744 214.641,60.387 218.481 C 60.011 222.522,60.282 229.577,61.031 235.232 C 62.211 244.152,62.164 245.473,60.489 250.402 C 58.282 256.893,59.211 261.798,63.004 263.689 C 66.145 265.255,66.844 267.172,66.930 274.454 C 67.022 282.290,64.677 306.850,62.420 321.677 C 61.853 325.407,54.652 333.834,49.206 337.143 C 43.567 340.569,42.756 342.264,45.940 343.968 C 50.154 346.223,74.580 336.294,80.749 329.818 L 83.997 326.408 84.528 306.454 C 85.084 285.540,86.474 273.681,88.574 271.939 C 90.535 270.311,91.296 272.507,92.221 282.463 C 92.683 287.433,93.318 294.208,93.632 297.519 C 94.046 301.876,93.562 306.431,91.880 314.019 C 87.991 331.566,88.526 333.813,98.334 341.093 C 105.263 346.238,110.903 348.492,114.553 347.576 C 118.131 346.678,117.650 343.824,112.750 336.874 L 108.500 330.846 108.685 321.673 C 108.787 316.628,109.604 309.376,110.501 305.558 C 111.645 300.693,112.044 295.161,111.836 287.058 C 111.660 280.185,111.996 274.284,112.664 272.500 C 113.283 270.850,114.770 266.023,115.968 261.774 C 118.032 254.456,118.088 253.296,117.021 239.774 C 116.401 231.923,115.559 223.475,115.148 221.000 C 114.334 216.095,114.963 211.846,116.582 211.306 C 118.803 210.566,122.000 220.755,122.000 228.575 C 122.000 236.958,122.691 238.912,126.551 241.442 C 129.964 243.678,134.116 242.141,136.814 237.644 C 137.851 235.915,141.130 233.002,144.100 231.171 C 159.541 221.650,167.255 217.000,167.608 217.000 C 168.700 217.000,167.694 220.412,165.000 225.841 C 163.350 229.167,161.984 233.151,161.964 234.694 C 161.945 236.237,161.296 240.148,160.523 243.384 C 158.781 250.680,159.935 262.991,162.907 268.817 C 164.680 272.293,164.905 274.609,164.835 288.626 C 164.791 297.357,165.262 308.321,165.880 312.992 C 166.499 317.663,166.726 323.582,166.386 326.145 C 165.830 330.338,166.005 330.933,168.134 332.081 C 169.435 332.783,175.265 333.556,181.088 333.800 C 197.193 334.475,200.535 331.534,190.028 325.934 C 183.597 322.506,182.459 320.697,183.441 315.461 C 183.939 312.808,186.626 309.704,196.136 300.798 C 213.989 284.078,215.494 280.517,210.000 268.000 C 208.350 264.241,207.000 260.784,207.000 260.318 C 207.000 259.852,206.164 257.902,205.142 255.985 C 203.808 253.482,203.331 250.668,203.449 246.000 C 203.620 239.303,206.423 231.000,208.514 231.000 C 209.135 231.000,212.705 233.440,216.447 236.422 C 221.040 240.082,223.869 243.226,225.156 246.099 C 227.140 250.531,229.806 253.016,233.837 254.191 C 235.604 254.707,236.818 254.273,238.604 252.487 C 239.922 251.169,241.000 249.577,241.000 248.950 C 241.000 248.322,241.930 246.502,243.068 244.905 C 244.342 243.116,244.896 241.248,244.512 240.038 C 243.528 236.937,247.508 231.000,250.571 231.000 C 251.571 231.000,252.000 232.198,252.000 234.986 C 252.000 237.178,252.537 240.977,253.192 243.429 C 254.289 247.528,254.173 248.314,251.755 253.193 L 249.126 258.500 249.046 300.893 C 249.002 324.208,248.678 344.458,248.325 345.893 C 247.972 347.327,246.719 349.850,245.541 351.500 C 244.363 353.150,242.774 355.753,242.011 357.286 C 241.248 358.818,239.477 360.621,238.074 361.293 C 233.413 363.527,234.614 369.000,239.765 369.000 C 242.484 369.000,260.378 360.809,263.250 358.250 C 264.381 357.241,265.000 355.233,265.000 352.568 C 265.000 350.300,265.729 347.404,266.621 346.131 C 267.954 344.228,268.279 340.503,268.452 325.158 C 268.572 314.604,269.208 304.111,269.918 301.000 C 272.709 288.768,273.304 287.000,274.630 287.000 C 275.383 287.000,276.000 287.158,276.000 287.352 C 276.000 287.546,277.095 292.158,278.433 297.602 C 280.153 304.600,281.192 312.918,281.977 325.993 C 282.775 339.267,283.515 345.136,284.598 346.791 C 285.677 348.437,285.921 350.343,285.452 353.469 C 284.839 357.558,284.982 357.938,287.648 359.301 C 289.217 360.103,291.967 361.075,293.760 361.461 C 295.553 361.847,298.253 362.776,299.760 363.524 C 301.267 364.272,304.608 365.446,307.185 366.132 C 316.076 368.500,320.573 363.372,313.461 358.976 C 311.121 357.530,308.859 354.706,306.785 350.644 C 304.073 345.333,303.547 343.009,302.899 333.500 C 302.486 327.450,301.669 317.325,301.083 311.000 C 300.497 304.675,300.013 293.200,300.008 285.500 C 300.000 272.469,298.737 262.138,296.034 253.007 C 294.891 249.143,294.665 242.038,295.607 239.582 C 296.628 236.920,297.983 237.795,299.951 242.387 C 303.156 249.863,306.846 254.877,311.132 257.583 C 314.076 259.442,315.836 261.572,317.309 265.058 C 319.911 271.216,323.542 272.935,327.452 269.859 C 328.854 268.757,330.000 267.024,330.000 266.010 C 330.000 261.790,335.013 254.147,339.639 251.316 C 342.168 249.767,346.169 246.588,348.530 244.250 C 350.890 241.912,353.502 240.000,354.333 240.000 C 357.447 240.000,364.400 246.422,365.186 250.023 C 366.193 254.640,364.564 266.167,361.939 273.000 C 360.777 276.025,359.437 280.080,358.962 282.012 C 358.486 283.943,357.363 287.280,356.466 289.426 C 355.570 291.572,354.429 295.859,353.930 298.951 C 353.432 302.044,351.958 306.807,350.654 309.537 C 348.384 314.291,346.701 319.218,344.006 329.000 C 340.036 343.406,337.045 352.000,335.999 352.000 C 335.539 352.000,334.158 353.627,332.929 355.615 C 331.700 357.603,329.189 359.859,327.348 360.628 C 324.886 361.657,324.000 362.654,324.000 364.397 C 324.000 368.612,332.599 369.256,343.582 365.863 C 352.550 363.092,353.162 362.542,352.799 357.587 C 352.539 354.039,352.787 353.459,354.677 353.190 C 358.120 352.700,358.976 350.851,360.624 340.350 C 361.474 334.933,362.776 329.549,363.518 328.388 C 364.259 327.226,365.532 323.723,366.347 320.604 C 367.303 316.944,369.063 313.566,371.311 311.077 C 373.227 308.956,375.129 306.170,375.536 304.886 C 376.470 301.944,386.909 290.174,389.248 289.426 C 391.477 288.713,401.611 298.279,402.499 301.934 C 402.842 303.345,404.842 307.425,406.944 311.000 C 409.046 314.575,411.342 320.200,412.047 323.500 C 413.629 330.903,415.245 334.228,420.065 340.000 C 422.614 343.052,424.242 346.329,425.124 350.186 C 426.091 354.411,427.013 356.141,428.713 356.915 C 430.411 357.689,431.004 358.799,431.015 361.229 C 431.024 363.028,431.365 365.026,431.774 365.668 C 432.615 366.990,448.647 369.000,458.350 369.000 C 469.580 369.000,472.861 363.304,463.263 360.470 C 458.628 359.101,449.113 353.536,447.398 351.191 C 446.783 350.350,445.712 348.050,445.018 346.081 C 444.325 344.111,442.648 340.025,441.292 337.000 C 439.937 333.975,438.227 330.150,437.493 328.500 C 436.759 326.850,435.845 324.375,435.461 323.000 C 435.077 321.625,434.041 319.678,433.157 318.673 C 432.274 317.669,431.473 315.194,431.376 313.173 C 431.100 307.365,428.424 298.085,425.136 291.529 C 416.796 274.899,414.715 266.510,417.482 260.679 C 419.473 256.483,419.657 253.019,418.581 240.000 C 417.557 227.605,418.462 225.000,423.795 225.000 C 426.778 225.000,428.602 225.823,431.927 228.670 C 436.090 232.233,440.267 234.080,458.000 240.198 C 464.904 242.580,467.314 243.985,470.832 247.683 C 474.795 251.847,475.472 252.185,478.772 251.650 C 480.757 251.327,483.263 250.182,484.341 249.103 C 486.082 247.362,486.158 246.796,485.019 244.045 C 483.539 240.474,479.141 237.000,476.099 237.000 C 474.947 237.000,472.317 235.508,470.253 233.685 C 466.555 230.419,462.335 227.774,452.500 222.557 C 449.750 221.098,446.600 218.877,445.500 217.622 C 444.400 216.367,440.993 213.745,437.928 211.797 C 434.864 209.848,429.914 205.950,426.928 203.135 C 423.568 199.967,419.976 197.604,417.500 196.933 C 410.642 195.075,408.525 193.648,408.177 190.654 C 408.000 189.123,408.605 186.726,409.522 185.326 C 411.267 182.663,411.193 180.573,408.980 170.000 C 406.624 158.739,402.819 154.000,396.134 154.000 C 387.799 154.000,376.923 160.473,375.459 166.307 C 375.011 168.094,375.831 171.977,377.977 178.229 C 382.829 192.361,382.958 191.115,376.319 194.258 C 372.895 195.880,368.812 197.011,366.399 197.007 C 357.612 196.992,352.346 201.478,353.627 207.885 C 354.233 210.916,353.024 213.805,349.767 217.110 C 346.350 220.577,338.771 230.471,338.021 232.446 C 337.563 233.648,336.022 236.353,334.595 238.456 C 333.168 240.559,332.000 243.093,332.000 244.089 C 332.000 246.274,325.554 251.426,323.706 250.718 C 322.984 250.440,320.935 247.578,319.153 244.357 C 317.371 241.135,315.102 237.145,314.110 235.488 C 313.118 233.832,311.520 228.882,310.558 224.488 C 308.134 213.420,305.913 208.828,301.120 204.976 C 295.979 200.845,295.888 198.708,300.750 196.332 C 303.223 195.124,304.500 193.819,304.500 192.500 C 304.500 189.863,300.955 189.377,296.810 191.445 C 292.594 193.548,291.689 192.344,293.028 186.410 C 295.071 177.361,291.773 166.069,286.111 162.725 C 283.683 161.291,282.350 161.162,278.340 161.974 C 275.678 162.513,271.832 163.206,269.793 163.514 C 267.398 163.876,265.335 165.030,263.961 166.776 C 262.020 169.244,261.865 170.483,262.168 181.085 C 262.544 194.244,262.567 194.189,254.573 199.495 C 246.228 205.034,235.189 217.072,233.328 222.662 C 231.369 228.544,230.302 230.000,227.950 230.000 C 224.795 230.000,222.285 225.363,220.640 216.496 C 219.772 211.814,218.597 207.116,218.031 206.057 C 217.464 204.998,217.000 201.678,217.000 198.680 C 217.000 192.704,217.289 192.986,206.750 188.646 C 204.155 187.578,203.000 186.477,203.000 185.071 C 203.000 181.290,206.245 174.517,209.667 171.153 C 214.163 166.734,213.725 165.137,205.585 156.250 C 202.323 152.689,198.795 152.084,195.559 154.532 C 194.434 155.382,191.447 156.000,188.457 156.000 C 174.899 156.000,168.362 170.200,175.411 184.340 C 179.456 192.453,178.793 193.804,166.249 203.000 C 154.102 211.906,138.462 222.066,135.851 222.749 C 132.815 223.543,131.321 221.348,130.672 215.139 C 129.656 205.416,122.777 189.360,114.805 178.105 C 112.552 174.924,108.022 172.015,105.309 172.007 C 102.295 171.998,101.740 170.679,102.895 166.271 C 106.192 153.678,106.216 153.452,104.649 149.703 C 103.022 145.809,102.326 145.505,92.901 144.572 C 89.822 144.267,85.378 143.339,83.026 142.509 C 78.371 140.867,68.335 140.648,63.395 142.081 M190.800 274.200 C 193.035 276.435,192.202 281.433,189.099 284.405 C 182.819 290.422,179.357 284.125,185.016 276.980 C 188.439 272.658,188.992 272.392,190.800 274.200 " style="stroke: none; fill: black;">
                    </path></svg>