<svg id="svg-path" width="100%" height="100%" viewBox="0 0 512 512" version="1.1" xmlns="http://www.w3.org/2000/svg" style="fill-rule:evenodd;clip-rule:evenodd;stroke-linejoin:round;stroke-miterlimit:2;">
                        <path d="M203.398 178.790 C 200.969 180.372,200.791 182.585,197.894 247.304 C 196.852 270.596,196.872 275.951,198.020 280.304 C 198.980 283.949,199.406 292.395,199.445 308.594 C 199.490 327.462,199.771 332.016,200.981 333.475 C 202.372 335.153,204.513 335.218,235.981 334.542 C 284.100 333.509,292.768 333.208,295.007 332.498 C 299.395 331.105,299.256 333.036,300.447 256.500 C 300.747 237.250,301.261 214.525,301.591 206.000 C 302.410 184.800,302.784 185.483,289.887 184.638 C 284.232 184.267,269.232 182.888,256.553 181.572 C 231.967 179.021,205.195 177.620,203.398 178.790 M232.815 195.375 C 237.937 196.654,242.813 198.384,243.648 199.220 C 245.254 200.825,245.707 206.559,245.133 218.000 C 244.953 221.575,244.405 236.650,243.916 251.500 C 242.639 290.196,241.247 306.892,239.032 310.043 C 238.050 311.442,236.925 314.486,236.533 316.806 C 236.103 319.347,235.086 321.419,233.976 322.013 C 232.961 322.556,228.347 323.000,223.721 323.000 C 214.853 323.000,212.962 322.136,211.686 317.500 C 211.210 315.771,209.547 264.782,209.648 255.000 C 209.843 236.063,211.024 201.817,211.572 199.214 C 212.985 192.505,217.816 191.632,232.815 195.375 M284.251 198.642 C 288.298 199.782,288.391 201.241,288.167 260.500 L 287.951 317.500 285.542 319.645 C 283.507 321.457,281.856 321.798,274.905 321.843 C 270.379 321.873,265.820 321.439,264.773 320.878 C 263.725 320.318,261.979 317.978,260.891 315.680 C 259.803 313.381,258.145 310.150,257.207 308.500 C 255.687 305.828,255.516 302.000,255.647 273.500 C 255.728 255.900,256.007 232.600,256.267 221.722 C 256.846 197.565,256.508 198.234,268.370 197.735 C 276.325 197.400,280.734 197.652,284.251 198.642 " style="stroke: none; fill: black;">
                    </path></svg>