<svg id="svg-path" width="100%" height="100%" viewBox="0 0 512 512" version="1.1" xmlns="http://www.w3.org/2000/svg" style="fill-rule:evenodd;clip-rule:evenodd;stroke-linejoin:round;stroke-miterlimit:2;">
                        <path d="M340.500 174.758 C 338.850 174.982,334.800 176.090,331.500 177.221 C 326.860 178.812,322.781 179.303,313.500 179.389 C 301.862 179.497,301.385 179.588,297.691 182.414 C 293.673 185.487,291.000 189.635,291.000 192.795 C 291.000 195.168,293.511 197.385,297.847 198.840 C 299.688 199.458,302.672 201.261,304.478 202.847 C 307.441 205.448,308.286 205.682,313.131 205.240 C 316.664 204.917,320.584 203.596,324.596 201.375 C 327.949 199.519,331.562 198.000,332.624 198.000 C 333.687 198.000,337.807 199.558,341.781 201.462 C 345.754 203.366,350.783 205.403,352.957 205.989 C 360.156 207.927,361.992 212.099,357.586 216.505 C 356.258 217.832,354.121 219.113,352.836 219.351 C 351.551 219.589,347.024 220.579,342.774 221.553 C 335.394 223.244,334.858 223.244,330.774 221.560 C 313.047 214.252,311.577 213.821,306.577 214.473 C 301.447 215.142,299.068 216.078,296.828 218.310 C 291.741 223.379,291.149 223.474,263.706 223.648 C 237.164 223.815,228.746 224.658,219.185 228.105 C 210.966 231.067,205.058 232.195,198.338 232.083 C 194.948 232.026,189.548 232.689,186.338 233.557 C 180.198 235.216,165.533 237.185,145.564 239.034 C 138.999 239.641,131.799 240.866,129.564 241.755 C 126.430 243.002,120.351 243.501,103.000 243.936 C 82.579 244.448,80.251 244.685,77.800 246.500 C 74.923 248.632,73.462 252.728,74.459 255.870 C 75.242 258.337,78.516 259.495,89.000 261.009 C 94.221 261.764,100.581 263.574,105.485 265.701 C 111.147 268.157,114.347 269.003,116.485 268.611 C 126.981 266.687,126.473 266.641,128.036 269.666 C 128.841 271.225,130.295 273.093,131.267 273.818 C 133.694 275.629,132.821 276.567,126.863 278.545 C 122.714 279.924,118.142 280.225,102.606 280.142 C 85.233 280.050,83.163 280.222,80.231 282.006 C 74.472 285.508,76.159 295.187,83.000 297.894 C 84.375 298.438,93.023 299.036,102.217 299.222 C 117.690 299.535,119.141 299.725,121.717 301.773 C 128.822 307.424,130.025 307.579,185.000 309.958 C 198.516 310.543,204.712 311.222,208.000 312.479 C 211.648 313.874,214.678 314.107,224.000 313.712 C 234.427 313.270,236.230 313.465,243.322 315.802 C 250.773 318.257,251.537 318.323,259.374 317.190 C 263.901 316.535,269.830 315.987,272.552 315.971 C 275.611 315.953,280.157 314.864,284.461 313.120 C 291.926 310.093,294.455 310.112,296.112 313.210 C 297.690 316.158,304.790 318.953,310.764 318.978 C 314.529 318.994,320.703 317.435,332.456 313.500 C 341.491 310.475,350.065 308.000,351.508 308.000 C 356.123 308.000,358.004 309.688,357.957 313.785 C 357.916 317.352,357.549 317.738,348.786 323.458 C 337.020 331.137,325.607 334.440,313.898 333.554 C 306.513 332.994,306.199 333.063,302.898 335.973 C 301.029 337.620,299.016 338.975,298.424 338.984 C 296.292 339.016,293.000 343.663,293.000 346.640 C 293.000 352.083,303.322 358.732,309.892 357.521 C 311.876 357.155,320.475 356.535,329.000 356.142 C 339.650 355.652,347.316 354.728,353.500 353.187 C 358.450 351.955,365.425 350.280,369.000 349.466 C 372.575 348.652,377.300 346.732,379.500 345.200 C 385.170 341.251,388.130 333.042,394.451 303.729 C 395.348 299.569,408.324 285.383,413.823 282.550 C 418.457 280.163,421.896 276.128,423.946 270.674 C 424.530 269.120,426.307 265.960,427.896 263.652 C 431.699 258.123,434.000 252.478,434.000 248.674 C 434.000 244.442,426.183 228.973,419.782 220.540 C 416.877 216.712,410.695 210.304,406.044 206.300 C 401.393 202.296,396.302 197.103,394.730 194.760 C 388.184 185.003,383.919 182.591,369.344 180.402 C 364.136 179.619,357.315 178.139,354.187 177.113 C 346.895 174.720,344.199 174.257,340.500 174.758 M180.755 273.235 C 179.542 276.873,142.067 279.632,136.936 276.461 C 134.142 274.734,140.259 273.471,154.000 272.937 C 180.693 271.900,181.198 271.905,180.755 273.235 " style="stroke: none; fill: black;">
                    </path></svg>