<svg id="svg-path" width="100%" height="100%" viewBox="0 0 512 512" version="1.1" xmlns="http://www.w3.org/2000/svg" style="fill-rule:evenodd;clip-rule:evenodd;stroke-linejoin:round;stroke-miterlimit:2;">
                        <path d="M245.500 157.719 C 243.850 157.952,238.000 159.258,232.500 160.623 C 221.907 163.250,212.702 164.690,199.296 165.816 C 191.629 166.460,190.843 166.744,187.296 170.152 C 183.536 173.764,176.090 178.600,164.500 184.958 C 161.200 186.768,157.600 189.038,156.500 190.001 C 155.400 190.965,152.639 192.907,150.364 194.317 C 145.421 197.382,137.141 205.593,132.029 212.500 C 128.586 217.152,119.000 236.825,119.000 239.239 C 119.000 239.830,116.279 245.196,112.953 251.164 C 105.257 264.973,104.058 268.410,102.945 279.834 C 102.141 288.085,102.272 289.869,104.069 295.204 C 106.617 302.768,117.397 318.050,124.275 323.847 C 127.112 326.238,130.661 329.865,132.163 331.907 C 133.758 334.076,137.299 336.836,140.685 338.549 C 143.870 340.161,147.832 342.638,149.488 344.054 C 151.145 345.469,154.075 347.704,156.000 349.020 C 157.925 350.335,163.550 355.295,168.500 360.042 C 181.419 372.430,186.733 375.287,210.000 382.352 C 231.489 388.877,241.375 390.288,249.884 388.048 C 251.873 387.524,257.325 386.127,262.000 384.943 C 266.675 383.760,272.075 382.113,274.000 381.285 C 275.925 380.457,278.850 379.402,280.500 378.941 C 282.150 378.481,286.650 377.193,290.500 376.081 C 294.803 374.837,300.527 374.047,305.356 374.029 C 309.676 374.013,315.751 373.371,318.856 372.602 C 321.960 371.833,326.554 371.200,329.065 371.195 C 335.363 371.183,345.983 368.374,352.799 364.917 C 355.934 363.327,359.056 362.020,359.736 362.013 C 360.415 362.006,363.940 360.425,367.569 358.500 C 371.197 356.575,374.719 355.000,375.394 355.000 C 377.383 355.000,390.105 343.708,395.265 337.361 C 404.538 325.956,413.000 304.890,413.000 293.212 C 413.000 280.151,409.563 267.749,404.221 261.530 C 402.724 259.788,400.375 256.474,399.000 254.165 C 387.564 234.957,368.252 214.518,351.601 204.000 C 346.813 200.975,339.656 196.045,335.697 193.044 C 331.739 190.043,326.863 186.668,324.862 185.544 C 322.861 184.420,316.336 180.165,310.362 176.090 C 304.388 172.014,296.310 167.161,292.411 165.305 C 280.576 159.672,257.785 155.986,245.500 157.719 M280.530 165.730 C 289.992 168.322,298.785 173.390,315.623 185.958 C 323.390 191.756,334.415 199.173,340.123 202.439 C 345.830 205.706,352.719 209.981,355.430 211.939 C 368.854 221.634,390.489 247.035,397.040 260.791 C 398.688 264.252,401.389 272.675,403.041 279.510 L 406.046 291.938 403.955 301.219 C 401.441 312.373,398.126 320.131,391.871 329.500 C 384.445 340.621,376.930 346.861,362.500 353.885 C 345.118 362.347,331.565 365.644,308.500 367.022 C 292.496 367.978,291.309 368.241,269.000 375.791 C 247.892 382.934,242.861 383.768,233.795 381.625 C 229.783 380.677,223.575 378.835,220.000 377.532 C 216.425 376.229,210.800 374.402,207.500 373.472 C 189.510 368.405,189.858 368.612,174.505 353.830 C 167.181 346.778,163.820 344.364,156.500 340.899 C 148.300 337.017,146.229 335.387,133.206 322.569 C 116.232 305.862,112.753 301.410,108.948 291.527 C 106.183 284.347,106.130 283.889,107.527 279.284 C 108.325 276.653,108.983 273.012,108.989 271.194 C 109.000 267.983,113.776 257.029,116.487 254.000 C 117.225 253.175,119.755 248.225,122.109 243.000 C 130.248 224.932,137.162 212.559,141.790 207.783 C 146.845 202.566,171.111 185.933,180.500 181.250 C 188.423 177.299,195.738 175.342,205.559 174.548 C 213.330 173.919,216.493 173.100,224.000 169.772 C 225.925 168.918,231.325 167.298,236.000 166.171 C 240.675 165.043,245.400 163.893,246.500 163.614 C 251.104 162.446,273.660 163.849,280.530 165.730 M249.557 188.223 C 246.617 192.420,248.176 200.000,251.978 200.000 C 254.639 200.000,257.000 196.228,257.000 191.977 C 257.000 186.063,252.618 183.852,249.557 188.223 M225.977 189.023 C 223.347 191.653,223.359 197.359,226.000 200.000 C 228.556 202.556,229.525 202.517,231.443 199.777 C 235.667 193.747,230.810 184.190,225.977 189.023 M200.568 197.257 C 197.429 202.046,202.745 212.117,206.685 208.846 C 208.829 207.067,207.943 198.163,205.440 196.332 C 202.952 194.513,202.282 194.640,200.568 197.257 M216.612 260.294 C 213.905 262.274,211.809 276.357,212.415 288.501 C 213.090 302.027,215.077 309.845,219.868 317.820 C 222.075 321.494,224.812 327.014,225.951 330.087 C 228.254 336.302,231.822 339.226,234.815 337.353 C 238.075 335.313,237.192 331.659,229.896 317.000 C 223.308 303.765,222.622 301.798,221.752 293.648 C 220.506 281.986,221.449 274.460,224.543 271.366 C 226.615 269.294,227.851 269.000,234.500 269.000 C 241.226 269.000,242.371 269.280,244.545 271.455 C 246.968 273.877,247.003 274.166,247.236 293.705 C 247.366 304.592,247.478 319.479,247.486 326.786 C 247.502 341.576,247.670 341.958,254.179 341.985 C 257.670 341.999,261.000 340.000,261.000 337.889 C 261.000 337.356,260.128 335.210,259.062 333.121 C 257.353 329.772,257.043 326.247,256.451 303.410 C 255.722 275.295,256.058 272.689,260.631 270.950 C 262.098 270.392,268.069 269.668,273.899 269.339 C 283.329 268.808,284.754 268.950,286.803 270.623 C 289.982 273.220,291.211 282.378,289.397 289.960 C 288.668 293.007,288.055 296.496,288.036 297.712 C 287.959 302.493,283.526 311.451,276.923 320.173 C 273.115 325.201,270.000 330.112,270.000 331.086 C 270.000 333.029,272.533 336.000,274.189 336.000 C 277.046 336.000,291.349 318.189,292.907 312.690 C 293.560 310.385,295.084 305.575,296.294 302.000 C 298.106 296.644,298.553 292.721,298.835 279.710 C 299.299 258.275,299.437 258.486,285.636 259.374 C 280.061 259.732,270.100 260.281,263.500 260.594 C 256.900 260.906,249.803 261.801,247.730 262.581 C 242.377 264.596,238.834 264.355,231.808 261.500 C 225.042 258.751,219.342 258.298,216.612 260.294 M277.929 356.071 C 274.487 359.513,276.775 368.000,281.144 368.000 C 285.429 368.000,286.123 357.207,281.980 354.989 C 280.454 354.173,279.599 354.401,277.929 356.071 M241.546 360.290 C 238.317 365.217,243.488 373.329,247.654 369.872 C 248.797 368.923,249.080 367.402,248.715 364.166 C 248.011 357.914,244.386 355.955,241.546 360.290 M260.337 359.564 C 259.407 361.988,260.795 371.253,262.224 372.159 C 264.497 373.602,267.903 373.049,268.965 371.066 C 271.535 366.264,268.068 358.000,263.483 358.000 C 262.083 358.000,260.667 358.704,260.337 359.564 " style="stroke: none; fill: black;">
                    </path></svg>