<svg id="svg-path" width="100%" height="100%" viewBox="0 0 512 512" version="1.1" xmlns="http://www.w3.org/2000/svg" style="fill-rule:evenodd;clip-rule:evenodd;stroke-linejoin:round;stroke-miterlimit:2;">
                        <path d="M194.500 184.894 C 192.850 185.931,187.225 190.200,182.000 194.380 C 176.775 198.561,170.096 203.898,167.157 206.240 C 164.219 208.583,156.313 215.000,149.589 220.500 C 142.865 226.000,133.129 233.875,127.953 238.000 C 113.475 249.537,106.000 257.155,106.000 260.373 C 106.000 264.076,108.781 269.232,119.072 284.608 C 125.929 294.853,130.924 300.813,141.799 311.728 C 150.006 319.965,156.835 325.993,158.406 326.387 C 162.500 327.415,167.989 325.459,173.500 321.010 C 183.604 312.853,192.537 305.397,196.961 301.429 C 201.390 297.457,215.600 285.521,225.451 277.500 C 231.788 272.341,238.018 266.783,245.468 259.646 C 251.650 253.724,254.410 252.369,258.250 253.370 C 260.935 254.070,274.071 266.464,279.583 273.498 C 281.738 276.247,285.135 280.297,287.134 282.498 C 289.133 284.699,294.452 290.953,298.954 296.396 C 303.456 301.839,309.471 308.990,312.320 312.286 C 322.889 324.516,325.556 327.685,327.848 330.738 C 330.437 334.187,335.517 337.000,339.151 336.999 C 347.144 336.997,364.636 324.318,390.196 300.000 C 401.613 289.138,404.479 284.607,403.683 278.675 C 402.920 272.985,400.340 269.520,376.000 241.488 C 373.525 238.637,370.641 235.224,369.592 233.903 C 368.543 232.581,366.293 229.870,364.592 227.877 C 362.891 225.885,358.350 220.535,354.500 215.989 C 350.650 211.443,344.238 204.167,340.250 199.820 C 336.262 195.472,333.000 191.569,333.000 191.146 C 333.000 190.722,331.598 189.340,329.884 188.073 C 325.769 185.030,318.910 184.985,313.073 187.963 C 302.009 193.607,284.436 207.123,271.197 220.170 C 263.664 227.594,256.649 233.978,255.609 234.357 C 252.523 235.481,249.836 232.864,241.747 220.858 C 237.539 214.611,232.377 207.262,230.275 204.526 C 226.483 199.588,214.252 188.572,208.500 184.915 C 204.668 182.479,198.357 182.469,194.500 184.894 " style="stroke: none; fill: black;">
                    </path></svg>