<svg id="svg-path" width="100%" height="100%" viewBox="0 0 512 512" version="1.1" xmlns="http://www.w3.org/2000/svg" style="fill-rule:evenodd;clip-rule:evenodd;stroke-linejoin:round;stroke-miterlimit:2;">
                        <path d="M262.000 38.722 C 252.257 42.108,241.153 51.728,237.437 60.000 C 236.572 61.925,235.453 64.400,234.950 65.500 C 232.584 70.671,231.991 80.689,233.530 89.512 C 234.371 94.332,234.859 98.475,234.615 98.719 C 233.632 99.701,229.265 96.615,200.768 74.802 C 198.111 72.767,191.887 68.766,186.938 65.910 C 181.988 63.053,176.786 59.346,175.378 57.672 C 173.094 54.958,172.887 54.062,173.468 49.409 C 174.038 44.851,173.843 43.932,171.933 42.153 C 169.981 40.334,168.822 40.169,161.123 40.621 C 146.545 41.476,146.442 41.549,145.854 51.500 L 145.500 57.500 152.000 61.843 C 159.397 66.785,160.124 67.848,162.695 77.500 C 164.369 83.780,164.943 84.706,168.277 86.500 C 172.385 88.710,172.623 90.316,168.922 90.849 C 167.590 91.040,164.137 92.608,161.250 94.332 C 156.640 97.085,156.000 97.863,156.000 100.711 C 156.000 104.222,158.226 106.305,163.316 107.557 C 165.069 107.989,167.056 109.713,168.579 112.125 C 171.376 116.556,172.891 116.849,177.685 113.885 L 181.107 111.771 188.803 114.529 C 193.036 116.045,202.350 119.423,209.500 122.034 C 216.650 124.646,225.100 127.316,228.277 127.968 C 232.325 128.798,234.496 129.827,235.531 131.406 C 236.663 133.135,237.244 139.808,238.026 160.080 C 238.813 180.472,239.536 188.738,241.195 196.310 C 243.164 205.301,243.222 206.511,241.893 210.810 C 240.804 214.327,240.673 216.819,241.366 220.777 C 242.230 225.708,242.053 226.560,238.672 233.777 C 236.682 238.025,234.174 243.975,233.100 247.000 C 228.870 258.906,219.764 281.812,217.000 287.500 C 214.189 293.287,212.172 300.089,208.553 316.000 C 205.411 329.811,197.977 352.341,195.484 355.610 C 194.132 357.382,188.993 362.530,184.064 367.051 C 174.804 375.542,172.223 379.680,174.053 383.099 C 175.236 385.309,176.463 385.416,182.681 383.850 C 186.129 382.982,188.491 381.389,192.319 377.350 C 197.222 372.177,197.568 372.000,202.761 372.000 C 208.016 372.000,211.721 370.802,213.278 368.600 C 213.706 367.995,213.809 363.450,213.508 358.500 L 212.960 349.500 217.230 341.038 C 220.769 334.024,222.492 331.823,227.296 328.182 C 230.484 325.765,233.761 322.769,234.577 321.523 C 235.393 320.277,237.628 313.462,239.544 306.379 C 242.688 294.753,245.331 287.880,252.575 272.500 C 255.547 266.191,262.978 257.666,266.936 256.027 C 270.623 254.499,273.080 255.091,279.237 258.989 C 283.234 261.519,284.671 263.376,288.439 270.879 C 293.519 280.993,297.165 293.055,299.449 307.300 C 301.117 317.708,302.148 319.989,308.253 326.783 C 314.126 333.318,324.696 350.157,326.027 355.099 C 327.885 361.993,326.456 374.670,323.413 378.286 C 320.352 381.923,320.285 385.545,323.250 387.141 C 326.745 389.023,334.456 388.799,336.722 386.750 C 337.787 385.788,338.950 385.000,339.309 385.000 C 339.667 385.000,344.173 389.275,349.322 394.500 C 358.946 404.266,360.809 405.223,364.777 402.443 C 368.644 399.735,367.232 395.310,358.893 384.000 C 351.345 373.763,340.951 357.655,340.549 355.572 C 336.005 331.989,334.374 325.965,330.373 317.998 C 328.025 313.322,325.430 307.022,324.606 303.998 C 323.782 300.974,321.771 294.000,320.138 288.500 C 310.238 255.163,307.676 245.505,306.458 236.930 C 305.672 231.392,303.552 223.178,301.425 217.430 C 299.404 211.969,297.307 204.800,296.766 201.500 C 296.225 198.200,294.217 187.625,292.305 178.000 C 289.232 162.538,288.808 158.504,288.664 143.357 C 288.479 124.065,288.431 124.214,296.240 120.145 C 303.114 116.562,304.291 115.718,308.500 111.341 C 315.601 103.958,321.000 90.637,321.000 80.500 C 321.000 74.793,318.765 66.313,315.599 60.011 C 310.810 50.475,301.112 42.201,290.572 38.657 C 284.165 36.503,268.281 36.539,262.000 38.722 M177.644 71.799 C 179.215 73.338,182.622 77.103,185.216 80.166 C 187.810 83.228,195.348 90.154,201.966 95.555 C 209.304 101.544,214.000 106.083,214.000 107.188 C 214.000 109.483,212.479 109.458,202.500 106.995 C 195.667 105.308,193.990 104.454,191.000 101.137 C 189.075 99.002,186.229 94.800,184.674 91.801 C 182.536 87.674,181.034 86.052,178.499 85.136 C 175.560 84.073,174.891 83.126,173.046 77.414 C 171.889 73.833,171.207 70.475,171.530 69.951 C 172.565 68.276,174.711 68.925,177.644 71.799 M210.250 376.662 C 209.438 376.990,209.000 379.349,209.000 383.399 L 209.000 389.630 201.095 399.012 C 196.666 404.269,192.756 409.956,192.203 411.947 C 187.809 427.757,187.198 438.668,190.364 444.755 C 191.295 446.546,193.769 449.092,195.861 450.413 C 197.954 451.733,200.782 454.140,202.146 455.761 C 205.223 459.419,209.606 462.362,210.840 461.599 C 211.350 461.284,213.957 461.690,216.634 462.502 C 222.782 464.367,227.947 464.355,230.441 462.468 C 231.509 461.661,233.171 461.000,234.134 461.000 C 238.002 461.000,243.078 456.609,248.456 448.608 C 252.643 442.380,254.000 439.475,254.000 436.740 C 254.000 434.748,254.424 432.856,254.942 432.536 C 255.460 432.215,256.196 429.877,256.576 427.339 C 257.093 423.894,256.854 422.023,255.634 419.958 C 254.735 418.436,254.000 415.844,254.000 414.198 C 254.000 409.033,238.425 390.000,234.198 390.000 C 232.873 390.000,230.452 388.875,228.818 387.500 C 227.184 386.125,224.601 385.000,223.078 385.000 C 220.393 385.000,217.000 382.391,217.000 380.326 C 217.000 379.062,213.669 375.972,212.421 376.079 C 211.915 376.122,210.938 376.385,210.250 376.662 M234.264 397.331 C 239.724 402.790,249.909 415.630,250.948 418.363 C 252.222 421.715,250.091 429.888,245.398 439.645 C 242.514 445.642,240.759 447.872,236.241 451.282 C 230.799 455.390,230.454 455.499,223.039 455.475 C 215.772 455.451,215.137 455.257,209.099 451.225 C 205.619 448.901,202.159 447.000,201.409 447.000 C 199.436 447.000,197.201 443.127,196.447 438.399 C 195.630 433.284,198.209 420.309,201.262 414.173 C 204.861 406.940,211.594 400.201,218.401 397.021 C 226.787 393.104,230.102 393.168,234.264 397.331 M317.500 397.000 C 316.347 398.274,314.420 399.000,312.189 399.000 C 308.454 399.000,302.000 403.063,302.000 405.415 C 302.000 406.138,300.744 408.167,299.209 409.926 C 296.350 413.200,290.087 430.927,289.479 437.464 C 289.308 439.309,288.680 441.730,288.084 442.844 C 287.488 443.957,287.000 447.151,287.000 449.941 C 287.000 454.060,287.455 455.409,289.419 457.117 C 290.750 458.274,292.127 460.408,292.480 461.860 C 292.833 463.312,294.226 466.188,295.575 468.250 C 297.481 471.164,298.678 472.000,300.942 472.000 C 302.831 472.000,304.523 472.849,305.754 474.415 C 310.632 480.616,329.369 479.969,339.318 473.256 C 345.742 468.921,355.402 459.641,358.252 455.065 C 361.003 450.649,361.720 434.293,359.446 427.847 C 358.651 425.593,358.000 422.330,358.000 420.597 C 358.000 418.005,356.384 415.719,348.903 407.723 C 341.726 400.053,339.233 398.000,337.094 398.000 C 335.603 398.000,333.509 397.339,332.441 396.532 C 329.384 394.219,319.743 394.522,317.500 397.000 M339.548 410.500 C 349.402 421.187,354.987 431.504,354.974 439.000 C 354.962 446.292,349.410 454.364,338.208 463.381 C 327.286 472.171,317.705 473.908,307.814 468.893 C 302.764 466.333,296.286 457.090,295.400 451.181 C 293.691 439.783,301.404 412.744,308.097 406.667 C 311.196 403.853,311.298 403.836,322.616 404.167 L 334.015 404.500 339.548 410.500 " style="stroke: none; fill: black;">
                    </path></svg>