<svg id="svg-path" width="100%" height="100%" viewBox="0 0 512 512" version="1.1" xmlns="http://www.w3.org/2000/svg" style="fill-rule:evenodd;clip-rule:evenodd;stroke-linejoin:round;stroke-miterlimit:2;">
                        <path d="M444.056 68.273 C 442.292 69.161,441.041 71.306,439.556 75.987 C 438.000 80.893,436.405 83.540,433.000 86.862 C 428.065 91.677,402.028 108.952,392.500 113.732 C 389.200 115.388,384.250 117.892,381.500 119.296 C 370.648 124.838,361.662 128.329,351.326 131.015 C 342.311 133.358,336.586 136.931,334.127 141.750 C 330.808 148.253,325.378 151.541,310.500 156.054 C 305.550 157.556,299.025 159.733,296.000 160.892 C 292.975 162.051,288.475 163.004,286.000 163.009 C 283.322 163.015,279.334 164.028,276.151 165.510 C 273.209 166.879,270.338 168.000,269.772 168.000 C 269.206 168.000,267.051 166.472,264.983 164.603 C 261.170 161.159,251.053 157.382,248.383 158.407 C 247.580 158.715,247.000 160.367,247.000 162.346 C 247.000 164.221,246.438 166.203,245.750 166.750 C 245.063 167.298,241.350 167.962,237.500 168.226 C 233.022 168.534,228.158 169.695,224.000 171.450 C 211.441 176.749,210.024 177.087,201.624 176.788 C 194.330 176.529,193.470 176.292,193.209 174.467 C 193.049 173.348,194.687 167.154,196.849 160.701 C 199.636 152.385,201.952 147.445,204.802 143.735 C 209.662 137.408,216.467 124.690,219.373 116.501 C 221.587 110.261,222.882 109.156,231.735 105.944 C 233.514 105.298,237.001 102.878,239.485 100.565 C 243.117 97.183,244.006 95.689,244.032 92.930 C 244.049 91.044,244.724 88.626,245.532 87.559 C 247.603 84.821,247.354 80.354,245.000 78.000 C 243.269 76.269,241.667 76.000,233.073 76.000 C 223.578 76.000,223.056 76.113,221.104 78.595 C 219.982 80.022,218.537 83.865,217.894 87.135 C 216.176 95.865,212.688 100.049,203.401 104.515 C 197.469 107.369,193.460 110.363,186.193 117.368 C 174.025 129.096,164.417 141.020,159.723 150.215 C 157.210 155.139,153.438 160.137,148.086 165.635 C 143.313 170.539,139.157 175.906,137.624 179.145 C 134.267 186.242,128.951 192.000,125.756 192.000 C 124.395 192.000,119.731 190.321,115.391 188.270 C 107.718 184.642,107.183 184.539,96.000 184.520 C 85.036 184.501,84.290 184.634,80.000 187.368 C 73.733 191.363,69.160 195.851,66.912 200.210 C 64.396 205.093,64.226 222.478,66.613 230.846 C 68.327 236.854,74.536 246.106,78.260 248.200 C 79.492 248.893,85.225 249.728,91.000 250.055 C 100.411 250.589,102.174 251.005,108.000 254.072 C 114.027 257.245,115.167 257.494,123.665 257.497 C 128.706 257.499,133.165 257.834,133.574 258.242 C 133.983 258.650,134.239 261.217,134.142 263.946 C 134.002 267.905,134.675 270.243,137.470 275.512 L 140.974 282.117 140.444 292.808 C 140.152 298.689,139.179 307.402,138.282 312.172 C 136.890 319.568,136.835 321.849,137.905 327.672 C 138.973 333.482,138.927 335.469,137.595 341.000 C 136.629 345.011,136.024 352.095,136.015 359.503 C 135.998 373.313,133.952 382.283,129.092 389.857 C 122.710 399.803,121.664 405.591,124.625 414.572 C 126.850 421.321,128.927 423.273,133.882 423.273 C 138.650 423.273,141.819 421.415,145.675 416.360 C 148.361 412.838,148.508 412.067,149.062 398.570 C 149.692 383.229,149.946 382.390,158.584 367.107 C 164.030 357.472,169.883 341.878,170.994 334.042 C 172.584 322.828,174.824 318.320,182.758 310.362 C 186.672 306.436,191.324 302.611,193.096 301.862 C 207.382 295.824,212.380 291.665,212.218 285.952 C 212.008 278.589,213.851 277.225,227.607 274.565 C 238.594 272.440,245.894 272.377,249.754 274.373 C 251.485 275.268,254.878 276.000,257.295 276.000 C 262.139 276.000,263.056 276.735,267.275 284.000 C 268.712 286.475,271.271 290.075,272.962 292.000 C 277.526 297.198,284.079 308.422,285.061 312.725 C 285.535 314.801,285.667 320.325,285.354 325.000 C 284.832 332.786,285.043 334.203,287.867 341.873 C 289.563 346.478,291.999 351.653,293.282 353.373 C 294.564 355.093,297.110 358.966,298.939 361.979 C 300.767 364.993,304.270 369.921,306.722 372.931 C 309.173 375.941,312.053 380.225,313.121 382.452 C 316.800 390.120,319.237 391.913,325.862 391.821 C 330.029 391.764,333.993 393.995,334.006 396.405 C 334.010 397.007,334.658 398.737,335.446 400.249 C 339.494 408.007,343.046 421.440,344.169 433.234 C 345.527 447.488,346.850 450.000,353.000 450.000 C 355.513 450.000,357.290 449.298,358.701 447.750 C 362.892 443.148,363.488 440.879,363.308 430.209 C 363.168 421.950,363.511 419.088,365.045 415.709 C 366.096 413.394,366.966 409.504,366.978 407.065 C 366.998 402.949,366.579 402.228,361.165 397.065 C 351.573 387.916,349.214 378.769,353.750 368.315 C 356.905 361.045,356.675 357.772,352.694 353.253 C 346.609 346.345,345.140 343.931,342.925 337.196 C 341.713 333.513,339.713 328.475,338.481 326.000 C 333.858 316.719,321.246 276.942,318.058 261.591 C 315.449 249.026,315.148 226.564,317.524 221.651 C 320.888 214.693,331.761 205.131,346.851 195.859 C 378.341 176.512,382.376 174.301,413.000 159.613 C 419.325 156.580,426.075 153.178,428.000 152.054 C 429.925 150.930,434.986 148.413,439.247 146.461 C 449.457 141.784,450.733 139.598,448.423 130.748 C 446.089 121.803,446.920 103.615,450.010 96.000 C 453.748 86.790,454.656 71.554,451.612 69.130 C 449.437 67.398,446.465 67.061,444.056 68.273 " style="stroke: none; fill: black;">
                    </path></svg>