<svg id="svg-path" width="100%" height="100%" viewBox="0 0 512 512" version="1.1" xmlns="http://www.w3.org/2000/svg" style="fill-rule:evenodd;clip-rule:evenodd;stroke-linejoin:round;stroke-miterlimit:2;">
                        <path d="M229.500 238.528 C 227.300 239.253,224.242 239.881,222.704 239.923 C 221.167 239.965,214.958 241.856,208.907 244.124 C 197.266 248.487,194.095 248.706,181.500 246.020 C 158.435 241.100,148.322 240.006,125.850 240.003 L 108.201 240.000 98.850 243.581 C 75.610 252.480,71.399 254.290,69.882 256.035 C 67.620 258.637,64.788 267.756,65.523 270.073 C 66.471 273.059,69.293 272.375,74.337 267.934 C 82.923 260.377,95.618 257.142,103.600 260.477 C 105.545 261.290,110.778 262.411,115.231 262.970 C 124.939 264.187,126.992 265.656,127.020 271.405 C 127.049 277.424,128.818 288.841,130.528 294.039 C 131.551 297.151,134.375 301.082,139.509 306.539 C 144.069 311.388,146.997 315.347,146.998 316.667 C 147.001 319.625,141.537 321.495,127.000 323.512 C 120.675 324.390,113.281 325.759,110.568 326.554 C 102.888 328.806,95.764 328.421,89.871 325.435 C 84.224 322.573,70.232 318.697,68.269 319.450 C 65.336 320.576,67.130 324.540,73.250 330.460 C 79.839 336.834,82.009 337.749,99.500 341.526 C 102.800 342.239,107.597 343.728,110.160 344.837 C 114.482 346.706,115.929 346.791,130.160 346.015 C 138.597 345.555,147.300 344.647,149.500 343.997 C 151.700 343.347,158.675 340.196,165.000 336.995 C 171.325 333.795,178.075 330.702,180.000 330.122 C 186.856 328.057,225.265 322.000,231.506 322.000 C 237.585 322.000,251.599 320.457,255.227 319.388 C 256.178 319.108,258.803 317.336,261.061 315.449 C 264.452 312.616,265.510 312.203,267.140 313.075 C 268.225 313.656,269.400 314.889,269.751 315.815 C 271.284 319.867,275.727 322.000,282.632 322.000 C 285.108 322.000,293.066 322.926,300.317 324.057 C 311.839 325.855,314.949 325.984,325.000 325.079 C 331.325 324.510,337.503 324.309,338.730 324.633 C 340.076 324.989,342.600 324.368,345.098 323.066 L 349.236 320.909 357.368 322.883 C 364.214 324.544,372.984 326.192,393.573 329.683 C 395.717 330.047,398.171 329.407,401.688 327.568 C 406.299 325.157,407.144 325.024,411.557 326.013 C 417.647 327.378,429.001 325.781,433.654 322.905 C 438.345 320.006,441.816 315.498,442.608 311.277 C 443.534 306.339,441.571 294.288,439.460 291.956 C 437.943 290.279,437.470 290.224,435.129 291.450 C 433.683 292.207,429.031 296.240,424.790 300.413 C 417.722 307.369,416.740 308.000,412.991 308.000 C 410.741 308.000,407.618 307.337,406.051 306.527 C 404.484 305.716,397.625 303.713,390.809 302.074 C 383.993 300.436,372.360 297.113,364.958 294.691 C 357.556 292.268,349.691 289.785,347.481 289.172 C 342.166 287.699,339.160 285.480,340.556 284.061 C 341.137 283.471,343.837 282.366,346.556 281.607 C 349.275 280.847,352.850 279.736,354.500 279.137 C 356.150 278.539,361.550 276.866,366.500 275.421 C 371.450 273.975,377.975 271.979,381.000 270.985 C 384.025 269.991,389.358 268.659,392.852 268.026 C 396.345 267.393,401.157 265.926,403.545 264.766 C 412.081 260.619,421.927 265.218,431.102 277.639 C 435.034 282.960,437.764 284.260,439.739 281.750 C 441.407 279.631,445.000 266.403,445.000 262.383 C 445.000 258.990,444.241 257.834,438.014 251.741 L 431.028 244.906 417.764 245.203 C 406.636 245.452,403.985 245.218,401.300 243.750 C 399.124 242.561,395.921 242.006,391.300 242.020 C 384.539 242.040,380.857 242.490,363.339 245.438 C 349.950 247.691,332.582 247.412,325.832 244.834 C 321.415 243.148,317.412 242.717,302.500 242.325 L 284.500 241.851 275.075 247.367 C 263.839 253.944,262.009 253.782,261.985 246.215 C 261.976 243.622,261.597 240.913,261.143 240.196 C 259.279 237.258,236.930 236.079,229.500 238.528 M76.750 277.080 C 74.458 278.415,74.535 280.269,76.974 282.477 C 78.374 283.743,80.923 284.346,85.724 284.547 C 89.451 284.702,94.816 285.145,97.646 285.530 C 102.353 286.170,102.851 286.045,103.479 284.066 C 104.540 280.723,101.769 277.388,97.320 276.653 C 91.424 275.679,78.702 275.943,76.750 277.080 M77.061 297.885 C 76.241 299.419,76.228 300.558,77.015 302.029 C 78.034 303.933,78.912 304.040,91.301 303.779 C 104.326 303.504,104.504 303.469,104.835 301.135 C 105.019 299.834,104.794 298.413,104.335 297.978 C 103.876 297.543,97.806 296.868,90.847 296.479 C 78.625 295.795,78.154 295.843,77.061 297.885 M116.000 310.180 C 111.599 311.438,110.000 312.745,110.000 315.087 C 110.000 318.060,113.109 319.040,119.328 318.028 C 126.153 316.917,129.000 315.486,129.000 313.165 C 129.000 309.127,123.836 307.942,116.000 310.180 " style="stroke: none; fill: black;">
                    </path></svg>