<svg id="svg-path" width="100%" height="100%" viewBox="0 0 512 512" version="1.1" xmlns="http://www.w3.org/2000/svg" style="fill-rule:evenodd;clip-rule:evenodd;stroke-linejoin:round;stroke-miterlimit:2;">
                        <path d="M127.582 148.513 C 123.777 149.830,117.702 152.327,114.082 154.062 C 104.371 158.716,92.284 163.000,88.866 163.000 C 84.839 163.000,82.162 161.477,78.082 156.864 C 74.032 152.285,71.001 151.913,68.073 155.635 C 64.912 159.653,65.422 162.774,69.920 166.926 C 72.650 169.446,74.724 172.815,76.753 178.023 C 79.810 185.867,79.882 188.624,77.481 206.000 C 76.921 210.054,77.178 210.880,80.073 214.336 C 81.841 216.446,85.776 219.371,88.816 220.836 C 91.857 222.301,94.520 224.032,94.733 224.682 C 95.386 226.671,91.467 228.128,88.500 227.000 C 83.657 225.159,78.149 225.781,75.217 228.500 C 73.734 229.875,71.374 231.000,69.972 231.000 C 68.571 231.000,65.435 232.013,63.003 233.250 C 58.304 235.642,56.851 238.462,57.981 243.000 C 58.544 245.265,59.069 245.491,63.551 245.402 C 66.273 245.348,70.834 244.951,73.687 244.520 C 78.282 243.826,79.387 244.037,83.365 246.368 C 86.739 248.346,89.221 249.000,93.345 249.000 C 96.680 249.000,100.731 249.814,103.667 251.074 C 106.325 252.215,110.750 253.390,113.500 253.684 C 116.250 253.979,120.428 254.846,122.785 255.610 C 130.982 258.269,138.005 256.962,143.750 251.709 C 146.293 249.383,146.785 243.817,144.827 239.520 C 143.193 235.933,144.736 234.862,149.000 236.624 C 152.470 238.057,157.759 244.320,164.689 255.201 C 170.278 263.975,174.154 267.000,179.811 267.000 C 182.878 267.000,188.568 263.616,193.367 258.937 C 194.945 257.400,198.141 254.937,200.470 253.465 C 203.162 251.763,205.476 249.199,206.824 246.425 C 208.428 243.125,210.123 241.465,213.785 239.609 C 220.789 236.060,221.591 234.820,219.998 229.994 C 218.340 224.970,215.571 222.000,212.546 222.000 C 210.299 222.000,208.330 223.684,202.821 230.323 C 200.511 233.106,191.677 236.902,187.357 236.967 C 184.787 237.007,184.000 235.266,184.000 229.541 C 184.000 225.012,184.923 223.713,189.000 222.503 C 192.859 221.358,205.218 213.426,208.532 209.967 C 211.050 207.338,211.497 206.083,211.482 201.684 C 211.471 198.725,210.682 194.912,209.642 192.800 C 207.860 189.181,208.060 187.000,210.175 187.000 C 210.756 187.000,213.317 188.514,215.866 190.364 C 221.967 194.793,226.630 196.848,231.399 197.207 C 233.659 197.377,235.587 198.130,235.987 199.000 C 238.657 204.806,239.823 206.545,242.254 208.351 L 245.009 210.397 249.087 206.449 C 254.578 201.132,256.000 198.096,256.000 191.690 C 256.000 186.796,255.616 185.845,251.964 181.697 C 246.841 175.877,244.917 175.270,240.412 178.055 C 237.773 179.686,236.563 179.963,235.727 179.127 C 234.039 177.439,230.808 177.804,228.000 180.000 C 223.706 183.359,219.755 182.227,216.909 176.824 C 214.960 173.123,200.449 160.086,196.393 158.391 C 189.765 155.622,183.918 157.269,176.674 163.947 C 174.228 166.201,169.155 170.064,165.401 172.529 C 158.624 176.980,158.528 177.008,152.038 176.371 C 141.356 175.323,139.746 173.534,144.977 168.522 C 151.811 161.975,151.079 153.909,143.197 148.910 C 137.722 145.438,136.548 145.408,127.582 148.513 M323.500 160.517 C 319.650 161.831,315.782 162.927,314.905 162.953 C 309.822 163.102,307.769 173.775,312.142 177.316 C 313.845 178.695,315.278 178.982,317.952 178.477 C 319.903 178.108,325.465 177.432,330.311 176.975 C 339.827 176.078,341.474 175.272,343.398 170.568 C 345.999 164.211,341.197 157.924,333.846 158.063 C 332.006 158.098,327.350 159.202,323.500 160.517 M406.635 176.073 C 403.330 178.673,403.084 183.904,406.070 188.098 C 408.616 191.674,410.935 192.966,418.000 194.746 C 432.364 198.363,430.941 198.313,435.212 195.353 C 439.606 192.308,442.391 187.807,441.540 185.126 C 440.318 181.276,435.225 177.830,427.922 175.913 C 418.032 173.316,410.063 173.376,406.635 176.073 M382.254 223.750 C 378.924 226.638,369.000 242.336,369.000 244.715 C 369.000 247.610,372.028 251.769,375.046 253.019 C 379.361 254.806,382.636 253.451,386.418 248.314 C 388.113 246.011,391.300 242.002,393.500 239.405 C 396.854 235.447,397.500 233.968,397.500 230.255 C 397.500 226.643,396.983 225.382,394.694 223.413 C 390.866 220.121,386.296 220.244,382.254 223.750 M302.094 227.790 C 287.696 236.496,281.368 244.645,284.024 251.059 C 285.093 253.639,285.747 254.000,289.353 254.000 C 293.255 254.000,294.010 253.448,304.232 243.123 C 315.791 231.447,317.163 228.628,312.777 225.557 C 309.696 223.399,309.178 223.507,302.094 227.790 M446.433 255.035 C 441.276 256.594,431.000 272.529,431.000 278.967 C 431.000 284.343,435.581 289.000,440.869 289.000 C 443.943 289.000,445.277 288.267,448.600 284.750 C 456.837 276.033,460.335 268.840,459.335 262.679 C 458.238 255.918,453.263 252.971,446.433 255.035 M334.886 273.114 C 333.088 274.912,332.869 275.956,333.421 280.115 C 333.778 282.804,334.979 286.546,336.092 288.431 C 337.204 290.316,339.037 295.153,340.164 299.179 C 342.470 307.413,344.253 310.000,347.620 310.000 C 351.525 310.000,352.259 306.982,351.460 294.200 C 350.646 281.174,349.455 277.402,344.960 273.620 C 341.194 270.451,337.724 270.276,334.886 273.114 M169.209 281.389 C 166.984 283.803,163.952 288.415,162.470 291.639 C 160.989 294.862,158.918 299.348,157.868 301.607 C 156.498 304.557,154.862 306.209,152.067 307.470 C 145.622 310.376,144.368 308.058,148.488 300.852 C 153.172 292.659,151.108 284.683,143.330 280.918 C 139.329 278.981,138.391 278.933,124.808 279.971 C 99.360 281.917,92.874 282.898,86.719 285.734 C 80.320 288.682,79.831 288.636,67.334 283.894 C 62.400 282.022,60.601 281.758,58.334 282.573 C 55.868 283.458,55.515 284.080,55.619 287.354 C 55.750 291.465,60.006 297.000,63.038 297.000 C 66.814 297.000,71.067 299.373,73.054 302.588 L 75.163 305.999 84.831 305.437 C 99.346 304.594,100.387 306.557,89.220 313.715 C 80.117 319.550,76.205 326.595,73.444 342.128 C 71.418 353.521,71.826 360.943,74.816 367.120 C 77.864 373.417,77.704 374.378,73.750 373.532 C 71.962 373.150,68.170 372.705,65.322 372.545 C 62.171 372.366,58.756 371.394,56.598 370.061 C 54.350 368.671,51.855 367.985,49.779 368.185 C 47.009 368.452,46.006 369.339,43.253 373.956 C 41.464 376.956,40.000 379.776,40.000 380.220 C 40.000 382.170,46.637 384.804,53.169 385.448 C 60.140 386.135,60.277 386.206,66.123 392.125 C 72.491 398.572,85.111 405.519,92.555 406.675 C 94.725 407.012,98.705 408.390,101.401 409.737 C 107.129 412.600,114.536 414.974,117.790 414.989 C 121.261 415.006,127.316 411.543,130.845 407.524 C 134.369 403.510,134.761 400.448,132.823 392.053 C 131.930 388.184,131.926 386.674,132.806 385.794 C 133.445 385.155,139.237 383.849,145.678 382.891 C 160.394 380.703,160.681 380.831,170.185 393.793 C 180.736 408.185,182.648 410.000,187.246 410.000 C 194.155 410.000,203.896 403.571,210.710 394.514 C 213.198 391.206,215.588 387.600,216.021 386.500 C 217.409 382.972,221.072 379.912,226.964 377.356 C 235.735 373.552,239.627 365.197,234.961 360.189 C 232.675 357.735,230.308 357.447,226.539 359.164 C 224.536 360.077,223.438 360.037,221.469 358.983 C 219.035 357.681,218.644 357.953,209.291 367.428 C 203.975 372.813,197.888 378.369,195.764 379.775 C 192.122 382.185,191.805 382.233,190.201 380.621 C 188.852 379.266,188.547 377.343,188.726 371.337 C 188.856 367.000,189.497 363.104,190.226 362.223 C 190.927 361.376,194.147 359.431,197.382 357.899 C 210.428 351.724,217.799 342.994,216.725 334.988 C 216.053 329.974,210.722 322.594,206.117 320.301 C 203.427 318.961,200.419 318.537,194.375 318.644 L 186.250 318.788 185.608 313.326 C 185.255 310.321,185.229 307.438,185.551 306.918 C 185.872 306.398,188.179 307.441,190.678 309.236 C 194.444 311.942,196.441 312.603,202.360 313.104 C 206.287 313.436,210.850 314.207,212.500 314.816 C 214.150 315.426,218.962 316.451,223.194 317.094 C 231.909 318.419,233.257 319.809,230.044 324.155 C 228.920 325.675,228.000 327.522,228.000 328.260 C 228.000 330.005,230.024 332.000,231.796 332.000 C 234.339 332.000,239.204 327.755,240.663 324.264 C 241.767 321.623,242.495 320.994,243.800 321.554 C 247.441 323.116,250.866 323.121,253.868 321.568 C 256.916 319.992,257.000 319.764,257.000 313.088 L 257.000 306.228 253.436 304.537 C 250.956 303.360,248.699 303.044,246.012 303.498 C 242.747 304.050,241.979 303.830,241.039 302.074 C 240.428 300.931,238.281 299.309,236.269 298.468 C 233.059 297.127,232.170 297.115,229.027 298.373 C 226.435 299.410,223.045 299.657,216.777 299.266 C 208.891 298.774,207.864 298.467,205.368 295.862 C 203.860 294.288,202.129 293.000,201.521 293.000 C 200.914 293.000,198.410 290.949,195.958 288.442 C 189.056 281.386,181.869 277.000,177.208 277.000 C 173.819 277.000,172.678 277.626,169.209 281.389 M416.985 313.543 C 414.518 314.942,408.805 317.855,404.289 320.017 C 396.179 323.899,393.000 327.131,393.000 331.496 C 393.000 334.581,397.632 338.005,401.705 337.930 C 407.120 337.829,407.868 337.405,418.984 328.113 C 427.996 320.579,429.000 319.406,429.000 316.405 C 429.000 310.595,424.199 309.452,416.985 313.543 M329.949 373.051 C 328.509 374.491,328.104 375.754,328.592 377.289 C 329.375 379.758,348.415 400.561,350.689 401.434 C 351.500 401.745,353.911 402.000,356.047 402.000 C 360.210 402.000,362.000 400.167,362.000 395.903 C 362.000 392.722,356.632 384.937,352.413 382.000 C 350.438 380.625,347.400 378.325,345.661 376.889 C 341.559 373.500,336.630 371.000,334.050 371.000 C 332.922 371.000,331.077 371.923,329.949 373.051 " style="stroke: none; fill: black;">
                    </path></svg>