<svg id="svg-path" width="100%" height="100%" viewBox="0 0 512 512" version="1.1" xmlns="http://www.w3.org/2000/svg" style="fill-rule:evenodd;clip-rule:evenodd;stroke-linejoin:round;stroke-miterlimit:2;">
                        <path d="M223.073 167.635 C 218.403 173.572,221.249 176.869,232.861 178.975 C 238.194 179.942,239.532 179.882,241.509 178.586 C 247.367 174.748,245.040 169.026,236.625 166.579 C 228.681 164.270,225.526 164.516,223.073 167.635 M266.000 184.514 C 262.975 185.801,257.452 187.379,253.727 188.021 C 247.985 189.011,246.748 189.593,245.599 191.844 C 243.345 196.262,240.821 209.241,241.387 213.500 C 241.858 217.042,241.380 218.298,237.210 224.470 C 232.160 231.942,232.498 231.752,218.621 234.940 C 214.556 235.874,213.389 235.804,211.621 234.522 C 199.148 225.468,197.902 223.501,203.500 221.703 C 207.862 220.301,210.000 218.070,210.000 214.916 C 210.000 210.076,207.842 208.998,198.179 209.015 C 193.405 209.024,188.825 209.457,188.000 209.977 C 186.967 210.629,186.290 213.506,185.826 219.212 C 185.455 223.770,184.835 229.012,184.446 230.860 C 183.805 233.915,184.121 234.567,187.936 238.054 C 191.563 241.370,191.982 242.165,191.035 243.934 C 190.433 245.059,188.717 246.623,187.220 247.409 C 185.724 248.195,182.552 250.726,180.170 253.033 C 175.070 257.974,175.123 259.383,180.703 267.149 C 185.354 273.623,184.597 275.291,176.684 276.009 C 169.928 276.622,167.892 278.649,168.254 284.400 C 168.579 289.562,171.776 291.888,180.922 293.617 C 191.315 295.583,192.480 294.868,195.615 284.604 C 196.102 283.011,197.267 281.226,198.204 280.638 C 199.601 279.761,200.610 280.328,203.801 283.784 C 207.113 287.371,208.282 288.000,211.646 288.000 C 216.325 288.000,218.000 289.378,218.000 293.224 L 218.000 296.049 209.562 295.813 C 199.114 295.521,196.728 296.995,197.202 303.448 C 197.486 307.308,197.773 307.630,203.250 310.240 C 209.317 313.131,210.194 314.837,207.468 318.441 C 205.389 321.190,205.592 327.320,207.829 329.345 C 210.341 331.618,213.610 331.375,219.500 328.478 C 227.069 324.755,230.982 325.130,235.384 330.003 C 240.766 335.960,239.907 339.977,233.292 339.789 C 227.893 339.636,214.000 350.199,214.000 354.458 C 214.000 355.222,215.165 357.231,216.589 358.923 C 219.836 362.782,223.241 362.866,228.096 359.209 C 230.074 357.719,233.629 355.038,235.996 353.250 C 241.282 349.258,245.138 349.047,248.647 352.556 C 250.565 354.474,251.018 355.661,250.463 357.306 C 250.055 358.513,249.519 364.073,249.272 369.662 C 248.861 378.964,249.000 380.000,250.912 381.912 C 253.569 384.569,259.067 384.688,261.375 382.138 C 263.437 379.860,264.986 370.940,264.994 361.307 C 265.002 351.771,266.033 351.000,278.772 351.000 C 284.821 351.000,289.053 350.507,290.813 349.597 C 292.305 348.825,295.770 347.871,298.513 347.478 C 301.384 347.065,304.493 345.857,305.840 344.631 C 308.019 342.646,308.134 342.008,307.512 335.327 C 306.893 328.680,307.000 328.070,308.971 327.016 C 312.182 325.297,317.061 327.341,319.784 331.547 C 323.033 336.566,325.572 337.236,334.764 335.499 C 347.124 333.163,349.800 328.090,343.480 318.971 C 342.116 317.003,341.000 314.390,341.000 313.164 C 341.000 309.083,338.299 304.391,331.238 296.206 C 322.107 285.622,321.226 280.886,325.715 266.500 C 329.273 255.097,330.260 254.000,336.960 254.000 C 341.293 254.000,352.878 250.122,355.058 247.942 C 357.995 245.005,357.621 239.657,354.260 236.540 C 351.056 233.569,349.925 233.465,343.741 235.573 C 337.387 237.738,333.835 237.171,332.194 233.731 C 330.342 229.850,327.201 228.082,320.134 226.944 C 309.599 225.248,309.000 224.818,309.000 218.959 C 309.000 212.232,307.948 210.552,301.435 206.877 C 298.423 205.176,294.299 201.696,292.270 199.143 C 290.242 196.589,285.820 191.688,282.443 188.250 C 275.485 181.168,274.429 180.928,266.000 184.514 M256.422 220.609 C 257.295 220.943,260.188 223.826,262.852 227.014 L 267.695 232.810 268.388 244.396 C 269.177 257.588,268.640 259.417,263.334 261.634 C 257.144 264.220,249.573 260.572,248.425 254.450 C 247.516 249.608,248.691 247.198,253.039 244.980 C 260.211 241.321,260.596 237.058,254.564 228.095 C 252.604 225.182,251.000 222.169,251.000 221.400 C 251.000 219.945,253.677 219.555,256.422 220.609 M283.311 280.250 C 286.360 283.082,290.202 292.259,289.352 294.677 C 288.999 295.680,287.351 297.949,285.689 299.720 C 283.638 301.905,282.667 303.958,282.667 306.111 C 282.667 310.759,285.196 312.190,292.044 311.415 C 296.538 310.907,297.970 311.113,299.320 312.463 C 301.468 314.611,301.447 316.298,299.250 318.224 C 295.431 321.573,291.019 323.000,284.484 323.000 C 280.845 323.000,277.111 323.413,276.184 323.919 C 275.258 324.424,272.700 327.361,270.500 330.445 C 266.596 335.919,264.039 337.526,260.329 336.838 C 258.090 336.424,250.141 321.677,250.058 317.783 C 249.989 314.528,254.323 309.892,262.854 304.099 C 266.086 301.904,269.971 298.635,271.485 296.835 C 273.989 293.860,274.186 293.052,273.653 287.956 C 272.701 278.841,277.592 274.938,283.311 280.250 M313.777 292.557 C 315.687 293.894,316.000 295.030,316.000 300.621 L 316.000 307.128 311.880 304.814 C 301.977 299.253,299.945 291.000,308.477 291.000 C 310.170 291.000,312.555 291.701,313.777 292.557 M321.841 312.117 C 322.555 313.260,322.885 314.448,322.575 314.758 C 321.772 315.561,318.000 311.948,318.000 310.376 C 318.000 308.568,320.266 309.595,321.841 312.117 M317.455 354.455 C 314.310 357.599,314.366 358.700,317.944 364.101 C 324.003 373.250,329.398 375.696,333.190 371.014 C 335.679 367.941,335.485 366.431,331.884 360.819 C 326.211 351.979,321.853 350.057,317.455 354.455 " style="stroke: none; fill: black;">
                    </path></svg>