<svg id="svg-path" width="100%" height="100%" viewBox="0 0 512 512" version="1.1" xmlns="http://www.w3.org/2000/svg" style="fill-rule:evenodd;clip-rule:evenodd;stroke-linejoin:round;stroke-miterlimit:2;">
                        <path d="M138.388 125.946 C 129.799 132.456,129.000 133.218,129.000 134.906 C 129.000 135.870,127.830 139.919,126.399 143.902 C 124.682 148.685,123.989 152.225,124.361 154.323 C 124.671 156.070,125.341 160.303,125.850 163.728 C 126.360 167.154,127.750 171.606,128.940 173.623 C 130.130 175.639,130.877 177.879,130.600 178.599 C 130.324 179.320,128.163 180.876,125.799 182.057 C 123.434 183.238,119.191 186.453,116.369 189.201 C 113.547 191.949,110.172 194.730,108.869 195.382 C 106.977 196.328,106.498 197.366,106.491 200.533 C 106.486 202.715,106.159 205.004,105.763 205.619 C 104.820 207.087,82.412 206.310,79.126 204.695 C 77.820 204.054,75.451 201.272,73.863 198.514 C 72.274 195.757,70.375 192.722,69.642 191.770 C 67.997 189.636,60.287 186.052,57.276 186.022 C 53.185 185.982,50.414 195.168,53.038 200.070 C 53.608 201.137,56.691 203.330,59.889 204.944 C 67.814 208.944,71.285 212.071,74.888 218.455 C 79.108 225.934,82.968 229.597,90.265 233.049 C 95.061 235.318,97.918 235.999,102.643 235.999 C 109.711 236.000,110.218 236.574,108.895 243.068 C 106.643 254.125,105.326 263.530,105.784 265.281 C 106.060 266.339,108.217 268.021,110.610 269.047 C 113.459 270.268,115.137 271.696,115.521 273.227 C 116.032 275.262,111.788 297.916,110.508 299.987 C 110.243 300.416,109.558 304.063,108.987 308.092 C 108.416 312.121,106.835 317.770,105.474 320.646 C 104.113 323.523,103.000 326.338,103.000 326.903 C 103.000 327.468,101.673 329.442,100.051 331.289 C 98.429 333.137,96.139 337.580,94.963 341.162 C 93.787 344.745,91.755 349.437,90.448 351.588 C 86.182 358.608,85.110 361.415,84.485 367.196 C 83.560 375.754,78.147 383.500,68.020 390.757 C 60.798 395.932,60.030 396.797,60.253 399.500 C 60.454 401.947,61.322 402.914,64.962 404.750 C 71.376 407.985,74.295 407.671,79.272 403.214 C 81.598 401.132,85.188 398.184,87.250 396.663 C 89.313 395.143,91.000 393.389,91.000 392.768 C 91.000 392.146,92.463 388.056,94.250 383.680 C 96.679 377.731,98.826 374.396,102.750 370.470 C 105.920 367.298,108.000 364.340,108.000 363.004 C 108.000 359.757,111.430 353.429,123.942 333.592 C 140.561 307.244,149.727 296.000,154.586 296.000 C 160.935 296.000,193.101 316.367,206.520 328.884 C 221.769 343.108,225.243 346.094,230.311 349.336 C 233.302 351.249,237.835 355.537,240.425 358.902 C 245.761 365.837,248.132 366.504,255.000 363.000 C 257.156 361.900,259.861 361.000,261.010 361.000 C 266.379 361.000,273.000 354.862,273.000 349.884 C 273.000 346.184,269.963 345.354,263.377 347.254 C 260.368 348.122,257.207 348.381,255.123 347.931 C 249.999 346.823,244.000 342.029,241.346 336.921 C 239.936 334.207,231.403 324.635,220.398 313.421 C 201.658 294.325,184.053 272.631,179.296 262.770 C 175.742 255.402,176.166 253.235,182.202 247.912 C 186.738 243.912,187.392 242.862,187.304 239.725 C 187.247 237.745,186.481 235.097,185.601 233.840 C 184.720 232.583,184.000 230.556,184.000 229.334 C 184.000 225.525,187.581 224.000,196.528 224.000 C 206.349 224.000,216.180 221.055,218.780 217.336 C 224.412 209.278,224.756 209.047,230.814 209.247 C 235.360 209.397,237.803 208.812,243.000 206.332 C 246.575 204.626,251.525 202.936,254.000 202.577 C 256.475 202.217,262.325 201.284,267.000 200.504 C 271.675 199.723,278.650 198.562,282.500 197.924 C 286.350 197.286,294.937 196.440,301.582 196.045 C 308.226 195.650,314.216 194.984,314.892 194.567 C 315.568 194.149,317.358 194.320,318.871 194.946 C 320.910 195.791,322.556 198.089,325.242 203.840 C 327.234 208.105,330.943 214.419,333.485 217.872 C 339.446 225.970,339.642 226.564,340.505 239.227 C 341.208 249.541,341.355 250.054,344.732 254.001 C 347.846 257.638,348.330 258.995,349.124 266.294 C 349.614 270.808,350.466 276.750,351.016 279.500 C 351.567 282.250,351.952 288.100,351.873 292.500 C 351.683 302.996,353.344 317.394,355.377 322.876 C 356.270 325.282,357.000 328.740,357.000 330.560 C 357.000 332.380,357.627 336.936,358.393 340.685 C 359.159 344.433,360.104 350.183,360.492 353.463 C 360.880 356.743,362.081 361.668,363.161 364.409 C 364.241 367.149,365.377 373.016,365.686 377.446 C 366.162 384.298,365.861 386.751,363.664 393.879 C 361.279 401.623,361.197 402.480,362.589 405.172 C 364.206 408.300,368.022 410.313,370.518 409.355 C 372.994 408.404,376.788 400.906,377.527 395.500 C 377.902 392.750,379.513 388.144,381.105 385.265 C 384.578 378.984,384.690 376.793,381.814 371.362 C 379.630 367.239,379.628 367.194,381.394 359.362 C 382.811 353.073,383.051 348.898,382.590 338.500 C 382.273 331.350,381.923 323.250,381.812 320.500 C 381.701 317.750,382.333 311.900,383.216 307.500 C 384.100 303.100,385.101 296.128,385.441 292.006 C 385.832 287.264,386.625 283.959,387.601 283.006 C 388.980 281.659,389.689 282.087,394.321 287.066 C 399.258 292.371,407.949 306.678,409.468 312.000 C 412.312 321.966,419.517 337.064,425.215 345.000 C 428.890 350.118,429.121 350.837,428.534 355.352 C 427.703 361.752,429.523 364.457,436.833 367.687 C 439.950 369.064,444.831 372.181,447.680 374.613 C 454.740 380.640,460.835 383.348,463.445 381.618 C 466.263 379.751,466.315 378.737,463.773 375.207 C 448.514 354.015,445.851 349.118,445.265 341.169 C 444.945 336.832,443.802 332.402,441.997 328.500 C 436.411 316.422,435.032 312.176,435.129 307.351 C 435.253 301.187,432.665 292.290,429.500 288.001 C 428.152 286.173,426.534 283.062,425.906 281.089 C 423.210 272.626,418.377 262.025,414.339 255.716 C 411.951 251.985,406.786 242.985,402.863 235.716 C 398.939 228.447,394.674 220.836,393.384 218.802 C 392.095 216.768,390.749 213.168,390.392 210.802 C 390.036 208.436,388.816 204.808,387.682 202.740 C 386.084 199.826,385.889 198.711,386.814 197.786 C 387.740 196.860,388.964 197.525,392.254 200.739 C 396.909 205.286,408.244 210.654,421.313 214.503 C 430.233 217.130,432.282 218.658,435.564 225.131 C 437.063 228.085,438.765 229.975,440.267 230.352 C 443.839 231.249,449.662 229.245,451.955 226.331 C 453.993 223.739,454.708 217.626,453.235 215.379 C 452.201 213.802,439.930 206.425,431.011 202.018 C 420.101 196.628,407.945 190.026,404.554 187.649 C 402.934 186.514,397.060 181.036,391.501 175.477 C 379.489 163.466,376.342 162.045,366.175 164.045 C 357.860 165.681,356.442 164.606,357.590 157.533 C 358.039 154.765,358.428 148.884,358.453 144.465 C 358.498 136.819,358.328 136.190,354.939 131.465 C 350.648 125.483,346.149 123.585,338.000 124.322 C 330.457 125.004,316.510 129.700,312.828 132.798 C 309.921 135.244,309.810 135.626,310.178 141.926 C 310.526 147.889,311.052 149.240,315.829 156.461 C 320.098 162.914,321.039 165.092,320.798 167.959 C 320.425 172.382,317.255 174.056,303.857 176.905 C 282.309 181.486,267.045 185.025,260.000 187.074 C 254.730 188.607,249.973 189.231,244.000 189.175 C 237.348 189.113,234.659 189.530,231.630 191.094 L 227.760 193.093 228.466 189.331 C 229.396 184.370,231.529 180.329,235.636 175.747 C 239.500 171.437,239.807 168.836,236.999 164.230 C 230.980 154.358,221.154 160.645,219.708 175.291 C 219.123 181.211,216.680 186.678,214.000 188.065 C 207.751 191.297,203.685 192.999,202.219 192.996 C 201.274 192.993,198.475 191.645,196.000 190.000 C 193.525 188.355,190.639 187.007,189.588 187.004 C 188.536 187.002,185.611 185.710,183.088 184.133 C 180.564 182.556,175.705 180.698,172.289 180.004 C 168.873 179.311,165.377 177.969,164.520 177.022 C 163.106 175.459,163.146 174.898,164.959 170.901 C 167.516 165.265,167.845 145.210,165.510 137.346 C 163.763 131.464,162.247 129.976,155.500 127.517 C 152.750 126.515,149.612 125.089,148.527 124.348 C 145.493 122.274,142.638 122.725,138.388 125.946 " style="stroke: none; fill: black;">
                    </path></svg>