<svg id="svg-path" width="100%" height="100%" viewBox="0 0 512 512" version="1.1" xmlns="http://www.w3.org/2000/svg" style="fill-rule:evenodd;clip-rule:evenodd;stroke-linejoin:round;stroke-miterlimit:2;">
                        <path d="M152.680 124.009 C 146.780 127.899,143.126 129.483,136.319 131.099 C 125.012 133.785,122.022 135.412,117.215 141.500 C 109.859 150.814,109.000 153.464,109.000 166.834 C 109.000 174.845,109.489 180.135,110.493 182.981 C 112.290 188.072,117.539 195.478,124.810 203.181 C 131.091 209.835,131.422 212.554,125.933 212.405 C 124.008 212.353,119.523 211.168,115.966 209.771 C 112.410 208.374,107.863 206.944,105.862 206.591 C 101.520 205.828,97.637 202.191,94.453 195.906 C 93.168 193.371,89.991 188.193,87.393 184.399 C 82.079 176.637,78.000 168.071,78.000 164.673 C 78.000 163.223,80.705 159.529,85.483 154.451 C 91.495 148.064,93.376 145.281,95.047 140.303 C 98.068 131.307,96.457 128.996,87.168 129.004 C 79.844 129.010,69.291 136.380,63.384 145.614 C 60.103 150.742,60.000 151.219,59.987 161.202 C 59.973 172.802,61.608 181.455,66.753 197.000 C 71.405 211.057,73.850 215.547,80.169 221.641 C 88.521 229.696,111.854 243.224,124.000 247.053 C 131.321 249.361,135.729 254.764,141.922 269.019 C 144.905 275.884,148.563 284.200,150.053 287.500 C 153.074 294.193,154.529 298.697,155.456 304.224 C 155.800 306.273,157.444 310.862,159.110 314.422 L 162.140 320.896 160.070 325.575 C 155.575 335.736,158.934 339.470,173.262 340.235 C 177.591 340.466,180.576 341.147,181.555 342.126 C 184.127 344.698,185.465 355.959,184.147 363.939 C 183.516 367.759,182.991 374.174,182.979 378.193 C 182.965 383.107,182.118 388.284,180.394 394.000 C 175.668 409.671,175.358 448.926,179.890 457.765 C 183.977 465.737,190.892 469.000,203.698 469.000 L 212.356 469.000 219.928 461.675 C 227.387 454.460,232.467 451.206,255.039 439.191 C 263.315 434.786,272.887 431.291,286.000 427.888 C 287.925 427.388,296.475 427.230,305.000 427.535 C 321.444 428.125,322.381 427.926,324.837 423.316 C 326.603 420.000,326.250 416.832,323.511 411.423 C 322.142 408.718,321.250 405.787,321.530 404.907 C 322.296 402.493,329.653 400.492,337.500 400.564 C 342.856 400.613,346.848 401.461,354.500 404.175 C 360.469 406.293,370.926 408.825,380.444 410.459 C 399.381 413.711,399.564 413.773,407.944 419.860 C 415.623 425.438,420.609 427.639,427.500 428.491 C 430.250 428.831,435.768 429.984,439.761 431.054 C 448.331 433.351,456.711 433.534,459.420 431.484 C 462.415 429.218,464.986 424.763,464.993 421.827 C 465.002 418.301,461.056 413.742,456.313 411.798 C 454.216 410.938,448.225 409.237,443.000 408.017 C 437.529 406.740,429.721 403.934,424.588 401.400 C 419.686 398.980,415.034 397.000,414.249 397.000 C 413.464 397.000,406.647 393.457,399.101 389.128 C 391.554 384.798,384.386 380.940,383.171 380.554 C 381.956 380.169,377.172 378.102,372.539 375.962 C 367.907 373.822,361.278 371.412,357.809 370.607 C 349.050 368.576,343.406 365.990,333.082 359.280 C 328.191 356.101,321.559 351.802,318.344 349.727 C 315.130 347.652,308.450 342.808,303.500 338.962 C 298.362 334.970,292.140 331.115,289.000 329.978 C 280.319 326.834,278.892 325.695,272.088 316.473 C 265.929 308.124,265.722 307.656,266.838 304.570 C 268.833 299.053,268.311 296.333,264.750 293.687 C 260.180 290.291,249.019 284.357,245.797 283.611 C 244.311 283.267,241.910 281.967,240.463 280.722 C 238.236 278.806,237.696 277.254,236.954 270.643 C 236.419 265.868,234.948 260.237,233.174 256.164 C 227.635 243.455,226.886 239.055,229.423 234.148 C 231.139 230.831,238.276 224.113,243.769 220.646 C 245.967 219.258,249.506 215.967,251.633 213.331 C 260.197 202.718,271.518 193.397,283.000 187.503 C 286.831 185.536,293.908 179.832,304.070 170.520 C 307.683 167.209,312.183 163.776,314.070 162.890 C 320.781 159.740,322.553 158.996,326.876 157.507 C 329.282 156.678,332.657 155.998,334.376 155.996 C 338.171 155.992,343.593 152.858,344.443 150.178 C 344.786 149.100,344.382 146.257,343.547 143.859 C 341.395 137.679,341.608 135.883,344.959 131.962 C 348.436 127.894,348.817 124.508,345.968 122.983 C 343.213 121.508,331.179 127.647,318.725 136.881 C 313.651 140.642,307.025 144.961,304.000 146.479 C 300.975 147.997,296.025 150.738,293.000 152.570 C 289.975 154.403,284.800 156.896,281.500 158.112 C 272.028 161.601,263.211 166.875,256.601 173.005 C 244.852 183.901,227.803 193.000,219.138 193.000 C 215.751 193.000,214.790 192.500,212.887 189.750 C 211.649 187.963,209.134 185.222,207.298 183.660 C 202.379 179.476,201.100 176.196,199.941 164.786 C 198.572 151.306,195.757 140.436,192.825 137.307 C 191.546 135.943,187.729 133.275,184.342 131.379 C 180.955 129.482,176.538 125.921,174.525 123.465 C 171.031 119.201,170.628 119.000,165.572 119.000 C 160.895 119.000,159.391 119.584,152.680 124.009 M278.501 393.000 C 280.601 393.799,281.069 394.557,280.816 396.750 C 280.543 399.124,279.842 399.663,275.691 400.687 C 272.708 401.423,269.337 403.269,266.813 405.550 C 261.755 410.120,256.405 412.526,246.892 414.508 C 242.827 415.356,237.127 417.242,234.226 418.700 C 227.684 421.989,226.171 421.025,229.139 415.462 C 233.445 407.391,236.923 404.092,245.350 400.088 C 253.073 396.417,263.265 393.474,271.000 392.680 C 272.925 392.482,274.808 392.248,275.185 392.160 C 275.562 392.072,277.054 392.450,278.501 393.000 " style="stroke: none; fill: black;">
                    </path></svg>