<svg id="svg-path" width="100%" height="100%" viewBox="0 0 512 512" version="1.1" xmlns="http://www.w3.org/2000/svg" style="fill-rule:evenodd;clip-rule:evenodd;stroke-linejoin:round;stroke-miterlimit:2;">
                        <path d="M259.500 178.603 C 241.600 180.936,233.152 183.728,219.000 191.990 C 204.718 200.328,182.369 224.904,177.161 238.000 C 176.126 240.601,175.808 246.227,175.920 259.900 C 176.048 275.635,176.377 279.255,178.191 284.900 C 179.357 288.530,180.860 292.400,181.531 293.500 C 182.201 294.600,183.286 297.750,183.941 300.500 C 185.553 307.267,188.777 312.522,198.621 324.427 C 208.428 336.289,211.512 338.884,222.713 344.695 C 235.230 351.189,244.454 354.000,253.250 354.000 C 264.005 354.000,280.514 351.332,288.000 348.383 C 298.747 344.151,312.748 335.432,317.469 330.033 C 319.136 328.126,323.745 323.021,327.710 318.688 C 340.171 305.074,348.152 288.807,350.126 273.000 C 350.641 268.875,351.336 263.310,351.670 260.634 C 352.673 252.592,350.226 242.639,344.275 230.555 C 337.607 217.016,333.791 211.611,324.009 201.847 C 315.719 193.573,307.154 188.573,293.000 183.746 C 280.771 179.575,267.579 177.550,259.500 178.603 M275.118 195.458 C 289.058 198.126,305.469 205.933,313.421 213.680 C 318.695 218.819,328.516 232.294,331.497 238.481 C 335.167 246.099,337.391 260.799,335.935 267.811 C 334.675 273.882,329.185 289.861,326.786 294.439 C 324.267 299.246,308.749 317.479,304.106 321.086 C 292.079 330.430,281.672 335.071,266.440 337.882 C 249.080 341.085,235.555 336.729,215.596 321.506 C 209.103 316.553,199.950 301.299,195.854 288.603 C 188.272 265.104,187.865 261.670,190.953 247.221 C 193.434 235.610,194.270 234.095,203.227 224.973 C 212.665 215.362,217.587 211.368,227.500 205.275 C 237.263 199.275,242.393 197.187,251.500 195.507 C 261.016 193.752,266.148 193.742,275.118 195.458 M223.938 238.788 C 217.515 245.072,217.000 245.891,217.000 249.810 C 217.000 253.394,217.645 254.745,221.198 258.599 C 230.657 268.861,236.526 268.501,245.134 257.129 C 251.984 248.082,251.855 245.535,244.160 237.840 C 239.132 232.812,237.803 232.000,234.598 232.000 C 231.348 232.000,229.994 232.862,223.938 238.788 M282.809 237.003 C 280.097 238.799,277.336 241.775,275.941 244.405 L 273.608 248.804 275.497 252.994 C 277.993 258.527,285.758 266.671,289.401 267.574 C 293.043 268.476,297.671 266.113,303.658 260.295 C 307.198 256.854,308.000 255.409,308.000 252.467 C 308.000 248.125,303.808 241.600,298.128 237.101 C 293.007 233.045,288.825 233.019,282.809 237.003 " style="stroke: none; fill: black;">
                    </path></svg>