<svg id="svg-path" width="100%" height="100%" viewBox="0 0 512 512" version="1.1" xmlns="http://www.w3.org/2000/svg" style="fill-rule:evenodd;clip-rule:evenodd;stroke-linejoin:round;stroke-miterlimit:2;">
                        <path d="M305.273 88.707 C 303.700 91.109,303.500 94.125,303.500 115.457 C 303.500 139.089,303.548 139.645,306.296 148.000 C 308.859 155.792,317.079 171.169,322.602 178.505 C 325.421 182.250,331.000 194.553,331.000 197.026 C 331.000 199.956,327.435 200.314,320.514 198.078 C 316.518 196.787,309.205 195.656,301.178 195.086 C 291.723 194.416,286.924 193.593,283.243 192.009 C 278.558 189.994,277.922 189.946,273.858 191.308 C 270.538 192.420,268.071 192.552,263.500 191.859 C 257.569 190.960,243.820 191.830,228.500 194.073 C 217.243 195.721,185.471 196.344,176.500 195.092 C 141.774 190.247,129.833 190.510,89.385 197.016 C 86.021 197.557,80.929 198.000,78.068 198.000 C 71.716 198.000,68.486 200.203,60.692 209.849 C 53.097 219.248,51.734 222.297,51.215 231.035 C 50.797 238.088,50.941 238.777,53.473 241.785 C 55.583 244.293,56.958 245.000,59.727 245.000 C 62.905 245.000,64.301 243.952,73.077 234.971 C 87.757 219.948,92.228 218.620,118.662 221.428 C 146.938 224.433,148.978 224.816,156.475 228.520 C 160.348 230.434,164.498 232.000,165.696 232.000 C 172.371 232.000,219.884 246.092,222.275 248.782 C 223.980 250.699,225.078 254.516,227.519 267.000 C 230.548 282.487,230.867 284.448,231.461 291.225 C 231.977 297.114,231.798 298.202,230.019 299.981 C 228.219 301.781,227.159 301.944,220.744 301.410 C 216.760 301.078,211.925 300.403,210.000 299.909 C 205.626 298.787,195.666 298.777,190.882 299.889 C 186.835 300.830,181.991 299.280,178.383 295.890 C 176.846 294.446,174.838 293.876,171.184 293.848 C 165.821 293.807,162.829 295.455,155.000 302.761 C 153.075 304.557,147.123 308.973,141.774 312.573 C 127.717 322.034,122.688 328.788,126.536 333.040 C 128.775 335.514,130.659 335.504,136.534 332.985 C 139.119 331.877,144.219 330.334,147.867 329.555 C 156.825 327.643,179.312 325.655,182.184 326.522 C 183.458 326.906,185.919 328.567,187.654 330.213 C 190.570 332.980,191.852 333.345,204.654 335.051 C 217.287 336.734,222.659 337.905,239.000 342.535 C 251.153 345.979,258.151 344.405,265.280 336.625 C 272.609 328.627,275.947 319.200,276.100 306.068 C 276.247 293.364,276.650 292.460,282.053 292.687 C 301.037 293.486,306.120 293.199,312.018 290.993 C 317.634 288.893,318.135 288.858,320.493 290.404 C 321.872 291.307,323.000 292.499,323.000 293.053 C 323.000 294.360,318.697 304.615,314.420 313.500 C 310.540 321.561,303.780 347.192,301.951 360.780 C 301.212 366.268,300.944 374.041,301.295 379.807 C 301.861 389.099,301.728 390.016,298.445 399.444 C 293.884 412.539,293.601 421.799,297.646 425.548 C 299.581 427.341,301.420 428.000,304.491 428.000 C 309.242 428.000,311.050 426.518,313.526 420.592 C 314.407 418.482,316.196 415.065,317.502 412.997 C 318.807 410.929,320.626 406.654,321.544 403.495 C 322.463 400.337,326.029 393.110,329.471 387.435 C 335.983 376.696,339.000 367.938,339.000 359.777 C 339.000 356.745,339.798 354.290,341.686 351.511 C 343.502 348.839,344.516 345.827,344.815 342.214 C 345.201 337.559,346.200 335.492,352.559 326.185 C 356.575 320.308,362.146 310.894,364.940 305.265 C 369.276 296.530,370.583 294.743,373.858 293.073 C 375.968 291.996,378.449 289.964,379.370 288.558 C 381.405 285.453,384.156 285.315,388.651 288.093 C 391.615 289.925,393.252 290.141,401.769 289.822 C 410.084 289.510,412.373 289.028,417.500 286.507 C 426.342 282.161,429.923 279.174,434.180 272.595 C 437.816 266.975,438.000 266.294,438.000 258.495 C 438.000 251.043,437.740 249.946,435.129 246.400 C 431.193 241.054,427.398 237.740,421.500 234.499 C 416.290 231.637,404.034 227.592,395.588 225.947 C 389.727 224.806,384.272 220.915,382.507 216.618 C 381.802 214.903,380.737 209.804,380.139 205.286 C 378.080 189.720,371.263 176.013,358.587 161.953 C 349.560 151.940,346.577 147.225,343.528 138.155 C 340.307 128.571,336.424 121.119,332.340 116.683 C 330.283 114.450,328.633 111.117,327.615 107.141 C 325.839 100.211,321.777 91.587,318.715 88.250 C 317.124 86.516,315.551 86.000,311.849 86.000 C 307.731 86.000,306.793 86.386,305.273 88.707 " style="stroke: none; fill: black;">
                    </path></svg>