<svg id="svg-path" width="100%" height="100%" viewBox="0 0 512 512" version="1.1" xmlns="http://www.w3.org/2000/svg" style="fill-rule:evenodd;clip-rule:evenodd;stroke-linejoin:round;stroke-miterlimit:2;">
                        <path d="M108.000 145.015 C 105.525 145.444,100.575 146.753,97.000 147.925 C 93.425 149.097,88.925 150.564,87.000 151.185 C 84.946 151.848,77.816 152.232,69.740 152.115 C 54.014 151.887,51.351 152.655,45.523 159.106 C 42.577 162.367,42.000 163.753,42.000 167.569 C 42.000 175.870,44.905 178.305,57.621 180.664 C 67.836 182.558,71.051 181.894,80.487 175.934 C 89.438 170.281,92.353 169.297,105.578 167.465 C 116.422 165.963,124.310 166.030,128.559 167.661 C 130.148 168.271,140.427 188.463,141.542 193.163 C 142.002 195.106,141.615 196.385,140.109 197.891 C 137.526 200.474,135.934 199.926,129.574 194.264 C 118.884 184.747,110.523 181.545,96.467 181.588 C 86.766 181.618,86.149 181.756,77.820 185.788 C 48.250 200.101,41.924 237.084,65.085 260.245 C 75.153 270.313,88.519 274.664,103.750 272.830 C 112.112 271.823,116.750 270.005,124.095 264.853 C 130.673 260.238,133.800 260.075,135.790 264.240 C 136.777 266.306,136.843 267.905,136.055 270.740 C 135.481 272.808,135.009 276.796,135.006 279.602 C 135.002 283.240,134.354 285.654,132.750 288.012 C 129.066 293.429,125.009 294.348,104.420 294.429 L 86.339 294.500 80.808 290.832 C 72.770 285.501,68.208 284.339,62.813 286.247 C 51.875 290.117,47.405 292.125,46.250 293.690 C 45.563 294.621,45.000 297.962,45.000 301.114 C 45.000 307.825,47.581 311.725,54.287 315.147 C 57.917 316.998,59.490 317.146,69.912 316.613 C 76.285 316.287,82.175 316.034,83.000 316.051 C 83.825 316.068,93.950 316.333,105.500 316.639 C 138.160 317.504,143.958 315.304,155.932 297.500 C 157.781 294.750,160.466 291.209,161.897 289.631 C 164.326 286.953,179.022 276.705,183.500 274.565 C 185.448 273.635,202.095 272.957,230.500 272.651 C 243.727 272.508,244.804 272.645,250.000 275.135 C 253.025 276.585,258.181 280.072,261.457 282.885 L 267.413 288.000 274.895 288.000 C 282.015 288.000,296.031 291.086,315.500 296.940 C 325.355 299.904,343.874 303.248,346.616 302.560 C 348.022 302.207,351.372 299.861,354.060 297.347 C 359.719 292.054,360.876 292.000,372.500 296.496 C 379.775 299.311,387.908 300.418,412.000 301.875 C 419.656 302.338,425.910 303.246,428.140 304.218 C 433.083 306.374,439.441 312.290,443.988 318.964 C 446.063 322.009,449.758 326.637,452.200 329.250 C 456.231 333.563,457.056 334.000,461.165 334.000 C 466.627 334.000,468.935 331.900,469.695 326.240 C 470.294 321.773,468.786 318.208,463.036 310.494 C 457.495 303.062,456.000 299.622,455.998 294.300 C 455.995 283.632,450.922 279.551,439.877 281.329 C 435.092 282.100,432.201 281.934,425.684 280.515 C 413.397 277.838,407.416 276.138,397.500 272.503 C 392.550 270.688,384.900 268.423,380.500 267.469 C 376.100 266.516,371.303 265.129,369.840 264.389 C 365.943 262.415,361.247 256.259,359.402 250.704 C 357.909 246.209,357.913 245.517,359.454 241.480 C 363.651 230.493,370.246 227.174,401.408 220.370 C 422.974 215.662,425.655 215.445,439.716 217.278 C 446.747 218.194,454.525 219.585,457.000 220.368 C 471.344 224.906,474.016 225.468,481.332 225.483 C 488.922 225.499,489.254 225.399,492.082 222.234 C 498.051 215.554,494.766 205.449,485.020 200.510 C 482.322 199.143,476.377 196.956,471.807 195.649 C 463.634 193.312,462.865 193.277,424.000 193.461 C 402.275 193.564,381.510 194.013,377.855 194.459 C 368.750 195.570,366.701 194.880,364.482 189.961 C 363.470 187.715,361.710 185.360,360.571 184.726 C 357.202 182.850,346.955 181.970,321.500 181.370 C 302.086 180.913,295.732 181.110,288.250 182.402 C 283.162 183.281,277.424 184.000,275.500 184.000 C 271.784 184.000,268.000 181.200,268.000 178.450 C 268.000 175.946,265.144 171.147,262.956 169.977 C 259.496 168.125,232.285 171.082,211.286 175.592 C 193.518 179.408,191.728 179.092,177.000 169.553 C 171.775 166.169,165.761 162.523,163.637 161.450 C 161.512 160.378,156.787 156.754,153.137 153.398 C 143.173 144.237,142.431 143.980,126.300 144.118 C 118.710 144.182,110.475 144.586,108.000 145.015 " style="stroke: none; fill: black;">
                    </path></svg>