<svg id="svg-path" width="100%" height="100%" viewBox="0 0 512 512" version="1.1" xmlns="http://www.w3.org/2000/svg" style="fill-rule:evenodd;clip-rule:evenodd;stroke-linejoin:round;stroke-miterlimit:2;">
                        <path d="M167.000 42.637 C 152.877 44.699,143.190 49.049,134.359 57.293 C 127.259 63.921,123.063 70.023,119.344 79.130 C 117.100 84.623,116.726 87.083,116.621 97.000 C 116.528 105.843,116.943 109.886,118.419 114.500 C 122.130 126.105,129.337 136.309,138.452 142.867 C 143.262 146.328,145.879 147.749,154.141 151.387 C 160.800 154.320,160.318 156.316,150.098 168.121 C 146.469 172.312,141.296 178.296,138.601 181.418 C 135.907 184.540,129.832 190.017,125.101 193.589 C 120.371 197.162,109.300 207.188,100.500 215.869 C 91.700 224.551,82.316 233.400,79.647 235.533 C 73.997 240.047,64.198 251.734,61.229 257.500 C 60.096 259.700,54.181 266.815,48.085 273.310 C 38.737 283.270,37.002 285.620,37.010 288.310 C 37.023 292.703,41.475 302.000,43.564 302.000 C 44.475 302.000,47.212 304.021,49.647 306.490 C 57.296 314.249,61.641 313.454,66.665 303.380 C 70.308 296.074,72.056 294.939,76.100 297.250 C 80.041 299.502,81.545 299.455,84.000 297.000 C 85.709 295.291,86.000 293.667,86.000 285.821 L 86.000 276.641 101.750 260.736 C 123.441 238.831,135.864 229.452,147.179 226.440 C 157.417 223.715,160.639 224.957,163.404 232.698 C 164.347 235.339,165.626 238.400,166.246 239.500 C 167.574 241.857,167.394 264.278,165.998 270.510 C 165.492 272.768,164.787 282.014,164.431 291.057 L 163.785 307.500 158.440 319.156 C 151.561 334.158,143.778 346.147,130.829 361.685 C 122.769 371.358,117.000 383.027,117.000 389.657 C 117.000 395.849,123.334 405.111,135.921 417.324 C 145.403 426.526,146.103 427.000,150.196 426.990 C 153.599 426.983,155.419 426.250,158.889 423.491 C 167.139 416.933,173.736 416.809,185.965 422.982 C 200.072 430.103,202.572 435.256,203.883 459.901 C 204.629 473.923,204.721 474.363,207.380 476.651 C 208.882 477.943,210.979 479.000,212.040 479.000 C 215.031 479.000,219.600 474.138,223.317 467.000 C 227.074 459.786,228.415 454.718,230.010 441.699 C 230.604 436.858,231.462 431.908,231.917 430.699 C 236.479 418.575,235.778 411.845,229.332 405.879 C 226.256 403.032,224.653 402.509,214.652 401.093 C 206.495 399.938,199.295 396.470,197.385 392.778 C 196.125 390.340,196.139 389.633,197.499 387.001 C 200.183 381.811,211.803 373.233,225.328 366.458 C 243.719 357.244,246.000 356.688,257.873 358.523 C 263.168 359.342,269.300 360.489,271.500 361.072 C 273.700 361.656,277.075 362.491,279.000 362.929 C 285.336 364.371,302.441 369.032,305.500 370.151 C 315.892 373.953,333.857 383.988,339.657 389.231 C 346.886 395.765,348.860 396.497,356.796 395.584 C 359.933 395.223,365.233 394.672,368.573 394.359 L 374.647 393.790 381.819 401.145 C 389.676 409.201,393.644 416.050,394.501 423.033 C 395.989 435.159,405.849 440.669,419.352 436.919 C 423.834 435.675,429.823 436.829,439.428 440.787 C 446.219 443.586,455.813 445.912,460.785 445.965 C 468.074 446.043,472.138 439.885,469.368 432.961 C 467.640 428.643,464.151 426.046,456.659 423.503 C 453.997 422.599,449.497 420.377,446.659 418.565 C 443.822 416.753,438.800 413.907,435.500 412.241 C 430.147 409.538,419.711 401.947,415.885 397.973 C 413.618 395.618,402.904 381.333,398.000 374.126 C 395.525 370.489,389.881 363.685,385.457 359.007 C 375.967 348.970,370.805 342.694,365.293 334.494 C 362.225 329.929,359.778 327.649,355.095 324.994 C 348.434 321.217,347.148 320.397,329.657 308.765 C 314.031 298.372,307.158 291.138,304.122 281.888 C 303.470 279.902,300.466 275.177,297.447 271.388 C 294.427 267.600,291.046 262.066,289.933 259.090 C 288.819 256.115,286.447 251.165,284.661 248.090 C 279.866 239.838,278.370 236.311,276.134 228.000 C 273.659 218.795,267.806 202.397,264.358 195.006 C 260.549 186.842,260.267 183.617,263.133 181.025 C 267.258 177.294,279.304 169.755,282.591 168.847 C 284.514 168.316,288.451 168.395,292.628 169.049 C 296.407 169.640,304.675 170.285,311.000 170.480 C 317.325 170.676,326.760 171.542,331.967 172.405 C 340.003 173.736,341.881 174.419,344.384 176.922 C 346.964 179.502,347.315 180.537,347.190 185.186 C 346.151 223.827,346.017 255.917,346.884 258.198 C 347.449 259.681,349.145 261.706,350.654 262.698 C 353.481 264.554,356.586 264.812,397.085 266.553 L 411.670 267.181 414.449 263.878 L 417.227 260.576 416.553 248.038 C 415.730 232.749,415.730 231.910,416.564 214.738 C 417.605 193.305,416.430 192.000,396.097 192.000 C 384.398 192.000,379.306 191.079,377.786 188.687 C 377.370 188.034,377.024 184.308,377.015 180.407 C 377.004 174.939,376.468 172.305,374.677 168.907 C 371.921 163.677,365.116 158.246,357.867 155.489 C 354.758 154.308,350.226 151.282,346.703 148.037 L 340.773 142.574 327.636 141.855 C 318.868 141.375,312.006 140.402,307.000 138.929 C 300.960 137.152,295.607 136.575,279.500 135.967 C 268.500 135.551,256.125 134.740,252.000 134.164 C 242.506 132.838,232.203 129.539,229.435 126.939 C 226.387 124.076,224.612 117.999,225.469 113.363 C 227.200 104.001,227.160 90.773,225.381 84.106 C 220.626 66.282,206.750 51.316,189.669 45.589 C 185.227 44.099,172.849 41.883,170.500 42.156 C 169.950 42.220,168.375 42.437,167.000 42.637 " style="stroke: none; fill: black;">
                    </path></svg>