<svg id="svg-path" width="100%" height="100%" viewBox="0 0 512 512" version="1.1" xmlns="http://www.w3.org/2000/svg" style="fill-rule:evenodd;clip-rule:evenodd;stroke-linejoin:round;stroke-miterlimit:2;">
                        <path d="M121.500 130.903 C 115.500 134.365,113.815 137.046,111.055 147.522 C 109.899 151.910,108.208 158.338,107.296 161.806 C 105.950 166.928,105.860 168.725,106.819 171.377 C 108.476 175.960,108.299 178.493,106.008 182.984 C 104.913 185.132,102.932 190.176,101.606 194.194 C 100.281 198.212,98.252 203.675,97.098 206.333 C 95.944 208.991,95.000 211.966,95.000 212.944 C 95.000 213.923,93.200 218.564,91.000 223.259 C 88.800 227.954,87.000 232.866,87.000 234.175 C 87.000 236.757,85.253 239.638,80.531 244.839 C 76.244 249.561,76.187 249.712,74.785 260.117 C 73.599 268.916,73.447 280.227,74.098 311.500 C 74.246 318.650,73.867 326.750,73.254 329.500 C 72.641 332.250,71.819 341.479,71.427 350.009 C 70.757 364.576,70.842 365.770,72.817 369.641 C 74.029 372.017,75.167 376.673,75.502 380.632 C 76.764 395.523,81.083 409.244,86.241 414.750 C 89.021 417.718,97.803 417.980,100.345 415.171 C 102.452 412.844,102.460 409.102,100.365 406.111 C 97.046 401.372,90.000 386.738,90.000 384.582 C 90.000 382.202,92.788 373.160,94.034 371.500 C 95.944 368.956,98.177 356.205,99.025 343.000 C 99.720 332.185,100.624 326.340,102.581 320.000 C 104.024 315.325,105.434 310.501,105.713 309.281 C 106.350 306.501,108.789 304.364,109.922 305.592 C 111.596 307.408,113.080 313.922,114.025 323.604 C 115.657 340.307,116.555 346.416,117.686 348.500 C 118.282 349.600,119.337 353.200,120.030 356.500 C 120.723 359.800,121.822 363.400,122.472 364.500 C 125.434 369.507,127.210 377.781,127.186 386.455 C 127.170 392.139,127.662 396.380,128.534 398.066 C 129.290 399.527,130.660 403.718,131.580 407.378 C 134.119 417.486,140.954 422.046,146.000 417.000 C 148.612 414.388,148.551 413.585,144.964 403.248 C 142.341 395.691,141.849 392.595,141.349 380.500 C 140.879 369.119,141.070 365.658,142.371 362.000 C 144.132 357.048,144.542 344.555,143.070 340.684 C 142.558 339.339,141.877 332.358,141.557 325.173 C 141.075 314.397,141.262 311.386,142.620 307.992 C 143.864 304.883,144.100 302.363,143.584 297.688 C 143.209 294.285,142.540 286.775,142.097 281.000 C 141.654 275.225,140.776 269.233,140.146 267.685 C 139.516 266.137,139.000 262.275,139.000 259.104 C 139.000 252.744,139.893 251.785,146.946 250.567 C 157.451 248.752,157.802 248.498,159.871 241.216 C 160.921 237.522,162.167 232.700,162.640 230.500 C 163.430 226.826,163.791 226.476,167.075 226.200 C 169.041 226.035,173.902 226.578,177.878 227.407 C 183.527 228.585,186.216 229.798,190.184 232.957 C 192.976 235.181,196.041 237.000,196.994 237.000 C 197.947 237.000,199.940 235.787,201.423 234.304 C 203.523 232.205,203.967 231.044,203.434 229.054 C 202.618 226.012,202.633 225.228,203.568 222.161 C 204.271 219.849,204.213 219.829,198.683 220.520 C 191.814 221.379,186.787 219.265,179.411 212.419 C 176.710 209.912,173.262 207.206,171.750 206.405 C 170.190 205.579,169.000 204.106,169.000 203.002 C 169.000 199.419,184.270 181.395,192.753 174.965 C 194.542 173.609,197.778 169.800,199.944 166.500 C 205.721 157.697,208.569 155.000,212.090 155.000 C 213.745 155.000,216.451 154.301,218.102 153.447 C 220.868 152.017,221.081 151.529,220.803 147.272 C 220.544 143.328,220.061 142.404,217.500 140.964 C 215.234 139.689,214.546 138.631,214.688 136.638 C 214.988 132.444,212.675 133.503,208.593 139.429 C 203.536 146.772,193.058 154.996,188.754 155.002 C 188.064 155.002,182.633 157.927,176.684 161.502 C 170.736 165.076,165.232 168.000,164.453 168.000 C 163.675 168.000,162.763 166.762,162.426 165.250 C 161.140 159.471,155.783 143.403,154.449 141.326 C 153.682 140.131,149.720 136.644,145.645 133.576 C 138.604 128.278,137.943 128.000,132.368 128.009 C 127.734 128.017,125.449 128.625,121.500 130.903 M320.257 157.656 C 316.823 159.590,313.179 162.371,312.159 163.836 C 309.607 167.501,308.000 174.652,308.000 182.342 C 308.000 188.321,308.296 189.193,312.000 194.123 C 316.544 200.170,316.824 201.930,313.979 206.534 C 312.099 209.576,311.664 209.768,307.729 209.281 C 305.403 208.993,302.190 207.956,300.589 206.976 C 297.762 205.245,297.584 205.254,294.453 207.307 C 290.343 210.001,288.304 214.300,288.439 219.982 C 288.528 223.691,288.973 224.680,291.023 225.717 C 292.385 226.407,294.175 226.979,295.000 226.989 C 298.346 227.030,303.125 231.126,305.040 235.592 C 306.118 238.108,307.000 240.940,307.000 241.887 C 307.000 242.833,308.143 245.900,309.539 248.703 C 312.073 253.788,312.075 253.806,310.197 257.149 C 309.162 258.992,308.002 262.174,307.618 264.221 C 307.216 266.363,305.508 269.439,303.592 271.471 C 300.644 274.597,299.692 275.000,295.254 275.000 C 287.012 275.000,278.000 279.853,278.000 284.292 C 278.000 285.361,279.747 287.982,281.882 290.118 C 287.395 295.630,290.785 295.445,300.220 289.119 C 309.247 283.067,315.044 279.924,321.500 277.581 C 324.250 276.583,328.882 274.455,331.793 272.851 C 334.704 271.247,337.552 270.223,338.121 270.575 C 338.691 270.927,340.998 273.212,343.247 275.652 C 345.497 278.093,349.451 280.999,352.035 282.110 C 354.618 283.222,357.311 285.212,358.018 286.533 C 359.224 288.786,358.875 289.408,352.402 296.560 C 340.675 309.516,334.901 316.396,333.567 319.000 C 332.366 321.345,330.749 333.439,329.488 349.500 C 329.186 353.350,328.452 360.883,327.858 366.241 L 326.777 375.982 329.889 379.526 C 331.600 381.475,333.000 383.877,333.000 384.863 C 333.000 387.543,327.747 394.962,321.988 400.414 C 318.432 403.781,316.984 405.883,317.196 407.369 C 317.469 409.281,318.117 409.494,323.500 409.442 C 328.051 409.398,330.452 408.795,333.440 406.942 C 335.606 405.599,340.285 403.372,343.837 401.993 C 352.190 398.750,354.703 395.659,353.051 390.656 C 352.148 387.917,352.156 383.669,353.088 372.297 C 353.754 364.158,354.570 352.393,354.900 346.152 C 355.473 335.319,355.624 334.706,358.224 332.652 C 359.722 331.468,363.047 329.642,365.613 328.593 C 372.824 325.646,373.391 326.451,374.074 340.605 C 374.675 353.033,376.109 357.981,380.179 361.659 C 381.826 363.148,383.869 363.500,390.858 363.500 C 398.912 363.500,403.743 362.434,411.500 358.945 C 416.249 356.809,427.792 353.671,438.796 351.524 C 444.492 350.413,445.464 350.480,448.999 352.229 C 451.147 353.292,454.833 356.151,457.188 358.581 C 463.799 365.403,468.000 364.088,468.000 355.198 C 468.000 352.115,466.850 349.537,462.683 343.275 C 459.758 338.880,456.407 333.660,455.236 331.675 C 452.544 327.113,449.344 326.262,442.809 328.373 C 440.038 329.268,436.321 330.000,434.550 330.000 C 432.779 330.000,428.668 330.866,425.415 331.924 C 422.162 332.983,417.813 334.158,415.750 334.536 C 412.479 335.135,412.000 334.977,412.000 333.301 C 412.000 330.359,416.500 319.534,419.706 314.762 C 424.016 308.348,425.351 304.348,425.429 297.611 C 425.493 292.064,425.063 290.756,420.766 283.439 C 418.162 279.006,414.859 274.281,413.425 272.939 C 408.084 267.941,404.231 261.526,403.010 255.598 C 402.063 250.995,400.872 248.683,397.602 245.098 C 390.902 237.751,385.775 231.127,379.515 221.730 C 373.896 213.296,371.635 210.738,364.000 204.173 L 360.500 201.164 360.419 186.208 C 360.341 171.830,360.233 171.074,357.634 166.638 C 354.879 161.938,348.863 157.000,345.890 157.000 C 344.985 157.000,342.629 156.325,340.654 155.500 C 334.443 152.905,327.363 153.653,320.257 157.656 M242.377 197.460 C 241.305 200.253,243.926 202.000,249.189 202.000 C 253.992 202.000,254.124 201.922,253.816 199.250 C 253.521 196.684,253.148 196.480,248.239 196.197 C 244.193 195.965,242.839 196.256,242.377 197.460 M263.011 213.487 C 261.304 215.543,262.333 217.604,266.016 219.508 C 270.158 221.650,273.411 221.124,273.820 218.245 C 274.083 216.396,273.300 215.629,269.487 213.995 C 263.936 211.615,264.526 211.661,263.011 213.487 M319.282 218.345 C 323.644 220.169,325.357 222.443,324.609 225.420 C 323.960 228.007,321.270 229.425,318.805 228.479 C 317.054 227.807,314.000 221.760,314.000 218.966 C 314.000 216.646,314.951 216.535,319.282 218.345 M216.200 249.200 C 214.531 250.869,214.653 251.490,217.551 256.081 C 219.648 259.402,220.584 260.067,222.801 259.811 C 226.343 259.403,226.764 256.410,223.952 251.643 C 221.714 247.850,218.548 246.852,216.200 249.200 M242.223 265.557 C 239.588 267.402,239.465 268.322,241.571 270.429 C 244.589 273.447,254.000 271.671,254.000 268.084 C 254.000 267.658,253.177 266.565,252.171 265.655 C 249.869 263.571,245.124 263.524,242.223 265.557 M257.355 288.518 C 256.671 290.300,258.615 295.435,260.595 297.079 C 262.453 298.621,267.000 297.376,267.000 295.325 C 267.000 292.751,262.108 287.000,259.918 287.000 C 258.828 287.000,257.675 287.683,257.355 288.518 M230.028 290.113 C 223.960 292.535,225.780 297.000,232.835 297.000 C 238.061 297.000,240.000 295.757,240.000 292.407 C 240.000 289.065,235.340 287.993,230.028 290.113 " style="stroke: none; fill: black;">
                    </path></svg>