<svg id="svg-path" width="100%" height="100%" viewBox="0 0 512 512" version="1.1" xmlns="http://www.w3.org/2000/svg" style="fill-rule:evenodd;clip-rule:evenodd;stroke-linejoin:round;stroke-miterlimit:2;">
                        <path d="M248.299 26.250 C 247.172 27.488,245.811 29.400,245.274 30.500 C 244.737 31.602,244.260 42.659,244.212 55.135 C 244.107 82.205,243.496 84.565,235.995 86.897 C 233.523 87.665,230.600 88.649,229.500 89.084 C 228.400 89.519,226.470 90.163,225.212 90.517 C 223.953 90.870,221.743 92.943,220.300 95.123 C 218.684 97.564,214.379 101.242,209.089 104.699 C 196.026 113.236,190.553 117.658,169.267 136.873 C 163.151 142.393,159.000 147.860,159.000 150.392 C 159.000 152.516,154.967 164.202,152.579 169.000 C 151.347 171.475,150.012 174.802,149.614 176.394 C 149.216 177.986,146.214 182.074,142.945 185.479 C 137.710 190.930,137.000 192.147,137.000 195.665 C 137.000 199.363,136.407 200.219,129.029 207.170 C 115.165 220.231,110.987 232.839,118.190 239.881 C 120.721 242.356,122.234 243.000,125.516 243.000 C 130.628 243.000,132.498 241.111,136.907 231.500 C 141.683 221.087,147.122 213.050,149.877 212.336 C 151.302 211.966,153.368 212.377,155.032 213.360 C 156.559 214.262,158.797 215.000,160.004 215.000 C 162.996 215.000,169.000 208.829,169.000 205.755 C 169.000 202.711,171.210 200.677,177.000 198.392 C 179.475 197.415,183.657 195.352,186.294 193.808 C 188.931 192.263,191.729 191.000,192.512 191.000 C 193.296 191.000,195.683 193.363,197.816 196.251 C 199.950 199.139,202.439 202.119,203.348 202.874 C 206.135 205.187,205.640 221.666,202.517 230.500 C 198.732 241.208,199.169 243.771,206.451 253.581 C 207.129 254.493,206.107 256.251,202.904 259.681 C 197.376 265.603,185.371 281.603,177.905 293.000 C 162.937 315.849,159.243 321.579,158.887 322.500 C 157.821 325.255,150.010 338.370,145.486 345.000 C 142.671 349.125,139.692 353.850,138.866 355.500 C 135.740 361.743,127.665 375.626,125.379 378.683 C 124.071 380.434,123.000 382.362,123.000 382.968 C 123.000 383.573,119.963 387.096,116.250 390.795 C 108.084 398.932,94.043 407.746,84.422 410.776 C 77.037 413.101,72.575 416.579,73.159 419.553 C 73.347 420.505,75.105 422.582,77.066 424.168 C 82.135 428.267,90.355 429.462,99.000 427.355 C 102.575 426.484,111.125 425.467,118.000 425.096 C 124.875 424.725,131.261 424.063,132.190 423.626 C 135.096 422.260,136.674 418.734,137.393 412.000 C 138.383 402.717,139.735 399.188,142.935 397.534 C 144.457 396.746,147.115 394.392,148.840 392.301 C 150.565 390.210,154.344 385.611,157.238 382.080 C 160.132 378.549,163.643 374.499,165.040 373.080 C 167.599 370.480,173.481 361.787,180.488 350.250 C 182.576 346.812,184.646 344.000,185.087 344.000 C 185.529 344.000,187.153 342.254,188.695 340.120 C 198.707 326.269,212.336 311.789,220.400 306.436 C 226.943 302.092,238.980 298.000,245.215 298.000 C 252.256 298.000,257.178 300.947,267.748 311.490 C 275.152 318.875,277.604 322.088,280.050 327.607 C 281.731 331.398,283.733 335.850,284.499 337.500 C 285.266 339.150,287.101 343.875,288.577 348.000 C 290.053 352.125,292.478 357.750,293.967 360.500 C 295.455 363.250,297.175 367.300,297.789 369.500 C 301.122 381.447,302.611 386.022,304.785 391.000 C 312.714 409.156,318.998 422.232,320.758 424.235 C 321.961 425.603,322.110 427.080,321.466 431.235 C 321.018 434.131,320.618 438.563,320.578 441.084 C 320.433 450.315,328.703 458.956,340.699 462.108 C 343.839 462.934,346.865 465.150,352.699 470.900 C 362.079 480.145,364.863 482.000,369.354 482.000 C 372.435 482.000,372.839 481.670,373.396 478.702 C 374.771 471.376,372.830 466.890,361.772 451.824 C 350.916 437.033,346.242 429.052,344.892 423.000 C 344.463 421.075,343.412 416.350,342.556 412.500 C 339.527 398.867,335.703 384.487,334.857 383.550 C 334.386 383.027,334.000 381.581,334.000 380.335 C 334.000 377.453,331.556 370.186,328.003 362.500 C 326.477 359.200,324.451 353.800,323.500 350.500 C 322.549 347.200,321.372 343.466,320.885 342.203 C 320.398 340.940,320.000 339.250,320.000 338.448 C 320.000 337.646,318.958 334.831,317.685 332.191 C 316.411 329.552,314.784 325.166,314.068 322.446 C 309.765 306.090,308.762 302.905,304.950 293.500 C 304.504 292.400,303.599 289.739,302.938 287.586 C 302.277 285.433,300.221 280.345,298.368 276.280 C 294.448 267.678,294.228 265.192,297.095 261.903 C 301.193 257.204,303.367 251.410,306.065 238.000 C 306.563 235.525,307.661 230.575,308.506 227.000 C 309.351 223.425,310.462 218.025,310.976 215.000 C 311.490 211.975,312.871 205.900,314.045 201.500 C 315.219 197.100,316.783 190.573,317.521 186.995 C 319.784 176.024,320.394 175.005,324.725 174.964 C 328.054 174.933,333.325 173.834,343.500 171.049 C 345.150 170.597,349.200 168.957,352.500 167.403 C 358.645 164.509,362.932 164.046,370.525 165.456 C 373.686 166.043,375.410 165.754,378.560 164.112 C 382.444 162.088,383.189 162.054,402.036 163.048 C 421.708 164.086,422.830 164.299,431.101 168.572 C 434.758 170.461,437.528 171.000,444.601 171.203 C 449.495 171.344,454.026 171.126,454.669 170.720 C 456.446 169.598,463.000 157.437,463.000 155.262 C 463.000 154.210,464.166 152.258,465.592 150.924 C 469.695 147.086,470.257 145.397,468.536 142.070 C 465.385 135.976,459.506 134.383,452.985 137.857 C 450.932 138.950,446.487 139.925,442.168 140.229 C 437.036 140.590,434.031 141.341,432.149 142.732 C 430.671 143.825,428.570 144.990,427.481 145.322 C 423.882 146.417,406.659 144.310,397.000 141.592 C 391.775 140.122,385.115 138.262,382.199 137.459 C 379.284 136.656,375.512 135.282,373.817 134.405 C 372.027 133.480,369.428 133.016,367.618 133.300 C 361.697 134.226,343.860 126.817,336.924 120.551 C 333.597 117.545,332.274 117.000,328.296 117.000 C 324.695 117.000,321.190 115.830,313.298 111.995 C 301.024 106.030,300.615 104.990,307.711 97.786 L 312.421 93.003 312.726 81.252 C 313.200 62.990,313.100 62.081,309.883 55.411 C 304.997 45.281,298.934 40.151,287.500 36.475 C 284.200 35.414,279.917 33.583,277.982 32.407 C 266.665 25.526,262.773 24.000,256.534 24.000 C 251.393 24.000,250.002 24.380,248.299 26.250 " style="stroke: none; fill: black;">
                    </path></svg>