<svg id="svg-path" width="100%" height="100%" viewBox="0 0 512 512" version="1.1" xmlns="http://www.w3.org/2000/svg" style="fill-rule:evenodd;clip-rule:evenodd;stroke-linejoin:round;stroke-miterlimit:2;">
                        <path d="M270.180 28.309 C 268.987 29.578,266.939 33.741,265.628 37.559 C 264.317 41.376,262.137 46.979,260.784 50.008 C 259.431 53.037,257.292 58.618,256.030 62.411 C 254.302 67.602,252.432 70.723,248.459 75.044 L 243.183 80.784 243.604 105.142 C 243.836 118.539,244.537 134.507,245.161 140.627 C 245.785 146.747,246.058 153.530,245.767 155.700 C 245.476 157.870,241.605 167.038,237.165 176.073 C 227.742 195.246,223.486 207.119,221.996 218.393 C 219.897 234.271,221.105 232.782,203.263 241.473 C 187.377 249.211,169.950 259.388,153.500 270.534 C 148.550 273.888,142.475 278.002,140.000 279.676 C 137.525 281.350,131.680 285.145,127.010 288.110 C 122.341 291.074,116.887 294.962,114.891 296.749 C 112.894 298.535,109.065 300.953,106.380 302.122 C 103.696 303.290,99.612 305.091,97.305 306.123 C 94.378 307.433,90.784 308.000,85.415 308.000 C 78.719 308.000,77.123 307.633,73.111 305.168 C 66.831 301.310,63.608 300.634,60.113 302.442 C 56.603 304.257,55.999 305.710,56.004 312.332 C 56.010 321.321,60.235 325.785,70.901 328.072 C 73.695 328.671,77.799 330.588,80.201 332.414 C 90.569 340.299,95.034 340.058,105.435 331.057 C 110.548 326.631,118.740 321.920,130.000 316.928 C 134.125 315.100,142.095 310.753,147.712 307.269 C 160.455 299.363,191.720 284.573,198.799 283.101 C 201.714 282.496,210.039 282.002,217.299 282.004 C 231.546 282.008,235.399 283.141,238.057 288.106 C 239.721 291.216,239.742 306.627,238.109 326.000 C 237.343 335.075,236.761 343.625,236.815 345.000 C 237.468 361.765,236.989 369.435,234.653 379.611 C 233.278 385.600,231.619 394.100,230.966 398.500 C 230.313 402.900,228.918 408.804,227.866 411.621 C 223.851 422.368,222.985 430.725,223.675 452.085 C 224.244 469.717,224.553 472.433,226.234 474.570 C 228.714 477.724,230.023 477.638,237.116 473.857 C 248.628 467.721,250.417 463.774,247.491 450.963 C 246.113 444.927,245.834 440.628,246.248 431.838 C 246.717 421.919,247.380 418.623,251.550 405.500 C 258.351 384.092,261.693 370.317,263.557 356.000 C 265.675 339.730,269.514 320.588,272.565 311.076 C 273.902 306.909,276.348 296.848,278.001 288.719 C 280.145 278.175,281.980 272.011,284.402 267.219 C 289.008 258.106,291.404 256.074,298.774 255.032 C 305.611 254.066,307.184 253.196,319.072 243.811 C 328.491 236.375,335.594 227.209,339.102 217.967 C 340.243 214.960,341.642 211.938,342.211 211.250 C 343.648 209.513,346.497 209.689,348.095 211.614 C 348.831 212.502,351.864 214.600,354.835 216.276 C 358.202 218.176,361.580 221.195,363.805 224.291 C 367.864 229.941,371.822 232.000,378.623 232.000 C 381.997 232.000,384.178 232.658,386.406 234.348 C 389.731 236.871,399.232 242.795,410.500 249.371 C 415.455 252.263,421.298 257.335,430.500 266.733 L 443.500 280.009 449.500 280.003 C 456.461 279.996,461.865 277.715,463.721 274.000 C 465.595 270.250,465.256 265.168,462.911 261.876 C 461.763 260.262,460.390 257.376,459.862 255.462 C 458.569 250.781,455.683 249.129,445.821 247.425 C 434.615 245.490,433.005 244.850,425.347 239.294 C 410.556 228.562,399.458 218.716,395.872 213.146 C 393.873 210.041,390.629 206.260,388.664 204.743 C 384.536 201.560,383.014 197.256,383.006 188.751 C 383.001 184.200,382.167 181.153,379.000 174.119 C 376.800 169.233,375.000 164.794,375.000 164.253 C 375.000 163.712,373.201 160.622,371.002 157.385 C 366.369 150.564,366.108 148.564,369.389 145.055 C 370.703 143.650,372.536 139.800,373.461 136.500 C 374.386 133.200,376.271 128.769,377.650 126.653 C 381.622 120.557,381.767 116.890,378.256 111.283 C 376.609 108.652,374.001 104.130,372.462 101.232 C 369.668 95.975,364.177 90.673,358.498 87.750 C 354.669 85.780,352.848 83.704,349.504 77.500 C 345.223 69.559,344.175 69.000,333.564 69.000 C 325.300 69.000,324.130 69.232,322.234 71.250 C 319.373 74.297,317.724 82.221,318.438 89.500 C 318.951 94.726,318.709 96.016,316.565 99.500 C 315.212 101.700,313.175 105.181,312.039 107.235 C 308.974 112.780,305.947 114.391,299.933 113.678 C 289.645 112.460,279.000 104.152,279.000 97.341 C 279.000 95.367,277.425 90.263,275.500 86.000 C 271.538 77.224,271.118 72.369,273.594 63.932 C 276.498 54.032,277.769 52.286,285.644 47.378 C 289.723 44.835,293.497 41.940,294.030 40.943 C 295.692 37.838,295.102 33.615,292.464 29.732 L 289.928 26.000 281.138 26.000 C 273.250 26.000,272.126 26.237,270.180 28.309 " style="stroke: none; fill: black;">
                    </path></svg>