<svg id="svg-path" width="100%" height="100%" viewBox="0 0 512 512" version="1.1" xmlns="http://www.w3.org/2000/svg" style="fill-rule:evenodd;clip-rule:evenodd;stroke-linejoin:round;stroke-miterlimit:2;">
                        <path d="M200.367 183.772 C 199.194 184.723,197.735 186.476,197.125 187.669 C 196.516 188.862,194.744 190.117,193.188 190.459 C 189.025 191.373,183.327 196.502,179.969 202.356 C 177.465 206.722,177.017 208.576,177.009 214.610 C 177.001 220.648,177.397 222.308,179.633 225.610 C 182.390 229.683,184.825 232.168,189.313 235.487 C 192.641 237.949,192.671 239.021,189.500 242.000 C 187.803 243.595,187.000 245.419,187.000 247.684 C 187.000 250.416,187.699 251.515,190.864 253.760 C 193.181 255.403,195.594 258.382,196.891 261.200 C 199.840 267.610,203.265 270.743,212.915 275.856 C 220.462 279.855,236.904 284.903,242.615 284.974 C 245.595 285.011,249.708 281.493,252.048 276.905 C 253.749 273.572,254.518 273.000,257.297 273.000 C 261.159 273.000,267.000 277.780,267.000 280.941 C 267.000 282.070,265.485 284.683,263.634 286.747 C 259.655 291.184,251.442 303.836,248.864 309.500 C 244.882 318.249,247.694 326.221,257.018 332.624 C 259.322 334.206,262.623 336.684,264.353 338.132 C 268.165 341.320,292.492 356.003,303.269 361.620 C 308.978 364.596,310.000 366.421,310.000 373.644 C 310.000 384.100,312.940 387.634,319.023 384.488 C 320.899 383.518,323.228 383.111,324.856 383.468 C 326.977 383.934,328.130 383.460,330.168 381.282 C 334.928 376.196,336.000 372.804,336.000 362.833 C 336.000 356.685,336.548 352.132,337.628 349.304 C 339.144 345.334,339.139 344.861,337.550 342.437 C 336.612 341.005,334.417 339.231,332.672 338.495 C 330.927 337.760,327.319 334.872,324.653 332.079 C 321.987 329.286,319.368 327.000,318.832 327.000 C 318.296 327.000,312.940 324.637,306.931 321.750 C 298.680 317.785,296.005 316.032,296.003 314.589 C 296.001 313.492,301.054 307.530,307.869 300.589 C 320.315 287.912,320.435 287.776,327.011 279.000 C 330.836 273.895,331.089 273.163,330.540 268.814 C 330.215 266.237,329.288 262.862,328.480 261.314 C 327.673 259.766,327.010 257.922,327.006 257.215 C 326.995 254.954,322.314 248.336,317.500 243.773 C 315.850 242.210,312.925 239.439,311.000 237.617 C 304.947 231.887,299.038 227.902,290.000 223.454 C 280.944 218.998,277.935 217.768,269.304 214.995 C 261.623 212.528,260.270 211.742,258.697 208.834 C 254.540 201.144,247.361 197.918,237.948 199.509 C 233.798 200.210,233.959 200.305,221.522 189.896 C 219.153 187.914,215.169 185.776,212.667 185.146 C 210.165 184.516,207.840 183.551,207.500 183.001 C 206.541 181.448,202.727 181.860,200.367 183.772 " style="stroke: none; fill: black;">
                    </path></svg>