<svg id="svg-path" width="100%" height="100%" viewBox="0 0 512 512" version="1.1" xmlns="http://www.w3.org/2000/svg" style="fill-rule:evenodd;clip-rule:evenodd;stroke-linejoin:round;stroke-miterlimit:2;">
                        <path d="M285.250 153.662 C 283.329 154.437,283.774 161.117,285.989 164.750 C 287.960 167.982,289.454 168.638,291.650 167.235 C 294.265 165.564,293.604 158.513,290.545 155.455 C 288.052 152.961,287.474 152.765,285.250 153.662 M309.596 158.894 C 307.299 161.432,307.738 169.817,310.250 171.392 C 314.720 174.195,318.078 164.820,314.538 159.418 C 312.629 156.504,311.835 156.420,309.596 158.894 M272.607 160.582 C 271.690 162.973,271.879 168.551,272.975 171.435 C 274.145 174.512,278.405 174.980,279.896 172.195 C 280.998 170.136,280.224 162.126,278.743 160.250 C 277.345 158.481,273.330 158.698,272.607 160.582 M235.750 163.080 C 233.653 164.301,233.402 170.255,235.290 174.000 C 236.787 176.970,240.150 177.729,241.989 175.513 C 244.391 172.619,240.816 161.461,237.668 162.030 C 237.576 162.047,236.713 162.519,235.750 163.080 M253.344 165.546 C 252.466 167.835,253.565 175.771,255.000 177.499 C 257.067 179.991,260.865 179.385,261.603 176.446 C 262.398 173.276,261.489 167.295,259.926 165.411 C 258.360 163.524,254.086 163.612,253.344 165.546 M210.571 170.571 C 208.724 172.419,208.667 173.260,210.049 178.238 C 211.397 183.092,214.041 184.597,217.003 182.199 C 219.001 180.580,219.094 180.063,218.070 176.258 C 216.978 172.205,214.739 169.000,213.000 169.000 C 212.529 169.000,211.436 169.707,210.571 170.571 M107.056 184.944 C 104.806 187.194,103.500 192.873,104.404 196.475 C 104.748 197.844,106.310 200.434,107.876 202.232 C 109.442 204.029,111.417 206.850,112.266 208.500 C 113.115 210.150,114.978 212.591,116.405 213.924 C 117.832 215.258,119.000 216.924,119.000 217.627 C 119.000 220.665,121.488 223.999,124.397 224.860 C 126.104 225.365,130.200 226.534,133.500 227.457 C 141.039 229.566,150.339 233.274,160.000 238.023 C 164.125 240.051,168.663 241.990,170.084 242.332 C 171.505 242.675,177.580 245.731,183.584 249.124 C 209.359 263.690,216.811 272.067,209.078 277.784 C 202.047 282.982,176.443 293.281,162.500 296.520 C 146.020 300.347,139.167 302.363,124.706 307.637 C 122.619 308.398,117.976 309.436,114.387 309.945 C 107.129 310.972,105.000 312.210,105.000 315.400 C 105.000 318.706,102.510 321.540,97.559 323.867 C 91.636 326.651,89.561 329.836,90.472 334.746 C 91.240 338.880,93.514 342.000,95.761 342.000 C 96.559 342.000,98.852 340.736,100.856 339.192 C 106.461 334.871,116.123 331.000,121.299 331.000 C 123.801 331.000,128.019 330.574,130.674 330.054 C 133.328 329.534,139.100 328.582,143.500 327.938 C 163.322 325.038,169.302 323.546,187.500 316.961 C 190.250 315.965,195.875 314.856,200.000 314.496 C 207.186 313.868,234.745 308.819,238.124 307.511 C 239.668 306.914,252.018 312.609,251.985 313.903 C 251.927 316.154,249.434 317.294,243.034 317.996 C 234.798 318.900,232.920 320.041,234.775 323.011 C 236.637 325.993,236.311 327.097,232.380 331.122 C 228.990 334.595,228.818 335.072,229.666 338.665 C 231.679 347.190,239.842 346.534,250.973 336.954 C 258.820 330.201,260.909 329.745,268.540 333.121 C 272.511 334.877,274.434 335.129,279.727 334.587 C 285.852 333.959,298.648 329.587,303.322 326.525 C 304.544 325.724,308.807 324.382,312.794 323.543 C 319.971 322.034,327.269 318.991,328.503 316.995 C 328.854 316.427,331.472 314.795,334.321 313.369 C 344.524 308.261,349.874 302.527,351.483 294.973 C 352.343 290.933,354.632 287.995,356.905 288.013 C 357.782 288.020,361.225 288.880,364.556 289.925 C 368.107 291.038,373.529 291.824,377.667 291.824 C 382.888 291.824,385.993 292.412,389.611 294.086 C 395.412 296.771,405.298 297.827,407.502 295.998 C 408.326 295.314,409.000 293.785,409.000 292.600 C 409.000 291.415,409.611 289.557,410.358 288.473 C 412.567 285.262,413.892 280.066,414.974 270.367 C 415.927 261.824,415.832 260.740,413.497 253.586 C 412.123 249.380,411.000 245.358,411.000 244.649 C 411.000 243.940,409.412 241.505,407.471 239.237 C 403.034 234.053,398.543 233.167,388.562 235.505 C 380.712 237.344,378.555 238.296,375.000 241.490 C 372.407 243.819,358.927 247.518,355.463 246.851 C 354.422 246.650,352.559 244.914,351.323 242.993 C 344.602 232.548,341.647 229.934,323.500 218.386 C 316.518 213.943,304.975 209.767,293.169 207.413 C 284.959 205.777,280.497 205.801,262.944 207.579 C 256.966 208.184,255.739 207.958,249.024 205.010 C 243.024 202.377,240.751 201.866,236.755 202.250 C 230.903 202.812,228.482 204.800,229.365 208.318 C 230.407 212.470,238.482 219.851,245.357 222.936 C 252.054 225.940,253.653 227.911,251.961 231.072 C 251.394 232.133,250.800 233.000,250.641 233.000 C 250.482 233.000,246.637 234.112,242.095 235.472 L 233.837 237.943 226.944 234.472 C 222.713 232.341,218.592 231.000,216.275 230.999 C 214.191 230.999,209.766 229.705,206.396 228.111 C 203.039 226.523,198.764 224.906,196.896 224.518 C 192.071 223.517,182.944 219.184,180.000 216.498 C 178.625 215.244,175.925 213.999,174.000 213.732 C 167.380 212.813,159.207 210.076,152.859 206.652 C 148.368 204.230,144.737 203.072,140.500 202.711 C 130.930 201.895,123.330 198.545,120.167 193.749 C 116.774 188.602,111.527 183.000,110.100 183.000 C 109.495 183.000,108.125 183.875,107.056 184.944 M222.000 357.501 C 220.230 359.632,219.560 367.310,220.922 369.854 C 222.325 372.476,226.546 372.717,227.866 370.250 C 229.620 366.973,230.316 359.086,228.992 357.491 C 227.398 355.569,223.598 355.575,222.000 357.501 M243.289 361.199 C 241.311 363.675,239.000 368.909,239.000 370.915 C 239.000 373.153,242.126 375.290,244.178 374.454 C 246.822 373.376,249.354 368.613,249.426 364.578 C 249.493 360.914,249.238 360.470,246.914 360.199 C 245.492 360.034,243.861 360.484,243.289 361.199 M285.571 365.571 C 283.397 367.746,283.428 377.285,285.616 379.473 C 287.027 380.885,287.503 380.911,289.366 379.678 C 292.310 377.732,293.038 367.232,290.365 365.278 C 288.110 363.629,287.475 363.668,285.571 365.571 M260.394 368.598 C 259.568 370.577,259.028 373.840,259.195 375.848 C 259.451 378.918,259.905 379.547,262.043 379.796 C 264.104 380.037,264.909 379.415,266.293 376.512 C 269.289 370.230,268.133 365.000,263.749 365.000 C 262.569 365.000,261.353 366.305,260.394 368.598 M306.667 365.667 C 305.501 366.832,305.943 378.543,307.200 379.800 C 309.037 381.637,312.808 381.228,313.965 379.066 C 314.534 378.002,315.000 375.272,315.000 373.000 C 315.000 367.371,313.557 365.000,310.131 365.000 C 308.593 365.000,307.033 365.300,306.667 365.667 M193.785 371.250 C 191.679 372.898,189.837 381.827,191.112 384.209 C 192.213 386.267,196.272 386.597,197.766 384.750 C 198.321 384.063,199.096 381.124,199.486 378.220 C 200.447 371.073,197.936 368.002,193.785 371.250 " style="stroke: none; fill: black;">
                    </path></svg>