<svg id="svg-path" width="100%" height="100%" viewBox="0 0 512 512" version="1.1" xmlns="http://www.w3.org/2000/svg" style="fill-rule:evenodd;clip-rule:evenodd;stroke-linejoin:round;stroke-miterlimit:2;">
                        <path d="M207.482 132.084 C 204.742 134.330,201.842 137.509,201.038 139.148 C 199.458 142.369,200.007 145.335,204.805 159.500 C 207.749 168.189,211.000 178.547,211.000 179.233 C 211.000 179.559,207.287 184.064,202.750 189.245 C 192.900 200.493,180.365 218.804,175.878 228.500 C 174.096 232.350,171.595 237.179,170.319 239.230 C 166.774 244.931,167.227 248.594,172.025 253.023 C 175.669 256.387,175.953 256.994,175.025 259.434 C 172.163 266.963,174.927 272.000,181.921 272.000 C 186.826 272.000,200.794 273.899,212.192 276.115 C 226.380 278.874,268.227 278.866,279.062 276.103 C 283.153 275.059,290.256 273.678,294.846 273.034 C 299.437 272.390,306.487 270.543,310.513 268.931 C 318.364 265.787,326.997 265.057,332.722 267.053 C 336.196 268.264,337.336 270.332,342.341 284.500 C 346.863 297.298,346.713 296.652,348.012 309.000 C 349.114 319.489,350.519 326.123,355.534 344.532 C 357.645 352.281,358.123 355.957,357.837 362.252 C 357.365 372.657,355.804 374.180,346.025 373.782 C 340.204 373.546,338.819 373.854,335.328 376.164 C 329.179 380.233,324.833 380.988,307.500 380.998 C 289.433 381.008,269.596 382.596,266.541 384.276 C 265.418 384.893,260.000 385.719,254.500 386.111 C 230.991 387.786,218.993 389.091,215.369 390.366 C 213.241 391.114,207.278 392.540,202.118 393.535 C 193.894 395.121,192.167 395.177,188.118 393.987 C 183.017 392.487,180.443 392.415,171.339 393.516 C 158.260 395.099,156.872 393.259,156.414 373.733 C 155.995 355.909,159.024 333.246,163.996 317.000 C 165.112 313.351,165.984 307.649,165.983 304.000 C 165.982 300.425,166.529 293.075,167.198 287.666 C 168.590 276.428,167.568 272.751,162.903 272.201 C 158.552 271.689,155.295 276.017,154.558 283.293 C 153.902 289.777,151.996 301.908,149.498 315.500 C 144.310 343.738,142.680 358.102,144.078 363.274 C 144.919 366.390,144.932 369.207,144.124 374.000 C 142.989 380.734,142.409 384.879,141.377 393.636 C 140.245 403.235,143.075 404.174,178.651 406.003 C 200.836 407.143,202.171 407.106,210.651 405.123 C 228.724 400.895,238.240 399.634,250.036 399.903 C 259.340 400.114,262.726 399.784,267.536 398.194 C 277.657 394.849,285.776 394.015,307.112 394.133 C 328.777 394.252,329.605 394.111,335.352 389.330 C 337.837 387.263,338.865 387.041,343.352 387.600 C 346.183 387.954,351.570 389.568,355.322 391.189 C 361.784 393.980,362.275 394.050,364.617 392.515 C 368.097 390.235,369.000 387.114,369.000 377.369 C 369.000 372.694,369.411 368.101,369.912 367.164 C 371.151 364.849,369.340 344.587,366.993 334.500 C 365.969 330.100,363.912 319.525,362.423 311.000 C 360.933 302.475,358.164 289.650,356.269 282.500 C 351.302 263.758,351.234 262.743,354.615 257.713 C 356.609 254.747,357.429 252.311,357.383 249.482 C 357.299 244.213,355.787 241.583,350.741 237.927 C 346.324 234.728,341.822 228.196,335.627 216.000 C 329.065 203.081,324.552 195.218,322.322 192.817 C 321.138 191.542,318.444 187.527,316.335 183.893 C 314.226 180.259,309.438 172.834,305.696 167.393 C 297.815 155.934,288.407 141.322,285.068 135.353 C 281.905 129.700,279.907 128.997,269.661 129.931 C 259.912 130.819,258.084 131.754,251.898 139.014 C 242.258 150.328,238.433 154.242,235.574 155.720 C 232.645 157.235,232.530 157.199,229.803 153.933 C 227.032 150.614,221.000 137.437,221.000 134.704 C 221.000 132.261,216.970 128.000,214.659 128.000 C 213.451 128.000,210.222 129.838,207.482 132.084 M271.954 142.976 C 274.898 144.551,288.041 163.018,295.053 175.432 C 299.431 183.182,306.597 194.250,317.750 210.493 C 321.738 216.300,326.633 224.302,328.627 228.276 C 330.621 232.249,333.771 237.189,335.627 239.253 C 341.594 245.892,340.091 248.244,327.601 251.818 C 316.609 254.962,307.932 256.675,296.570 257.942 C 289.061 258.779,285.691 259.702,280.827 262.254 L 274.639 265.500 252.069 265.847 C 228.090 266.215,224.496 265.885,197.547 260.839 C 181.521 257.839,178.000 256.776,178.000 254.935 C 178.000 253.271,192.065 224.872,195.798 219.000 C 202.132 209.035,212.007 198.419,223.952 188.732 C 233.472 181.012,239.913 174.059,242.085 169.155 C 243.188 166.665,247.531 161.289,252.255 156.566 C 256.790 152.032,261.776 146.900,263.335 145.161 C 266.251 141.910,268.769 141.271,271.954 142.976 " style="stroke: none; fill: black;">
                    </path></svg>