<svg id="svg-path" width="100%" height="100%" viewBox="0 0 512 512" version="1.1" xmlns="http://www.w3.org/2000/svg" style="fill-rule:evenodd;clip-rule:evenodd;stroke-linejoin:round;stroke-miterlimit:2;">
                        <path d="M219.000 49.792 C 210.772 52.915,206.582 55.715,197.000 64.494 C 183.767 76.617,181.705 81.646,186.504 90.093 C 193.245 101.956,195.252 107.059,194.652 110.808 C 193.824 115.979,191.331 117.560,181.800 118.956 C 170.203 120.655,167.405 121.682,163.547 125.655 C 157.251 132.137,152.100 146.882,150.500 163.000 C 150.145 166.575,149.156 173.100,148.301 177.500 C 146.316 187.722,147.037 212.691,149.556 221.000 C 151.593 227.717,154.692 247.530,155.349 258.040 C 155.844 265.946,157.238 269.792,161.772 275.756 C 163.909 278.569,164.171 279.727,163.690 284.256 C 163.384 287.140,162.017 293.466,160.652 298.313 C 158.523 305.871,158.297 308.008,159.065 313.313 C 160.449 322.881,160.204 325.422,157.543 329.102 C 153.072 335.283,151.770 338.298,150.922 344.431 C 150.461 347.769,149.163 355.675,148.038 362.000 C 146.913 368.325,145.535 376.082,144.977 379.237 C 144.418 382.392,143.565 386.014,143.081 387.286 C 142.598 388.558,141.903 392.726,141.538 396.549 C 139.749 415.257,133.831 436.596,126.421 451.048 C 121.031 461.563,120.365 464.546,122.351 469.298 C 124.919 475.443,133.533 478.926,138.968 476.017 C 142.268 474.251,147.679 465.646,149.983 458.500 C 151.224 454.650,154.435 447.394,157.120 442.376 C 161.627 433.951,162.000 432.717,162.000 426.252 C 162.000 417.915,163.581 412.980,168.400 406.272 C 173.475 399.208,182.194 380.554,186.950 366.584 C 189.181 360.030,193.488 350.130,196.520 344.584 C 199.553 339.038,205.154 328.161,208.967 320.414 C 212.780 312.667,216.576 305.767,217.402 305.081 C 219.772 303.115,222.511 304.645,228.543 311.307 C 238.998 322.855,247.839 335.580,253.066 346.604 C 255.908 352.597,261.521 364.259,265.540 372.520 C 269.558 380.782,273.159 388.882,273.542 390.520 C 273.924 392.159,275.759 396.273,277.619 399.662 C 280.621 405.134,281.000 406.675,281.000 413.402 L 281.000 420.978 286.491 427.239 C 289.511 430.683,293.899 436.875,296.241 441.000 C 301.246 449.814,309.336 458.544,313.457 459.579 C 318.181 460.764,324.174 458.139,326.195 454.000 C 329.694 446.833,328.636 444.003,315.894 426.443 C 308.018 415.590,306.710 411.652,307.554 401.341 C 308.057 395.193,307.836 391.990,306.659 388.341 C 305.800 385.679,304.155 376.891,303.004 368.814 C 300.905 354.092,299.331 349.436,294.025 342.241 C 290.872 337.966,288.008 329.336,286.478 319.500 C 285.139 310.889,282.079 299.724,275.863 280.767 C 274.015 275.130,273.000 269.931,273.000 266.100 C 273.000 260.224,272.161 257.558,266.640 245.887 C 265.237 242.921,263.429 236.445,262.624 231.497 C 261.335 223.572,258.140 213.710,253.463 203.216 C 249.675 194.714,253.581 167.000,258.568 167.000 C 260.314 167.000,283.019 179.195,287.500 182.540 C 292.764 186.470,302.977 191.076,310.856 193.076 C 315.060 194.143,320.300 195.744,322.500 196.633 C 324.700 197.523,331.125 199.066,336.779 200.064 C 347.761 202.002,356.670 204.917,360.971 207.979 C 368.210 213.134,373.364 210.957,384.357 198.103 C 390.483 190.940,392.897 188.835,395.919 188.022 C 400.826 186.700,404.401 183.861,405.991 180.021 C 407.520 176.331,410.330 175.473,415.941 176.984 C 419.312 177.892,420.435 178.797,421.576 181.527 C 423.955 187.222,423.381 190.261,418.847 195.955 C 416.056 199.460,412.938 202.002,409.340 203.706 C 404.249 206.116,403.910 206.518,402.448 211.870 C 401.602 214.967,400.229 218.625,399.396 220.000 C 398.562 221.375,397.001 224.379,395.926 226.676 L 393.972 230.853 388.593 230.297 C 383.618 229.784,383.088 229.937,381.517 232.333 C 379.553 235.331,380.349 238.962,384.794 247.277 C 386.794 251.019,387.084 252.316,386.134 253.266 C 385.184 254.216,383.777 253.859,379.633 251.617 C 373.790 248.456,371.069 248.634,369.104 252.305 C 368.187 254.020,368.163 255.298,369.008 257.521 C 369.713 259.374,369.878 263.122,369.455 267.638 C 368.595 276.819,370.067 281.779,374.066 283.173 C 377.178 284.258,378.493 286.872,377.500 290.000 C 376.601 292.832,374.445 292.482,371.342 289.000 C 368.408 285.706,367.316 285.443,363.602 287.135 C 360.102 288.730,359.802 290.298,362.031 295.338 C 364.153 300.135,365.398 301.437,370.200 303.882 C 372.691 305.151,373.606 306.471,374.438 309.996 C 375.303 313.658,376.129 314.788,378.889 316.087 C 380.752 316.964,382.904 318.878,383.670 320.341 C 385.410 323.661,387.392 323.693,392.036 320.475 C 394.039 319.087,397.580 317.624,399.903 317.225 C 405.194 316.317,406.464 314.145,407.780 303.757 C 408.917 294.776,410.923 291.000,414.556 291.000 C 415.937 291.000,419.294 289.871,422.016 288.492 C 429.038 284.934,429.988 280.060,424.386 276.340 C 422.616 275.165,421.888 275.372,418.176 278.102 C 413.128 281.814,407.052 282.973,405.082 280.599 C 403.555 278.759,404.049 269.551,405.767 267.833 C 406.499 267.101,407.906 267.144,410.424 267.975 C 413.530 269.000,414.482 268.904,417.266 267.289 C 419.045 266.257,421.386 263.777,422.469 261.778 C 424.359 258.291,424.369 257.997,422.719 254.538 C 420.525 249.936,420.579 248.095,423.000 245.000 C 427.327 239.468,423.932 233.652,416.689 234.189 L 412.500 234.500 412.765 225.171 C 413.093 213.628,414.476 210.537,420.059 208.864 C 423.351 207.878,425.309 206.111,430.553 199.395 C 436.240 192.113,437.000 190.624,437.000 186.768 C 437.000 182.977,436.398 181.740,432.467 177.448 C 418.610 162.322,415.083 160.006,409.871 162.612 C 408.425 163.335,406.996 164.568,406.695 165.352 C 406.013 167.129,399.082 169.670,392.587 170.525 C 387.512 171.193,385.490 172.708,379.955 179.993 C 377.644 183.036,376.839 183.384,371.177 183.794 C 362.835 184.397,355.918 182.563,337.000 174.731 C 326.605 170.427,310.951 162.775,307.002 160.067 C 305.626 159.124,302.475 157.330,300.000 156.082 C 297.525 154.834,292.715 151.043,289.311 147.657 C 285.025 143.392,279.962 139.809,272.840 136.000 C 266.304 132.504,262.022 129.541,261.089 127.867 C 259.743 125.453,259.835 124.748,262.193 119.367 C 263.607 116.140,265.037 111.340,265.370 108.699 C 265.725 105.886,267.002 102.553,268.455 100.648 C 276.041 90.702,278.102 78.081,273.592 69.182 C 269.166 60.447,257.559 51.123,251.000 51.034 C 249.625 51.015,244.973 50.325,240.662 49.500 C 230.613 47.577,224.621 47.658,219.000 49.792 M409.985 254.482 C 411.543 256.359,410.303 258.522,406.491 260.575 C 403.202 262.346,403.039 262.345,401.050 260.545 C 398.340 258.093,398.370 254.169,401.106 253.157 C 403.832 252.148,408.644 252.866,409.985 254.482 M389.989 266.979 C 391.957 270.656,389.082 276.000,385.137 276.000 C 381.763 276.000,379.604 268.796,382.200 266.200 C 384.123 264.277,388.793 264.744,389.989 266.979 M397.066 288.035 C 399.526 289.352,399.698 295.571,397.345 298.171 C 395.267 300.468,389.188 300.654,388.341 298.446 C 387.600 296.516,390.791 289.231,392.923 287.983 C 394.923 286.813,394.780 286.812,397.066 288.035 M413.250 301.556 C 409.878 304.242,409.035 307.635,411.200 309.800 C 412.990 311.590,414.194 311.307,419.382 307.870 C 423.279 305.289,424.054 304.281,423.804 302.120 C 423.359 298.284,417.734 297.983,413.250 301.556 " style="stroke: none; fill: black;">
                    </path></svg>