<svg id="svg-path" width="100%" height="100%" viewBox="0 0 512 512" version="1.1" xmlns="http://www.w3.org/2000/svg" style="fill-rule:evenodd;clip-rule:evenodd;stroke-linejoin:round;stroke-miterlimit:2;">
                        <path d="M210.226 175.463 C 207.320 177.908,197.063 195.083,192.934 204.415 C 190.488 209.945,183.015 239.116,183.006 243.169 C 182.995 248.130,190.203 268.338,192.976 271.121 C 194.572 272.722,199.022 274.860,204.412 276.615 C 209.265 278.196,214.364 280.534,215.742 281.812 C 218.243 284.130,218.248 284.166,217.557 296.818 C 216.745 311.679,218.162 325.560,221.118 331.712 C 223.824 337.344,228.285 340.000,235.039 340.000 C 239.981 340.000,240.621 339.708,244.421 335.724 C 248.687 331.252,248.791 330.973,253.512 311.500 C 256.479 299.258,257.924 296.308,261.379 295.441 C 262.735 295.101,269.234 296.379,276.714 298.458 C 286.939 301.300,290.249 301.856,292.299 301.076 C 294.973 300.060,300.450 289.742,312.777 262.500 C 318.759 249.278,319.517 246.956,321.425 236.000 C 322.239 231.325,323.597 225.250,324.442 222.500 C 326.472 215.893,326.389 213.150,324.040 209.299 C 321.887 205.767,319.344 204.217,310.458 201.020 C 304.424 198.850,302.177 198.146,278.000 190.851 C 270.575 188.611,260.000 185.419,254.500 183.759 C 249.000 182.099,239.186 178.999,232.690 176.870 C 218.691 172.282,214.331 172.009,210.226 175.463 " style="stroke: none; fill: black;">
                    </path></svg>