<svg id="svg-path" width="100%" height="100%" viewBox="0 0 512 512" version="1.1" xmlns="http://www.w3.org/2000/svg" style="fill-rule:evenodd;clip-rule:evenodd;stroke-linejoin:round;stroke-miterlimit:2;">
                        <path d="M241.500 102.038 C 239.300 102.359,236.127 103.348,234.448 104.234 C 229.569 106.812,223.251 114.358,221.951 119.159 C 220.302 125.255,221.278 134.589,224.240 141.044 C 228.416 150.146,231.000 157.404,230.996 160.019 C 230.992 162.747,227.743 168.786,225.222 170.750 C 224.340 171.438,221.788 172.000,219.552 172.000 C 214.151 172.000,209.153 173.508,206.590 175.912 C 203.833 178.498,184.369 186.665,175.421 188.991 C 171.527 190.003,165.677 191.936,162.421 193.286 C 159.164 194.637,154.025 196.537,151.000 197.509 C 147.975 198.480,143.700 200.235,141.500 201.407 C 131.171 206.910,121.449 208.474,109.420 206.567 C 104.643 205.810,104.133 205.944,100.848 208.829 C 98.926 210.516,96.766 213.679,96.047 215.857 C 94.804 219.623,94.882 220.019,97.620 223.888 C 99.457 226.484,101.285 227.965,102.668 227.979 C 106.144 228.013,108.000 229.079,108.000 231.040 C 108.000 235.385,115.115 234.280,124.833 228.426 C 127.849 226.609,132.158 224.825,134.409 224.462 C 139.109 223.704,151.520 220.414,152.903 219.560 C 153.415 219.244,157.808 218.131,162.667 217.087 C 167.525 216.043,174.650 214.296,178.500 213.204 C 188.547 210.356,201.152 208.727,204.196 209.884 C 205.576 210.409,207.526 212.549,208.555 214.667 C 210.168 217.987,210.513 222.162,211.134 245.883 C 211.528 260.944,212.095 274.244,212.395 275.438 C 212.701 276.656,212.100 279.119,211.024 281.054 C 209.971 282.949,207.286 288.100,205.059 292.500 C 200.158 302.181,190.307 314.601,183.500 319.681 C 177.033 324.507,176.636 325.024,172.122 334.500 C 170.025 338.900,165.415 346.100,161.875 350.500 C 153.711 360.650,148.000 368.702,148.000 370.064 C 148.000 373.163,142.327 381.981,137.908 385.750 C 133.424 389.576,132.403 390.000,127.686 390.000 C 124.656 390.000,121.545 390.630,120.313 391.493 C 117.243 393.644,106.384 395.903,100.166 395.686 C 95.427 395.521,94.557 395.818,92.379 398.348 C 85.890 405.886,94.762 411.393,125.505 418.909 C 140.184 422.498,142.958 422.911,145.785 421.925 C 149.069 420.780,151.980 416.755,152.022 413.300 C 152.106 406.385,162.830 392.510,173.554 385.441 C 182.562 379.503,197.442 366.848,201.706 361.498 C 206.329 355.698,216.761 347.737,230.308 339.671 C 246.551 330.000,249.026 329.210,255.000 331.783 C 262.244 334.905,283.797 353.138,288.488 360.112 C 293.060 366.910,298.617 373.528,309.578 385.229 C 316.205 392.302,321.342 398.938,324.578 404.605 C 327.285 409.345,331.188 415.136,333.250 417.473 C 336.780 421.474,337.000 422.113,337.000 428.362 C 337.000 435.926,338.962 439.014,343.750 438.982 C 347.816 438.954,361.571 436.397,370.064 434.089 C 389.758 428.737,391.517 428.100,393.744 425.511 C 398.744 419.698,395.331 415.030,386.027 414.956 C 382.987 414.932,378.700 414.264,376.500 413.471 C 370.801 411.418,368.330 411.646,364.481 414.582 C 362.414 416.159,360.395 416.937,359.297 416.580 C 357.150 415.882,346.689 394.077,344.627 386.000 C 342.430 377.394,332.968 358.593,324.615 346.234 C 320.427 340.037,317.000 334.731,317.000 334.442 C 317.000 333.754,310.687 321.176,303.696 307.933 C 299.759 300.475,297.931 295.768,297.482 291.933 C 297.133 288.945,295.353 282.225,293.526 277.000 C 289.540 265.596,289.125 263.865,287.986 253.874 C 287.499 249.604,285.650 241.922,283.878 236.805 C 280.686 227.587,280.666 227.410,281.728 217.846 C 283.573 201.210,285.381 199.449,302.585 197.522 C 309.138 196.788,319.225 195.900,325.000 195.549 C 330.775 195.198,340.225 194.430,346.000 193.843 C 361.863 192.230,368.843 191.874,388.390 191.679 C 404.039 191.522,406.415 191.286,407.356 189.795 C 408.205 188.451,407.934 187.558,406.073 185.578 C 402.529 181.805,394.832 179.614,384.833 179.531 C 378.234 179.477,375.728 179.063,374.331 177.799 C 370.335 174.183,366.914 173.812,334.000 173.424 C 293.597 172.947,281.444 172.240,279.808 170.269 C 278.929 169.209,278.646 163.362,278.788 149.152 C 279.015 126.535,277.885 121.090,271.251 112.816 C 265.236 105.315,251.969 100.509,241.500 102.038 M389.000 211.089 C 351.913 212.438,353.241 212.315,350.936 214.620 C 348.948 216.607,348.782 218.608,347.245 258.883 C 345.796 296.860,345.789 301.218,347.175 302.604 C 348.222 303.651,352.841 304.588,361.607 305.532 C 377.677 307.262,386.398 308.514,395.998 310.468 C 400.122 311.308,407.552 312.280,412.509 312.628 C 421.292 313.245,421.553 313.201,422.721 310.881 C 424.185 307.975,424.847 295.542,425.599 256.822 C 426.172 227.392,425.382 214.370,422.838 211.305 C 421.655 209.880,422.158 209.883,389.000 211.089 M414.717 222.285 C 416.061 223.630,416.459 225.477,416.334 229.785 C 416.180 235.063,416.173 239.402,416.283 263.000 C 416.352 277.833,414.819 296.327,413.267 299.392 L 411.802 302.283 403.638 301.707 C 399.148 301.390,394.130 300.610,392.487 299.973 C 390.844 299.337,385.000 298.421,379.500 297.939 C 353.882 295.690,354.976 296.482,355.063 280.250 C 355.098 273.788,355.540 264.675,356.047 260.000 C 356.554 255.325,357.270 245.501,357.637 238.168 C 358.111 228.725,358.720 224.423,359.725 223.418 C 360.718 222.425,363.745 221.978,369.821 221.926 C 374.595 221.885,380.525 221.475,383.000 221.013 C 385.475 220.552,393.223 220.248,400.217 220.338 C 410.950 220.475,413.212 220.778,414.717 222.285 M378.853 246.660 C 376.560 247.282,375.944 250.475,377.647 252.906 C 378.431 254.025,380.836 255.470,382.991 256.115 C 386.307 257.109,387.301 257.033,389.455 255.622 C 390.855 254.704,392.000 253.161,392.000 252.193 C 392.000 249.122,383.289 245.456,378.853 246.660 " style="stroke: none; fill: black;">
                    </path></svg>