<svg id="svg-path" width="100%" height="100%" viewBox="0 0 512 512" version="1.1" xmlns="http://www.w3.org/2000/svg" style="fill-rule:evenodd;clip-rule:evenodd;stroke-linejoin:round;stroke-miterlimit:2;">
                        <path d="M352.000 195.041 C 345.276 195.825,335.672 199.115,332.932 201.573 C 332.070 202.347,330.388 204.935,329.195 207.323 C 326.346 213.028,324.563 214.493,318.179 216.370 C 303.613 220.653,292.086 231.648,284.274 248.713 C 282.903 251.707,280.151 255.583,278.158 257.328 C 276.165 259.073,268.677 266.437,261.517 273.692 C 253.430 281.888,247.453 287.138,245.736 287.554 C 243.204 288.168,240.076 288.010,224.000 286.459 C 214.873 285.578,214.515 285.375,210.447 278.770 C 197.631 257.964,187.582 249.983,174.218 249.995 C 167.837 250.001,163.293 248.217,156.362 242.983 C 153.486 240.812,147.547 237.203,143.163 234.962 C 132.883 229.708,129.078 225.906,124.050 215.859 C 119.629 207.027,113.575 198.000,112.073 198.000 C 111.561 198.000,110.407 198.736,109.507 199.636 C 106.769 202.374,108.854 211.866,114.749 223.500 C 118.582 231.066,127.272 244.432,129.087 245.554 C 129.702 245.934,131.225 248.446,132.472 251.136 C 133.831 254.070,136.291 257.156,138.619 258.847 C 140.754 260.398,143.060 262.347,143.744 263.179 C 145.457 265.261,146.248 270.208,145.135 271.884 C 143.994 273.603,140.013 271.650,131.328 265.113 C 122.776 258.676,118.140 253.311,114.812 246.000 C 111.315 238.318,105.526 233.000,100.661 233.000 C 98.944 233.000,95.175 232.020,92.285 230.823 C 87.745 228.941,86.700 228.822,84.592 229.951 C 81.041 231.851,80.509 235.446,83.057 240.334 C 85.391 244.812,86.066 245.389,96.492 251.828 C 105.438 257.352,107.597 259.433,116.380 271.000 C 124.072 281.130,130.000 291.207,130.000 294.152 C 130.000 295.140,128.654 296.645,127.009 297.495 C 122.081 300.043,120.710 303.102,121.180 310.491 C 121.951 322.591,130.421 329.052,142.609 326.837 C 156.805 324.257,156.109 324.124,163.250 330.768 C 166.799 334.069,170.782 337.338,172.102 338.032 C 176.606 340.400,184.190 347.343,188.198 352.768 C 190.532 355.927,193.604 358.772,195.568 359.593 C 199.548 361.256,211.881 361.438,217.366 359.915 C 221.589 358.743,225.112 359.255,227.202 361.345 C 228.409 362.552,234.157 366.441,239.500 369.666 C 243.574 372.125,249.691 374.808,256.500 377.122 C 263.019 379.337,264.840 379.488,283.000 379.326 C 305.535 379.125,311.825 377.911,326.370 370.955 C 336.781 365.977,344.962 359.471,352.250 350.374 C 359.660 341.125,372.735 331.812,388.000 324.910 C 393.084 322.612,401.973 315.954,409.727 308.638 C 415.626 303.072,418.181 301.397,429.437 295.721 C 442.319 289.224,443.461 287.284,440.427 277.066 C 438.239 269.697,433.101 265.488,419.500 259.923 C 417.300 259.022,409.229 255.261,401.564 251.565 C 393.899 247.868,384.230 243.995,380.076 242.957 C 370.899 240.663,369.617 239.271,370.446 232.500 C 370.783 229.750,371.337 221.134,371.678 213.353 L 372.297 199.206 369.694 196.603 C 366.857 193.766,364.629 193.570,352.000 195.041 " style="stroke: none; fill: black;">
                    </path></svg>