<svg id="svg-path" width="100%" height="100%" viewBox="0 0 512 512" version="1.1" xmlns="http://www.w3.org/2000/svg" style="fill-rule:evenodd;clip-rule:evenodd;stroke-linejoin:round;stroke-miterlimit:2;">
                        <path d="M260.000 72.683 C 248.406 74.586,235.420 83.188,228.890 93.291 C 222.917 102.533,220.604 111.250,221.309 121.864 C 222.351 137.555,229.172 149.641,241.657 157.918 C 245.043 160.163,248.235 162.000,248.752 162.000 C 250.489 162.000,253.000 165.637,253.000 168.154 C 253.000 170.933,249.684 174.438,246.274 175.262 C 245.050 175.558,242.371 175.422,240.321 174.960 C 237.824 174.396,233.938 174.631,228.547 175.670 C 219.291 177.455,205.146 176.968,190.500 174.360 C 185.550 173.478,178.715 172.466,175.312 172.111 C 171.077 171.669,168.394 170.799,166.812 169.355 C 165.540 168.195,163.201 166.069,161.614 164.632 C 158.318 161.647,153.297 160.007,147.500 160.021 C 141.385 160.036,140.624 160.962,140.173 168.944 C 139.731 176.763,141.187 180.360,145.449 181.981 C 147.931 182.924,162.780 185.471,172.000 186.535 C 175.025 186.884,184.862 188.939,193.859 191.103 C 204.054 193.555,214.755 195.408,222.259 196.021 C 228.956 196.568,234.968 197.558,235.803 198.251 C 236.629 198.937,239.050 201.861,241.184 204.749 C 243.338 207.665,245.855 210.000,246.844 210.000 C 247.823 210.000,250.561 209.064,252.928 207.921 C 255.308 206.771,258.186 206.087,259.366 206.392 C 262.621 207.231,272.421 218.880,274.527 224.414 C 275.555 227.117,278.093 232.704,280.166 236.830 C 283.659 243.783,283.890 244.777,283.330 250.416 C 282.555 258.205,281.891 259.393,276.583 262.504 C 273.078 264.558,269.634 265.364,259.351 266.534 C 242.662 268.433,242.866 268.374,236.743 273.017 C 233.859 275.203,231.085 276.993,230.579 276.996 C 230.072 276.998,228.947 277.618,228.079 278.372 C 227.210 279.127,224.175 280.596,221.333 281.637 C 217.235 283.137,214.493 285.316,208.083 292.168 L 200.000 300.807 199.985 308.654 C 199.970 316.479,199.957 316.518,195.020 323.209 C 191.500 327.980,188.833 330.478,185.785 331.855 C 180.269 334.350,169.401 336.000,158.493 336.000 C 148.901 336.000,146.000 336.997,146.000 340.295 C 146.000 343.318,148.158 344.458,159.652 347.508 C 165.069 348.946,173.924 352.119,179.332 354.561 C 184.740 357.002,190.010 359.000,191.043 359.000 C 193.641 359.000,196.843 355.298,198.017 350.937 C 200.029 343.463,210.207 332.423,216.000 331.431 C 221.647 330.464,226.258 328.844,230.000 326.512 C 231.925 325.313,236.845 323.061,240.933 321.509 C 245.021 319.956,250.261 317.406,252.578 315.843 L 256.790 313.000 275.260 313.000 C 296.894 313.000,297.162 313.105,302.075 323.503 C 303.704 326.950,306.422 331.510,308.116 333.635 C 312.861 339.591,313.642 341.741,314.971 352.500 C 315.948 360.415,317.370 365.475,321.791 376.764 C 328.838 394.760,329.301 395.292,337.139 394.405 C 342.967 393.745,343.216 393.817,346.647 397.114 C 353.563 403.760,357.761 415.324,358.581 429.986 C 359.163 440.396,358.443 444.865,353.499 461.500 C 352.600 464.522,355.178 467.426,358.094 466.678 C 361.328 465.848,372.292 455.363,374.489 451.000 C 375.458 449.075,378.220 444.719,380.626 441.321 C 383.032 437.922,385.000 434.021,385.000 432.652 C 385.000 431.145,383.204 428.060,380.446 424.832 C 373.470 416.664,367.036 402.540,365.563 392.158 C 365.224 389.770,362.392 382.345,359.270 375.658 L 353.594 363.500 353.795 354.213 C 353.948 347.164,353.514 343.495,351.998 338.994 C 349.896 332.753,349.413 327.481,350.863 326.585 C 351.337 326.291,352.310 323.965,353.024 321.416 C 354.568 315.900,353.383 309.846,349.017 300.941 C 346.074 294.939,344.677 289.636,343.018 278.168 C 342.434 274.136,340.795 268.076,339.375 264.703 L 336.794 258.570 338.401 244.332 C 339.639 233.364,339.857 225.412,339.351 209.711 L 338.693 189.328 341.069 187.664 C 345.357 184.661,352.566 185.972,360.074 191.121 C 364.497 194.153,394.290 204.473,407.407 207.515 C 416.234 209.562,417.974 210.394,428.746 217.715 C 438.487 224.337,439.933 224.737,446.751 222.698 C 452.381 221.014,453.649 219.465,454.283 213.500 C 454.798 208.655,454.667 208.333,450.020 203.093 L 445.226 197.687 435.863 196.965 C 423.890 196.041,408.985 190.982,385.000 179.698 C 358.591 167.274,354.044 164.920,348.500 160.802 C 341.904 155.903,339.105 154.650,331.217 153.067 C 328.311 152.484,324.106 151.075,321.873 149.935 C 318.190 148.057,317.354 147.981,312.897 149.123 C 305.783 150.946,304.780 149.571,308.248 142.743 C 313.576 132.254,314.185 129.897,314.257 119.462 C 314.309 112.064,313.846 108.119,312.495 104.462 C 309.975 97.636,302.870 87.159,298.125 83.271 C 287.558 74.612,272.954 70.557,260.000 72.683 M86.000 288.841 C 73.775 292.893,65.571 299.564,60.507 309.573 C 57.886 314.754,57.768 315.552,58.404 323.781 C 59.326 335.705,61.142 340.639,67.049 347.265 C 73.731 354.763,80.874 358.174,91.183 358.790 C 100.168 359.327,105.487 357.771,113.948 352.132 C 118.445 349.135,120.145 347.102,123.680 340.500 C 127.543 333.284,127.964 331.814,127.981 325.500 C 128.010 314.245,121.097 299.532,113.112 293.854 C 105.254 288.266,94.008 286.187,86.000 288.841 " style="stroke: none; fill: black;">
                    </path></svg>