<svg id="svg-path" width="100%" height="100%" viewBox="0 0 512 512" version="1.1" xmlns="http://www.w3.org/2000/svg" style="fill-rule:evenodd;clip-rule:evenodd;stroke-linejoin:round;stroke-miterlimit:2;">
                        <path d="M432.815 109.928 C 430.788 110.333,427.638 111.785,425.815 113.156 C 421.216 116.612,419.677 117.026,415.601 115.900 C 412.918 115.159,411.377 115.273,409.277 116.365 C 400.548 120.906,397.807 131.189,402.100 143.283 C 403.632 147.597,403.902 149.498,403.098 150.302 C 402.491 150.909,398.595 151.731,394.441 152.127 C 386.010 152.933,384.544 153.759,382.391 158.920 C 381.570 160.889,378.753 165.650,376.131 169.500 C 373.509 173.350,369.855 179.587,368.011 183.360 C 366.167 187.133,363.170 191.798,361.351 193.727 C 357.381 197.936,356.589 197.873,343.000 192.273 C 337.775 190.120,330.862 187.784,327.639 187.082 C 321.903 185.834,321.627 185.876,314.789 189.028 C 307.849 192.227,307.751 192.240,300.636 191.023 C 296.322 190.285,287.904 189.958,279.485 190.201 C 265.842 190.594,260.342 191.642,251.500 195.531 C 242.194 199.624,226.967 199.911,201.000 196.483 C 178.502 193.513,169.383 192.785,160.411 193.242 C 151.625 193.689,151.107 193.852,144.911 198.102 C 141.385 200.521,138.275 202.745,138.000 203.045 C 137.725 203.345,134.350 205.552,130.500 207.951 C 126.650 210.350,121.638 213.930,119.363 215.906 C 117.087 217.883,111.437 221.442,106.806 223.816 C 99.259 227.685,98.111 228.008,95.733 226.924 C 93.625 225.964,92.939 224.779,92.397 221.161 C 91.452 214.858,92.586 181.097,93.853 177.832 C 94.422 176.365,96.865 173.188,99.281 170.772 C 107.023 163.029,107.007 151.000,99.254 151.000 C 93.134 151.000,82.795 158.732,81.511 164.268 C 81.227 165.496,80.314 169.822,79.483 173.882 C 78.652 177.943,76.874 184.468,75.531 188.382 C 74.189 192.297,72.387 200.900,71.527 207.500 C 69.873 220.188,68.569 225.380,64.997 233.500 C 63.788 236.250,62.123 240.750,61.299 243.500 C 60.475 246.250,58.635 250.975,57.210 254.000 C 54.033 260.748,53.204 272.254,54.967 285.155 C 56.408 295.702,55.786 297.439,46.914 307.648 C 43.638 311.416,39.167 318.021,36.979 322.323 C 33.653 328.862,33.000 331.131,33.000 336.139 C 33.000 339.435,33.462 342.994,34.026 344.049 C 34.590 345.103,37.519 347.133,40.533 348.559 C 43.657 350.037,47.194 352.697,48.757 354.746 C 51.803 358.737,51.848 359.548,50.566 387.500 C 50.160 396.330,50.375 402.411,51.235 406.459 C 52.354 411.729,52.987 412.760,56.716 415.374 L 60.931 418.330 65.716 415.380 C 72.074 411.459,72.390 408.646,67.453 399.934 C 62.792 391.708,62.340 388.723,64.811 382.500 C 68.651 372.830,74.865 360.432,76.673 358.836 C 77.678 357.948,81.672 355.637,85.550 353.699 C 93.809 349.572,98.609 345.408,99.584 341.523 C 99.968 339.992,99.683 334.892,98.951 330.187 C 97.621 321.638,97.622 321.631,100.310 316.816 C 101.800 314.149,103.000 310.437,103.000 308.499 C 103.000 303.678,105.641 301.369,112.141 300.506 C 115.089 300.115,119.075 299.075,121.000 298.194 C 124.871 296.423,133.600 289.310,141.792 281.250 C 144.727 278.363,147.480 276.000,147.909 276.000 C 149.331 276.000,151.730 279.446,152.947 283.236 C 153.606 285.291,154.570 287.234,155.087 287.554 C 155.605 287.874,156.973 290.018,158.127 292.318 C 163.980 303.982,174.899 308.179,184.600 302.494 C 189.932 299.370,202.281 284.682,212.571 269.228 C 224.390 251.478,233.024 244.181,244.000 242.665 C 252.403 241.505,256.038 240.031,257.048 237.375 C 258.683 233.073,258.110 230.195,254.887 226.524 C 252.269 223.543,251.978 222.731,253.057 221.431 C 255.790 218.139,266.460 215.387,289.500 212.032 C 293.900 211.392,299.309 210.467,301.520 209.977 C 303.916 209.447,308.159 209.465,312.020 210.023 C 315.584 210.538,324.238 210.969,331.250 210.980 C 342.613 210.998,344.216 211.216,345.982 212.982 C 348.376 215.376,347.579 218.261,342.984 223.836 C 341.343 225.827,340.000 227.943,340.000 228.538 C 340.000 230.439,333.800 236.041,329.555 237.975 C 325.036 240.034,323.018 241.979,320.710 246.500 C 318.809 250.223,311.411 257.967,303.500 264.512 C 296.067 270.662,295.451 271.423,293.395 277.000 C 288.569 290.089,286.621 294.923,284.495 299.085 C 283.207 301.606,279.389 311.056,276.010 320.085 C 272.631 329.113,268.979 338.075,267.894 340.000 C 266.809 341.925,264.870 345.792,263.585 348.593 C 262.300 351.395,259.844 354.687,258.127 355.910 C 253.531 359.182,249.001 366.263,248.996 370.180 C 248.994 372.006,248.094 374.973,246.996 376.774 C 243.558 382.414,244.857 386.000,250.339 386.000 C 251.956 386.000,257.603 384.703,262.889 383.118 C 268.175 381.532,274.750 379.691,277.500 379.025 C 287.069 376.708,288.396 375.212,289.306 365.704 C 289.673 361.866,290.685 359.767,294.367 355.204 C 302.008 345.734,308.240 335.889,311.235 328.559 C 312.935 324.398,315.959 319.526,318.786 316.395 C 321.378 313.522,324.458 309.895,325.628 308.336 C 326.799 306.776,331.299 303.534,335.628 301.132 C 339.958 298.729,346.425 294.386,350.000 291.480 L 356.500 286.196 365.676 286.348 C 376.526 286.528,378.208 285.642,384.500 276.442 C 386.700 273.224,391.110 268.610,394.300 266.187 C 399.339 262.361,400.668 260.583,404.425 252.641 C 408.896 243.193,409.870 240.552,412.530 230.678 C 413.987 225.266,414.966 223.998,426.465 212.632 C 440.376 198.881,440.741 198.132,439.608 185.625 C 439.143 180.494,439.320 177.952,440.228 176.727 C 441.026 175.652,445.013 174.265,450.924 173.007 C 464.996 170.014,467.585 167.646,466.623 158.653 C 466.320 155.819,465.643 148.812,465.119 143.083 C 464.595 137.354,463.614 130.693,462.939 128.280 C 461.697 123.848,455.281 115.740,450.163 112.138 C 447.101 109.983,438.207 108.850,432.815 109.928 M208.739 241.717 C 209.255 243.266,196.014 253.000,193.391 253.000 C 190.859 253.000,189.594 250.547,190.912 248.192 C 191.832 246.548,205.684 240.032,207.438 240.419 C 207.953 240.532,208.539 241.116,208.739 241.717 " style="stroke: none; fill: black;">
                    </path></svg>