<svg id="svg-path" width="100%" height="100%" viewBox="0 0 512 512" version="1.1" xmlns="http://www.w3.org/2000/svg" style="fill-rule:evenodd;clip-rule:evenodd;stroke-linejoin:round;stroke-miterlimit:2;">
                        <path d="M232.435 230.446 C 226.811 233.215,220.974 237.101,216.954 240.751 C 213.404 243.973,208.762 247.665,206.638 248.955 C 200.765 252.523,200.023 255.300,202.147 265.760 C 203.123 270.567,203.939 277.907,203.961 282.072 C 204.024 294.238,206.439 299.819,216.850 311.850 C 224.599 320.805,225.357 321.017,233.449 316.491 L 240.118 312.762 257.809 313.414 C 267.539 313.772,278.284 314.325,281.686 314.643 C 287.380 315.173,288.075 315.015,290.436 312.655 C 292.551 310.540,293.000 309.151,293.000 304.727 C 293.000 295.628,295.362 289.714,300.957 284.809 C 303.659 282.439,306.289 279.375,306.800 278.000 C 307.311 276.625,307.574 270.140,307.384 263.588 C 306.878 246.171,302.152 232.600,295.969 230.813 C 294.611 230.420,287.425 229.578,280.000 228.942 C 272.575 228.305,264.925 227.386,263.000 226.898 C 261.075 226.410,255.441 226.009,250.481 226.006 C 241.823 226.000,241.100 226.178,232.435 230.446 " style="stroke: none; fill: black;">
                    </path></svg>