<svg id="svg-path" width="100%" height="100%" viewBox="0 0 512 512" version="1.1" xmlns="http://www.w3.org/2000/svg" style="fill-rule:evenodd;clip-rule:evenodd;stroke-linejoin:round;stroke-miterlimit:2;">
                        <path d="M266.748 138.750 C 262.594 143.404,264.511 147.856,273.138 153.592 C 281.680 159.270,287.561 160.439,290.883 157.117 C 295.648 152.352,291.517 145.498,280.657 140.152 C 273.461 136.609,269.055 136.165,266.748 138.750 M230.388 139.285 C 228.113 140.594,219.073 151.126,217.164 154.693 C 215.535 157.737,215.714 162.685,217.636 167.717 C 219.150 171.682,219.150 172.318,217.636 176.283 C 216.736 178.639,216.000 182.414,216.000 184.671 C 216.000 188.444,216.604 189.378,223.500 196.274 C 228.021 200.795,231.000 204.600,231.000 205.852 C 231.000 208.393,226.446 213.726,221.132 217.409 C 215.314 221.441,214.288 224.694,216.516 232.052 C 218.011 236.989,218.120 238.657,217.158 241.866 C 215.366 247.849,215.767 252.373,218.590 257.993 C 220.923 262.637,221.053 263.465,219.896 266.325 C 219.189 268.071,215.332 273.054,211.323 277.397 C 202.435 287.029,201.612 289.745,205.390 296.972 C 208.256 302.454,208.563 305.087,206.891 309.882 C 205.258 314.567,207.284 318.421,213.906 323.227 C 216.983 325.460,220.686 328.382,222.136 329.721 C 225.674 332.989,229.989 332.540,231.814 328.714 C 233.860 324.426,232.353 320.232,226.544 314.045 C 216.540 303.393,215.727 299.992,221.468 292.828 C 231.369 280.473,239.000 266.795,239.000 261.404 C 239.000 258.892,237.573 255.665,234.000 250.095 C 227.885 240.562,227.658 237.818,232.491 231.828 C 242.645 219.242,241.771 221.706,241.740 205.761 C 241.711 190.185,241.318 188.670,235.411 181.375 C 228.421 172.742,228.485 169.922,235.854 161.832 C 245.012 151.780,246.136 146.751,240.429 141.368 C 236.682 137.835,233.911 137.260,230.388 139.285 M287.854 174.024 C 283.739 176.188,278.124 184.458,277.293 189.580 C 276.999 191.396,277.531 195.279,278.494 198.343 C 279.698 202.169,280.011 205.163,279.524 208.172 C 278.666 213.464,278.666 222.612,279.524 230.079 L 280.165 235.658 275.223 241.079 C 269.563 247.288,264.000 256.615,264.000 259.897 C 264.000 265.238,268.751 268.806,273.472 267.011 C 277.382 265.524,281.301 261.162,286.960 252.000 C 289.847 247.325,293.962 241.598,296.105 239.272 C 301.448 233.473,301.300 230.530,295.000 217.306 C 291.785 210.557,290.007 205.507,290.019 203.156 C 290.031 200.864,291.707 196.143,294.512 190.500 C 299.432 180.605,299.859 178.215,297.250 175.198 C 294.669 172.212,291.945 171.872,287.854 174.024 M269.140 281.080 C 266.840 283.549,266.227 289.637,267.965 292.764 C 268.496 293.719,269.809 296.532,270.883 299.016 C 271.958 301.500,274.027 304.816,275.482 306.386 C 277.753 308.837,278.650 309.158,281.814 308.655 C 286.660 307.885,291.000 303.172,291.000 298.680 C 291.000 292.171,281.119 280.380,274.805 279.356 C 271.968 278.895,270.862 279.232,269.140 281.080 M260.000 313.557 C 257.525 314.338,254.262 316.126,252.750 317.529 C 246.917 322.942,250.645 331.110,258.262 329.606 C 263.862 328.499,275.129 323.828,275.684 322.381 C 276.586 320.031,275.083 316.101,272.682 314.527 C 269.270 312.292,265.033 311.968,260.000 313.557 M284.000 330.713 C 281.677 331.574,270.725 339.513,268.598 341.878 C 265.689 345.113,266.267 349.953,269.955 353.250 C 271.647 354.762,274.158 356.000,275.536 356.000 C 278.994 356.000,295.493 347.562,297.423 344.806 C 302.832 337.084,293.436 327.219,284.000 330.713 M197.008 340.492 C 193.570 344.151,193.936 348.292,198.083 352.656 C 202.607 357.417,209.260 360.466,211.965 359.019 C 216.612 356.532,217.266 350.328,213.471 344.743 C 208.828 337.910,201.267 335.957,197.008 340.492 M232.314 339.950 C 228.395 342.340,227.000 344.814,227.000 349.376 C 227.000 352.156,228.036 354.068,231.997 358.594 C 237.351 364.712,238.658 368.074,241.487 383.000 C 242.373 387.675,243.520 393.525,244.036 396.000 C 244.553 398.475,245.254 402.525,245.595 405.000 C 247.316 417.475,251.025 424.006,256.385 423.996 C 259.715 423.990,264.882 420.319,265.603 417.445 C 266.359 414.434,265.619 405.993,263.592 394.500 C 259.036 368.664,258.660 364.783,259.883 356.220 C 260.921 348.954,260.862 347.511,259.398 344.426 C 257.018 339.412,253.588 337.999,243.800 338.004 C 237.346 338.007,234.791 338.440,232.314 339.950 " style="stroke: none; fill: black;">
                    </path></svg>