<svg id="svg-path" width="100%" height="100%" viewBox="0 0 512 512" version="1.1" xmlns="http://www.w3.org/2000/svg" style="fill-rule:evenodd;clip-rule:evenodd;stroke-linejoin:round;stroke-miterlimit:2;">
                        <path d="M230.500 84.658 C 223.658 88.169,221.320 90.506,217.656 97.500 C 214.771 103.006,214.513 104.282,214.517 113.000 C 214.522 122.241,214.624 122.664,218.272 128.500 C 221.184 133.158,221.886 135.136,221.411 137.346 C 220.962 139.435,221.681 141.931,224.110 146.717 L 227.421 153.241 224.729 155.556 C 219.157 160.350,205.915 159.536,203.915 154.277 C 203.367 152.835,203.135 151.091,203.399 150.402 C 204.357 147.905,201.892 141.975,199.200 140.306 C 192.757 136.309,192.000 135.054,192.000 128.375 C 192.000 124.923,192.504 119.748,193.120 116.875 C 194.713 109.449,192.916 102.020,188.289 96.898 C 185.147 93.420,184.261 93.000,180.068 93.000 C 175.649 93.000,175.238 93.232,173.184 96.886 C 170.561 101.553,170.270 109.680,172.500 116.000 C 174.990 123.056,174.421 129.108,170.358 138.807 C 163.933 154.141,164.663 166.466,172.601 176.673 C 179.059 184.977,202.161 200.754,208.310 201.059 C 208.965 201.091,211.525 202.104,214.000 203.309 C 217.576 205.050,219.064 206.614,221.250 210.929 C 224.650 217.643,224.702 221.392,221.500 229.000 C 217.984 237.354,218.004 247.582,221.551 255.330 C 224.006 260.693,224.040 261.022,222.448 264.101 C 221.538 265.860,216.380 271.941,210.985 277.613 C 205.591 283.285,199.737 289.932,197.976 292.384 C 195.899 295.275,192.693 297.951,188.849 300.000 C 184.989 302.057,181.997 304.558,180.265 307.175 C 178.803 309.385,174.900 313.031,171.591 315.278 C 155.668 326.091,140.181 342.570,133.908 355.377 C 131.190 360.925,124.611 367.158,118.000 370.448 C 115.525 371.679,109.450 373.438,104.500 374.355 C 96.372 375.862,95.024 375.877,90.591 374.512 C 84.294 372.572,79.032 372.589,76.223 374.557 C 74.504 375.760,74.000 377.102,74.000 380.472 C 74.000 384.375,74.463 385.238,78.443 388.741 C 85.023 394.532,110.430 403.813,122.217 404.730 C 127.329 405.127,128.175 404.911,130.217 402.684 C 132.543 400.147,134.384 396.768,137.487 389.337 C 139.748 383.922,144.173 379.766,151.000 376.646 C 154.025 375.263,159.200 371.964,162.500 369.313 C 165.800 366.663,173.225 361.418,179.000 357.657 C 184.775 353.897,194.000 347.881,199.500 344.288 C 210.638 337.012,223.951 330.423,237.500 325.481 C 242.450 323.676,248.864 321.164,251.753 319.900 C 256.648 317.757,257.418 317.686,263.080 318.856 C 274.929 321.303,292.564 332.632,307.121 347.148 C 312.442 352.455,318.035 358.980,319.549 361.648 C 325.450 372.048,328.639 376.695,333.268 381.639 C 336.229 384.801,338.936 389.032,340.307 392.639 C 342.433 398.228,342.838 398.646,349.052 401.649 C 357.429 405.698,367.970 416.534,370.437 423.634 C 373.712 433.058,375.286 435.476,378.379 435.829 C 383.699 436.437,407.241 424.683,414.710 417.691 C 416.475 416.038,419.161 412.314,420.679 409.414 C 423.362 404.290,423.388 404.086,421.616 402.128 C 418.827 399.047,415.130 398.719,408.580 400.972 C 402.245 403.152,390.974 403.701,386.613 402.043 C 385.229 401.517,383.344 399.604,382.425 397.793 C 381.506 395.982,377.731 391.350,374.035 387.500 C 365.519 378.630,362.915 374.444,359.038 363.397 C 352.949 346.048,350.494 340.847,345.876 335.513 C 342.305 331.388,341.088 329.075,340.530 325.350 C 339.583 319.035,337.884 315.912,333.633 312.669 C 329.964 309.871,326.657 302.727,325.005 294.034 C 324.531 291.540,322.536 286.250,320.571 282.278 C 316.502 274.048,316.355 272.721,318.696 265.295 C 320.162 260.645,320.230 258.966,319.196 252.938 C 318.538 249.102,318.000 243.678,318.000 240.885 C 318.000 238.093,317.296 233.385,316.435 230.425 C 315.574 227.464,315.012 223.586,315.185 221.806 C 315.544 218.116,316.626 217.593,331.000 214.169 C 342.796 211.359,348.128 208.855,352.594 204.029 C 359.151 196.941,359.445 195.686,359.511 174.500 C 359.573 154.301,359.248 156.034,364.735 146.619 C 366.980 142.769,366.212 139.366,362.000 134.500 C 358.377 130.314,358.000 129.359,358.000 124.373 C 358.000 117.034,356.811 115.000,352.522 115.000 C 348.138 115.000,346.007 117.921,345.978 123.973 C 345.966 126.463,345.016 130.525,343.866 133.000 C 342.238 136.507,341.783 139.434,341.805 146.267 L 341.834 155.035 335.417 161.547 C 331.888 165.129,329.000 168.486,329.000 169.007 C 329.000 169.528,327.887 170.683,326.527 171.574 C 324.119 173.152,323.784 173.026,313.777 166.771 C 296.621 156.047,298.125 156.559,283.670 156.528 C 272.143 156.503,270.696 156.303,269.420 154.559 C 267.255 151.600,267.653 149.847,272.024 143.084 C 277.455 134.681,282.000 121.344,282.000 113.808 C 282.000 107.766,278.208 96.068,274.054 89.301 C 271.455 85.065,266.250 83.674,256.165 84.521 C 250.280 85.015,247.636 84.797,244.782 83.582 C 239.671 81.407,236.350 81.657,230.500 84.658 " style="stroke: none; fill: black;">
                    </path></svg>