<svg id="svg-path" width="100%" height="100%" viewBox="0 0 512 512" version="1.1" xmlns="http://www.w3.org/2000/svg" style="fill-rule:evenodd;clip-rule:evenodd;stroke-linejoin:round;stroke-miterlimit:2;">
                        <path d="M246.169 27.135 C 243.112 27.851,240.318 29.627,236.669 33.174 C 233.826 35.937,229.108 40.258,226.183 42.777 C 217.079 50.620,215.755 55.639,219.507 68.086 C 220.902 72.714,222.695 78.832,223.492 81.683 C 224.288 84.534,226.781 89.874,229.031 93.550 C 234.172 101.949,235.319 108.681,232.150 111.850 C 230.995 113.005,228.802 114.192,227.275 114.488 C 225.749 114.785,220.688 116.247,216.029 117.738 C 206.564 120.767,201.978 124.141,198.814 130.405 C 197.676 132.657,194.796 136.599,192.413 139.164 C 187.350 144.614,186.313 147.763,187.869 152.957 C 189.847 159.558,189.291 161.821,183.854 169.295 C 178.769 176.287,172.021 188.746,171.978 191.222 C 171.966 191.925,171.022 194.525,169.880 197.000 C 168.738 199.475,165.375 208.435,162.406 216.910 C 159.437 225.386,155.508 235.061,153.674 238.410 C 151.841 241.760,150.061 245.591,149.718 246.925 C 148.822 250.415,150.796 258.506,153.039 260.535 C 155.507 262.769,160.901 261.994,165.046 258.810 C 174.329 251.679,173.486 253.495,173.622 240.337 C 173.768 226.114,174.311 224.544,185.282 206.619 C 189.619 199.534,194.527 191.209,196.190 188.119 C 200.874 179.416,207.853 169.261,210.676 167.041 C 212.439 165.654,213.723 165.305,214.817 165.917 C 216.775 167.013,219.559 178.245,221.057 191.097 C 222.060 199.704,221.959 201.690,220.080 210.365 C 218.927 215.685,217.036 222.779,215.876 226.129 C 214.052 231.399,213.736 234.873,213.531 251.861 C 213.272 273.416,211.495 306.346,209.972 317.822 C 208.589 328.238,208.767 336.870,210.518 344.420 C 211.811 349.997,211.878 354.031,210.971 371.732 C 210.386 383.154,209.481 395.531,208.959 399.236 C 207.710 408.109,199.369 427.549,194.471 433.000 C 191.105 436.746,190.653 439.350,192.889 442.111 C 194.530 444.136,195.715 444.500,200.663 444.500 C 203.873 444.500,207.120 444.900,207.878 445.388 C 208.991 446.106,209.153 449.359,208.719 462.388 C 207.913 486.641,209.012 491.218,215.266 489.648 C 218.667 488.795,218.893 487.429,219.486 464.171 C 219.758 453.540,220.212 444.466,220.495 444.008 C 220.779 443.549,221.411 439.224,221.900 434.397 C 222.712 426.394,223.055 425.394,225.794 423.060 C 230.383 419.150,230.968 417.239,229.336 411.500 C 226.771 402.484,226.686 397.986,228.903 388.500 C 230.060 383.550,231.627 377.925,232.384 376.000 C 233.142 374.075,234.730 369.125,235.913 365.000 C 240.358 349.496,240.312 349.594,243.923 347.791 C 249.073 345.221,250.325 343.526,251.716 337.242 C 252.824 332.240,254.861 315.664,254.964 310.821 C 255.013 308.542,258.033 305.633,259.170 306.770 C 260.171 307.771,261.222 313.299,263.459 329.324 C 264.467 336.541,266.128 343.040,268.444 348.824 C 272.730 359.530,273.593 363.370,275.081 378.339 C 276.612 393.743,275.780 401.831,271.890 409.338 C 268.509 415.865,268.662 417.466,273.331 424.346 C 275.763 427.929,275.937 428.946,275.909 439.345 C 275.892 445.480,275.464 455.743,274.957 462.151 C 274.213 471.557,274.319 474.735,275.507 478.651 C 276.316 481.318,276.983 485.188,276.989 487.250 C 277.000 491.078,279.692 495.000,282.309 495.000 C 286.975 495.000,289.332 484.371,286.330 476.867 C 284.894 473.278,284.801 471.456,285.688 464.295 C 286.800 455.323,287.929 453.548,293.281 452.357 C 297.544 451.408,300.280 447.308,299.484 443.061 C 299.123 441.141,298.247 438.429,297.537 437.035 C 296.826 435.641,295.481 430.900,294.548 426.500 C 292.643 417.519,292.750 398.889,294.791 384.000 C 295.432 379.325,296.401 371.225,296.945 366.000 C 298.006 355.793,298.630 354.719,305.732 350.872 C 309.597 348.778,310.174 345.346,308.704 333.183 C 307.772 325.468,307.868 321.514,309.262 310.183 C 310.697 298.514,310.803 293.136,309.979 273.638 C 309.448 261.064,308.584 249.139,308.059 247.138 C 305.084 235.801,303.771 228.279,302.557 215.618 C 301.729 206.987,300.379 199.168,299.084 195.500 C 297.025 189.669,293.935 177.438,292.559 169.674 C 291.708 164.873,293.138 163.000,297.655 163.000 C 304.457 163.000,308.125 165.652,322.586 181.029 C 325.933 184.588,334.277 192.900,341.129 199.500 C 347.980 206.100,354.650 213.300,355.952 215.500 C 357.253 217.700,359.339 220.625,360.587 222.000 C 361.835 223.375,364.026 226.839,365.455 229.698 C 368.056 234.902,372.090 239.000,374.612 239.000 C 376.553 239.000,379.159 234.575,380.083 229.709 C 381.480 222.346,379.679 218.353,371.189 210.000 C 366.997 205.875,362.877 201.517,362.033 200.315 C 361.190 199.113,357.787 194.388,354.470 189.815 C 351.154 185.242,347.258 179.466,345.812 176.979 C 344.367 174.492,338.193 167.706,332.092 161.898 C 321.055 151.391,321.000 151.315,321.000 146.660 C 321.000 142.405,320.523 141.463,315.715 136.234 C 312.808 133.072,309.022 128.439,307.302 125.939 C 302.842 119.457,297.841 116.390,288.000 114.102 C 283.325 113.015,278.421 111.985,277.102 111.813 C 272.818 111.254,272.399 108.894,275.338 101.875 C 276.806 98.369,278.415 92.509,278.914 88.852 C 279.857 81.936,280.482 80.326,284.554 74.325 C 286.627 71.271,287.000 69.541,287.000 62.995 C 287.000 56.150,286.597 54.463,283.465 48.203 C 275.700 32.682,260.100 23.869,246.169 27.135 " style="stroke: none; fill: black;">
                    </path></svg>