<svg id="svg-path" width="100%" height="100%" viewBox="0 0 512 512" version="1.1" xmlns="http://www.w3.org/2000/svg" style="fill-rule:evenodd;clip-rule:evenodd;stroke-linejoin:round;stroke-miterlimit:2;">
                        <path d="M212.500 113.572 C 205.290 116.152,203.806 117.382,201.441 122.730 C 199.344 127.471,198.796 128.000,195.981 128.000 C 193.553 128.000,191.558 126.766,187.085 122.500 C 179.546 115.309,176.971 115.191,167.382 121.601 C 153.151 131.114,146.000 138.623,146.000 144.051 C 146.000 145.564,147.121 149.209,148.490 152.151 C 150.654 156.799,150.982 158.906,150.990 168.239 C 150.998 176.469,151.458 180.185,152.961 184.141 C 154.040 186.980,155.228 191.336,155.600 193.821 C 155.973 196.306,157.361 201.005,158.685 204.262 C 160.502 208.736,160.818 210.515,159.973 211.533 C 158.552 213.245,156.755 212.557,150.311 207.832 C 142.980 202.456,139.573 197.751,140.479 194.252 C 142.625 185.963,141.566 168.594,138.811 166.876 C 138.090 166.426,135.475 165.797,133.000 165.478 C 130.525 165.159,127.719 164.471,126.764 163.949 C 122.578 161.662,118.651 164.133,116.070 170.678 C 115.381 172.425,113.958 174.633,112.909 175.583 C 111.859 176.533,111.000 177.900,111.000 178.621 C 111.000 182.454,119.055 195.580,127.690 205.818 C 135.541 215.126,136.334 217.058,135.501 224.838 C 134.817 231.224,136.116 253.959,138.024 269.000 C 138.547 273.125,139.453 285.050,140.037 295.500 C 140.621 305.950,141.559 321.025,142.122 329.000 C 144.794 366.867,144.898 370.227,143.525 374.425 C 142.793 376.666,141.899 381.444,141.539 385.043 C 140.964 390.800,141.125 391.803,142.882 393.394 C 144.438 394.802,145.943 395.086,149.690 394.680 C 162.954 393.245,171.868 392.131,175.290 391.481 C 180.810 390.434,183.000 392.720,183.000 399.529 C 183.000 402.400,182.325 406.662,181.500 409.000 C 179.713 414.065,179.596 419.255,181.122 425.736 C 184.285 439.162,187.099 443.392,195.523 447.381 C 200.734 449.848,201.260 449.917,204.022 448.489 C 205.641 447.651,207.603 445.736,208.382 444.233 C 209.161 442.730,211.652 439.786,213.918 437.692 C 216.442 435.359,219.841 430.324,222.694 424.692 C 227.070 416.050,227.366 414.961,227.639 406.500 C 228.007 395.107,228.456 393.379,231.239 392.633 C 235.865 391.394,263.787 392.008,272.619 393.544 C 284.035 395.529,285.100 396.508,282.190 402.335 C 279.442 407.836,279.407 413.277,282.043 424.671 C 285.502 439.623,287.381 442.750,295.939 447.795 C 299.563 449.931,301.637 450.412,307.234 450.412 L 314.089 450.412 319.420 444.456 C 326.407 436.649,328.672 430.361,327.114 423.094 C 326.501 420.238,326.000 415.546,326.000 412.666 C 326.000 407.948,325.713 407.262,323.095 405.715 C 319.825 403.784,315.000 396.234,315.000 393.050 C 315.000 388.049,325.193 388.035,327.723 393.034 C 328.409 394.390,328.977 397.863,328.985 400.751 C 329.000 405.836,329.182 406.175,334.750 411.471 C 342.602 418.940,349.175 420.537,371.144 420.318 C 388.445 420.145,392.213 419.143,394.140 414.202 C 395.597 410.467,394.628 346.876,393.034 341.670 C 391.539 336.784,389.010 335.705,373.987 333.542 C 365.233 332.281,361.398 332.131,357.987 332.917 C 355.519 333.486,350.929 333.962,347.788 333.976 C 341.552 334.002,332.210 336.999,329.718 339.771 C 328.470 341.160,328.099 344.906,327.832 358.832 C 327.530 374.619,327.327 376.291,325.559 377.582 C 322.854 379.558,319.297 379.350,317.394 377.106 C 310.479 368.948,310.567 369.000,303.550 369.000 C 299.919 369.000,293.298 369.946,288.838 371.102 C 282.496 372.746,279.305 373.052,274.198 372.505 C 264.347 371.450,263.251 370.697,262.733 364.628 C 262.492 361.808,261.104 354.775,259.647 349.000 C 254.412 328.246,254.000 326.077,254.020 319.336 C 254.031 315.576,254.494 309.575,255.049 306.000 C 255.604 302.425,256.329 297.025,256.661 294.000 C 257.246 288.666,259.161 285.023,261.405 284.978 C 262.007 284.966,266.058 282.738,270.406 280.026 C 276.787 276.048,278.678 275.293,280.209 276.112 C 282.762 277.478,287.992 285.941,291.572 294.498 C 294.922 302.504,302.035 313.796,307.111 319.165 C 312.061 324.401,315.655 324.809,332.000 321.986 C 339.425 320.703,347.649 319.361,350.276 319.003 C 352.903 318.645,356.278 317.436,357.776 316.318 C 360.229 314.485,360.506 313.648,360.565 307.892 C 360.616 302.784,361.251 300.295,363.727 295.500 C 369.172 284.954,379.447 277.114,402.344 266.035 C 416.422 259.223,420.154 256.533,421.447 252.267 C 422.300 249.453,418.180 245.000,414.724 245.000 C 412.263 245.000,404.105 247.385,400.323 249.209 C 398.992 249.851,395.882 249.979,392.323 249.537 C 389.120 249.140,384.025 248.744,381.000 248.658 L 375.500 248.500 373.072 253.500 C 371.736 256.250,370.191 259.525,369.638 260.777 C 368.225 263.978,360.685 268.712,355.698 269.530 C 351.532 270.214,340.088 275.199,334.684 278.684 C 331.941 280.453,331.830 280.449,330.363 278.500 C 328.631 276.200,328.883 265.690,331.034 250.500 C 332.246 241.936,332.193 241.113,329.928 233.500 C 327.647 225.833,327.161 225.107,318.274 216.062 C 313.173 210.871,309.000 206.114,309.000 205.492 C 309.000 203.655,302.155 196.200,297.660 193.142 C 295.372 191.585,290.350 189.492,286.500 188.491 C 277.800 186.229,275.814 185.264,264.000 177.567 C 258.775 174.163,252.282 170.439,249.571 169.291 C 241.323 165.799,234.000 159.057,234.000 154.956 C 234.000 154.433,235.556 152.283,237.458 150.178 C 239.360 148.073,241.385 145.117,241.958 143.610 C 243.366 139.906,243.277 129.743,241.806 126.297 C 239.653 121.253,231.801 115.347,224.384 113.195 C 219.276 111.712,217.544 111.767,212.500 113.572 M194.225 229.028 C 198.138 230.693,204.426 232.493,208.198 233.028 C 212.399 233.624,217.857 235.369,222.279 237.530 C 234.798 243.649,235.904 247.149,227.686 254.650 C 224.764 257.317,220.753 260.607,218.774 261.959 C 214.312 265.008,210.000 271.494,210.000 275.155 C 210.000 276.670,211.130 280.967,212.512 284.705 C 213.893 288.442,215.911 295.401,216.996 300.168 C 219.525 311.285,220.349 312.939,224.960 316.158 C 229.371 319.237,233.176 326.526,234.988 335.369 C 236.633 343.395,235.617 349.229,231.933 352.913 C 228.590 356.256,219.285 360.965,215.812 361.070 C 211.816 361.192,209.782 362.510,208.112 366.061 C 206.709 369.042,205.961 369.536,202.497 369.767 C 195.393 370.240,194.098 370.887,191.992 375.016 C 189.723 379.463,186.143 380.418,183.807 377.200 C 180.684 372.897,177.915 372.000,167.756 372.000 C 158.527 372.000,157.905 371.869,157.059 369.750 C 155.054 364.730,153.827 354.489,152.953 335.500 C 151.724 308.771,150.318 288.232,149.050 278.500 C 148.477 274.100,147.538 262.435,146.963 252.577 C 145.707 231.041,146.010 230.163,153.229 234.394 C 159.788 238.238,163.952 237.879,172.305 232.750 C 182.690 226.373,183.352 226.031,185.305 226.015 C 186.297 226.007,190.311 227.362,194.225 229.028 M238.066 374.035 C 241.017 375.615,240.587 379.826,237.349 381.058 C 231.355 383.336,226.272 378.025,231.166 374.597 C 233.824 372.735,235.397 372.607,238.066 374.035 M206.368 384.115 C 207.183 385.278,207.626 386.812,207.353 387.523 C 206.626 389.416,201.475 391.286,199.080 390.525 C 196.778 389.795,194.000 387.320,194.000 386.000 C 194.000 381.939,203.798 380.446,206.368 384.115 M310.101 403.750 C 316.561 407.977,317.957 410.239,318.735 417.742 C 319.254 422.748,318.022 428.011,314.754 434.750 C 312.587 439.217,303.312 439.733,297.812 435.691 C 293.113 432.237,288.720 418.196,290.340 411.803 C 291.379 407.701,299.609 400.323,303.434 400.063 C 303.948 400.029,306.948 401.688,310.101 403.750 M216.348 406.941 C 216.141 414.356,210.238 425.803,203.810 431.250 C 198.364 435.866,196.179 435.695,193.680 430.456 C 190.643 424.087,192.078 407.225,196.067 402.419 C 197.036 401.251,199.366 400.992,206.901 401.216 L 216.500 401.500 216.348 406.941 " style="stroke: none; fill: black;">
                    </path></svg>