<svg id="svg-path" width="100%" height="100%" viewBox="0 0 512 512" version="1.1" xmlns="http://www.w3.org/2000/svg" style="fill-rule:evenodd;clip-rule:evenodd;stroke-linejoin:round;stroke-miterlimit:2;">
                        <path d="M246.000 37.883 C 240.724 39.037,234.353 42.643,230.209 46.821 C 222.121 54.973,219.497 65.859,222.435 79.065 C 224.248 87.214,223.648 91.076,220.298 92.808 C 219.309 93.319,214.675 93.986,210.000 94.290 C 204.287 94.662,199.422 95.675,195.162 97.382 C 191.675 98.778,186.208 100.217,183.012 100.578 C 177.527 101.199,177.105 101.090,175.505 98.648 C 172.927 94.714,174.297 78.316,177.611 73.432 C 181.807 67.248,183.000 64.191,183.000 59.621 C 183.000 53.697,181.201 52.000,174.919 52.000 C 171.202 52.000,169.550 52.500,168.240 54.023 C 166.368 56.198,162.173 69.267,158.937 83.000 C 157.836 87.675,156.499 93.127,155.967 95.116 C 155.435 97.105,155.000 102.307,155.000 106.677 C 155.000 113.420,155.325 114.972,157.145 116.925 C 160.519 120.547,166.883 122.954,173.150 122.978 C 178.735 123.000,178.858 123.065,184.000 128.690 C 188.760 133.898,189.147 134.681,188.578 137.940 C 188.235 139.898,187.674 145.325,187.331 150.000 L 186.708 158.500 181.953 163.000 C 174.834 169.737,173.869 172.363,173.353 186.396 C 173.107 193.053,172.503 200.075,172.010 202.000 C 166.651 222.919,163.950 236.298,163.027 246.500 C 162.564 251.626,161.144 257.553,159.074 263.000 C 157.298 267.675,155.420 273.075,154.901 275.000 C 152.531 283.801,151.868 286.089,149.070 295.121 C 146.541 303.288,146.246 305.307,147.122 308.479 C 148.647 314.001,146.859 317.139,138.637 323.371 C 128.667 330.928,126.108 332.008,114.649 333.499 C 102.523 335.076,100.079 336.947,99.883 344.806 C 99.818 347.388,99.480 354.000,99.133 359.500 L 98.500 369.500 91.500 370.190 C 79.655 371.358,75.802 372.538,72.778 375.922 C 71.250 377.632,70.000 379.858,70.000 380.869 C 70.000 381.880,68.875 385.808,67.500 389.599 C 66.125 393.390,65.000 397.976,65.000 399.791 C 65.000 403.482,61.297 408.000,58.272 408.000 C 57.272 408.000,52.864 409.490,48.477 411.311 C 41.093 414.376,40.321 414.978,38.098 419.406 C 35.403 424.774,30.308 453.107,31.316 457.120 C 32.039 460.001,36.011 462.132,46.000 465.001 C 50.125 466.186,56.425 468.067,60.000 469.181 C 69.233 472.059,85.008 476.649,88.242 477.398 C 89.808 477.761,92.444 477.424,94.390 476.610 C 99.494 474.478,108.222 459.242,110.493 448.500 C 111.423 444.100,112.830 439.485,113.619 438.244 C 114.914 436.209,115.579 436.051,120.447 436.623 C 129.146 437.645,130.046 437.087,134.684 427.787 C 138.891 419.354,140.537 414.130,143.751 399.016 C 145.912 388.853,146.956 388.037,157.816 388.015 C 161.839 388.007,165.988 387.542,167.034 386.982 C 170.001 385.394,173.739 378.090,174.923 371.566 C 176.050 365.356,176.387 342.042,175.402 338.372 C 174.694 335.733,171.069 334.005,166.203 333.985 C 160.286 333.960,159.653 332.963,162.773 328.581 C 164.785 325.755,165.631 323.150,166.000 318.644 L 166.500 312.538 172.146 309.836 C 177.943 307.062,181.000 303.926,181.000 300.755 C 181.000 299.765,182.718 297.053,184.818 294.728 C 192.006 286.769,194.412 282.549,201.579 265.331 C 203.450 260.837,206.785 253.273,208.990 248.521 C 211.196 243.770,213.000 239.528,213.000 239.096 C 213.000 237.607,216.662 235.000,218.752 235.000 C 219.904 235.000,222.119 236.060,223.673 237.356 C 225.228 238.652,232.575 243.769,240.000 248.727 C 254.101 258.143,262.979 266.488,270.500 277.395 C 279.202 290.014,288.710 298.000,295.032 298.000 C 298.447 298.000,300.908 299.845,302.466 303.572 C 304.273 307.898,309.279 310.291,314.747 309.442 C 319.202 308.751,322.466 310.622,321.445 313.283 C 321.080 314.234,317.291 316.828,313.026 319.047 C 307.333 322.009,304.785 323.983,303.446 326.470 C 301.639 329.827,301.648 329.936,304.425 338.179 C 307.420 347.072,317.824 366.354,321.188 369.250 C 323.622 371.345,328.065 371.469,333.453 369.594 C 338.484 367.843,339.630 368.330,341.086 372.838 C 343.484 380.259,355.205 398.196,362.553 405.691 C 367.021 410.248,369.862 410.667,376.298 407.721 C 380.090 405.985,382.188 405.526,383.350 406.176 C 384.260 406.685,386.892 410.541,389.199 414.744 C 391.506 418.948,396.000 425.562,399.187 429.443 C 409.982 442.590,409.255 442.000,414.650 442.000 C 420.284 442.000,424.065 440.198,436.217 431.723 C 440.773 428.545,451.025 421.411,459.000 415.868 C 479.562 401.577,478.533 403.045,472.220 397.024 C 469.349 394.286,467.000 391.433,467.000 390.685 C 467.000 388.434,458.548 377.007,449.259 366.700 C 445.535 362.567,437.333 358.686,433.852 359.408 C 424.461 361.357,425.541 361.717,421.207 355.192 C 413.934 344.242,404.907 334.267,399.712 331.440 C 395.193 328.980,394.434 328.853,390.791 329.944 C 385.782 331.445,384.101 330.153,381.198 322.566 C 378.711 316.066,369.585 301.151,366.639 298.772 C 365.463 297.822,363.059 297.034,361.297 297.022 C 358.216 297.001,356.598 297.498,349.048 300.783 C 346.232 302.009,345.034 302.063,342.548 301.077 C 340.871 300.413,337.109 299.222,334.187 298.431 C 327.803 296.703,320.155 293.354,317.750 291.233 C 316.672 290.282,316.000 288.258,316.000 285.959 C 316.000 281.597,314.638 278.706,309.357 271.857 C 303.295 263.995,286.552 245.930,279.898 240.073 C 276.570 237.144,273.114 233.117,272.218 231.124 C 270.728 227.810,265.178 219.093,259.690 211.449 C 258.486 209.771,256.689 205.721,255.698 202.449 C 251.745 189.394,250.809 186.776,247.951 180.757 C 246.317 177.316,244.113 173.150,243.054 171.500 C 241.401 168.925,241.275 167.863,242.165 164.000 C 244.277 154.834,245.473 151.646,248.232 147.839 C 251.022 143.987,251.119 143.947,256.037 144.599 C 260.423 145.181,261.486 144.935,264.947 142.537 L 268.877 139.813 275.188 142.322 C 283.528 145.637,289.604 146.452,295.071 144.987 C 298.587 144.045,301.259 142.018,308.036 135.150 C 312.731 130.393,318.696 123.084,321.291 118.909 C 331.258 102.873,329.466 87.000,317.688 87.000 C 313.595 87.000,312.557 89.388,312.751 98.358 C 312.906 105.516,312.628 106.953,310.450 110.250 C 309.087 112.313,307.636 114.000,307.226 114.000 C 306.815 114.000,305.359 115.017,303.990 116.259 C 298.055 121.644,290.609 127.000,289.057 127.000 C 283.839 127.000,258.000 109.606,258.000 106.094 C 258.000 103.762,261.406 100.768,267.563 97.688 C 273.280 94.829,278.841 89.151,282.149 82.795 C 285.301 76.739,285.289 62.646,282.127 55.808 C 279.376 49.858,273.293 43.689,267.066 40.534 C 261.768 37.849,251.859 36.602,246.000 37.883 " style="stroke: none; fill: black;">
                    </path></svg>