<svg id="svg-path" width="100%" height="100%" viewBox="0 0 512 512" version="1.1" xmlns="http://www.w3.org/2000/svg" style="fill-rule:evenodd;clip-rule:evenodd;stroke-linejoin:round;stroke-miterlimit:2;">
                        <path d="M221.000 142.930 C 213.683 143.486,213.459 143.583,211.802 146.902 C 210.505 149.499,210.242 151.781,210.687 156.547 C 211.476 165.001,210.741 167.276,206.580 169.260 C 199.715 172.534,199.715 172.535,200.921 203.693 C 201.601 221.271,202.609 234.627,203.661 240.000 C 204.577 244.675,205.243 249.850,205.143 251.500 C 204.089 268.819,204.067 277.028,205.012 299.000 C 205.616 313.025,206.148 325.771,206.195 327.325 C 206.375 333.316,207.076 333.219,162.672 333.366 C 123.396 333.496,122.063 333.564,119.382 335.564 C 115.121 338.745,113.123 349.501,113.079 369.500 C 113.039 387.737,114.309 392.643,119.644 394.852 C 125.677 397.351,223.382 394.803,247.000 391.531 C 261.927 389.463,282.918 389.162,325.555 390.406 L 356.609 391.312 358.704 388.649 C 360.458 386.419,360.915 383.984,361.508 373.694 C 361.898 366.933,361.792 355.614,361.271 348.539 C 360.373 336.328,360.188 335.558,357.607 333.338 C 355.459 331.491,353.693 330.994,349.194 330.969 C 346.062 330.952,340.350 330.535,336.500 330.042 C 328.002 328.953,287.837 328.609,279.497 329.553 C 275.085 330.053,272.516 329.825,269.806 328.692 C 265.267 326.796,265.435 327.704,263.957 297.000 C 262.543 267.638,261.633 257.507,259.987 252.796 C 258.885 249.641,258.931 248.456,260.300 244.796 C 261.680 241.107,261.779 238.309,261.003 225.000 C 260.156 210.474,257.734 185.466,256.310 176.544 C 255.447 171.139,252.477 168.457,246.451 167.639 C 243.728 167.270,240.887 166.580,240.138 166.106 C 238.455 165.041,237.101 158.353,237.044 150.821 C 236.994 144.337,235.340 141.900,231.179 142.180 C 229.705 142.279,225.125 142.617,221.000 142.930 " style="stroke: none; fill: black;">
                    </path></svg>