<svg id="svg-path" width="100%" height="100%" viewBox="0 0 512 512" version="1.1" xmlns="http://www.w3.org/2000/svg" style="fill-rule:evenodd;clip-rule:evenodd;stroke-linejoin:round;stroke-miterlimit:2;">
                        <path d="M299.500 64.817 C 290.982 67.994,287.721 70.092,281.482 76.402 C 274.116 83.854,270.666 90.382,268.512 100.943 C 266.987 108.417,266.987 109.583,268.512 117.057 C 270.432 126.472,273.266 132.348,279.783 140.429 C 286.915 149.272,286.670 148.759,284.705 150.723 C 283.024 152.405,282.572 152.356,274.722 149.659 C 266.682 146.896,263.085 145.454,256.000 142.153 C 252.462 140.504,231.452 125.692,207.379 107.876 C 196.493 99.820,193.158 96.701,187.807 89.571 C 180.889 80.352,175.946 76.000,172.395 76.000 C 168.089 76.000,162.365 85.854,163.701 90.964 C 164.212 92.917,178.881 104.336,184.833 107.413 C 186.452 108.251,195.747 116.488,205.487 125.718 C 215.227 134.948,225.619 144.075,228.579 146.000 C 231.540 147.925,236.698 151.300,240.042 153.500 C 243.386 155.700,248.907 159.095,252.311 161.045 C 255.715 162.995,260.790 166.173,263.589 168.107 C 266.388 170.041,269.988 172.180,271.589 172.860 C 276.254 174.840,277.825 178.000,279.105 187.984 C 279.982 194.822,280.003 198.903,279.185 203.846 C 278.580 207.505,277.797 212.434,277.446 214.797 C 276.946 218.165,275.843 220.004,272.346 223.297 C 267.489 227.872,256.750 241.247,253.096 247.274 C 248.777 254.396,250.464 254.179,192.541 255.056 C 163.918 255.489,135.550 256.358,129.500 256.987 C 123.450 257.615,113.325 257.988,107.000 257.815 L 95.500 257.500 84.500 252.057 C 78.450 249.063,71.925 245.598,70.000 244.357 C 68.075 243.116,64.408 241.546,61.850 240.869 C 57.803 239.798,56.863 239.860,54.600 241.342 C 49.376 244.766,51.462 248.329,64.500 258.248 C 72.160 264.075,78.620 270.736,80.794 275.049 C 81.732 276.910,83.993 279.294,85.818 280.347 L 89.135 282.263 95.842 279.631 C 105.384 275.888,111.654 276.062,144.222 280.971 C 148.669 281.641,152.653 283.036,155.996 285.093 L 161.049 288.201 178.774 286.851 C 199.553 285.267,204.284 285.256,221.000 286.746 C 233.946 287.900,252.899 291.846,259.000 294.658 C 264.868 297.363,271.558 302.733,274.390 307.013 C 275.868 309.247,278.457 314.770,280.142 319.287 C 283.079 327.157,283.212 328.189,283.326 344.000 C 283.410 355.651,282.943 363.292,281.736 370.000 C 280.797 375.225,279.909 382.166,279.764 385.424 C 279.501 391.324,279.516 391.360,283.669 394.424 C 285.962 396.116,288.308 398.625,288.883 400.000 C 290.365 403.546,293.826 418.269,298.051 439.000 C 299.097 444.133,298.965 445.056,296.086 452.818 C 294.389 457.393,293.000 462.027,293.000 463.116 C 293.000 466.128,297.130 469.323,304.296 471.853 C 309.582 473.719,311.888 475.312,316.915 480.568 C 324.992 489.015,332.843 492.304,335.960 488.548 C 337.544 486.639,336.565 483.816,332.993 479.992 C 322.792 469.072,319.360 463.477,316.743 453.500 C 315.446 448.559,315.163 440.794,315.139 409.500 C 315.123 388.600,314.892 369.925,314.626 368.000 C 314.360 366.075,313.814 349.357,313.412 330.849 C 312.752 300.474,312.851 296.579,314.430 290.849 C 315.392 287.357,316.964 283.138,317.924 281.472 C 318.885 279.807,320.640 275.251,321.826 271.348 C 323.645 265.358,324.441 264.060,326.928 263.030 C 328.549 262.358,331.653 260.118,333.825 258.052 C 336.210 255.783,339.504 253.857,342.138 253.191 C 346.852 252.000,351.848 248.682,371.034 234.000 C 388.409 220.705,390.002 219.053,389.991 214.350 C 389.981 210.513,386.223 202.716,382.345 198.488 C 368.757 183.671,366.567 180.662,363.609 172.749 C 360.719 165.014,351.974 159.205,340.762 157.571 C 335.728 156.838,332.759 154.792,333.589 152.629 C 333.866 151.907,335.817 150.347,337.924 149.163 C 346.070 144.585,355.070 133.304,358.343 123.572 C 360.566 116.962,360.586 100.797,358.381 94.300 C 356.472 88.680,351.433 80.535,347.157 76.161 C 343.608 72.530,333.705 66.000,331.748 66.000 C 331.007 66.000,329.862 65.462,329.205 64.805 C 328.456 64.056,323.622 63.487,316.255 63.280 C 306.662 63.012,303.580 63.294,299.500 64.817 M358.593 195.216 C 364.302 200.228,370.000 208.516,370.000 211.807 C 370.000 217.316,361.012 227.066,349.648 233.887 C 338.199 240.759,335.769 239.179,338.011 226.324 C 338.665 222.571,339.566 216.269,340.013 212.320 C 340.850 204.914,344.595 195.791,347.796 193.359 C 350.751 191.113,354.693 191.791,358.593 195.216 " style="stroke: none; fill: black;">
                    </path></svg>