<svg id="svg-path" width="100%" height="100%" viewBox="0 0 512 512" version="1.1" xmlns="http://www.w3.org/2000/svg" style="fill-rule:evenodd;clip-rule:evenodd;stroke-linejoin:round;stroke-miterlimit:2;">
                        <path d="M268.231 62.985 C 264.640 64.512,251.539 74.500,249.160 77.524 C 246.355 81.090,246.436 84.033,249.702 97.276 C 253.367 112.142,255.489 110.988,223.500 111.517 C 217.578 111.615,213.812 112.303,209.000 114.167 C 199.370 117.896,183.340 125.886,181.824 127.712 C 180.944 128.772,180.386 133.196,180.161 140.903 C 179.766 154.396,181.509 163.714,185.537 169.649 C 187.852 173.061,188.087 174.180,187.603 179.499 C 186.297 193.852,186.210 193.193,189.700 195.244 C 191.459 196.279,194.723 197.307,196.951 197.528 C 204.379 198.267,203.707 197.257,214.865 224.491 C 217.424 230.738,221.624 234.877,226.702 236.155 C 229.160 236.774,231.413 237.914,231.711 238.688 C 232.008 239.462,231.228 243.686,229.979 248.075 C 228.103 254.661,227.809 257.508,228.295 264.386 C 228.964 273.867,228.406 275.000,223.064 275.000 C 218.229 275.000,210.168 279.281,202.718 285.804 C 199.298 288.799,193.125 293.765,189.000 296.840 C 184.875 299.915,177.900 305.953,173.500 310.257 C 168.221 315.421,162.949 319.429,158.000 322.042 C 153.875 324.220,148.925 327.336,147.000 328.966 C 145.075 330.596,141.488 333.420,139.029 335.243 C 131.043 341.163,131.610 348.132,140.397 352.066 C 144.336 353.830,144.420 353.823,148.439 351.449 C 150.672 350.129,154.750 347.853,157.500 346.390 C 160.250 344.928,165.127 341.541,168.337 338.865 C 171.548 336.189,174.872 334.000,175.723 334.000 C 176.575 334.000,180.923 332.229,185.386 330.065 C 194.522 325.634,207.903 321.642,210.402 322.601 C 214.916 324.333,215.057 330.258,210.750 337.235 C 207.730 342.127,207.488 343.172,207.333 352.000 C 207.241 357.225,207.129 361.990,207.083 362.589 C 206.933 364.561,201.849 366.076,193.611 366.604 C 183.462 367.256,169.983 370.467,163.778 373.711 C 155.911 377.825,151.226 384.539,144.668 401.103 C 143.230 404.735,140.692 410.585,139.028 414.103 C 136.593 419.250,136.001 421.816,136.001 427.234 C 136.000 433.259,135.693 434.313,133.085 437.234 L 130.170 440.500 118.112 441.000 C 107.436 441.443,105.805 441.750,103.877 443.678 C 101.831 445.724,101.778 446.147,103.002 450.678 C 105.342 459.344,109.110 461.791,121.976 462.998 C 140.238 464.711,147.333 462.071,148.540 453.114 C 149.544 445.663,151.009 442.023,155.183 436.604 C 157.346 433.797,162.352 424.980,166.308 417.012 C 171.942 405.662,174.115 402.229,176.341 401.164 C 180.505 399.170,209.245 401.202,218.100 404.116 C 224.544 406.237,227.827 406.272,241.782 404.368 C 244.345 404.018,247.317 404.303,249.186 405.077 C 254.111 407.117,263.589 406.515,274.510 403.468 C 280.004 401.935,284.950 400.360,285.500 399.969 C 288.387 397.915,309.705 394.678,314.626 395.546 C 320.071 396.507,326.464 400.827,333.780 408.488 C 337.233 412.105,345.166 419.789,351.407 425.564 C 361.254 434.675,363.037 436.820,364.886 441.782 C 366.137 445.142,368.113 448.293,369.676 449.424 C 372.265 451.295,372.723 451.303,386.666 449.701 C 394.547 448.795,402.293 447.383,403.878 446.563 C 411.361 442.693,415.112 437.078,413.534 432.106 C 412.743 429.613,408.056 428.000,401.601 427.999 C 394.818 427.997,380.842 425.487,377.239 423.624 C 373.075 421.470,372.312 420.140,371.756 414.068 L 371.259 408.635 358.379 396.017 C 351.296 389.076,343.265 380.534,340.533 377.033 C 336.388 371.724,334.400 370.137,328.533 367.460 C 318.245 362.766,310.488 361.605,297.890 362.871 C 289.251 363.739,287.260 363.677,286.079 362.501 C 284.850 361.278,284.877 360.571,286.271 357.293 C 288.998 350.881,289.172 349.232,287.467 345.935 C 286.211 343.507,285.989 341.404,286.512 336.897 C 287.393 329.309,290.112 325.572,294.163 326.383 C 299.345 327.419,307.676 331.951,321.915 341.478 C 331.803 348.094,337.796 351.400,342.221 352.682 C 347.624 354.246,349.583 355.545,356.262 361.991 C 364.788 370.219,365.801 370.827,371.161 370.930 C 377.858 371.058,382.503 362.081,378.642 356.473 C 377.895 355.388,376.974 352.809,376.595 350.742 C 375.817 346.496,373.654 344.731,367.117 343.007 C 364.706 342.371,359.832 339.627,356.286 336.909 C 352.740 334.192,348.412 331.232,346.669 330.333 C 341.591 327.712,322.219 311.612,307.545 297.816 C 304.220 294.690,300.094 290.986,298.376 289.583 C 293.693 285.762,282.967 281.004,279.000 280.987 C 274.405 280.968,271.243 280.078,270.701 278.651 C 270.460 278.018,271.614 274.125,273.266 270.000 C 276.477 261.977,277.562 250.642,275.380 247.905 C 274.765 247.132,273.728 244.846,273.077 242.824 C 271.245 237.133,265.592 230.465,260.515 228.007 C 255.937 225.791,253.085 225.713,244.181 227.559 C 240.272 228.370,239.787 227.856,233.526 216.274 C 232.716 214.774,232.378 213.253,232.776 212.893 C 233.174 212.533,238.616 212.717,244.869 213.302 C 253.439 214.104,258.364 214.063,264.869 213.133 C 278.858 211.135,284.097 207.566,291.159 195.223 C 296.878 185.226,298.175 190.031,294.973 209.351 C 291.729 228.921,293.308 236.814,300.922 239.095 C 304.387 240.133,305.228 240.022,308.299 238.124 C 314.275 234.431,314.552 232.933,313.689 209.000 C 313.034 190.820,313.566 188.363,319.310 183.068 C 321.857 180.721,325.110 176.708,326.539 174.152 C 328.846 170.023,329.089 168.664,328.714 162.002 C 328.482 157.876,327.754 152.498,327.096 150.051 C 326.107 146.371,326.168 144.781,327.450 140.863 C 329.498 134.603,329.436 133.794,326.464 127.929 C 322.330 119.772,317.090 118.977,310.552 125.514 C 308.635 127.431,306.517 129.000,305.845 129.000 C 303.471 129.000,297.989 124.457,296.435 121.203 C 294.631 117.424,295.064 114.364,298.505 106.585 C 301.628 99.523,302.970 90.083,301.664 84.373 C 300.866 80.885,299.472 78.804,295.506 75.182 C 283.485 64.202,274.655 60.253,268.231 62.985 " style="stroke: none; fill: black;">
                    </path></svg>