<svg id="svg-path" width="100%" height="100%" viewBox="0 0 512 512" version="1.1" xmlns="http://www.w3.org/2000/svg" style="fill-rule:evenodd;clip-rule:evenodd;stroke-linejoin:round;stroke-miterlimit:2;">
                        <path d="M283.502 154.575 C 278.960 156.944,277.000 159.067,277.000 161.620 C 277.000 165.277,279.919 166.162,285.792 164.284 C 291.739 162.382,293.335 163.137,295.754 169.000 C 296.549 170.925,297.787 173.175,298.507 174.000 C 299.226 174.825,300.310 177.363,300.916 179.641 C 302.943 187.257,314.543 191.165,316.531 184.901 C 317.338 182.359,315.683 180.385,310.567 177.793 C 308.330 176.659,306.169 175.229,305.765 174.616 C 305.361 174.002,305.024 170.737,305.015 167.361 C 304.996 159.639,303.611 157.960,294.930 155.137 C 287.100 152.591,287.291 152.600,283.502 154.575 M257.794 167.750 C 256.375 169.262,253.593 173.063,251.611 176.196 C 247.836 182.164,242.477 187.000,239.640 187.000 C 238.722 187.000,235.578 185.650,232.654 184.000 C 226.741 180.663,222.931 180.212,220.571 182.571 C 218.452 184.691,218.570 185.709,221.598 191.396 C 223.828 195.586,224.102 197.027,223.533 201.582 C 222.697 208.270,223.995 211.000,228.010 211.000 C 231.347 211.000,233.240 208.216,234.455 201.518 C 235.643 194.974,236.703 193.700,240.339 194.456 C 248.696 196.192,252.634 193.562,261.115 180.578 C 267.283 171.138,267.779 169.610,265.608 166.750 C 263.688 164.221,260.753 164.597,257.794 167.750 M354.420 166.885 C 350.718 169.143,345.007 175.856,344.983 177.978 C 344.974 178.815,343.352 183.325,341.378 188.000 C 339.405 192.675,337.265 199.620,336.623 203.432 C 335.459 210.351,335.444 210.373,329.478 214.629 C 318.894 222.180,304.801 230.397,295.533 234.423 C 286.743 238.240,286.128 238.357,272.704 238.770 C 265.117 239.003,257.839 238.925,256.532 238.597 C 253.433 237.819,248.434 232.770,245.958 227.918 C 243.509 223.118,240.810 221.496,237.882 223.063 C 236.089 224.023,235.848 224.828,236.313 228.293 C 236.986 233.311,235.687 236.000,232.591 236.000 C 231.304 236.000,228.348 236.672,226.021 237.493 C 222.374 238.779,219.904 238.814,208.145 237.743 C 200.640 237.059,183.250 236.478,169.500 236.451 C 148.407 236.410,143.737 236.132,139.619 234.669 C 135.110 233.067,134.326 233.054,129.353 234.500 C 125.787 235.536,122.325 235.847,119.098 235.419 C 115.151 234.895,112.966 235.276,107.593 237.426 C 101.679 239.792,100.152 240.007,93.513 239.405 L 86.067 238.730 78.806 243.115 C 60.250 254.322,56.255 259.182,58.931 267.292 C 60.967 273.461,66.068 273.796,76.059 268.416 C 87.242 262.395,94.723 259.000,96.810 259.000 C 98.180 259.000,101.304 260.860,104.224 263.415 C 111.830 270.068,117.408 272.694,126.596 273.948 C 131.049 274.556,137.799 275.949,141.596 277.045 C 145.393 278.140,151.767 279.319,155.761 279.666 C 162.993 280.293,166.839 281.834,165.714 283.654 C 165.389 284.180,161.158 286.524,156.311 288.862 C 151.465 291.201,145.700 294.081,143.500 295.263 C 141.300 296.445,137.925 298.107,136.000 298.956 C 123.474 304.482,120.505 306.498,118.260 311.004 C 114.916 317.716,111.100 320.683,104.017 322.076 C 96.619 323.532,94.504 325.812,93.563 333.343 C 92.919 338.500,91.881 340.490,85.850 348.139 C 78.795 357.087,77.338 363.090,81.314 366.826 C 86.121 371.341,90.339 369.457,96.555 360.021 C 99.058 356.223,102.672 351.739,104.587 350.058 C 107.785 347.250,108.660 347.000,115.285 347.006 C 119.253 347.009,124.222 347.489,126.326 348.074 C 129.765 349.029,130.826 348.810,136.826 345.907 C 142.239 343.288,145.375 342.518,153.424 341.831 C 158.882 341.365,164.957 340.577,166.924 340.081 C 168.891 339.585,173.200 338.881,176.500 338.518 C 187.448 337.313,208.279 333.374,215.500 331.142 C 217.150 330.633,221.986 328.543,226.247 326.498 C 232.398 323.547,234.716 322.906,237.497 323.390 C 239.424 323.726,242.569 324.274,244.486 324.608 C 247.693 325.167,248.369 324.805,252.896 320.108 L 257.819 315.000 264.457 315.000 C 270.281 315.000,271.977 314.521,278.297 311.089 C 282.259 308.939,290.000 305.291,295.500 302.984 C 301.000 300.677,308.034 297.261,311.131 295.394 C 314.228 293.527,316.976 292.000,317.237 292.000 C 318.358 292.000,335.598 281.635,339.747 278.467 C 346.746 273.123,351.865 274.142,360.512 282.598 C 368.231 290.148,373.859 294.443,381.500 298.615 C 385.350 300.717,390.959 304.154,393.965 306.253 C 396.971 308.352,401.842 310.770,404.790 311.627 C 408.023 312.567,412.328 314.960,415.640 317.657 C 421.631 322.537,433.410 328.987,436.344 328.995 C 437.358 328.998,440.620 327.545,443.594 325.766 C 448.003 323.129,449.000 322.035,449.000 319.831 C 449.000 315.440,447.411 312.478,442.026 306.832 L 436.940 301.500 428.720 301.487 C 424.199 301.480,419.825 301.028,419.000 300.482 C 416.484 298.818,402.957 285.863,397.091 279.500 C 394.049 276.200,388.296 270.242,384.307 266.261 C 373.619 255.593,374.868 254.435,393.215 257.997 C 398.937 259.108,407.618 259.995,412.782 259.997 C 422.490 260.000,425.842 260.893,432.065 265.131 C 436.992 268.487,447.761 270.564,452.361 269.046 C 459.584 266.662,460.003 254.605,453.046 249.327 C 450.384 247.308,446.511 247.060,440.401 248.520 C 429.546 251.112,425.736 250.300,414.500 243.004 C 411.200 240.861,406.250 238.609,403.500 237.999 C 400.750 237.388,397.488 236.229,396.250 235.422 C 392.970 233.282,393.229 227.367,396.891 220.735 C 403.360 209.021,403.062 202.219,395.411 187.000 C 390.373 176.980,388.461 174.744,382.758 172.205 C 380.416 171.162,376.750 169.115,374.610 167.655 C 371.366 165.440,369.624 165.001,364.110 165.004 C 359.408 165.006,356.611 165.550,354.420 166.885 " style="stroke: none; fill: black;">
                    </path></svg>