<svg id="svg-path" width="100%" height="100%" viewBox="0 0 512 512" version="1.1" xmlns="http://www.w3.org/2000/svg" style="fill-rule:evenodd;clip-rule:evenodd;stroke-linejoin:round;stroke-miterlimit:2;">
                        <path d="M170.994 65.899 C 165.484 67.653,162.104 70.187,153.829 78.772 C 143.852 89.122,142.548 91.293,140.880 100.348 C 138.708 112.136,143.061 125.878,154.135 142.195 C 160.408 151.438,159.239 155.326,149.409 157.914 C 143.713 159.414,141.970 161.739,141.361 168.647 C 140.733 175.772,139.654 178.183,136.172 180.239 C 133.175 182.009,115.520 188.000,113.302 188.000 C 112.514 188.000,108.571 189.524,104.540 191.386 C 94.564 195.995,86.036 204.576,83.538 212.519 C 80.277 222.886,83.347 231.821,91.584 235.935 C 93.858 237.071,97.115 238.000,98.822 238.000 C 104.255 238.000,113.189 233.903,124.000 226.455 C 135.734 218.370,143.618 213.573,146.867 212.542 C 148.587 211.996,150.079 212.856,154.039 216.676 C 156.789 219.329,160.555 222.873,162.407 224.550 C 164.981 226.881,166.054 228.944,166.957 233.294 C 167.607 236.425,167.840 239.929,167.474 241.081 C 167.026 242.494,163.769 244.596,157.464 247.542 C 151.994 250.098,147.639 252.807,146.960 254.075 C 145.254 257.262,145.526 267.183,147.419 270.843 C 153.214 282.049,161.107 284.833,178.897 281.947 C 184.846 280.982,185.657 281.087,190.488 283.450 C 198.252 287.249,205.167 288.478,218.833 288.490 C 230.568 288.500,231.259 288.614,233.076 290.853 C 235.393 293.705,234.860 296.574,230.835 302.921 C 228.355 306.832,228.000 308.355,228.000 315.081 C 228.000 323.209,228.784 325.810,233.369 332.900 C 235.257 335.820,236.681 339.972,237.601 345.241 C 239.354 355.281,241.570 360.273,247.518 367.575 C 254.379 375.998,260.066 380.308,272.730 386.680 C 282.894 391.794,285.128 393.459,296.231 404.186 C 311.465 418.906,312.380 419.438,321.074 418.630 C 331.607 417.651,331.714 418.359,323.460 434.542 C 316.072 449.028,314.947 454.026,318.491 456.617 C 321.221 458.614,325.092 458.319,337.606 455.161 C 353.140 451.242,356.186 449.202,365.020 436.801 C 369.056 431.136,374.027 424.475,376.067 422.000 C 382.681 413.975,383.261 412.050,382.506 400.629 C 381.828 390.380,381.959 389.411,385.974 375.000 C 388.776 364.944,388.069 360.824,382.601 355.345 C 379.204 351.943,377.553 351.075,373.477 350.554 C 362.497 349.149,356.477 345.771,358.576 342.191 C 359.122 341.261,365.568 337.511,372.900 333.858 C 384.036 328.310,387.356 326.101,393.051 320.450 C 403.723 309.859,408.537 296.668,406.064 284.793 C 403.981 274.786,388.023 245.795,378.106 234.000 C 372.686 227.553,371.776 225.427,370.986 217.354 C 369.874 205.997,363.894 200.169,352.219 199.065 C 344.598 198.344,341.674 196.749,336.585 190.538 C 334.644 188.169,330.601 184.602,327.601 182.611 C 324.601 180.620,320.201 176.785,317.823 174.089 C 315.446 171.393,310.743 167.368,307.373 165.143 C 304.004 162.919,299.741 159.164,297.901 156.800 C 296.061 154.435,293.595 151.600,292.420 150.500 C 291.245 149.400,288.355 145.575,285.998 142.000 C 279.905 132.758,274.381 127.846,264.832 123.177 C 254.699 118.223,245.409 111.035,243.545 106.706 C 235.555 88.155,224.700 70.829,219.000 67.527 C 215.823 65.687,213.565 65.482,194.500 65.301 C 182.950 65.191,172.372 65.460,170.994 65.899 " style="stroke: none; fill: black;">
                    </path></svg>