<svg id="svg-path" width="100%" height="100%" viewBox="0 0 512 512" version="1.1" xmlns="http://www.w3.org/2000/svg" style="fill-rule:evenodd;clip-rule:evenodd;stroke-linejoin:round;stroke-miterlimit:2;">
                        <path d="M199.500 66.677 C 188.609 69.640,177.111 78.737,171.286 89.000 C 162.392 104.670,163.069 121.263,173.295 138.228 C 176.314 143.236,176.188 145.000,172.813 145.000 C 171.675 145.000,168.439 146.293,165.622 147.873 C 162.805 149.454,158.250 151.034,155.500 151.385 C 143.645 152.899,131.681 161.289,120.976 175.597 C 118.879 178.401,116.535 181.326,115.767 182.097 C 114.085 183.789,103.476 197.804,100.042 202.873 C 97.273 206.958,96.648 215.196,98.704 220.500 C 108.824 246.612,109.918 248.590,116.319 252.341 C 118.778 253.782,121.993 256.392,123.465 258.140 C 126.086 261.255,127.005 263.038,132.568 275.793 L 135.312 282.087 133.048 285.148 C 130.993 287.929,130.848 288.890,131.477 295.598 C 132.083 302.065,131.832 304.014,129.463 311.243 C 127.974 315.784,125.516 321.750,124.000 324.500 C 122.483 327.250,120.232 332.650,118.996 336.500 C 116.847 343.192,114.777 347.987,105.827 367.000 C 100.607 378.089,97.981 383.155,96.495 385.000 C 95.830 385.825,92.461 391.900,89.007 398.500 C 81.759 412.351,81.559 412.664,76.371 418.279 C 74.227 420.600,70.131 425.469,67.270 429.098 C 62.118 435.635,51.046 444.894,41.605 450.561 C 34.908 454.581,31.000 458.428,31.000 461.000 C 31.000 462.185,32.376 464.530,34.057 466.211 C 36.940 469.093,37.438 469.235,42.784 468.683 C 46.641 468.285,51.339 466.662,57.477 463.607 C 62.440 461.137,69.425 458.381,73.000 457.482 C 76.575 456.583,81.209 455.408,83.298 454.870 C 87.872 453.691,90.439 449.963,92.146 442.018 C 94.287 432.058,98.025 427.089,111.251 416.624 C 117.628 411.578,122.356 406.542,126.477 400.408 C 128.358 397.607,131.608 394.031,133.699 392.461 C 138.461 388.884,138.649 388.597,139.431 383.703 C 140.211 378.827,141.931 375.625,148.669 366.500 C 155.978 356.603,173.972 339.594,181.000 335.940 C 185.871 333.407,193.797 332.105,197.733 333.192 C 205.548 335.350,218.445 345.426,224.319 353.964 C 226.026 356.444,231.657 362.979,236.833 368.487 C 244.926 377.097,246.926 379.951,251.108 388.860 C 255.581 398.387,256.831 400.075,266.652 409.860 C 279.831 422.990,281.525 426.257,280.632 436.823 L 280.003 444.267 283.442 447.510 C 285.425 449.380,290.049 451.909,294.361 453.482 C 299.594 455.390,303.742 457.830,308.170 461.603 C 317.115 469.224,327.317 472.836,331.185 469.750 C 336.464 465.538,335.350 461.100,326.978 453.000 C 323.284 449.425,318.554 444.025,316.468 441.000 C 314.383 437.975,311.658 434.150,310.415 432.500 C 306.236 426.956,301.096 417.630,289.766 395.031 C 283.570 382.673,277.734 371.198,276.798 369.531 C 275.862 367.864,275.074 365.729,275.048 364.787 C 274.959 361.623,271.115 353.175,254.542 319.719 C 240.434 291.241,237.914 285.450,237.087 279.613 C 236.556 275.861,235.473 272.051,234.681 271.146 C 230.779 266.686,228.986 260.147,230.857 257.197 C 231.312 256.480,234.605 255.480,238.176 254.974 C 244.490 254.080,255.852 249.198,260.724 245.286 C 261.947 244.304,263.567 241.700,264.324 239.500 C 266.391 233.489,269.791 231.974,282.709 231.306 C 295.132 230.664,298.379 229.413,299.946 224.664 C 302.447 217.086,312.148 212.245,327.853 210.736 L 338.500 209.714 343.850 213.357 C 348.039 216.209,350.210 217.014,353.850 217.063 C 361.783 217.171,372.085 217.934,372.968 218.480 C 373.431 218.766,378.142 219.872,383.436 220.937 C 392.127 222.685,393.532 222.734,397.894 221.439 C 404.627 219.439,407.580 216.780,409.505 210.985 C 411.073 206.263,411.064 205.795,409.331 202.266 C 405.108 193.666,392.489 189.545,371.500 189.912 C 364.900 190.027,356.621 190.778,353.101 191.581 C 345.502 193.314,343.490 192.849,341.440 188.885 C 339.525 185.181,334.455 182.002,330.500 182.026 C 326.545 182.050,320.223 184.988,315.836 188.840 C 311.549 192.603,300.442 198.001,297.000 197.993 C 295.625 197.989,293.150 197.093,291.500 196.000 C 287.256 193.189,282.848 193.497,277.154 197.000 C 267.562 202.902,261.808 200.745,253.948 188.300 C 251.641 184.647,246.942 178.665,243.507 175.008 C 231.531 162.256,230.499 155.251,239.676 149.004 C 244.691 145.590,250.704 137.799,254.344 130.000 C 257.125 124.040,257.382 122.586,257.439 112.500 C 257.487 103.902,257.077 100.408,255.564 96.500 C 250.826 84.258,242.340 74.986,231.000 69.659 C 225.081 66.879,223.472 66.585,213.000 66.369 C 206.675 66.239,200.600 66.377,199.500 66.677 M137.412 209.250 C 139.012 211.720,141.479 237.588,140.386 240.436 C 139.212 243.496,136.529 241.547,133.167 235.193 C 129.377 228.030,127.407 217.690,129.023 213.439 C 129.979 210.924,133.679 207.104,135.227 207.033 C 135.627 207.015,136.610 208.012,137.412 209.250 M423.962 213.250 C 418.857 215.824,416.547 219.661,417.498 223.989 C 418.586 228.943,421.648 231.693,429.255 234.548 C 433.240 236.043,437.850 238.068,439.500 239.047 C 441.150 240.027,445.875 242.534,450.000 244.619 C 456.664 247.988,458.336 248.414,465.000 248.441 C 471.712 248.468,472.973 248.154,477.000 245.450 C 482.877 241.503,484.612 237.986,483.127 233.030 C 481.550 227.767,479.495 226.309,467.531 221.966 C 461.696 219.848,455.399 217.174,453.539 216.024 C 450.103 213.900,437.451 211.000,431.624 211.000 C 429.864 211.000,426.416 212.012,423.962 213.250 " style="stroke: none; fill: black;">
                    </path></svg>