<svg id="svg-path" width="100%" height="100%" viewBox="0 0 512 512" version="1.1" xmlns="http://www.w3.org/2000/svg" style="fill-rule:evenodd;clip-rule:evenodd;stroke-linejoin:round;stroke-miterlimit:2;">
                        <path d="M202.105 92.372 C 196.960 93.279,195.298 94.053,193.605 96.326 C 191.622 98.988,191.494 100.437,191.390 121.380 C 191.319 135.770,190.882 144.352,190.152 145.717 C 189.531 146.877,186.880 148.609,184.261 149.567 C 172.436 153.892,164.637 157.434,161.932 159.710 C 159.295 161.930,159.000 162.776,159.000 168.120 C 159.000 179.974,166.455 195.149,179.947 210.761 L 187.500 219.500 187.386 225.376 C 187.291 230.228,186.528 232.667,183.004 239.376 C 179.073 246.860,172.831 263.592,169.577 275.370 C 168.836 278.048,167.616 280.629,166.865 281.104 C 164.842 282.386,159.630 282.181,157.662 280.742 C 156.039 279.555,156.050 279.169,157.844 273.953 C 160.652 265.793,161.956 254.026,162.671 230.405 L 163.309 209.309 159.382 205.382 C 152.341 198.341,133.671 194.820,114.629 196.943 C 96.726 198.938,96.619 199.105,95.003 227.491 C 94.439 237.396,93.465 250.512,92.839 256.639 C 92.213 262.765,92.002 270.717,92.370 274.310 L 93.040 280.842 89.010 283.671 C 82.669 288.123,81.528 293.196,81.626 316.515 C 81.710 336.708,82.490 340.586,86.945 342.970 C 88.162 343.622,102.025 343.999,124.684 343.996 C 164.779 343.992,163.925 344.133,169.012 336.666 C 173.417 330.199,178.180 332.577,182.605 343.453 C 185.372 350.255,190.242 357.380,194.046 360.192 C 198.190 363.256,198.384 364.886,195.405 371.589 C 190.433 382.776,189.937 385.564,190.616 398.500 C 191.236 410.313,191.189 410.680,187.623 422.072 C 183.458 435.374,183.039 441.039,186.000 444.000 C 189.618 447.618,198.312 446.177,205.171 440.822 C 210.672 436.529,213.000 430.881,213.000 421.832 C 213.000 415.585,213.385 413.775,215.250 411.253 C 223.131 400.595,224.562 399.000,226.240 399.000 C 228.558 399.000,232.578 403.253,235.219 408.500 C 238.375 414.768,239.609 415.717,252.840 422.046 C 263.800 427.289,266.009 428.000,271.332 428.000 C 278.137 428.000,282.129 425.944,285.840 420.528 C 288.501 416.646,288.545 414.963,286.072 411.819 C 284.180 409.413,282.341 408.656,270.709 405.494 C 264.483 403.802,258.013 398.860,255.396 393.798 C 254.585 392.230,253.437 387.198,252.846 382.616 L 251.770 374.286 256.933 364.928 C 263.499 353.025,267.773 340.921,268.870 331.119 C 269.343 326.885,270.397 322.089,271.212 320.461 C 273.409 316.067,276.032 300.665,278.529 277.500 C 279.938 264.433,279.785 260.673,276.974 239.298 C 276.453 235.336,276.208 231.511,276.430 230.798 C 276.651 230.084,277.104 228.262,277.436 226.748 C 277.768 225.235,280.795 220.960,284.164 217.248 C 291.513 209.153,296.211 202.874,301.936 193.500 L 306.211 186.500 305.583 145.500 C 304.874 99.242,305.038 100.172,297.392 98.803 C 288.493 97.208,271.310 96.726,266.294 97.930 C 256.902 100.183,252.933 99.834,248.491 96.365 C 246.296 94.650,242.388 92.741,239.807 92.124 C 233.930 90.717,210.620 90.870,202.105 92.372 M394.353 222.466 C 393.202 223.272,391.322 226.309,390.176 229.216 C 387.583 235.788,378.666 261.905,375.524 272.126 C 372.640 281.508,370.384 286.000,368.556 286.000 C 367.790 286.000,366.207 284.454,365.039 282.564 C 362.221 278.003,357.697 276.565,348.585 277.334 C 327.639 279.099,305.511 281.094,298.038 281.890 C 290.306 282.713,289.329 283.068,286.717 285.990 L 283.859 289.190 284.291 303.845 C 284.680 317.051,286.648 332.857,288.433 337.115 C 290.198 341.324,296.793 341.848,318.000 339.462 C 325.425 338.627,338.141 337.516,346.257 336.994 C 366.848 335.669,368.618 334.599,369.540 322.926 C 370.439 311.552,370.636 311.000,373.797 311.000 C 375.314 311.000,377.443 311.591,378.527 312.314 C 382.770 315.141,393.595 319.107,403.803 321.573 C 409.686 322.995,416.356 324.635,418.625 325.219 C 424.528 326.737,427.228 325.719,429.898 320.967 C 432.495 316.347,453.623 253.208,454.585 247.196 C 455.263 242.954,453.690 238.839,450.173 235.657 C 445.971 231.854,408.624 221.000,399.740 221.000 C 397.928 221.000,395.503 221.660,394.353 222.466 " style="stroke: none; fill: black;">
                    </path></svg>