<svg id="svg-path" width="100%" height="100%" viewBox="0 0 512 512" version="1.1" xmlns="http://www.w3.org/2000/svg" style="fill-rule:evenodd;clip-rule:evenodd;stroke-linejoin:round;stroke-miterlimit:2;">
                        <path d="M229.286 100.071 C 225.003 101.361,221.098 106.700,220.086 112.653 C 219.633 115.319,218.313 119.525,217.153 122.000 C 215.552 125.417,215.039 128.481,215.022 134.731 C 215.001 142.570,214.886 142.991,212.608 143.562 C 211.215 143.912,208.863 143.463,206.980 142.489 C 205.200 141.569,201.583 140.174,198.941 139.390 C 196.300 138.606,191.745 136.019,188.819 133.642 C 178.241 125.049,169.651 121.003,161.967 120.996 C 158.681 120.993,156.310 120.201,153.000 118.000 C 149.238 115.499,147.500 115.008,142.403 115.004 C 137.733 115.001,135.765 115.469,133.996 117.004 C 132.725 118.106,129.960 119.472,127.853 120.040 C 125.050 120.794,123.854 121.733,123.402 123.534 C 122.176 128.418,123.390 129.307,130.264 128.565 C 133.694 128.195,138.525 127.678,141.000 127.417 C 147.026 126.782,152.070 129.749,157.818 137.312 C 160.516 140.862,164.216 144.244,167.362 146.036 C 170.188 147.645,174.750 150.760,177.500 152.958 C 180.250 155.155,186.412 159.906,191.192 163.515 C 201.357 171.187,207.482 179.364,208.588 186.738 C 208.974 189.313,209.003 197.403,208.652 204.717 C 207.888 220.653,209.220 231.742,212.612 237.678 C 215.861 243.363,215.819 249.704,212.500 254.595 C 211.125 256.621,209.996 259.229,209.991 260.390 C 209.835 297.521,208.825 336.720,207.541 355.436 L 205.899 379.372 208.199 382.436 C 210.147 385.030,210.460 386.520,210.240 392.155 C 209.992 398.488,211.105 405.018,214.134 415.000 C 215.988 421.109,223.547 428.579,228.766 429.461 C 232.477 430.087,235.761 429.253,239.144 426.824 C 240.487 425.860,241.372 426.135,243.971 428.322 C 247.571 431.351,251.095 431.694,256.295 429.521 C 261.196 427.473,263.639 423.580,265.457 414.915 C 266.313 410.837,267.676 404.350,268.485 400.500 C 269.295 396.650,269.857 391.445,269.735 388.934 C 269.555 385.222,270.027 383.757,272.257 381.107 C 274.902 377.963,275.000 377.433,275.000 366.270 C 275.000 352.348,277.555 327.965,279.565 322.713 C 280.839 319.383,280.832 318.575,279.507 316.013 C 277.682 312.485,277.593 309.597,279.219 306.684 C 279.890 305.483,280.757 301.575,281.147 298.000 C 283.339 277.870,283.997 273.139,284.949 270.635 C 286.519 266.504,286.239 263.544,283.800 258.525 C 281.798 254.405,281.721 253.658,282.951 250.248 C 283.694 248.187,285.407 244.744,286.759 242.598 C 292.787 233.029,295.278 221.143,292.987 212.892 C 290.807 205.044,289.193 190.670,290.236 188.382 C 291.313 186.018,291.803 185.779,304.407 181.466 C 318.002 176.813,321.721 174.488,325.688 168.163 C 334.413 154.250,342.662 141.631,344.500 139.383 C 346.094 137.433,348.521 136.533,356.454 134.947 C 368.189 132.601,370.519 130.697,365.598 127.473 C 363.994 126.421,359.703 125.701,352.665 125.303 C 343.246 124.769,341.466 124.951,335.817 127.026 C 327.528 130.071,326.921 130.529,321.620 137.730 C 313.315 149.012,309.660 152.796,306.240 153.655 C 304.976 153.972,300.217 153.921,295.666 153.542 C 287.758 152.884,287.177 152.664,282.557 148.599 C 278.099 144.677,277.772 144.079,278.357 140.923 C 278.707 139.040,279.262 135.925,279.590 134.000 C 280.288 129.915,275.704 112.564,273.164 109.679 C 271.533 107.825,263.717 103.913,256.510 101.343 C 251.599 99.591,233.663 98.753,229.286 100.071 M247.093 335.173 C 247.773 336.444,248.646 346.275,249.197 358.853 C 250.034 377.982,250.359 380.641,252.133 382.897 C 253.786 384.997,254.011 386.285,253.445 390.397 C 252.298 398.738,243.705 420.000,241.481 420.000 C 240.832 420.000,239.013 416.962,237.440 413.250 C 235.867 409.538,233.550 404.976,232.291 403.113 C 229.545 399.047,227.659 392.787,227.739 388.000 C 227.832 382.391,230.535 367.893,232.400 363.000 C 233.343 360.525,234.720 355.800,235.459 352.500 C 236.198 349.200,237.602 344.475,238.580 342.000 C 242.134 332.997,244.789 330.868,247.093 335.173 " style="stroke: none; fill: black;">
                    </path></svg>