<svg id="svg-path" width="100%" height="100%" viewBox="0 0 512 512" version="1.1" xmlns="http://www.w3.org/2000/svg" style="fill-rule:evenodd;clip-rule:evenodd;stroke-linejoin:round;stroke-miterlimit:2;">
                        <path d="M218.845 93.459 C 213.056 95.630,210.102 97.970,207.459 102.480 C 205.243 106.261,205.000 107.783,205.000 117.871 C 205.000 127.831,205.276 129.611,207.500 134.000 C 210.938 140.784,210.742 143.197,206.488 146.441 C 204.557 147.914,202.346 150.629,201.575 152.475 C 200.804 154.321,198.822 157.034,197.171 158.505 C 195.520 159.977,193.211 163.406,192.041 166.125 C 190.871 168.845,187.811 174.317,185.241 178.285 C 179.371 187.347,169.000 208.672,169.000 211.681 C 169.000 214.593,164.825 224.034,161.679 228.237 C 157.316 234.065,156.055 237.669,155.055 247.164 C 154.515 252.299,153.560 258.975,152.932 262.000 C 150.541 273.537,151.990 279.162,162.212 298.000 C 164.748 302.675,168.170 310.349,169.814 315.054 C 171.459 319.758,173.857 325.833,175.142 328.554 C 177.641 333.842,177.933 340.218,176.078 349.000 C 175.555 351.475,174.598 356.875,173.950 361.000 C 173.301 365.125,172.332 370.750,171.795 373.500 C 171.258 376.250,170.673 384.575,170.496 392.000 C 170.318 399.425,169.860 407.767,169.479 410.539 C 168.685 416.315,169.509 417.450,176.394 420.051 L 180.500 421.603 180.202 427.903 C 179.829 435.770,181.285 438.216,187.708 440.524 C 190.344 441.471,194.525 443.146,197.000 444.246 C 199.475 445.346,204.875 447.355,209.000 448.710 C 218.089 451.697,223.306 451.394,228.292 447.591 C 234.964 442.502,233.938 436.707,225.687 432.872 C 219.132 429.825,211.432 423.757,209.665 420.245 C 206.188 413.336,203.558 398.658,203.529 386.000 C 203.503 374.849,203.805 372.612,206.324 365.275 C 207.877 360.751,210.486 354.287,212.121 350.911 C 216.882 341.083,218.179 329.768,216.040 316.711 C 215.519 313.528,215.345 310.265,215.653 309.461 C 216.994 305.967,229.487 309.952,230.463 314.185 C 230.756 315.458,231.109 329.408,231.248 345.185 L 231.500 373.869 234.136 376.685 C 235.586 378.233,237.481 380.908,238.349 382.629 C 239.216 384.350,240.730 386.076,241.713 386.466 C 243.905 387.335,265.764 388.918,276.000 388.948 C 283.730 388.971,287.498 387.791,289.397 384.750 C 291.128 381.979,289.136 379.905,280.511 375.500 C 268.265 369.245,268.474 369.792,268.637 344.548 C 268.713 332.843,269.335 319.944,270.020 315.883 C 270.706 311.822,271.301 304.450,271.343 299.500 C 271.409 291.846,271.037 289.669,268.853 284.940 C 266.237 279.277,257.867 270.873,248.679 264.686 C 243.129 260.948,239.942 257.927,239.044 255.549 C 238.286 253.542,241.260 238.251,243.065 234.879 C 244.540 232.122,246.674 232.562,251.341 236.586 C 258.441 242.707,274.094 249.674,285.822 251.931 C 296.763 254.038,300.333 256.089,305.770 263.393 C 309.175 267.967,310.795 268.541,313.398 266.096 C 314.917 264.669,316.942 264.000,319.746 264.000 C 325.228 264.000,328.139 260.180,328.478 252.538 C 328.707 247.397,328.554 247.061,323.734 242.113 C 319.163 237.420,318.373 237.000,314.127 236.994 C 306.370 236.985,302.410 235.409,300.907 231.735 C 298.720 226.385,290.078 218.066,283.000 214.498 C 276.027 210.982,272.402 207.777,273.461 206.063 C 273.841 205.447,277.776 204.990,282.809 204.976 C 287.589 204.963,293.300 204.532,295.500 204.018 C 302.021 202.495,306.351 204.412,312.858 211.700 C 318.254 217.743,318.697 218.015,323.000 217.928 C 325.475 217.878,328.907 218.142,330.626 218.514 C 333.379 219.110,334.067 218.779,336.376 215.751 C 339.734 211.349,339.852 204.485,336.683 198.000 C 334.310 193.144,334.693 193.296,317.872 190.548 C 313.363 189.811,309.000 185.915,309.000 182.624 C 309.000 181.265,307.893 178.838,306.540 177.230 C 304.515 174.824,302.829 174.100,297.015 173.139 C 293.129 172.498,288.048 171.280,285.725 170.434 C 283.401 169.588,277.790 168.631,273.256 168.307 C 268.721 167.984,264.616 167.220,264.132 166.609 C 263.649 165.999,262.943 160.288,262.565 153.918 L 261.876 142.336 266.034 137.076 C 270.773 131.082,272.000 127.654,272.000 120.416 C 272.000 110.770,264.643 100.553,253.040 94.084 C 249.400 92.055,223.835 91.588,218.845 93.459 M374.067 188.875 C 373.515 189.906,372.784 192.499,372.442 194.638 C 371.701 199.269,373.363 201.220,379.460 202.878 C 384.582 204.271,387.132 202.705,388.581 197.276 C 390.042 191.803,388.900 189.344,384.305 188.068 C 378.575 186.477,375.208 186.742,374.067 188.875 M362.087 218.057 C 359.667 223.064,359.433 226.285,361.371 227.893 C 363.891 229.984,372.856 232.147,374.767 231.125 C 376.836 230.017,380.332 221.027,379.517 218.906 C 378.591 216.493,375.039 214.860,369.464 214.284 L 364.173 213.738 362.087 218.057 M350.570 246.922 C 348.219 249.521,347.360 256.224,349.185 257.739 C 349.951 258.375,352.663 259.453,355.212 260.134 C 360.653 261.590,362.243 260.747,364.572 255.174 C 365.891 252.018,365.863 251.507,364.284 249.762 C 362.350 247.624,356.700 245.000,354.033 245.000 C 353.085 245.000,351.527 245.865,350.570 246.922 M341.144 281.327 C 338.996 283.915,336.921 290.176,337.553 292.166 C 338.331 294.619,345.302 297.948,349.724 297.978 C 352.294 297.996,353.258 297.401,354.474 295.050 C 355.313 293.427,356.000 290.733,356.000 289.064 C 356.000 286.359,355.350 285.701,350.029 283.014 C 343.261 279.598,342.671 279.486,341.144 281.327 " style="stroke: none; fill: black;">
                    </path></svg>