<svg id="svg-path" width="100%" height="100%" viewBox="0 0 512 512" version="1.1" xmlns="http://www.w3.org/2000/svg" style="fill-rule:evenodd;clip-rule:evenodd;stroke-linejoin:round;stroke-miterlimit:2;">
                        <path d="M204.728 127.073 C 201.299 129.899,201.000 130.561,201.000 135.329 C 201.000 138.180,201.381 141.860,201.846 143.507 C 202.311 145.153,202.499 147.063,202.263 147.750 C 201.694 149.406,197.940 149.343,195.473 147.635 C 191.441 144.844,189.235 144.830,183.463 147.561 C 171.266 153.331,162.136 154.311,152.465 150.889 C 144.003 147.894,134.713 148.692,128.016 152.990 C 122.357 156.621,116.005 163.226,110.467 171.238 C 108.285 174.394,105.977 176.982,105.338 176.988 C 103.983 177.002,95.605 165.545,94.580 162.276 C 94.196 161.053,92.601 159.140,91.036 158.026 C 88.462 156.192,86.686 156.003,72.346 156.032 C 55.224 156.066,53.000 156.657,53.000 161.169 C 53.000 163.146,54.011 164.089,58.242 166.059 C 62.463 168.025,63.601 169.084,64.088 171.500 C 64.421 173.150,66.082 177.390,67.779 180.922 C 70.549 186.684,70.740 187.659,69.640 190.422 C 68.849 192.409,66.163 194.990,62.059 197.705 C 45.297 208.795,45.882 214.695,63.281 210.028 C 78.609 205.917,78.887 205.869,80.994 206.997 C 83.216 208.186,83.360 208.712,83.062 214.541 C 82.895 217.799,83.403 219.131,85.678 221.409 C 89.241 224.977,91.126 225.678,102.370 227.614 C 107.391 228.478,113.300 230.001,115.500 230.997 C 128.849 237.042,137.712 237.476,144.787 232.431 C 149.851 228.820,158.490 215.908,159.461 210.500 C 160.370 205.438,161.231 204.434,166.759 201.988 C 172.995 199.230,174.442 199.448,179.272 203.873 C 181.598 206.003,185.975 209.025,189.000 210.589 C 194.415 213.389,194.734 213.429,209.728 213.195 C 224.117 212.970,225.075 213.075,227.095 215.095 C 228.960 216.960,229.151 217.951,228.593 222.878 C 227.660 231.127,228.713 234.665,233.625 239.792 L 237.943 244.298 248.720 243.602 C 259.496 242.905,262.502 241.925,266.000 237.969 C 268.762 234.847,274.466 232.008,278.000 231.997 C 279.925 231.991,285.012 232.521,289.304 233.175 L 297.108 234.363 301.254 230.217 C 304.509 226.961,305.400 225.331,305.400 222.629 C 305.400 217.366,303.666 216.000,296.986 216.000 C 291.666 216.000,291.168 215.805,290.589 213.500 C 289.613 209.609,286.494 210.427,281.106 215.988 C 274.384 222.925,269.473 224.951,259.309 224.978 C 254.626 224.991,250.839 224.549,250.467 223.947 C 249.142 221.803,251.169 210.916,253.368 208.358 C 255.878 205.440,263.674 203.375,277.500 201.965 C 290.267 200.664,291.698 200.189,295.021 196.159 C 300.406 189.626,302.366 184.263,302.422 175.906 L 302.474 168.312 296.443 160.420 C 288.363 149.846,286.799 149.020,279.303 151.364 C 270.329 154.171,266.955 156.108,262.085 161.250 C 258.836 164.681,256.821 166.000,254.828 166.000 C 251.573 166.000,250.522 164.332,249.547 157.621 C 248.980 153.716,247.929 151.769,244.283 147.871 C 238.606 141.802,240.746 141.324,248.230 146.989 C 251.128 149.183,254.708 151.399,256.184 151.914 C 258.486 152.717,259.102 152.493,260.512 150.342 C 262.018 148.044,262.565 147.890,267.051 148.507 C 271.915 149.176,271.957 149.158,273.651 145.606 C 275.741 141.222,274.704 138.704,269.278 134.992 C 265.890 132.675,264.788 132.500,253.567 132.500 C 243.794 132.500,241.018 132.172,238.967 130.777 C 237.455 129.749,233.425 128.791,228.967 128.400 C 224.476 128.006,220.257 126.999,218.382 125.873 C 213.690 123.054,209.115 123.456,204.728 127.073 M452.029 189.562 L 446.769 195.125 447.254 201.312 C 447.863 209.082,445.222 215.522,438.279 223.198 C 435.641 226.114,432.421 229.994,431.124 231.820 C 429.826 233.646,426.498 236.931,423.728 239.121 C 419.623 242.365,418.025 243.047,415.095 242.801 C 412.268 242.564,411.433 242.030,411.187 240.302 C 410.953 238.659,411.881 237.469,414.864 235.586 C 428.637 226.891,431.166 218.588,423.724 206.500 C 419.195 199.143,417.078 197.098,411.220 194.417 C 403.836 191.037,399.937 191.326,390.291 195.968 C 380.476 200.692,378.124 203.733,375.183 215.500 C 371.629 229.719,372.111 229.100,360.845 233.915 C 354.052 236.819,337.902 248.200,335.773 251.584 C 333.437 255.298,323.489 258.011,306.374 259.602 C 300.452 260.152,298.878 259.938,295.490 258.123 C 290.173 255.273,285.908 255.370,283.274 258.400 C 282.126 259.720,279.908 261.091,278.344 261.447 C 270.431 263.249,270.105 268.211,277.623 272.413 C 282.792 275.302,285.108 275.514,293.367 273.855 C 297.597 273.006,299.705 273.000,301.535 273.834 C 302.891 274.452,311.443 275.263,320.538 275.635 C 329.634 276.008,337.260 276.611,337.485 276.975 C 337.710 277.339,337.626 281.773,337.298 286.829 L 336.703 296.021 333.101 298.195 C 331.121 299.391,328.262 301.383,326.748 302.622 C 324.059 304.823,323.587 304.862,306.248 304.315 C 294.596 303.948,286.439 304.155,282.500 304.918 C 279.200 305.557,268.736 306.723,259.246 307.507 C 249.756 308.292,241.123 309.399,240.062 309.967 C 237.287 311.452,229.360 311.239,226.200 309.595 C 222.486 307.662,219.719 304.446,216.357 298.152 C 212.954 291.780,210.503 290.068,208.151 292.421 C 204.627 295.945,207.797 322.642,212.172 326.290 C 214.081 327.881,215.659 328.005,226.410 327.415 C 237.658 326.798,238.753 326.902,242.137 328.908 L 245.774 331.064 261.137 328.992 C 277.599 326.772,288.035 326.981,295.500 329.681 C 306.438 333.638,321.785 338.457,333.275 341.543 C 347.891 345.469,349.576 346.227,360.500 353.793 C 372.321 361.980,383.675 372.307,390.878 381.426 C 399.005 391.712,408.478 405.033,410.958 409.660 C 412.016 411.635,415.312 415.416,418.281 418.063 C 421.251 420.709,425.192 425.369,427.040 428.418 C 429.239 432.047,431.607 434.535,433.896 435.621 C 437.168 437.173,437.723 437.168,442.499 435.545 C 449.381 433.206,462.000 422.765,462.000 419.410 C 462.000 416.982,461.989 416.979,452.109 417.240 C 440.196 417.553,439.937 417.387,434.110 405.675 C 431.872 401.179,429.235 396.150,428.249 394.500 C 427.264 392.850,423.803 386.775,420.558 381.000 C 417.314 375.225,410.424 363.975,405.246 356.000 C 391.366 334.620,383.679 317.607,385.616 312.558 C 385.945 311.700,388.079 310.164,390.357 309.145 C 395.651 306.775,397.957 304.138,399.071 299.179 C 399.561 296.999,402.227 291.927,404.996 287.907 C 407.765 283.888,410.506 278.836,411.086 276.682 C 412.397 271.812,419.027 264.592,427.270 259.057 C 440.052 250.474,454.605 230.307,456.537 218.500 C 456.897 216.300,458.665 212.025,460.465 209.000 C 464.853 201.629,466.255 196.930,465.445 192.312 C 463.701 182.380,459.615 181.542,452.029 189.562 " style="stroke: none; fill: black;">
                    </path></svg>