<svg id="svg-path" width="100%" height="100%" viewBox="0 0 512 512" version="1.1" xmlns="http://www.w3.org/2000/svg" style="fill-rule:evenodd;clip-rule:evenodd;stroke-linejoin:round;stroke-miterlimit:2;">
                        <path d="M250.667 86.667 C 250.300 87.033,250.000 90.105,250.000 93.492 C 250.000 101.788,246.110 112.966,237.991 128.000 C 235.882 131.905,231.431 148.290,229.977 157.500 C 229.456 160.800,228.567 165.745,228.000 168.489 C 227.434 171.233,226.887 179.108,226.785 185.989 C 226.639 195.789,226.984 199.584,228.375 203.500 C 229.352 206.250,230.578 212.325,231.100 217.000 C 231.622 221.675,232.685 230.225,233.461 236.000 C 235.249 249.291,234.564 279.101,231.937 302.343 C 230.457 315.437,231.225 329.605,234.103 342.297 C 236.281 351.902,236.248 362.218,233.995 376.500 C 232.497 385.988,232.477 404.755,233.955 413.589 C 234.894 419.202,235.008 422.569,234.329 424.589 C 233.015 428.497,234.590 449.335,236.583 454.421 C 238.304 458.809,243.237 463.687,246.945 464.668 C 248.290 465.024,251.665 464.848,254.445 464.277 C 258.429 463.460,260.491 463.560,264.174 464.747 C 269.652 466.514,272.707 465.959,276.894 462.436 C 281.920 458.207,283.273 448.795,280.837 435.000 C 280.206 431.425,279.718 427.390,279.753 426.034 C 279.831 422.941,283.358 420.000,286.988 420.000 C 288.510 420.000,290.200 419.438,290.743 418.750 C 291.683 417.560,293.302 395.700,294.539 367.500 C 294.866 360.038,295.756 352.583,296.629 350.000 C 297.729 346.744,298.235 340.111,298.460 326.000 C 298.632 315.275,299.273 304.928,299.886 303.007 C 301.267 298.675,301.298 284.005,299.938 278.104 C 299.199 274.900,299.361 268.937,300.537 256.104 C 302.365 236.144,302.567 219.157,301.038 214.007 C 299.213 207.863,299.771 200.915,302.500 195.788 C 306.201 188.836,305.841 184.533,300.980 177.592 C 298.768 174.436,295.821 169.748,294.429 167.176 C 293.038 164.604,290.798 160.700,289.452 158.500 C 288.106 156.300,286.266 152.025,285.363 149.000 C 281.988 137.695,280.469 134.509,274.304 125.798 C 266.401 114.632,265.003 111.933,264.987 107.800 C 264.974 104.263,260.562 94.736,256.427 89.316 C 253.997 86.130,252.083 85.250,250.667 86.667 M258.810 121.258 C 259.075 124.451,258.824 125.000,257.096 125.000 C 254.306 125.000,252.597 121.621,254.032 118.940 C 255.796 115.644,258.452 116.933,258.810 121.258 M261.572 422.328 C 262.297 424.215,260.203 429.243,259.002 428.501 C 257.882 427.809,257.631 422.702,258.667 421.667 C 259.734 420.600,261.022 420.893,261.572 422.328 " style="stroke: none; fill: black;">
                    </path></svg>