<svg id="svg-path" width="100%" height="100%" viewBox="0 0 512 512" version="1.1" xmlns="http://www.w3.org/2000/svg" style="fill-rule:evenodd;clip-rule:evenodd;stroke-linejoin:round;stroke-miterlimit:2;">
                        <path d="M196.500 33.233 C 183.995 37.484,174.799 43.198,167.529 51.231 C 144.673 76.488,147.666 114.730,174.215 136.650 C 185.936 146.327,200.613 150.669,217.848 149.558 C 227.718 148.922,228.660 149.021,230.686 150.915 C 233.200 153.265,234.473 160.041,233.226 164.432 C 232.000 168.744,228.142 171.071,218.815 173.123 C 209.228 175.232,193.332 175.571,190.904 173.718 C 190.026 173.048,188.554 171.042,187.633 169.259 C 184.176 162.569,180.555 161.875,171.239 166.119 C 164.619 169.135,162.997 171.233,163.020 176.750 C 163.052 184.640,165.782 202.678,167.425 205.855 C 170.456 211.717,179.026 210.661,190.948 202.955 C 199.549 197.396,204.112 195.206,210.631 193.508 C 219.066 191.311,225.996 191.274,227.563 193.418 C 229.233 195.701,228.486 197.747,220.364 213.160 C 216.788 219.947,212.903 227.750,211.731 230.500 C 207.161 241.221,202.604 247.289,194.451 253.507 C 184.437 261.144,181.993 264.662,182.022 271.398 C 182.058 279.511,185.991 283.000,195.100 283.000 C 200.170 283.000,200.512 282.816,206.238 277.000 C 210.300 272.874,212.919 271.000,214.621 271.000 C 217.495 271.000,221.071 274.516,223.567 279.797 C 224.530 281.834,226.306 285.075,227.514 287.000 C 228.722 288.925,232.341 295.225,235.555 301.000 C 238.770 306.775,243.457 314.875,245.971 319.000 C 250.884 327.062,251.541 328.329,255.565 337.500 C 260.179 348.015,261.999 354.175,262.036 359.407 C 262.055 362.208,262.726 367.200,263.527 370.500 C 264.722 375.430,264.774 377.887,263.814 384.275 C 262.724 391.533,262.781 392.230,264.674 394.775 C 266.277 396.930,267.655 397.563,271.258 397.801 C 275.113 398.056,276.332 397.648,279.175 395.152 C 284.641 390.352,291.703 379.097,294.014 371.500 C 295.186 367.650,297.441 361.575,299.027 358.000 C 306.053 342.159,303.625 337.330,286.500 333.088 C 280.514 331.605,275.689 328.157,274.218 324.311 C 271.613 317.500,268.155 305.206,267.942 302.000 C 267.501 295.362,268.020 294.093,273.668 287.991 C 279.528 281.662,283.994 278.786,289.960 277.496 C 295.141 276.377,301.888 273.272,305.206 270.480 C 308.627 267.601,311.427 267.368,315.883 269.592 C 322.077 272.681,322.446 274.154,323.019 298.066 L 323.538 319.726 326.422 323.887 C 330.896 330.343,332.000 336.455,332.000 354.760 C 332.000 376.034,329.705 395.256,326.061 404.500 C 324.543 408.350,322.497 414.875,321.513 419.000 C 319.124 429.023,318.132 430.727,311.916 435.476 C 307.640 438.743,306.159 440.691,304.299 445.492 C 302.717 449.577,300.711 452.541,297.926 454.910 C 285.158 465.770,290.959 478.000,308.877 478.000 C 317.739 478.000,323.050 475.773,330.790 468.810 C 334.036 465.889,338.852 461.925,341.493 460.000 C 349.971 453.820,353.991 449.477,354.111 446.368 C 354.321 440.907,353.825 438.830,350.957 433.178 L 348.076 427.500 349.037 414.231 C 349.566 406.934,350.419 399.284,350.933 397.231 C 353.448 387.196,356.176 377.208,358.443 369.741 C 359.993 364.637,361.180 357.693,361.562 351.500 C 362.262 340.144,363.294 335.985,366.649 331.018 C 369.618 326.620,369.588 323.878,366.432 311.500 C 362.046 294.296,362.098 290.206,367.027 264.899 C 368.055 259.619,369.565 253.544,370.381 251.399 C 372.882 244.826,375.000 233.444,375.000 226.573 C 375.000 220.675,374.499 219.064,369.839 209.971 L 364.677 199.900 366.416 196.700 C 372.254 185.958,372.172 186.192,370.913 183.797 C 370.249 182.533,366.884 178.493,363.435 174.818 C 359.986 171.144,355.936 165.969,354.434 163.318 C 345.398 147.370,334.824 133.024,322.013 119.334 C 316.781 113.742,310.379 106.719,307.788 103.727 C 302.583 97.719,291.246 91.000,286.314 91.000 C 283.570 91.000,272.017 88.350,271.200 87.534 C 270.989 87.323,269.985 83.419,268.969 78.859 C 264.446 58.571,249.705 41.296,232.000 35.537 C 228.975 34.553,225.466 33.355,224.203 32.874 C 221.094 31.691,200.239 31.961,196.500 33.233 M275.000 182.942 C 279.811 186.713,283.003 191.695,282.983 195.398 C 282.973 197.104,282.313 202.550,281.516 207.500 C 280.195 215.706,279.761 216.770,276.592 219.556 C 274.680 221.237,267.352 225.237,260.308 228.445 C 253.264 231.653,245.212 235.417,242.415 236.809 C 236.552 239.729,233.468 239.316,234.542 235.755 C 234.916 234.515,237.384 229.675,240.027 225.000 C 245.298 215.675,250.906 202.657,253.460 193.821 C 255.504 186.747,258.183 183.274,263.421 180.904 C 268.121 178.778,270.141 179.133,275.000 182.942 " style="stroke: none; fill: black;">
                    </path></svg>