<svg id="svg-path" width="100%" height="100%" viewBox="0 0 512 512" version="1.1" xmlns="http://www.w3.org/2000/svg" style="fill-rule:evenodd;clip-rule:evenodd;stroke-linejoin:round;stroke-miterlimit:2;">
                        <path d="M381.888 80.250 C 380.084 82.588,376.784 86.551,374.554 89.058 C 372.324 91.566,369.771 94.987,368.881 96.661 C 367.990 98.336,364.056 102.264,360.137 105.391 C 356.219 108.517,352.335 112.386,351.506 113.988 C 349.080 118.679,349.555 127.761,352.474 132.500 C 354.312 135.485,354.946 137.933,354.969 142.146 C 354.998 147.426,354.759 148.005,351.284 151.055 C 342.112 159.109,335.726 161.558,331.473 158.653 C 324.963 154.209,313.648 152.878,305.620 155.614 C 301.200 157.120,300.572 157.109,296.192 155.450 C 293.611 154.473,289.738 152.569,287.584 151.219 C 281.836 147.617,276.831 147.192,274.144 150.076 C 271.535 152.876,271.387 157.646,273.811 160.796 C 275.134 162.515,277.141 163.313,281.801 163.972 C 289.367 165.041,293.929 167.617,300.512 174.537 C 304.847 179.094,306.199 179.902,310.512 180.514 C 313.256 180.903,317.525 182.126,320.000 183.231 C 323.374 184.738,327.670 185.399,337.169 185.871 C 344.137 186.217,350.168 186.831,350.571 187.235 C 351.467 188.134,344.440 198.956,341.691 200.909 C 340.601 201.684,339.130 203.034,338.422 203.909 C 337.715 204.784,335.080 207.948,332.568 210.940 C 327.502 216.973,327.002 219.462,330.073 223.365 C 332.669 226.666,335.295 226.725,337.388 223.530 C 338.278 222.172,342.265 217.897,346.249 214.030 C 354.013 206.493,355.238 206.059,363.396 207.952 C 368.405 209.113,369.210 210.422,368.580 216.376 C 367.653 225.142,367.005 225.579,349.000 229.579 C 337.220 232.195,335.173 233.354,332.783 238.758 C 330.292 244.390,328.052 260.108,328.022 272.169 C 327.998 281.595,329.874 290.479,333.614 298.656 C 337.641 307.459,337.156 309.179,328.000 318.560 C 323.332 323.342,320.000 327.599,320.000 328.781 C 320.000 329.912,321.620 332.106,323.668 333.749 L 327.337 336.692 324.737 340.100 C 320.978 345.029,319.764 348.690,321.075 351.141 C 321.991 352.852,322.771 353.050,326.325 352.477 C 333.509 351.318,352.684 340.700,357.014 335.483 C 357.819 334.513,358.390 330.222,358.557 323.890 C 358.798 314.680,358.598 313.409,356.160 308.711 C 353.911 304.376,353.500 302.312,353.500 295.357 C 353.500 287.660,353.685 286.938,356.373 284.132 C 358.967 281.425,359.181 280.692,358.568 276.604 C 358.176 273.993,358.328 271.256,358.926 270.138 C 360.377 267.427,368.072 265.027,377.500 264.345 C 381.900 264.027,388.875 262.835,393.000 261.695 C 397.125 260.555,403.693 259.370,407.595 259.061 C 414.587 258.508,414.751 258.430,418.859 253.673 C 424.832 246.757,425.657 244.601,426.299 234.226 C 426.761 226.769,427.456 223.733,429.846 218.726 C 433.979 210.070,435.328 200.245,433.616 191.263 C 432.883 187.415,432.012 183.828,431.680 183.292 C 431.349 182.755,430.657 179.882,430.143 176.908 C 427.808 163.392,424.771 154.547,420.558 149.000 C 418.260 145.975,415.819 142.375,415.132 141.000 C 413.376 137.485,411.081 134.939,406.747 131.699 C 404.686 130.159,403.000 128.223,403.000 127.398 C 403.000 123.794,417.710 121.313,426.519 123.433 C 429.227 124.084,429.880 123.733,432.863 120.021 C 436.605 115.365,436.563 112.272,432.712 108.934 C 425.335 102.538,424.074 100.988,422.997 96.990 C 422.150 93.845,422.128 92.014,422.916 90.285 C 425.283 85.091,423.505 82.029,415.787 78.006 C 412.494 76.290,410.006 76.000,398.553 76.000 L 385.168 76.000 381.888 80.250 M124.329 128.356 C 122.035 129.540,119.808 130.859,119.380 131.286 C 118.953 131.714,118.496 136.882,118.365 142.770 C 118.234 148.658,117.591 155.388,116.937 157.726 C 115.551 162.675,116.643 166.377,120.580 170.076 C 122.348 171.736,123.000 173.413,123.000 176.297 C 123.000 180.040,122.324 180.906,110.029 192.934 C 98.456 204.255,96.676 206.462,93.515 213.397 C 91.567 217.672,89.252 221.891,88.371 222.772 C 87.489 223.653,85.973 226.203,85.000 228.437 C 84.028 230.672,78.754 238.887,73.282 246.694 C 64.058 259.853,63.166 261.553,61.056 269.994 C 59.448 276.428,58.895 281.064,59.172 285.799 C 59.530 291.930,60.033 293.223,65.080 301.000 C 68.114 305.675,71.475 311.246,72.548 313.381 C 73.622 315.515,76.975 320.019,80.000 323.390 C 87.434 331.674,92.471 337.991,94.029 340.986 C 94.741 342.353,95.662 347.078,96.078 351.486 C 98.853 380.960,99.108 382.310,104.565 396.500 C 106.731 402.131,107.239 405.065,107.165 411.500 C 107.044 421.916,108.807 424.633,122.105 434.530 C 131.442 441.479,132.490 442.000,137.121 442.000 C 143.063 442.000,147.738 439.820,149.018 436.452 C 150.164 433.439,151.907 433.352,155.440 436.131 C 158.711 438.704,166.332 439.799,168.492 438.007 C 171.522 435.492,170.164 432.369,162.632 424.538 C 153.370 414.909,152.347 411.521,151.606 388.000 C 151.226 375.971,150.555 369.603,149.128 364.500 C 148.051 360.650,146.853 354.800,146.465 351.500 C 146.077 348.200,143.947 340.100,141.732 333.500 C 138.203 322.988,137.682 320.260,137.530 311.500 C 137.435 306.000,136.759 299.205,136.028 296.400 C 134.791 291.654,134.838 291.162,136.704 289.296 C 138.048 287.952,138.937 285.273,139.401 281.169 C 140.095 275.041,140.880 271.882,145.661 256.000 C 149.348 243.754,154.328 231.533,156.071 230.456 C 156.630 230.111,157.802 230.421,158.676 231.146 C 159.983 232.231,160.163 233.903,159.691 240.594 C 159.375 245.065,158.407 252.498,157.539 257.112 C 156.671 261.725,155.543 267.750,155.031 270.500 C 154.520 273.250,153.806 280.679,153.446 287.010 C 152.500 303.611,150.621 302.426,181.000 304.397 C 207.691 306.128,302.203 307.108,303.659 305.668 C 304.121 305.210,304.640 287.435,304.812 266.168 C 305.119 228.096,304.359 214.149,301.750 209.972 C 300.890 208.594,301.037 207.820,302.425 206.432 C 303.803 205.054,304.056 203.754,303.556 200.628 C 302.414 193.485,299.518 192.270,293.118 196.250 C 289.644 198.411,288.369 198.520,261.000 199.000 C 229.398 199.554,180.336 197.785,176.943 195.969 C 175.262 195.070,174.940 194.250,175.449 192.161 C 175.805 190.698,176.455 186.350,176.892 182.500 C 177.330 178.650,178.481 173.713,179.450 171.530 C 184.010 161.249,176.915 144.851,166.275 141.083 C 159.699 138.754,150.639 133.999,146.531 130.720 C 143.529 128.326,141.456 127.511,138.031 127.382 C 135.539 127.288,132.375 126.984,131.000 126.707 C 129.519 126.408,126.800 127.080,124.329 128.356 M454.193 168.750 C 453.092 170.944,454.460 239.853,455.952 257.388 C 457.469 275.213,457.627 275.002,442.727 274.992 C 436.552 274.988,428.575 274.502,425.000 273.912 C 421.425 273.322,412.425 272.263,405.000 271.557 C 390.197 270.151,387.381 270.634,386.346 274.756 C 385.581 277.806,387.782 280.120,392.772 281.512 C 396.012 282.416,396.542 282.989,396.822 285.887 C 396.999 287.721,396.581 292.434,395.893 296.361 C 394.672 303.338,394.631 307.568,395.765 309.421 C 396.706 310.957,398.045 306.027,399.497 295.680 C 400.926 285.502,402.011 283.000,405.000 283.000 C 408.676 283.000,409.417 285.533,408.159 293.801 C 407.514 298.036,407.004 303.075,407.025 305.000 C 407.072 309.254,409.121 312.275,411.373 311.410 C 412.268 311.067,413.029 310.722,413.064 310.643 C 413.099 310.564,413.487 305.179,413.925 298.675 C 414.908 284.078,415.320 283.493,423.901 284.489 C 433.229 285.571,435.456 289.333,432.863 299.629 C 431.289 305.879,433.048 312.000,436.418 312.000 C 439.946 312.000,440.818 310.193,441.498 301.472 C 442.399 289.924,442.763 288.558,444.541 290.034 C 445.606 290.918,446.000 293.495,446.000 299.575 C 446.000 308.557,447.400 313.262,449.928 312.775 C 452.114 312.355,453.837 306.454,454.612 296.740 C 455.311 287.989,456.137 286.000,459.075 286.000 C 460.082 286.000,462.105 285.454,463.571 284.786 L 466.237 283.571 465.573 246.036 C 464.567 189.107,463.743 170.593,462.128 168.650 C 460.295 166.446,455.317 166.509,454.193 168.750 M249.332 214.770 C 283.315 215.444,286.267 215.641,287.494 217.321 C 289.718 220.366,290.244 236.151,289.049 264.000 C 288.207 283.624,287.563 290.851,286.567 291.854 C 285.827 292.598,281.909 293.575,277.861 294.025 C 271.076 294.779,270.318 294.673,268.171 292.671 C 265.869 290.525,265.313 290.494,220.524 290.000 C 177.754 289.528,175.089 289.393,173.104 287.595 C 170.566 285.297,170.497 283.048,172.513 268.500 C 173.352 262.450,174.448 254.396,174.948 250.603 C 175.873 243.587,177.062 241.713,179.909 242.782 C 182.443 243.733,194.952 251.713,201.500 256.556 C 211.718 264.113,217.347 267.000,221.864 267.000 C 225.182 267.000,226.505 267.585,228.658 270.000 C 233.547 275.487,237.912 273.083,237.968 264.872 C 238.006 259.387,239.465 257.839,245.337 257.056 C 248.800 256.593,249.558 256.089,249.845 254.056 C 250.308 250.773,247.654 249.000,242.275 249.000 C 238.372 249.000,237.723 248.646,235.867 245.500 C 232.925 240.512,231.322 241.027,230.468 247.232 C 229.623 253.379,228.008 254.925,222.386 254.968 C 217.734 255.004,214.147 252.169,210.974 245.949 C 208.542 241.183,199.973 232.592,190.323 225.246 C 179.855 217.277,178.997 216.211,181.538 214.333 C 183.132 213.154,186.223 212.990,198.000 213.461 C 205.975 213.779,229.074 214.368,249.332 214.770 M396.000 317.000 C 396.000 317.550,398.223 318.000,400.941 318.000 C 403.659 318.000,406.160 317.550,406.500 317.000 C 406.884 316.379,405.010 316.000,401.559 316.000 C 398.502 316.000,396.000 316.450,396.000 317.000 M435.694 316.639 C 434.228 318.105,436.450 319.000,441.559 319.000 C 445.729 319.000,447.000 318.650,447.000 317.500 C 447.000 316.354,445.741 316.000,441.667 316.000 C 438.733 316.000,436.046 316.288,435.694 316.639 M131.938 401.868 C 134.327 406.969,134.093 411.000,131.408 411.000 C 130.606 411.000,129.512 409.846,128.975 408.435 C 127.787 405.309,127.680 397.000,128.829 397.000 C 129.285 397.000,130.684 399.191,131.938 401.868 " style="stroke: none; fill: black;">
                    </path></svg>