<svg id="svg-path" width="100%" height="100%" viewBox="0 0 512 512" version="1.1" xmlns="http://www.w3.org/2000/svg" style="fill-rule:evenodd;clip-rule:evenodd;stroke-linejoin:round;stroke-miterlimit:2;">
                        <path d="M294.020 136.211 C 289.106 137.305,287.779 138.079,282.189 143.109 C 280.117 144.974,277.428 147.356,276.214 148.402 C 274.797 149.623,271.770 150.518,267.753 150.902 L 261.500 151.500 258.892 156.851 C 257.384 159.944,253.903 164.400,250.642 167.411 C 245.405 172.246,245.000 172.941,245.000 177.087 C 245.000 182.756,243.183 185.329,238.107 186.850 C 235.890 187.514,230.479 190.535,226.083 193.564 C 215.749 200.682,209.463 203.452,199.000 205.500 C 185.761 208.090,181.367 211.964,179.405 222.775 C 178.258 229.100,175.450 233.330,169.150 238.222 C 161.514 244.152,160.452 245.818,156.352 258.302 C 152.208 270.919,151.995 277.038,155.488 283.148 C 156.856 285.542,157.987 288.625,158.000 290.000 C 158.013 291.375,158.913 296.100,160.000 300.500 C 162.600 311.026,162.563 318.753,159.879 325.315 C 155.553 335.893,153.981 338.954,151.214 342.188 C 148.273 345.623,140.000 358.465,140.000 359.593 C 140.000 359.947,138.222 364.185,136.049 369.011 C 133.875 373.838,131.792 380.197,131.419 383.144 C 130.656 389.175,129.127 391.383,123.845 394.079 C 116.053 398.055,114.455 403.341,117.611 414.701 C 118.497 417.891,119.802 422.562,120.511 425.082 C 122.915 433.630,126.227 439.972,130.122 443.492 C 134.322 447.286,135.735 447.679,138.244 445.750 C 139.551 444.746,139.992 441.745,140.487 430.500 C 141.041 417.915,143.774 401.429,145.809 398.397 C 146.189 397.831,148.664 395.896,151.308 394.096 C 153.953 392.296,156.514 389.851,156.999 388.662 C 157.484 387.473,158.788 385.170,159.896 383.544 C 161.004 381.918,162.874 378.011,164.052 374.861 C 166.578 368.106,171.242 362.362,178.632 356.903 C 186.412 351.155,190.323 346.945,194.749 339.555 C 199.248 332.043,206.658 323.722,208.351 324.279 C 210.223 324.894,210.259 328.703,208.447 334.160 C 207.196 337.925,206.932 340.753,207.445 344.887 C 207.829 347.974,208.731 356.575,209.451 364.000 C 210.171 371.425,211.485 379.408,212.372 381.740 C 214.310 386.840,213.225 393.656,209.414 400.320 C 205.321 407.479,205.592 408.013,220.750 422.654 C 235.504 436.906,241.758 441.268,244.747 439.395 C 248.137 437.270,247.361 433.736,239.942 417.500 C 236.454 409.869,234.873 402.112,234.686 391.712 C 234.508 381.843,234.624 381.213,237.250 377.755 C 240.304 373.733,240.670 370.221,238.895 361.944 C 237.997 357.760,238.113 355.163,239.510 348.145 C 241.530 337.997,245.831 323.222,246.970 322.519 C 247.407 322.248,248.830 322.857,250.132 323.872 C 253.874 326.788,258.690 329.000,261.295 329.000 C 264.798 329.000,266.493 326.412,268.500 318.000 C 269.484 313.875,271.303 307.325,272.541 303.445 C 273.780 299.564,275.100 292.814,275.476 288.445 C 277.379 266.335,279.449 254.665,282.476 249.000 C 283.210 247.625,284.287 243.920,284.869 240.767 C 286.865 229.940,294.813 216.485,297.073 220.104 C 297.553 220.872,297.696 223.750,297.390 226.500 C 297.014 229.891,297.264 232.045,298.168 233.194 C 299.113 234.397,306.178 236.237,322.500 239.532 C 335.150 242.086,352.909 245.711,361.965 247.588 C 371.021 249.464,380.075 251.000,382.085 251.000 C 386.196 251.000,386.360 250.647,389.495 235.000 C 391.669 224.151,391.558 223.331,387.750 222.131 C 383.304 220.731,341.323 212.343,327.000 209.993 C 323.425 209.407,319.712 208.688,318.750 208.396 C 316.709 207.777,316.430 204.096,318.250 201.817 C 319.677 200.030,330.581 192.765,335.936 190.033 C 344.559 185.634,348.000 179.439,348.000 168.316 C 348.000 155.104,343.027 148.106,328.151 140.389 C 319.380 135.838,304.099 133.968,294.020 136.211 M408.272 210.250 C 407.686 211.488,406.822 214.740,406.353 217.478 C 405.742 221.045,404.892 222.757,403.357 223.517 C 398.549 225.897,398.000 226.981,398.000 234.099 C 398.000 243.696,399.213 244.433,412.613 242.976 C 428.320 241.268,427.000 242.137,427.000 233.507 C 427.000 226.251,426.920 226.010,424.030 224.515 C 420.217 222.544,419.000 220.185,419.000 214.766 C 419.000 209.451,417.707 208.000,412.969 208.000 C 410.186 208.000,409.089 208.525,408.272 210.250 M249.518 312.944 C 249.140 314.135,248.306 314.936,247.665 314.722 C 246.236 314.246,245.614 311.448,246.452 309.264 C 247.467 306.618,250.406 310.145,249.518 312.944 " style="stroke: none; fill: black;">
                    </path></svg>