<svg id="svg-path" width="100%" height="100%" viewBox="0 0 512 512" version="1.1" xmlns="http://www.w3.org/2000/svg" style="fill-rule:evenodd;clip-rule:evenodd;stroke-linejoin:round;stroke-miterlimit:2;">
                        <path d="M269.718 133.616 C 269.379 133.954,260.039 134.292,248.962 134.366 C 229.079 134.498,228.798 134.530,226.911 136.861 C 224.316 140.066,224.509 142.600,227.584 145.675 C 230.368 148.459,230.102 148.454,245.000 146.038 C 248.025 145.547,254.143 145.113,258.595 145.073 C 269.424 144.975,269.537 145.127,270.482 161.000 C 270.891 167.875,271.608 178.225,272.076 184.000 C 274.086 208.835,275.075 237.505,274.002 239.877 C 273.021 242.046,272.560 242.184,268.714 241.451 C 266.396 241.010,260.450 240.689,255.500 240.740 C 229.823 241.000,219.859 241.046,213.500 240.933 C 209.650 240.864,199.655 241.131,191.290 241.527 L 176.080 242.245 165.290 237.446 C 159.355 234.807,146.175 228.641,136.000 223.743 C 125.825 218.846,114.729 213.719,111.342 212.350 C 103.809 209.305,102.007 207.417,100.881 201.393 C 99.551 194.275,98.717 193.690,91.049 194.510 C 82.053 195.472,79.248 197.084,78.447 201.752 C 78.093 203.814,76.498 207.374,74.902 209.663 C 73.224 212.070,72.000 215.130,72.000 216.916 C 72.000 219.539,72.920 220.681,78.110 224.502 C 81.471 226.976,84.915 229.000,85.764 229.000 C 86.613 229.000,88.969 227.200,91.000 225.000 C 93.218 222.597,95.597 221.000,96.958 221.000 C 101.454 221.000,127.973 231.913,131.914 235.384 C 133.919 237.151,149.956 245.123,156.287 247.502 C 158.921 248.491,162.234 250.678,163.650 252.361 L 166.225 255.421 165.863 292.791 C 165.429 337.438,164.121 333.640,179.500 332.378 C 203.540 330.406,231.483 331.626,234.643 334.786 C 236.271 336.414,236.249 337.009,233.437 366.500 C 232.650 374.750,232.003 383.300,231.998 385.500 C 231.982 392.789,230.324 396.618,226.375 398.492 C 224.025 399.607,221.700 399.974,219.643 399.554 C 217.914 399.201,209.300 398.506,200.500 398.009 C 176.068 396.629,164.134 395.344,162.230 393.890 C 161.278 393.163,157.946 390.191,154.824 387.284 C 151.703 384.378,148.215 382.000,147.074 382.000 C 144.410 382.000,141.000 385.402,141.000 388.060 C 141.000 391.324,150.622 400.838,154.696 401.603 C 156.592 401.958,159.536 403.421,161.238 404.854 C 164.882 407.920,168.868 408.548,193.196 409.892 C 202.378 410.400,210.326 411.083,210.857 411.411 C 211.387 411.739,224.620 412.049,240.263 412.098 C 271.909 412.199,290.092 413.082,306.500 415.317 C 313.456 416.264,329.965 417.019,351.409 417.371 L 385.318 417.928 388.694 414.964 C 390.910 413.018,393.153 412.000,395.225 412.000 C 397.781 412.000,399.394 410.907,403.717 406.250 C 410.470 398.975,411.227 396.452,407.596 393.329 C 406.107 392.048,404.299 391.000,403.579 391.000 C 401.963 391.000,398.090 393.900,391.310 400.187 L 386.120 405.000 361.107 405.000 C 334.958 405.000,331.621 404.531,330.399 400.681 C 329.383 397.480,330.978 367.013,332.450 361.500 C 333.184 358.750,334.036 353.184,334.344 349.132 C 335.155 338.452,336.183 337.580,347.000 338.388 C 351.675 338.737,359.325 339.906,364.000 340.985 C 368.675 342.065,374.105 342.960,376.068 342.974 C 378.030 342.988,382.980 343.889,387.068 344.976 C 400.819 348.633,402.214 347.971,403.260 337.287 C 404.846 321.086,405.280 283.705,404.029 271.000 C 402.047 250.873,401.217 245.898,399.533 244.036 C 397.427 241.709,384.054 240.768,348.000 240.409 C 314.957 240.081,291.416 238.816,289.888 237.288 C 287.999 235.399,287.206 228.289,286.565 207.500 C 285.962 187.942,284.909 174.851,282.926 162.220 C 281.621 153.911,282.963 148.641,286.757 147.182 C 288.265 146.602,296.535 145.828,305.134 145.464 C 313.732 145.099,321.832 144.272,323.134 143.627 C 326.130 142.141,326.807 137.550,324.420 134.912 C 322.801 133.122,321.016 133.000,296.512 133.000 C 282.114 133.000,270.056 133.277,269.718 133.616 M91.616 211.607 C 92.508 215.162,90.161 216.593,87.611 214.050 C 85.358 211.803,86.101 209.000,88.950 209.000 C 90.284 209.000,91.182 209.878,91.616 211.607 M359.099 251.810 C 388.514 252.545,390.000 252.821,390.000 257.551 C 390.000 259.335,387.891 262.815,386.679 263.032 C 386.580 263.049,380.493 263.672,373.151 264.416 C 363.441 265.400,359.353 266.219,358.151 267.420 C 355.703 269.868,355.775 292.621,358.250 299.035 C 360.778 305.581,363.413 306.764,377.327 307.596 C 384.132 308.003,389.748 308.827,390.760 309.568 C 392.143 310.579,392.447 312.099,392.240 316.976 C 392.097 320.351,391.360 324.596,390.603 326.409 C 388.642 331.101,385.348 331.453,371.290 328.476 C 363.883 326.908,356.349 326.000,350.739 326.000 C 345.868 326.000,338.872 325.578,335.192 325.063 C 313.403 322.012,208.542 318.451,187.789 320.058 C 178.258 320.796,178.551 321.742,178.206 289.039 C 177.865 256.706,178.144 255.172,184.732 253.198 C 187.559 252.352,201.604 251.978,232.616 251.926 C 256.752 251.885,278.525 251.466,281.000 250.994 C 285.327 250.169,299.225 250.314,359.099 251.810 M390.464 275.350 C 392.555 276.879,393.689 285.515,392.577 291.441 C 391.654 296.361,389.597 297.134,379.495 296.358 C 371.212 295.721,370.837 295.585,369.334 292.680 C 366.684 287.554,369.053 277.257,373.364 275.170 C 376.549 273.628,388.278 273.751,390.464 275.350 M317.702 335.088 C 322.696 336.703,322.661 335.869,319.012 367.000 C 318.464 371.675,318.001 379.100,317.984 383.500 C 317.911 401.991,314.497 405.131,297.886 401.978 C 290.360 400.549,264.043 398.646,254.786 398.861 C 247.537 399.029,246.972 398.887,245.409 396.501 C 244.006 394.360,243.850 392.358,244.415 383.731 C 244.784 378.104,245.506 370.125,246.020 366.000 C 246.534 361.875,247.491 353.587,248.146 347.582 C 248.998 339.774,249.828 336.172,251.062 334.938 C 252.639 333.361,255.425 333.250,283.643 333.633 C 300.922 333.868,315.909 334.508,317.702 335.088 " style="stroke: none; fill: black;">
                    </path></svg>