<svg id="svg-path" width="100%" height="100%" viewBox="0 0 512 512" version="1.1" xmlns="http://www.w3.org/2000/svg" style="fill-rule:evenodd;clip-rule:evenodd;stroke-linejoin:round;stroke-miterlimit:2;">
                        <path d="M436.666 137.191 C 435.246 138.461,431.519 144.675,428.383 151.000 C 425.248 157.325,421.261 164.750,419.522 167.500 C 416.572 172.167,407.000 191.350,407.000 192.595 C 407.000 192.904,405.458 196.384,403.573 200.328 C 401.688 204.273,399.818 209.300,399.416 211.500 C 398.229 218.005,396.240 221.731,392.366 224.702 C 385.467 229.995,384.761 230.949,385.605 233.837 C 386.034 235.301,386.455 240.775,386.542 246.000 C 387.005 273.868,388.210 306.631,389.080 315.000 C 389.624 320.225,390.227 326.075,390.422 328.000 C 390.617 329.925,390.834 340.725,390.904 352.000 C 390.973 363.275,391.458 373.175,391.980 374.000 C 392.797 375.291,397.221 375.459,423.715 375.208 C 453.950 374.922,459.255 374.385,460.362 371.500 C 460.640 370.776,460.394 363.954,459.816 356.341 C 459.220 348.487,458.993 329.955,459.292 313.500 C 459.726 289.521,459.457 280.085,457.735 259.000 C 456.393 242.556,455.564 222.846,455.400 203.500 C 455.095 167.276,453.366 139.509,451.288 137.431 C 450.501 136.644,448.126 136.000,446.010 136.000 C 443.895 136.000,441.508 135.748,440.706 135.441 C 439.905 135.133,438.087 135.921,436.666 137.191 M445.868 149.318 C 448.051 161.950,448.309 167.181,448.211 196.817 C 448.108 228.180,447.626 232.503,443.985 234.777 C 438.503 238.201,397.458 238.887,394.180 235.609 C 392.964 234.393,393.214 233.549,395.979 229.531 C 397.745 226.964,399.838 224.616,400.632 224.311 C 402.584 223.562,404.722 219.214,406.020 213.352 C 406.611 210.683,407.934 206.700,408.961 204.500 C 409.987 202.300,413.089 195.653,415.854 189.729 C 418.619 183.805,422.437 176.380,424.339 173.229 C 426.241 170.078,430.321 162.467,433.406 156.315 C 441.690 139.792,443.997 138.496,445.868 149.318 M130.463 181.538 C 124.200 183.844,119.636 188.262,115.621 195.902 C 113.503 199.932,110.573 203.868,108.720 205.170 C 103.853 208.592,103.370 209.211,99.988 216.369 C 97.568 221.491,95.146 224.544,89.370 229.752 C 79.806 238.377,74.583 246.968,69.160 263.000 C 66.835 269.875,63.710 279.100,62.216 283.500 C 60.077 289.802,59.509 293.304,59.543 300.000 C 59.589 309.230,60.717 312.445,65.637 317.364 C 70.184 321.912,83.093 329.946,88.379 331.518 C 94.121 333.226,96.000 334.586,96.000 337.038 C 96.000 339.088,90.765 343.502,83.583 347.508 C 80.878 349.017,76.603 352.253,74.083 354.699 C 71.562 357.146,67.818 359.836,65.763 360.677 C 61.505 362.420,56.329 367.841,55.404 371.526 C 54.539 374.971,56.587 377.716,65.198 384.652 C 79.383 396.080,86.499 399.346,93.424 397.608 C 97.253 396.648,97.557 393.264,94.475 385.940 C 91.676 379.290,91.583 374.274,94.210 371.647 C 95.482 370.375,104.125 365.322,110.500 362.124 C 114.913 359.909,131.142 349.177,133.750 346.747 C 134.988 345.594,136.000 344.080,136.000 343.381 C 136.000 342.683,137.073 340.864,138.385 339.338 C 140.372 337.029,141.025 336.776,142.289 337.825 C 143.889 339.153,148.290 347.766,149.532 352.000 C 149.935 353.375,152.060 356.169,154.254 358.208 C 157.330 361.068,158.444 363.013,159.122 366.708 C 160.443 373.909,161.979 376.938,165.141 378.573 C 168.975 380.556,171.077 379.394,182.191 369.149 C 195.567 356.817,198.258 353.530,198.388 349.360 C 198.551 344.146,196.347 343.052,190.126 345.262 C 187.434 346.218,183.428 347.000,181.224 347.000 C 177.684 347.000,177.138 346.680,176.538 344.250 C 176.164 342.738,174.586 339.475,173.030 337.000 C 171.475 334.525,169.903 330.925,169.537 329.000 C 168.716 324.677,162.261 305.433,160.457 301.929 C 157.310 295.815,147.899 289.284,139.725 287.541 C 135.234 286.584,133.000 283.603,133.000 278.571 C 133.000 273.422,135.179 270.537,138.399 271.423 C 150.397 274.725,154.320 273.043,174.850 255.796 C 178.542 252.694,182.076 250.701,185.225 249.946 C 188.781 249.093,190.000 248.331,190.000 246.959 C 190.000 245.947,189.550 244.840,189.000 244.500 C 187.096 243.323,187.983 239.965,190.500 238.818 C 193.236 237.571,193.624 235.464,191.839 231.547 C 190.014 227.540,185.670 227.749,181.947 232.022 C 180.515 233.666,173.608 237.846,166.217 241.541 C 150.846 249.227,147.951 249.565,144.282 244.102 C 140.847 238.987,141.329 237.614,148.250 232.808 C 151.765 230.367,155.225 227.022,156.157 225.165 C 158.635 220.228,160.662 218.310,170.185 211.890 C 181.144 204.503,185.831 202.577,190.752 203.437 C 201.599 205.334,203.000 205.310,203.000 203.223 C 203.000 202.135,202.325 200.685,201.500 200.000 C 199.108 198.015,199.723 196.025,203.931 192.134 C 207.216 189.097,207.769 188.035,207.298 185.668 C 206.513 181.717,202.895 180.184,199.541 182.381 C 198.143 183.297,197.000 184.627,197.000 185.336 C 197.000 188.137,191.044 192.330,185.273 193.592 C 182.098 194.287,176.939 195.618,173.808 196.551 C 170.677 197.483,167.034 197.974,165.713 197.643 C 164.392 197.311,161.553 194.686,159.405 191.810 C 151.913 181.776,140.660 177.783,130.463 181.538 M448.139 242.911 C 450.327 244.682,450.554 245.802,451.240 258.161 C 451.647 265.498,452.343 275.325,452.787 280.000 C 453.231 284.675,453.278 297.950,452.892 309.499 C 452.506 321.049,452.352 330.760,452.549 331.080 C 452.747 331.399,452.985 338.751,453.080 347.418 C 453.223 360.549,452.991 363.438,451.685 364.743 C 450.004 366.425,441.660 367.310,416.894 368.436 C 404.685 368.991,403.058 368.868,401.049 367.241 C 398.098 364.851,397.097 359.222,397.044 344.718 C 397.020 338.238,396.353 324.063,395.563 313.218 C 394.772 302.373,393.845 283.065,393.501 270.311 C 392.895 247.798,392.937 247.063,394.939 245.061 C 396.873 243.127,398.183 242.996,416.250 242.942 C 426.837 242.911,437.300 242.512,439.500 242.057 C 445.441 240.829,445.584 240.843,448.139 242.911 M228.229 283.725 C 226.441 284.366,223.746 289.897,224.396 291.590 C 225.738 295.086,232.000 291.023,232.000 286.658 C 232.000 284.818,229.848 283.144,228.229 283.725 M278.105 287.373 C 275.937 289.986,277.896 292.000,282.607 292.000 C 286.569 292.000,287.000 291.766,287.000 289.617 C 287.000 286.212,280.442 284.558,278.105 287.373 M297.932 295.645 C 293.919 298.945,293.036 300.044,293.015 301.760 C 292.998 303.195,293.535 303.667,304.538 311.893 C 309.267 315.428,313.468 319.489,314.741 321.754 C 315.932 323.872,317.855 326.463,319.014 327.513 C 320.815 329.142,321.257 329.207,322.046 327.960 C 322.554 327.157,322.974 326.050,322.979 325.500 C 323.002 323.226,313.081 310.173,309.085 307.220 C 305.710 304.725,305.123 302.550,307.572 301.611 C 309.282 300.955,313.000 302.543,313.000 303.928 C 313.000 305.593,315.961 305.896,317.471 304.386 C 319.335 302.523,319.553 295.059,317.750 294.867 C 317.063 294.793,314.475 294.652,312.000 294.554 C 309.525 294.455,306.119 294.026,304.432 293.599 C 301.885 292.955,300.781 293.302,297.932 295.645 M237.000 298.326 C 237.000 300.998,241.323 305.536,242.926 304.546 C 245.635 302.871,242.433 296.000,238.943 296.000 C 237.576 296.000,237.000 296.689,237.000 298.326 M254.667 298.667 C 253.195 300.138,254.143 302.744,256.547 303.839 C 260.213 305.510,262.347 305.275,263.737 303.049 C 264.728 301.463,264.666 300.809,263.406 299.549 C 261.860 298.003,255.929 297.404,254.667 298.667 M336.000 304.290 C 332.766 305.920,332.216 309.493,334.937 311.193 C 336.586 312.223,337.000 313.512,337.000 317.618 C 337.000 320.964,337.523 323.189,338.500 324.000 C 339.454 324.791,340.000 327.000,340.000 330.063 C 340.000 335.947,341.200 336.891,344.492 333.599 C 347.345 330.746,347.696 327.439,345.480 324.275 C 344.570 322.976,343.799 319.104,343.559 314.635 C 342.973 303.687,341.417 301.559,336.000 304.290 M352.180 304.696 C 352.641 307.089,358.826 310.574,360.191 309.209 C 360.930 308.470,360.475 307.384,358.668 305.577 C 355.688 302.597,351.671 302.051,352.180 304.696 M224.000 312.525 C 224.000 315.351,227.880 317.490,231.132 316.458 C 234.024 315.540,233.226 313.208,229.316 311.150 C 225.752 309.274,224.000 309.727,224.000 312.525 M361.035 311.934 C 360.466 312.998,360.000 315.023,360.000 316.434 C 360.000 318.440,360.499 319.000,362.284 319.000 C 365.363 319.000,368.724 313.577,366.961 311.454 C 365.261 309.405,362.259 309.648,361.035 311.934 M263.813 311.970 C 256.724 312.691,254.000 314.102,254.000 317.055 C 254.000 319.457,256.752 320.218,261.016 318.995 C 262.925 318.448,267.752 318.000,271.743 318.000 C 278.770 318.000,279.000 317.923,279.000 315.559 C 279.000 314.216,278.663 312.926,278.250 312.690 C 276.451 311.664,269.992 311.342,263.813 311.970 M288.481 315.389 C 285.890 319.343,287.492 323.239,290.838 321.121 C 292.526 320.052,292.903 313.855,291.314 313.294 C 290.661 313.064,289.387 314.007,288.481 315.389 M359.718 324.425 C 358.934 325.209,357.987 328.456,357.612 331.641 C 357.047 336.450,357.251 337.861,358.815 339.966 C 361.036 342.955,366.000 344.026,366.000 341.517 C 366.000 340.628,365.272 338.492,364.382 336.771 C 362.782 333.677,362.799 333.613,365.891 331.071 C 369.677 327.959,369.859 325.713,366.453 324.161 C 363.098 322.632,361.446 322.697,359.718 324.425 M253.041 327.900 C 252.186 329.965,250.403 331.397,246.847 332.875 C 242.686 334.604,241.908 335.329,242.177 337.225 C 242.588 340.117,246.664 340.742,250.884 338.560 C 252.543 337.702,255.011 337.000,256.369 337.000 C 262.358 337.000,263.796 333.331,259.932 327.904 C 257.277 324.175,254.585 324.173,253.041 327.900 M290.357 335.513 C 288.926 339.240,296.277 341.781,299.000 338.500 C 299.993 337.303,299.993 336.697,299.000 335.500 C 297.352 333.514,291.120 333.523,290.357 335.513 M262.807 338.750 C 260.409 341.543,259.953 342.714,260.604 344.410 C 261.574 346.938,264.600 346.264,267.441 342.888 C 269.489 340.453,269.808 339.474,268.907 338.388 C 267.328 336.486,264.613 336.647,262.807 338.750 M330.000 340.943 C 330.000 345.082,339.282 348.033,340.698 344.344 C 341.602 341.988,337.517 339.000,333.389 339.000 C 330.700 339.000,330.000 339.401,330.000 340.943 M227.362 343.208 C 224.416 346.479,223.913 347.609,224.604 349.410 C 226.229 353.645,234.485 348.389,233.794 343.559 C 233.378 340.649,229.841 340.457,227.362 343.208 M345.126 343.348 C 343.777 344.974,345.936 347.265,350.425 348.971 C 352.812 349.879,353.635 349.788,354.923 348.473 C 356.362 347.004,356.238 346.652,353.500 344.437 C 350.162 341.737,346.824 341.303,345.126 343.348 M296.944 345.844 C 293.949 348.270,294.939 351.000,298.814 351.000 C 302.116 351.000,305.525 347.810,304.653 345.537 C 303.847 343.438,299.713 343.602,296.944 345.844 M316.092 348.131 C 313.259 351.173,313.348 354.000,316.277 354.000 C 319.710 354.000,323.166 351.171,322.807 348.653 C 322.377 345.635,318.685 345.348,316.092 348.131 M215.058 353.430 C 214.405 354.217,214.012 356.579,214.185 358.680 C 214.436 361.728,214.904 362.500,216.500 362.500 C 219.135 362.500,221.005 355.915,219.042 353.550 C 217.446 351.627,216.576 351.601,215.058 353.430 M336.250 357.009 C 333.255 358.242,333.280 361.781,336.289 362.536 C 340.036 363.477,344.194 361.385,343.819 358.748 C 343.461 356.224,340.056 355.442,336.250 357.009 M227.944 358.844 C 225.183 361.080,225.910 364.010,229.219 363.978 C 232.464 363.946,236.460 360.641,235.687 358.628 C 234.851 356.449,230.761 356.563,227.944 358.844 M269.494 359.009 C 268.158 361.171,270.148 363.937,273.491 364.564 C 277.327 365.284,279.000 364.596,279.000 362.301 C 279.000 359.011,271.169 356.299,269.494 359.009 M227.750 370.080 C 225.830 371.198,225.396 374.509,227.037 375.523 C 228.718 376.562,235.796 374.975,236.390 373.425 C 237.873 369.560,232.329 367.413,227.750 370.080 M262.362 372.500 C 261.463 374.842,262.701 376.936,265.647 378.056 C 271.406 380.245,273.071 376.234,267.750 372.989 C 263.847 370.609,263.113 370.543,262.362 372.500 " style="stroke: none; fill: black;">
                    </path></svg>