<svg id="svg-path" width="100%" height="100%" viewBox="0 0 512 512" version="1.1" xmlns="http://www.w3.org/2000/svg" style="fill-rule:evenodd;clip-rule:evenodd;stroke-linejoin:round;stroke-miterlimit:2;">
                        <path d="M204.500 35.402 C 187.329 40.847,176.000 56.336,176.000 74.366 L 176.000 80.000 167.489 80.000 C 156.648 80.000,151.674 82.176,145.187 89.757 C 138.388 97.702,135.970 100.146,131.586 103.503 C 129.434 105.151,125.384 108.265,122.586 110.423 C 119.789 112.580,114.575 116.590,111.000 119.334 C 105.181 123.800,101.707 126.759,91.500 135.942 C 89.850 137.427,85.350 141.127,81.500 144.165 C 72.534 151.240,71.854 152.117,71.263 157.359 C 70.210 166.698,77.569 173.732,85.421 170.892 C 91.143 168.823,95.341 164.708,98.917 157.663 C 102.984 149.650,106.083 146.419,115.866 139.987 C 128.892 131.422,130.199 133.820,121.866 151.000 C 119.065 156.775,116.129 163.750,115.341 166.500 C 113.922 171.456,113.636 172.222,110.674 179.000 C 109.833 180.925,108.392 184.750,107.472 187.500 C 106.552 190.250,104.676 194.750,103.303 197.500 C 101.930 200.250,99.227 206.325,97.297 211.000 C 95.367 215.675,92.710 221.876,91.394 224.780 C 90.077 227.683,89.000 230.258,89.000 230.500 C 89.000 230.742,87.915 233.317,86.590 236.220 C 85.264 239.124,83.055 244.650,81.681 248.500 C 76.830 262.095,73.147 271.891,71.465 275.674 C 70.529 277.778,69.097 281.075,68.284 283.000 C 64.332 292.357,61.028 297.240,52.867 305.788 L 44.000 315.076 44.000 321.417 C 44.000 327.455,44.137 327.814,46.870 328.946 C 50.206 330.328,54.471 328.950,59.500 324.867 C 62.888 322.117,69.736 318.683,75.103 317.043 C 81.466 315.099,84.886 309.373,84.986 300.500 C 85.063 293.630,89.541 287.111,102.473 275.040 C 107.200 270.628,109.360 266.739,111.940 258.000 C 118.711 235.058,126.120 220.958,130.517 222.645 C 131.908 223.179,132.049 224.381,131.486 230.885 C 130.843 238.318,129.648 243.732,127.877 247.236 C 127.395 248.191,127.000 249.858,127.000 250.939 C 127.000 253.100,126.165 255.348,121.829 264.870 C 116.303 277.004,116.167 278.673,119.805 289.734 C 121.571 295.105,123.013 300.573,123.008 301.884 C 122.995 305.699,120.815 312.176,118.089 316.500 C 115.001 321.396,114.538 330.953,117.191 335.000 C 118.092 336.375,119.541 339.939,120.412 342.921 C 122.609 350.452,125.057 354.067,129.775 356.750 C 132.633 358.375,134.467 358.327,137.932 356.535 C 141.915 354.475,142.365 351.222,140.029 341.383 C 136.163 325.106,137.388 314.449,144.948 298.608 C 146.637 295.070,148.514 289.773,149.119 286.838 C 151.304 276.238,152.024 272.399,152.933 266.500 C 154.168 258.493,161.283 233.142,165.001 223.500 C 165.425 222.400,166.325 219.475,167.000 217.000 C 167.675 214.525,168.595 211.600,169.043 210.500 C 171.174 205.267,173.265 197.238,175.449 185.902 C 178.226 171.488,179.948 165.848,184.187 157.286 C 187.693 150.202,190.054 147.670,192.676 148.180 C 195.557 148.740,194.967 160.673,191.181 178.373 C 189.432 186.553,188.000 195.652,188.000 198.593 C 188.000 204.646,184.972 212.243,180.134 218.331 C 176.026 223.500,174.693 228.083,175.212 235.255 C 175.592 240.504,176.065 241.669,178.817 244.128 C 182.964 247.833,186.156 248.539,190.748 246.769 C 195.037 245.115,198.265 239.807,200.033 231.500 C 201.576 224.255,201.920 222.908,208.079 200.000 C 211.672 186.637,216.075 153.215,216.905 133.000 L 217.500 118.500 222.592 116.000 C 225.393 114.625,229.443 112.158,231.592 110.517 C 233.742 108.876,236.396 106.851,237.491 106.017 C 248.475 97.650,254.965 85.432,254.989 73.071 C 255.013 61.107,248.390 48.210,238.617 41.192 C 229.655 34.756,214.597 32.200,204.500 35.402 M266.805 153.009 C 261.808 157.128,260.198 162.664,259.057 179.647 C 258.367 189.920,257.572 194.986,256.153 198.147 C 252.937 205.315,252.000 209.022,252.000 214.584 C 252.000 217.491,251.577 220.983,251.060 222.343 C 250.542 223.704,249.807 228.659,249.426 233.354 C 248.774 241.402,248.891 242.192,251.469 247.123 C 253.602 251.202,254.063 253.141,253.563 255.927 C 253.211 257.892,252.338 267.612,251.623 277.526 C 250.384 294.720,250.190 295.756,247.412 299.949 C 244.713 304.023,244.474 305.156,244.151 315.423 C 243.693 329.954,245.826 339.101,251.221 345.741 C 251.806 346.460,251.916 348.351,251.483 350.241 C 249.497 358.910,250.792 372.866,255.106 389.261 L 257.411 398.022 254.744 403.261 C 251.384 409.864,250.606 415.735,251.999 424.000 C 252.601 427.575,253.454 433.213,253.895 436.528 C 255.390 447.785,259.365 453.338,265.553 452.816 C 270.158 452.428,272.487 449.610,274.521 441.967 C 276.446 434.734,276.373 417.230,274.386 409.500 C 271.800 399.440,271.748 399.090,272.559 397.267 C 274.307 393.338,275.521 385.168,274.841 381.899 C 274.444 379.988,273.466 372.461,272.667 365.173 C 271.394 353.564,270.861 351.401,268.357 347.711 C 264.026 341.327,263.955 340.865,265.181 327.081 C 266.051 317.295,266.042 312.836,265.143 308.367 C 264.009 302.733,264.076 302.282,266.833 297.000 C 268.411 293.975,270.276 289.025,270.976 286.000 C 271.676 282.975,272.643 279.195,273.125 277.601 C 273.606 276.006,274.000 270.507,274.000 265.381 C 274.000 257.791,273.611 255.359,271.906 252.280 C 270.754 250.201,269.404 248.072,268.906 247.550 C 267.266 245.830,268.362 237.498,272.069 223.500 C 275.210 211.643,275.334 208.305,272.875 201.892 C 272.091 199.849,272.290 198.545,273.790 195.874 C 277.578 189.130,284.000 166.162,284.000 159.359 C 284.000 150.458,274.263 146.862,266.805 153.009 M359.884 151.514 C 352.440 153.554,348.094 156.019,342.015 161.646 C 334.068 169.004,330.674 176.588,330.181 188.091 C 329.620 201.193,333.310 210.254,342.902 219.318 C 345.706 221.968,347.993 224.443,347.985 224.818 C 347.948 226.452,346.011 228.023,338.376 232.615 C 322.009 242.457,311.197 253.229,305.657 265.215 C 301.977 273.176,299.000 284.197,299.000 289.861 C 299.000 297.413,291.991 318.820,285.059 332.440 C 282.277 337.907,280.000 343.615,280.000 345.125 C 280.000 351.875,284.528 358.000,289.518 358.000 C 293.082 358.000,304.335 351.014,306.306 347.578 C 307.046 346.287,307.498 340.956,307.499 333.500 L 307.500 321.500 313.017 311.000 C 318.019 301.478,318.990 300.253,323.437 297.847 C 326.134 296.387,328.922 295.417,329.633 295.689 C 331.178 296.282,335.000 306.084,335.000 309.453 C 335.000 310.953,333.477 313.248,330.877 315.666 C 327.175 319.110,322.000 328.186,322.000 331.238 C 322.000 331.887,319.115 339.862,315.589 348.959 C 312.063 358.057,308.701 367.750,308.118 370.500 C 307.534 373.250,306.594 377.612,306.029 380.193 C 304.096 389.012,304.882 394.849,309.436 405.500 C 310.142 407.150,311.232 409.759,311.859 411.297 C 312.561 413.019,312.999 420.708,312.996 431.297 C 312.993 446.638,312.780 448.849,311.026 451.725 C 307.279 457.870,302.261 463.027,293.250 469.990 C 288.367 473.763,288.000 474.346,288.000 478.323 C 288.000 480.675,288.540 483.140,289.200 483.800 C 289.898 484.498,293.242 485.000,297.189 485.000 C 303.830 485.000,304.618 484.708,309.362 480.487 C 311.886 478.241,315.762 476.221,320.632 474.612 C 328.299 472.081,329.194 470.613,330.085 459.118 C 331.380 442.397,334.351 435.279,343.161 427.791 C 345.938 425.431,348.992 422.825,349.948 422.000 C 352.667 419.653,354.159 416.202,356.601 406.605 C 357.846 401.711,359.572 397.000,360.436 396.135 C 361.865 394.706,362.178 394.742,363.883 396.532 C 364.914 397.614,367.473 403.000,369.569 408.500 C 374.012 420.160,379.064 429.225,383.563 433.614 C 385.319 435.326,389.935 437.975,393.821 439.499 C 397.706 441.024,402.135 443.576,403.663 445.170 C 406.248 447.868,406.480 448.811,407.014 458.784 C 407.902 475.344,409.164 476.729,425.246 478.776 C 429.827 479.359,435.180 480.832,438.346 482.381 C 442.602 484.463,445.165 485.000,450.850 485.000 L 458.000 485.000 458.000 481.687 C 458.000 477.570,455.593 475.176,443.483 467.247 C 428.503 457.439,426.882 454.294,424.546 430.500 C 423.735 422.250,422.561 413.475,421.935 411.000 C 421.310 408.525,420.386 402.675,419.882 398.000 C 419.378 393.325,418.528 385.450,417.993 380.500 C 417.458 375.550,416.624 363.850,416.139 354.500 C 415.209 336.545,414.878 334.846,410.515 325.624 C 407.886 320.067,407.821 319.558,409.007 313.968 C 410.558 306.658,409.856 303.813,404.922 297.408 C 401.684 293.204,401.000 291.524,401.000 287.780 C 401.000 281.469,402.936 279.975,407.763 282.564 C 415.009 286.451,421.604 293.626,425.898 302.295 C 429.462 309.489,430.000 311.449,430.000 317.240 C 430.000 326.585,432.433 332.559,438.759 338.750 C 442.758 342.664,443.518 343.000,448.376 343.000 C 454.642 343.000,458.000 340.309,458.000 335.287 C 458.000 332.292,457.192 330.559,447.766 313.359 C 445.312 308.881,442.524 303.256,441.570 300.859 C 440.616 298.461,439.152 294.925,438.316 293.000 C 437.480 291.075,436.448 288.600,436.023 287.500 C 435.597 286.400,434.748 284.252,434.135 282.726 C 433.312 280.676,433.320 278.833,434.167 275.667 C 435.856 269.351,434.599 266.200,427.918 260.000 C 424.658 256.975,421.993 254.138,421.996 253.695 C 422.003 252.291,414.326 241.606,411.355 238.886 C 409.785 237.448,405.012 233.947,400.750 231.105 C 391.646 225.036,391.189 223.475,396.761 217.470 C 400.930 212.978,402.180 210.993,406.133 202.597 C 407.020 200.713,407.482 196.149,407.450 189.597 C 407.403 180.273,407.149 178.988,404.130 172.821 C 398.705 161.742,389.012 154.343,375.736 151.147 C 369.951 149.754,365.965 149.847,359.884 151.514 " style="stroke: none; fill: black;">
                    </path></svg>