<svg id="svg-path" width="100%" height="100%" viewBox="0 0 512 512" version="1.1" xmlns="http://www.w3.org/2000/svg" style="fill-rule:evenodd;clip-rule:evenodd;stroke-linejoin:round;stroke-miterlimit:2;">
                        <path d="M268.326 79.099 C 266.376 79.664,264.334 81.341,263.030 83.451 C 261.323 86.214,260.185 86.945,257.204 87.192 L 253.500 87.500 252.917 96.004 C 252.253 105.695,251.729 106.923,245.802 112.673 C 243.436 114.968,239.931 119.468,238.013 122.673 C 236.095 125.878,231.710 132.375,228.270 137.111 C 217.375 152.108,216.353 158.105,223.375 165.841 C 226.248 169.007,236.470 173.674,244.720 175.587 C 251.425 177.142,254.000 178.408,254.000 180.148 C 254.000 181.486,242.224 193.984,237.294 197.876 C 234.943 199.734,229.122 202.659,224.359 204.376 C 212.188 208.767,210.434 211.532,212.416 223.208 L 213.214 227.916 207.857 233.236 C 204.911 236.162,199.939 239.841,196.809 241.411 C 188.548 245.557,186.752 248.024,182.552 261.000 C 180.504 267.325,176.673 277.675,174.038 284.000 C 171.404 290.325,167.998 298.650,166.469 302.500 C 160.036 318.708,159.300 319.850,146.936 332.808 C 142.350 337.614,134.829 347.319,129.786 354.935 C 124.847 362.396,119.122 370.975,117.065 374.000 C 108.097 387.187,95.000 410.189,95.000 412.753 C 95.000 413.276,92.304 416.757,89.009 420.490 C 83.022 427.272,80.589 432.514,81.586 436.486 C 82.088 438.488,85.777 441.205,101.273 450.989 C 110.981 457.118,119.565 460.000,128.111 460.000 C 142.333 460.000,144.910 454.707,135.698 444.420 C 129.540 437.545,124.000 428.826,124.000 426.011 C 124.000 424.934,125.863 420.328,128.140 415.776 C 132.079 407.901,133.681 406.124,161.166 379.135 C 177.053 363.534,192.022 349.134,194.431 347.135 C 196.839 345.136,202.565 340.301,207.155 336.391 C 211.745 332.480,216.539 328.738,217.809 328.074 C 222.146 325.806,230.166 329.005,244.454 338.700 C 253.761 345.016,255.000 346.365,255.000 350.181 C 255.000 352.678,253.462 353.988,240.750 362.326 C 232.912 367.466,224.475 372.860,222.000 374.311 C 219.525 375.763,215.367 379.175,212.761 381.893 C 208.564 386.268,207.210 387.019,200.950 388.443 C 194.315 389.952,187.030 393.524,185.484 396.026 C 183.033 399.991,186.453 409.229,197.802 429.305 C 204.288 440.778,209.734 447.313,215.082 450.042 C 219.916 452.508,221.103 452.493,224.365 449.927 C 227.710 447.296,227.740 444.267,224.500 436.000 C 221.601 428.601,221.171 419.504,223.507 414.986 C 224.594 412.885,227.522 410.826,234.010 407.602 C 238.958 405.143,244.466 402.090,246.250 400.816 C 251.422 397.122,260.808 392.249,286.000 380.178 C 292.545 377.042,298.062 372.622,301.034 368.134 C 307.676 358.107,303.951 346.191,286.456 321.500 C 278.697 310.550,273.970 300.034,273.320 292.272 C 272.478 282.231,273.897 278.767,280.614 274.470 C 283.608 272.555,289.664 267.615,294.071 263.494 C 298.478 259.372,302.456 256.000,302.910 256.000 C 303.364 256.000,307.217 253.309,311.473 250.021 C 317.779 245.148,319.553 244.225,321.063 245.034 C 322.082 245.579,324.709 249.732,326.901 254.263 C 333.729 268.374,338.629 276.256,343.342 280.709 C 347.815 284.935,347.991 285.000,354.991 285.000 C 361.884 285.000,366.304 283.662,370.000 280.458 C 370.825 279.743,373.973 277.918,376.996 276.403 C 380.019 274.887,384.744 271.557,387.496 269.001 C 394.423 262.570,398.374 260.000,401.337 260.000 C 404.679 260.000,405.381 262.489,404.057 269.650 C 401.694 282.433,402.598 283.882,414.252 286.000 C 420.175 287.076,421.311 287.026,423.502 285.591 C 424.876 284.690,426.000 283.013,426.000 281.864 C 426.000 278.641,429.974 262.951,431.574 259.857 C 433.984 255.196,433.337 252.322,428.750 247.327 C 418.207 235.844,405.400 236.180,382.897 248.530 C 369.269 256.009,363.736 257.728,358.674 256.057 C 356.421 255.314,354.836 253.965,354.147 252.207 C 351.774 246.145,350.014 237.978,349.102 228.801 C 348.083 218.542,345.799 211.927,341.520 206.841 C 340.134 205.194,339.000 202.760,339.000 201.432 C 339.000 199.077,339.196 199.019,346.812 199.100 C 355.521 199.194,361.166 197.427,362.978 194.041 C 363.604 192.871,365.251 186.421,366.637 179.707 C 369.195 167.318,369.831 165.963,376.838 158.000 C 381.225 153.013,382.396 147.131,380.619 139.000 C 377.802 126.108,371.938 117.276,363.625 113.406 C 358.845 111.180,357.355 111.022,341.500 111.052 C 323.326 111.086,323.676 111.008,314.747 117.000 C 309.125 120.773,308.023 124.077,307.332 139.217 C 306.999 146.522,306.322 153.287,305.828 154.250 C 304.493 156.850,300.907 156.377,296.307 152.995 C 288.532 147.277,285.915 146.903,272.946 149.660 C 260.505 152.304,255.893 152.113,253.615 148.861 C 251.609 145.996,252.926 142.794,259.068 135.608 C 261.838 132.367,265.037 127.867,266.177 125.608 C 267.318 123.349,270.399 119.212,273.024 116.416 C 280.127 108.854,281.799 104.389,281.730 93.180 C 281.675 84.442,281.501 83.677,278.935 80.930 C 276.076 77.870,273.881 77.491,268.326 79.099 M427.200 287.200 C 424.024 290.376,428.880 298.000,434.080 298.000 C 438.806 298.000,438.845 293.815,434.166 288.750 C 431.437 285.796,429.120 285.280,427.200 287.200 M401.158 294.852 C 397.584 298.191,397.341 299.198,399.571 301.429 C 401.772 303.629,402.732 303.421,406.147 300.007 C 412.124 294.030,407.335 289.082,401.158 294.852 M416.200 294.200 C 414.512 295.888,414.708 301.138,416.557 303.777 C 419.891 308.538,424.784 304.928,423.451 298.691 C 422.295 293.284,419.097 291.303,416.200 294.200 " style="stroke: none; fill: black;">
                    </path></svg>