<svg id="svg-path" width="100%" height="100%" viewBox="0 0 512 512" version="1.1" xmlns="http://www.w3.org/2000/svg" style="fill-rule:evenodd;clip-rule:evenodd;stroke-linejoin:round;stroke-miterlimit:2;">
                        <path d="M234.590 54.735 C 230.172 55.386,227.182 57.804,225.149 62.369 C 224.137 64.641,222.142 68.210,220.715 70.301 C 216.191 76.928,215.491 83.448,217.919 96.345 C 221.607 115.940,221.117 117.231,208.000 122.489 C 196.344 127.162,188.710 133.346,186.542 139.873 C 183.932 147.732,180.000 149.396,180.000 142.642 C 180.000 140.223,181.013 138.348,184.000 135.240 C 187.447 131.653,188.000 130.460,188.000 126.616 C 188.000 123.116,187.294 121.230,184.721 117.857 C 180.294 112.053,176.865 111.142,170.211 114.005 C 162.444 117.346,160.508 121.441,161.931 131.513 C 163.133 140.014,161.718 147.472,157.894 152.797 C 154.781 157.132,154.740 157.337,155.392 165.352 C 156.247 175.867,159.983 185.900,164.530 189.892 C 167.967 192.910,171.241 193.752,181.500 194.255 L 186.500 194.500 186.126 209.706 C 185.775 223.976,185.892 225.176,188.022 229.206 C 189.270 231.568,191.415 235.637,192.788 238.250 C 194.161 240.862,195.639 243.000,196.074 243.000 C 196.508 243.000,197.809 244.328,198.965 245.951 C 200.617 248.271,201.283 251.420,202.084 260.701 C 202.644 267.190,203.937 278.350,204.958 285.500 C 205.978 292.650,207.325 303.000,207.952 308.500 C 208.578 314.000,209.797 323.225,210.660 329.000 C 211.636 335.528,212.362 348.665,212.581 363.729 C 212.853 382.488,213.306 389.243,214.586 393.646 C 217.770 404.600,214.741 431.507,208.321 449.307 C 205.605 456.836,205.813 460.349,209.190 463.973 C 211.934 466.919,216.672 466.220,221.871 462.102 C 226.055 458.789,228.962 453.530,231.462 444.754 C 232.545 440.956,234.778 436.917,238.050 432.840 C 243.839 425.626,244.458 421.636,240.663 415.982 C 235.791 408.725,234.704 400.821,237.670 394.218 C 240.294 388.375,242.526 358.212,243.779 311.669 C 244.444 286.951,244.651 284.729,246.398 283.451 C 247.441 282.688,248.634 282.274,249.049 282.530 C 249.464 282.787,252.619 286.933,256.060 291.744 C 262.330 300.509,267.998 311.115,267.999 314.084 C 268.000 314.955,270.996 320.580,274.659 326.584 C 278.321 332.588,282.138 339.621,283.141 342.214 C 285.610 348.596,296.264 369.064,299.831 374.279 C 301.419 376.601,303.430 379.888,304.299 381.583 C 306.570 386.014,309.000 397.262,309.000 403.340 C 309.000 409.972,310.508 412.066,317.712 415.442 C 320.895 416.934,325.750 420.331,328.500 422.991 C 337.088 431.301,347.159 433.568,352.364 428.364 C 353.814 426.914,355.000 424.951,355.000 424.003 C 355.000 422.016,350.493 415.047,348.112 413.353 C 342.624 409.447,337.402 402.784,331.627 392.320 C 326.153 382.401,323.075 373.477,322.043 364.537 C 321.451 359.414,320.001 354.915,316.711 348.000 C 307.603 328.854,304.169 321.046,303.483 317.925 C 303.098 316.169,301.941 312.880,300.913 310.616 C 297.291 302.640,299.121 295.000,304.654 295.000 C 305.753 295.000,307.588 293.988,308.732 292.750 C 310.760 290.557,314.000 281.406,314.000 277.871 C 314.000 276.900,311.681 273.045,308.847 269.303 C 302.234 260.572,301.000 257.488,301.000 249.692 C 301.000 244.560,301.606 242.106,304.115 237.086 C 307.648 230.016,312.000 215.169,312.000 210.187 C 312.000 206.605,309.650 193.224,307.314 183.500 C 306.521 180.200,304.844 173.215,303.587 167.977 C 302.330 162.739,300.671 157.262,299.901 155.805 C 297.991 152.193,291.189 145.223,279.124 134.514 C 271.261 127.535,269.000 124.955,269.000 122.964 C 269.000 121.554,269.437 119.963,269.972 119.428 C 270.506 118.894,271.363 115.541,271.876 111.978 C 272.388 108.415,273.861 102.800,275.148 99.500 C 276.930 94.930,277.476 91.594,277.440 85.500 C 277.398 78.441,276.963 76.585,273.747 69.720 C 269.529 60.716,268.138 59.821,255.676 58.088 C 251.384 57.491,247.114 56.611,246.187 56.133 C 243.836 54.921,238.057 54.224,234.590 54.735 " style="stroke: none; fill: black;">
                    </path></svg>