<svg xmlns="http://www.w3.org/2000/svg" width="1280" height="1280" xmlns:v="https://vecta.io/nano"><path d="M474.795 64.976c-11.255 2.374-18.537 5.767-24.656 11.5-6.415 6-9.345 12.696-10.074 23.025l-.565 7.99-4.947.704c-7.63 1.086-18.657 7.023-23.92 12.878-7.845 8.726-11.7 23.046-9.69 35.997 1.16 7.47.896 8.94-1.607 8.94-3.38 0-14.212 6.183-19.182 10.947-17.408 16.69-16.8 48.962 1.323 69.135 2.912 3.243 3.27 4.35 3.772 11.695 1.17 17.067 11.934 30.463 30.694 38.2 20.8 8.58 39.1 9.23 55.936 1.982l4.7-2.022 4.712 4.515c8.478 8.123 21.542 13.172 36.825 14.23 16.407 1.136 29.43-3.525 37.535-13.435l4.147-5.07 3.527 2.397c9.142 6.212 23.466 8.863 34.972 6.47 9.445-1.963 21.275-8.5 28.7-15.876l6.516-6.474 11.5.202c12.82.224 20.183-1.238 28.2-5.6 5.754-3.132 12.77-10.354 15.77-16.234 3.43-6.726 6.03-18.565 6.032-27.47l.001-8.1 6.353-6.21c3.89-3.8 7.762-8.888 9.986-13.12 8.285-15.766 8.85-37.64 1.303-50.516-2.963-5.055-11.02-12.57-17.134-15.98-3.644-2.033-4.056-2.688-4.756-7.548-1.034-7.188-6.038-19.383-10.38-25.298-7.28-9.918-18.038-16.263-30.017-17.705-7.284-.877-21.67.174-27.174 1.985-1.824.6-3.428.934-3.564.742-13.604-19.26-38.78-31.13-59.588-28.096-8.696 1.268-17.726 4.894-23.306 9.36l-3.776 3.02-3.108-2.615c-11.36-9.56-33.75-13.035-55.046-8.544m35.118 4.565c7.506 1.77 15.35 5.794 18.432 9.457 3.586 4.262 4.246 4.25 9.33-.153 16.512-14.303 40.222-14.166 61.94.36 4.654 3.112 9.48 7.485 12.697 11.503 5.757 7.192 4.672 6.922 17.188 4.286 7.27-1.53 21.213-1.308 27 .432 7.706 2.316 13.824 6.77 19.372 14.097 5.212 6.886 8.614 14.41 9.764 21.6.592 3.705.472 4.05-1.24 3.55-10.168-2.972-12.396-3-12.396-.15 0 1.69 2.283 2.986 7 3.97 6.56 1.368 17.875 7.3 22.935 12.043 7.45 6.97 10.396 13.723 10.888 24.966s-.94 18.463-5.443 27.465c-3.177 6.35-14.19 19.033-16.53 19.033-.468 0-.86 4.162-.868 9.25-.052 27.71-11.4 43.085-34.483 46.763-6.972 1.11-18.5.494-18.5-.99 0-.43.675-2.395 1.5-4.37 2.138-5.118 1.973-8.654-.406-8.654-1.374 0-2.348 1.297-3.49 4.645-6.528 19.16-28.667 33.62-49.105 32.073-8.033-.608-13.844-2.64-21.104-7.384C561.6 291.5 558.82 290 558.242 290s-2.222 1.997-3.653 4.438C548.7 304.486 537.458 310 522.858 310c-14.72 0-28.705-4.64-37.358-12.395l-4-3.584 2.5-2.064 4.23-3.483c1.8-1.476 1.405-4.477-.586-4.47-.63.003-3.168 1.38-5.643 3.063-16.738 11.375-35.88 13.73-57.055 7.014-22.074-7-34.945-21.244-34.945-38.675 0-6.322-.15-6.702-4.946-12.63-16.952-20.95-17.37-46.226-1.032-62.562 4.062-4.063 11.867-8.446 17.11-9.61 2.224-.494 2.823-.125 3.858 2.372 1.67 4.033 3.744 5.688 5.245 4.187.868-.868.508-3.057-1.466-8.908-3.425-10.15-4.304-18.35-2.77-25.824 3.595-17.523 14.924-27.87 32.75-29.912l6.25-.716v-9.152c.008-7.48.436-10.066 2.343-14.152 4.87-10.434 16.733-17.515 33.147-19.785 7.44-1.03 23.45-.58 29.413.826M771 155.628c-21.073 1.7-26.998 3.14-25.135 6.154.64 1.036 3.27.968 13.714-.353 14.85-1.88 34.293-1.435 48.92 1.117 16.776 2.927 39.388 11.596 51.5 19.745 5.674 3.818 18.162 13.88 17.745 14.297-.172.173-4.244-.365-9.05-1.194-11.48-1.98-17.196-1.613-17.196 1.106 0 1.756.913 2.1 7.5 2.74 4.125.408 11.973 1.65 17.44 2.76 6.56 1.333 10.276 1.683 10.93 1.03s.08-3.63-1.687-8.76c-1.472-4.274-3.37-11.37-4.22-15.77l-2.022-10.25c-.517-2.427-3.967-3.162-4.695-1-.23.688.597 5.97 1.84 11.742s2.1 10.645 1.923 10.83-2.965-1.8-6.174-4.414c-22.21-18.1-51.61-28.315-85.336-29.677-6.325-.256-13.525-.302-16-.104m-133 17.218c0 6.516-.292 15.966-.65 21L636.7 203h6.3v-42h-5v11.846M486 178.5V195h2.456c2.356 0 2.468-.298 2.75-7.25l.294-7.25 4.75-.305c4.257-.273 4.75-.553 4.75-2.695s-.493-2.422-4.75-2.695l-4.75-.305-.298-6.25c-.28-5.887-.44-6.25-2.75-6.25H486v16.5m49.71-15.876c-.4.4-.71 7.864-.71 16.61v15.9l2.75-.317c2.686-.31 2.757-.484 3.044-7.566l.294-7.25h4.456c4.086 0 4.456-.207 4.456-2.5s-.37-2.5-4.452-2.5h-4.453l-.297-6.25c-.258-5.413-.57-6.29-2.34-6.542-1.123-.16-2.36.027-2.75.416m-70.96 1.065c-1.418.37-1.75 1.58-1.75 6.377 0 5.28-.488 6.704-4.5 13.15-4.91 7.892-5.303 9.26-2.9 10.18 2.242.86 2.837.31 6.924-6.42 1.997-3.287 3.9-5.977 4.23-5.977s3.266 2.32 6.524 5.153c4.662 4.054 6.113 4.853 6.812 3.75 1.542-2.435 1.062-3.324-5.08-9.403-5.438-5.382-6-6.33-6-10.137 0-4.415-.776-7.442-1.857-7.247-.354.064-1.43.322-2.393.573m49.055-.004c-1.4.366-1.598 1.27-1.113 5.36.545 4.602.25 5.472-4.58 13.555-4.05 6.774-4.914 8.934-4.014 10.02 1.976 2.38 3.285 1.546 7.272-4.642 2.128-3.303 4.3-6.278 4.847-6.6s3.41 1.796 6.38 4.73c5.042 4.98 5.512 5.223 7.07 3.667s1.227-2.134-4.946-8.677c-6.207-6.58-6.63-7.33-6.916-12.22-.306-5.243-.884-5.992-4-5.182M563 170v5h-5.57c-5.203 0-5.548.148-5.25 2.25.28 1.96 1.094 2.334 6.32 2.9 3.3.358 9.375.808 13.5 1 7.02.328 7.52.213 7.804-1.78.268-1.882-.37-2.23-5.5-3l-5.804-.87-.302-5.25c-.278-4.82-.502-5.25-2.75-5.25-2.27 0-2.448.362-2.448 5m21.502-.75c-.324 1.787-.457 11.8-.295 22.25.29 18.75.322 19.004 2.507 19.315 2.148.305 2.223.004 2.5-10l.286-10.315 4.5-.5c3.72-.413 4.555-.89 4.82-2.75.29-2.052-.084-2.25-4.25-2.25H590v-9.5c0-9.42-.02-9.5-2.455-9.5-1.982 0-2.568.626-3.043 3.25m19.783-.55c-1.278 3.332.527 4.3 8.017 4.3 4.05 0 7.604.24 7.897.532s-1.205 6.255-3.328 13.25-3.863 13.228-3.866 13.85 1.112 1.347 2.478 1.608c2.333.446 2.63-.014 4.945-7.633 5.908-19.455 6.84-23.773 5.416-25.13-1.944-1.853-20.884-2.537-21.56-.78m-44.98 16.257c-3.554 2.167-5.985 8.194-4.957 12.29 1.663 6.625 8.548 10.282 14.62 7.766 7.836-3.245 8.902-15.682 1.72-20.06-4.04-2.464-7.34-2.463-11.385.004m8.473 4.6c2.83 1.98 2.94 6.725.223 9.443-2.433 2.433-3.78 2.508-6.17.345-2.628-2.378-2.408-7.826.394-9.788C563.445 188.7 564.695 188 565 188s1.555.7 2.777 1.557m-92.05 8.496c-5.31.9-8.736 4.394-8.696 8.87.04 4.49 1.643 6.624 6.497 8.652 11.426 4.775 23.435-5.693 16.192-14.114-2.598-3.02-8.214-4.39-13.993-3.41m49.772-.122c-7.115 1.712-10.205 5.584-8.965 11.23 1.34 6.105 10.682 9.445 17.936 6.414 4.876-2.037 6.457-4.163 6.497-8.737.025-2.882-.623-4.212-3.045-6.25-1.692-1.424-3.905-2.59-4.918-2.59s-2.44-.178-3.173-.396-2.682-.07-4.332.327m-40.756 6.272c4.478 3.716-2.706 9.298-8.746 6.796-4.872-2.018-4.956-6.093-.162-7.886 2.875-1.075 6.892-.584 8.908 1.1m47.97-1.217c2.03.023 3.495 3.753 2.33 5.933-2.45 4.578-12.544 3.047-12.544-1.903 0-2.83 3.848-5.328 7-4.542 1.1.274 2.547.505 3.215.512M299 255.96c0 2.186 1.742 2.788 16.24 5.608l8.74 1.7-7.295 4.158c-31.28 17.826-53.374 50.602-60.125 89.2-2.197 12.558-2.102 14.59.662 14.194 1.993-.287 2.394-1.36 3.9-10.463 3.183-19.113 7.25-31.035 15.63-45.828 10.474-18.5 25.12-33.213 42.973-43.196 3.504-1.96 6.56-3.374 6.8-3.144s-1.638 3.486-4.153 7.234c-6.227 9.282-7.927 13.45-6.193 15.183 1.9 1.9 3.044.763 7.155-7.106 2.01-3.85 6.158-10.325 9.216-14.388s5.35-7.94 5.1-8.612c-.273-.713-3.537-1.525-7.804-1.942-4.034-.395-11.546-1.582-16.694-2.638-12.085-2.48-14.14-2.473-14.14.04M192.5 413.335c-7.957 2.656-13.143 6.09-20.9 13.834l-7.9 7.887-3.578-1.18c-9.137-3.016-26.99-2.68-38.946.73-8.815 2.515-18.83 8.19-23.188 13.144-6.48 7.36-8.314 13.58-8.408 28.497l-.08 12.747-8.04.003c-19.265.007-33.43 8.273-40.786 23.802-2.915 6.155-3.172 7.516-3.15 16.7.02 8.802.357 10.72 2.805 16 1.53 3.3 4.605 8.164 6.835 10.808s3.892 4.9 3.695 5.035c-4.953 3.132-9.956 8.494-12.363 13.252-2.464 4.87-2.936 6.977-2.882 12.865.157 17.122 10.452 27.072 30.717 29.688 7.578.978 8.577 1.355 9.612 3.627 2.7 5.902 13.49 21.37 17.508 25.073 7.418 6.838 11.682 8.5 23.05 8.933 6.68.26 12.484-.135 17.48-1.2l7.48-1.58 6.52 6.404c12.572 12.35 25.212 17.696 42.02 17.772 17.813.08 31-5.18 43.075-17.185l7.576-7.532 4.424.82c2.434.45 11.175.635 19.425.412 12.4-.336 16.218-.818 22-2.766 9.662-3.256 20.835-11.08 27.254-19.08l5.254-6.55 5.565.96c7.535 1.298 19.217-.52 27.144-4.223 8.8-4.112 17.402-12.82 20.206-20.456 3.267-8.897 4.512-19.8 3.42-29.972-.913-8.52-.885-8.714 1.722-11.887 6.196-7.54 8.934-16.6 8.934-29.594 0-17.928-7.05-26.302-25.34-30.1l-5.66-1.175v-4.38c0-11.133-5.267-23.983-12.296-30-4.132-3.536-11.25-6.478-15.675-6.478-2.272 0-2.78-.62-3.88-4.728-3.09-11.55-15.09-25.785-27.668-32.82-6.222-3.48-7.75-3.898-15.618-4.274-10.26-.5-19.36 1.795-29.81 7.487l-6.446 3.51-7.554-3.993c-15.167-8.017-34.362-11.917-43.555-8.85m25.5 6.625c3.575 1.2 10.5 4.176 15.412 6.61S242.984 431 243.8 431s3.77-1.302 6.588-2.894c9.055-5.117 19.416-8.333 27.222-8.45 6.187-.093 7.945.323 13.676 3.23 8.383 4.255 16.517 11.506 21.553 19.213 3.582 5.483 4.91 8.917 6.634 17.15.538 2.57.912 2.75 5.74 2.75 14.12 0 23.363 11.607 24.662 30.972l.635 9.472 7.037 1.176c17.888 2.988 23.546 9.265 23.54 26.116-.002 10.483-1.875 17.372-6.318 23.247l-4.375 5.914c-.808 1.163-.827 4.053-.07 10.526 1.357 11.595-.14 24.324-3.686 31.32-2.737 5.4-9.863 12.302-15.88 15.38-6.3 3.22-15.65 5.163-22.062 4.58-3.215-.29-6.042-.727-6.284-.968s.46-2.42 1.557-4.838c5.037-11.102.596-11.902-5.146-.926-12.27 23.45-26.517 32.62-52.443 33.756-6.67.293-14.654.216-17.74-.17l-5.6-.7 1.49-2.88c2.012-3.89 1.873-5.98-.397-5.98-1.27 0-3.226 2.256-5.99 6.906-7.265 12.23-20.298 21.852-34.125 25.196-11.71 2.833-27.86 1.07-38.108-4.157-5.37-2.74-15.854-11.416-18.802-15.56-2.79-3.92-3.564-3.995-15.1-1.462-6.454 1.418-20.855 1.218-25.252-.35-8.374-2.988-16.307-11.718-24.128-26.552-2.557-4.85-5.355-9.09-6.216-9.42s-4.404-.6-7.87-.6c-17.305 0-27.822-9.242-27.966-24.577-.06-6.193.31-7.692 2.963-12 1.847-3 5.153-6.35 8.468-8.577 2.99-2 5.604-4.153 5.808-4.764s-1.944-3.64-4.772-6.735-6.355-7.926-7.837-10.737c-2.407-4.562-2.696-6.182-2.696-15.1-.001-10.494 1.09-13.955 6.88-21.813 7.273-9.87 27.583-16.928 39.487-13.722 6.066 1.633 7.13.506 5.88-6.223-.535-2.883-.735-9.397-.443-14.475.586-10.19 3.527-18.36 8.5-23.61 10.788-11.394 45.02-16.94 58.34-9.453l4.034 2.267 2.077-2.985c4.62-6.638 15.78-16.59 21.954-19.578 5.784-2.8 6.927-3.007 14.287-2.586 4.4.25 10.925 1.44 14.5 2.64m514.046 22.638c-8.468 2.276-13.83 5.397-19.872 11.566l-5.558 5.676-4.866-4.375c-7.9-7.093-14.698-9.903-24.994-10.314-10.495-.42-18.882 1.795-28.667 7.567-8.046 4.747-17.99 14.427-21.96 21.38l-3.04 5.323-13.794.116c-11.527.096-14.862.486-20.294 2.37-23.46 8.14-34.5 22.927-33.907 45.41l.2 7.965-6.572 4.39c-37.827 25.263-32.752 69.692 10.674 93.457l4.906 2.684.153 8.344c.182 9.844 2.127 14.434 8.594 20.276 5.134 4.64 12.115 7.926 22.442 10.567 10.288 2.63 17.37 2.508 26-.453l7-2.402 2.266 2.856c3.68 4.637 13.828 10.776 22.577 13.658 6.934 2.284 9.956 2.7 20.157 2.764 11.426.073 12.313-.07 18.547-3.026 3.6-1.706 8.256-4.602 10.344-6.435 3.12-2.74 4.09-3.127 5.453-2.17 10.15 7.135 22.424 12.04 32.283 12.9 16.2 1.412 33.985-9.254 41.406-24.834 1.63-3.423 1.92-3.588 4.844-2.75 5.534 1.587 17.008 1.016 24.268-1.208 16.72-5.122 30.173-14.892 34.99-25.413 2.106-4.598 2.487-6.745 2.222-12.488-.32-6.928-.315-6.942 4.464-13.183 9.247-12.076 14.25-25.226 15.333-40.316 1.002-13.942-3.173-24.517-13.046-33.04-5.207-4.495-5.334-4.73-4.507-8.293 2.178-9.37.21-22.097-4.883-31.572-3.977-7.4-14.58-17.73-21.554-21-7.436-3.485-17.206-5.556-26.32-5.578L790.19 473l-3.053-6.524c-3.773-8.06-11.668-16.178-19.136-19.673-11.53-5.395-25.464-7.025-35.954-4.205m27.037 5.863c6.815 2.196 15.268 7.784 19.18 12.68 1.6 2.003 3.946 6.503 5.212 10l2.302 6.36 9.38.095c11.663.118 18.427 1.655 27.118 6.164 8.313 4.313 15.084 11.472 19.71 20.84 2.876 5.825 3.47 8.226 3.81 15.4.36 7.598.065 9.455-2.8 17.5-3.947 11.12-4.035 11.923-1.36 12.305 1.732.248 2.48-.57 3.886-4.25.957-2.506 2.218-4.556 2.803-4.556 2.302 0 10.635 10.303 12.616 15.6 2.49 6.652 2.686 17.05.5 26.4-2.118 9.067-8.83 22.16-14.59 28.462l-4.854 5.31.628 7.424c.526 6.228.295 8.174-1.434 12.083-6.658 15.052-34.636 27.783-52.99 24.112-3.016-.603-3.04-.66-2.875-6.75.15-5.517-.036-6.142-1.82-6.142-1.63 0-2.12.928-2.728 5.153-1.297 9.012-4.562 15.99-10.462 22.364-9.746 10.526-22.355 14.78-35.64 12.02-6.428-1.334-20.37-7.928-23.068-10.9-1.672-1.847-1.612-2.165 1.398-7.5 3.18-5.637 3.596-9.13 1.084-9.13-.757 0-3.145 2.925-5.307 6.5-5.374 8.884-10.142 13.545-17.636 17.24-15.17 7.48-39.807 3.36-54.1-9.043l-4.435-3.85 6.778-6.645c3.727-3.655 6.586-7.22 6.352-7.923-.903-2.712-3.517-1.627-9.094 3.775-11.164 10.814-25.235 14.72-39.686 11.02-13.7-3.507-22.74-9.517-26.25-17.452-1.53-3.457-1.863-6.084-1.583-12.486l.353-8.108-7.83-4.206c-9.387-5.042-12.705-7.5-19.577-14.504-6.628-6.755-11.88-17.225-13.326-26.563-1.33-8.595.466-17.424 5.243-25.774 3.623-6.332 12.57-14.867 20.876-19.912l6-3.65-.586-8.302c-.976-13.824 2.728-24.7 11-32.335 14.83-13.67 41.51-17.144 60.043-7.82 4.098 2.062 6.968 2.954 7.812 2.427 2.126-1.326-.112-3.883-6.495-7.417l-5.687-3.15 3.16-4.412c7.95-11.1 16.265-18.334 26.408-22.98 16.856-7.72 30.363-5.416 44.285 7.556l6.426 5.987L709.88 464c6.363-8.42 13.4-13.613 22.62-16.665 5.342-1.77 19.462-1.178 26.583 1.116m-584.416 75.206c-.367.366-.667 1.917-.667 3.445 0 2.605-.296 2.797-4.75 3.083-3.982.256-4.75.628-4.75 2.305 0 1.63.833 2.093 4.49 2.5 6.06.675 6.14 2.43.424 9.445l-4.675 5.74 4.048 4.048 3.82-5.116c2.1-2.814 4.24-5.116 4.753-5.116s2.856 1.575 5.205 3.5c4.715 3.863 5.66 4.14 7.315 2.145.885-1.067-.17-2.55-4.954-6.973-3.343-3.09-5.792-6.08-5.443-6.644s2.9-1.028 5.646-1.028c4.624 0 4.985-.174 4.69-2.25-.272-1.91-1.08-2.326-5.32-2.75-2.963-.296-5.05-1.01-5.125-1.75-.07-.687-.18-2.15-.25-3.25-.12-1.942-2.99-2.8-4.458-1.333m20.77 1.633c-.274.716-.373 7.353-.218 14.75l.28 13.45h2.5c2.342 0 2.52-.363 2.8-5.75l.3-5.75h4.45c4.05 0 4.45-.22 4.45-2.44 0-2.123-.58-2.526-4.5-3.113l-4.5-.675v-5.887c0-5.63-.1-5.886-2.53-5.886-1.393 0-2.756.585-3.03 1.3M298 533.777c0 4.9-.294 14.38-.654 21.066L296.693 567H303l.18-18.5.25-20.75c.055-1.733-.56-2.323-2.68-2.566l-2.75-.317v8.9m-146.75-7.115c-.727.294-1.25 2.298-1.25 4.792v4.288l-7 .69c-6.565.647-7 .842-7 3.13 0 2.353.246 2.44 7 2.44h7v17h6v-10.353c0-13.402-.982-22.67-2.392-22.568-.6.043-1.67.306-2.358.583m-27.706 2.266c-.354.574-.544 3.24-.42 5.925.192 4.22-.412 5.965-4.45 12.852-2.57 4.384-4.673 8.253-4.673 8.598s.844 1.078 1.875 1.63c1.62.867 2.514.04 6.592-6.092l4.718-7.095 5.896 5.834c5.587 5.53 5.97 5.734 7.29 3.926 1.27-1.736.844-2.522-4.738-8.745-5.503-6.133-6.185-7.374-6.634-12.05-.42-4.386-.842-5.26-2.656-5.52-1.185-.17-2.445.162-2.8.735M223 533.934V539h-5.5c-5.2 0-5.5.136-5.5 2.5 0 2.052.492 2.506 2.75 2.534 1.512.018 7.455.457 13.206.975 8.016.723 10.638.657 11.235-.283 1.687-2.656.658-3.6-4.643-4.263l-5.45-.68-.3-5.14c-.277-4.78-.492-5.163-3.048-5.457-2.68-.31-2.75-.187-2.75 4.75m21.528 8.316c-.37 6.737-.528 16.75-.35 22.25.306 9.496.435 10.016 2.572 10.32 2.144.304 2.25-.003 2.26-6.5.006-3.75.3-8.507.63-10.57.606-3.667.717-3.75 4.99-3.75 3.994 0 4.37-.215 4.37-2.5 0-2.296-.367-2.5-4.5-2.5H250v-9.5c0-9.36-.035-9.5-2.4-9.5s-2.41.174-3.073 12.25m20.076-8.66c-1.073 2.796.348 3.4 7.896 3.4 4.06 0 7.584.337 7.832.75s-1.292 6.6-3.42 13.75l-3.89 13.75c-.01.413 1.217.743 2.73.734 2.693-.015 2.84-.34 7.098-15.53 3.497-12.475 4.1-15.8 3.128-16.984-1.845-2.223-20.513-2.12-21.372.12m629.587 4.08c-1.67.35-2.224 1.067-2 2.592.287 1.957 1 2.126 9.93 2.355 11.928.306 19.55 1.608 32.353 5.527 29.72 9.096 53.79 29.795 72.046 61.956 7.263 12.794 7.968 15.12 3.73 12.3-7.024-4.673-17.896-10.414-19.24-10.16-.818.155-1.628 1.01-1.8 1.902-.215 1.117 1.957 2.875 6.988 5.658 4.016 2.22 10.868 6.505 15.227 9.52s8.52 5.253 9.25 4.973c.894-.343 1.335-2.502 1.36-6.65.02-3.38.703-9.743 1.52-14.143 2.478-13.363 2.8-17.162 1.525-17.95-2.4-1.484-3.9 1.813-5.673 12.478-1.004 6.035-2.068 10.948-2.366 10.917s-1.975-3.07-3.73-6.75c-4.317-9.063-13.636-22.834-21.95-32.436-17.632-20.363-43.623-35.353-69.773-40.24-8.037-1.503-23.93-2.574-27.397-1.846m-102.536 16.987c-.36 7.512-.655 16.9-.655 20.883 0 6.577.195 7.277 2.174 7.794 1.195.313 2.545.34 3 .058s.826-9.934.826-21.452V541h-2.345c-2.313 0-2.354.183-3 13.658m-151.43 4.092c.262 15.992.365 16.75 2.274 16.75 1.788 0 2.03-.764 2.293-7.197l.292-7.197 4.708-.303c4.273-.275 4.707-.533 4.707-2.803s-.43-2.528-4.75-2.805L645 554.9v-6.445c0-6.224-.086-6.445-2.524-6.445h-2.524l.274 16.75m49.242-15.528c-.287.75-.398 8.318-.245 16.82l.277 15.458h2.5c2.408 0 2.51-.265 2.793-7.195l.292-7.194 4.208-.306c3.757-.272 4.24-.6 4.523-3.055.304-2.64.138-2.75-4.202-2.75h-4.52l-.297-6.25c-.268-5.617-.526-6.282-2.552-6.57-1.24-.176-2.5.293-2.778 1.042M617 549.84c0 5.33-.484 6.756-4.5 13.27-2.475 4.015-4.5 7.834-4.5 8.488 0 .987 2.09 2.403 3.545 2.403.21 0 2.267-2.812 4.573-6.25l4.562-6.69c.203-.243 2.798 1.956 5.765 4.887 3.594 3.55 5.924 5.126 6.976 4.723 2.935-1.127 1.604-4.207-4.375-10.123-5.54-5.48-5.974-6.246-6.25-10.97-.275-4.7-.495-5.1-3.046-5.393-2.728-.314-2.75-.27-2.75 5.655m49.815-5.32c-.285.285-.308 2.704-.05 5.376.432 4.495.085 5.452-4.65 12.832-2.813 4.385-5.115 8.46-5.115 9.057 0 1.015 3.834 2.8 4.42 2.058.148-.187 2.18-3.187 4.512-6.666 4.792-7.143 3.764-7.205 12.323.75 3.546 3.296 3.85 3.395 5.468 1.778s1.338-2.09-5.005-8.484c-6.57-6.62-6.72-6.885-6.72-11.995 0-4.807-.187-5.225-2.333-5.225-1.284 0-2.567.233-2.852.518m50.886 1.114c-.385.386-.7 2.65-.7 5.035V555h-5.5c-5.138 0-5.5.158-5.5 2.4 0 2.252.443 2.437 7.25 3.036l13.5 1.218c6.155.57 6.25.542 6.25-1.92 0-2.28-.484-2.562-5.45-3.182l-5.45-.68-.3-5.175c-.215-3.715-.737-5.258-1.85-5.47-.852-.162-1.864.02-2.25.407m20.943 2.566c-.34 1.266-.623 11.414-.63 22.552L738 591h2.465c2.44 0 2.468-.1 2.75-10.25l.285-10.25 4.75-.305c4.29-.275 4.75-.542 4.75-2.75 0-2.228-.396-2.445-4.462-2.445h-4.463l-.287-9.25c-.266-8.555-.447-9.273-2.408-9.552-1.505-.215-2.298.364-2.736 2m-518.144.188c-7.374 3.215-8.12 15.436-1.2 19.656 4.05 2.47 7.346 2.47 11.388.006 6.417-3.913 6.423-15.18.01-19.1-3.708-2.26-6.026-2.39-10.2-.572m537.924.95c-1.1 2.87.63 3.664 7.968 3.664 4 0 7.524.25 7.828.554s-.983 5.592-2.86 11.75c-4.968 16.29-4.97 16.303-2.25 17.014 1.266.332 2.467.44 2.667.238s2.393-7.438 4.872-16.083c3.26-11.37 4.204-16.02 3.414-16.8-.602-.602-5.58-1.274-11.065-1.494-8.38-.337-10.068-.15-10.574 1.167m-530.253 4.32c3.48 3.15 1.316 11.345-2.997 11.345-4.92 0-7.12-8.524-2.95-11.443 2.807-1.967 3.682-1.953 5.948.098M180 558.5c0 2.48.067 2.5 9 2.5 8.825 0 9 .046 9 2.392 0 2.316-.32 2.415-10.008 3.11-11.363.813-11.388.836-10.804 10.065l.312 4.934 32.638.55-.638-5.55H196c-12.948 0-13.486-.082-13.155-2 .2-1.1.46-2.12.6-2.267s4.614-.553 9.94-.903 9.91-.998 10.182-1.44.195-3.748-.174-7.347l-.67-6.543H180v2.5m-45.225 5.06c-5.47 2.97-6.376 8.994-2.007 13.363 3.366 3.366 8.814 4.537 14.27 3.068 5.63-1.516 7.962-4.123 7.962-8.9 0-3.14-.607-4.422-3.077-6.5-2.537-2.135-4.07-2.582-8.75-2.55-3.12.022-6.9.706-8.398 1.52M715 564.33c-7.396 2.47-9.164 13.452-3.046 18.92 8.394 7.5 20.12-1.154 16.98-12.53-1.57-5.687-7.667-8.483-13.933-6.39m-568.7 2.592c5.194 1.975 4.024 7.55-1.816 8.646-7.08 1.33-11.452-5.27-5.483-8.28 3.01-1.517 4.126-1.573 7.3-.367m576.5 3.277c1.797 1.797 1.448 6.273-.695 8.92-1.63 2.012-2.297 2.2-4.75 1.343-2.367-.828-2.91-1.648-3.17-4.8-.173-2.09.22-4.445.873-5.232 1.444-1.74 6.094-1.878 7.742-.23m-96.443 8.792c-5.62 2.268-7.172 10.42-2.762 14.51 9.117 8.45 26.858-.313 21.375-10.556-2.263-4.23-12.526-6.4-18.613-3.953m48.418.51c-7.415 4.177-5.795 13.685 2.816 16.527 4.92 1.624 12.064.406 15.035-2.565 3.347-3.347 3.272-9.272-.158-12.495-3.227-3.03-13.416-3.876-17.693-1.467m-36.03 4.7c2.245 1.863 1.498 5.754-1.31 6.822-5.925 2.253-12.36-.533-11.016-4.77 1.2-3.782 8.73-5.036 12.325-2.053m47.027-1.133c8.184 2.853 2.404 10.703-6.088 8.268-2.646-.76-3.183-1.407-3.183-3.846 0-2.125.69-3.282 2.5-4.198 3.054-1.545 2.988-1.543 6.77-.224m-186.71 72.757c-4.832 2.592-7.062 7.31-7.062 14.94 0 3.463.62 7.778 1.375 9.588 3.53 8.45 12.412 14.364 19.716 13.13 5.582-.943 12.263-5.603 14.355-10.012 3.868-8.152.076-22.186-7.344-27.184-4.46-3.004-15.835-3.253-21.04-.462m534.438.2c-11.26 1.636-19.043 5.255-27.636 12.846-8.25 7.3-14.864 20.57-14.864 29.852v3.547l-4.378-.6c-6.136-.84-15.924.94-21.954 3.996-7.15 3.623-17.112 13.497-20.4 20.217-2.224 4.546-2.722 6.943-2.743 13.202-.023 6.908.34 8.36 3.756 15.02l3.78 7.372-2.78 1.934c-5.276 3.67-13.87 13.1-16.057 17.622-4.452 9.2-5.02 20.343-1.493 29.223 1.968 4.954 10.09 12.147 16.025 14.194 2.61.9 7.557 1.906 10.994 2.236l6.25.6 1.092 4.106c1.955 7.35 8.228 17.927 14 23.623 15.853 15.62 45.486 20.245 67.91 10.6 1.056-.454 2.103.443 3.464 2.97 6.124 11.37 23.488 18.432 45.23 18.394 11.26-.02 20.38-1.712 28.417-5.27 8.562-3.792 13.203-8.45 19.35-19.427.067-.118 2.944.925 6.393 2.318 24.565 9.922 54.16 4.933 69.588-11.73 6.26-6.763 9.15-13.54 10.813-25.35 1.074-7.636 1.356-8.252 5.834-12.735 5.74-5.75 10.052-13.152 12.696-21.806 6.146-20.116 2.45-35.972-11.41-48.936-6.092-5.7-6.265-5.998-5.344-9.212 2.893-10.085-1.01-25.996-9.163-37.346-6.502-9.055-18.316-14.49-31.5-14.49h-6.194l-3.04-5.388c-3.413-6.048-8.998-11.004-17.15-15.22-4.76-2.462-6.642-2.847-14-2.868-7.396-.02-9.233.347-14.14 2.834-3.103 1.573-7.87 4.8-10.597 7.194l-4.956 4.336-3.102-4.4c-9.712-13.78-26.658-16.086-37.623-5.12l-4.265 4.266-3.408-2.412c-6.502-4.6-17.026-9.092-22.755-9.713l-7.653-.9c-1.1-.163-4.25.03-7 .43m-515.836 4.49c5.234 3.43 8.007 15.353 4.947 21.27-4.005 7.744-15.4 8.817-21.145 1.99-3.477-4.133-4.576-7.19-4.62-12.863-.048-6.207 2.334-10.606 6.417-11.85 4.092-1.246 11.41-.51 14.4 1.452m531.117.995c7.31 1.723 12.482 4.2 20.463 9.76l5.744 4.01 5.256-5.43c7.872-8.13 14.582-9.495 23.756-4.827 4.552 2.315 7.18 5.276 10.407 11.725 1.444 2.888 2.918 5.25 3.275 5.25s3.47-2.71 6.92-6.023c8.626-8.284 17.4-12.363 25.33-11.788 11.738.85 23.057 8.78 28.522 19.988l2.046 4.195 8-.226c11.138-.313 17.013 1.643 23.934 7.968 8.115 7.416 12.628 16.984 13.228 28.04.593 10.938.1 11.57-6.617 8.458-2.912-1.35-5.914-2.216-6.67-1.926-2.584.992-1.378 3.272 2.875 5.434 12.435 6.323 22.296 15.41 26.265 24.205 3.238 7.176 3.88 14.552 2.124 24.398-1.838 10.3-5.228 17.79-10.776 23.8l-4.316 4.682-1.03-4.857c-.814-3.84-1.447-4.858-3.023-4.858-1.52 0-1.94.594-1.767 2.5 1.45 16.044 1.434 20.865-.095 26.815-4.04 15.714-14.85 25.51-33.387 30.25-13.405 3.43-30.8 1.773-42.137-4-3.504-1.788-3.997-2.44-3.63-4.812 1.267-8.182 1.276-10.2.054-11.87-2.297-3.142-4.53-.08-4.53 6.21 0 16.34-12.555 29.336-31.41 32.512-9.806 1.652-28.393.644-36.686-1.988-7.578-2.406-14.707-7.438-17.933-12.658l-2.232-3.61 3.63-2.993c3.604-2.97 4.886-6.847 2.263-6.847-.752 0-4.38 2.02-8.064 4.49-9.35 6.27-15.63 7.986-29.068 7.947-26.216-.076-45.488-13.02-51.087-34.3-.96-3.646-2.12-7.126-2.582-7.735s-4.333-1.347-8.603-1.64c-9.346-.64-14.465-2.62-19.52-7.547-12.835-12.507-5.092-38.316 14.49-48.307 2.09-1.067 3.802-2.632 3.802-3.478s-1.364-3.236-3.032-5.31c-3.888-4.838-6.968-12.96-6.967-18.37.002-10.05 10.722-23.954 22.746-29.5 5.663-2.613 12.438-3.196 23.753-2.043l3 .305.677-7.5c.372-4.125 1.14-9 1.704-10.834 4.747-15.4 23.45-28.452 41.62-29.04 1.65-.054 5.827.57 9.28 1.384m-850.263 62.24c-1.446 3.163-5.587 10.394-9.203 16.07-4.642 7.286-6.262 10.633-5.512 11.383 1.948 1.948 4.09-.043 10.095-9.375 6.628-10.3 6.443-10.35 7.533 2.023.92 10.444 5.31 30.313 9.475 42.868 7.823 23.593 23.232 56.917 26.843 58.054 3.15.992 1.827-3.684-5.08-17.954-12.488-25.803-21.644-52.466-25.02-72.86-2.157-13.025-3.084-23.966-2.028-23.932.483.015 2.68 2.728 4.88 6.028 5.256 7.886 10.9 13.39 12.93 12.61 2.298-.88 1.965-2.003-1.872-6.305-1.894-2.123-6.506-8.46-10.25-14.08-4.052-6.084-7.486-10.23-8.484-10.25-1.083-.02-2.607 2.005-4.305 5.72M508.5 721.9c-8.765 3.858-10.16 19-2.357 25.566C508.56 749.5 510.23 750 514.61 750c6.935 0 11.085-1.748 15.157-6.386 5.344-6.086 4.02-13.625-3.385-19.273-2.888-2.202-4.862-2.818-9.75-3.04-3.372-.154-7.03.116-8.13.6m14.59 6.38c4.386 2.956 5.865 6.938 3.878 10.44-2.382 4.197-6.187 6.402-11.385 6.6-6.38.242-9.59-3.155-9.567-10.126.01-2.582.346-5.182.75-5.78 2.68-3.96 11.25-4.554 16.324-1.134M1076 751.3c0 5.122.46 8.76 1.2 9.5.8.8 5.17 1.2 13.07 1.2 11.737 0 11.866-.025 11.55-2.25-.303-2.132-.824-2.265-9.968-2.535l-9.65-.285-.383-4.017c-.2-2.21-.18-4.22.065-4.465s4.423-.448 9.282-.448c8.755 0 8.833-.022 8.833-2.5V743h-24v8.3m75 11.7l-.25 20.75c-.138.413.987.892 2.5 1.066l2.75.317v-13.416c0-7.378.29-16.858.647-21.066l.646-7.65H1151v20m-102.348-8.344c-.36 5.86-.652 13.96-.652 18V780h6v-18h4.5c4.105 0 4.5-.214 4.5-2.443 0-2.158-.494-2.478-4.25-2.75l-4.25-.307-.298-6.25c-.275-5.77-.474-6.25-2.598-6.25-2.215 0-2.324.392-2.952 10.656m-29.985-5.99c-1.23 1.228-.75 22.85.533 24.133.76.76 4.6 1.2 10.5 1.2h9.3v-24.738l-3.75-.62c-5.002-.827-15.748-.81-16.583.025M1118 751.43c0 2.315.385 2.465 8 3.13 4.4.384 8 .79 8 .9s-1.802 6.212-4.005 13.558c-3.08 10.27-3.716 13.542-2.75 14.154 3.455 2.194 4.245.85 8.617-14.666 2.4-8.514 4.126-16.094 3.84-16.844-.564-1.47-7.814-2.64-16.45-2.653-4.896-.008-5.25.155-5.25 2.422m-86.75 2.555c2.735.014 2.75.053 2.75 6.955 0 3.818-.403 7.2-.897 7.495s-2.968.27-5.5-.077l-4.603-.63v-6.697c0-7.373.474-8.41 3.475-7.603 1.114.3 3.262.55 4.775.558m-478.775 15.636c-2.844 3.068-4.133 8.606-2.852 12.25 2.002 5.7 11.327 8.954 16.078 5.626 5.178-3.627 4.97-14.25-.36-18.443-3.848-3.027-9.778-2.765-12.866.568m515.25-.68c-.28 1.068-.256 2.193.05 2.5s10.158.558 21.892.558H1111v-5h-21.383c-20.33 0-21.41.096-21.892 1.942m-504.282 5.28c1.854 2.646 2.03 6.903.357 8.577-3.018 3.018-9.8-.116-9.8-4.528 0-5.642 6.404-8.388 9.443-4.05m511.737 3.027c.31 2.176.725 2.26 12.57 2.53 11.424.262 12.25.413 12.25 2.25 0 1.86-.737 1.97-13.5 1.97H1073v5.878c0 3.783.493 6.286 1.383 7.025.948.787 6.53 1.06 17.75.872 15.61-.262 16.367-.368 16.367-2.275 0-1.897-.76-2.014-14.75-2.277-12.2-.23-14.75-.53-14.75-1.75 0-1.104 1.38-1.504 5.5-1.598 3.025-.07 5.95-.237 6.5-.375s3.925-.306 7.5-.375l6.5-.125v-14h-15.07c-15.055 0-15.07.002-14.75 2.25m-43.972 10.5l.292 7.75 26.5.558V791h-22v-5.5c0-5.224-.127-5.5-2.542-5.5-2.53 0-2.54.04-2.25 7.75m-421.72-.737c-2.754 3.043-2.347 7.852.9 10.645 5.266 4.53 11.61 1.993 11.61-4.642 0-2.99-.6-4.342-2.635-5.943-3.34-2.628-7.53-2.653-9.877-.06M343 861.624c-9.94 1.925-24.623 8.54-32.115 14.47-3.51 2.778-3.665 2.807-5.306.993-2.253-2.49-12.316-7.793-18.282-9.636-12.085-3.733-29.624-2.402-38.656 2.933-8.486 5.013-12.11 8.943-21.14 22.932-.902 1.397-1.61 1.395-7.26-.025-5.714-1.436-6.828-1.433-12.77.033-7.7 1.903-14.08 6.02-18.4 11.895-3.392 4.613-6.07 12.25-6.07 17.31 0 2.722-.556 3.417-3.96 4.953-5.777 2.604-12.842 9.846-15.702 16.09-4.795 10.475-4.168 26.317 1.54 38.884l2.706 5.96-3.273 4.863c-4.214 6.263-5.603 11.592-5.133 19.698 1.036 17.874 15.576 31.13 38.778 35.356 6.42 1.17 6.46 1.198 7.27 5.086 2.44 11.74 13.425 25.326 25.098 31.037 10.76 5.265 25.972 4.9 40.673-.976l8.497-3.396 3.003 2.846c4.253 4.03 8.178 5.78 16.014 7.144 13.736 2.392 29.717-1.16 39.887-8.865l6.07-4.592c.747-.56 2.606.065 5.108 1.72 2.162 1.43 6.855 3.834 10.428 5.34 5.598 2.36 7.878 2.74 16.496 2.76 8.236.02 10.855-.368 14.85-2.195 12.2-5.576 20.865-15.465 24.122-27.498l1.74-6.43 5.644-1.063c23.3-4.388 40.823-21.15 44.232-42.315 1.333-8.282.407-14.673-3.15-21.725l-2.857-5.664 3.71-9.024c3.508-8.532 3.7-9.62 3.7-20.023 0-10.216-.197-11.336-2.767-15.707-1.522-2.59-5.175-6.786-8.118-9.327-5.116-4.417-5.375-4.877-5.883-10.484-.998-11.008-7.477-21.02-16.232-25.082-4.97-2.306-16.15-2.51-23.085-.424l-4.903 1.475-2.438-3.225c-11.08-14.662-32-25.513-50.574-26.236-4.95-.192-10.125-.132-11.5.134m21.54 5.873c3.278.824 10.146 3.588 15.263 6.144 11.814 5.9 20.22 13.843 25.576 24.166 2.72 5.243 4.26 7.212 5.456 6.97 1.694-.344 1.84-1.978.618-6.95-.6-2.442-.322-2.768 3.195-3.744 5.345-1.484 14.783-1.347 18.634.27 4.055 1.704 9.112 6.852 11.338 11.54.94 1.985 1.923 6.904 2.182 10.93.458 7.135.564 7.383 4.1 9.61 5.307 3.35 10.823 9.88 12.036 14.247 1.356 4.883 1.362 14.67.013 19.82-1.18 4.503-4.987 14.5-5.523 14.5-.193 0-1.9-.74-3.793-1.642-3.4-1.622-6.625-1.348-6.625.563 0 .54 2.014 2.37 4.477 4.063 14.882 10.24 14.773 35.087-.22 50.618-8.08 8.37-19.034 14.38-29.155 15.998l-3.88.62-.718-6.182c-.455-3.927-1.24-6.384-2.154-6.734-.8-.303-1.64-.347-1.9-.097s-.623 4.918-.83 10.374c-.257 6.816-1.006 11.552-2.395 15.138-6.92 17.877-24.17 27.358-42.208 23.202-5.775-1.33-17.002-6.69-17.67-8.433-.285-.743.47-2.69 1.68-4.324s1.894-3.467 1.522-4.07c-.777-1.257-4.56-1.5-4.56-.293 0 .44-2.7 3.535-6 6.875-10.762 10.897-23.82 15.996-38.752 15.13-9.6-.555-16.734-3.652-19.75-8.57-2.35-3.836-2.576-3.818-14.556 1.16-19.57 8.134-34.316 6.427-47.343-5.48-5.81-5.31-11.962-15.8-13.146-22.418-.965-5.39-2.05-6.5-6.367-6.5-10.003 0-24.732-6.517-31.112-13.765-10.797-12.265-11.17-25.972-1.022-37.53l3.243-3.693-2.517-4.294c-4.15-7.082-6.68-15.985-6.68-23.505 0-14.283 5.46-23.944 16.51-29.218 6.488-3.097 6.49-3.098 6.49-7.365 0-7.35 2.715-14.4 7.316-18.993 8.075-8.064 16.91-10.282 27.158-6.816 3.286 1.11 6.305 1.815 6.7 1.566s2.2-3.252 4.014-6.67c4.474-8.482 12.25-16.095 20.28-19.852 15.067-7.05 35.713-3.902 49.4 7.533l4.255 3.555 7.82-5.48c17.332-12.144 33.436-16.034 49.59-11.976m666.117 49.248c-.29.468-1.255 5.104-2.148 10.303-3.293 19.192-11.937 40.608-23.39 57.952-5.276 8-24.83 29-27 29-.543 0 .113-2.71 1.458-6.02 2.8-6.916 5.3-16.895 4.674-18.73-.497-1.456-2.883-1.668-3.71-.33-.312.506-1.64 4.444-2.947 8.75s-3.85 11.562-5.647 16.124c-3.953 10.034-3.59 10.757 4.663 9.313 3.235-.567 11.434-1.338 18.22-1.715 9.407-.523 12.47-1.03 12.895-2.14 1.045-2.72-2.067-3.327-13.638-2.655l-11.404.662 9.02-8.88c16.264-16.008 28.42-35.6 35.73-57.555 3.833-11.516 6.848-26.19 6.372-31.01-.303-3.066-2.086-4.8-3.156-3.07m-628.032 34.38c-.344 1.72-.625 11.17-.625 21V990h2.36c2.1 0 2.43-.577 2.99-5.25.347-2.888.635-12.337.64-21L408 948h-2.375c-1.86 0-2.51.678-3 3.125m-173.018 2.457c-1.17 3.047-.56 3.418 5.643 3.43 3.438.006 7.938.3 10 .63l3.75.62v7.37c0 7.194.06 7.37 2.5 7.37 2.492 0 2.5-.032 2.5-9.525 0-9.304-.06-9.547-2.565-10.5-1.41-.536-6.763-.975-11.893-.975-7.583 0-9.442.296-9.935 1.582m98.198 3.168l-.305 4.75-5.25-.322c-5.015-.307-5.25-.21-5.25 2.17 0 3.002 1.093 3.287 16.25 4.225l10.75.665v-2.567c0-2.392-.36-2.588-5.25-2.87l-5.25-.302-.302-5.25c-.276-4.786-.514-5.25-2.695-5.25-2.146 0-2.425.492-2.698 4.75m-43.546-2.263c-4.745 2.063-6.967 7.205-5.39 12.472 1.267 4.232 3.846 6.2 9.796 7.482 4.456.96 10.855-1.017 13.28-4.1 2.493-3.17 2.694-8.982.423-12.224-3.296-4.706-11.74-6.398-18.1-3.63m64.547 17.013l-.25 21.75c-.048 2.808.313 3.293 2.658 3.563l2.715.313.57-20.626 4.812-.307c4.307-.275 4.78-.538 4.5-2.5-.257-1.805-1.065-2.247-4.562-2.5l-4.25-.308V953h-6l-.194 18.5m20.944-16.94c-.413.425-.75 1.533-.75 2.462 0 1.387 1.36 1.792 7.597 2.264 4.178.316 7.85.83 8.16 1.14s-1.165 6.452-3.28 13.648c-3.236 11-3.618 13.226-2.412 14 2.698 1.707 3.857.934 4.962-3.313.608-2.337 2.638-9.42 4.51-15.742 2.677-9.034 3.144-11.747 2.183-12.685-1.41-1.376-19.846-2.925-20.973-1.763M297 960c1.1 1.1 2 2.83 2 3.845 0 5.35-10.52 7.7-14.19 3.167-2.36-2.912-2.29-3.623.646-6.557 3.11-3.1 8.67-3.33 11.545-.455m-62.2 10.713l-.3 5.713-7 .037c-6.3.033-7 .233-7 2.027 0 2.836 3.058 3.255 24.75 3.392L264 982v-4.937l-23.5-.563-.3-5.75c-.277-5.32-.48-5.75-2.7-5.75s-2.423.432-2.7 5.713m88.327 1.383c-8.96 8.347-1.658 23.545 9.536 19.85 7.403-2.443 9.963-13.474 4.414-19.023-3.72-3.72-10.418-4.117-13.95-.827m10.302 4.475c3.26 3.262.606 10.43-3.863 10.43-2.987 0-4.9-2.342-4.9-6 0-5.422 5.16-8.03 8.762-4.43m-64.044 3.99c.338.88.615 2.015.615 2.52s2.68.918 5.956.918h5.956l.294 7.25c.287 7.082.358 7.257 3.044 7.566l2.75.317V983.88l7.5.62.5 7.5c.487 7.3.688 7.663 3.956 7.15.526-.083 1.09-3.413 1.25-7.4l.294-7.25h5.5c5.2 0 5.5-.136 5.5-2.5v-2.5l-21.865-.27c-19.708-.243-21.804-.112-21.25 1.332m-34.554 5.968c-3.815 2.07-5.42 7.432-3.395 11.345 1.838 3.556 2.65 4.126 7.432 5.218 8.797 2 16.157-2.01 16.1-8.795-.054-6.52-3.73-9.32-12.152-9.258-2.924.022-6.517.692-7.985 1.5m535.47 2.332c-10.334 3.57-19.273 12.333-23.287 22.825-1.646 4.303-2.14 4.79-4.677 4.588-19.4-1.535-20.504-1.526-26.888.202-8.092 2.2-14.737 7.835-19.3 16.396-3.376 6.335-7.148 19.308-7.148 24.587 0 3.048-.222 3.205-7.6 5.376-6.504 1.913-8.372 3.006-12.934 7.57-4.17 4.17-5.7 6.598-7.02 11.14-2.437 8.385-1.588 17.315 2.488 26.158l3.22 6.985-2.516 3.707c-5.826 8.586-5.793 22.966.076 32.458 5.175 8.37 12.89 11.744 24.83 10.857l7.04-.523 2.95 5.657c3.838 7.36 13.908 17.247 21.2 20.818 7.897 3.866 17.306 4.36 26.17 1.372l6.405-2.16 5.095 4.95c8.877 8.624 17.17 12.663 29.107 14.176 13.182 1.672 25.31-1.662 35.123-9.654l5.158-4.202 6.046 1.882c10.43 3.246 21.903 4.4 30.807 3.1 11.127-1.626 19.225-5.837 27.963-14.543 7.507-7.48 11.572-14.22 13.778-22.848l1.34-5.235 6.386-1.5c8.066-1.894 11.608-3.842 16.17-8.9 12.065-13.355 14.63-38.645 5.313-52.376l-2.45-3.61 2.122-5.313c1.672-4.185 2.134-7.54 2.178-15.812.05-9.468-.213-11.044-2.667-16.038-5.847-11.893-16.863-19.582-29.583-20.65l-6.886-.577-3.23-5.4c-11.33-18.94-33.4-30.075-52.288-26.38-3.46.677-9.7 2.537-13.845 4.135l-7.553 2.905-5.447-5.247c-6.125-5.902-14.403-10.316-22.066-11.77-7.858-1.5-17.785-1.117-23.58.885m-521.55 2.398c3.287 2.59-.54 7.74-5.75 7.74-5.224 0-9.013-5.12-5.75-7.77 2.708-2.198 8.7-2.183 11.5.03m553.074 4.73c6.575 3.03 10.428 6.302 16.93 14.378 1.113 1.382 2.16 1.12 9.338-2.352 15.778-7.63 26.315-7.948 40.342-1.217 10.1 4.846 17.797 12.01 23.566 21.938l3.5 6.023 7.57.445c12.786.75 21.58 6.56 26.81 17.7 3.612 7.702 3.698 19.582.21 29.255l-2.404 6.67 3.156 4.917c1.736 2.705 3.91 7.98 4.835 11.725 1.423 5.765 1.502 7.846.514 13.605-3.118 18.18-14.514 30.6-27.433 29.89-1.792-.098-3.773-.133-4.402-.077s-1.637 2.914-2.24 6.35c-2.233 12.716-11.11 25.006-23.142 32.033-10.6 6.192-26.696 7.27-41.176 2.756l-6.702-2.09 2.055-3.484c2.125-3.6 1.925-6.466-.452-6.466-.75 0-2.785 2.194-4.522 4.875-4.217 6.508-10.22 11.784-17.058 15-5.093 2.388-6.744 2.635-17.62 2.635-11.81 0-12.118-.058-19.5-3.69-7.49-3.686-9.404-5.074-13.87-10.053l-2.372-2.643 2.62-2.307c1.865-1.64 2.357-2.715 1.707-3.726-.75-1.164-2.48-.625-9.628 3-8.18 4.148-9.214 4.42-16.836 4.42-9.768 0-15.203-2.265-22.463-9.363-6.94-6.786-11.046-13.306-14.16-22.492-1.76-5.193-3.348-8.262-4.382-8.47-2.284-.456-2.937 2-1.712 6.44.79 2.863.747 3.988-.178 4.575-1.94 1.233-10.857.854-15.042-.64-4.947-1.764-7.106-3.79-9.527-8.94-4.4-9.36-3.63-19.896 2.02-27.7l2.988-4.124-3.833-7.552c-3.514-6.924-3.832-8.225-3.816-15.644.02-8.725 1.914-13.93 6.636-18.23 3.553-3.235 10.312-6.328 15.333-7.016 2.47-.34 4.886-1.118 5.366-1.73s1.14-4.104 1.463-7.756c1.393-15.703 8.512-29.14 18.057-34.08 5.65-2.926 18.648-3.55 28.052-1.35 3.808.892 7.22 1.273 7.585.846s1.477-3.026 2.475-5.776c2.406-6.63 7.982-14.99 12.087-18.122 6.513-4.968 12.013-6.448 22.5-6.057 8.287.3 10.536.802 16.753 3.668M769 1084.14c0 10.25.867 11.77 6.75 11.828 2.792.028 3.25.385 3.25 2.532 0 2.49-.033 2.5-9.5 2.5s-9.5.01-9.5 2.5v2.5l39.25.444c2.564.044 3.313-.388 3.55-2.05.264-1.85-.344-2.182-5-2.74-2.916-.35-6.988-.64-9.05-.645-3.31-.008-3.75-.297-3.75-2.454 0-2.208.46-2.475 4.75-2.75 3.982-.256 4.75-.628 4.75-2.305 0-1.842-.762-2.023-9.632-2.285l-9.632-.285-.618-3.1c-.34-1.7-.618-5.284-.618-7.965 0-4.533-.175-4.875-2.5-4.875-2.484 0-2.5.057-2.5 9.14m-300.914-6.744c-.954 1.15-.598 2.628 1.76 7.3 1.626 3.22 4.402 10.57 6.168 16.33 3.28 10.7 4.95 13.733 6.9 12.533 1.73-1.068 1.336-3.453-2.396-14.537-1.92-5.704-3.384-10.474-3.25-10.602s5.144 2.84 11.134 6.595c30.67 19.22 68.802 30.614 108.608 32.45 15.964.737 23.5-.198 23.5-2.917 0-1.853-.882-1.96-17.5-2.153-30.796-.356-54.182-5.128-85-17.346-9.62-3.814-38-20.037-38-21.72 0-.264 4.02-.165 8.933.22 11.03.862 16.067.083 16.067-2.487 0-2.242-1.746-3.024-5.252-2.354-2.56.49-25.65-1.335-28.857-2.28-.885-.26-2.147.175-2.805.967m375.58.27c-.367.366-.667 9.816-.667 21V1119h2.353c2.2 0 2.393-.467 3-7.65.356-4.208.647-13.658.647-21 0-13.318-.005-13.35-2.333-13.35-1.284 0-2.634.3-3 .667m-33.667 7.68c0 3.06 1.553 3.653 9.582 3.653 3.53 0 6.418.253 6.418.56s-1.575 6.032-3.5 12.72c-4.19 14.55-4.277 15.72-1.177 15.72 2.134 0 2.705-1.28 7.003-15.712 3.72-12.492 4.422-15.95 3.427-16.88-.69-.644-5.865-1.47-11.503-1.834l-10.25-.665v2.44m-42.62 25.105c-1.157 3.014.76 3.548 12.75 3.548 11.883 0 12.007.024 11.69 2.25-.31 2.188-.688 2.258-13.57 2.53l-13.25.28v5.316c0 8.6.602 8.833 19.87 8.01l16.13-.7v-4.86l-14.746.28c-13.21.25-14.78.103-15.074-1.417-.294-1.526.986-1.697 12.688-1.697 7.205 0 13.278-.427 13.605-.957s.3-3.9-.08-7.5l-.67-6.543H782.33c-11.66 0-14.5.276-14.95 1.452" fill-rule="evenodd"/></svg>