<svg xmlns="http://www.w3.org/2000/svg" width="100%" height="100%" viewBox="0 0 1024 1024" fill-rule="evenodd" stroke-linejoin="round" stroke-miterlimit="1.5" xmlns:v="https://vecta.io/nano"><g transform="matrix(.927734 0 0 .927734 37 37)"><g stroke-width="151.26" stroke="#fff000"><circle cx="1677.16" cy="614.173" r="354.331" fill="#fff000" transform="matrix(.296913 0 0 .296913 -28.0548 336.658)"/><g fill="#fdf000"><circle cx="1677.16" cy="614.173" r="354.331" transform="matrix(.296913 0 0 .296913 -28.0548 -21.0411)"/><circle cx="1677.16" cy="614.173" r="354.331" transform="matrix(.296913 0 0 .296913 -392.767 336.658)"/><circle cx="1677.16" cy="614.173" r="354.331" transform="matrix(.296913 0 0 .296913 -28.0548 687.342)"/><circle cx="1677.16" cy="614.173" r="354.331" transform="matrix(.296913 0 0 .296913 315.616 287.562)"/></g></g><g fill="#33c1c8" fill-rule="nonzero"><path d="M69.3 70.965h218.25v12.37H56.938V0h12.37v70.965zm105.204 63.123H287.56v12.37H49.096v-12.37h113.047V98.192h12.37v35.896zM279.72 258.68H69.3v43.738h218.25V314.8H56.938v-68.482h210.4V202.57H49.096V190.2H279.72v68.48zM470.142 92.006c17.568.083 34.926 7.075 47.586 19.147 15.78 15.047 23.863 37.644 20.855 59.626-2.672 19.52-14.163 37.7-30.787 48.574-14.846 9.7-33.5 13.382-50.986 10.03-21.102-4.048-39.956-18.52-49.36-38.025-9.115-18.903-9.065-42.015.463-61.03 10.793-21.538 33.2-36.792 58.002-38.2 1.404-.08 2.818-.116 4.225-.113zm-.4 12.37c-17.36.083-34.38 8.458-45.024 22.34-10.97 14.304-14.58 33.946-9.22 51.355 4.9 15.946 17.153 29.415 32.598 35.84 16.787 6.984 36.93 5.3 52.358-4.538 15.974-10.176 26.35-28.602 26.4-47.874.06-18.904-9.932-37.538-25.977-47.965-9.106-5.918-19.964-9.106-30.775-9.157a77.32 77.32 0 0 0-.371 0zM625.047 0h12.37v322.63h-12.37zM470.142 449.705c17.595.084 35.003 7.077 47.738 19.3 15.733 15.094 23.744 37.793 20.674 59.7-2.732 19.503-14.246 37.557-30.757 48.358-14.846 9.7-33.5 13.382-50.986 10.03-21.105-4.048-39.96-18.52-49.36-38.025-9.145-18.966-9.07-42.15.558-61.217 11.203-22.188 34.83-37.55 60.345-38.117l1.787-.017zm-.4 12.37c-17.625.085-34.834 8.7-45.437 22.885-12.298 16.44-14.83 39.64-5.775 58.566 7.666 16.022 23.16 28.054 40.62 31.404 14.077 2.7 29.2-.14 41.304-7.86 16-10.194 26.35-28.6 26.4-47.874.056-18.68-9.66-37.017-25.26-47.492-9.2-6.177-20.273-9.54-31.3-9.63l-.552-.001zm155.305-111.4h12.37v322.63h-12.37zM470.142 800.4c21.16.105 42.084 10.392 55.054 27.513 6.38 8.425 10.802 18.32 12.8 28.688 3.56 18.568-.852 38.56-12.046 53.9-10.15 13.913-25.632 23.85-42.5 27.192-4.454.882-8.993 1.324-13.533 1.324-17.717 0-35.324-7.1-48.1-19.435-13.388-12.917-21.256-31.374-21.2-50.097.06-18.573 7.93-36.923 21.348-49.794 12.435-11.93 29.3-18.948 46.62-19.28l1.565-.012zm-.4 12.37c-17.506.087-34.825 8.7-45.437 22.885-12.352 16.507-14.795 39.858-5.7 58.722 7.63 15.83 22.913 27.756 40.196 31.18 14.43 2.86 29.9-.105 42.233-8.164 15.7-10.275 25.83-28.525 25.83-47.686 0-18.528-9.638-36.75-25.12-47.212-9.3-6.284-20.686-9.67-31.636-9.726h-.368zm155.305-111.4h12.37V1024h-12.37zM813.814 400.8c17.438.083 34.605 6.915 47.283 18.86 15.965 15.04 24.187 37.78 21.158 59.912-2.7 19.732-14.374 37.978-31.137 48.802-14.75 9.522-33.153 13.1-50.425 9.84-21.235-4.006-40.226-18.53-49.662-38.255-9.07-18.96-8.934-42.047.65-61.027 10.808-21.4 33.133-36.528 57.684-38.008a71.88 71.88 0 0 1 4.448-.126zm-.4 12.37c-17.622.085-34.935 8.755-45.54 23.022-10.407 13.998-13.878 32.913-8.955 49.833 4.742 16.3 17.126 30.137 32.85 36.68 16.62 6.916 36.532 5.348 51.924-4.264 16.375-10.227 26.97-29.08 26.84-48.7-.116-18.526-9.86-36.666-25.4-47.035-9.2-6.138-20.196-9.48-31.35-9.534h-.368zm169.332-62.495h12.37v322.63h-12.37zm-877.316 99.02c21.33.102 42.346 10.523 55.303 27.846 12.86 17.187 17.156 40.5 10.85 61.452-5.876 19.516-20.84 36.146-39.795 44.03-16.776 6.98-36.35 6.994-53.162 0-18.848-7.84-33.866-24.335-39.795-44.03-6.143-20.396-2.265-43.595 10.475-60.95 12.075-16.447 31.532-27.135 52.12-28.246a70.43 70.43 0 0 1 4.005-.1zm-.4 12.37c-17.634.085-34.834 8.7-45.437 22.885-10.597 14.165-14.05 33.4-8.9 50.474 4.843 16.083 17.138 29.7 32.702 36.175 13.8 5.736 29.87 5.738 43.66 0 18.1-7.534 31.8-24.9 34.555-44.632 2.055-14.668-1.826-30.072-10.763-42.017-10.5-14.05-27.67-22.8-45.44-22.885h-.368zm162.32-111.4h12.37v322.63h-12.37zm503.33-258.68h229.78v12.37H758.306V0h12.372v92.006zm-54.188 84.164h306.414v12.37H716.492z"/><path d="M770.68 302.417h232.28v12.372H758.306V182.356h12.372v120.06zM273.534 498.8h56.1v12.37h-56.1zm442.958 154.3h251.4v12.37h-251.4zM180.905 849.844l-11.125 5.413-64.574-132.735L40.63 855.257l-11.125-5.413 70.137-144.166h11.125l70.137 144.166zm86.443-148.474h12.37V869.7h-12.37z"/><path d="M273.534 765.322h56.1v12.37h-56.1zM967.9 821.43h56.1v12.37h-56.1zM139.446 960.05H55.282v43.738h92.006v12.37H42.9v-68.48h84.164V903.94H35.07v-12.372h104.377v68.483zm140.274 56.107h-96.536v-124.6h96.536v124.6zM195.555 903.94v99.85h71.793v-99.85h-71.793z"/><path d="M890.738 721.583H742.623v282.204h148.115v12.37H730.25V709.2h160.487v12.372zm70.965-20.213h12.37V1024h-12.37z"/></g></g></svg>