<svg xmlns="http://www.w3.org/2000/svg" width="100%" height="100%" viewBox="0 0 2048 770" fill-rule="evenodd" stroke-linejoin="round" stroke-miterlimit="2"><path d="M100.3 179c-.423 1.616-1.364 2-4.907 2-3.23 0-4.383.395-4.383 1.5 0 1.247 1.954 1.5 11.583 1.5 8.82 0 11.486-.298 11.173-1.25-.226-.687-2.338-1.39-4.694-1.563-3.24-.237-4.405-.784-4.79-2.25-.663-2.535-3.315-2.493-3.983.063m176 0c-.423 1.616-1.364 2-4.907 2-3.23 0-4.383.395-4.383 1.5 0 1.242 1.89 1.5 11 1.5s11-.258 11-1.5c0-1.09-1.122-1.5-4.094-1.5-3.252 0-4.2-.41-4.616-2-.288-1.1-1.188-2-2-2s-1.713.9-2 2m-222.086 5.75l.296 6.75h26v-6.486c0-5.48-.283-6.54-1.82-6.837-1.18-.228-2.013.384-2.367 1.736-.5 1.91-1.27 2.087-9.022 2.087-7.636 0-8.53-.198-9-2-.295-1.128-1.364-2-2.452-2-1.744 0-1.9.647-1.634 6.75M117 191.5c0 12.718.113 13.5 1.95 13.5 1.673 0 1.993-.818 2.25-5.75.284-5.443.447-5.767 3.05-6.066 3.426-.395 3.74-3.184.357-3.184-2.834 0-3.607-1.624-3.607-7.582 0-3.75-.302-4.418-2-4.418-1.9 0-2 .667-2 13.5m42.425-12.166c-.28.733-.38 5.12-.218 9.75.274 7.863.44 8.437 2.543 8.736 2.206.313 2.25.12 2.25-9.75 0-9.455-.124-10.07-2.03-10.07-1.118 0-2.262.6-2.544 1.334m22.45-.834c-.07.275-.18 1.063-.25 1.75-.076.758-1.993 1.37-4.875 1.555-3.934.252-4.75.64-4.75 2.25 0 1.814.775 1.945 11.5 1.945 10.833 0 11.5-.116 11.5-2 0-1.704-.667-2-4.5-2s-4.5-.296-4.5-2c0-1.333-.667-2-2-2-1.1 0-2.056.225-2.125.5M199 193.073c0 13.816.146 15.046 1.75 14.74 1.424-.27 1.805-1.6 2.046-7.073.295-6.732.3-6.74 3.25-6.74 3.842 0 4.018-2.745.204-3.184-2.636-.303-2.762-.576-3.048-6.566-.258-5.43-.553-6.25-2.25-6.25-1.85 0-1.952.79-1.952 15.073m53.218-3.335c.243 10.105.518 11.783 1.978 12.063 1.393.267 1.75-.622 2-4.988.284-4.965.484-5.334 3.054-5.63 1.512-.174 2.75-.932 2.75-1.684s-1.238-1.5-2.75-1.684c-2.518-.29-2.776-.716-3.055-5.066-.254-3.962-.633-4.75-2.282-4.75-1.873 0-1.962.617-1.695 11.738m41.003 1.5c.243 11.524.5 13.28 1.977 13.563 1.414.27 1.75-.647 2-5.488.288-5.543.432-5.828 3.11-6.135 3.727-.427 3.283-3.55-.568-3.994-2.613-.302-2.74-.57-2.74-5.75 0-4.793-.24-5.434-2.03-5.434-1.95 0-2.018.512-1.75 13.238m43.78 6.835c0 18.58.13 20.05 1.75 19.737 1.585-.304 1.776-2.196 2.02-20.073.264-19.23.22-19.737-1.75-19.737-1.96 0-2.02.597-2.02 20.073m39-13.573v6.5h-4c-2.89 0-4 .417-4 1.5s1.108 1.5 3.968 1.5h3.97l.28 11.75c.272 11.326.363 11.762 2.532 12.07l2.25.32V178h-2.5c-2.4 0-2.5.233-2.5 6.5m-235.296-1.25c-.443 3.37-1.426 5.024-4.744 7.986-2.735 2.44-3.98 4.272-3.6 5.285.536 1.398.885 1.398 3.594-.003 1.65-.853 3.986-2.884 5.2-4.512 2.104-2.846 2.24-2.887 3.535-1.04.74 1.057 2.705 2.89 4.364 4.07 2.444 1.74 3.3 1.914 4.5.917 1.27-1.053.9-1.73-2.542-4.677-2.866-2.453-4.346-4.718-5.137-7.862-1.528-6.067-4.382-6.16-5.17-.166M329 186.07c0 6.705-.113 7.053-2.19 6.75-1.556-.227-2.45-1.334-3.08-3.82-2.235-8.78-10.62-10.813-14.45-3.5-3.18 6.072-2.24 16.785 1.855 21.142 4.524 4.816 11.102 1.328 12.757-6.765.502-2.452 1.228-3.377 2.65-3.377 1.793 0 1.983.833 2.246 9.816.253 8.643.492 9.777 2 9.487 1.53-.294 1.742-2.27 1.986-18.566.265-17.728.216-18.237-1.75-18.237-1.84 0-2.023.64-2.023 7.07m-94.41-1.91c-.86 5.378-3.125 9.135-6.826 11.32-2.62 1.547-2.79 1.923-1.48 3.233 1.848 1.848 4.37.676 8.108-3.767l2.608-3.1 2.544 3.023c2.987 3.55 6.35 4.92 7.503 3.054.528-.855-.558-2.494-3.22-4.857-3.35-2.974-4.107-4.356-4.552-8.317-.41-3.644-.94-4.75-2.277-4.75-1.27 0-1.922 1.126-2.407 4.16m123.095 3.3c-.684 7.33-3.37 13.36-7.337 16.482-2.526 1.987-2.596 2.24-1.042 3.795s1.862 1.477 4.606-1.152c1.618-1.55 3.48-4.115 4.136-5.7s1.487-2.883 1.845-2.883 1.53 1.63 2.603 3.624 3.002 4.312 4.287 5.154c2.1 1.376 2.493 1.374 3.893-.026 1.41-1.41 1.358-1.663-.53-2.673-3.737-2-7.338-9.57-7.903-16.62-.42-5.24-.844-6.46-2.237-6.46-1.385 0-1.836 1.253-2.322 6.458M76 186.5c0 1.222-1.667 1.5-9 1.5-8.255 0-10.14-.528-8.333-2.333.366-.367 4.416-.667 9-.667 6.74 0 8.333.287 8.333 1.5m242.43.07c2.145 2.145 2.155 13.15.014 16.206-3.447 4.922-6.776 1.1-6.776-7.777 0-8.588 2.94-12.25 6.762-8.43m-223.264 1.026c-3.354 2.35-2.587 6.475 1.563 8.403 4.92 2.286 4.15 4-1.8 4-4.3 0-5.02.267-4.72 1.75.31 1.535 1.46 1.718 9.323 1.487 12.082-.354 15.47-.984 15.47-2.876 0-1.28-.852-1.43-4.892-.876-6.16.847-7.57-.82-2.67-3.156 4.598-2.193 5.414-4.794 2.483-7.914-1.824-1.94-3.27-2.415-7.372-2.415-3.055 0-6.018.64-7.383 1.597m176.058-.04c-3.558 2.492-2.93 6.25 1.346 8.036 4.725 1.975 3.887 3.834-1.897 4.212-3.267.213-4.672.74-4.672 1.75 0 2.73 23.824 1.472 24.75-1.31.3-.896-1.154-1.246-5.168-1.246-6.097 0-7.25-1.223-2.66-2.823 3.844-1.34 5.705-4.68 3.896-6.99-.725-.927-1.77-2.017-2.32-2.42-1.847-1.356-10.99-.812-13.277.792m-92.908 1.45c-2.45.987-4.315 3.907-4.315 6.753 0 2.412 3.708 5.895 7.197 6.76 3.447.855 9.524-1.132 10.81-3.535 3.9-7.29-4.738-13.587-13.693-9.98m-71.65 1.56c.85 2.213-1.075 3.766-4.664 3.766s-5.513-1.553-4.664-3.766C97.745 189.5 99.234 189 102 189s4.255.5 4.664 1.567m175.836.933c0 1.57-.754 2.056-3.5 2.26-4.254.317-6.517-.97-5.655-3.218.484-1.26 1.66-1.585 4.896-1.35 3.5.252 4.26.67 4.26 2.308m-95.434.535c4.152 2.223 1.612 6.965-3.73 6.965-4.632 0-6.574-3.578-3.357-6.183 2.556-2.07 4.318-2.264 7.088-.782m-137.4 2.632c-.367.366-.667 1.266-.667 2 0 1 2 1.333 8 1.333 6.444 0 8 .292 8 1.5 0 1.152-1.278 1.5-5.5 1.5-4.833 0-5.5.242-5.5 2 0 1.885.667 2 11.583 2 8.822 0 11.485.298 11.17 1.25-.29.877-3.747 1.334-11.583 1.533l-11.17.283V217h14c11.778 0 14-.238 14-1.5 0-1.25-2-1.5-12-1.5-9.88 0-12-.26-12-1.467 0-1.186 2.157-1.522 11.25-1.75l11.25-.283.6-9.5h-5.555c-4.27 0-5.555-.347-5.555-1.5 0-1.2 1.5-1.5 7.5-1.5 6.833 0 7.5-.178 7.5-2 0-1.923-.667-2-17.333-2-9.534 0-17.634.3-18 .667M138 201.97c0 1.918.612 2.03 11.083 2.03 8.422 0 10.984.3 10.67 1.25-.29.87-3.648 1.336-11.083 1.534l-10.67.284V217h13.5c11.333 0 13.5-.24 13.5-1.5 0-1.246-1.944-1.5-11.5-1.5-10.833 0-11.5-.116-11.5-2s.667-2 11.055-2H164.1l-.6-9.5-12.75-.28c-12.238-.27-12.75-.198-12.75 1.75m97.308 2.04c-3.064 1.234-5.616 5.444-4.82 7.952 1.033 3.255 6.28 5.454 13.012 5.454s11.98-2.2 13.012-5.454c.833-2.625-1.805-6.743-5.13-8.007-3.096-1.177-13.102-1.143-16.075.055m-56.62 1.636c-.38.378-.688 3.1-.688 6.05v5.362l13.25-.28c10.987-.23 13.25-.535 13.25-1.78 0-1.227-2.036-1.55-11.192-1.782l-11.19-.282-.31-3.64c-.296-3.493-1.67-5.1-3.12-3.65m100.812-.028c-6.838 1.69-9.13 3.818-7.99 7.415 1.378 4.343 17.437 6.197 22.866 2.64 3.314-2.17 3.483-6.062.353-8.113-2.397-1.57-11.85-2.776-15.23-1.94m-28.476 1.897c1.662 1.027 1.076 4.36-.958 5.45-1.064.57-4.02 1.035-6.566 1.035s-5.502-.466-6.566-1.035c-2.844-1.522-2.414-4.613.816-5.86 2.7-1.043 11.357-.776 13.274.41M95 208.5c0 1.242 1.89 1.5 11 1.5h11v4c0 3.333.333 4 2 4 1.758 0 2-.667 2-5.5V207h-13c-10.89 0-13 .244-13 1.5m195.5 1.02c2.793.58 3.352 2.94.918 3.874-3.12 1.197-14.138.65-15.308-.76-2.852-3.437 4.83-5.1 14.4-3.114M1587 230.43V242h2.5c2.33 0 2.5-.333 2.5-5s.17-5 2.5-5c1.56 0 2.5-.567 2.5-1.5 0-.924-.94-1.5-2.44-1.5-2.2 0-2.48-.46-2.75-4.75-.26-4.053-.64-4.797-2.56-5.07-2.22-.315-2.25-.176-2.25 11.25m44.7-10.798c-.38.386-.7 4-.7 8.035 0 6.666-.18 7.333-2 7.333s-2-.667-2-7.5-.18-7.5-2-7.5c-1.93 0-2 .667-2 18.5 0 17.715.08 18.5 1.96 18.5 1.8 0 2-.823 2.25-9.25.23-7.428.6-9.25 1.8-9.25s1.6 2 2 10c.46 9.167.67 10 2.5 10 1.93 0 2-.667 2-19.486 0-16.8-.2-19.528-1.55-19.785-.85-.164-1.86.017-2.25.403M1671 224v5h-3.5c-2.83 0-3.5.38-3.5 2s.67 2 3.5 2h3.5v5c0 4.333.27 5 2 5 1.9 0 2-.667 2-12s-.1-12-2-12c-1.73 0-2 .667-2 5m41 9.5c0 13.833.1 14.5 2 14.5s2-.667 2-14.5-.1-14.5-2-14.5-2 .667-2 14.5m51-2.5c0 12.017.02 12.136 2.25 11.82 1.9-.272 2.3-1.018 2.55-5.007.26-3.946.65-4.737 2.5-5 3.25-.464 3.54-3.813.34-3.813-2.3 0-2.55-.42-2.82-4.75-.26-4.053-.64-4.797-2.56-5.07-2.23-.316-2.25-.197-2.25 11.82m24-10.055c0 1.61-.82 1.998-4.75 2.25-3.42.22-4.75.725-4.75 1.805 0 1.246 1.94 1.5 11.5 1.5s11.5-.254 11.5-1.5c0-1.08-1.33-1.585-4.75-1.805-3.93-.252-4.75-.64-4.75-2.25 0-1.278-.68-1.945-2-1.945s-2 .667-2 1.945M1804 232c0 12.192.12 13 1.94 13 1.44 0 2-.8 2.25-3.21.24-2.475.88-3.344 2.8-3.794 3.62-.847 3.84-3.768.3-4.173-2.04-.233-2.8-.873-2.8-2.322s.77-2.09 2.8-2.322c3.73-.427 3.28-3.55-.57-3.994-2.3-.265-2.74-.796-2.74-3.25 0-2.267-.45-2.934-2-2.934-1.9 0-2 .667-2 13m97-8c0 4.333-.27 5-2 5-1.7 0-2-.667-2-4.5 0-4.15-.2-4.5-2.53-4.5h-2.54l.3 11.25c.26 10.49.4 11.25 2.28 11.25 1.68 0 2.05-.768 2.3-4.75.25-3.934.63-4.75 2.25-4.75 1.66 0 1.94.714 1.94 5 0 4.333.27 5 2 5 1.9 0 2-.667 2-12s-.1-12-2-12c-1.73 0-2 .667-2 5m-21.3-2.368c-.38.386-.7 2.55-.7 4.812 0 4.107-1.8 7.718-5.28 10.565-1.17.956-1.6 2.146-1.17 3.25.98 2.557 1.92 2.184 5.74-2.285l3.45-4.026 1.6 2.45c1.85 2.826 5.4 4.264 6.87 2.788.7-.683-.07-1.978-2.3-3.982-2.76-2.47-3.4-3.87-3.86-8.327-.38-3.745-1-5.445-2.1-5.65-.85-.162-1.86.02-2.25.406M1561 223.5c0 1.115 1.17 1.5 4.58 1.5h4.58l-.7 3.236c-.86 3.928-3.17 7.214-6.24 8.89-2.38 1.306-2.63 3.9-.43 4.632.7.234 3.16-1.46 5.46-3.763 4.05-4.048 4.24-4.123 5.74-2.266 2.3 2.842 6.78 5.536 7.98 4.797 1.8-1.11 1.14-3.134-1.45-4.523-2.98-1.596-5.2-4.752-5.67-8.077-.3-2.205.05-2.455 3.9-2.734 2.9-.2 4.25-.768 4.25-1.75 0-1.17-2.08-1.443-11-1.443-9.1 0-11 .258-11 1.5m83 0c0 1.083 1.1 1.5 4 1.5 3 0 4 .4 4 1.6 0 3.05-3.26 8.44-6.12 10.132-2.95 1.744-3.7 3.654-1.84 4.796 1.3.8 5.82-2.08 8.4-5.35 1.9-2.416 1.95-2.423 3.52-.49 2.78 3.44 7.02 5.744 8.26 4.5.82-.813 0-2.2-3.05-5.148-3.06-2.97-4.16-4.832-4.16-7.04 0-2.835.22-3 4-3 2.9 0 4-.417 4-1.5 0-1.238-1.83-1.5-10.5-1.5s-10.5.262-10.5 1.5m42.92 1.423c-4.9 4.9-3.52 12.616 2.76 15.598 8.57 4.063 17.8-4.114 14.27-12.634-2.6-6.307-12.04-7.948-17.03-2.964M1738 231v9h19v-9c0-8.933-.02-9-2.5-9-2 0-2.5.5-2.5 2.5 0 2.333-.33 2.5-5 2.5s-5-.167-5-2.5c0-1.833-.53-2.5-2-2.5-1.85 0-2 .667-2 9m97 .5v9.5h11v9h-7.5c-6.83 0-7.5.178-7.5 2 0 1.926.67 2 18.07 2 16.68 0 18.05-.136 17.74-1.75-.27-1.456-1.63-1.8-8.07-2.042l-7.74-.292V241h11v-19h-27v9.5m-233-6c0 1.048 1.06 1.5 3.5 1.5 3.24 0 3.5.23 3.5 3.057 0 5.414-2.18 11.923-5 14.948-2.2 2.364-2.53 3.255-1.6 4.512 1.02 1.397 1.38 1.343 3.37-.505 1.22-1.138 2.9-3.407 3.76-5.04.84-1.634 1.7-2.97 1.92-2.97.22 0 1.34 1.53 2.5 3.4 2.33 3.77 4.86 5.203 6.42 3.638.7-.7.23-1.898-1.5-3.782-3.14-3.418-4.8-7.55-5.1-12.757-.23-3.84-.1-4.013 3-4.313 2-.194 3.25-.86 3.25-1.75 0-1.143-1.84-1.437-9-1.437-7.33 0-9 .278-9 1.5m97.67 3.115c1.52 2.322 1.55 2.9.27 5.15-2.14 3.766-4.34 4.83-7.62 3.678-6.53-2.297-4.8-11.444 2.18-11.444 2.62 0 3.87.63 5.17 2.615M1858 232v6h-19v-12h19v6m-76-1.2c-2.87 2.32-2.9 6.716-.1 9.537 1.64 1.637 3.37 2.153 7.2 2.153 4.32 0 5.42-.415 7.5-2.848 2.76-3.204 2.5-6.035-.82-8.902-2.77-2.394-10.83-2.36-13.8.06M76 242.5c0 11.498.027 11.635 2.25 11.32 1.92-.273 2.295-1.017 2.555-5.07.275-4.29.542-4.75 2.75-4.75 1.507 0 2.445-.576 2.445-1.5s-.938-1.5-2.445-1.5c-2.208 0-2.475-.46-2.75-4.75-.26-4.053-.635-4.797-2.555-5.07-2.223-.315-2.25-.178-2.25 11.32m44-6.5c0 4.667-.167 5-2.5 5-2.296 0-2.5-.367-2.5-4.5 0-3.833-.296-4.5-2-4.5-1.884 0-2 .667-2 11.5s.116 11.5 2 11.5c1.733 0 2-.667 2-5 0-4.667.167-5 2.5-5s2.5.333 2.5 5c0 4.333.267 5 2 5 1.89 0 2-.667 2-12s-.11-12-2-12c-1.733 0-2 .667-2 5m65 15c0 19.333.067 20 2 20s2-.667 2-20-.067-20-2-20-2 .667-2 20m20-17.5c-.766 2.014-1.636 2.5-4.475 2.5-2.467 0-3.525.45-3.525 1.5 0 1.233 1.778 1.5 10 1.5 8.036 0 10-.283 10-1.44 0-.94-1.297-1.547-3.75-1.75-3.012-.25-3.813-.753-4.07-2.56-.428-3.015-2.997-2.862-4.18.25m22 2.5c0 4.333-.267 5-2 5-1.704 0-2-.667-2-4.5s-.296-4.5-2-4.5c-1.885 0-2 .667-2 11.573 0 10.482.165 11.542 1.75 11.24 1.32-.25 1.825-1.5 2.055-5.073.252-3.925.64-4.74 2.25-4.74 1.69 0 1.945.718 1.945 5.5 0 4.833.242 5.5 2 5.5 1.893 0 2-.667 2-12.5s-.107-12.5-2-12.5c-1.733 0-2 .667-2 5m20.82-2.75c-.266 1.87-1.037 2.302-4.57 2.557-2.894.2-4.25.768-4.25 1.75 0 1.043 1.246 1.443 4.5 1.443 2.603 0 4.5.463 4.5 1.1 0 2.624-3.274 7.632-6.07 9.283-1.67.987-2.864 2.317-2.65 2.956.81 2.43 3.898 1.685 7.354-1.77l3.588-3.588 3.12 3.05c3.003 2.936 6.616 3.646 7.34 1.442.186-.566-1.018-1.83-2.677-2.81-2.82-1.666-6.004-6.234-6.004-8.612 0-.578 2.025-1.05 4.5-1.05 3.254 0 4.5-.4 4.5-1.443 0-.982-1.356-1.54-4.25-1.75-3.533-.255-4.304-.687-4.57-2.557-.2-1.413-1.012-2.25-2.18-2.25s-1.98.837-2.18 2.25M265 243c0 11.22.126 12 1.945 12 1.61 0 1.998-.816 2.25-4.75.28-4.376.526-4.775 3.114-5.072 3.727-.427 3.283-3.55-.568-3.994-2.575-.298-2.74-.616-2.74-5.25 0-4.267-.27-4.934-2-4.934-1.89 0-2 .667-2 12m96-10.046c0 1.717-.82 1.99-6.74 2.25-5.52.243-6.8.617-7.078 2.07-.315 1.65.808 1.756 16 1.5 13.725-.23 16.328-.514 16.328-1.775 0-1.156-1.548-1.568-6.75-1.796-5.93-.26-6.75-.533-6.75-2.25 0-1.418-.686-1.954-2.5-1.954s-2.5.536-2.5 1.954M415 251c0 19.333.067 20 2 20s2-.667 2-20-.067-20-2-20-2 .667-2 20m1336.82-17.25c-.3 2.546-.65 2.75-4.82 2.75s-4.52-.204-4.82-2.75c-.3-2.684-.2-2.75 4.82-2.75s5.12.066 4.82 2.75m41.6-.18c1.2 1.204 1.32 2.032.5 3.555-.84 1.584-1.9 1.923-5.24 1.68-3.55-.257-4.24-.67-4.53-2.69-.18-1.313.27-2.768 1-3.235 2.17-1.37 6.57-1.002 8.27.69m-1741.763.098c-1.108 1.107-.762 18.156.383 18.864.577.356 5.324.328 10.55-.064 7.673-.575 9.443-1 9.2-2.213-.234-1.172-2.054-1.53-8.284-1.628-6.66-.105-8.038-.408-8.314-1.83-.28-1.447.692-1.747 6.484-2 5.258-.23 6.814-.64 6.814-1.797s-1.556-1.568-6.814-1.797c-5.8-.253-6.766-.553-6.5-2 .26-1.367 1.656-1.76 7.064-2 5.92-.26 6.74-.533 6.74-2.25 0-1.782-.732-1.954-8.333-1.954-4.584 0-8.634.3-9 .667m47 0c-.367.366-.667 2.19-.667 4.05 0 4.076-2.117 8.444-5.3 10.956-1.292 1.017-2.164 2.406-1.937 3.088.783 2.347 4.15 1.233 6.81-2.252l2.663-3.492 1.914 2.433c2.358 3 5.815 4.243 6.9 2.486.506-.82-.124-2-1.746-3.275-3-2.362-5.294-7.397-5.294-11.628 0-2.85-1.666-4.033-3.333-2.365m193.833.24c-6.983 1.735-9.5 4.496-9.5 10.416 0 4.416 2.45 7.395 7.5 9.115 3.55 1.2 4.035 1.763 4.308 4.92l.308 3.556-7.797.293c-6.492.244-7.853.586-8.13 2.043-.31 1.614 1.065 1.75 17.74 1.75 17.406 0 18.073-.074 18.073-2 0-1.835-.667-2-8.06-2h-8.06l.31-3.718c.282-3.386.645-3.797 4.053-4.598 9.8-2.302 11.57-13.66 2.83-18.132-3.472-1.775-9.91-2.555-13.573-1.645m-125.5 4.15c0 7.19-2.05 12.91-6.18 17.252-3.774 3.967-4.367 6.69-1.456 6.69 1.714 0 7.193-6.033 8.114-8.934.925-2.913 1.785-2.588 4 1.505 1.057 1.965 3.134 4.434 4.614 5.488 2.355 1.677 2.846 1.732 3.92.438 1.007-1.214.696-1.976-1.74-4.25-4.35-4.064-6.463-8.854-7.033-15.95-.424-5.293-.8-6.295-2.368-6.295-1.51 0-1.863.766-1.863 4.057M389 244v9h4.063c3.982 0 4.057.065 3.75 3.25-.3 3.116-.508 3.263-5.063 3.555-3.335.214-4.75.735-4.75 1.75 0 1.62 7.84 1.954 18.853.803 4.713-.493 6.147-1.018 6.148-2.25 0-1.31-.93-1.544-5-1.26-5 .346-5 .345-5-2.75 0-2.946.195-3.097 4-3.097 2.89 0 4-.417 4-1.5 0-1.208-1.556-1.5-8-1.5-7.274 0-8-.178-8-1.956 0-1.735.82-2 7.24-2.25 5.96-.242 7.3-.603 7.574-2.044.294-1.542-.566-1.75-7.24-1.75-6.906 0-7.573-.176-7.573-2 0-1.833.667-2 8-2 6.444 0 8-.292 8-1.5 0-1.238-1.833-1.5-10.5-1.5H389v9m-84.635-4.927c3.254 2.56 3.492 6.84.53 9.522-1.56 1.412-3.605 1.905-7.895 1.905s-6.335-.493-7.895-1.905c-3.713-3.36-2.21-9.008 2.895-10.886 3.626-1.333 9.803-.652 12.365 1.364M203 241.694c-4.335 1.55-5.433 8.19-1.777 10.75 1.222.856 4.114 1.557 6.427 1.557 3.35 0 4.625-.535 6.277-2.635 2.686-3.414 2.613-4.916-.382-7.9-2.386-2.387-6.754-3.116-10.545-1.76m153.374-.005c-1.17.23-3.124 1.48-4.344 2.78-4.76 5.068.61 9.532 11.47 9.532 10.034 0 15.31-3.75 12.544-8.918-1.75-3.27-11.62-4.972-19.67-3.393m-145.34 4.375c1.567 2.928-.494 5.123-4.45 4.737-2.383-.232-3.162-.844-3.422-2.688-.594-4.198 5.827-5.87 7.87-2.05m157.817-.966c6.263 2.183 2.738 5.902-5.594 5.902-5.44 0-8.908-1.862-7.98-4.283.925-2.4 8.658-3.332 13.573-1.62m1197.58.233c-.3.766-.4 4.043-.23 7.28l.3 5.888h25v-14l-12.27-.28c-9.76-.223-12.38.004-12.8 1.112m180.95-.297c-4.2 1.287-5.58 3.184-5.2 7.15.25 2.63 1.04 3.688 3.82 5.12 4.77 2.458 14.85 1.942 18.74-.96 3.7-2.772 3.72-6.91.02-9.672-3.12-2.332-12.3-3.198-17.38-1.64m-98.88.966c-1.44 2.33 1.14 3 11.56 3H1671v5c0 4.333.27 5 2 5 1.8 0 2-.667 2-7v-7h-12.94c-7.55 0-13.2.417-13.56 1m41.5 5.5v6.5h13.5c11.2 0 13.5-.25 13.5-1.467 0-1.186-2.16-1.522-11.25-1.75l-11.25-.283-.3-4.75c-.25-3.934-.63-4.75-2.25-4.75-1.72 0-1.94.728-1.94 6.5m98.38-5.473c-4.08 1.26-5.6 3.203-5.2 6.663.48 4.215 5.62 6.514 13.56 6.067 15.4-.865 15.96-12.3.66-13.307-3.24-.214-7.3.046-9.02.577m90.14-.056c-1.46 2.36 1.1 3.03 11.54 3.03H1901v5c0 4.37.26 5 2.05 5 1.88 0 2.02-.52 1.75-6.75l-.3-6.75-12.67-.28c-7.92-.175-12.92.107-13.3.75m-1740.055 4.14c-1.334 4.2 4.397 6.296 5.975 2.184.327-.852.082-2.167-.545-2.923-1.708-2.057-4.67-1.654-5.43.74m188.844-.476c-.668 1.74.634 4.512 2.396 5.1.585.195 1.79-.372 2.677-1.26 1.224-1.224 1.364-2.08.58-3.544-1.26-2.356-4.792-2.54-5.654-.295M1587 251.5v3.5h-8c-4.6 0-8.05-.426-8.1-1-.06-.55-.1-1.9-.1-3s.05-2.225.1-2.5 3.7-.5 8.1-.5h8v3.5m175.4-1.97c2.26 2.26.92 4.3-3.6 5.53-7.34 1.977-15.07-1.595-11.85-5.476 1.8-2.18 13.3-2.22 15.46-.055m39.86.113c.96.27 1.75 1.345 1.75 2.387 0 3.853-13.1 4.966-16.1 1.366-3.3-3.96 5.46-6.252 14.34-3.753M55.696 256.637c-.383.383-.696 3.546-.696 7.03V270h26.09l-.295-6.75-.296-6.75-12.054-.28c-6.63-.154-12.367.034-12.75.416M97 258.967c0 1.823.825 1.988 11.25 2.25l11.25.283.305 4.75c.252 3.934.64 4.75 2.25 4.75 1.74 0 1.945-.732 1.945-7v-7h-13.5c-12.758 0-13.5.108-13.5 1.967m112-.215c-2.745 1.37-3.567 2.436-3.81 4.936-.47 4.86 3.203 6.812 12.81 6.812s13.28-1.953 12.81-6.812c-.406-4.193-5.18-6.685-12.81-6.685-3.235 0-6.94.72-9 1.75m34.667-1.085c-.367.366-.667 1.266-.667 2 0 1.03 2.5 1.333 11 1.333h11v5c0 4.333.267 5 2 5 1.8 0 2-.667 2-7v-7h-12.333c-6.784 0-12.634.3-13 .667M345.5 258c-1.334 2.158.927 3 8.06 3H361v5c0 4.667.167 5 2.5 5s2.5-.336 2.5-4.958v-4.958l7.74-.292c6.438-.243 7.796-.586 8.073-2.042.31-1.614-1.063-1.75-17.68-1.75-10.93 0-18.257.393-18.632 1m962.83 3.87c-4.9 6.65-12.2 11.906-26.08 18.784-10.13 5.017-13.25 7.014-13.25 8.485 0 1.057.7 2.197 1.6 2.532 2.14.82 13.04-3.76 23.25-9.764l8.62-4.908c.15 0 .22 1.688.15 3.75-.1 3.494.08 3.737 2.64 3.562l2.75-.19v6.9c0 8.62 1.6 16.28 4.02 19.226 1.74 2.122 1.96 2.157 3.56.577 1.55-1.524 1.58-2.142.32-6.5-1.3-4.516-1.4-11.635-.56-40.316.14-4.907-.07-5.533-1.96-5.803-1.5-.215-2.98.85-5.05 3.674M76 263.54v3.54l-8.24-.29c-7.02-.247-8.3-.558-8.585-2.098C58.4 260.635 59.6 260 67.97 260H76v3.54m149.79-1.18c1.52 1.52 1.513 1.767-.094 3.373-1.25 1.25-3.366 1.734-7.58 1.734-5.848 0-9.115-1.436-9.115-4.006 0-3.434 13.566-4.323 16.79-1.1m1058.46 41.718c-7.13 6.94-8.12 8.3-7.22 9.98 1.67 3.128 3.5 2.338 11-4.735 7.8-7.35 9.25-9.4 8.35-11.75-1.15-2.985-3.92-1.5-12.14 6.506M110.347 320.095c-17.773 2.97-34.957 15.964-42.888 32.433-4.462 9.265-5.78 15.9-5.27 26.56.376 7.875.856 9.667 4.634 17.29 8.983 18.13 23.916 29.863 53.676 42.177l15 6.207.825 4.37c3.75 19.85 7.29 28.78 16.2 40.87 6.184 8.4 18.923 20.59 23.725 22.72l3.75 1.664v7.557c.007 5.945.542 8.702 2.505 12.918l2.495 5.36-10.755-.714c-5.915-.393-12.555-1.012-14.755-1.375l-4-.66-.79-7.952c-1.89-19.046-7.563-35.75-15.388-45.3-8.308-10.138-22.01-15.534-34.158-13.453-13.885 2.378-28.658 12.9-34.503 24.55-7.146 14.257-7.46 27.756-1.143 49.207.483 1.643-.554 2.765-5.54 5.99-11.265 7.29-17.05 16.6-17.767 28.63-.614 10.286 2.15 16.455 11.523 25.722 11.034 10.91 24.4 16.745 40.765 17.798 7.606.5 10.678.173 19.83-2.04 11.942-2.89 21.448-6.4 29.362-10.836 5.044-2.828 5.362-2.876 11.29-1.7l6.1 1.2 6.198 9.112c8.065 11.857 20.4 24.18 28.458 28.427 12.442 6.558 25.56 7.495 44.066 3.148 28.456-6.684 52.743-29.232 56.644-52.588.584-3.498 1.4-4.586 5.372-7.163 16.146-10.474 30.98-28.907 36.47-45.314.46-1.374 1.986-1.532 10.717-1.112 16.45.792 28.586-3.106 36.043-11.578 5.163-5.866 7.317-12.66 7.354-23.208.07-19.46-7.248-33.354-21.176-40.208-5.86-2.884-7.622-3.28-14.208-3.2-9.378.116-17.04 2.913-23.46 8.566l-4.65 4.093-3.543-4.14c-4.532-5.295-10.476-9.365-17.113-11.72-4.74-1.68-5.305-2.203-5.833-5.377-1.184-7.123-3.576-12.84-7.09-16.945-3.443-4.022-3.553-4.38-2.466-8.007.625-2.088 1.137-4.926 1.137-6.308s.6-3 1.3-3.6c2.234-1.853 19.463-4.158 35.7-4.775 37.8-1.436 60.348 7.38 115 44.982 34.72 23.888 43.165 29.18 60 37.606 40.228 20.13 81.56 23.252 125.5 9.474 4.4-1.38 14.3-5.625 22-9.435 24.13-11.94 42.537-27.67 60.762-51.93 21.18-28.19 29.92-36.914 43.332-43.244 10.183-4.807 18.767-6.12 35.906-5.496 29.37 1.07 61.758 8.964 101 24.62 25.612 10.218 34.127 13.104 48.5 16.44 38.423 8.917 80.4 9.148 117.25.646 4.26-.984 7.75-1.692 7.75-1.574s-3.73 3.998-8.28 8.623c-4.56 4.624-8.9 9.9-9.65 11.724-1.22 2.95-1.18 3.5.37 5 1.65 1.585 1.9 1.48 4.4-1.816 5.3-6.985 18.85-19.77 26.9-25.403 5.46-3.814 8.25-6.412 8.25-7.68 0-1.054-.34-1.946-.75-1.982s-5.03-.183-10.25-.33c-7.9-.22-11.2-.864-19.5-3.795-5.5-1.942-12.57-4.705-15.7-6.14-5.07-2.318-5.88-2.442-7.2-1.11-.82.824-1.26 2.106-.98 2.85.68 1.765 12.58 7.216 23.22 10.64l8.44 2.712-3.38 1.057c-13.52 4.23-38.06 7.14-60.4 7.162-37.994.04-62.43-5.044-103.65-21.563-29.76-11.927-43.01-16.024-70.395-21.772-17.275-3.625-30.776-4.933-45.747-4.43-10.996.37-14.504.896-21.18 3.18-18.066 6.183-32.166 18.83-51.962 46.606-7.286 10.223-17.828 22.1-25.453 28.673-48.63 41.932-113.868 51.696-170.426 25.508-18.6-8.61-27.068-13.844-70.16-43.35-37.816-25.894-61.716-37.394-86.043-41.403-11.85-1.952-37.906-1.453-53.896 1.033-10.53 1.638-11.51 1.396-11.546-2.84-.008-1.033-1.455-4.858-3.215-8.5-4.714-9.754-15.71-20.34-27.124-26.107-18.033-9.113-31.004-5.85-35.323 8.886-1.95 6.653-1.278 12.66 2.218 19.822 4.25 8.707 13.31 15.155 29.93 21.298l9.267 3.504c.147.096-1.08 3.055-2.727 6.575-1.853 3.96-3.29 9.068-3.767 13.4-.655 5.934-1.077 7.04-2.773 7.27-1.622.22-2.8-1.403-6.183-8.595-4.68-9.923-11.576-18.21-19.254-23.136-3.907-2.507-5.233-4.092-6.477-7.74-5.166-15.162-19.974-27.028-38.514-30.863-23.822-4.928-47.557 12.485-54.557 40.024-.833 3.278-1.515 6.964-1.515 8.19s-.435 2.5-.967 2.828c-1.77 1.094-29.655-11.462-38.725-17.436-15.144-9.977-25.6-22.938-28.267-35.043-5.347-24.253 11.254-49.785 37.46-57.615 7.892-2.36 24.394-2.367 34-.017 3.85.94 10.742 3.52 15.316 5.732 8.818 4.264 11.684 4.606 11.684 1.396 0-4.162-18-12.168-32.5-14.456-7.555-1.19-17.324-1.17-24.653.055m1140.873 3.333c-10.93 3.802-12.36 4.856-9.9 7.308 1.6 1.616 2.1 1.62 7.95.076 3.43-.906 8.4-2.58 11.06-3.724 3.97-1.71 4.76-2.477 4.5-4.333-.45-3.183-2.84-3.065-13.6.673m-40.93 7.95c-7.63 1.185-9.94 2.49-8.95 5.054.73 1.902 5.44 2.033 16.1.45 7.65-1.137 10.25-2.655 9.2-5.37-.68-1.782-5.5-1.82-16.35-.134m-36.8 6.563c-10.6 3.246-11.67 3.84-11.32 6.3.4 2.886 3.2 2.803 15.32-.458 8.2-2.208 9-2.634 9-4.857 0-2.08-.5-2.466-3.5-2.634-1.92-.108-6.2.63-9.5 1.64M1050 340.5c0 3.417-.1 3.5-4 3.5-3.33 0-4-.333-4-2 0-1.852-.67-2-9-2s-9 .148-9 2c0 1.795.67 2 6.5 2 3.58 0 6.5.383 6.5.852 0 2.616-5.08 7.925-9.7 10.148-5.57 2.673-5.7 2.816-4.45 4.79 1.66 2.62 12.3-3.41 15.48-8.766 1.6-2.724 2.28-3.023 6.8-3.023 4.56 0 4.98.192 4.7 2.156-.27 1.824-1 2.17-4.8 2.25-3.37.07-4.57.514-4.8 1.787-.26 1.37.6 1.75 4.5 2 4.12.263 4.86.632 5.13 2.557.2 1.446 1 2.25 2.25 2.25 1.8 0 1.93-.81 1.93-12 0-11.333-.1-12-2-12-1.62 0-2 .667-2 3.5m21.82-1.25c-.27 1.87-1.04 2.302-4.57 2.557-5.67.41-6.03 3.193-.42 3.193 2.1 0 4.1.263 4.42.585 1.24 1.235-1.6 6.564-5 9.35-2.37 1.956-3.33 3.443-2.9 4.524.55 1.456.9 1.465 3.54.096 1.62-.833 3.87-2.706 5-4.16l2.1-2.645 3.23 3.165c1.87 1.82 4.07 3.042 5.18 2.875 3.06-.456 2.9-2.187-.4-4.138-3.7-2.186-6.4-6.106-5.63-8.143.36-.95 1.88-1.508 4.1-1.508 2.47 0 3.53-.45 3.53-1.5 0-1.083-1.1-1.5-4-1.5-3.6 0-4-.25-4-2.5 0-3.323-3.7-3.545-4.18-.25m19.18 3.2v5.44l-3.75.31c-2.53.21-3.75.8-3.75 1.8s1.22 1.6 3.75 1.8c3.72.31 3.75.342 3.75 4.75 0 3.773.3 4.44 2 4.44 1.9 0 2-.667 2-12s-.1-12-2-12c-1.75 0-2 .667-2 5.44m-172.81-1.7c.29 1.523 1.8 1.787 11.646 2.033l11.312.284-.3 4.716c-.254 4.122-.042 4.717 1.676 4.717 1.732 0 2.002-.805 2.263-6.75l.295-6.75h-13.62c-12.43 0-13.59.153-13.283 1.75m46.31-.364c-4.227 1.842-5.686 3.973-5.318 7.767.48 4.954 5.358 7.847 13.23 7.847 7.214 0 12.628-2.442 14.016-6.322 1.317-3.684-.694-7.473-4.9-9.23-4.27-1.784-13.005-1.816-17.03-.062m14.032 3.063c2.698 1.127 3.468 2.027 3.468 4.05 0 5.194-12.358 7.2-17.224 2.797-2.24-2.027-2.248-3.57-.026-5.54 3.26-2.9 8.75-3.412 13.782-1.31m-49.83 5.183c-.385.386-.7 2.2-.7 4.035V356h-7c-5.556 0-7 .3-7 1.5 0 1.278 2.667 1.5 18 1.5s18-.222 18-1.5c0-1.215-1.604-1.5-8.44-1.5h-8.44l-.31-3.742c-.296-3.57-2.352-5.383-4.11-3.626m212.7 5.152c-5.86 4.637-11.4 10.77-11.4 12.628 0 .74.67 1.9 1.5 2.58 1.24 1.033 2.85-.046 9.75-6.534 8.13-7.648 10.25-11.546 6.66-12.238-.88-.17-3.8 1.434-6.5 3.565m-138 1.587c-1.1 2.897.02 5.13 2.6 5.13 2.1 0 2.5-.47 2.5-3 0-2.352-.5-3.07-2.25-3.32-1.33-.188-2.5.305-2.84 1.19m-48.4 6.072c0 .982 1.356 1.54 4.25 1.75l4.25.307.296 6.75c.257 5.872.544 6.75 2.204 6.75s1.947-.878 2.204-6.75l.296-6.75 8.406-.6.297 6.805c.268 6.144.51 6.835 2.5 7.118 2.062.294 2.222-.122 2.5-6.5l.297-6.813 4.25-.307c2.894-.2 4.25-.768 4.25-1.75 0-1.204-2.986-1.443-18-1.443s-18 .24-18 1.443m80.2.494c-4.83 1.213-7.36 3.896-7 7.413.4 3.965 4.13 6.547 10.56 7.308 9.55 1.13 16.3-2.996 15.08-9.223-.86-4.383-11.07-7.397-18.63-5.498m-109.197.743c-4.084.856-8.013 4.214-8.013 6.85 0 4.623 5.308 7.48 13.875 7.465 12.172-.018 18.574-8.125 9.942-12.59-3.23-1.67-11.667-2.59-15.804-1.725m148.487.792c-2.2.824-4.12 1.505-4.28 1.513-.15.008-.7 1.17-1.25 2.58-2.67 7.036 8.5 11.656 20.27 8.386 6.18-1.717 7.63-7.518 2.76-11.08-3.5-2.555-12.5-3.274-17.5-1.398m-26.43 2.563c1.06.57 1.93 1.904 1.93 2.965 0 2.723-3 4-9.36 4-5.22 0-8.64-1.59-8.64-4.015 0-3.278 11.5-5.4 16.07-2.95m-109.004 1c3.43 1.837 2.393 4.764-2.12 5.98-4.59 1.236-12.355.402-13.93-1.497-1.34-1.613-.34-4.273 1.82-4.845 3.317-.878 12.342-.65 14.23.362m150.364.536c2.94 2.94 1.2 5.016-4.98 5.92-7.63 1.12-14.27-2.888-10-6.05 2.7-2.014 12.93-1.925 15 .13m-827.367 12.952c15.827 7.994 27.177 20.853 29.322 33.22.522 3.012.26 3.396-3.66 5.38-2.323 1.175-5.423 2.98-6.888 4.013-2.642 1.86-2.73 1.852-10.99-1.193-24.475-9.025-33.152-16.887-33.172-30.056-.01-6.234 2.607-11.71 6.557-13.722 3.637-1.854 12.753-.713 18.83 2.357m859.577 2.727c-3.64 5.83-2.1 15.688 2.05 13.143 2.33-1.428 4-11.85 2.24-13.97-1.64-1.98-2.66-1.782-4.3.828m-918.543 12.93c8.587 4 14.915 9.24 19.07 15.765 4.092 6.423 3.85 6.926-2.772 5.785-10.314-1.777-22.406 2.384-27.73 9.54-6.035 8.117-7.308 19.998-3.028 28.28 3.316 6.418 8.74 9.53 18.78 10.774 4.72.585 8.582 1.402 8.582 1.817s-3.926 4.88-8.725 9.92c-7.557 7.942-8.862 8.937-9.75 7.435-10.22-17.285-22.423-27.907-45.175-39.325l-10.038-5.037.836-6.32c2.565-19.4 14.415-35.412 30.696-41.482 2.398-.894 6.753-1.25 12.656-1.034 7.825.287 9.992.793 16.597 3.878m977.113 6.807c-9.68.715-11.65 1.55-11.02 4.656.34 1.674 1.3 1.83 9.84 1.59 11.3-.318 13.57-.743 14.32-2.695.55-1.436-1.8-4.69-3.17-4.387-.37.083-4.86.46-9.97.837m26.54.588c-1.6 1.61-.66 4.507 1.74 5.42 1.37.52 6.66 1.073 11.75 1.225 8.87.266 9.27.186 9.57-1.917.26-1.8-.37-2.372-3.5-3.18-5.42-1.4-18.67-2.45-19.56-1.55m-58.25 6.01c-5 1.855-6.96 3.765-6.12 5.965.76 1.984 4.84 1.637 11-.935 3-1.254 3.7-2.034 3.44-3.844-.4-2.813-2.95-3.176-8.32-1.186m246.6.22c-.54.992-.62 2.365-.2 3.05 1.02 1.647 10.23 3.73 22.53 5.094 5.47.607 10.13 1.283 10.35 1.503s-1 1.12-2.7 2c-3.4 1.756-3.92 3.62-1.56 5.573 1.18.98 2.1 1.007 4.05.122 1.38-.63 2.72-1.147 2.98-1.147.25 0-1.3 2.587-3.45 5.75-7.93 11.66-10.78 18.965-8.58 21.93 1.98 2.668 4.16.857 6.83-5.68 3.46-8.444 8.15-15.086 22.8-32.272 2.9-3.405 3.06-3.922 1.67-5.32-1.4-1.397-2.12-1.382-7.43.16-4.84 1.407-8.27 1.6-19.4 1.088-7.44-.342-16.22-1.298-19.52-2.124-7.5-1.88-7.24-1.888-8.4.27m-152.78.774c-.33.867.02 2.158.78 2.87 1.7 1.588 20.47 5.93 21.88 5.062 1.63-1.007 1.16-4.358-.74-5.354-2.37-1.238-15.52-4.155-18.73-4.155-1.43 0-2.85.704-3.2 1.578m-131.43 2.556c-4.7 2.732-6.9 6.614-6.9 12.235 0 8.547 9.22 15.365 17.2 12.728 5.36-1.77 8.93-6.13 9.55-11.67.68-6.008-1.53-10.367-6.73-13.3-4.76-2.676-8.52-2.677-13.13-.003m168.3 5.066c-3.26 3.255-.3 5.2 12.64 8.297 6.62 1.59 7.48 1.61 8.88.21 2.76-2.753.7-4.267-9.55-7.014-11.74-3.148-10.47-3-11.97-1.492m-1054.668 7.25c3.395 1.42 3.468 1.57 3.453 7.25-.017 6.83-2.132 16.448-5.17 23.506l-2.168 5.04-8.574-.68c-13.334-1.057-18.786-4.836-19.787-13.713-1.027-9.115 3.412-17.45 11.172-20.974 4.978-2.262 16.146-2.5 21.073-.43m66.995 2.3c-.893 3.558-.98 3.616-3.44 2.298-2.546-1.362-2.652-2.617-.336-3.966 3.237-1.886 4.526-1.317 3.777 1.668m1023.143-1.08c-1 .986-.8 4.127.27 4.794.5.32 5.3 1.493 10.66 2.6 8.84 1.846 9.87 1.888 11.3.46 2.88-2.883.2-4.77-9.47-6.662-10.12-1.983-11.82-2.143-12.76-1.203m82.4 3.226c-9.13 1.832-11.8 3.802-9 6.605 1.38 1.38 2.37 1.377 9.8-.034 11.53-2.188 13.33-2.982 12.94-5.716-.4-2.892-2.83-3.043-13.74-.855m-1154.704 7.062c6.242 6.544 13.68 20.388 11.908 22.16-1.23 1.23-24.5 3.078-25.538 2.03-.418-.418.375-4.007 1.762-7.976s2.806-10.58 3.153-14.693c.406-4.802 1.062-7.477 1.834-7.477.66 0 3.757 2.68 6.88 5.955m1107.954-3.377c-1.2 3.16 1.95 4.462 12.37 5.097 9.5.578 10.14.495 11.2-1.46.87-1.63.77-2.41-.46-3.645-2.3-2.303-22.2-2.296-23.1.01m-1065.654 1.53c3.372 2.084 3.392 2.14 1.738 4.75-3.372 5.323-12.598 13.304-13.878 12.005-.993-1.007 1.906-11.837 4.045-15.114 2.838-4.348 3.5-4.482 8.095-1.64m13.443 14.39c1.01 2.2 1.847 5.462 1.86 7.25.02 3.025-.2 3.25-3.33 3.25-4.33 0-9.68 3.606-11.896 8.02-2.02 4.02-2.3 12.42-.603 18.082.906 3.026.873 4.167-.158 5.41-.718.865-1.645 1.217-2.058.78-1.198-1.262-7.75-23.34-8.396-28.292l-.587-4.5 6.63-4.432c3.647-2.438 8.045-6.33 9.775-8.65 2.98-3.998 3.242-4.13 5.035-2.568 1.04.907 2.718 3.45 3.728 5.65m846.39-2.87c-1.94 1.946-.85 4.266 2.35 4.97 1.45.32 4.1 1.023 5.87 1.563 3.74 1.136 5.27.5 5.27-2.185 0-2.232-2.15-3.55-7.9-4.842-3.23-.725-4.48-.614-5.6.495m-992.167 6.484c17.382 8.765 32.056 21.47 38.074 32.97l2.917 5.573-5.405 8.172c-3.255 4.92-6.083 8.172-7.1 8.172-2.448 0-14.083-10.166-20.484-17.896-6.228-7.524-13.608-21.773-15.83-30.564-1.562-6.18-1.94-10.54-.913-10.54.327 0 4.264 1.85 8.75 4.113M1168.6 457.6c-.82 2.16-.73 2.267 7.8 8.812 7.7 5.89 10.85 6.73 11.38 3.035.22-1.535-1.6-3.462-7.33-7.74-7.84-5.857-10.8-6.88-11.86-4.107m-901.01 9.16c.374 2.063 2.42 9.363 4.545 16.222S276 496.036 276 496.758c0 1.337-15.23 9.242-17.804 9.242-.956 0-1.173-.563-.675-1.75 4.965-11.824 7.056-23.234 6.056-33.043-.68-6.667-.316-8.207 1.937-8.207.825 0 1.673 1.533 2.075 3.75m-10.063 4.614c1.177 9.422-2.88 27.142-8.006 34.965-2.255 3.442-10.186 4.67-30.142 4.67h-15.96l-1.308-8.53c-1.497-9.758-2.235-8.107 8.392-18.777 3.94-3.957 8.552-9.12 10.246-11.476l3.08-4.283 13.21-.426c7.265-.234 13.454-.67 13.752-.967s1.784-.542 3.303-.542c2.588 0 2.803.335 3.43 5.364m41.912-3.114c-1.07 3.46-5.486 12.046-7.186 13.976-2.3 2.625-3.252 1.217-3.252-4.862 0-4.765.4-5.916 2.923-8.44C293.68 467.166 295.9 466 297.5 466c2.283 0 2.55.308 1.948 2.25m13.294.715c4.17 1.894 13.62 9.958 15.263 13.025.522.975.135 3.668-1.017 7.08-1.022 3.03-2.336 11.114-2.918 17.968-1.34 15.753-2.092 20.962-3.033 20.962-1.713 0-9.27-6.94-14.025-12.882C302.19 509.106 293 494.445 293 492.78c0-.42 1.995-3.676 4.434-7.24s5.425-9.19 6.634-12.51 2.702-6.023 3.316-6.01 3.02.886 5.348 1.943m59.908 5.212c5.76 2.877 10.894 8.564 14.15 15.673 2.043 4.464 2.647 7.61 2.998 15.62.586 13.388-.656 17.753-6.724 23.633-7.13 6.908-19.294 10.098-32.307 8.472l-5.445-.68.474-12.315c.612-15.878-.966-23.426-8.412-40.227-.28-.63.76-2.34 2.3-3.796 9.75-9.168 22.452-11.626 32.957-6.38m-248.073 5.855c5.465 2.646 12.733 10.613 16.02 17.56 3.344 7.07 7.078 22.135 7.943 32.05l.704 8.075-6.093.7c-8.396.95-15.557 3.17-22.648 7.025-5.586 3.037-6.26 3.18-9.6 2.022-5.93-2.053-21.705-3.705-28.464-2.98l-6.304.675-2.1-6.823c-2.685-8.68-3.557-20.133-2.12-27.823 4.73-25.294 31.44-40.745 52.67-30.468m1071.353-.437c-1.15 1.385-.32 2.577 6.34 9.08 7.82 7.646 10.94 8.917 11.54 4.705.22-1.518-1.68-3.938-6.87-8.74-3.95-3.653-7.74-6.64-8.43-6.64s-1.85.718-2.58 1.595m-860.126 16.817c1.14 2.977 2.605 8.126 3.257 11.442 1.195 6.073.973 25.455-.306 26.734-.787.787-9.55-1.464-10.277-2.64-.497-.805 2.116-31.953 3.162-37.698.326-1.788.93-3.25 1.343-3.25s1.68 2.436 2.82 5.412m-39.662 13.958c6.115 9.34 14.22 18.16 21.29 23.16l2.868 2.03-2.032 4.594c-2.534 5.728-8.218 12.095-14.688 16.452-2.727 1.837-5.095 3.203-5.262 3.036s.777-2.967 2.098-6.222 2.948-8.7 3.615-12.098c2.278-11.6-2.247-21.61-12.362-27.318-5.044-2.847-5.412-3.326-6.59-8.584-1.137-5.082-1.086-5.7.592-6.96 1.59-1.204 1.975-1.177 2.84.194l7.632 11.718M1401 498.88c-11.4 3.72-17.9 12.784-16.66 23.248.76 6.4 4.26 12.164 11.9 19.536l6.27 6.05-.34 5.674-.35 5.674-3.85-3.474c-4.16-3.766-9-5.176-14.35-4.175-7.16 1.344-14 8.323-15.14 15.45-1.2 7.497-1.4 7.872-4.28 8.45-3.8.758-9.02 6.267-9.78 10.3-1.3 6.972 4.77 16.33 13.34 20.547 4 1.972 6.3 2.336 14.7 2.338 11.3.003 9.82-1.065 15.06 11 3.34 7.72 5.6 10.028 12.18 12.493 11.35 4.244 23.6 1.714 32-6.61 2.86-2.833 6.65-5.657 8.43-6.277 4.66-1.625 11-5.52 13.72-8.43 2.26-2.424 2.5-2.464 6.38-1.095 12.03 4.245 20.77-2.3 20.77-15.528 0-9.953-6.5-15.865-16.16-14.72-2.66.316-4.84.18-4.84-.302s-1.12-2.203-2.48-3.823c-1.92-2.28-2.54-4.28-2.75-8.827-.27-5.785-.22-5.885 2.56-6.204 4.16-.477 16.28 3.506 22.1 7.265 6.67 4.307 15.05 13.273 26.45 28.3 14.96 19.704 26.4 28.615 42.12 32.832 7.93 2.127 22.45 2.377 30 .517 7.8-1.922 16.88-6.195 24.2-11.383 10.24-7.256 14.5-9.044 21.52-9.063 10.36-.03 25.77 8.572 47.18 26.34 12.28 10.19 28.17 17.875 43.4 20.995l5.8 1.188-2.63 2.44c-2.8 2.598-2.86 4.12-.23 5.782 1.2.762 2.12.593 3.5-.65 1.02-.924 4.98-2.936 8.8-4.47 5.24-2.105 7.03-3.32 7.26-4.933.24-1.667-.45-2.39-3.12-3.27-1.9-.622-6-3.117-9.1-5.545-5.73-4.45-8.58-4.93-8.58-1.45 0 1.02.98 2.767 2.18 3.882s1.96 2.246 1.7 2.512c-1.07 1.07-17.67-3.74-25.38-7.355-9.32-4.366-16.24-9.024-28.46-19.156-9.17-7.596-20.87-14.874-29.87-18.576-4.12-1.692-7.65-2.334-12.94-2.35-8.34-.027-11.47 1.267-24.87 10.278-10.04 6.747-17.32 9.558-28.35 10.945-10.7 1.347-21.15-.554-31.75-5.783-9.7-4.78-17.13-11.905-30.68-29.38-18.2-23.493-26.3-29.805-43.35-33.807l-7.02-1.648-.65-4.065c-.8-5.06-4.54-11.533-8.6-14.96-5.77-4.856-13.3-2.792-15.42 4.236-.7 2.293-.76 2.268-3.13-1.215-3.43-5.056-9.96-8.626-15.77-8.626-6.04 0-11.43 2.77-15.96 8.212l-3.57 4.288-5.57-5.495c-11.28-11.116-12.6-21.045-3.86-29.134 7.65-7.084 19.28-5.856 29.23 3.085 3.82 3.442 4.9 3.72 5.77 1.478.82-2.133-4.96-8-10.84-11.007-5.1-2.6-13.83-3.85-17.83-2.548M196 505.5c0 4.333-.11 4.5-3 4.5-3.545 0-3.723-1.094-.918-5.632 2.814-4.555 3.918-4.236 3.918 1.132m1025.57-1.93c-2.1 2.093-1.2 3.536 6.83 11.262 6.65 6.383 8.08 6.936 10 3.872.87-1.376-.1-2.852-5.42-8.262-8-8.132-9.35-8.938-11.42-6.872m-942.34 3.85c.414 2.168-.26 2.81-5.84 5.558-4.077 2.007-7.93 4.948-10.888 8.313-4.768 5.422-11.5 17.617-11.5 20.83 0 1.304-1.86 2.7-6.25 4.725-3.437 1.578-7.922 4.567-9.967 6.643-3.602 3.658-3.874 3.754-8.834 3.096-8.178-1.085-24.95-8.3-24.95-10.748 0-.37 2.18-1.142 4.846-1.714 13.78-2.955 28.14-11.068 39.007-22.038 7.007-7.074 8.422-8.02 15.675-10.48 4.384-1.487 9.997-3.763 12.472-5.057 5.066-2.65 5.57-2.58 6.23.87m1304.44 7.245c-.37.366-.67 3.966-.67 8 0 6.612-.2 7.333-1.96 7.333-1.73 0-2-.82-2.25-7.24-.24-5.96-.6-7.3-2.04-7.574-1.62-.308-1.75 1.085-1.75 18.133 0 14.92.27 18.57 1.4 19.004 2.3.88 2.6-.232 2.6-9.49 0-8.166.15-8.833 2-8.833 1.87 0 2 .667 2 10v10h5v-19.393c0-16.76-.2-19.475-1.58-20-1.96-.752-1.94-.752-2.75.06m132.03-.035c-.38.386-.7 5.8-.7 12.035V538h2.5c2.33 0 2.5-.333 2.5-5s.17-5 2.5-5c1.83 0 2.5-.533 2.5-2 0-1.455-.67-2-2.44-2-2.2 0-2.48-.462-2.75-4.74-.22-3.32-.77-4.83-1.86-5.035-.85-.16-1.86.022-2.25.408m23.3 1.868c0 2.34-.33 2.5-5.08 2.5-3.62 0-4.97.36-4.67 1.25.3.882 3.84 1.333 12.08 1.532 9.75.235 11.67.04 11.67-1.195 0-1.053-1.37-1.565-4.75-1.782-4.05-.26-4.8-.635-5.07-2.555-.47-3.295-4.18-3.073-4.18.25m17.67-1.833c-.37.366-.67 6.216-.67 13 0 11.532.13 12.333 1.94 12.333 1.45 0 2-.8 2.25-3.25.26-2.708.77-3.303 3.06-3.566 1.5-.174 2.75-.932 2.75-1.684s-1.24-1.5-2.75-1.684c-1.97-.227-2.84-.954-3.07-2.577-.26-1.827.27-2.378 2.75-2.875 3.82-.763 4.03-3.12.32-3.548-2.3-.263-2.8-.858-3.06-3.566-.3-3-1.9-4.19-3.52-2.583m97 0c-.37.366-.67 2.84-.67 5.5 0 4.166-.28 4.833-2 4.833-1.73 0-2-.667-2-5s-.27-5-2-5c-1.88 0-2 .667-2 11.5 0 10.725.13 11.5 1.94 11.5 1.62 0 2-.816 2.25-4.75.22-3.42.73-4.75 1.8-4.75 1.1 0 1.64 1.5 2 5.49.38 4.192.9 5.57 2.25 5.824 1.6.302 1.75-.83 1.75-12.742 0-10.227-.3-13.073-1.33-13.073-.74 0-1.64.3-2 .667m-206.67 1.42c-3.77 1.08-8 5.073-8 7.545 0 .836 1.32 2.836 2.92 4.444 2.72 2.72 3.46 2.923 10.55 2.923 11.02 0 15.62-3.082 14.37-9.617-.82-4.232-12.6-7.374-19.84-5.295m164.22 13.15c.25 12.635.48 14.275 2.03 14.573 1.6.307 1.75-.897 1.75-14.238 0-13.972-.08-14.573-2.03-14.573s-2.02.51-1.75 14.238M1831 516.94c0 1.51-.8 2.008-3.67 2.25-2.02.17-3.86.873-4.1 1.56-.3.945 2.06 1.25 9.68 1.25 8.3 0 10.08-.266 10.08-1.5 0-1.055-1.07-1.5-3.6-1.5-2.76 0-3.72-.468-4.12-2-.7-2.627-4.3-2.678-4.3-.06m-1636.582-.333c2.01.77 1.992 3.468-.08 12.894-.956 4.35-2.123 7.42-2.75 7.23-2.29-.693-5.59-9.123-5.59-14.275 0-2.817.3-5.422.667-5.788.833-.833 5.64-.87 7.75-.06m44.993 2.505c-5.585 6.21-19.686 14.357-30.766 17.774-10.454 3.224-10.63 3.162-8.96-3.136.766-2.888 1.716-7.725 2.11-10.75l.72-5.5 10.992.253c6.046.14 14.592-.1 18.992-.535s8.185-.663 8.41-.5-.45 1.236-1.5 2.404m1059.19-1.514c-.82 2.147 3.44 7.368 14.57 17.844l9.1 8.558h-3.52c-5.3 0-6.26 4.11-1.4 5.95 1.87.705 1.58.965-2.25 2.01-10.9 2.968-22.1 9.553-22.1 12.985 0 3.226 2.75 3.06 8.7-.527 6.6-3.974 16.32-7.25 30.8-10.37 5.5-1.187 10.4-2.552 10.88-3.035 1.24-1.233.01-3.946-2.1-4.633-8.85-2.878-15.3-7.332-26.8-18.53-6.7-6.518-12.87-11.85-13.72-11.85-.84 0-1.8.72-2.15 1.598M281.352 520.8c1.154 7.215-1.76 18.462-6.052 23.366-1.21 1.383-2.765 1.574-9.13 1.125-4.218-.3-8.065-.904-8.548-1.345-1.366-1.25 4.613-12.9 9.355-18.233 3.934-4.424 9.974-8.565 12.645-8.67.617-.024 1.396 1.666 1.73 3.757M1599 519c0 1.884.67 2 11.5 2h11.5v5h-23v13h11v6.916l-7.75.292c-6.1.23-7.75.613-7.75 1.792 0 1.278 2.67 1.5 18 1.5s18-.222 18-1.5c0-1.18-1.66-1.562-7.75-1.792l-7.75-.292V539h6c4.6 0 6-.34 6-1.468 0-1.192-2.2-1.522-11.75-1.75l-11.75-.282-.32-2.75-.3-2.75H1626v-13h-13.5c-12.83 0-13.5.1-13.5 2m91 7v9h19.08l-.3-8.75c-.27-8.21-.43-8.77-2.54-9.07-1.83-.26-2.25.158-2.25 2.25 0 2.417-.3 2.57-5 2.57-4.67 0-5-.167-5-2.5 0-1.833-.53-2.5-2-2.5-1.85 0-2 .667-2 9m-128.44-6.824c-.23.728-.6 4.354-.8 8.058-.3 5.665-.88 7.47-3.63 11.367-3.1 4.42-3.56 8.014-.9 7.17.7-.217 2.7-2.523 4.45-5.125l3.2-4.73 1.45 2.794c.8 1.537 2.33 3.593 3.4 4.568 1.77 1.595 2.1 1.617 3.25.218 1.08-1.295.96-1.925-.73-3.775-3.57-3.922-4.73-7.066-5.26-14.212-.4-5.622-.85-7.055-2.26-7.323-.97-.184-1.95.262-2.2 1m222.44.324c0 1.11 1.17 1.5 4.5 1.5 4 0 4.5.25 4.5 2.25-.01 2.993-3.3 8.238-6.45 10.31-1.4.918-2.55 2.292-2.55 3.054 0 2.684 4.34 1.35 7.95-2.44l3.64-3.824 1.76 2.34c.97 1.287 2.87 3.06 4.2 3.943 2 1.312 2.73 1.372 4 .33 1.33-1.112 1.08-1.645-2.03-4.208-4.02-3.313-6.93-8.235-6.12-10.345.34-.89 2.02-1.4 4.57-1.4 2.9 0 4.03-.415 4.03-1.5 0-1.242-1.9-1.5-11-1.5s-11 .258-11 1.5m-1489.634 4.523c3.846 4.57 4.99 9.95 3.568 16.793-1.236 5.954-5.343 16.184-6.497 16.184-.37 0-2.093-1.237-3.83-2.75s-4.2-3.44-5.498-4.284l-2.344-1.533 2.603-3.835c3.292-4.85 4.565-9.235 5.316-18.308.536-6.47.777-7.113 2.348-6.272.963.515 2.913 2.318 4.333 4.005M1661.6 521.16c3.26 3.26-1.47 6.84-9.03 6.84-7.68 0-11.32-5.468-5.33-8.015 3.2-1.37 12.58-.603 14.36 1.174m75.4 3.55c-8.17 3.003-5.4 13.29 3.57 13.29 7 0 11.24-3.64 10-8.575-1-4.02-8.44-6.602-13.57-4.716m93 0c-5.46 2.008-6.7 7.82-2.37 11.218 6.15 4.835 15.5.41 13.76-6.514-.93-3.704-7.14-6.267-11.4-4.704m-582.45 2.032c-.86 2.234 2.02 4.64 10.16 8.48 6.6 3.117 10.57 3.337 11.1.614.23-1.206-2.12-2.93-8.5-6.244-9.63-5.004-11.75-5.48-12.76-2.85m456.45 2.314c0 3.02-.05 3.05-4.75 2.75-4.35-.28-4.78-.537-5.07-3.055-.3-2.68-.18-2.75 4.75-2.75 5 0 5.07.05 5.07 3.055m40.42-.74c2.1 1.54 1.8 4.515-.62 6.038-2.3 1.458-7.17-.326-7.65-2.81-.4-2.07 2.24-4.545 4.85-4.545.9 0 2.43.592 3.42 1.316m93.17 1.966c1.13 3.553-4.62 6.29-7.4 3.518-1.9-1.91-1.4-4.792 1-5.683 3.08-1.137 5.6-.28 6.38 2.165m-201.92 4.385c-.37.366-.67 1.266-.67 2 0 1 2 1.333 7.94 1.333h7.94l.3 3.75c.25 3.012.75 3.813 2.56 4.07 2.02.286 2.25-.102 2.25-3.75V538h7.5c6.83 0 7.5-.178 7.5-2 0-1.923-.67-2-17.33-2-9.54 0-17.64.3-18 .667m-205.7 1.818c2.75 1.42 7.03 6.395 7.03 8.17 0 .465-2.2.694-4.88.507-4.22-.292-5.33.053-8.07 2.5-2.25 2.016-3.33 4.017-3.72 6.905-.48 3.613-.18 4.43 2.73 7.34 2.62 2.625 3 3.45 1.86 4.168-2.25 1.42-2.55 1.178-4.3-3.388-.9-2.373-3.9-7.1-6.63-10.505s-5-6.577-5-7.05c0-1.572 4.28-6.33 7.4-8.24 3.7-2.263 9.63-2.44 13.56-.406m25.43 3.562c3.7 3.236 7.24 10.852 6.25 13.415-1.1 2.914-5.3 1.697-10.06-2.925-5-4.86-5.9-8.437-2.94-11.708 2.2-2.43 2.7-2.343 6.75 1.218m-1123.183-.022c4.74 1.424 4.84 1.786 2.202 7.765-5.432 12.304-16.835 26.516-27.32 34.05-5.403 3.882-6.1 3.918-6.1.32 0-1.563-.67-5.05-1.49-7.75s-1.494-5.393-1.5-5.984 3.346-3.203 7.45-5.802c8.746-5.54 14.85-12.03 18.284-19.44 1.903-4.107 2.84-5.164 4.1-4.646.905.37 2.87 1.04 4.363 1.488m948.453-1.358c-1.28 1.278-.66 4.27 1.08 5.19.96.5 5.52 1.69 10.12 2.626 7.22 1.465 8.57 1.504 9.8.287 2.18-2.175.55-4.645-3.5-5.34-2-.344-6.2-1.256-9.3-2.027-6.4-1.6-7.26-1.666-8.2-.734m420.54 1.27c-6.84 1.72-9.47 7.703-5.12 11.643 2.93 2.65 15.34 3.282 19.75 1.004 5.02-2.595 5.2-8.894.3-11.504-2.68-1.436-11.2-2.087-14.94-1.143m42.6 1.077c-7.9.952-11.36 6.37-6.72 10.566 2.9 2.63 15.34 3.283 19.7 1.033 3.88-2.005 4.88-4.954 2.78-8.162-.88-1.348-1.93-2.47-2.33-2.495s-2.53-.372-4.73-.775-6.1-.477-8.7-.167m94.13-.124c-5.34 1.742-6.94 3.124-6.94 6 0 4.256 3.14 6.43 10 6.927 11.08.8 16-1.307 16-6.853 0-2.237-.7-3.272-3.1-4.512-3.67-1.896-12.3-2.738-15.95-1.552m-48.53 1.487c-.3.757-.4 3.57-.22 6.25l.3 4.873h13.5c11.33 0 13.5-.24 13.5-1.5 0-1.228-2.04-1.55-11.25-1.783l-11.25-.283v-4.467c0-3.823-.3-4.467-2.03-4.467-1.12 0-2.27.62-2.56 1.377M1640 548v6h13.5c12.83 0 13.5-.1 13.5-2 0-1.884-.67-2-11.5-2H1644v-4c0-3.333-.33-4-2-4-1.78 0-2 .667-2 6m74.14-3l2.36 2-2.36 2c-4.24 3.592-16.14 2.036-16.14-2.11 0-2.585 2.77-3.824 8.64-3.86 3.72-.022 5.8.523 7.5 1.97m-1564.315 5.01c.396 6.678-.606 17.02-1.842 19.02-.734 1.187-1.72.68-5.194-2.672-4.14-3.993-16.207-12.662-18.852-13.544-3.856-1.285 7.1-6.283 17.014-7.76 8.48-1.265 8.506-1.25 8.874 4.958m31.55-4.09l7.875.08-.644 3.218c-1.267 6.336-11.502 25.264-18.132 33.532-3.638 4.538-7.19 8.25-7.9 8.25s-3.275-3.272-5.718-7.27l-4.442-7.27 1.355-4.48c.745-2.464 1.585-9.205 1.866-14.98s.648-10.96.815-11.524c.198-.666 3.232-.782 8.672-.33 4.602.382 11.912.73 16.243.774m1573.555-.255l2.38 1.666-2.27 1.834c-3.88 3.147-16.04 1.94-16.04-1.59 0-2.265 3-3.5 8.53-3.544 3.1-.018 5.93.603 7.4 1.635m96.14-.63c4.65 2.49.9 5.965-6.44 5.965-8.07 0-12.43-3.27-7.88-5.92 2.3-1.336 11.85-1.366 14.32-.045M631 569c0 19.333.067 20 2 20s2-.667 2-20-.067-20-2-20-2 .667-2 20m41.792-12.25c-.27 7.172-.46 7.774-2.542 8.07-2.163.307-2.25.027-2.25-7.25 0-6.903-.176-7.57-2-7.57-1.928 0-2 .667-2 18.5 0 17.715.083 18.5 1.962 18.5 1.788 0 1.99-.823 2.25-9.25.264-8.487.453-9.25 2.288-9.25 1.85 0 2.02.762 2.285 10.25.262 9.426.443 10.25 2.25 10.25 1.888 0 1.965-.785 1.965-20 0-19.2-.08-20-1.958-20-1.75 0-1.99.822-2.25 7.75M738 563.5c0 13.833.092 14.5 2 14.5s2-.667 2-14.5-.092-14.5-2-14.5-2 .667-2 14.5m20-12.52c0 1.982-3.165 3.474-6.005 2.83-.757-.172-1.548.476-1.76 1.438-.345 1.576.618 1.75 9.69 1.75 8.287 0 10.073-.266 10.073-1.5 0-.966-.98-1.505-2.75-1.515-3.244-.018-4.66-.845-5.542-3.235-.885-2.4-3.708-2.225-3.708.23m21.802 3.26c-.23 3.978-.7 5.318-1.995 5.562-1.368.26-1.75-.6-2-4.49-.264-4.14-.626-4.857-2.6-5.136-2.277-.323-2.283-.3-2 11 .264 10.563.417 11.324 2.283 11.324 1.677 0 2.05-.768 2.305-4.75.252-3.934.64-4.75 2.25-4.75 1.69 0 1.945.718 1.945 5.5 0 4.833.242 5.5 2 5.5 1.893 0 2-.667 2-12.5 0-11.722-.12-12.5-1.948-12.5-1.644 0-1.995.817-2.25 5.24m656.718-.366c-.36 1.444-1.68 3.68-2.95 4.97-2.22 2.257-2.42 2.284-5.44.725-6.68-3.458-1.1-11.85 6.2-9.307 2.42.843 2.74 1.372 2.2 3.613m13.8 6.758l-1.7 2.574-1.22-4.13c-.67-2.27-1.93-5.227-2.8-6.568-2.62-3.99-1.86-3.716 2.9 1.047 4.46 4.456 4.5 4.53 2.82 7.077M98.06 551.115c4.783.613 9.244 1.454 9.915 1.87.876.54.1 2.413-2.753 6.635-2.186 3.235-4.57 7.57-5.298 9.63S98.307 573 97.95 573C96.122 573 80 553.816 80 551.64c0-.573 3.368-1.303 6.932-1.503 1.338-.075 6.345.366 11.127.98m110.183 6.34c3.708 1.828 9.66 3.904 13.224 4.612 6.282 1.25 6.46 1.368 5.758 3.86-1.456 5.172-.653 12.566 1.862 17.137 4.652 8.455 17.078 13.967 28.17 12.496 11.76-1.56 19.8-6.572 28.347-17.694 2.526-3.283 5.107-5.797 5.736-5.588 1.606.536 3.494 7.343 3.585 12.93l.077 4.71-6.75 3.135c-24.192 11.233-54.806 16.13-87.333 13.972-8.926-.593-19.197-1.507-22.823-2.03s-7.164-.963-7.86-.974-2.007-1.573-2.912-3.47l-1.645-3.45 6.017-6.432c8.906-9.52 17.678-24.613 22.676-39.013.6-1.76.792-1.744 3.885.316 1.785 1.188 6.28 3.656 9.987 5.485m56.758-5.97c0 .564-6.818 3.513-8.122 3.513-.483 0-.878-.9-.878-2 0-1.704.667-2 4.5-2 2.475 0 4.5.22 4.5.487m-15 3.013c0 1.778-.542 2.5-1.875 2.5-1.03 0-3.28.28-5 .625-4.106.82-4.045-.872.125-3.45 4.606-2.848 6.75-2.745 6.75.325m461-.5c0 1.704.667 2 4.5 2 2.8 0 4.5.447 4.5 1.184 0 2.838-4.218 9.513-7.078 11.203-2.757 1.63-2.948 2.016-1.638 3.326 1.837 1.836 4.366.68 8.027-3.67l2.527-3.004 3.48 3.48c3.348 3.348 7.68 4.683 7.68 2.367 0-.613-1.806-2.75-4.013-4.75-2.47-2.236-4.244-4.863-4.613-6.823-.592-3.153-.553-3.2 3.755-3.5 3.2-.23 4.442-.777 4.686-2.063.3-1.58-.736-1.75-10.742-1.75-10.406 0-11.073.12-11.073 2m-634.166 4.52c1.816 3.036 7.04 9.45 11.606 14.25 7.072 7.435 8.415 9.398 9.052 13.23 1.55 9.325 6.167 15.014 13.89 17.113 3.485.947 5.253.787 11.49-1.038l7.37-2.158 6.38 2.123c3.51 1.168 6.38 2.473 6.38 2.9 0 1.04-13.81 6.445-23.6 9.238-11.072 3.156-25.343 3.158-34.537.006-19.04-6.527-32.868-20.687-32.843-33.63.01-5.716 3.04-13.112 7.565-18.472 2.9-3.448 10.906-9.082 12.887-9.082.59 0 2.556 2.484 4.372 5.52m203.84-1.848c6.34 4.824 7.403 6.317 6.156 8.648-2.272 4.246-14.908 6.25-20.63 3.275-3.8-1.978-7.778-6.44-6.637-7.448.515-.455 2.512-1.433 4.437-2.175s5.075-2.362 7-3.6 3.803-2.28 4.173-2.312 2.846 1.594 5.5 3.613M604.5 554c-1.316 2.13.884 3 7.578 3h6.96l-.66 2.75c-1.644 6.843-5.937 12.417-13.4 17.405-2.013 1.345-2.24 1.9-1.208 2.967 1.044 1.082 1.9.973 4.852-.617 7.738-4.167 14.38-14.875 14.38-23.183V553h-8.94c-4.918 0-9.22.45-9.56 1m806.6 2.257c3.52 4.41 5.9 9.187 5.9 11.833 0 1.932-2.4 4.8-4.1 4.878-.34.018-1.8-2.612-3.25-5.843-2.46-5.473-3.6-14.125-1.9-14.125.4 0 1.92 1.466 3.35 3.257m-766.433-1.6c-.367.366-.667 6-.667 12.54v11.874l8.24-.29c7.106-.25 8.288-.546 8.594-2.15.327-1.708-.14-1.802-5.74-1.152l-6.094.707V557h5c3.778 0 5-.367 5-1.5 0-1.187-1.426-1.5-6.833-1.5-3.76 0-7.134.3-7.5.667M135.32 567.92c9.663 7.68 10.464 9.094 7.463 13.178-3.13 4.26-11.627 10.9-13.947 10.9-2.31 0-10.112-3.882-18.68-9.293-5.78-3.65-6.296-4.254-5.8-6.783.905-4.526 4.504-11.41 8.255-15.793l3.506-4.096 5.807 2.93c3.194 1.612 9.218 5.642 13.387 8.955m1259.28-8.52c3.16 3.157 3.4 3.854 3.4 9.75-.03 10.294-.1 10.414-7.3 10.262-4-.084-7.8-.883-10.7-2.25-2.47-1.166-5.02-2.13-5.67-2.14-1.68-.032-2.08-1.94-1.3-6.205 1.38-7.518 7.3-12.806 14.32-12.813 3.05-.003 4.56.704 7.25 3.396m48.55 2.305c.2 1.212.01 2.225-.4 2.25-5.27.32-5.78-.448-3.08-4.57 1.78-2.716 2.8-2.04 3.48 2.32M755 560.234c-3.175 1.666-3.95 7.06-1.415 9.86 2.36 2.606 10.427 2.655 12.76.077 2.047-2.26 2.158-7.508.194-9.138-2.205-1.83-8.715-2.28-11.54-.8m8.43 3.337c1.886 1.886 1.952 2.648.37 4.23-1.9 1.9-6.59 1.458-7.763-.73-2.084-3.895 4.078-6.81 7.392-3.498m-507.93 3.682c3.93 5.412 10.866 8.978 17.462 8.978 2.77 0 5.038.307 5.038.68 0 1.692-7.975 8.2-12.5 10.2-7.303 3.228-17.485 3.167-23.46-.14-6.376-3.53-9.043-7.923-9.024-14.868.01-3.08.355-6.136.77-6.788.7-1.117 5.56-1.8 14.715-2.073 3.594-.107 4.305.3 7 4.012m436.21-.63c-2.285 2.286.705 6.922 3.718 5.766 2.45-.94 1.688-5.802-.968-6.182-1.123-.16-2.36.027-2.75.416m745.67 1.545c5.68 1.61 6.03 2.125 4.08 5.966-3.72 7.34-6.16 8.21-14.78 5.27-3.8-1.3-4.68-2.04-4.68-3.937 0-1.784 1.25-3.046 5.25-5.294 6.44-3.62 5.27-3.39 10.13-2.006m22.62.33c0 .873-.9 1.5-2.17 1.5-1.2 0-3 .745-4 1.655-1.7 1.538-1.83 1.538-1.83.003 0-.91 1.46-2.292 3.25-3.074 4.26-1.86 4.75-1.87 4.75-.084m-52.98 4.25c2.07 4.076 2.8 9.73 1.42 11.135-.2.21-1.78-.198-3.5-.9-2.76-1.142-3.06-1.644-2.53-4.26.32-1.63.6-4.71.6-6.84s.36-3.875.8-3.875 1.9 2.138 3.22 4.75m-643.93 3.123c-1.325.37-3.306 1.876-4.402 3.344-1.877 2.514-1.897 2.815-.343 5.186 3.12 4.763 17.28 6.04 23.29 2.1 3.815-2.5 2.985-7.443-1.636-9.75-3.547-1.772-12.123-2.218-16.9-.88M716 582v6h13.5c11.333 0 13.5-.24 13.5-1.5 0-1.242-1.89-1.5-11-1.5h-11v-4.5c0-4.133-.204-4.5-2.5-4.5-2.39 0-2.5.267-2.5 6m731-3.107c0 1.04-.67 2.152-1.5 2.47-1.6.614-1.87-.228-.9-2.78.84-2.188 2.4-1.986 2.4.31m18.52 2.177c.36 1.12-.7 4.645-2.63 8.66l-3.24 6.77-1.43-3.494c-2.93-7.185-2.77-9.545.9-12.833 3.53-3.15 5.18-2.918 6.4.897m-687.413-1.185c1.943 1.574 2.117 2.14 1.053 3.422-3.17 3.82-17.16 2.697-17.16-1.378 0-4.006 11.83-5.507 16.107-2.044m590.943 2.865c.67 2.063 1.67 4.323 2.22 5.024.56.7 1.1 3.28 1.2 5.73.23 5.488 2.4 8.093 7.9 9.436 3.9.955 3.8.99-2.1.63-3.65-.22-7.56-1.148-9.4-2.225-4.24-2.487-8.67-8.138-9.46-12.078-.55-2.782-.16-3.71 2.88-6.746 1.94-1.937 3.98-3.52 4.54-3.52s1.57 1.688 2.23 3.75m8.35-1.447c1.6 1.167 1.62 1.436.23 2.586-1.9 1.58-3.63.65-3.63-1.948 0-2.27.93-2.444 3.4-.638M154.823 597.997c-2.906 2.422-2.695 2.424-11.104-.08l-6.996-2.083 12.646-12.76 7.778 12.986-2.324 1.937M1424.95 584.13c4 1.392 2.38 2.83-3.2 2.854-4.02.016-4.06-.012-3.14-2.403.72-1.878 2-1.968 6.34-.45m-30.44.878c.34.555.3 1.98-.07 3.166l-.68 2.158-1.86-2.417c-1.02-1.33-1.87-2.753-1.88-3.166-.03-1.123 3.77-.904 4.5.26m89.04 1.446c4.06 4.067 3.22 14.67-1.46 18.263-2.08 1.598-8.25 1.617-10.4.032-1.56-1.144-1.58-1.82-.3-7.988.78-3.705 1.17-7.69.87-8.852-1.17-4.452 7.2-5.532 11.28-1.455m-96.62 3.273c3.72 4.514 3.76 5 .55 6.463-2.22 1-2.87.806-5.5-1.71-3.43-3.29-3.6-4.138-1.33-6.653 2.28-2.51 2.76-2.363 6.28 1.9m-1273.77 1.987l8.116 4.716-3.116.807c-4.282 1.1-9.6-1.27-12.135-5.428-3.738-6.13-3.264-6.137 7.135-.095m1291.89-3.19c1.62.84 2.95 1.93 2.95 2.422 0 1.03-9.1 9.036-10.28 9.046-.43.003-1.06-.703-1.4-1.57-.66-1.733 3.48-11.425 4.9-11.425.48 0 2.2.687 3.83 1.526m30.83 2.384c-4.97 4.44-11.28 6.103-14.8 3.9-3.06-1.9-2.58-2.483 2.68-3.21 2.6-.36 6.55-1.508 8.75-2.548 6.92-3.276 8.3-2.527 3.38 1.856m9.1 1.34c-.06 2.22-2.63 4.75-4.83 4.75-2.87 0-2.7-1.417.5-3.927 3-2.366 4.38-2.627 4.34-.823m-28.4 5.11c3.2 2.922 3.57 3.758 2.98 6.44-.8 3.612.56 6.76 4.3 10l2.66 2.302-4-.7c-6.93-1.214-22.75-7.378-23.96-9.335-.3-.482 1.37-2.004 3.7-3.383s5.57-3.896 7.2-5.595c1.6-1.7 3.05-3.09 3.2-3.09s1.9 1.51 3.93 3.36m49.45 1.128c-.6 1.535-1.34 2.517-1.67 2.184-.34-.334-.01-2.05.72-3.81 1.6-3.85 2.46-2.357.95 1.627m-17.47 2.094c-.9 1.366-2.05 2.223-2.56 1.905-.52-.318.07-2.12 1.3-4.003 1.5-2.315 2.34-2.932 2.56-1.905.2.836-.4 2.638-1.3 4.003m-1155.082-.33c-4.072 13.533-17.756 29.134-31.958 36.437-20.283 10.43-41.92 12.517-56.93 5.493-3.36-1.573-8.992-5.52-12.515-8.77-6.284-5.8-18.578-21.22-17.653-22.145.258-.258 4.21.017 8.784.612 23.707 3.084 51.764 2.325 72.802-1.97 10.18-2.078 27.94-7.71 33.012-10.468 3.816-2.076 5.248-1.816 4.458.8m1162.922 1.205c-.52 1.36-3.38 3.006-3.38 1.948 0-.294.47-1.418 1.05-2.497 1.15-2.158 3.18-1.68 2.33.55M1392 601c0 .55-.45 1-1 1s-1-.45-1-1 .45-1 1-1 1 .45 1 1m39.83 5.94c3.6 4.477 2.85 5.768-2.36 4.05-3.68-1.217-6-4.196-5.08-6.57 1-2.58 4.23-1.484 7.44 2.52m9.93-1.19c.6 1.816-3.27 1.548-4.83-.335-1.16-1.392-.97-1.544 1.55-1.25 1.58.184 3.05.898 3.28 1.585m17.36 2.627c-2.5 2.65-9.8 6.27-10.75 5.323-1.1-1.108.53-3.7 2.35-3.716.98-.01 3.58-1.06 5.78-2.336 4.76-2.76 5.66-2.51 2.62.73m-43.76 10.053c4.7 1.362 11.7 2.61 15.58 2.773 3.88.163 7.05.604 7.05.98.01 1.093-5.2 4.412-8.9 5.665-5.65 1.918-14.12 1.433-19.14-1.097-3.3-1.665-5.16-3.54-7.14-7.214-3.12-5.782-2.82-7.103 1.14-5.055 1.57.8 6.7 2.588 11.4 3.95m27.64-4.047c0 .76-1.12 1.6-2.5 1.862-2.94.562-3.17-.014-.75-1.853 2.27-1.722 3.25-1.725 3.25-.01m395.85 6.783c-2 1.048-5.95 2.176-8.74 2.508-5.24.62-7.83 2.356-6.57 4.398.46.732 2.37.972 5.2.652 3.8-.43 4.57-.218 5 1.385.27 1.04.87 1.89 1.32 1.89s.96 1.91 1.13 4.24c.22 2.99.8 4.334 1.96 4.555 1.24.235 1.83-.726 2.36-3.862.4-2.296 1.8-6.643 3.13-9.66 1.88-4.25 2.17-5.8 1.27-6.88-1.37-1.66-1.4-1.655-6.06.772m-64.03 10.543c-3.05.467-5.3 2.69-4.33 4.268.83 1.35 13.72.173 14.7-1.342 1.87-2.875-2.55-4.122-10.37-2.926m18.4 1.047c-1.83.612-1.5 3.036.6 4.15 1 .538 4.14 1.286 6.98 1.662 4.3.57 5.26.406 5.8-.986.35-.918.38-1.926.07-2.24-.9-.894-12.07-3.046-13.45-2.588M1823.5 634c-1.1.473-3.37.89-5.05.93-3.48.08-5.54 1.674-4.77 3.692.62 1.613 5.37 1.797 10.26.396 3.95-1.135 5.4-2.9 3.88-4.734-1.2-1.456-1.54-1.478-4.32-.284m-63.97 7.95c-2.06 3.97-1.93 6.05.37 6.05 2.05 0 6.52-6.505 5.55-8.077-1.2-1.947-4.44-.838-5.92 2.027m-8.33 11.25c-2.8 2.805-.7 7.8 3.3 7.8 2.68 0 4.5-1.82 4.5-4.5s-1.82-4.5-4.5-4.5c-1.15 0-2.64.54-3.3 1.2m12.25 1.887c-.96 1.552.52 2.577 4.55 3.15 4.5.638 6 .06 6-2.32 0-1.63-.74-1.917-4.94-1.917-2.72 0-5.24.49-5.6 1.087M1783.5 658c-1.04 1.69.38 2.914 7.62 6.558 7.12 3.586 8.88 3.692 8.88.53 0-1.242-2.1-2.76-6.83-4.94-7.36-3.392-8.72-3.693-9.67-2.148m-23.2 9.66c-.73 1.91 4.1 6.327 6.95 6.335 2.77.008 2.07-3.385-1.2-5.807-3.54-2.62-4.9-2.744-5.74-.528m48.4 2.976c-1.67 1.666-.32 3.545 5.24 7.327 6.4 4.342 10.07 5.177 10.05 2.287 0-1.03-2.37-3.27-5.75-5.44-6.7-4.304-8.6-5.13-9.54-4.173m-35.7 12.257c0 2.885 6.35 13.55 8.3 13.924 2.67.514 2.12-3.26-1.43-9.927-2.1-3.952-3.75-5.9-5-5.9-1.16 0-1.86.714-1.86 1.893m80.46 1.17c-.78 1.26 2.07 4.65 4.57 5.446 1.17.372 1.6 1.222 1.25 2.53-.28 1.084-.01 2.575.6 3.314.85 1.02.64 1.775-.88 3.15-2.5 2.265-2.63 5.497-.22 5.497.98 0 2.53-.883 3.46-1.96.92-1.08 4.17-3.618 7.22-5.642 6.68-4.44 7.24-6.905 1.73-7.644-2.1-.28-6.3-1.7-9.34-3.132-6.1-2.89-7.42-3.133-8.4-1.558m-20.52.974c-3.3 2.036 4.5 7.3 12.9 8.697 3.02.503 3.3.342 3-1.67-.26-1.73-1.93-2.844-7.5-5.007-3.95-1.53-7.72-2.44-8.4-2.02m-47.57 20.434c-1.04 2.73 9.4 13.212 12.13 12.166 2.5-.958 1.74-2.568-3.87-8.224-5.57-5.616-7.3-6.44-8.26-3.942m21.67 4.982c-.83.995-.66 2.275.65 5.025 1.67 3.5 1.67 3.743.04 4.656-.95.53-1.73 1.525-1.73 2.21s-1.46 1.674-3.25 2.2c-2.2.644-3.25 1.577-3.25 2.85 0 1.74.8 1.885 10 1.782l10.75-.144c1.67-.072.58-3.007-2.25-6.03-1.65-1.765-4-5.405-5.23-8.09-2.44-5.307-4-6.532-5.73-4.46"/><path d="M1777.64 32.772c-1.3 2.074-4.46 5.48-7 7.567s-4.63 4.392-4.63 5.12c0 2.48 2.75 2.393 6.58-.205 2.46-1.675 3.95-2.178 4.2-1.423.2.642 1.14 1.17 2.05 1.174.92.004 2.44 1.354 3.37 3 3.07 5.38 6.74 3.492 4.35-2.232-.8-1.89-1.75-5.876-2.13-8.856-1.12-8.807-3.08-10.006-6.78-4.146m-9.4 21.602c-4.58 4.66-5.47 7.626-2.3 7.626 2.74 0 10.3-7.404 9.87-9.667-.6-3.127-3.18-2.433-7.58 2.04m-18.1 9.862c-5.47 2.155-7.22 4.092-5.37 5.94.72.724 2.6.525 6.14-.652 6.3-2.09 8.64-4.146 7-6.13-1.42-1.7-1.23-1.73-7.76.842m-20.8 11.188c-4.44 4.05-4.72 4.562-3.27 6.045 1.45 1.49 2.04 1.246 7.2-2.998 3.54-2.9 5.4-5.145 5.06-6.044-.97-2.543-4.03-1.522-8.98 2.997M1839.9 74c-.88.516-4.93 1.444-9 2.063-8.35 1.272-9.82 2.112-7.84 4.493.96 1.16 2.32 1.484 4.65 1.106 2.4-.39 3.3-.158 3.3.845 0 .76.8 1.97 1.8 2.687 1.16.843 1.78 2.55 1.75 4.807-.04 2.823.33 3.5 1.9 3.5 1.46 0 2.16-.96 2.74-3.754.43-2.065 1.9-5.987 3.3-8.717 1.38-2.73 2.5-5.652 2.5-6.496 0-1.703-2.63-1.98-5.1-.534m-27.67 14.487c-7.13 1.415-7.72 1.77-6.82 4.11.54 1.414 1.58 1.586 6.48 1.074 7.93-.83 11.12-2.163 11.12-4.646 0-2.352-1.32-2.418-10.78-.54m-91.6 1.096c-1.08 2.82-.65 7.143.85 8.382 2.35 1.95 3.54.26 3.54-5.023 0-4.18-.3-4.94-1.9-4.94-1.04 0-2.17.712-2.5 1.582m33.7 1.136c-3.54.444-5.87 2.58-4.76 4.37.5.838 3.05.982 8.82.5 8.54-.712 10.27-1.46 9.28-4.02-.6-1.565-5.25-1.862-13.34-.85m23.03.8c-1.08 2.823 1.13 3.565 9.74 3.265 7.65-.266 8.4-.475 8.4-2.293 0-1.826-.76-2.025-8.77-2.29-7.3-.24-8.87-.02-9.38 1.317m-41.85 5.63c-3.62 2.032-5.37 4.01-4.83 5.437.75 1.956 2.62 1.76 6.82-.722 5.36-3.158 3.42-7.75-2-4.715m-14.75 6.923c-3.55 2.068-1.12 8.92 3.17 8.92 2.1 0 5.08-3.03 5.08-5.174 0-1.865-3.15-4.837-5.08-4.796-.78.017-2.2.49-3.17 1.05m-27.47 6.64c-.88 2.29.52 4.076 3.75 4.786 4.04.886 3.04 1.745-5.03 4.322-14.46 4.62-30.66 5.537-48 2.72-11.98-1.944-31.37-1.967-40.43-.048-12.68 2.687-17.4 7.232-26.2 25.296-5.6 11.46-7.55 14.45-13.22 20.093-12.03 11.99-26.94 17.79-43.15 16.79-10.33-.64-16.15-2.166-32.9-8.647-19.62-7.58-27.1-9.456-37.6-9.407-7.1.033-10.67.614-16.9 2.748l-7.9 2.707-3.24-3.536c-6.35-6.932-18.45-9.818-23.62-5.633-1.86 1.507-2.36 2.883-2.36 6.51 0 3.68-.3 4.483-1.5 4.018-.83-.32-3.52-1.05-6-1.62-11.87-2.742-23 6.948-23 20.02 0 2.96-.16 3.08-3.25 2.53-22.15-3.94-30.28-15.753-20.46-29.738 4.16-5.93 16.95-9.396 24.32-6.593 2.12.805 3.06.714 4.18-.404 1.96-1.956.86-3.36-3.58-4.594-14.24-3.955-28.97 3.437-32.75 16.435-4.18 14.397 5.02 25.415 24.33 29.108 4.17.798 7.7 1.584 7.87 1.746.17.162 1.4 2.357 2.74 4.88l2.44 4.584-5.8-.526c-7.2-.653-12.4 1.892-16.37 8.023-3.35 5.167-3.64 13.3-.7 19.84 1.9 4.263 1.9 4.39.06 6.36-1.04 1.105-2.42 4.034-3.08 6.51-1 3.746-.93 5.117.36 8.184 2.9 6.855 14.07 11.623 23.2 9.9 4.5-.845 11.44-4.184 16.1-7.73 4.14-3.152 5.8-2.98 10.8 1.107 5.32 4.358 12.14 7.487 16.4 7.515 5.05.034 13.94-3.51 18.8-7.498 5.54-4.54 9.27-10.85 10.3-17.43.45-2.812 1.73-6.11 2.85-7.33 2.58-2.815 6.8-11.253 7.7-15.39.6-2.737 1.22-3.263 4.6-3.83 4.96-.84 11.74-5.7 12.57-9.04 1.3-5.133-.16-12.345-3.27-16.244-6.2-7.793-14.1-8.994-20.73-3.16-3.2 2.814-3.5 2.882-6.23 1.456-1.58-.822-3.62-1.497-4.54-1.5s-2.64-1.58-3.83-3.506-2.58-3.5-3.08-3.5c-.5 0-.92-1.093-.92-2.428 0-2.023.9-2.767 5.42-4.458 14.72-5.507 25.06-4.938 44.9 2.47 27.2 10.153 32.55 11.657 43.17 12.15 19.04.886 33.53-4.73 47.13-18.264 6.96-6.927 8.8-9.526 12.8-18.032l6.37-13.298c2.42-4.787 9.5-10.697 14.45-12.093 7.65-2.15 29.1-2.464 40.75-.598 21.15 3.386 41.86 1.68 57.08-4.704l3.57-1.5-.07 4.127c-.07 3.425.25 4.127 1.83 4.127 1.15 0 2.7-1.4 3.87-3.5 1.08-1.925 3.7-5.696 5.84-8.38 2.13-2.684 3.88-5.245 3.88-5.69 0-1.716-2.56-2.166-13.2-2.323-8.15-.12-11.15.17-11.5 1.116m40.72 3.218c0 1.536.95 2.08 4.58 2.625 4.92.738 7.1-.34 6.08-2.997-.43-1.135-1.98-1.567-5.63-1.567-4.3 0-5.03.277-5.03 1.94m19.67 3.728c-1.84 1.833-.05 4.172 5.78 7.583 3.53 2.063 6.85 3.75 7.38 3.75.8 0 2.17-2.23 2.17-3.537 0-.45-13.4-8.463-14.14-8.463-.3 0-.83.3-1.2.667m42.98 7.804c-.6 1.55 1.23 3.86 4.4 5.555 2.33 1.246 1.7 6.354-1.18 9.538-1.03 1.136-1.87 2.613-1.87 3.282 0 2.24 3.07 2.44 5.3.35 1.2-1.132 5.04-3.466 8.5-5.185 7.78-3.854 7.9-5.79.52-8.163-2.83-.91-6.87-2.822-8.97-4.25-4.36-2.962-5.9-3.22-6.7-1.126m-21.2 6.625c-1.2 1.944 2.02 3.92 8.62 5.282 7.27 1.5 8.94 1.226 8.94-1.466 0-1.238-.93-2.07-2.75-2.45l-6.94-1.52c-5.43-1.22-7.04-1.188-7.87.154m-363.16 35.275c1.77.754 4.33 2.574 5.7 4.045 1.96 2.134 2.24 3.018 1.36 4.38-.84 1.303-2.23 1.63-5.9 1.386-6.04-.403-10.23-2.537-11.5-5.85-1.9-4.956 3.32-6.95 10.34-3.96m-19.8 10.796c3.22 1.47 3.2 2.446-.06 3.265-4.5 1.13-7.4 5.257-7.4 10.464.03 6.166 2.47 9.26 7.9 10.02 3.9.545 4.08.71 2.76 2.495-1.36 1.853-1.5 1.824-5.16-.956-2.07-1.577-7.2-4.043-11.4-5.48l-7.64-2.614.16-4.69c.4-11.575 10.08-17.393 20.8-12.506m18.35 4.003c3.2.754 4.17 1.412 3.75 2.508-.3.817-.57 1.97-.57 2.56s-.8.364-1.75-.503-3.77-2.777-6.25-4.244c-2.74-1.624-3.52-2.407-2-2.004a342.26 342.26 0 0 0 6.82 1.684m-11.27 7.225c.86 4.586-.88 7.605-4.4 7.605-3.5 0-5.16-1.654-5.16-5.13 0-3.533 2.4-5.87 6.03-5.87 2.48 0 2.97.467 3.52 3.395m25.66 1.17c-1.22.85-2.2 2.197-2.2 2.99s-.45 1.443-1 1.443c-1.6 0-1.16-1.858 1.2-5.047 1.5-2.01 2.52-2.64 3.2-1.95s.3 1.516-1.2 2.564m-15.7 1.333c.3.792-.03 1.808-.74 2.256-2.62 1.665-3.78.85-3.78-2.663 0-3.247.15-3.417 1.98-2.272 1.1.68 2.23 1.886 2.54 2.68m50.3.783c4.8 3.038 6.75 12.743 3.24 16.253-1.58 1.578-9.2 4.598-9.56 3.788-.05-.123-.64-2.37-1.3-4.997-.66-2.626-2.3-6.51-3.64-8.633l-2.44-3.86 2.2-2c3.86-3.507 6.64-3.643 11.52-.562m-22.03 3.068c2.63 2.274 4.4 16.027 1.88 14.6-4.06-2.295-8.8-7.616-8.18-9.2.35-.913.9-2.898 1.2-4.4.65-3.173 2.24-3.485 5.1-1m-24 9.1l.3 6.202-3.7 1.544c-2.03.85-5.54 1.623-7.8 1.72-3.48.15-4.15-.145-4.4-1.938-.17-1.16.97-4.273 2.52-6.915 2.22-3.78 3.67-5.063 6.8-6.027 2.2-.673 4.43-1.125 4.98-1.005s1.13 3.01 1.3 6.42m-31.3-.018c3.3 1.563 6.58 3.544 7.3 4.404 1.52 1.837.6 6.754-1.25 6.754-1.8 0-8.68-5.188-11.83-8.928-4.94-5.873-3.27-6.517 5.8-2.23m38.9 1.305c-1.1 1.784-2.4.742-2.38-1.897.03-2.606.1-2.65 1.47-.853.8 1.044 1.2 2.28.9 2.75m26.58 5.162c0 .995-.44 1.53-1 1.19s-1-1.83-.98-3.31c.01-2.105.22-2.364.98-1.19.53.825.98 2.314 1 3.31m-76.65 5.684c2.83 2.482 8.56 12.75 7.48 13.4-.18.104-2.6 1.564-5.38 3.246-3.66 2.2-6.9 3.245-11.72 3.738l-6.64.68-1.65-3.188c-1.17-2.254-1.52-4.797-1.2-8.688.4-4.772.93-5.944 4.1-8.837 4.92-4.505 10.13-4.624 15-.342m47.1.475c-.8 1.907-1.45 4.142-1.45 4.967 0 2.28-6.96 8.796-8.68 8.133-.82-.312-2.23-.568-3.13-.568-1 0-.18-1 2.03-2.506 2.03-1.38 5.15-4.64 6.92-7.25 2.73-4.008 4.65-6.158 5.56-6.23.1-.008-.45 1.546-1.25 3.453m8.4 1.565c-.35 2.353-3.27 4.867-4.38 3.763-.35-.35.15-2.27 1.1-4.273 1.83-3.87 3.87-3.552 3.28.5m7.15 1.658c0 1.205-.44 2.47-1 2.81-.6.376-1-1.07-.98-3.69.01-3.15.27-3.906.98-2.81.53.825.98 2.486 1 3.69m6.25-.474c-1.04 2.144-1.1 2.073-1.17-1.167-.05-2.63.2-3.172 1.1-2.283.86.864.88 1.763.07 3.45m-55.95-.68c2.9 1.622 4.9 3.578 5.54 5.415 1.2 3.418.74 4.047-2.92 4.047-2.38 0-3.12-.772-5.34-5.62-3.5-7.65-3.67-7.41 2.72-3.84m63.1 1.212c-.9 3.807-4.64 10.518-6.15 11-2.1.68-1.37-2.024 1.77-6.66 1.64-2.42 2.98-5.008 2.98-5.75s.46-1.35 1.02-1.35c.6 0 .76 1.13.38 2.75m-39.4-1c0 .842-6.2 5.25-7.37 5.25-.42 0-.6-1-.44-2.244.22-1.57 1.22-2.435 3.32-2.88 4.4-.94 4.5-.94 4.5-.125m22.74 9.935c.38 1.13-3.24 2.474-4.16 1.548-.82-.815 1.56-3.355 2.77-2.954.57.2 1.2.823 1.4 1.406m-36.73 5.637c0 3.762-3.07 11.678-4.54 11.678-1.84 0-2.1-.662-2.9-7.182l-.7-5.682 3.32-.408c1.82-.224 3.65-.48 4.06-.568s.75.885.75 2.162m16.63 3.33c.75 3 4.93 6.35 7.95 6.35 4.34 0 3.33 1.663-2.04 3.358-6.23 1.96-21.2 4.313-22.05 3.462-.32-.318.33-2.545 1.44-4.95 1.12-2.404 2.5-6.22 3.05-8.477l1.02-4.106 5.02.99c4.03.8 5.13 1.455 5.6 3.372m13.17-2.982c4.3 1.643 4.34 1.688 2.04 2.964-3.23 1.788-7.38 1.68-9.3-.24-1.24-1.24-1.35-1.924-.45-3 1.48-1.787 2.4-1.754 7.7.275m12.58 1.786c-.52 1.36-3.38 3.006-3.38 1.948 0-.294.47-1.418 1.05-2.497 1.15-2.158 3.18-1.68 2.33.55M1381 238.48c0 2.28-.2 2.387-2.5 1.34-2.74-1.248-3.18-2.375-1.25-3.156 2.68-1.08 3.75-.563 3.75 1.817m-16 4.962c0 .793-.47 1.73-1.04 2.086-1.3.798-4.14-1.422-3.4-2.64.9-1.45 4.43-1.007 4.43.554m11.98 1.168c4.44 1.777 4.6 2.055 2.53 4.778-1.13 1.488-2.22 1.76-5.13 1.287-4.96-.805-6-1.987-4.57-5.147 1.35-2.972 1.87-3.04 7.17-.918m59.15 2.502c-.5 1.314-2.3 4.25-3.95 6.522-3.45 4.718-13.62 10.38-18.6 10.345-3.6-.026-10.5-2.95-12.4-5.26-1.17-1.407-.87-1.677 2.5-2.243 11.36-1.913 30.16-8.786 31.95-11.68 1.07-1.737 1.43-.08.5 2.317m-76.45 2.555c2.93 2.017 5.32 4.234 5.32 4.928 0 1.82 4.9 5.407 7.38 5.4 1.17-.004 3.37-.66 4.9-1.458s2.52-1.014 2.18-.48c-.33.534-2.46 1.923-4.74 3.087-9.6 4.895-24.72.357-24.72-7.416 0-2.07 2.7-7.728 3.7-7.728.36 0 3.05 1.65 5.98 3.666m600.3 37.77c-1.36 1.346-5.18 3.955-8.48 5.798s-6 4.006-6 4.808c0 2.132 4.2 2.375 7.2.416 2.38-1.554 2.66-1.56 3.5-.077.5.9 1.5 1.618 2.25 1.618.73 0 1.63 1.532 1.98 3.403.67 3.6 2.86 5.28 4.28 3.288 1.16-1.624.05-20.95-1.22-21.367-.56-.185-2.13.766-3.5 2.113m-15.23 19.794c-4.76 3.064-5.97 5.364-3.35 6.37 3.1 1.192 13.6-6.185 12.14-8.538-1.07-1.736-3.75-1.076-8.8 2.168m-435.3 1.774c-4.47 1.388-11.46 7.795-13.57 12.44-2.2 4.862-2.42 12.052-.48 16.69 2.14 5.104 9.04 11.337 16.46 14.843l8.03 3.876c1.06.557 3.4 6.905 4.06 10.922.02.15-1.42-.49-3.2-1.423-4.03-2.105-11.4-2.108-15.45-.007-7.28 3.766-10.92 11.462-9.92 21.005.62 5.93.56 6.127-2.9 9.68-3.7 3.805-5.23 8.793-4.08 13.397 1.03 4.088 6.2 9.15 11.8 11.566 6.83 2.938 15.98 2.443 24.17-1.306 3.13-1.43 6.35-2.35 7.15-2.04s3.13 2.828 5.16 5.6c5.53 7.53 11.22 10.754 18.98 10.754 9.04 0 16.58-3.103 22.84-9.404 3.2-3.215 5.52-6.624 6.3-9.236.74-2.5 2.3-4.836 3.9-5.9 3.83-2.512 8.13-7.357 10.4-11.71 1.64-3.155 2.46-3.75 5.18-3.756 12.8-.022 19.83-8.5 16.7-20.122-1.7-6.267-4.36-9.475-9.54-11.453-4.45-1.7-4.67-1.69-10.05.542l-5.5 2.278-2.25-2.12c-1.24-1.166-2.74-2.12-3.32-2.12s-2.2-2.332-3.62-5.183c-3.6-7.295-2.74-8.454 7-9.368 15.2-1.425 23.22 1.537 47.25 17.475 18.56 12.3 24.87 15.6 34.82 18.144 17.68 4.523 35.88.78 51.94-10.68 4.26-3.04 9.2-8.08 14.43-14.752 9.15-11.645 13.7-15.276 20.8-16.626 9.58-1.816 26.57 1.618 46.1 9.32 6.3 2.482 15.04 5.277 19.44 6.213 8.53 1.81 27.4 2.428 33.88 1.107 3.53-.717 3.8-.62 3.1 1.03-.43 1-.83 2.933-.88 4.293-.17 4.275 2.88 3.505 8.57-2.165 2.93-2.92 6.37-6.116 7.65-7.103 3.73-2.895 2.43-5.07-3.53-5.927-2.85-.41-7.5-1.625-10.32-2.698-2.83-1.074-5.78-1.708-6.56-1.41-2.44.94-1.54 4.276 1.7 6.243l3.1 1.884-3.35.74c-5.5 1.22-23.97.67-31.72-.945-3.98-.83-13.24-3.77-20.56-6.532-17.64-6.65-28.9-9.306-40.07-9.448-7.97-.1-9.66.208-14.7 2.69-5.63 2.765-8.56 5.75-19.3 19.63-12.8 16.542-35.96 25.04-56.4 20.687-9.84-2.097-17.27-5.704-31.1-15.116-16.43-11.183-23.57-15.413-31-18.348-5.88-2.328-7.78-2.57-19.7-2.507-13.07.07-13.18.052-13.77-2.315-1.55-6.152-14.28-14.37-20.03-12.927-4 1-6.52 4.143-6.52 8.094 0 3.38-1.2 4.58-2.5 2.486-.34-.558-2.47-1.957-4.73-3.108-3.17-1.618-5.4-2-9.83-1.68-7.67.555-12.34 4.087-15.83 11.975-1.4 3.204-3.03 5.822-3.6 5.816-2.25-.02-11.37-4.93-14.88-8.007-6.3-5.54-8.17-11.787-5.56-18.668 3.5-9.246 15.86-13.772 26.43-9.677 2.2.853 5.24 1.784 6.75 2.07 2.27.428 2.75.162 2.75-1.505 0-4.745-17.8-8.906-26.54-6.198m412.04 3.873c-2.1.452-3 1.23-3 2.632 0 1.808.6 1.967 6.47 1.734 6.47-.257 9.95-1.94 8.6-4.148-.72-1.166-7.1-1.28-12.06-.218m-17.4 4.663c-5.26 2.437-7.17 4.798-5.35 6.615 1.46 1.464 13.22-4.132 13.23-6.3.02-2.726-2.46-2.826-7.88-.316m-14.15 15.597c-.88 3.27-.83 4.417.2 5.464 1.82 1.82 3.2.61 4.58-4.017 1.32-4.435.95-5.585-1.77-5.585-1.38 0-2.2 1.128-3.02 4.138m-320.37.473c1.87.886 4.75 3.152 6.4 5.035 5.86 6.666 2.68 10-5.98 6.263-7.13-3.066-10.2-8.33-6.8-11.71 1.57-1.566 2.33-1.517 6.4.41m-20.55 6.64c4.07 2.737 4.05 4.047-.06 4.887-10.26 2.1-12.05 16.703-2.44 19.876 3.35 1.105 3.53 1.347 2.08 2.798s-2 1.17-6.45-3.236c-2.66-2.654-7.06-6.04-9.76-7.527s-5.06-3.465-5.24-4.398c-.55-2.847 3.92-10.73 7.22-12.744 4.27-2.604 10.5-2.458 14.65.344m369.35.166c-.95 2.476.04 2.98 8.05 4.13 8.33 1.194 9.56.998 9.56-1.52 0-2.295-1.18-2.724-9.88-3.58-6.1-.6-7.17-.466-7.73.973m-15.88.98c-4.15 1.21-5.9 4.13-3.13 5.198 1.8.685 8.3-1.266 9.22-2.763.35-.563.02-1.602-.73-2.31-1.08-1.017-2.2-1.043-5.36-.124m90.42 1.2c-1.16 1.395-1.08 1.83.55 3.022 1.05.766 3.2 1.392 4.78 1.392 2.38 0 2.77.33 2.26 1.926-.38 1.22-.02 2.254 1 2.823 1.34.75 1.4 1.326.4 3.5-.66 1.437-.92 3.317-.6 4.177 1 2.614 3.55 1.754 5-1.686.75-1.788 3.24-5.494 5.52-8.237 2.27-2.743 4-5.443 3.8-6-.2-.567-4.04-1.05-8.75-1.1-4.63-.047-9.37-.395-10.53-.772-1.4-.453-2.57-.133-3.46.945M1886.2 345.2c-2.6 2.597-.04 8.8 3.63 8.8 1.64 0 5.17-3.708 5.17-5.43 0-3.67-6.15-6.025-8.8-3.37m59.27-.156c-1.24 2.018 1.73 3.833 9.16 5.585 6.42 1.512 7.63 1.563 8.38.353 1.4-2.24-.54-3.62-7.5-5.367-7.53-1.892-9.17-1.985-10.05-.57m-373.7 6.438c.15.132-.22 1.54-.82 3.13-1.04 2.736-1.16 2.783-2.16.89-.58-1.1-2.7-3.736-4.68-5.857l-3.62-3.858 5.5 2.728 5.78 2.97m-16.2-.104c.83 2.155-1 7.842-2.9 9.04-2.13 1.344-7-1.088-7.53-3.752-.64-3.33 2.55-6.666 6.38-6.666 2.06 0 3.73.57 4.04 1.378m417.58.832c.32 2.182.73 2.3 8.83 2.3 7.83 0 8.5-.157 8.5-2 0-1.827-.76-2.025-8.83-2.3-8.7-.286-8.8-.256-8.5 2m-408.17 7.4c0 .815-1.03 1.39-2.5 1.39-2.6 0-3.23-1.927-1.83-5.572.6-1.568.84-1.516 2.5.53 1 1.245 1.83 2.9 1.83 3.654m334.1-3.697c-.76.486-1.15 1.52-.85 2.296.62 1.615 8.3 4.19 9.77 3.277 2.03-1.256.86-3.64-2.5-5.038-4.02-1.68-4.55-1.724-6.43-.535m-317.7 4.693c-1.04.715-2.7 2.075-3.65 3.022-1.55 1.52-1.75 1.536-1.75.13 0-1.867 5.06-5.84 6.4-5.017.5.3.06 1.15-1 1.866m-49.37 2.042c4.42 2.95 9.97 8.718 9.97 10.363 0 .883-.64 2.48-1.42 3.547-1.4 1.9-1.48 1.887-4.1-.56-3.55-3.32-6.2-7.105-8.02-11.442-1.7-4.098-.6-4.69 3.57-1.91m383.64 3.018c-1.52 1.518-.36 3.302 5.4 8.32 5.6 4.886 6.2 5.163 7.7 3.658 1.5-1.506 1.2-2.047-4.06-7.137-5.4-5.215-7.54-6.365-9.06-4.84m-349.02 4.873c-.98 7.145-1.95 8.228-8 8.986-2.96.37-6.22.5-7.26.313-3.34-.638-2.8-4.508 1.3-9.306 3.64-4.25 4.08-4.47 9.2-4.5l5.38-.033-.62 4.54m24.6-1.8c1.23 1.372 1.45 3.208 1.02 8.5-.33 3.97-1 6.746-1.67 6.74-.6-.005-2.56-2.105-4.33-4.667l-3.22-4.657 2.15-3.833c2.4-4.24 3.7-4.695 6.05-2.083m21.74 1.75c3.2 3.394 4.36 9.7 2.58 13.955-1.14 2.744-2.26 3.653-5.6 4.554-5.87 1.58-6.97.88-6.97-4.442 0-2.473-.7-6.546-1.55-9.05-1.8-5.318-1.46-6.19 2.85-7.326 4.08-1.075 6-.566 8.7 2.3m-92.73 2.265c2.9 3.04 5.74 10.01 5.72 14.112-.02 2.29-.7 2.84-5.38 4.326-7.6 2.408-19.2 1.486-20.02-1.6-.98-3.67-.64-8.557.85-12.122 3.07-7.338 13.76-10.02 18.83-4.726m52.7 2.66c-1.35 1.345-2.35-.017-1.55-2.104.58-1.497.82-1.543 1.58-.3.55.883.53 1.837-.03 2.405m-34.88 11.333c.6 3.314.57 3.342-2.93 3.043-3.44-.294-3.55-.435-4.78-6.3-.7-3.3-1.3-6.4-1.33-6.866-.03-.477 1.85.854 4.2 2.956 2.8 2.528 4.45 4.957 4.85 7.168m418.88-4.237c-1.3 1.563-.84 2.48 3.4 6.804 1.35 1.38 1.54 2.114.68 2.643-.65.403-1.3 1.452-1.42 2.332s-1.45 2.555-2.93 3.722c-4.9 3.86-2.12 6.325 4.1 3.64 2.04-.876 6.3-2.316 9.45-3.2 6.78-1.892 7.32-3.613 2-6.355-2.06-1.063-5.33-3.584-7.25-5.602-4.72-4.948-6.5-5.827-8.02-3.985M1598 385c0 1.65-.45 3-1 3-1.1 0-1.38-4.286-.33-5.333 1.13-1.13 1.33-.774 1.33 2.333m-29-1.122c0 .482-.63 1.4-1.4 2.04s-1.67 2.223-2 3.52c-.48 1.886-4.37 5.164-8.7 7.33-.33.164-1.9-.2-3.5-.8l-2.9-1.108 5.02-2.394c2.77-1.316 6.57-3.982 8.45-5.924 3.38-3.5 5.03-4.36 5.03-2.653m366.1.516c-.9 1.08-.76 1.79.6 3.162 2.53 2.53 12.1 6.73 13.84 6.067 3.17-1.216 1.23-3.712-5.5-7.1-8.07-4.06-7.45-3.914-8.94-2.12m-378.1 1.08c0 .763-5.76 3.526-7.36 3.526-.96 0-1.28-.676-.93-2 .4-1.567 1.36-2 4.4-2 2.13 0 3.88.213 3.88.474m18.53 3.274c-.87 3.45-.9 3.482-3.54 3.083l-2.2-.33 2.17-2.75c2.82-3.568 4.45-3.568 3.56-.002m6 4.976c-.4 1.635-1 2.218-1.6 1.608s-.5-2.205.27-4.395c.9-2.503 1.33-2.94 1.6-1.608.2 1.006.1 2.984-.27 4.395m7.9-3.814c.73 1.17-.38 4.1-1.55 4.1-.5 0-.9-1.125-.9-2.5 0-2.47 1.36-3.353 2.44-1.6m6.56 3.94c0 1.163-5.24 8.237-7.75 10.465-1.47 1.3-2.26 1.484-2.77.65-.43-.696 1.14-2.872 3.9-5.406 2.54-2.333 4.62-4.763 4.62-5.4s.45-1.16 1-1.16 1 .382 1 .85m-69 2.983c0 2.816-1 3.213-3.67 1.46-1.86-1.213-2.13-1.804-1.14-2.433 2.3-1.463 4.8-.957 4.8.972m12.6-.43c.63 1.637-2.72 8.622-5.07 10.572-2.73 2.263-3.87-.106-3.08-6.4.7-5.558.7-5.575 4.15-5.575 2.05 0 3.68.573 4 1.403m-30.22 1.395c.27.44.1 1.422-.37 2.185-.7 1.148-1.13 1.162-2.43.08-.87-.72-1.58-1.703-1.58-2.185 0-1.097 3.7-1.164 4.38-.08m42.28 2.565c2.56.867 3.26 1.744 3.73 4.66.62 3.88 3.62 7.262 7.6 8.564 2.26.74 2.07.888-2 1.572-5.12.86-23.8-.033-24.5-1.17-.25-.413.8-2.324 2.32-4.246s3.62-5.37 4.65-7.66c1.4-3.108 2.28-4 3.46-3.476.87.38 3 1.17 4.74 1.757m-48.9 3.007c2.32 2.404 4.23 5.07 4.23 5.923s1.2 2.988 2.68 4.74c2.47 2.937 3.04 3.145 7.25 2.646l4.57-.542-3.5 1.355c-10.58 4.097-25-1.955-25-10.493 0-2.552 3.3-8 4.84-8 .38 0 2.6 1.967 4.93 4.37m74.23-3.43c0 .518-.47 1.232-1.05 1.59-1.47.907-4.2-.302-3.45-1.523.78-1.273 4.5-1.327 4.5-.066m-55.96 2.987l3.46 2.928-2.12 2.165c-2.03 2.076-2.25 2.097-5.3.52-3.8-1.963-4.62-3.663-3.12-6.462 1.5-2.797 2.97-2.62 7.08.85M1567.5 404c1 1.1 2.4 2 3.15 2s1.35.44 1.35.98c0 1.378-4.52 2.356-7.47 1.616-2.64-.662-5.02-3.995-4.02-5.618 1.04-1.67 5.1-1.078 7 1.02m13.5 4.5c0 .825-.2 1.5-.42 1.5s-1.18.293-2.1.652c-1.47.562-1.55.357-.55-1.5 1.33-2.48 3.08-2.85 3.08-.652m-53 3.5c0 .55-.2 1-.44 1s-.72-.45-1.06-1-.14-1 .44-1 1.06.45 1.06 1m49.66 7.402c-5.08 7.747-19.66 12.828-27.87 9.708-2.62-.995-8.8-6.446-8.8-7.76 0-.467 5.5-.91 12.25-.986 8.87-.1 14.05-.67 18.75-2.068 3.58-1.062 6.67-1.802 6.88-1.644.22.158-.34 1.396-1.22 2.75" fill="#9d9d9d"/></svg>