<?xml version="1.0" standalone="no"?>

<!DOCTYPE svg PUBLIC "-//W3C//DTD SVG 20010904//EN"

 "http://www.w3.org/TR/2001/REC-SVG-20010904/DTD/svg10.dtd">

<svg version="1.0" xmlns="http://www.w3.org/2000/svg"

 width="186.000000pt" height="300.000000pt" viewBox="0 0 186.000000 300.000000"

 preserveAspectRatio="xMidYMid meet">

<path fill="#000000" stroke="none" d="
M35 295

C32 293 27 289 23 288

C13 283 9 280 4 275

C0 270 -1 268 2 266

C5 264 10 265 19 268

C32 272 38 271 42 264

C43 262 45 260 45 260

C46 260 52 252 63 236

C65 234 68 230 70 227

C76 219 80 211 80 208

C80 207 78 203 75 199

C68 190 62 181 61 176

C60 173 58 169 57 167

C55 162 55 162 57 157

C59 154 60 149 60 147

C61 145 62 140 64 137

C70 124 70 121 69 109

C68 103 67 95 67 90

C66 79 65 78 56 77

C48 76 48 76 30 66

C11 56 8 52 10 36

C11 27 13 24 22 20

C27 18 28 17 28 14

C28 11 28 8 29 7

C29 4 35 2 44 2

C48 2 53 2 55 1

C65 -2 77 7 83 19

C84 22 86 26 87 27

C90 30 98 35 100 35

C103 35 112 40 122 46

C130 52 144 65 149 72

C151 74 155 78 158 80

C163 83 167 88 169 96

C170 100 174 104 182 111

C186 115 186 118 181 124

C178 128 178 128 180 133

C181 137 181 141 181 149

C181 159 181 160 178 166

C175 172 173 173 164 180

C158 184 150 189 145 192

C140 195 134 199 127 205

C122 211 117 215 117 215

C116 215 104 230 98 239

C94 244 91 249 90 250

C84 259 76 272 75 277

C73 283 70 286 65 286

C61 286 60 287 57 292

C55 296 53 299 53 299

C52 300 49 300 46 300

C41 300 40 300 35 295

Z

"/>

<path fill="#ffffff" stroke="none" d="
"/>

</svg>

