<?xml version="1.0" standalone="no"?>

<!DOCTYPE svg PUBLIC "-//W3C//DTD SVG 20010904//EN"

 "http://www.w3.org/TR/2001/REC-SVG-20010904/DTD/svg10.dtd">

<svg version="1.0" xmlns="http://www.w3.org/2000/svg"

 width="125.000000pt" height="300.000000pt" viewBox="0 0 125.000000 300.000000"

 preserveAspectRatio="xMidYMid meet">

<path fill="#000000" stroke="none" d="
M75 297

C73 295 73 294 73 284

C74 275 74 272 72 264

C71 258 69 253 69 252

C64 244 63 239 62 231

C61 219 55 195 53 190

C51 187 51 183 50 169

C49 148 49 145 49 139

L50 135

L47 134

L44 133

L43 128

C43 125 44 119 45 116

C46 109 46 109 43 104

C41 101 40 98 39 96

C39 95 38 92 37 91

C36 88 36 88 26 88

C15 89 7 88 3 85

C0 83 0 82 0 78

C0 73 4 63 8 58

C9 56 13 53 16 52

C20 49 21 48 23 43

C24 40 26 36 28 34

C31 30 31 29 31 22

C31 14 31 14 35 10

C37 9 39 7 40 7

C41 7 44 5 46 3

C50 0 51 0 56 0

C60 1 63 2 67 4

C72 7 80 15 80 17

C80 18 83 20 87 22

C93 25 95 25 97 24

C101 22 104 23 111 29

C115 33 119 37 121 38

C125 41 125 42 125 45

C125 50 125 50 119 54

C116 57 110 61 107 62

C96 67 95 70 98 81

C98 84 99 89 99 91

C99 95 100 99 104 107

C108 118 108 118 107 121

C105 123 104 123 100 123

L98 124

L98 127

C98 129 99 132 101 135

C103 138 105 142 106 143

C106 144 106 169 106 197

C106 248 106 249 104 252

C102 255 102 257 102 276

C102 301 102 300 87 300

C77 300 77 300 75 297

Z

M28 67

C29 66 34 64 37 63

C43 61 44 60 44 58

C44 55 43 52 40 52

C38 52 23 66 23 68

L23 69

L24 69

C25 69 26 68 28 67

Z

M98 45

L99 43

L95 40

C89 34 81 34 81 40

C81 42 82 43 87 45

C92 46 97 46 98 45

Z

"/>

<path fill="#ffffff" stroke="none" d="
"/>

</svg>

