<?xml version="1.0" standalone="no"?>

<!DOCTYPE svg PUBLIC "-//W3C//DTD SVG 20010904//EN"

 "http://www.w3.org/TR/2001/REC-SVG-20010904/DTD/svg10.dtd">

<svg version="1.0" xmlns="http://www.w3.org/2000/svg"

 width="236.000000pt" height="300.000000pt" viewBox="0 0 236.000000 300.000000"

 preserveAspectRatio="xMidYMid meet">

<path fill="#000000" stroke="none" d="
M23 298

C20 295 21 292 23 288

C25 283 26 273 24 269

C23 268 22 264 22 261

C21 257 20 246 19 238

C17 229 15 215 15 208

C12 162 11 152 7 149

C2 145 2 144 6 132

C10 118 10 111 4 99

C0 89 0 86 2 66

C3 50 5 43 10 32

C12 28 15 22 15 19

C17 13 20 7 24 3

C26 1 27 0 30 0

C35 0 37 3 38 11

C39 19 41 25 43 25

C46 25 48 28 54 42

C61 59 62 67 62 81

C61 99 64 114 74 128

C78 135 76 141 66 145

L62 147

L63 152

C63 159 60 199 58 210

C58 215 57 222 57 226

C57 231 56 237 56 239

C55 241 54 249 54 256

C53 265 52 269 50 276

C47 283 46 284 38 292

C29 301 26 302 23 298

Z

M29 31

L31 29

L30 28

C29 27 28 26 27 26

L26 26

L25 29

C24 30 24 32 24 32

L24 33

L25 33

C26 33 28 32 29 31

Z

M148 271

C145 269 145 268 145 265

C145 262 146 261 153 257

C159 252 161 251 163 246

C168 237 168 231 163 225

C145 198 147 201 147 188

C148 181 148 172 149 167

L149 158

L146 157

C144 157 142 156 142 155

C140 149 138 133 138 117

L138 100

L136 100

C135 100 132 101 130 103

C128 105 125 106 124 106

C120 106 113 100 112 96

C112 95 110 89 107 84

C104 77 103 74 103 71

L104 68

L101 66

C97 64 95 60 95 55

C95 52 96 51 98 49

L100 48

L102 49

C104 50 105 51 108 51

L111 52

L111 53

C111 54 113 59 116 64

C118 68 121 75 122 78

L124 83

L125 83

C126 83 128 79 131 75

L136 68

L133 65

C132 63 130 59 129 55

C128 51 127 48 126 47

C126 46 125 46 124 45

L122 45

L122 40

C123 34 129 26 134 23

C138 21 140 21 146 21

C154 22 157 24 163 31

C168 36 168 36 168 44

L168 53

L170 54

L171 54

L171 56

C171 59 174 61 178 61

C186 61 189 64 192 72

C194 77 199 86 200 86

C201 86 205 81 210 76

C215 70 219 65 220 65

C220 64 222 65 223 65

L225 66

L229 63

C231 61 233 60 234 60

L236 61

L236 65

C236 71 233 76 227 80

C222 83 221 84 221 87

C221 88 219 92 216 95

C213 99 210 103 209 105

C207 107 205 109 201 111

L196 114

L196 116

C197 117 198 120 199 122

C199 124 201 131 201 136

C202 143 202 145 201 148

C200 151 199 153 199 155

C199 156 198 163 196 170

C189 204 188 210 188 219

C188 227 188 230 190 232

C191 234 192 236 191 239

C191 241 191 243 193 246

C195 249 196 252 196 253

C196 255 193 258 190 259

C188 259 185 261 183 264

C179 269 177 270 168 271

C163 272 157 272 155 273

C151 273 150 273 148 271

Z

"/>

<path fill="#ffffff" stroke="none" d="
"/>

</svg>

