<?xml version="1.0" standalone="no"?>

<!DOCTYPE svg PUBLIC "-//W3C//DTD SVG 20010904//EN"

 "http://www.w3.org/TR/2001/REC-SVG-20010904/DTD/svg10.dtd">

<svg version="1.0" xmlns="http://www.w3.org/2000/svg"

 width="269.000000pt" height="300.000000pt" viewBox="0 0 269.000000 300.000000"

 preserveAspectRatio="xMidYMid meet">

<path fill="#000000" stroke="none" d="
M146 295

C144 292 140 289 138 289

C137 288 134 285 132 283

C130 280 130 279 131 276

C132 275 133 274 135 274

C139 274 151 271 158 268

C162 266 164 265 165 262

C166 259 169 257 172 255

C175 253 179 250 181 248

C184 244 194 236 198 235

L201 235

L201 232

C201 231 200 229 200 228

L198 226

L191 228

C183 230 171 231 158 230

C152 230 151 230 147 233

C140 237 136 238 128 235

C121 234 120 234 117 235

C115 236 106 237 96 237

C85 237 77 238 75 239

C72 240 72 240 61 235

C55 231 48 227 46 225

L43 222

L37 224

C31 228 30 227 19 223

C15 221 13 220 10 216

C8 213 6 210 6 209

C6 206 11 197 14 196

C18 193 36 191 41 193

C46 194 48 194 50 189

C52 186 53 184 59 182

C68 177 74 176 78 178

C80 180 84 180 97 180

C114 180 115 180 127 185

C131 188 142 191 147 192

C152 192 157 194 162 198

C163 199 166 200 168 201

C174 201 185 205 192 209

C199 213 201 213 206 210

C211 207 213 205 211 201

C210 200 208 196 207 193

C206 189 205 187 202 186

C200 184 197 182 195 180

C193 178 191 176 190 176

C189 176 184 171 177 164

C171 158 164 152 162 151

C157 147 156 146 155 141

C155 138 155 137 163 129

C168 124 175 116 180 111

C191 98 193 96 199 94

C210 90 212 88 214 83

C216 80 217 78 217 77

L217 76

L210 76

C206 76 201 77 193 79

C187 81 178 83 175 84

C171 85 165 86 162 87

C156 89 142 91 120 92

C105 92 104 93 101 95

C99 97 97 98 96 97

C92 96 87 95 85 95

L84 95

L84 99

C84 104 82 106 77 107

C74 107 72 107 64 102

C59 100 54 97 53 96

C52 95 49 94 47 94

C45 94 43 93 41 92

C38 88 36 88 33 90

C31 91 28 91 21 91

C12 91 11 91 9 89

C5 86 1 76 0 70

C0 67 0 65 3 60

C7 52 12 51 22 55

C28 58 32 56 36 48

C41 41 45 38 58 39

C68 39 75 41 78 45

C81 51 89 52 103 50

C113 49 113 49 130 51

C144 54 148 54 157 53

C163 53 177 53 189 52

C211 52 218 53 222 57

C223 57 224 58 225 58

L226 58

L226 57

C226 54 220 51 210 47

C200 44 189 39 176 32

C175 31 172 29 170 28

C167 27 164 26 162 25

C158 22 155 24 149 30

C146 32 144 34 143 34

C141 34 140 31 140 25

C140 20 141 18 143 13

C147 7 153 0 156 0

C157 0 160 1 162 2

C163 3 170 6 177 8

C183 11 192 15 197 17

C206 21 206 21 226 21

C237 21 247 21 249 22

C254 23 260 28 262 33

C262 34 263 38 263 41

C263 44 264 49 264 51

C265 55 265 56 262 65

C260 69 258 75 258 77

C257 78 256 82 254 84

C253 85 251 90 250 93

C249 97 246 103 243 107

C239 115 238 115 231 119

C225 122 222 124 220 127

C218 131 212 134 205 134

C203 134 188 140 186 143

L186 143

L187 145

C190 147 193 146 198 143

C206 138 210 138 216 142

C221 146 222 147 225 153

C228 160 228 160 233 160

C239 160 242 163 242 168

C242 171 243 173 244 175

C248 180 253 188 256 193

C257 196 260 201 262 203

C264 207 265 209 265 212

C265 214 266 217 267 219

C269 223 269 224 268 226

C267 227 267 231 267 234

C267 242 264 251 258 257

C254 261 252 262 245 265

C240 266 231 269 227 271

C220 273 215 274 211 275

C202 275 200 276 194 282

C191 284 188 286 188 286

C187 286 182 288 177 291

C171 294 166 296 165 296

C163 296 161 297 160 298

C155 301 152 301 146 295

Z

M218 228

C219 227 220 225 220 223

L220 219

L219 219

C216 219 215 221 215 225

L214 230

L215 230

C216 230 217 229 218 228

Z

M184 131

C188 127 189 125 189 123

L189 120

L187 120

C186 120 179 124 177 127

C177 128 176 130 176 132

L176 136

L177 136

C178 136 181 134 184 131

Z

"/>

<path fill="#ffffff" stroke="none" d="
"/>

</svg>

