<?xml version="1.0" standalone="no"?>

<!DOCTYPE svg PUBLIC "-//W3C//DTD SVG 20010904//EN"

 "http://www.w3.org/TR/2001/REC-SVG-20010904/DTD/svg10.dtd">

<svg version="1.0" xmlns="http://www.w3.org/2000/svg"

 width="225.000000pt" height="300.000000pt" viewBox="0 0 225.000000 300.000000"

 preserveAspectRatio="xMidYMid meet">

<path fill="#000000" stroke="none" d="
M36 296

C32 294 26 290 22 287

C16 281 16 281 16 271

C16 266 16 259 15 255

C13 241 13 224 14 218

C16 212 16 211 14 200

C12 188 8 173 2 161

C1 158 0 154 0 147

C0 139 3 122 5 116

C5 115 8 109 10 103

C12 96 17 87 24 75

C29 65 34 56 34 56

C34 55 33 53 31 52

C29 50 28 47 27 46

C27 44 26 41 26 40

L25 37

L22 37

C20 38 17 38 14 39

L10 39

L10 38

C7 35 14 25 21 22

C25 20 36 18 45 18

C52 18 56 16 63 10

C75 0 76 0 83 0

C87 0 91 1 92 1

C98 3 105 18 105 26

C105 28 104 33 103 36

C101 39 100 42 100 43

C100 44 98 47 95 51

C92 55 90 59 90 60

C90 65 120 91 128 94

C132 95 135 98 135 102

C135 103 136 105 138 108

C144 114 146 117 148 123

C150 130 149 128 178 150

C213 177 223 185 224 188

C226 190 223 194 219 196

C216 198 213 196 196 183

C185 173 156 152 147 146

C146 145 144 144 142 145

C139 145 133 142 131 137

C130 134 129 132 129 131

C129 130 109 118 103 116

C101 115 97 113 95 111

C94 110 92 109 91 109

L90 109

L90 113

C90 118 85 140 84 141

C81 143 77 142 73 138

C68 132 65 132 62 136

C58 140 58 142 65 175

C67 182 69 192 69 199

C73 220 79 246 83 255

C85 260 87 264 87 266

C89 270 93 271 103 272

C114 273 118 275 118 278

C118 281 116 284 112 285

C111 285 103 285 95 285

C77 286 74 285 71 278

C70 276 68 272 67 271

C66 270 64 265 63 261

C61 257 58 250 56 245

C50 230 45 214 45 207

L45 205

L44 205

L43 205

L42 208

C42 210 40 216 38 222

C34 231 34 232 34 244

C34 258 37 276 40 280

C42 283 44 285 51 290

C56 294 57 295 57 297

L57 300

L50 300

C43 300 42 300 36 296

Z

M45 41

C46 40 47 39 47 38

L47 37

L46 37

C44 37 42 40 42 42

L42 43

L43 43

C43 43 44 42 45 41

Z

M208 151

C203 148 202 142 205 138

C206 137 208 135 210 134

C217 130 223 134 225 142

C225 146 225 146 222 149

C217 154 213 154 208 151

Z

"/>

<path fill="#ffffff" stroke="none" d="
"/>

</svg>

