<?xml version="1.0" standalone="no"?>

<!DOCTYPE svg PUBLIC "-//W3C//DTD SVG 20010904//EN"

 "http://www.w3.org/TR/2001/REC-SVG-20010904/DTD/svg10.dtd">

<svg version="1.0" xmlns="http://www.w3.org/2000/svg"

 width="260.000000pt" height="200.000000pt" viewBox="0 0 260.000000 200.000000"

 preserveAspectRatio="xMidYMid meet">

<path fill="#000000" stroke="none" d="
M105 197

C96 193 82 184 78 181

C74 177 69 175 64 174

C61 173 55 167 55 165

C55 164 54 161 52 158

C46 144 50 135 65 130

C69 129 70 128 73 124

C75 122 79 118 82 116

C85 113 87 111 87 110

L88 109

L87 109

C86 108 81 108 77 108

C70 107 66 106 59 104

C52 101 50 100 44 93

C37 87 36 86 31 85

C23 83 17 81 13 78

C11 76 7 73 5 72

C0 69 0 69 0 61

C0 53 0 53 3 50

C6 47 14 44 24 41

C34 38 34 38 40 22

C45 9 46 8 70 2

C73 1 82 0 101 1

C115 1 127 1 129 1

C130 1 140 1 151 0

C162 0 173 0 175 0

C177 1 181 3 186 7

C197 16 196 16 220 13

C235 11 242 15 248 27

C250 31 250 34 251 42

C251 54 250 57 243 63

C235 70 230 71 214 71

C199 72 200 71 195 81

C193 86 189 90 184 93

C178 96 173 97 156 98

C142 98 138 99 135 100

L132 102

L133 103

C133 104 152 106 159 106

C161 106 182 103 192 100

C198 99 205 101 207 106

C210 112 210 112 227 107

C242 102 255 107 259 120

C260 122 260 128 260 136

C260 149 260 149 256 153

C249 159 245 162 235 163

C221 165 218 166 215 169

C207 178 206 179 201 180

C197 181 195 182 193 181

C191 180 187 180 184 180

C181 181 173 181 166 182

C155 182 154 183 146 187

C141 189 137 192 136 192

C135 193 133 194 131 195

C128 196 125 197 124 198

C123 199 119 199 117 200

C112 200 110 200 105 197

Z

"/>

<path fill="#ffffff" stroke="none" d="
"/>

</svg>

