<?xml version="1.0" standalone="no"?>

<!DOCTYPE svg PUBLIC "-//W3C//DTD SVG 20010904//EN"

 "http://www.w3.org/TR/2001/REC-SVG-20010904/DTD/svg10.dtd">

<svg version="1.0" xmlns="http://www.w3.org/2000/svg"

 width="266.000000pt" height="300.000000pt" viewBox="0 0 266.000000 300.000000"

 preserveAspectRatio="xMidYMid meet">

<path fill="#000000" stroke="none" d="
M19 297

C17 295 14 290 11 286

C9 283 6 278 4 276

C0 271 -1 269 2 264

C4 261 5 258 5 255

C6 253 10 245 19 231

C31 212 31 212 31 202

C30 192 28 184 21 169

C16 158 14 148 15 144

C15 143 16 140 18 138

C19 136 20 133 21 131

C21 129 22 127 22 126

C23 126 24 123 25 119

C26 116 28 112 30 110

C31 108 32 105 32 104

C31 103 32 100 32 98

C33 96 34 90 34 86

C34 80 35 76 37 71

C38 67 40 61 40 58

C41 52 41 51 45 48

L49 44

L46 40

C41 33 39 28 39 23

C39 17 42 11 46 8

C47 7 50 5 53 3

C56 0 57 0 63 0

C71 1 79 4 85 9

C89 12 90 16 88 21

C87 25 87 33 87 38

C88 41 88 43 85 49

C83 53 81 58 82 58

C83 62 98 71 115 80

C120 83 125 86 128 89

C133 94 135 95 141 97

C145 98 150 100 151 101

C153 103 155 103 162 103

C173 102 176 101 176 95

C178 89 181 77 184 72

C185 69 186 66 186 66

L186 65

L182 65

C179 65 176 65 176 64

C172 63 170 56 170 48

C169 43 169 37 168 33

C168 25 169 20 173 16

C181 8 192 6 199 10

C203 12 203 12 209 11

C214 10 215 10 216 11

L218 12

L217 13

C217 14 217 15 218 16

C218 17 219 22 218 28

C217 38 217 39 214 43

C212 45 211 47 211 48

C211 49 219 59 227 68

C234 75 242 86 251 103

C253 105 256 109 258 112

C267 121 268 125 264 130

C262 133 262 133 263 139

C263 143 264 148 264 151

C264 155 264 156 259 160

C253 166 251 173 251 187

C251 193 251 202 252 207

C253 215 253 220 252 234

C251 243 250 254 249 258

C244 290 244 290 227 289

C219 289 216 289 213 288

C207 284 208 279 215 275

C220 273 221 269 220 259

C220 253 220 248 222 240

C224 226 223 215 219 206

C215 197 214 183 214 161

L215 147

L210 146

C205 145 204 143 198 132

C192 120 191 120 186 127

C180 134 179 136 179 139

C179 140 177 143 174 146

C171 149 169 153 168 154

C167 157 164 157 159 156

C151 154 151 148 158 141

C161 138 161 136 162 131

C163 127 163 123 163 123

C162 122 151 118 146 116

C138 114 126 108 123 105

C121 104 119 103 119 103

C118 103 115 102 113 101

C110 100 107 99 106 99

L103 99

L103 101

C102 102 102 107 102 111

L102 119

L96 120

C89 121 88 122 88 126

C88 128 85 131 82 131

C80 131 74 134 71 137

C69 139 68 140 68 143

C68 145 67 149 67 151

C66 153 65 158 65 161

C65 164 64 169 64 171

C61 180 60 187 59 201

C58 217 57 219 47 232

C43 236 37 245 34 252

C28 263 28 263 28 271

C28 279 28 280 31 287

C35 294 35 294 34 297

C33 299 32 300 27 300

C23 300 22 300 19 297

Z

"/>

<path fill="#ffffff" stroke="none" d="
"/>

</svg>

