<?xml version="1.0" standalone="no"?>

<!DOCTYPE svg PUBLIC "-//W3C//DTD SVG 20010904//EN"

 "http://www.w3.org/TR/2001/REC-SVG-20010904/DTD/svg10.dtd">

<svg version="1.0" xmlns="http://www.w3.org/2000/svg"

 width="256.000000pt" height="300.000000pt" viewBox="0 0 256.000000 300.000000"

 preserveAspectRatio="xMidYMid meet">

<path fill="#000000" stroke="none" d="
M130 298

C129 297 128 295 128 293

C128 292 128 289 127 287

L127 283

L126 284

C126 284 125 286 125 288

C124 293 123 295 119 297

C116 299 111 300 108 298

C104 296 103 281 108 273

C111 267 110 257 106 252

C104 248 104 248 104 217

C105 188 105 184 103 171

C102 162 101 152 100 147

L100 138

L97 139

C94 140 91 139 89 134

C89 133 88 131 88 131

C88 130 90 128 92 126

C96 121 98 115 98 108

C98 103 95 96 90 91

C86 87 86 87 72 88

C65 88 52 88 44 88

C29 88 28 88 21 85

C9 80 7 79 3 75

C1 73 0 71 0 68

C0 63 1 62 6 62

C9 62 10 61 11 60

C14 56 15 56 21 63

C24 67 26 67 42 63

C56 59 78 55 84 55

C86 55 90 54 94 52

C97 50 101 49 103 49

C104 49 106 49 107 48

L108 47

L108 45

C108 44 106 43 103 42

C100 41 98 40 97 39

C93 36 96 31 102 28

C105 27 106 26 106 22

C106 19 108 15 109 13

C110 10 112 7 112 5

L113 1

L115 0

C116 0 117 1 118 2

C121 5 128 5 131 2

C133 1 134 0 134 0

C135 0 143 11 145 15

C146 19 147 21 146 24

C146 29 146 29 149 32

C153 35 155 39 155 43

L155 46

L158 47

C159 47 171 47 183 47

C196 46 211 46 217 45

C222 45 227 45 228 45

C228 45 231 44 233 42

C238 38 240 38 242 42

C243 44 244 44 247 44

C253 44 256 46 256 50

C256 57 251 60 242 62

C239 62 235 63 232 64

C230 65 225 67 221 68

C217 68 210 70 206 72

C201 74 193 76 183 77

C174 79 166 81 164 81

C161 83 161 88 161 99

C162 110 164 116 168 119

C174 124 176 126 176 128

L176 131

L172 131

C166 131 165 131 166 136

C166 140 166 141 163 144

C161 147 160 149 159 160

C158 167 157 175 155 181

C152 191 152 191 152 218

C152 246 152 246 149 252

C145 261 144 269 147 278

C150 287 150 293 145 297

C143 300 142 300 137 300

C133 300 131 300 130 298

Z

M128 258

L128 254

L127 254

L126 254

L125 257

C125 258 125 260 125 261

L126 262

L127 262

L128 262

L128 258

Z

"/>

<path fill="#ffffff" stroke="none" d="
"/>

</svg>

