<?xml version="1.0" standalone="no"?>

<!DOCTYPE svg PUBLIC "-//W3C//DTD SVG 20010904//EN"

 "http://www.w3.org/TR/2001/REC-SVG-20010904/DTD/svg10.dtd">

<svg version="1.0" xmlns="http://www.w3.org/2000/svg"

 width="331.000000pt" height="300.000000pt" viewBox="0 0 331.000000 300.000000"

 preserveAspectRatio="xMidYMid meet">

<path fill="#000000" stroke="none" d="
M269 298

C264 295 259 288 256 278

C255 275 253 271 251 269

C249 266 249 265 249 255

C249 248 250 239 250 233

C251 218 251 205 250 197

C247 185 246 171 246 153

C246 136 246 135 244 132

C242 131 241 128 240 127

C240 124 238 123 235 122

L231 121

L231 117

C231 115 232 112 234 109

C236 106 236 105 236 97

C236 83 233 80 221 85

C212 89 188 94 179 94

L173 94

L173 96

C173 98 174 101 174 103

C175 105 176 112 177 118

C177 124 179 133 180 138

C182 149 183 173 181 182

C179 193 181 227 185 246

C185 247 184 249 181 252

C178 256 178 256 178 265

C178 278 175 284 168 284

C167 284 165 285 163 286

C160 288 160 288 157 287

C152 285 150 279 147 261

C146 258 145 257 144 256

C139 254 139 256 136 212

C134 196 133 183 131 179

L131 177

L129 177

L127 178

L124 173

C122 167 120 160 119 143

C119 136 117 124 117 116

C116 108 115 97 115 90

C115 79 115 78 118 74

C119 71 121 69 122 69

C124 67 123 65 119 61

C118 59 114 54 112 49

C105 35 106 26 118 18

C123 14 125 13 129 13

C131 13 134 14 135 14

C139 16 146 22 148 25

C149 28 149 39 148 46

C147 51 147 52 151 54

C154 56 156 56 161 55

C168 54 169 54 174 56

C179 59 181 59 199 60

C215 60 218 60 221 59

C223 58 226 57 229 57

C234 57 238 55 238 52

C238 51 239 49 240 47

C240 45 241 42 241 40

L241 37

L240 37

C240 37 237 38 235 39

C231 41 229 41 228 40

L226 39

L228 39

C232 39 235 36 241 27

C247 18 254 11 259 9

C262 8 275 8 277 9

C279 11 283 20 283 23

C283 25 284 27 285 28

C288 30 288 32 284 39

C282 44 281 46 281 48

C282 52 283 52 291 51

C298 50 300 50 310 55

C317 58 319 60 322 64

C330 74 330 76 331 86

C331 96 331 96 326 106

C320 117 320 117 316 117

C314 117 311 118 311 118

C309 120 308 142 308 157

C308 164 308 169 302 198

C300 208 300 212 302 233

C303 245 303 263 301 267

C300 268 299 273 299 278

C298 287 296 296 295 297

C294 297 292 297 290 297

C287 297 285 298 284 299

C281 301 274 300 269 298

Z

M284 278

C285 273 285 269 283 266

C282 265 282 263 282 261

C283 259 282 249 281 239

C280 220 278 211 275 208

L274 207

L274 209

C271 219 270 227 269 247

C268 274 269 278 275 284

L278 287

L281 285

C282 283 283 280 284 278

Z

M164 255

C164 254 162 254 161 254

L160 255

L160 261

C161 264 162 268 162 270

L163 273

L164 264

C165 259 165 255 164 255

Z

M60 292

C58 292 55 291 53 292

C49 292 48 292 47 290

C45 288 45 286 45 280

C46 271 44 258 40 255

C38 253 38 253 37 241

C37 235 36 229 35 228

C35 227 34 222 34 217

C33 202 31 194 28 181

C25 170 25 170 19 164

C16 161 13 158 12 158

C9 158 8 153 8 147

C9 143 8 138 7 129

C5 120 4 113 4 104

C4 83 6 77 17 70

C19 69 21 67 21 66

C21 65 18 61 13 57

C9 53 5 47 3 45

C0 40 0 39 0 31

C0 21 2 17 7 11

C10 7 13 7 17 11

L21 13

L22 12

L23 11

L21 7

L19 3

L20 2

L21 1

L24 3

C26 4 28 6 29 8

C31 11 31 12 38 12

C45 13 46 13 48 16

C52 21 53 31 50 49

C50 52 49 55 50 56

C50 58 58 62 60 62

C63 62 68 66 75 74

C86 86 88 90 91 100

C94 107 94 109 94 126

C93 143 93 144 91 146

C90 148 88 151 87 154

C86 156 85 160 84 161

C82 163 82 166 82 172

C82 176 81 184 80 189

C79 195 78 206 77 218

C76 242 74 253 72 258

C70 261 70 264 70 275

C70 288 70 288 68 290

C65 292 62 293 60 292

Z

"/>

<path fill="#ffffff" stroke="none" d="
"/>

</svg>

