<?xml version="1.0" standalone="no"?>

<!DOCTYPE svg PUBLIC "-//W3C//DTD SVG 20010904//EN"

 "http://www.w3.org/TR/2001/REC-SVG-20010904/DTD/svg10.dtd">

<svg version="1.0" xmlns="http://www.w3.org/2000/svg"

 width="137.000000pt" height="300.000000pt" viewBox="0 0 137.000000 300.000000"

 preserveAspectRatio="xMidYMid meet">

<path fill="#000000" stroke="none" d="
M48 298

C46 295 45 286 44 238

C43 202 43 195 38 173

C37 164 36 157 36 153

C37 145 37 146 30 143

C28 142 26 140 26 139

C25 137 28 116 31 105

C33 96 33 95 31 92

C30 90 28 90 20 89

C0 87 0 86 0 65

C1 50 2 44 4 44

L5 44

L7 41

C9 35 13 31 17 31

C21 31 25 33 25 35

C26 36 27 38 29 39

L32 40

L32 41

C32 42 29 43 25 45

L20 47

L19 51

C19 53 19 58 19 61

L18 66

L19 66

C20 66 22 65 23 63

C24 62 28 60 31 58

C36 56 37 55 38 51

C39 47 40 46 44 44

C46 43 48 42 49 41

C49 41 50 35 51 29

C52 18 54 12 59 6

C64 1 66 0 73 0

C83 0 87 3 89 14

C91 20 90 35 88 41

C88 42 89 44 91 47

C93 49 95 52 95 52

C95 52 97 54 99 56

C101 57 104 60 105 62

C107 64 109 66 111 67

L115 69

L116 68

C117 67 117 65 115 60

C113 54 113 54 115 51

L116 49

L115 48

C114 48 112 47 110 48

C107 48 101 47 101 44

C100 43 101 41 102 41

C103 41 105 39 108 37

C114 30 116 30 122 37

C124 39 126 42 126 42

C126 43 127 44 129 46

C131 47 133 51 134 55

C137 60 137 62 137 72

C137 82 137 83 135 85

C132 88 122 91 111 92

C107 92 104 92 103 93

C99 96 95 125 98 130

C100 132 100 136 99 141

C98 143 97 150 96 156

C93 178 92 182 91 188

C90 192 88 197 86 200

C83 206 82 216 82 247

C82 267 82 267 79 269

C76 271 76 271 76 283

C76 300 76 299 62 300

C51 300 50 300 48 298

Z

"/>

<path fill="#ffffff" stroke="none" d="
"/>

</svg>

