<?xml version="1.0" standalone="no"?>

<!DOCTYPE svg PUBLIC "-//W3C//DTD SVG 20010904//EN"

 "http://www.w3.org/TR/2001/REC-SVG-20010904/DTD/svg10.dtd">

<svg version="1.0" xmlns="http://www.w3.org/2000/svg"

 width="118.000000pt" height="300.000000pt" viewBox="0 0 118.000000 300.000000"

 preserveAspectRatio="xMidYMid meet">

<path fill="#000000" stroke="none" d="
M69 298

C68 297 68 294 68 292

C67 289 66 286 65 283

C64 281 63 279 63 278

C63 276 62 272 60 269

C56 260 53 246 53 242

C54 240 55 236 56 233

C57 227 57 227 55 220

C53 215 53 212 53 210

C55 203 54 193 50 179

C48 171 45 163 44 161

C43 158 43 152 42 143

C42 135 41 128 41 127

C40 126 39 125 36 125

C30 125 27 124 27 121

C26 118 29 115 35 113

L38 112

L38 111

C38 110 37 109 36 108

C36 106 34 102 32 97

C31 92 28 87 28 84

C26 79 26 76 29 72

C32 68 32 64 30 58

C29 54 28 50 28 48

C28 45 27 42 26 40

C25 38 24 35 24 33

L24 30

L22 30

C20 30 18 31 16 31

C13 33 12 33 8 31

C1 27 0 25 0 17

C0 13 1 9 2 7

C4 4 10 0 15 0

C19 0 26 3 26 5

C26 7 31 11 33 11

C35 11 36 10 37 8

C38 6 41 4 42 2

C47 -1 49 0 54 4

C56 5 61 8 65 11

C72 14 73 15 77 23

C85 36 89 51 86 53

C84 53 85 55 88 58

C89 60 92 64 93 67

C95 70 97 74 98 76

C99 78 100 81 100 89

C101 103 103 115 104 116

C105 116 108 117 111 118

C114 119 117 120 118 121

C118 122 118 124 117 126

C116 128 115 129 113 130

C108 131 104 133 103 136

C103 137 104 139 105 140

C106 141 107 144 107 146

C107 148 108 153 108 156

C110 166 109 168 99 181

C92 189 89 193 88 198

L86 203

L88 205

C92 208 92 212 90 226

C89 232 88 236 89 238

C91 244 90 258 88 265

C87 269 85 272 85 273

C84 274 79 283 74 292

C73 296 71 299 70 299

L69 299

L69 298

Z

M84 172

C95 164 96 163 94 153

C94 148 93 140 94 131

C94 119 94 117 92 114

C91 113 90 108 90 102

C89 93 89 91 85 83

C82 77 80 74 77 73

C70 68 68 68 57 74

C47 79 46 80 46 83

C46 86 45 87 44 88

L42 89

L42 92

C43 94 44 97 46 99

C47 101 48 105 49 108

C50 123 51 127 53 128

C54 130 55 131 55 138

C56 148 58 153 62 164

C65 170 68 173 70 175

C72 177 74 178 74 178

C75 178 79 175 84 172

Z

"/>

<path fill="#ffffff" stroke="none" d="
"/>

</svg>

