<?xml version="1.0" standalone="no"?>

<!DOCTYPE svg PUBLIC "-//W3C//DTD SVG 20010904//EN"

 "http://www.w3.org/TR/2001/REC-SVG-20010904/DTD/svg10.dtd">

<svg version="1.0" xmlns="http://www.w3.org/2000/svg"

 width="275.000000pt" height="300.000000pt" viewBox="0 0 275.000000 300.000000"

 preserveAspectRatio="xMidYMid meet">

<path fill="#000000" stroke="none" d="
M23 299

C22 297 22 296 26 287

C29 278 29 278 28 273

C27 271 26 266 26 264

C26 261 25 256 25 252

C24 248 23 237 23 228

C22 219 21 209 20 205

C18 192 13 178 11 175

C3 165 3 166 3 154

C2 148 2 140 1 135

C0 124 0 101 1 98

C1 97 3 90 3 84

C5 71 6 69 12 64

C17 60 17 59 14 55

C13 53 13 52 14 50

C16 46 21 34 22 30

C24 22 28 15 31 13

C37 9 44 7 49 7

C51 8 57 8 61 9

C67 9 68 10 71 13

C73 15 75 17 76 17

C79 17 90 27 92 30

C93 32 93 35 92 38

C92 44 91 45 87 45

L84 46

L83 48

C82 55 87 58 97 58

C100 58 105 59 108 60

C111 61 117 62 122 63

C126 64 131 65 133 65

C135 66 138 67 142 66

C145 66 147 66 149 67

C151 68 152 69 154 68

C159 66 163 67 165 70

C167 73 168 73 172 73

C174 73 176 74 178 74

L179 76

L179 77

C178 77 175 78 172 78

C168 79 165 79 165 80

L164 81

L165 84

L166 87

L165 88

L164 89

L160 87

C157 86 155 84 154 83

C152 82 139 81 119 81

C108 81 101 81 96 80

C87 78 83 78 81 79

L79 81

L80 86

C82 97 81 119 77 133

C76 138 75 142 75 144

C75 145 74 148 73 149

C72 151 72 154 72 158

C73 162 72 165 70 172

C63 189 61 204 64 217

C66 226 63 266 60 272

C59 274 57 279 56 283

C54 295 48 299 38 299

C34 299 30 299 28 299

C25 300 24 300 23 299

Z

M237 267

C232 258 229 251 229 248

C229 247 228 244 227 242

C227 239 225 230 224 220

C223 210 221 194 219 184

C217 166 217 166 212 160

C210 157 207 152 206 149

C205 146 203 143 203 142

C199 140 196 117 196 93

C196 75 196 75 198 70

C200 67 203 63 204 61

C207 58 208 57 208 52

C208 47 208 46 211 45

C214 42 215 41 212 39

C209 36 208 31 209 21

C210 12 210 12 216 6

C222 0 222 0 230 0

C240 1 243 3 246 8

C247 12 247 14 246 19

C246 22 245 27 245 29

C245 34 247 37 253 41

C255 43 256 44 256 46

C256 48 257 50 261 54

C267 59 267 59 272 77

C275 91 275 91 275 106

C274 121 274 123 271 131

C269 136 267 141 267 141

C267 142 266 145 264 149

C261 156 261 156 260 196

C259 236 259 238 256 243

C255 245 255 246 257 251

C260 261 259 264 254 264

C252 264 251 265 250 267

C248 270 247 270 244 270

C240 270 239 270 237 267

Z

"/>

<path fill="#ffffff" stroke="none" d="
"/>

</svg>

