<?xml version="1.0" standalone="no"?>

<!DOCTYPE svg PUBLIC "-//W3C//DTD SVG 20010904//EN"

 "http://www.w3.org/TR/2001/REC-SVG-20010904/DTD/svg10.dtd">

<svg version="1.0" xmlns="http://www.w3.org/2000/svg"

 width="303.000000pt" height="300.000000pt" viewBox="0 0 303.000000 300.000000"

 preserveAspectRatio="xMidYMid meet">

<path fill="#000000" stroke="none" d="
M188 298

C187 295 187 290 189 274

C190 265 190 265 185 237

C183 229 181 217 180 209

C177 192 176 188 172 183

C170 181 169 179 169 175

C169 172 168 168 168 165

C165 157 166 155 172 141

C175 135 178 127 178 125

C179 121 179 121 176 117

C174 115 172 111 170 108

C168 103 168 102 169 98

C170 96 173 89 176 83

C180 75 182 71 186 67

C193 61 197 53 197 45

C197 42 196 39 196 38

C195 37 191 37 186 37

C181 37 176 37 175 36

C174 35 173 33 172 31

C170 24 176 20 184 23

C187 24 191 25 194 25

C200 25 200 25 204 21

C208 17 215 14 222 14

C228 14 232 16 240 23

C244 27 245 27 252 27

C258 27 264 29 266 33

C268 40 262 43 252 40

C249 39 246 39 245 39

C245 40 244 45 243 51

C242 63 243 67 247 76

C251 84 253 93 253 104

C253 117 252 120 245 126

C239 132 239 132 239 142

C240 152 240 152 243 155

C244 157 247 162 250 165

L253 172

L255 170

C257 168 258 166 258 161

C259 151 259 151 275 154

C293 158 303 163 303 168

C303 171 299 173 292 173

C287 173 283 174 280 175

C278 176 275 177 273 177

C270 177 267 179 263 184

C262 187 255 194 248 201

C235 214 235 214 227 214

C219 214 219 213 216 210

C215 208 213 203 212 199

C210 194 208 190 208 189

L206 187

L205 187

C202 188 201 195 200 210

C200 225 202 250 204 252

C205 253 208 254 211 255

C217 257 219 258 217 263

C215 269 202 293 198 297

C194 301 191 301 188 298

Z

M98 290

C97 288 96 282 96 268

C95 257 95 245 94 241

C94 236 92 222 90 209

L88 185

L87 185

C87 186 86 191 84 198

C81 215 79 218 72 217

C67 217 65 215 53 203

C47 197 39 190 37 188

C33 186 31 184 31 181

C30 179 30 178 23 177

C18 176 16 176 12 177

C7 178 4 178 2 176

C0 174 0 170 1 168

C2 164 11 159 29 152

C40 148 41 149 43 159

C44 162 45 166 47 169

C49 173 59 182 61 182

L62 182

L62 172

C62 166 61 161 61 158

C58 152 57 139 59 133

L60 127

L59 126

C58 126 55 125 52 125

C48 124 45 123 44 123

C42 121 40 116 40 112

C41 107 46 92 49 86

C50 82 51 79 51 75

C51 71 51 64 52 59

C52 47 51 41 46 33

C43 29 43 27 42 22

C42 16 42 15 45 13

C48 10 50 10 54 14

C56 17 57 19 57 21

L57 24

L58 24

C59 24 60 23 61 22

C63 20 68 18 72 18

L76 18

L75 14

C75 12 75 8 75 6

L75 1

L77 0

C78 0 80 1 84 4

C88 8 88 9 91 20

C93 26 95 34 97 39

C99 43 101 49 102 51

C103 53 104 57 104 58

C105 60 109 65 114 69

C122 77 124 79 128 87

C132 95 133 98 134 103

C134 111 132 114 126 116

C123 117 120 118 119 120

C117 122 117 122 118 127

C120 135 119 151 117 158

C116 161 116 168 116 174

C115 181 115 187 114 192

C112 199 112 200 113 207

C115 216 115 222 113 252

C112 273 112 273 115 278

C120 287 119 290 106 291

C100 292 99 292 98 290

Z

"/>

<path fill="#ffffff" stroke="none" d="
"/>

</svg>

