<?xml version="1.0" standalone="no"?>

<!DOCTYPE svg PUBLIC "-//W3C//DTD SVG 20010904//EN"

 "http://www.w3.org/TR/2001/REC-SVG-20010904/DTD/svg10.dtd">

<svg version="1.0" xmlns="http://www.w3.org/2000/svg"

 width="145.000000pt" height="300.000000pt" viewBox="0 0 145.000000 300.000000"

 preserveAspectRatio="xMidYMid meet">

<path fill="#000000" stroke="none" d="
M39 297

C39 295 40 293 43 290

C45 287 48 284 49 281

C51 276 53 264 53 259

C51 250 50 233 50 225

C50 220 50 211 50 204

C50 196 49 187 48 179

C47 173 46 164 46 161

C46 156 45 148 42 136

C37 120 37 117 37 106

L37 94

L36 94

C35 94 33 95 31 96

C26 101 22 102 16 102

C3 102 -1 93 0 67

C1 53 1 53 4 48

C6 45 8 42 8 42

C8 40 12 35 15 33

C19 32 20 32 22 36

C24 41 23 47 19 52

C16 56 16 56 17 63

C18 68 20 71 20 72

L21 73

L24 72

C26 71 29 68 31 66

C35 60 38 57 44 56

C52 54 56 52 56 50

C56 49 53 46 50 43

C43 38 41 35 39 28

C37 24 37 22 38 19

C39 15 44 10 47 10

C48 10 50 8 53 6

C60 2 64 0 71 0

C78 0 86 4 89 8

C91 12 93 35 92 45

C91 51 94 53 103 54

C111 55 114 57 119 61

C121 63 123 65 123 65

L124 65

L124 59

C124 53 124 52 119 44

C112 33 111 28 117 25

C122 23 126 25 131 31

C136 38 137 41 142 53

C145 61 145 63 145 74

C145 86 145 86 141 89

C137 93 132 93 121 90

C109 87 110 85 109 117

C109 155 109 156 113 185

C115 199 117 216 117 224

C117 231 119 241 120 248

C122 254 123 261 124 265

C124 270 125 272 128 276

C130 279 133 282 135 283

C138 286 141 289 141 292

L141 294

L138 295

C134 296 130 294 123 290

C120 287 115 285 113 284

C111 283 108 282 106 280

C103 277 102 276 99 249

C98 232 94 215 91 209

C90 207 88 202 87 199

C85 191 82 186 81 186

L80 186

L78 206

C75 223 75 231 75 254

C74 285 75 284 65 289

C61 291 58 294 58 294

C56 298 51 300 45 300

L39 300

L39 297

Z

"/>

<path fill="#ffffff" stroke="none" d="
"/>

</svg>

