<?xml version="1.0" standalone="no"?>

<!DOCTYPE svg PUBLIC "-//W3C//DTD SVG 20010904//EN"

 "http://www.w3.org/TR/2001/REC-SVG-20010904/DTD/svg10.dtd">

<svg version="1.0" xmlns="http://www.w3.org/2000/svg"

 width="300.000000pt" height="173.000000pt" viewBox="0 0 300.000000 173.000000"

 preserveAspectRatio="xMidYMid meet">

<path fill="#000000" stroke="none" d="
M245 172

C243 170 243 170 243 164

C243 158 243 157 240 155

C233 151 226 140 222 130

C220 125 220 93 222 87

C224 81 224 79 222 76

C219 72 219 61 222 46

C223 39 223 33 222 30

C221 19 221 17 224 14

C228 10 233 8 238 9

C241 9 243 9 245 7

C248 5 258 1 261 1

C263 1 280 10 283 13

C285 15 286 16 286 23

C286 28 286 32 286 33

L286 35

L289 36

C294 37 297 42 297 48

C297 51 298 56 298 60

C299 66 299 65 293 76

C292 78 292 79 293 83

C293 86 294 89 294 91

C294 92 295 98 297 104

C300 116 300 125 297 134

C296 139 295 141 293 142

C283 149 279 155 279 163

C279 165 274 171 271 171

C270 171 267 171 264 171

C260 172 255 172 253 172

C249 173 247 173 245 172

Z

M37 166

C36 165 34 163 34 161

C33 158 32 156 29 155

C25 153 19 147 14 140

C12 138 9 134 7 132

C4 128 3 127 3 121

C2 118 2 112 1 110

C1 106 1 104 3 102

C5 99 5 99 3 94

C1 88 1 85 6 72

C10 60 14 54 23 46

L30 39

L27 32

C24 27 24 25 24 22

C26 14 28 10 36 5

C42 1 43 1 48 1

C54 1 67 6 70 10

C74 14 75 17 75 25

C75 34 77 39 83 42

C86 43 88 46 90 50

C92 53 98 60 104 65

C116 77 116 78 113 87

C110 91 109 92 106 94

C102 95 100 98 100 102

C100 104 98 108 90 121

C86 127 83 133 82 135

C80 139 75 147 74 147

C74 147 70 150 67 155

C64 159 59 164 57 165

C53 168 52 168 46 168

C40 168 38 168 37 166

Z

"/>

<path fill="#ffffff" stroke="none" d="
"/>

</svg>

