<?xml version="1.0" standalone="no"?>

<!DOCTYPE svg PUBLIC "-//W3C//DTD SVG 20010904//EN"

 "http://www.w3.org/TR/2001/REC-SVG-20010904/DTD/svg10.dtd">

<svg version="1.0" xmlns="http://www.w3.org/2000/svg"

 width="285.000000pt" height="300.000000pt" viewBox="0 0 285.000000 300.000000"

 preserveAspectRatio="xMidYMid meet">

<path fill="#000000" stroke="none" d="
M142 299

C142 298 140 293 139 287

C137 280 135 274 135 273

C134 270 113 249 100 237

C94 231 85 222 83 218

C78 211 74 206 71 204

C65 201 53 199 46 200

C40 200 40 200 35 195

C32 192 28 190 27 190

C25 189 23 189 21 188

C18 188 14 184 14 181

C14 179 12 176 5 171

C0 168 0 168 0 151

C1 135 1 134 4 126

C6 121 8 117 8 116

C9 115 12 114 15 113

C21 110 23 106 25 97

C28 85 36 73 49 60

C53 55 59 49 61 46

C70 36 78 28 82 25

C87 22 88 20 86 17

L85 16

L90 16

C93 15 98 14 102 12

C114 7 125 5 135 5

C140 6 145 6 146 7

C149 8 152 13 154 18

C155 20 156 22 157 23

L158 24

L161 21

L164 18

L166 18

C168 19 169 21 169 28

L170 32

L172 32

C173 32 180 29 187 26

C201 20 201 20 214 20

C227 20 227 20 230 22

C231 24 232 25 232 26

C232 29 228 34 224 36

C222 38 220 40 220 40

C220 41 219 43 217 45

C215 48 213 48 206 50

C201 50 195 51 192 52

C188 53 186 54 182 57

C180 59 176 62 174 63

C170 64 166 67 162 70

C159 73 138 79 127 80

C116 80 115 81 114 87

C112 94 109 99 102 103

C95 108 93 111 93 118

L93 123

L94 123

C94 123 97 122 99 121

C102 119 104 118 115 118

C128 118 129 118 133 113

C137 107 145 102 151 101

C159 99 167 101 171 105

C175 110 179 112 186 112

C192 112 193 112 198 108

C201 106 205 104 206 103

C210 101 217 102 223 104

C227 105 231 106 232 106

C233 107 236 108 239 110

C241 111 245 113 247 114

C251 115 254 117 262 125

C267 130 274 136 277 139

C283 143 286 150 285 159

C284 165 284 168 285 179

C285 188 285 189 278 194

C275 197 273 198 267 199

C263 200 256 201 253 202

C240 205 239 205 233 203

C227 200 227 200 221 202

C214 204 206 205 197 202

C191 201 189 200 179 194

C172 190 169 190 161 195

C155 198 151 199 146 196

C145 195 142 194 139 193

C134 191 129 185 127 178

C126 173 123 172 113 172

L106 172

L106 174

C106 175 108 178 109 180

C113 184 115 188 124 201

C129 208 144 223 152 229

C155 232 161 237 165 240

C173 248 177 250 187 251

C192 251 195 251 201 249

C209 247 213 246 215 249

C219 253 217 259 208 267

C205 270 201 273 200 274

C199 275 193 279 189 283

C184 287 177 292 173 294

C169 296 164 298 163 299

C160 300 144 301 142 299

Z

"/>

<path fill="#ffffff" stroke="none" d="
"/>

</svg>

