<?xml version="1.0" standalone="no"?>

<!DOCTYPE svg PUBLIC "-//W3C//DTD SVG 20010904//EN"

 "http://www.w3.org/TR/2001/REC-SVG-20010904/DTD/svg10.dtd">

<svg version="1.0" xmlns="http://www.w3.org/2000/svg"

 width="300.000000pt" height="268.000000pt" viewBox="0 0 300.000000 268.000000"

 preserveAspectRatio="xMidYMid meet">

<path fill="#000000" stroke="none" d="
M19 266

C16 264 12 259 7 250

C3 243 3 243 5 236

C5 232 6 227 7 225

C8 223 10 216 11 210

C12 203 13 196 15 192

C17 188 18 184 18 182

C18 176 12 157 8 152

C1 141 0 138 0 129

C1 120 1 119 4 113

C6 109 10 101 12 94

C14 88 17 79 19 75

C21 70 22 65 23 59

C24 49 25 46 31 42

C37 37 39 35 39 28

C39 15 42 8 51 3

C55 0 56 0 68 0

C81 1 81 1 87 5

C90 8 94 12 96 15

C98 19 99 20 99 31

C99 41 98 43 96 47

C95 49 94 52 94 54

C94 56 94 57 93 58

C91 59 92 62 95 67

C101 76 101 76 111 76

C120 76 120 76 124 72

C129 68 130 68 133 71

C134 73 135 73 137 72

C141 71 145 71 148 72

L149 74

L148 76

L147 79

L152 84

L157 89

L156 90

C154 91 153 91 146 89

C142 87 137 86 136 86

L134 87

L133 90

C132 94 131 96 129 96

C129 96 127 95 126 94

C125 92 123 91 122 91

C121 91 116 93 112 95

C107 96 102 98 100 98

C96 98 91 95 86 90

L82 86

L81 86

C81 87 79 91 77 95

C72 111 71 114 65 117

C62 119 59 121 58 122

C56 124 55 132 54 152

C53 179 51 189 48 193

C43 201 41 210 40 224

C39 241 39 241 32 241

L27 240

L26 241

C26 242 27 247 28 251

C30 260 30 264 29 266

L29 268

L26 268

C24 268 21 267 19 266

Z

M241 260

C236 257 236 254 241 248

C247 241 248 239 247 227

C246 214 244 201 241 195

C240 193 240 187 239 182

C239 175 239 173 242 165

C246 154 250 137 250 133

C250 132 251 129 252 128

C252 126 253 124 253 124

L253 123

L252 123

C251 123 248 124 246 126

C238 129 237 129 232 123

C230 120 228 118 227 118

C226 118 220 124 216 131

C213 135 210 138 209 139

C206 140 206 140 202 139

C198 136 196 133 197 129

C198 127 200 125 203 124

C208 121 209 120 209 111

C209 107 211 102 212 99

L215 93

L214 93

C214 92 208 92 202 92

C190 92 187 93 181 97

C179 99 175 97 173 95

C172 93 171 92 169 92

L167 92

L167 91

C167 91 169 89 171 87

L174 84

L173 82

C172 81 171 80 171 79

L171 78

L176 79

C185 80 190 80 195 77

C198 75 202 74 205 73

C210 72 212 72 214 69

C216 67 221 63 225 60

C234 54 234 54 233 49

C232 42 235 20 238 16

C241 11 248 8 256 6

C263 5 264 5 268 7

C276 11 277 14 277 28

C277 35 276 39 275 40

C275 41 274 44 274 48

C274 52 275 55 278 63

C284 76 287 81 289 84

C293 87 295 91 295 94

C295 96 296 98 298 99

C301 102 301 104 297 107

C293 111 293 114 297 121

C299 125 300 128 300 134

C300 140 300 141 298 145

C294 152 286 164 280 172

C270 184 271 182 272 209

C273 226 273 233 272 235

C271 236 271 239 271 242

C271 248 269 250 257 256

C246 262 245 262 241 260

Z

M153 82

C149 78 152 70 158 70

C163 70 166 74 166 78

C165 80 164 82 164 83

C162 85 155 84 153 82

Z

"/>

<path fill="#ffffff" stroke="none" d="
"/>

</svg>

