<?xml version="1.0" standalone="no"?>

<!DOCTYPE svg PUBLIC "-//W3C//DTD SVG 20010904//EN"

 "http://www.w3.org/TR/2001/REC-SVG-20010904/DTD/svg10.dtd">

<svg version="1.0" xmlns="http://www.w3.org/2000/svg"

 width="300.000000pt" height="181.000000pt" viewBox="0 0 300.000000 181.000000"

 preserveAspectRatio="xMidYMid meet">

<path fill="#000000" stroke="none" d="
M71 179

C69 179 66 176 64 175

C62 173 56 167 49 162

C43 157 35 151 32 147

C28 142 26 140 19 137

C7 131 7 132 7 119

C7 105 8 102 12 101

L16 100

L16 96

C16 92 15 89 13 82

C9 73 8 66 6 54

C6 48 5 43 3 39

C0 32 -1 29 1 26

C2 23 4 22 8 22

C12 23 14 24 14 28

C16 33 23 47 25 47

C27 47 28 43 28 36

C28 27 29 23 33 22

C36 21 38 22 41 26

C43 29 43 31 43 37

C43 44 46 62 47 65

C48 66 50 66 53 66

C58 66 59 66 63 70

C68 74 68 76 66 86

C65 90 65 93 66 100

C67 107 67 108 74 114

C77 117 81 121 82 123

C84 127 90 128 93 126

C93 125 94 120 95 114

C96 98 101 88 108 84

C111 82 135 52 139 44

C141 40 142 38 142 28

C142 22 143 16 143 15

C145 11 149 12 152 15

C153 16 154 17 154 17

L155 17

L155 13

C155 5 158 0 163 2

C164 2 165 2 167 1

C169 0 169 0 171 1

C174 3 174 3 177 16

C178 22 180 27 182 30

C184 32 189 41 194 48

C200 59 202 63 206 66

C211 69 215 76 215 81

C215 83 215 85 216 86

L217 87

L221 83

L226 80

L225 79

C225 78 223 77 220 77

L216 76

L216 75

C216 74 222 72 228 71

C235 69 241 67 243 67

C244 66 247 63 249 60

C253 56 255 54 261 51

C270 47 274 46 286 47

C300 49 300 51 300 78

C299 90 299 105 298 112

C298 125 297 125 295 128

C293 129 291 130 290 130

C289 130 285 132 280 134

C273 137 270 138 268 138

C264 137 262 138 259 143

C257 146 252 151 247 155

C240 161 240 161 235 160

C232 160 224 160 217 160

C205 160 204 159 199 157

C192 153 188 148 187 141

C187 139 186 130 185 122

C183 101 182 92 176 83

C173 77 170 70 169 65

L168 63

L167 62

L165 62

L159 71

C156 75 151 83 149 87

C146 91 142 97 139 99

C136 103 135 105 133 113

C132 118 130 131 128 141

C127 152 125 162 124 163

C122 168 116 172 108 174

C104 176 98 177 95 177

C92 177 88 178 86 179

C81 181 76 182 71 179

Z

"/>

<path fill="#ffffff" stroke="none" d="
"/>

</svg>

