<?xml version="1.0" standalone="no"?>

<!DOCTYPE svg PUBLIC "-//W3C//DTD SVG 20010904//EN"

 "http://www.w3.org/TR/2001/REC-SVG-20010904/DTD/svg10.dtd">

<svg version="1.0" xmlns="http://www.w3.org/2000/svg"

 width="127.000000pt" height="300.000000pt" viewBox="0 0 127.000000 300.000000"

 preserveAspectRatio="xMidYMid meet">

<path fill="#000000" stroke="none" d="
M56 297

C51 293 47 287 46 282

C46 281 45 278 45 276

C44 275 42 269 41 264

C40 259 37 250 35 244

C32 235 31 232 27 227

C18 216 12 209 11 206

C10 201 11 176 13 161

C14 154 15 144 16 139

L16 130

L13 130

C9 129 6 126 5 123

L4 121

L2 122

L1 123

L1 122

C1 122 2 121 2 120

L3 119

L2 115

C0 111 0 111 5 103

C7 99 9 98 13 96

C16 95 18 94 19 94

C21 94 30 99 31 101

C31 101 33 103 34 104

C36 104 38 107 39 109

C41 113 41 114 40 117

C39 119 39 120 40 122

C42 123 53 127 58 127

L61 127

L61 126

C61 125 62 121 63 117

C65 113 66 106 67 101

C68 97 69 91 69 88

C70 84 72 76 73 69

L75 57

L74 56

C73 55 72 55 71 55

C70 55 68 54 67 52

C66 50 66 50 67 47

C68 46 69 44 70 44

C71 43 72 42 72 41

L72 39

L71 39

L69 38

L69 36

C69 32 72 30 80 30

C88 29 96 26 96 23

C96 22 96 20 96 18

C96 16 97 14 103 9

C113 -1 118 -2 123 3

C126 6 126 7 126 12

C126 14 125 19 124 22

C123 25 122 29 122 30

C121 32 120 33 118 34

L115 35

L115 38

C115 40 112 48 109 55

C103 70 103 70 103 88

C104 107 104 107 99 117

C92 130 91 134 96 139

C99 144 99 148 93 151

C89 153 88 153 85 164

C83 170 81 177 80 180

C80 185 80 185 72 189

C68 192 63 194 61 194

L57 195

L56 197

C56 198 57 202 58 206

C63 219 64 227 64 251

C65 264 65 274 66 276

C67 277 70 281 74 285

C81 293 82 295 75 297

C73 297 71 298 69 299

C66 301 61 300 56 297

Z

M60 186

C63 183 66 179 67 177

C69 172 73 156 72 155

L71 155

L68 162

C65 167 64 170 64 173

C64 177 63 178 61 180

C58 183 53 190 54 191

L54 192

L55 192

C55 192 58 189 60 186

Z

M57 147

L57 144

L56 144

L54 144

L54 146

C54 147 54 149 55 150

L55 152

L56 151

C57 150 57 148 57 147

Z

"/>

<path fill="#ffffff" stroke="none" d="
"/>

</svg>

