<?xml version="1.0" standalone="no"?>

<!DOCTYPE svg PUBLIC "-//W3C//DTD SVG 20010904//EN"

 "http://www.w3.org/TR/2001/REC-SVG-20010904/DTD/svg10.dtd">

<svg version="1.0" xmlns="http://www.w3.org/2000/svg"

 width="220.000000pt" height="300.000000pt" viewBox="0 0 220.000000 300.000000"

 preserveAspectRatio="xMidYMid meet">

<path fill="#000000" stroke="none" d="
M122 298

C120 298 115 296 112 296

C100 292 92 283 91 270

C90 261 92 242 95 231

C97 225 98 220 98 219

L97 218

L93 218

C90 219 77 219 62 220

C27 220 29 222 34 199

C35 192 36 185 36 184

L36 180

L34 180

C34 179 31 179 30 179

C25 179 19 176 16 172

C14 170 12 166 10 163

C9 159 6 153 4 150

C0 143 0 143 0 130

C0 117 1 114 5 110

C8 108 11 99 14 89

C15 86 18 82 23 75

C30 68 32 64 33 61

C35 52 37 48 40 46

C43 43 44 43 50 43

L57 43

L57 38

C56 33 57 28 60 26

C61 26 63 22 65 18

C69 9 72 7 82 7

C95 7 103 11 108 21

C110 26 110 27 110 33

C109 39 109 42 106 46

C104 49 103 51 103 52

C103 52 102 54 100 56

C98 58 97 60 97 61

C97 62 103 69 104 69

C104 69 106 67 108 64

C110 59 112 58 115 57

L119 55

L117 51

C114 42 114 35 118 22

C122 7 123 5 132 4

C136 4 140 3 141 2

L144 0

L150 6

C154 9 157 12 158 13

C159 14 159 18 159 22

C159 30 159 30 163 32

C165 33 169 34 172 35

C183 39 185 42 186 60

C187 74 188 77 193 81

C203 89 204 92 205 107

C205 117 205 120 206 123

C208 125 208 127 208 132

C207 140 207 142 208 151

C209 155 211 162 212 166

C214 170 217 177 218 181

C220 188 220 188 218 194

C217 198 215 203 213 205

C211 208 209 211 209 211

C209 214 211 216 215 217

C219 219 220 220 220 224

C220 227 219 229 217 233

C215 239 213 241 203 248

C199 251 193 257 189 262

C186 266 183 270 182 270

C182 270 179 273 175 276

C171 279 165 283 161 286

C157 288 150 291 145 294

C136 300 130 301 122 298

Z

M73 192

C80 191 89 190 93 189

C96 188 103 187 107 186

C117 183 122 183 126 186

C128 187 130 188 130 188

C131 188 138 173 142 165

C146 154 146 154 139 146

C135 143 130 136 127 132

C124 128 119 122 116 119

C113 116 109 112 107 110

C105 106 104 106 101 106

L98 107

L97 110

C97 117 93 127 88 133

C86 137 82 143 80 148

C74 160 68 167 61 170

C55 173 54 174 55 183

C56 190 58 194 60 194

C61 194 67 193 73 192

Z

M173 160

C176 158 181 155 184 153

C186 151 189 149 189 148

L189 147

L187 146

C186 146 183 148 180 150

C178 152 174 155 172 157

C169 158 167 160 166 161

L164 162

L165 163

L165 164

L167 164

C167 164 170 162 173 160

Z

"/>

<path fill="#ffffff" stroke="none" d="
"/>

</svg>

