<?xml version="1.0" standalone="no"?>

<!DOCTYPE svg PUBLIC "-//W3C//DTD SVG 20010904//EN"

 "http://www.w3.org/TR/2001/REC-SVG-20010904/DTD/svg10.dtd">

<svg version="1.0" xmlns="http://www.w3.org/2000/svg"

 width="140.000000pt" height="300.000000pt" viewBox="0 0 140.000000 300.000000"

 preserveAspectRatio="xMidYMid meet">

<path fill="#000000" stroke="none" d="
M63 298

C60 295 60 292 64 284

C68 275 68 272 63 260

C57 245 55 239 53 222

C51 208 46 188 42 181

C41 178 38 176 33 175

C30 174 25 168 24 162

L24 159

L20 159

C18 159 15 159 14 158

C12 157 9 150 8 142

C7 137 7 134 4 131

C0 126 0 126 0 113

C0 103 0 99 2 92

C4 87 5 81 6 78

C7 75 9 72 13 67

C17 63 22 58 24 54

C27 50 31 46 33 44

C36 41 37 39 35 36

L34 34

L36 33

C36 32 38 32 40 32

C42 32 43 31 44 30

L45 29

L44 28

C43 27 41 26 39 25

C33 24 34 19 41 20

C46 20 46 20 49 15

C51 12 54 8 57 6

C60 4 62 2 62 2

L62 1

L63 1

C64 1 66 2 68 3

C70 4 74 5 76 6

C82 6 89 10 92 14

C94 16 94 17 94 23

C93 27 92 32 91 35

C89 40 89 40 91 43

C93 44 94 48 95 50

C96 56 99 60 104 62

C107 63 108 63 112 62

C115 61 118 60 119 60

C121 59 121 52 119 43

C117 38 116 33 116 32

L117 31

L118 31

L120 31

L121 34

L122 37

L125 37

C130 37 133 40 135 50

C136 55 138 60 138 62

C140 65 141 76 139 81

C138 86 128 96 123 99

C114 102 104 99 99 92

C97 90 95 88 95 88

L94 88

L94 94

C95 97 98 108 101 119

C105 134 106 139 107 148

C107 162 107 164 100 166

C99 167 97 169 96 170

C96 171 94 178 94 186

C92 198 92 199 94 208

C95 217 96 247 95 266

C94 273 95 273 100 280

C102 282 102 284 101 286

C100 291 89 294 84 291

L82 290

L80 294

C78 299 75 300 70 300

C66 300 64 299 63 298

Z

M26 143

L26 142

L25 142

L24 142

L24 143

L24 144

L25 144

L26 144

L26 143

Z

"/>

<path fill="#ffffff" stroke="none" d="
"/>

</svg>

