<?xml version="1.0" standalone="no"?>

<!DOCTYPE svg PUBLIC "-//W3C//DTD SVG 20010904//EN"

 "http://www.w3.org/TR/2001/REC-SVG-20010904/DTD/svg10.dtd">

<svg version="1.0" xmlns="http://www.w3.org/2000/svg"

 width="300.000000pt" height="243.000000pt" viewBox="0 0 300.000000 243.000000"

 preserveAspectRatio="xMidYMid meet">

<path fill="#000000" stroke="none" d="
M126 241

C121 240 118 237 118 233

C118 232 119 228 120 224

C121 220 121 218 120 217

C119 215 82 216 68 218

C61 218 52 220 47 221

C40 223 37 223 29 222

C18 222 18 221 13 209

C11 204 8 197 6 192

C1 182 0 171 1 157

C3 142 7 132 12 129

C15 127 15 127 15 120

C15 115 15 112 16 110

C17 108 18 105 18 100

C18 93 18 91 22 85

C23 81 25 78 25 77

C25 77 26 75 27 74

C29 71 30 71 33 71

C38 72 49 69 62 62

C67 59 74 57 76 56

C83 54 87 52 98 42

C109 33 114 26 116 17

C117 12 118 9 122 5

C126 1 129 0 132 1

C135 2 137 8 137 12

C137 17 138 17 145 21

C154 25 163 28 171 28

C176 29 180 29 183 31

C188 34 202 36 211 35

C218 35 218 35 223 40

C226 43 232 49 237 53

C242 58 246 62 247 65

C250 70 253 73 260 77

C262 79 264 81 265 82

C267 83 269 84 271 84

C272 84 275 85 278 87

C283 91 283 94 278 97

C276 99 274 100 274 101

L273 102

L275 103

C276 104 279 106 281 108

C285 111 285 111 288 110

C293 108 295 109 296 114

C296 116 297 118 298 118

C301 123 299 133 293 141

C291 143 288 147 288 149

L286 152

L288 154

C290 156 291 158 291 159

C291 160 289 164 286 168

C283 173 279 180 278 185

C276 191 272 197 271 200

C269 204 267 209 266 212

C264 221 264 221 259 226

C250 233 239 239 231 240

C224 241 223 240 215 238

C192 230 180 230 154 239

C141 243 134 244 126 241

Z

M182 193

C186 193 192 194 197 195

C201 196 205 197 206 197

C207 197 210 195 212 193

C215 190 216 188 217 182

C220 172 220 171 228 162

C236 154 236 154 235 146

C235 137 235 136 241 127

C244 123 244 122 244 115

C244 108 244 108 247 106

C250 103 252 98 252 92

L252 89

L250 89

C249 89 247 91 246 92

C243 96 233 100 229 100

C224 100 217 97 210 91

C198 83 199 83 183 83

C174 84 168 84 164 83

C158 82 157 81 154 77

C153 74 151 71 150 71

C147 69 144 70 142 73

C137 80 124 83 116 80

C112 79 110 79 100 81

C97 82 89 82 83 82

C64 82 64 82 58 85

C56 87 50 91 47 93

C43 95 40 97 40 98

L40 99

L42 99

C43 100 46 100 47 100

C54 100 62 107 66 115

C68 121 67 122 63 128

C61 130 59 133 59 134

C59 134 57 137 56 139

C54 141 52 143 52 143

C52 145 70 161 76 165

C87 173 89 174 91 177

C92 179 93 180 95 180

C99 180 104 182 108 186

C112 190 112 190 125 189

C141 189 142 188 149 180

C152 175 156 173 158 174

C159 175 165 186 165 187

C165 188 164 191 163 193

C162 195 161 197 161 198

L161 199

L168 196

C173 194 176 193 182 193

Z

M267 103

L267 102

L266 101

C265 101 264 100 263 101

L262 101

L262 103

L262 105

L264 105

L266 105

L267 103

Z

"/>

<path fill="#ffffff" stroke="none" d="
"/>

</svg>

