<?xml version="1.0" standalone="no"?>

<!DOCTYPE svg PUBLIC "-//W3C//DTD SVG 20010904//EN"

 "http://www.w3.org/TR/2001/REC-SVG-20010904/DTD/svg10.dtd">

<svg version="1.0" xmlns="http://www.w3.org/2000/svg"

 width="320.000000pt" height="300.000000pt" viewBox="0 0 320.000000 300.000000"

 preserveAspectRatio="xMidYMid meet">

<path fill="#000000" stroke="none" d="
M147 297

C144 294 143 292 142 288

C141 285 140 280 139 277

C136 271 131 235 133 228

C133 225 133 222 132 219

C131 216 130 209 129 203

C128 197 128 187 127 181

C126 174 126 169 127 165

C128 160 128 159 126 158

C123 155 115 156 110 159

C103 163 98 164 93 161

C89 159 86 159 69 159

C54 160 50 160 47 162

C43 163 42 163 38 162

C35 161 33 161 32 162

C31 163 29 163 29 163

C26 163 23 159 23 157

C23 156 21 153 18 150

C6 138 0 128 0 120

C0 110 2 104 10 95

C14 91 17 86 18 84

C18 80 22 79 32 77

C39 76 40 75 44 71

C49 67 59 62 64 60

C72 59 78 63 80 71

C81 73 81 75 82 75

C83 76 89 77 96 78

C105 79 111 80 113 81

C115 82 117 83 117 83

L118 83

L118 81

C118 80 119 75 120 71

C122 66 123 59 124 54

C125 48 127 42 131 35

C134 30 136 23 137 21

C139 11 141 5 144 2

L146 0

L147 1

C149 2 156 14 158 19

C159 22 163 30 166 36

C178 57 179 63 179 89

L180 109

L181 110

C184 110 188 109 191 106

C196 102 201 100 213 97

C218 95 224 94 225 93

L228 92

L227 88

C227 80 232 73 239 73

C242 73 250 75 255 77

C259 79 262 79 274 74

C280 72 282 72 284 74

C286 76 286 77 285 82

C285 89 285 89 293 93

C323 110 327 117 310 126

C305 129 302 132 297 139

L294 144

L296 146

C296 148 297 150 297 151

C295 155 291 155 272 156

C261 156 249 157 246 158

C239 159 239 159 235 157

C233 156 231 154 230 153

C228 149 227 148 223 149

C221 149 214 149 208 148

C197 147 197 147 189 151

C184 153 180 155 180 156

L180 156

L181 160

C183 164 187 180 187 182

C187 185 190 186 199 186

L208 187

L208 186

C208 182 206 178 201 174

C197 171 197 170 197 168

C198 165 203 163 208 163

C212 164 229 171 232 173

C234 174 236 177 236 179

C238 182 239 182 245 184

C249 185 255 187 259 188

C264 190 265 190 274 189

C285 188 286 188 290 195

C291 198 294 202 296 204

C301 211 302 214 300 224

C297 235 295 239 288 246

C280 254 273 256 262 253

C257 251 254 251 251 255

C248 258 247 258 199 254

C193 254 190 254 189 254

C189 255 188 259 187 263

C187 266 186 271 185 274

C185 276 184 279 184 281

C184 285 181 293 179 295

C176 297 171 298 168 296

L165 295

L165 292

C165 290 166 287 168 284

C171 279 171 277 169 258

C168 251 167 249 165 246

C164 245 162 244 161 244

L159 245

L158 250

C156 267 155 278 156 281

C157 282 158 285 160 287

C163 290 163 291 162 296

L161 300

L155 300

C151 300 150 300 147 297

Z

M123 134

C124 130 124 128 123 121

C122 116 121 111 121 109

L120 105

L103 105

C88 106 78 107 75 109

L74 110

L74 112

C75 113 77 115 78 116

C81 117 82 119 83 122

C84 126 86 127 92 131

C100 136 101 136 111 140

C117 143 118 143 119 141

C120 140 122 137 123 134

Z

M155 37

C155 37 154 34 152 30

L149 24

L148 24

C148 25 147 27 146 29

L144 34

L145 35

C147 36 152 38 154 38

L155 38

L155 37

Z

"/>

<path fill="#ffffff" stroke="none" d="
"/>

</svg>

