<?xml version="1.0" standalone="no"?>

<!DOCTYPE svg PUBLIC "-//W3C//DTD SVG 20010904//EN"

 "http://www.w3.org/TR/2001/REC-SVG-20010904/DTD/svg10.dtd">

<svg version="1.0" xmlns="http://www.w3.org/2000/svg"

 width="115.000000pt" height="300.000000pt" viewBox="0 0 115.000000 300.000000"

 preserveAspectRatio="xMidYMid meet">

<path fill="#000000" stroke="none" d="
M11 298

C9 298 7 297 5 297

L2 297

L1 295

C1 294 1 290 1 286

C2 282 2 278 1 275

C0 270 1 267 5 261

C7 260 11 252 15 244

C19 237 25 227 28 223

C34 216 34 216 33 208

C33 198 30 184 27 177

C26 173 25 168 24 164

C24 158 24 157 27 152

C29 148 30 145 29 144

C29 142 30 141 31 139

C33 137 34 135 34 126

C35 119 34 114 34 111

C33 107 33 104 34 97

C35 88 35 85 32 79

C28 73 29 72 41 61

C45 57 45 57 44 52

C42 42 45 31 52 28

L56 27

L56 24

L55 21

L56 20

C57 20 59 21 61 22

C67 24 68 23 82 10

C92 1 94 0 96 0

C98 0 100 2 102 4

L105 8

L104 10

C104 11 101 12 98 13

C91 16 89 19 88 26

C88 31 88 33 90 36

C92 41 92 41 90 46

C88 50 88 53 88 57

C88 62 88 64 85 68

C83 71 81 74 80 75

L78 76

L81 81

C82 83 83 87 83 88

C83 91 86 96 94 109

C101 118 106 127 106 128

C106 129 107 131 108 134

C110 137 111 139 111 144

C111 149 112 152 113 155

C114 157 115 159 115 161

L115 163

L113 163

C109 165 101 158 101 153

C101 150 99 146 95 141

C93 139 90 135 89 132

L87 128

L85 129

C85 130 83 133 82 136

C81 140 78 143 77 144

C76 145 74 146 73 147

L71 149

L72 154

C74 158 74 160 73 167

C73 172 71 179 69 182

C68 186 66 193 65 202

C62 224 61 225 51 236

C39 247 19 271 18 275

C17 277 17 282 17 287

C17 299 15 302 11 298

Z

"/>

<path fill="#ffffff" stroke="none" d="
"/>

</svg>

