<?xml version="1.0" standalone="no"?>

<!DOCTYPE svg PUBLIC "-//W3C//DTD SVG 20010904//EN"

 "http://www.w3.org/TR/2001/REC-SVG-20010904/DTD/svg10.dtd">

<svg version="1.0" xmlns="http://www.w3.org/2000/svg"

 width="169.000000pt" height="300.000000pt" viewBox="0 0 169.000000 300.000000"

 preserveAspectRatio="xMidYMid meet">

<path fill="#000000" stroke="none" d="
M57 298

C55 296 55 296 56 287

C57 282 59 273 59 267

C60 261 60 255 61 253

C61 250 60 245 60 241

C58 230 58 224 60 220

C61 217 61 216 59 213

C58 209 58 208 59 205

C60 202 60 199 59 185

C56 164 54 154 52 148

C49 141 43 121 41 110

C41 105 39 100 38 99

C38 98 34 97 30 97

C21 96 15 92 12 85

C8 78 7 70 9 63

C9 60 10 57 9 57

L9 57

L7 59

C5 60 3 61 3 61

L1 60

L1 58

C1 57 2 55 4 53

C6 51 6 50 5 48

C2 43 5 35 11 32

C14 31 16 28 15 24

C15 21 16 17 21 13

C25 8 31 9 31 14

C31 17 26 25 23 26

C21 27 20 31 20 36

C20 41 28 66 30 68

L31 69

L36 67

C39 66 44 63 47 62

C50 60 54 58 56 57

C58 56 61 55 62 53

C63 51 62 48 57 43

C54 40 54 39 55 27

C57 14 59 9 68 4

C76 -1 82 0 88 7

C92 11 92 11 93 20

C93 27 94 29 96 31

C99 36 99 39 94 45

C91 47 89 50 89 50

L89 52

L90 52

C91 53 95 53 99 54

C103 54 109 55 112 55

C115 56 120 57 124 58

C132 59 131 60 136 47

C139 40 140 37 143 34

C146 32 148 28 149 25

C150 22 152 18 153 16

L154 12

L156 12

L158 12

L158 12

C158 13 157 14 156 16

L155 20

L156 20

C156 20 157 18 158 17

L160 13

L161 14

C162 14 162 15 162 17

L162 20

L165 19

C166 18 167 18 168 18

L168 18

L168 20

C168 22 167 24 166 25

C162 28 157 40 156 50

C155 62 150 73 145 77

C143 78 139 80 134 82

C129 83 124 85 124 86

C123 87 123 92 123 101

C123 114 123 116 126 125

C130 137 130 139 124 141

L119 143

L119 145

C119 146 122 153 125 161

C133 177 135 181 133 189

C132 195 132 196 134 199

C136 202 137 206 137 208

C138 211 139 215 140 216

C142 220 147 237 148 243

C149 252 153 260 159 269

C166 279 166 281 160 282

C157 282 156 281 151 277

C149 274 144 271 141 269

C137 267 134 265 132 262

C128 255 123 244 119 231

C117 224 114 216 112 213

C109 207 97 188 94 183

L92 181

L91 182

C90 182 89 188 89 194

C89 200 88 207 87 210

C86 212 85 221 85 236

C84 260 83 264 80 268

C79 270 78 272 78 273

C78 275 77 277 76 278

C75 280 73 284 71 288

C67 296 66 297 62 299

C60 300 59 300 57 298

Z

"/>

<path fill="#ffffff" stroke="none" d="
"/>

</svg>

