<?xml version="1.0" standalone="no"?>

<!DOCTYPE svg PUBLIC "-//W3C//DTD SVG 20010904//EN"

 "http://www.w3.org/TR/2001/REC-SVG-20010904/DTD/svg10.dtd">

<svg version="1.0" xmlns="http://www.w3.org/2000/svg"

 width="138.000000pt" height="300.000000pt" viewBox="0 0 138.000000 300.000000"

 preserveAspectRatio="xMidYMid meet">

<path fill="#010101" stroke="none" d="
M36 297

C33 295 34 293 37 287

C40 281 41 277 39 271

C38 265 37 221 39 216

C40 214 40 211 38 205

C33 182 32 159 36 150

C37 146 37 145 36 130

C36 122 36 117 37 114

C38 109 39 102 38 101

L37 101

L31 104

C23 109 20 110 17 107

C15 104 11 91 10 78

C9 69 8 67 4 60

C-1 50 -1 47 3 44

C4 43 6 42 6 42

C6 42 9 45 12 49

C17 57 18 59 22 78

C22 80 23 83 24 83

L25 84

L27 82

C28 81 30 77 32 74

C34 71 36 67 38 66

C40 64 46 62 51 61

L54 60

L54 56

C54 53 53 51 51 48

C49 46 47 43 46 42

C44 37 45 15 49 10

C50 7 58 3 64 1

C68 0 69 0 75 2

C87 7 90 12 90 26

C90 32 90 35 88 37

C87 39 86 42 86 44

C86 46 85 48 85 49

C83 50 83 53 84 56

C84 57 85 60 85 61

C86 64 87 64 92 66

C98 67 98 68 102 73

C104 76 107 80 108 83

L110 87

L112 87

C114 86 114 84 117 71

C120 57 121 54 125 54

C126 54 128 53 130 51

C131 49 133 48 134 48

L137 49

L137 53

C137 57 137 59 133 64

C130 69 129 72 127 82

C124 96 122 104 118 109

C116 113 116 113 112 113

C109 112 106 111 103 108

L99 104

L99 105

C98 105 99 109 99 113

C100 121 99 132 96 142

C95 146 94 150 94 157

C94 171 92 183 87 194

C85 199 83 206 82 209

C82 212 81 215 80 216

C80 217 79 222 78 227

C78 233 77 240 75 246

C73 250 71 259 71 265

C70 270 68 275 68 275

C65 276 63 279 63 283

C63 289 61 295 59 296

C57 297 52 298 47 298

C38 299 37 299 36 297

Z

"/>

<path fill="#fffffe" stroke="none" d="
"/>

</svg>

