<?xml version="1.0" standalone="no"?>

<!DOCTYPE svg PUBLIC "-//W3C//DTD SVG 20010904//EN"

 "http://www.w3.org/TR/2001/REC-SVG-20010904/DTD/svg10.dtd">

<svg version="1.0" xmlns="http://www.w3.org/2000/svg"

 width="228.000000pt" height="300.000000pt" viewBox="0 0 228.000000 300.000000"

 preserveAspectRatio="xMidYMid meet">

<path fill="#000000" stroke="none" d="
M130 298

C129 297 127 293 126 289

C125 285 123 279 122 277

C119 273 119 272 119 258

C119 248 118 241 116 229

C115 221 114 209 113 202

C113 185 113 185 109 183

L107 182

L107 178

C110 166 109 145 106 142

C105 141 103 141 96 142

C88 142 88 142 78 136

C69 130 66 127 65 121

C65 119 64 118 64 118

C56 115 50 112 50 110

L50 109

L54 109

C56 109 58 109 59 108

C63 106 67 109 75 116

C88 129 93 130 106 121

C117 114 119 113 123 114

C124 115 126 115 126 115

L127 115

L127 113

C127 112 126 109 125 107

C123 104 123 103 124 95

C125 84 126 83 129 82

C136 78 145 79 150 84

C154 87 154 93 151 101

C150 104 149 108 149 110

C148 114 148 114 156 119

C160 122 165 126 167 128

L171 131

L173 130

C174 130 177 126 180 121

C186 112 189 111 198 111

L203 112

L204 113

L204 115

L198 118

C191 121 189 124 189 129

C188 132 180 146 177 148

C176 150 169 148 164 144

C162 143 160 142 159 142

L157 142

L157 144

C156 148 156 154 158 164

C161 175 161 178 158 179

L156 180

L156 181

C157 183 155 210 154 217

C152 227 150 253 150 263

C150 272 150 273 147 275

C145 277 145 278 146 282

C146 284 147 288 147 289

C148 290 148 293 148 294

L148 298

L146 298

C145 299 142 299 138 299

C132 300 131 300 130 298

Z

M61 101

C54 98 38 93 26 89

C2 80 0 80 0 78

C0 77 2 71 5 63

C8 56 14 39 18 27

C23 14 27 3 28 2

C29 0 32 1 66 13

C86 20 103 26 103 27

C104 28 101 38 93 62

C87 80 81 98 80 101

L78 106

L76 106

C75 106 68 104 61 101

Z

M207 105

C207 104 202 104 197 103

C192 102 187 102 186 101

L184 101

L184 91

C186 72 187 65 189 59

C190 55 192 51 192 50

C193 49 197 49 208 50

C217 50 225 50 226 51

L228 51

L228 59

C227 71 223 94 222 96

C221 98 220 100 218 102

C216 105 215 105 212 105

C209 105 207 105 207 105

Z

"/>

<path fill="#ffffff" stroke="none" d="
"/>

</svg>

