<?xml version="1.0" standalone="no"?>

<!DOCTYPE svg PUBLIC "-//W3C//DTD SVG 20010904//EN"

 "http://www.w3.org/TR/2001/REC-SVG-20010904/DTD/svg10.dtd">

<svg version="1.0" xmlns="http://www.w3.org/2000/svg"

 width="290.000000pt" height="300.000000pt" viewBox="0 0 290.000000 300.000000"

 preserveAspectRatio="xMidYMid meet">

<path fill="#000000" stroke="none" d="
M106 299

C103 295 101 289 102 286

C103 285 103 283 102 283

C101 281 95 279 84 277

C72 276 72 276 68 279

C65 281 62 283 62 283

C59 283 55 277 55 273

L55 270

L52 271

C50 271 47 271 45 271

C43 272 39 271 36 271

C31 270 29 269 28 267

C28 266 27 264 26 264

C24 262 25 260 27 258

L29 257

L24 252

C16 244 15 242 15 236

C15 233 16 228 17 224

C19 218 19 218 17 215

C15 212 11 205 9 199

C8 197 6 194 5 192

C3 189 3 187 2 180

C2 175 2 169 1 168

C-1 162 5 160 10 165

C17 171 28 177 31 177

C33 177 34 178 37 183

C41 189 45 193 48 192

L49 191

L49 188

C49 184 53 177 58 174

C59 173 63 171 66 169

C70 165 72 165 76 165

C80 165 83 165 85 166

C87 168 88 168 94 167

C98 166 106 164 111 163

C119 162 120 162 124 164

C128 166 132 170 132 174

C133 176 144 180 153 180

L159 181

L162 171

C164 161 164 161 163 157

C162 155 161 150 161 143

C161 137 160 129 160 124

C157 111 154 75 154 62

C154 51 154 51 157 48

C159 45 160 43 160 40

C160 35 163 28 167 25

C168 24 170 24 172 24

L175 25

L175 24

C175 23 171 15 170 13

C167 9 167 5 170 2

C175 -2 180 0 183 8

C184 10 185 14 187 18

C190 24 190 24 188 30

C187 37 187 38 188 42

C189 45 190 50 190 54

L190 60

L191 60

C194 60 196 56 196 49

C196 44 196 42 198 41

C199 40 199 38 198 32

C196 10 200 -3 207 2

C209 3 211 5 212 6

C213 9 213 9 211 15

C209 24 211 31 216 36

C221 41 222 43 223 50

C223 54 224 56 226 57

C229 58 231 61 231 65

C231 67 233 71 235 76

C238 82 238 84 238 88

C238 91 236 97 234 101

C232 105 231 110 231 115

C229 128 229 129 225 134

C222 136 219 140 218 143

C217 145 215 147 214 148

C210 152 210 153 213 160

C215 164 216 167 216 168

C216 170 213 175 210 177

L207 179

L208 181

L210 183

L208 185

C206 187 200 188 196 188

C193 187 192 188 189 190

C186 193 186 193 187 199

C189 205 189 208 186 212

C185 213 184 215 184 216

L184 219

L185 220

C186 220 189 218 192 217

C196 213 208 207 210 207

C211 207 246 190 257 184

C261 182 265 179 265 179

C266 178 266 172 264 160

C263 152 267 149 274 152

C277 154 282 164 287 176

C291 188 291 189 286 193

C283 194 274 203 266 212

C252 225 248 229 241 232

C226 241 214 251 198 268

C183 283 178 288 170 289

C169 290 162 289 153 288

C146 286 137 285 134 285

C128 285 128 285 123 291

C115 299 109 302 106 299

Z

"/>

<path fill="#ffffff" stroke="none" d="
"/>

</svg>

