<?xml version="1.0" standalone="no"?>

<!DOCTYPE svg PUBLIC "-//W3C//DTD SVG 20010904//EN"

 "http://www.w3.org/TR/2001/REC-SVG-20010904/DTD/svg10.dtd">

<svg version="1.0" xmlns="http://www.w3.org/2000/svg"

 width="292.000000pt" height="300.000000pt" viewBox="0 0 292.000000 300.000000"

 preserveAspectRatio="xMidYMid meet">

<path fill="#000000" stroke="none" d="
M196 298

C195 296 196 292 200 284

C205 274 209 261 210 249

C211 243 212 234 213 230

C213 225 214 216 215 209

C216 198 216 196 219 189

C223 181 223 180 223 172

C223 167 224 160 225 156

C226 149 226 149 223 145

C220 141 215 127 214 119

C213 115 212 115 207 117

C201 121 189 126 179 128

C174 128 170 129 170 130

L169 131

L172 133

C177 136 178 138 175 142

C172 148 161 161 158 163

C154 167 151 167 143 163

C139 161 132 158 126 157

C119 154 115 152 113 150

C110 147 110 147 109 132

C109 117 109 116 111 114

C114 111 119 111 125 114

L130 117

L132 114

C136 110 135 109 124 107

C119 106 107 102 96 98

C85 94 76 91 75 91

L74 92

L72 99

C72 102 71 113 70 122

C69 138 69 140 65 150

C63 157 60 163 59 164

C56 168 56 171 62 184

C69 201 72 210 75 233

C77 250 78 253 81 259

C84 264 84 266 84 269

C83 273 83 273 90 278

C96 282 98 283 98 286

C98 288 97 289 95 290

C92 291 81 291 74 290

C72 289 68 288 66 288

C63 287 61 286 59 282

C57 279 55 276 55 274

C55 273 54 271 53 270

C50 266 49 261 48 244

C46 221 44 213 36 197

C33 191 19 175 11 168

C8 166 5 162 3 159

C-1 153 -1 145 3 130

C5 124 7 113 8 106

C15 72 17 67 28 55

C35 48 35 48 35 42

C32 20 32 19 42 11

C54 0 58 -1 68 3

C83 8 89 14 90 24

C90 29 90 31 87 37

C81 49 77 58 77 60

C77 62 79 64 92 71

C99 75 107 79 112 80

C121 83 124 84 132 90

C136 93 141 96 144 97

C147 98 150 99 153 103

C160 110 163 110 177 102

C190 94 194 91 197 86

C199 81 205 64 205 61

C205 60 204 56 203 51

C199 40 199 39 200 32

C201 24 203 21 206 18

C208 18 211 14 213 11

C219 3 224 0 233 0

C244 0 250 3 256 12

C258 14 263 20 267 25

C277 36 281 43 284 50

C287 58 287 64 284 69

C282 73 282 76 281 85

C281 98 281 102 287 114

C290 123 291 131 289 135

C288 138 288 139 290 142

C293 147 293 157 290 163

C289 165 288 167 287 168

C284 170 270 189 267 195

C264 203 256 221 251 233

C245 247 234 273 232 279

C229 286 228 288 223 288

C218 288 214 290 211 294

C207 300 198 302 196 298

Z

M148 126

C149 124 148 118 147 117

C146 117 144 117 142 117

L138 118

L138 121

C138 124 142 128 145 128

C146 128 147 127 148 126

Z

"/>

<path fill="#ffffff" stroke="none" d="
"/>

</svg>

