<?xml version="1.0" standalone="no"?>

<!DOCTYPE svg PUBLIC "-//W3C//DTD SVG 20010904//EN"

 "http://www.w3.org/TR/2001/REC-SVG-20010904/DTD/svg10.dtd">

<svg version="1.0" xmlns="http://www.w3.org/2000/svg"

 width="460.000000pt" height="300.000000pt" viewBox="0 0 460.000000 300.000000"

 preserveAspectRatio="xMidYMid meet">

<path fill="#000000" stroke="none" d="
M258 299

C242 298 239 297 232 290

C231 289 230 286 230 284

C229 282 229 281 232 278

C233 276 235 275 236 275

C238 275 250 271 252 269

C253 268 262 259 272 250

C288 235 295 226 300 217

C304 210 308 206 313 203

C317 201 320 197 321 192

C322 185 328 175 332 172

C334 170 337 167 337 166

C338 164 340 162 341 161

C342 161 346 158 351 155

C359 150 365 145 368 140

C370 137 367 132 361 128

C358 126 356 124 356 124

C356 123 346 114 342 111

C335 107 328 100 327 96

C326 91 323 85 321 84

C320 84 318 85 305 90

C302 92 298 93 297 93

C296 94 294 95 294 95

C293 96 270 102 261 104

C259 104 256 105 256 105

C255 105 252 106 250 106

C243 107 242 108 233 117

C228 122 222 128 219 131

C215 133 212 136 211 137

C209 139 206 138 204 134

C203 133 202 127 201 122

C200 116 199 112 199 111

L198 110

L196 111

C195 112 192 113 191 113

L188 113

L188 111

C188 108 188 105 190 103

C191 100 191 97 190 95

C189 94 185 93 182 93

C179 92 172 91 167 90

C162 90 152 89 146 88

C138 88 135 87 133 86

C131 84 128 84 120 86

C115 87 113 88 112 89

C112 91 111 97 111 105

C110 118 110 118 105 128

C95 149 94 152 96 156

C97 158 99 161 99 161

C100 162 103 165 105 168

C107 171 114 178 119 183

C132 196 135 200 140 208

C142 212 144 215 144 215

C144 215 148 219 152 224

C156 229 160 233 160 233

C160 233 163 236 165 239

C167 242 173 247 177 250

C181 254 185 257 185 257

C185 257 188 259 191 261

C193 264 197 267 199 268

C204 274 208 277 215 281

C222 285 226 289 226 291

C226 295 223 296 215 297

C199 299 176 299 170 298

C165 297 157 294 155 292

C145 285 134 276 134 276

C133 275 130 273 128 270

C120 265 118 262 109 254

C96 242 91 237 65 221

C62 218 58 216 58 216

C57 216 52 213 46 210

C40 206 35 203 35 203

C34 203 31 201 27 199

C18 194 11 187 8 180

C7 178 5 175 5 174

C4 173 4 169 3 166

C2 162 2 158 1 156

C0 154 0 143 0 132

C0 114 0 110 2 102

C3 97 5 93 5 93

L6 93

L6 92

C6 91 8 87 10 83

C13 76 16 72 22 65

C23 64 26 60 29 56

C32 53 37 48 39 45

C42 43 49 36 55 31

C68 18 72 16 81 17

C85 17 89 18 91 20

L95 22

L98 19

C101 15 106 10 107 10

C108 10 108 9 109 9

C110 8 114 6 118 4

C124 1 127 0 132 0

C138 0 139 0 143 3

C145 5 148 7 150 9

C158 12 162 18 166 31

C168 37 168 45 167 49

C166 50 167 52 169 54

C171 56 173 58 173 58

C174 58 176 60 179 62

C181 63 184 65 185 66

C185 66 188 68 190 69

C193 70 196 72 197 73

C198 74 200 76 202 77

C204 78 207 81 209 83

C213 86 213 86 217 85

C220 84 230 78 232 76

C232 76 235 74 239 71

C243 69 247 66 249 64

C253 61 253 61 253 53

C253 49 253 45 254 44

C254 43 256 39 258 36

C262 24 263 22 268 19

C276 15 280 14 289 14

C301 15 308 17 313 19

C316 21 320 22 321 22

C323 22 330 19 330 18

C330 17 331 15 333 14

C336 10 336 10 345 10

C353 10 356 11 362 14

C363 15 369 18 376 21

C382 25 388 28 389 28

C389 28 393 30 397 33

C400 35 405 38 407 40

C409 41 412 44 414 45

C415 46 417 47 418 48

C419 49 421 51 423 53

C425 54 430 60 434 65

C438 70 442 75 442 75

C442 75 444 77 445 79

C446 81 448 83 449 84

C449 84 450 87 451 89

C451 91 452 94 452 96

C452 97 453 100 454 102

C454 105 454 107 455 107

C455 107 457 110 458 112

C460 117 460 119 460 132

C460 144 460 147 458 153

C454 163 445 171 427 178

C424 180 420 182 420 182

C419 183 416 185 412 188

C403 194 400 196 399 198

C398 198 396 200 394 202

C387 206 384 209 380 215

C375 221 363 233 359 237

C357 238 353 241 351 244

C348 246 343 250 340 253

C338 255 335 257 334 258

C333 259 331 261 328 262

C325 265 321 268 318 272

C317 272 314 275 311 277

C308 279 303 284 299 288

C295 292 291 296 289 297

C285 300 285 300 258 299

Z

"/>

<path fill="#ffffff" stroke="none" d="
"/>

</svg>

