<?xml version="1.0" standalone="no"?>

<!DOCTYPE svg PUBLIC "-//W3C//DTD SVG 20010904//EN"

 "http://www.w3.org/TR/2001/REC-SVG-20010904/DTD/svg10.dtd">

<svg version="1.0" xmlns="http://www.w3.org/2000/svg"

 width="248.000000pt" height="300.000000pt" viewBox="0 0 248.000000 300.000000"

 preserveAspectRatio="xMidYMid meet">

<path fill="#000000" stroke="none" d="
M160 299

C157 298 156 295 152 286

C149 280 142 267 137 258

C132 246 128 238 128 235

C127 231 126 230 123 227

C120 225 118 223 117 223

L115 223

L115 229

C114 236 111 241 104 244

C98 247 98 247 72 247

C42 247 41 247 34 255

C30 260 25 263 21 262

C18 261 18 258 19 254

C21 249 35 227 38 223

C41 220 41 220 60 220

C73 220 79 220 80 219

C83 216 81 209 75 202

C73 199 71 196 70 194

C70 193 68 189 66 185

C63 180 63 179 63 170

C63 164 64 159 65 156

C66 152 66 150 65 146

C63 138 67 112 72 98

L75 93

L74 92

L73 91

L68 93

C61 96 48 103 43 107

C41 109 38 111 36 112

C34 112 32 114 31 116

C29 121 24 126 21 126

L19 126

L19 123

L18 120

L17 120

C17 120 16 121 14 122

C10 123 10 123 6 121

C3 120 2 119 1 116

C0 111 0 111 3 106

C5 103 7 101 9 100

C18 99 21 97 28 92

C33 89 38 86 39 84

C59 67 76 54 81 51

C84 49 89 48 92 47

C99 47 107 43 108 41

C108 39 107 35 105 30

C101 20 102 14 107 9

C110 5 124 1 131 1

C138 1 142 3 150 9

C154 13 156 16 157 19

C158 23 158 23 154 32

C150 39 148 52 150 54

C153 55 163 56 185 57

C207 58 207 58 211 60

C215 63 215 63 221 60

C224 59 228 57 229 57

C232 56 235 57 235 59

L235 60

L239 62

C243 63 244 64 246 67

C248 70 248 70 247 73

C246 74 244 75 243 75

C242 75 240 76 239 78

C237 81 236 81 224 77

C217 75 217 75 214 78

C211 81 211 81 205 81

C202 80 188 80 173 79

C147 79 146 79 144 81

C143 82 142 84 142 87

C142 95 138 114 135 121

C133 125 131 133 130 139

C129 145 128 150 128 151

C127 151 130 159 133 168

C136 176 138 184 138 185

C138 186 139 189 141 193

C143 196 144 199 144 201

C144 204 145 205 149 212

C151 214 153 219 153 223

C155 228 158 236 167 253

C180 279 184 283 195 291

C200 294 202 296 202 297

L202 299

L199 300

C198 300 193 300 189 300

C177 298 172 298 167 299

C164 300 162 300 160 299

Z

"/>

<path fill="#ffffff" stroke="none" d="
"/>

</svg>

