<?xml version="1.0" standalone="no"?>

<!DOCTYPE svg PUBLIC "-//W3C//DTD SVG 20010904//EN"

 "http://www.w3.org/TR/2001/REC-SVG-20010904/DTD/svg10.dtd">

<svg version="1.0" xmlns="http://www.w3.org/2000/svg"

 width="188.000000pt" height="300.000000pt" viewBox="0 0 188.000000 300.000000"

 preserveAspectRatio="xMidYMid meet">

<path fill="#000000" stroke="none" d="
M31 298

C26 294 14 282 13 280

C12 278 13 276 13 274

C14 271 14 270 12 267

C10 265 10 263 10 260

C12 253 23 223 27 216

C30 210 31 207 32 202

C33 194 33 177 31 171

C30 169 29 163 28 159

C24 140 24 140 18 137

C15 135 13 133 13 132

C12 131 13 127 14 124

C15 120 16 118 16 117

L15 117

L11 119

C5 121 3 120 1 112

C1 108 0 103 0 100

C0 90 8 68 15 57

C19 51 23 50 43 46

C53 43 61 41 62 40

C64 38 65 38 65 28

C65 21 65 18 66 15

C69 11 73 7 77 6

C79 6 83 5 86 3

C92 0 99 -1 105 1

C109 3 121 14 122 18

C123 20 123 24 123 27

C122 32 122 34 119 37

C118 39 115 43 114 45

C109 52 102 60 98 61

L95 61

L95 63

C95 67 105 85 110 91

C112 93 118 97 123 100

C127 103 134 107 136 109

C139 111 142 112 144 112

C145 112 148 113 151 113

C156 115 166 125 168 131

L170 136

L177 135

C187 135 188 135 188 143

C188 150 185 165 183 170

C180 175 177 176 168 176

C161 176 150 177 139 179

C134 179 130 176 127 167

C126 164 123 157 122 153

C119 145 119 145 120 143

C121 142 125 140 129 139

C136 138 138 136 138 131

C138 127 136 125 130 125

C125 124 121 123 110 118

C103 114 95 111 94 111

C90 111 88 113 86 120

C81 134 83 146 90 156

C92 160 94 163 94 164

C94 164 96 167 99 171

C108 184 111 191 113 202

C114 207 116 215 118 220

C119 225 120 232 121 236

C123 246 125 249 132 254

C136 256 139 258 140 258

C142 258 146 262 146 264

L146 266

L144 267

C142 268 121 267 115 265

C107 264 105 263 103 259

C100 254 96 238 95 224

C93 213 91 208 87 200

C83 193 74 184 68 181

C63 179 61 181 58 197

C57 202 54 209 53 213

C51 218 45 231 41 243

C31 268 31 273 35 282

C37 285 39 289 40 290

C41 292 42 294 42 296

L42 300

L38 300

C36 300 33 299 31 298

Z

M162 139

C164 135 161 128 158 128

C156 128 146 135 146 136

C146 138 151 142 153 142

C157 143 161 141 162 139

Z

M23 104

C25 101 28 95 29 93

C32 87 35 77 33 75

L33 74

L31 75

C29 77 21 93 19 98

C17 105 16 111 19 111

C19 111 21 108 23 104

Z

"/>

<path fill="#ffffff" stroke="none" d="
"/>

</svg>

