<?xml version="1.0" standalone="no"?>

<!DOCTYPE svg PUBLIC "-//W3C//DTD SVG 20010904//EN"

 "http://www.w3.org/TR/2001/REC-SVG-20010904/DTD/svg10.dtd">

<svg version="1.0" xmlns="http://www.w3.org/2000/svg"

 width="300.000000pt" height="195.000000pt" viewBox="0 0 300.000000 195.000000"

 preserveAspectRatio="xMidYMid meet">

<path fill="#000000" stroke="none" d="
M167 194

C157 193 154 192 151 187

C148 183 150 181 157 178

C166 175 186 156 194 144

C198 137 201 134 204 133

C207 131 208 130 209 126

C211 117 219 107 228 102

C233 99 240 92 240 90

C240 88 229 77 223 72

C217 68 215 65 213 60

L211 55

L209 55

C208 55 203 57 198 59

C191 62 163 70 159 70

C158 70 154 74 148 80

C135 92 133 92 131 79

L130 72

L129 72

C128 72 127 72 126 73

L124 74

L123 73

C122 71 122 70 124 67

L125 64

L124 62

C122 61 101 57 94 57

C91 57 88 57 88 56

C86 55 82 55 77 56

L73 57

L73 65

C73 73 73 74 69 83

C61 99 61 99 64 104

C66 106 72 113 78 119

C84 126 90 133 91 135

C93 140 108 156 116 163

C119 165 124 170 127 173

C130 175 136 180 140 182

C147 187 149 189 146 192

C145 193 138 193 128 194

C110 194 107 194 98 188

C92 184 76 170 73 167

C67 159 50 148 28 135

C20 130 12 126 11 124

C4 118 0 105 0 85

C0 61 6 49 30 26

C44 12 46 11 52 11

C54 11 58 12 59 13

L62 14

L66 10

C74 2 88 -3 92 2

C93 2 95 4 96 5

C105 9 109 17 109 29

C109 35 109 35 122 43

C129 48 135 53 136 54

C137 55 139 56 140 56

C141 56 147 52 153 48

C165 41 165 41 165 34

C166 30 167 25 169 21

C172 14 172 14 178 11

C183 9 184 9 191 9

C195 10 200 11 203 12

C209 15 212 15 216 11

C218 7 219 7 225 7

C232 7 233 7 247 15

C265 25 274 31 284 43

C292 53 293 56 295 63

C295 66 297 70 298 72

C300 75 300 78 300 85

C300 102 297 107 282 115

C270 120 252 133 246 141

C242 147 227 160 210 174

C207 176 201 182 196 187

C186 196 188 195 167 194

Z

"/>

<path fill="#ffffff" stroke="none" d="
"/>

</svg>

