<?xml version="1.0" standalone="no"?>

<!DOCTYPE svg PUBLIC "-//W3C//DTD SVG 20010904//EN"

 "http://www.w3.org/TR/2001/REC-SVG-20010904/DTD/svg10.dtd">

<svg version="1.0" xmlns="http://www.w3.org/2000/svg"

 width="309.000000pt" height="300.000000pt" viewBox="0 0 309.000000 300.000000"

 preserveAspectRatio="xMidYMid meet">

<path fill="#010101" stroke="none" d="
M58 296

C55 293 54 293 52 294

C49 294 39 295 15 297

C3 297 3 297 2 295

L0 292

L1 290

C5 285 8 282 18 277

C23 275 29 271 32 269

C35 266 36 266 41 266

C44 266 48 267 49 267

C55 270 61 271 80 270

C101 269 103 268 103 261

C103 259 102 255 101 253

C101 250 99 246 98 243

C98 240 96 237 96 237

C95 236 95 235 95 234

C95 233 92 226 88 218

C87 216 85 210 84 206

C81 198 81 196 81 184

C81 177 82 171 83 169

C83 168 84 164 85 159

C86 152 87 150 90 145

C92 142 95 137 96 134

C98 131 100 126 103 124

C105 121 108 117 109 115

C110 113 116 107 121 101

C127 95 132 89 133 87

C135 83 143 75 147 73

C150 71 156 66 158 62

C159 61 159 56 160 49

C160 34 162 28 168 22

L172 17

L171 13

L169 10

L169 10

C169 9 171 9 173 8

C174 6 176 6 177 5

C178 5 180 5 180 4

L182 2

L183 3

C183 4 184 6 185 8

L186 11

L194 11

C201 11 203 12 207 15

C210 17 212 18 213 18

C213 18 214 19 215 20

C216 21 218 22 219 24

C223 26 228 36 228 40

C228 41 227 44 226 45

C225 47 223 51 223 55

C222 62 222 63 223 65

C225 68 228 69 232 67

C233 66 236 65 238 65

C240 64 244 64 246 63

C248 63 249 63 251 65

C252 67 254 68 254 68

C255 68 256 69 257 70

L258 71

L254 75

C246 84 244 86 240 86

C232 86 230 89 230 106

C230 123 228 132 220 139

C216 144 210 145 202 143

C195 141 193 142 193 145

C193 146 192 148 191 150

C186 161 185 164 181 168

C179 170 177 172 177 173

L177 175

L179 175

C180 176 184 176 189 176

C200 176 204 177 213 186

C219 191 222 194 234 199

C236 200 240 202 244 203

C247 205 250 206 250 206

C252 206 258 211 260 213

C261 214 261 216 261 218

C260 221 262 225 266 227

C274 230 286 226 296 216

C302 210 305 208 308 211

C309 213 309 216 306 225

C304 231 303 232 289 246

C286 248 283 252 281 254

C278 256 277 257 274 257

C271 257 268 256 267 255

C266 254 263 252 260 249

C254 245 251 243 248 243

C247 243 244 242 241 240

C238 239 234 237 233 237

C230 236 210 226 209 225

C197 216 196 216 183 216

C163 216 147 218 147 220

C147 220 146 225 145 231

C145 236 144 245 143 251

C142 262 142 264 139 277

C137 286 135 290 130 294

C127 297 127 297 116 296

C103 295 90 296 83 298

C81 299 75 300 71 300

C63 300 62 300 58 296

Z

"/>

<path fill="#ffffff" stroke="none" d="
"/>

</svg>

