<?xml version="1.0" standalone="no"?>

<!DOCTYPE svg PUBLIC "-//W3C//DTD SVG 20010904//EN"

 "http://www.w3.org/TR/2001/REC-SVG-20010904/DTD/svg10.dtd">

<svg version="1.0" xmlns="http://www.w3.org/2000/svg"

 width="272.000000pt" height="300.000000pt" viewBox="0 0 272.000000 300.000000"

 preserveAspectRatio="xMidYMid meet">

<path fill="#000000" stroke="none" d="
M170 299

C167 298 168 292 170 286

C171 284 172 281 172 280

L172 279

L161 279

C155 279 148 279 145 279

C139 279 120 283 116 286

C106 290 95 293 72 294

C54 294 49 293 43 286

C41 284 39 281 39 281

L39 280

L37 280

C36 280 32 282 29 285

C20 290 13 292 7 288

C1 285 0 282 0 268

C0 257 0 255 2 254

C3 253 4 252 5 252

L7 252

L8 254

L8 256

L8 256

C9 256 11 255 13 254

C18 253 25 253 28 256

L31 258

L33 257

C33 256 34 254 35 251

C35 247 36 244 38 242

C41 238 43 237 54 233

C66 229 67 229 81 229

C98 229 108 230 117 234

C122 236 127 237 139 239

C148 240 157 241 158 241

C164 241 165 240 163 224

C163 216 162 206 162 202

C162 196 162 195 160 192

C157 189 156 184 158 181

L159 179

L157 177

C155 174 155 174 157 167

C158 163 159 156 160 148

C160 136 163 120 165 116

C166 115 168 113 171 112

C178 108 178 107 175 101

C173 96 169 84 169 80

C169 79 170 77 171 76

L173 73

L172 73

C172 72 168 72 165 73

C155 75 152 74 149 71

C148 70 145 68 142 68

C140 67 135 66 133 65

C130 63 125 62 122 61

C118 61 114 59 112 59

C103 56 92 54 75 53

C63 52 57 52 55 51

C51 49 50 49 45 51

L40 53

L40 56

C40 57 41 63 43 68

C44 72 48 84 51 94

C54 103 57 114 59 118

C61 125 61 127 60 134

C60 142 60 142 63 145

C65 147 67 150 68 151

C71 158 67 180 60 187

C57 191 57 191 57 195

C58 198 58 204 58 210

C59 221 59 221 56 223

C52 226 45 228 39 228

C34 228 27 225 23 221

C20 217 20 210 23 202

C25 199 26 196 26 196

L26 195

L22 195

C16 194 9 190 8 187

C7 185 6 179 6 168

C5 160 4 148 3 142

C2 131 2 131 4 126

C7 120 7 120 7 101

C7 83 7 81 4 68

C1 55 1 52 1 35

C1 16 2 7 4 4

C6 2 10 3 15 5

C20 8 21 10 19 13

L18 16

L22 20

C25 23 27 26 27 27

L28 30

L29 30

C30 30 31 29 32 28

C34 26 46 21 48 21

C49 22 51 21 52 20

C54 17 56 17 77 16

C94 15 99 15 103 16

C106 17 108 17 113 15

C116 14 120 13 122 13

C124 13 129 11 134 9

C139 7 144 5 146 5

C148 4 150 3 152 2

C154 0 155 0 166 0

C182 1 183 1 195 0

C201 0 207 0 209 0

C211 1 218 4 224 8

L234 15

L236 14

C241 11 243 10 248 8

C257 6 263 9 269 16

C274 23 273 30 266 39

C261 45 253 47 243 43

C236 40 234 41 232 47

C230 56 226 60 221 64

C216 67 215 67 207 67

L199 67

L199 68

C199 68 201 70 203 71

C208 74 209 76 211 90

C212 102 212 102 210 105

C209 107 208 109 208 110

L208 112

L211 113

C215 114 218 118 219 125

C221 135 219 174 217 177

C216 179 216 181 216 187

C217 195 217 195 215 197

C213 199 212 201 211 202

C209 206 207 222 206 234

C206 246 206 246 213 246

C217 246 221 248 222 252

C222 255 221 259 219 259

L218 259

L220 262

C221 263 222 265 222 267

C222 272 221 272 210 273

L201 274

L201 279

C201 282 201 287 202 291

C203 294 204 298 204 298

L203 300

L201 300

C197 300 194 297 193 292

C192 289 191 285 190 283

C189 281 188 279 188 278

L188 277

L187 277

C185 277 183 280 183 284

C183 288 181 293 177 297

C174 300 173 301 170 299

Z

M210 260

L211 259

L208 259

C207 258 206 258 205 258

L205 259

L205 260

C206 261 210 261 210 260

Z

"/>

<path fill="#ffffff" stroke="none" d="
"/>

</svg>

