<?xml version="1.0" standalone="no"?>

<!DOCTYPE svg PUBLIC "-//W3C//DTD SVG 20010904//EN"

 "http://www.w3.org/TR/2001/REC-SVG-20010904/DTD/svg10.dtd">

<svg version="1.0" xmlns="http://www.w3.org/2000/svg"

 width="353.000000pt" height="300.000000pt" viewBox="0 0 353.000000 300.000000"

 preserveAspectRatio="xMidYMid meet">

<path fill="#000000" stroke="none" d="
M66 299

C64 298 62 297 60 296

C59 294 56 293 54 293

C46 292 42 285 42 276

C42 273 42 269 41 267

L40 264

L33 264

L27 264

L27 262

C27 261 29 259 31 257

C35 253 35 251 32 244

C31 240 29 237 25 234

C20 228 13 218 8 208

C6 204 4 200 2 199

C-2 193 -1 192 13 180

L16 178

L12 175

C7 171 1 162 1 159

C1 157 2 155 5 152

C7 148 8 147 8 143

C8 137 12 123 15 118

C23 107 23 83 14 70

C10 65 10 63 14 60

C16 58 16 57 15 53

C15 47 16 45 25 42

C30 40 31 40 35 41

C40 42 40 42 44 39

C48 35 64 28 71 27

C74 26 80 24 83 22

L90 19

L90 17

C88 11 88 10 90 7

C95 0 101 -1 112 1

L118 3

L117 5

L117 7

L119 7

C121 8 124 8 128 8

C133 8 134 8 137 11

C139 13 143 17 145 21

C151 29 154 31 159 29

C165 26 167 27 171 30

L174 32

L176 30

L178 29

L180 30

C183 32 189 31 192 28

C193 27 195 24 196 22

C198 18 201 14 205 12

C207 11 210 9 213 7

C217 3 218 2 229 2

C236 1 236 1 238 4

C239 6 244 10 248 13

C254 17 258 19 270 22

C278 25 286 27 287 27

C288 28 290 29 291 30

C291 32 292 33 298 33

C316 35 328 36 330 37

L332 38

L332 40

C332 42 330 43 328 45

C326 46 322 48 321 50

C317 53 317 53 318 59

C318 63 318 65 317 68

C314 72 315 77 317 81

C318 83 320 87 321 89

C322 92 325 97 328 101

C330 105 334 112 337 116

C339 120 341 125 343 127

C344 128 347 132 348 134

C352 140 351 141 343 148

L337 154

L337 154

C337 155 338 155 340 156

C341 157 344 160 347 164

C354 171 355 174 350 179

C348 180 347 182 347 183

C347 183 345 185 344 186

C342 188 338 192 335 196

C333 199 328 205 325 209

C319 216 315 223 310 238

C308 242 305 247 304 250

C302 252 299 257 298 260

C296 263 293 266 292 267

C287 271 273 273 245 273

C218 274 218 274 213 269

C209 265 207 264 197 265

C193 266 191 266 188 264

C185 262 182 260 181 258

L178 256

L175 259

C173 261 172 263 172 265

L173 267

L175 267

L177 267

L177 270

C177 272 173 277 171 277

C170 277 167 280 163 283

C156 291 153 292 147 289

C143 288 143 288 136 290

C131 292 128 293 121 293

C108 293 93 295 89 298

C86 300 84 300 77 300

C72 300 67 299 66 299

Z

M111 246

C112 244 115 242 116 240

C118 238 121 235 124 234

C127 232 131 230 133 229

C135 228 139 227 143 226

C154 224 159 222 161 219

C162 216 164 215 168 214

C176 211 183 210 194 212

C203 213 205 213 210 216

C213 219 217 222 220 224

L224 228

L227 226

C230 224 233 224 246 222

C255 222 266 221 269 221

C280 221 286 219 288 216

C292 211 318 187 324 184

C331 180 333 177 333 170

C333 165 333 164 330 161

C327 159 326 158 323 159

L320 159

L319 157

C319 156 319 153 320 149

C321 146 322 142 322 141

C322 138 309 115 302 108

C299 104 296 99 295 96

L294 92

L290 92

C286 92 285 91 281 88

C275 84 274 82 274 77

C274 71 271 68 263 63

C256 60 255 60 248 61

C242 61 241 61 237 59

C234 57 231 54 229 52

C224 47 222 47 215 50

C213 50 208 51 204 51

C199 51 195 52 192 53

C189 54 187 55 185 54

C184 53 182 53 181 54

C178 56 169 54 166 51

C163 49 162 49 150 49

C138 49 136 49 130 52

C125 54 122 55 116 55

C109 55 107 55 106 57

C105 58 102 60 100 61

C94 62 84 68 82 71

C82 72 81 73 81 75

C81 80 70 95 64 98

C63 98 59 99 56 99

C51 99 48 101 47 106

C46 111 44 115 40 119

C33 127 21 150 21 156

C21 160 28 171 31 172

L33 173

L33 179

C33 194 40 207 52 216

C68 228 68 228 70 234

L72 240

L74 240

C75 240 76 239 78 238

C80 236 81 236 88 235

C92 235 96 236 97 236

C97 237 98 239 99 241

C99 244 100 246 100 247

C102 249 108 248 111 246

Z

M208 186

C205 185 201 181 198 177

C189 167 189 167 177 167

C171 167 163 167 157 166

C143 163 134 163 132 164

C131 165 129 168 128 172

C126 179 123 182 119 185

C115 187 112 186 102 182

C96 180 92 178 91 176

C89 173 88 173 83 174

C78 174 76 174 73 172

C68 168 70 162 77 162

L80 162

L80 161

L80 159

L83 159

C84 159 87 160 90 162

C93 164 95 165 96 164

C98 164 100 165 103 166

C105 167 107 168 108 168

L110 168

L111 167

C111 166 110 163 110 160

C108 154 108 150 110 145

L111 141

L111 140

L110 140

L107 141

C105 142 100 143 96 143

C88 143 83 141 80 134

C77 129 78 121 80 118

C83 115 88 113 93 113

C99 113 109 116 112 119

L114 121

L115 120

C116 120 116 118 116 115

C115 110 115 109 117 108

C119 106 120 101 120 98

L121 97

L113 96

C101 96 92 95 90 94

L89 93

L90 91

L90 90

L87 88

L85 85

L86 84

C86 83 86 82 86 81

L87 79

L91 78

C94 78 96 78 98 80

C101 82 102 82 109 81

C114 80 120 80 124 79

C130 79 131 79 133 81

C136 84 141 95 141 99

C141 100 142 102 142 104

C144 106 145 107 148 107

C155 109 162 110 171 113

C178 115 180 115 188 115

C196 114 197 114 207 109

C216 104 219 103 223 103

C226 103 230 104 231 104

C232 105 237 110 240 116

C244 121 250 128 253 132

C258 137 258 137 264 137

C267 136 271 136 273 136

L276 136

L276 138

C276 141 274 144 268 146

C265 148 263 149 262 150

L262 151

L266 153

C269 154 271 155 271 156

L271 158

L270 159

C269 160 266 160 262 160

C255 160 251 161 249 164

C245 169 226 184 222 186

C216 190 215 190 208 186

Z

M227 165

C230 162 236 157 239 156

C242 153 244 151 245 149

C246 146 246 146 240 139

C237 136 233 131 232 128

C230 126 228 124 227 124

C226 123 211 133 209 136

C207 138 207 141 207 143

C207 148 217 171 220 171

C220 171 223 168 227 165

Z

"/>

<path fill="#ffffff" stroke="none" d="
"/>

</svg>

