<?xml version="1.0" standalone="no"?>

<!DOCTYPE svg PUBLIC "-//W3C//DTD SVG 20010904//EN"

 "http://www.w3.org/TR/2001/REC-SVG-20010904/DTD/svg10.dtd">

<svg version="1.0" xmlns="http://www.w3.org/2000/svg"

 width="242.000000pt" height="300.000000pt" viewBox="0 0 242.000000 300.000000"

 preserveAspectRatio="xMidYMid meet">

<path fill="#000000" stroke="none" d="
M199 298

C195 295 191 287 190 277

C190 273 189 269 188 268

C185 260 184 253 183 231

C181 208 181 206 178 198

C175 190 175 187 174 174

C173 164 173 157 172 154

C171 151 169 143 169 137

C168 126 166 116 164 113

C162 111 158 113 145 119

C132 125 126 127 115 127

C111 127 106 128 104 129

C99 130 99 130 97 129

C95 128 94 126 93 124

C90 119 92 116 98 115

C100 114 105 112 108 110

C112 108 116 107 117 107

C119 107 123 106 125 106

C133 103 148 95 152 92

C157 87 163 84 169 81

C172 80 175 78 175 78

L176 77

L175 75

C172 72 173 64 177 56

C178 53 179 49 179 49

C179 46 185 40 189 38

C194 36 199 36 205 38

C210 39 213 42 219 49

L223 53

L225 52

C228 49 230 49 235 51

C240 54 242 58 242 64

C241 69 239 72 235 75

C233 75 232 77 232 78

L232 79

L236 79

L239 78

L239 80

C239 81 238 83 237 83

C233 85 227 82 225 78

L224 74

L223 74

C221 74 218 77 218 79

C218 79 220 81 222 83

C226 85 227 87 231 94

C236 104 241 120 241 125

C241 129 236 139 232 144

C227 151 227 150 229 161

C231 175 231 182 230 190

C229 195 229 202 231 221

C231 234 232 250 232 255

C231 267 228 290 227 292

C224 297 218 299 214 297

L212 296

L210 298

C207 301 203 301 199 298

Z

M213 280

C217 272 217 272 214 264

C213 260 212 253 211 244

C210 228 207 206 205 202

L204 200

L203 210

C203 215 203 231 203 246

C204 272 204 272 207 279

L210 287

L211 287

C211 287 212 284 213 280

Z

M6 281

C0 277 0 276 0 241

C0 224 1 205 1 200

C2 195 2 182 2 172

C2 154 3 146 7 131

C8 126 8 124 7 121

C6 117 6 116 7 114

C9 111 9 108 9 88

C9 60 9 59 19 50

C26 43 32 40 40 38

C42 37 44 36 45 35

C45 35 45 30 44 26

C42 19 42 18 44 13

C46 5 48 3 56 2

C60 1 66 1 70 1

C76 1 77 1 81 3

C86 7 91 13 92 19

C93 23 93 25 92 30

C91 34 90 38 90 41

C90 44 89 45 86 48

C84 49 83 51 82 52

L81 54

L84 57

C86 60 86 61 87 70

C90 99 90 99 84 105

C81 109 80 111 79 117

C77 127 77 128 72 131

C67 134 66 136 66 144

C66 148 65 153 63 158

C61 162 59 172 57 179

C55 186 53 196 51 200

C50 203 48 209 48 211

C46 219 43 241 42 248

C42 255 40 260 37 262

C36 262 34 265 33 268

C30 275 28 277 22 280

C15 284 9 284 6 281

Z

"/>

<path fill="#ffffff" stroke="none" d="
"/>

</svg>

