<?xml version="1.0" standalone="no"?>

<!DOCTYPE svg PUBLIC "-//W3C//DTD SVG 20010904//EN"

 "http://www.w3.org/TR/2001/REC-SVG-20010904/DTD/svg10.dtd">

<svg version="1.0" xmlns="http://www.w3.org/2000/svg"

 width="227.000000pt" height="300.000000pt" viewBox="0 0 227.000000 300.000000"

 preserveAspectRatio="xMidYMid meet">

<path fill="#000000" stroke="none" d="
M58 297

C55 296 51 294 49 292

C47 290 44 288 42 288

C38 287 35 280 35 274

C35 271 34 267 33 264

C32 262 31 259 31 257

C31 256 30 245 28 233

C25 207 23 200 15 187

C9 178 6 173 3 164

C0 158 0 156 0 141

C0 127 0 124 3 112

C6 96 13 75 18 65

C22 59 25 55 35 45

C48 32 48 32 48 25

C49 21 50 16 50 15

C52 11 57 6 59 6

C60 6 63 5 67 3

C70 1 74 0 77 0

C81 0 82 0 88 7

C95 14 96 15 97 22

C99 29 99 30 97 36

C95 45 96 46 108 46

C113 46 123 45 130 45

C146 43 165 42 173 44

C181 46 183 45 185 40

C188 35 190 33 197 31

C212 26 215 26 221 33

C226 38 227 44 227 52

C226 60 224 65 219 71

C212 79 212 81 212 86

C213 89 212 93 211 97

C210 101 209 106 209 108

C209 111 208 116 207 119

C203 128 202 132 201 147

C200 157 199 163 198 165

C197 168 195 173 194 177

C191 186 183 199 176 205

C173 208 167 212 163 214

C158 216 155 218 155 219

C155 220 157 223 160 227

C168 235 173 242 177 250

C180 256 182 258 186 258

C188 258 191 261 191 264

C192 268 190 284 189 286

L188 288

L186 288

C184 288 180 283 174 275

C164 262 152 248 137 233

L129 225

L128 225

C127 226 120 230 111 236

C97 244 95 246 94 250

C91 256 87 257 71 258

C56 259 56 259 58 267

C61 275 68 283 76 285

C85 288 87 293 81 298

C78 301 66 301 58 297

Z

M84 233

C87 231 92 227 95 225

C98 223 103 218 107 213

C111 208 116 201 120 197

C123 192 127 187 128 185

C129 183 132 179 136 175

C139 172 142 167 143 165

C144 163 146 158 149 154

C153 146 154 145 154 138

C155 134 156 127 156 122

C157 116 157 114 156 113

L155 112

L150 114

C142 119 135 121 130 121

C128 121 124 122 120 124

C116 126 113 127 112 127

C110 127 106 122 105 119

L105 115

L108 114

C110 113 112 112 114 112

C115 112 123 109 130 106

C138 102 149 98 154 96

C158 93 163 91 164 90

L166 88

L166 87

L165 85

L161 85

C159 85 157 84 155 82

C153 79 151 79 139 77

C132 76 122 74 119 73

C115 73 111 72 110 72

L108 72

L107 75

C106 79 105 80 101 80

C96 80 94 81 90 86

C89 89 84 94 80 98

C75 103 70 108 70 109

C69 111 67 117 67 122

C66 127 64 133 63 135

L62 140

L63 141

C64 142 65 142 66 142

C71 142 75 148 75 155

C75 156 76 159 77 160

C82 167 93 194 93 201

C93 205 93 207 87 216

C76 233 76 233 76 235

L76 237

L77 237

C78 237 81 235 84 233

Z

M168 60

L170 59

L162 59

C158 59 155 59 153 61

L152 62

L159 62

C162 61 167 61 168 60

Z

"/>

<path fill="#ffffff" stroke="none" d="
"/>

</svg>

