<?xml version="1.0" standalone="no"?>

<!DOCTYPE svg PUBLIC "-//W3C//DTD SVG 20010904//EN"

 "http://www.w3.org/TR/2001/REC-SVG-20010904/DTD/svg10.dtd">

<svg version="1.0" xmlns="http://www.w3.org/2000/svg"

 width="151.000000pt" height="300.000000pt" viewBox="0 0 151.000000 300.000000"

 preserveAspectRatio="xMidYMid meet">

<path fill="#000000" stroke="none" d="
M62 298

C60 296 59 295 59 284

C58 271 57 256 55 246

C55 242 54 234 54 229

C54 221 53 216 50 204

C48 195 46 186 45 182

C44 178 44 175 43 174

L43 173

L41 174

L39 175

L41 178

L42 180

L41 181

C40 182 39 182 38 182

C35 182 29 175 26 168

C24 162 23 161 16 155

C14 153 13 151 11 145

C11 141 10 132 10 125

C10 112 10 111 13 105

C15 100 17 95 17 89

C19 76 22 73 40 61

L42 59

L41 57

L40 54

L38 54

C36 55 35 55 33 56

C32 56 30 55 26 51

C21 46 3 25 1 21

C-2 16 1 6 6 2

L9 0

L10 1

L11 2

L10 4

C9 5 8 8 7 9

C6 12 6 17 8 21

C9 23 14 29 19 35

L28 45

L29 44

C29 44 30 38 30 32

C31 20 31 19 34 14

C38 7 42 2 46 1

C52 0 60 4 63 10

C64 12 66 16 67 21

C69 29 71 31 81 39

C87 44 99 51 102 51

C103 51 105 50 107 48

C111 45 111 45 111 35

L111 26

L112 26

C116 26 118 43 114 49

C112 53 107 56 103 56

C99 56 87 50 81 46

C73 40 69 41 69 48

L69 52

L76 52

C83 52 84 52 89 55

C92 57 95 59 96 59

C97 59 109 66 111 68

C116 72 123 82 128 92

C130 97 134 105 136 108

C139 113 140 117 141 119

L141 123

L142 124

C143 124 145 126 147 128

C151 131 151 132 151 135

C151 138 150 139 147 141

C142 144 140 144 134 139

C131 136 128 134 127 134

C123 134 121 132 116 125

C113 121 110 118 109 118

L108 117

L108 121

C110 130 110 145 109 149

C108 152 108 154 109 163

C110 169 111 180 111 192

C111 209 111 213 113 217

C115 222 118 240 120 254

C121 268 123 273 127 279

C132 288 131 292 124 292

C120 292 117 289 114 283

C113 280 111 278 110 277

C106 276 103 273 103 269

C103 267 102 265 101 263

C101 261 99 257 99 254

C98 251 97 246 96 242

C95 239 94 234 94 231

C94 227 93 224 91 219

C88 213 84 204 81 192

C81 190 80 188 79 188

L78 188

L78 202

C77 210 77 230 77 248

C76 266 76 280 75 281

C75 283 74 286 75 290

C75 295 75 296 73 298

C71 301 65 301 62 298

Z

"/>

<path fill="#ffffff" stroke="none" d="
"/>

</svg>

