<?xml version="1.0" standalone="no"?>

<!DOCTYPE svg PUBLIC "-//W3C//DTD SVG 20010904//EN"

 "http://www.w3.org/TR/2001/REC-SVG-20010904/DTD/svg10.dtd">

<svg version="1.0" xmlns="http://www.w3.org/2000/svg"

 width="296.000000pt" height="150.000000pt" viewBox="0 0 296.000000 150.000000"

 preserveAspectRatio="xMidYMid meet">

<path fill="#000000" stroke="none" d="
M32 148

C30 146 28 144 27 141

C26 137 25 137 21 135

C14 132 7 125 3 119

C0 115 0 114 0 106

C0 100 1 97 2 93

C4 89 4 84 5 71

C6 50 6 50 17 43

L18 42

L16 40

C15 38 14 35 14 32

C14 25 15 23 21 20

C24 18 25 17 26 14

C28 8 30 6 34 6

C38 6 43 7 49 10

C51 11 54 12 56 12

C62 12 63 14 64 27

C65 33 66 39 67 41

C68 43 70 48 70 52

C71 56 71 60 72 61

L72 63

L74 62

C75 62 77 62 79 61

C81 61 85 59 88 57

C93 54 103 50 108 50

C109 50 115 51 120 52

C126 53 133 54 137 55

C145 56 151 59 152 62

C152 63 152 64 153 64

C153 64 157 64 161 64

C169 65 172 66 177 71

C183 75 190 79 198 79

C204 80 206 80 208 83

C210 85 211 85 216 85

L221 85

L221 83

C222 82 222 79 223 77

C224 72 226 70 232 65

C234 63 234 62 233 55

C233 47 233 47 236 44

C239 41 239 41 238 35

C236 24 236 13 237 9

C240 3 243 1 255 1

C268 0 269 0 273 11

C275 20 275 27 272 32

L271 35

L272 36

C273 37 274 38 275 38

C279 38 286 42 286 44

C287 46 287 50 287 53

C287 61 288 62 292 68

C295 72 295 73 295 81

C295 107 295 107 293 112

C291 114 290 118 290 119

C289 121 287 124 283 127

C280 129 275 134 273 136

C268 141 268 141 260 141

C250 141 246 139 244 133

C243 131 240 129 238 127

C233 124 230 120 228 111

L226 105

L221 105

C216 105 215 105 211 109

C205 115 200 117 192 115

C184 114 184 114 176 119

C170 122 169 122 163 122

C158 122 153 121 150 120

C146 119 143 118 142 118

L141 118

L141 122

C140 125 139 127 137 129

C135 131 134 131 128 131

C119 130 113 128 103 120

C99 117 94 114 92 113

C89 112 87 109 84 105

C82 102 79 96 76 93

L72 86

L71 86

C70 86 69 89 68 92

C67 94 65 98 64 101

C63 103 61 108 60 112

C58 116 56 122 54 124

C50 130 50 134 55 138

C56 140 58 143 58 143

C58 144 57 146 55 147

C53 150 52 150 49 150

C45 149 41 149 38 149

C36 150 34 149 32 148

Z

M220 95

L222 95

L222 94

L222 93

L220 93

C219 93 217 94 217 95

L217 96

L218 96

C218 96 220 96 220 95

Z

"/>

<path fill="#ffffff" stroke="none" d="
"/>

</svg>

