<?xml version="1.0" standalone="no"?>

<!DOCTYPE svg PUBLIC "-//W3C//DTD SVG 20010904//EN"

 "http://www.w3.org/TR/2001/REC-SVG-20010904/DTD/svg10.dtd">

<svg version="1.0" xmlns="http://www.w3.org/2000/svg"

 width="215.000000pt" height="300.000000pt" viewBox="0 0 215.000000 300.000000"

 preserveAspectRatio="xMidYMid meet">

<path fill="#000000" stroke="none" d="
M12 298

C10 296 7 292 4 288

C-1 280 -1 276 2 270

C4 267 6 261 7 256

C9 245 12 236 23 211

C31 195 31 194 33 178

C34 169 35 158 35 155

C35 144 36 136 39 134

C42 132 52 119 57 111

C61 105 62 101 63 95

C64 93 67 86 71 80

C77 69 77 69 77 57

C77 45 77 45 84 38

C94 29 98 28 106 33

C107 34 111 35 114 36

C122 37 131 41 132 43

C134 46 133 54 131 61

C130 64 129 68 129 71

C129 74 128 76 126 79

C122 84 121 92 123 99

C125 105 127 108 133 109

C137 109 138 109 144 105

C147 103 152 101 153 100

C156 100 161 95 164 91

C166 88 168 75 172 41

C173 34 175 25 176 22

C177 18 178 13 179 11

C180 8 181 5 182 3

C184 0 185 0 188 0

C193 0 194 2 194 8

L193 13

L195 9

C202 0 213 2 215 13

C215 16 215 18 213 21

C207 29 193 26 193 17

L193 14

L193 14

C192 14 192 19 191 24

C190 34 184 65 180 80

C179 86 178 93 178 96

C178 102 175 112 172 114

C171 115 169 116 166 116

C163 117 161 118 158 120

C157 122 150 125 143 129

C132 134 132 134 124 134

L116 133

L114 138

C113 141 110 146 108 148

C106 151 104 154 104 155

L105 157

L114 157

C123 158 126 159 129 164

C131 168 129 175 124 186

C120 193 117 197 108 208

C106 210 104 213 103 214

C101 218 102 225 105 234

C108 243 108 245 105 246

C103 247 101 246 95 238

C92 234 87 230 85 229

C78 224 78 217 86 211

C89 208 91 205 94 199

C96 195 99 190 100 188

L103 184

L102 183

C101 182 74 184 71 186

C69 186 59 202 54 211

C51 219 35 244 26 257

C20 265 17 270 17 274

C17 279 20 287 23 291

C25 293 26 295 26 297

L26 300

L20 300

C17 300 15 300 12 298

Z

"/>

<path fill="#ffffff" stroke="none" d="
"/>

</svg>

