<?xml version="1.0" standalone="no"?>

<!DOCTYPE svg PUBLIC "-//W3C//DTD SVG 20010904//EN"

 "http://www.w3.org/TR/2001/REC-SVG-20010904/DTD/svg10.dtd">

<svg version="1.0" xmlns="http://www.w3.org/2000/svg"

 width="353.000000pt" height="300.000000pt" viewBox="0 0 353.000000 300.000000"

 preserveAspectRatio="xMidYMid meet">

<path fill="#000000" stroke="none" d="
M84 298

C81 295 81 294 79 277

C78 258 78 257 86 248

C93 240 96 237 113 226

C127 218 128 216 136 207

C140 202 147 195 150 191

C153 187 156 184 156 184

L156 183

L154 183

C152 183 145 186 136 190

C124 197 120 199 113 206

C108 210 100 216 95 219

C90 223 83 229 78 234

C67 245 66 245 52 238

C46 235 41 233 40 233

C36 233 30 230 29 228

C28 226 28 225 29 223

C31 221 33 220 45 220

C50 219 55 219 56 218

C57 218 59 215 61 213

C63 210 67 206 70 203

C74 201 79 196 83 193

C87 190 92 185 96 183

C105 177 126 157 126 155

C126 154 123 150 119 146

C113 139 112 139 102 136

C95 134 89 132 88 131

L85 131

L85 129

L86 127

L89 126

C91 126 92 125 93 125

L93 124

L89 122

C85 120 84 119 82 115

C78 106 78 106 72 104

C64 102 53 96 45 90

C38 84 29 72 25 64

C22 59 17 53 9 47

C0 40 -2 35 2 25

C5 17 8 14 14 11

C19 9 20 9 26 10

C33 11 33 11 44 6

C54 1 54 1 68 1

C78 1 82 1 85 2

C88 4 93 10 100 18

C104 23 119 33 123 34

L126 35

L127 33

C129 31 129 31 145 33

C154 35 165 40 169 44

C172 47 176 54 177 58

C178 60 178 64 179 68

C180 77 182 80 188 80

C192 80 196 78 202 74

C206 71 224 62 237 57

C243 55 250 51 253 49

C262 43 264 43 270 50

C273 53 276 56 276 56

L277 56

L277 50

C278 39 284 31 295 25

C300 22 302 22 305 22

C308 23 310 22 313 21

C318 18 320 18 323 22

C325 25 326 25 329 21

C332 17 333 17 339 19

C345 21 348 23 348 29

C348 32 347 33 344 37

L340 41

L341 42

C342 42 344 43 347 45

C352 47 354 51 352 55

C351 57 349 60 348 63

C347 66 345 70 343 71

C340 74 328 81 323 81

C321 82 315 83 311 85

C299 89 298 91 302 100

C305 105 305 106 304 110

C303 112 300 116 296 120

C293 124 286 131 282 137

L274 147

L275 149

C276 149 277 150 279 150

C282 150 290 154 296 159

C299 162 304 166 306 168

C309 171 312 175 316 182

C319 189 323 194 326 197

C333 204 337 213 337 219

C337 224 335 234 332 245

C329 257 320 261 298 264

C287 265 284 264 276 258

C273 256 268 253 265 252

C259 250 257 248 249 238

C247 236 242 232 237 229

C232 227 226 223 224 221

C220 217 215 208 213 200

C211 194 208 195 197 202

C192 205 185 211 181 214

C177 218 173 221 168 223

C162 225 159 227 152 233

C146 239 142 242 137 244

C134 246 128 249 125 252

C122 255 118 258 117 259

C104 267 97 276 92 290

C91 295 89 298 88 299

C86 300 86 300 84 298

Z

"/>

<path fill="#ffffff" stroke="none" d="
"/>

</svg>

