<?xml version="1.0" standalone="no"?>

<!DOCTYPE svg PUBLIC "-//W3C//DTD SVG 20010904//EN"

 "http://www.w3.org/TR/2001/REC-SVG-20010904/DTD/svg10.dtd">

<svg version="1.0" xmlns="http://www.w3.org/2000/svg"

 width="300.000000pt" height="255.000000pt" viewBox="0 0 300.000000 255.000000"

 preserveAspectRatio="xMidYMid meet">

<path fill="#000000" stroke="none" d="
M70 252

C68 249 66 224 67 220

C68 218 70 214 74 210

C79 203 84 199 102 189

C105 187 110 182 112 180

C114 177 120 171 124 166

C128 162 131 158 131 157

L131 156

L127 157

C118 160 103 169 96 175

C93 179 86 184 82 187

C77 190 70 196 66 200

C58 209 56 209 45 203

C41 201 36 199 33 199

C29 198 24 195 24 192

C24 189 28 187 37 187

C48 186 48 186 52 181

C54 177 65 168 81 156

C85 152 93 146 98 141

L107 133

L106 130

C103 125 96 119 88 116

C80 114 80 114 75 113

L72 112

L72 111

C72 110 73 108 74 108

L76 106

L73 104

C72 102 70 99 69 97

C67 92 65 90 63 90

C59 90 47 84 40 78

C34 74 27 65 19 53

C17 49 13 45 10 42

C4 38 0 33 0 29

C0 25 4 16 7 14

C11 10 14 9 22 9

C29 9 30 9 38 5

C47 1 47 1 58 1

C71 1 74 2 82 12

C87 18 96 25 104 29

L105 30

L107 28

C110 26 110 26 121 28

C134 31 141 34 145 39

C148 42 151 50 152 58

C153 61 154 65 155 66

C157 69 162 69 168 66

C175 61 193 52 201 49

C205 47 211 44 215 42

C218 40 222 38 223 38

C224 38 226 40 229 43

C231 45 234 47 234 47

L235 47

L235 44

C235 38 237 33 242 28

C248 22 255 19 259 19

C261 20 263 19 265 18

C269 16 273 17 274 19

L276 21

L279 18

C283 15 283 15 287 16

C294 19 295 20 295 25

C295 28 294 30 292 32

L290 35

L291 36

C296 39 299 42 299 45

C299 46 297 50 296 54

C292 62 287 66 277 69

C260 75 256 76 255 79

C255 80 256 83 257 86

C258 89 259 92 259 94

C258 95 255 99 251 103

C243 112 234 124 234 125

L234 127

L238 128

C243 129 248 133 258 141

C263 145 265 148 268 155

C271 160 275 166 277 168

C283 174 286 180 286 187

C286 194 282 211 279 215

C275 221 259 226 246 225

C241 224 239 224 236 221

C233 219 229 217 225 215

C221 213 218 211 216 208

C211 201 208 199 203 196

C190 190 187 187 182 174

L179 167

L177 167

C175 167 159 178 153 183

C150 186 146 189 143 190

C139 191 136 193 130 198

C126 203 121 206 117 208

C113 209 110 212 109 213

C107 214 102 218 97 222

C87 230 83 235 80 245

C76 255 74 257 70 252

Z

"/>

<path fill="#ffffff" stroke="none" d="
"/>

</svg>

