<?xml version="1.0" standalone="no"?>

<!DOCTYPE svg PUBLIC "-//W3C//DTD SVG 20010904//EN"

 "http://www.w3.org/TR/2001/REC-SVG-20010904/DTD/svg10.dtd">

<svg version="1.0" xmlns="http://www.w3.org/2000/svg"

 width="213.000000pt" height="300.000000pt" viewBox="0 0 213.000000 300.000000"

 preserveAspectRatio="xMidYMid meet">

<path fill="#000000" stroke="none" d="
M92 299

C92 298 91 295 91 293

C90 290 88 284 86 279

C82 272 82 268 78 247

C76 234 73 221 72 217

C69 208 58 171 57 163

C56 160 54 151 53 143

C52 130 52 129 53 117

C55 105 56 97 54 95

L54 94

L51 96

C50 98 43 103 36 108

C23 118 21 120 17 132

C13 142 11 145 6 146

C2 146 0 144 0 137

C0 131 1 130 8 121

C10 119 13 114 15 110

C20 101 35 80 42 73

C56 57 60 51 59 46

C59 42 60 40 67 40

C74 39 74 38 75 30

C77 20 83 10 92 6

C97 4 101 5 104 8

C106 9 109 11 111 12

C117 16 123 26 124 36

C125 44 126 45 136 45

C145 45 147 44 154 38

C158 35 162 31 163 30

C166 28 166 26 168 18

C168 13 170 8 170 6

C173 0 186 -2 194 2

C198 4 204 10 204 14

C205 18 202 35 199 39

C198 40 197 43 196 44

L195 46

L196 48

C197 48 199 49 200 49

C204 49 208 51 211 55

C213 58 213 60 213 84

C212 98 212 110 211 112

C211 114 210 120 209 126

C208 132 207 138 206 140

C205 141 204 145 204 147

C203 149 200 157 196 165

C190 178 190 178 191 190

C192 206 192 212 190 230

C189 240 188 247 187 250

C185 254 185 257 185 261

C186 263 185 267 185 268

L184 270

L179 270

C176 270 173 271 172 271

C166 274 161 267 161 257

C161 254 160 252 158 250

C156 247 156 246 155 236

C154 230 153 221 152 218

C151 213 151 208 151 201

C152 189 151 178 148 172

C148 169 146 162 144 155

C142 143 142 141 139 138

C136 135 136 135 136 129

C137 126 138 121 139 118

C142 112 145 78 143 76

C141 73 137 74 130 78

C123 83 121 85 115 97

C115 98 114 101 113 103

C111 106 111 106 113 114

C115 122 115 127 113 135

C112 139 112 141 113 148

C116 161 116 169 115 181

C114 193 115 203 119 222

C119 226 121 238 122 247

C123 257 124 266 125 266

C125 267 124 269 123 271

C122 273 121 276 121 280

C121 288 117 295 112 296

C110 296 108 296 106 295

C103 294 103 295 100 297

C97 300 94 301 92 299

Z

M106 281

C108 277 107 253 104 241

C102 229 98 220 96 219

L95 219

L95 226

C95 236 97 249 100 263

C101 269 102 276 102 278

C102 283 104 285 106 281

Z

"/>

<path fill="#ffffff" stroke="none" d="
"/>

</svg>

