<?xml version="1.0" standalone="no"?>

<!DOCTYPE svg PUBLIC "-//W3C//DTD SVG 20010904//EN"

 "http://www.w3.org/TR/2001/REC-SVG-20010904/DTD/svg10.dtd">

<svg version="1.0" xmlns="http://www.w3.org/2000/svg"

 width="296.000000pt" height="300.000000pt" viewBox="0 0 296.000000 300.000000"

 preserveAspectRatio="xMidYMid meet">

<path fill="#000000" stroke="none" d="
M155 299

C154 299 153 298 152 298

C150 297 141 295 128 291

C124 290 120 289 118 288

C114 287 109 287 94 286

C77 286 75 286 71 288

C63 291 60 291 58 289

C55 286 55 283 62 278

C65 275 67 272 67 271

C67 271 66 269 64 266

C60 260 60 254 65 246

C68 242 71 237 72 234

C77 225 80 220 84 216

C87 212 96 200 96 198

C96 198 97 196 99 194

C102 189 102 187 99 184

C94 180 94 159 99 152

C102 148 103 143 101 140

C101 140 96 139 89 139

C77 139 76 139 70 136

C66 134 61 131 56 126

C52 122 47 118 45 117

C41 115 35 109 35 106

C35 105 30 102 23 99

C16 97 15 97 10 98

C7 99 7 99 5 98

C4 96 4 96 5 92

L6 89

L6 89

C6 88 4 88 3 87

C-1 84 -1 80 3 76

C6 74 7 74 13 73

C19 73 20 73 24 76

C26 78 29 80 31 81

C33 82 36 83 38 84

C40 86 42 87 50 87

C59 87 60 87 62 89

C66 92 68 93 79 92

C84 92 90 92 93 92

C97 93 100 92 105 87

C108 84 109 82 109 78

C110 70 114 65 119 64

C121 64 123 63 124 63

L125 62

L124 56

C122 52 122 49 122 38

C123 20 126 13 136 4

C140 0 140 0 150 0

C155 0 160 1 161 2

C161 2 163 3 164 4

C170 8 178 25 178 33

C178 35 179 37 180 38

C182 40 183 42 183 46

C183 50 182 54 182 55

L181 57

L187 57

C196 57 201 60 206 72

C209 77 211 79 213 80

C217 82 217 82 222 80

C224 78 228 77 229 77

C231 77 234 75 238 71

C242 68 246 64 248 62

C251 60 252 58 253 55

C253 51 255 49 260 48

C262 48 265 46 267 44

C270 41 270 41 278 40

C283 40 287 40 289 41

L293 43

L293 45

C293 46 293 47 292 48

C291 48 291 49 291 50

L291 52

L292 52

C292 52 294 53 294 54

L296 55

L295 56

C295 56 292 58 288 59

C280 62 272 66 271 67

C271 68 270 73 270 80

C269 90 269 91 265 99

C261 107 258 110 248 117

C237 124 235 125 227 126

L219 126

L219 128

C218 130 218 135 218 141

C217 147 216 154 215 157

C214 161 213 164 213 164

C213 165 212 169 210 174

C208 181 207 183 202 188

C199 192 196 193 193 193

C187 195 187 195 186 208

C185 214 185 223 184 227

C183 233 183 235 185 240

C187 249 188 267 187 280

C185 297 182 300 166 300

C161 300 156 300 155 299

Z

"/>

<path fill="#ffffff" stroke="none" d="
"/>

</svg>

