<?xml version="1.0" standalone="no"?>

<!DOCTYPE svg PUBLIC "-//W3C//DTD SVG 20010904//EN"

 "http://www.w3.org/TR/2001/REC-SVG-20010904/DTD/svg10.dtd">

<svg version="1.0" xmlns="http://www.w3.org/2000/svg"

 width="133.000000pt" height="300.000000pt" viewBox="0 0 133.000000 300.000000"

 preserveAspectRatio="xMidYMid meet">

<path fill="#000000" stroke="none" d="
M75 297

C73 297 71 296 70 296

C67 297 49 294 46 293

C45 292 41 290 38 288

C35 285 30 282 28 281

C23 279 22 278 21 274

C21 272 18 268 16 265

C10 258 8 254 7 247

C7 243 7 240 8 237

C9 235 11 230 12 226

C13 221 15 216 15 215

C17 210 16 206 14 198

C12 193 11 187 10 183

C9 180 8 174 7 170

C6 161 6 158 8 155

C10 152 10 151 8 146

C6 140 5 132 8 127

C9 125 11 122 14 121

C20 117 22 111 20 101

C18 92 15 87 7 82

C5 80 2 78 2 77

C1 77 1 72 1 68

C0 59 0 59 4 54

C5 52 7 48 7 46

C8 40 11 36 18 31

C21 29 27 23 32 19

C38 11 40 9 48 6

C59 0 64 0 76 2

C88 5 92 7 95 13

C98 17 98 19 99 29

C100 41 104 58 108 65

C109 68 114 79 118 89

C122 100 126 109 129 112

C132 117 133 121 130 123

C129 123 125 124 122 125

C118 126 113 127 111 127

L108 129

L108 130

C108 130 110 133 113 136

C123 146 124 154 119 169

C117 177 117 178 117 209

C117 244 117 244 110 250

C107 253 105 255 105 256

C105 256 107 259 109 261

C113 266 115 269 115 272

C115 276 111 288 109 290

C106 293 100 294 96 294

C93 293 88 294 82 298

C79 299 77 299 75 297

Z

M96 247

C99 245 99 243 98 239

C96 236 96 232 96 225

C96 215 95 208 92 201

C91 199 90 195 90 192

C90 187 89 185 83 181

C78 178 73 172 64 162

C58 156 51 151 45 151

C41 151 34 155 33 158

C32 160 33 163 36 173

C41 188 48 201 59 215

C69 226 73 232 79 244

C82 249 84 253 84 254

L85 255

L89 251

C91 250 94 247 96 247

Z

M101 121

C105 118 110 112 110 110

C110 109 109 106 107 104

C105 102 100 92 94 81

C83 58 80 54 72 52

C66 50 62 51 59 55

C58 59 55 60 50 60

L46 60

L45 62

C44 66 42 81 42 89

C41 96 41 97 39 99

C37 101 35 103 34 108

C34 111 32 114 31 116

C31 117 30 119 30 119

L30 121

L31 122

C32 122 35 121 37 119

C39 117 43 115 46 113

C53 110 56 111 77 118

C85 121 93 123 95 123

C96 123 99 122 101 121

Z

"/>

<path fill="#ffffff" stroke="none" d="
"/>

</svg>

