<?xml version="1.0" standalone="no"?>

<!DOCTYPE svg PUBLIC "-//W3C//DTD SVG 20010904//EN"

 "http://www.w3.org/TR/2001/REC-SVG-20010904/DTD/svg10.dtd">

<svg version="1.0" xmlns="http://www.w3.org/2000/svg"

 width="300.000000pt" height="203.000000pt" viewBox="0 0 300.000000 203.000000"

 preserveAspectRatio="xMidYMid meet">

<path fill="#000000" stroke="none" d="
M57 194

C49 185 48 183 50 178

C53 174 57 150 56 149

C55 148 49 147 41 147

C15 146 9 142 7 126

C6 121 6 119 4 118

C0 115 0 111 3 104

C6 97 6 75 3 70

C3 68 1 67 1 67

L0 67

L0 62

C0 57 1 55 9 45

C13 41 18 34 21 31

C23 26 26 24 30 21

C38 17 41 17 47 22

C50 24 53 26 55 27

C59 29 61 32 63 38

C64 43 64 46 60 51

C59 53 59 54 60 56

C63 60 72 69 73 69

C79 69 88 66 95 63

C102 59 104 59 109 59

C115 59 116 59 117 61

L118 63

L116 65

C115 66 113 67 111 68

C106 70 105 71 106 74

L106 76

L103 77

C92 82 77 87 73 87

L68 87

L68 91

C68 95 68 96 66 98

C65 100 64 101 64 102

C64 103 62 105 60 107

L57 110

L63 116

C66 119 73 125 76 128

C83 135 83 135 83 140

C83 147 80 154 76 160

C69 167 67 180 71 185

C77 193 77 198 73 201

C68 205 66 204 57 194

Z

M194 186

C193 185 193 183 193 180

L194 175

L190 174

C187 174 184 174 181 174

C178 174 175 173 171 171

C168 170 162 168 158 168

C149 167 146 165 143 161

C142 159 142 158 143 154

C144 151 145 148 145 147

C147 146 150 146 152 148

C153 149 155 149 156 149

L159 148

L159 146

C159 145 158 144 157 143

C155 141 146 137 145 137

L144 138

L144 136

L143 135

L142 135

C141 135 140 134 139 134

C138 133 137 132 136 132

C133 132 129 128 129 125

C129 124 130 120 131 117

C133 110 133 108 128 98

C126 93 126 93 129 85

C131 80 133 73 134 68

C135 64 137 58 138 55

C139 53 140 48 141 45

C143 34 144 32 152 31

C154 30 156 28 158 26

C164 19 167 18 186 18

C207 18 210 17 236 7

C253 0 254 0 256 1

C258 3 259 3 261 2

C267 0 270 1 274 6

C278 10 279 10 283 10

C287 10 288 11 291 13

C297 19 298 22 300 40

C300 49 299 61 296 71

C295 75 293 80 292 83

C291 87 291 89 292 95

C293 98 293 107 294 114

C294 126 294 126 289 132

C283 138 277 144 268 149

C264 151 260 155 258 157

C253 162 245 166 241 166

C237 166 228 172 226 175

C225 177 224 178 224 178

C224 178 222 179 220 181

C218 183 214 184 210 185

C197 187 195 187 194 186

Z

M201 137

C202 137 205 134 207 130

C212 123 219 117 226 115

C228 114 234 114 239 114

C247 115 247 115 250 110

C253 106 254 103 256 93

C259 76 263 64 267 61

C268 60 271 56 273 52

C275 48 278 43 281 39

C285 33 286 31 284 28

L283 26

L279 26

C276 27 275 27 271 24

C265 19 256 20 243 28

C240 29 233 32 229 34

C224 35 217 38 214 39

C211 41 205 44 200 46

C195 48 192 50 191 51

C191 53 189 55 187 58

C185 60 183 63 182 65

C182 70 175 86 173 89

C171 92 170 97 172 102

C180 126 182 134 184 135

C185 136 189 137 197 138

C198 138 199 138 201 137

Z

"/>

<path fill="#ffffff" stroke="none" d="
"/>

</svg>

