<?xml version="1.0" standalone="no"?>

<!DOCTYPE svg PUBLIC "-//W3C//DTD SVG 20010904//EN"

 "http://www.w3.org/TR/2001/REC-SVG-20010904/DTD/svg10.dtd">

<svg version="1.0" xmlns="http://www.w3.org/2000/svg"

 width="203.000000pt" height="300.000000pt" viewBox="0 0 203.000000 300.000000"

 preserveAspectRatio="xMidYMid meet">

<path fill="#000000" stroke="none" d="
M74 298

C72 297 68 295 64 293

C60 292 53 289 50 287

C46 285 38 282 32 280

C25 278 19 275 18 274

C10 268 8 248 13 232

C14 228 16 222 16 220

C17 216 18 214 21 212

C24 209 25 208 25 206

C25 204 26 202 26 201

C29 199 39 196 41 196

C43 197 51 189 52 184

C53 180 56 175 59 175

L60 175

L59 181

C59 184 58 189 56 191

C53 198 50 205 50 207

C50 208 49 211 48 212

C47 214 46 217 45 218

C45 219 44 221 43 223

C42 224 41 227 41 230

C40 233 39 238 38 240

C37 242 36 245 36 246

C36 249 44 257 52 263

C55 265 58 267 58 268

C59 270 62 273 66 275

C69 277 74 281 76 283

C80 286 80 286 86 285

C89 284 93 284 93 285

L94 285

L94 288

C92 293 90 295 84 298

C78 300 77 300 74 298

Z

M164 238

C161 237 157 235 156 235

C154 234 153 233 153 230

C153 229 152 226 151 225

C150 224 149 222 149 220

C149 212 146 204 141 195

C137 187 136 186 133 186

C130 186 128 187 125 189

C122 190 119 193 116 194

C114 195 109 199 104 204

C100 208 95 212 94 212

C93 212 91 213 91 215

C90 216 88 217 81 217

C73 218 70 217 70 215

L70 214

L73 213

C78 212 86 207 88 203

C90 201 95 196 100 192

C110 184 120 173 121 168

C121 166 122 164 122 163

L123 161

L121 161

C120 161 119 160 118 160

L116 158

L120 151

C122 148 126 143 128 141

L132 137

L131 135

C129 132 123 130 115 129

C110 129 106 128 105 127

C104 127 102 126 100 125

L97 125

L97 123

C97 122 98 121 98 120

C100 119 109 119 115 120

C127 123 141 125 143 124

C145 124 147 124 149 125

C153 128 156 127 157 125

C158 124 160 122 162 121

C168 117 175 119 178 125

C180 129 181 130 188 128

C190 127 194 126 196 126

C199 126 203 129 203 132

L203 134

L201 134

C200 135 198 134 197 134

C194 132 194 132 191 134

C189 135 188 136 188 136

L188 137

L178 140

C173 142 168 143 167 143

C164 143 157 151 154 158

C150 168 150 174 152 181

C153 184 155 189 155 193

C156 197 158 202 158 205

C159 208 160 214 161 218

C162 227 164 231 170 235

C172 236 173 238 173 239

L173 241

L171 241

C170 241 167 240 164 238

Z

M48 130

L47 128

L44 130

C41 131 39 130 38 127

C37 119 35 114 32 111

C30 110 28 107 27 105

C26 103 23 100 21 98

C14 91 12 85 16 81

C17 80 21 78 25 76

C28 74 33 71 35 69

C39 65 39 64 39 61

C38 59 39 56 41 52

C43 48 43 45 43 43

C42 39 41 38 28 35

C24 34 18 32 15 31

C12 29 8 28 7 28

C3 28 0 25 0 21

L0 17

L2 17

L4 17

L4 16

L4 15

L5 15

C6 15 8 16 9 18

C12 23 17 24 30 25

C37 25 43 25 46 24

L50 23

L49 15

C49 9 49 8 51 5

C54 0 57 -1 62 1

C68 3 70 8 70 15

L69 21

L68 22

L67 22

L67 23

L67 25

L71 26

C77 27 86 26 91 24

C93 23 98 22 102 21

C107 20 109 19 112 17

C113 15 115 14 116 14

L117 14

L117 16

C117 17 117 18 118 19

C119 19 119 21 119 23

L119 26

L114 26

C110 26 108 27 107 29

C105 31 103 32 100 33

C98 33 95 34 93 35

C91 36 87 38 83 39

C76 41 76 41 75 50

C74 55 73 61 72 63

C70 69 72 78 75 82

C81 88 85 94 85 97

C85 98 84 101 83 102

C80 105 69 113 64 117

C59 120 55 124 54 128

L52 132

L51 132

C50 132 48 131 48 130

Z

M62 104

C64 103 66 100 67 99

L69 97

L67 95

C62 89 51 86 40 88

C36 89 32 89 32 90

L31 90

L36 96

C41 104 46 107 53 107

C57 107 58 106 62 104

Z

M139 79

C138 79 135 77 132 76

C129 74 127 73 124 73

C120 73 119 72 115 69

C110 65 110 64 110 59

C110 50 116 45 124 47

C129 48 130 48 130 45

C130 43 131 41 132 40

C133 38 134 38 157 40

C161 40 165 40 169 39

C175 38 175 38 178 41

C181 43 185 53 185 57

C185 58 186 60 188 61

C191 64 191 68 187 73

C185 77 185 77 176 76

C146 75 149 75 146 78

C143 80 143 80 139 79

Z

"/>

<path fill="#ffffff" stroke="none" d="
"/>

</svg>

