<?xml version="1.0" standalone="no"?>

<!DOCTYPE svg PUBLIC "-//W3C//DTD SVG 20010904//EN"

 "http://www.w3.org/TR/2001/REC-SVG-20010904/DTD/svg10.dtd">

<svg version="1.0" xmlns="http://www.w3.org/2000/svg"

 width="333.000000pt" height="300.000000pt" viewBox="0 0 333.000000 300.000000"

 preserveAspectRatio="xMidYMid meet">

<path fill="#000000" stroke="none" d="
M109 294

C100 287 83 277 76 274

C69 271 34 259 29 259

C20 257 17 255 17 250

C17 249 18 244 20 239

C24 227 24 225 14 218

C8 213 4 209 1 203

C0 202 0 200 1 195

C2 192 3 187 3 185

C3 179 5 175 13 162

C19 152 20 149 21 141

C22 137 24 129 25 124

C27 117 27 113 26 107

C26 100 26 100 29 93

C34 84 37 81 47 79

C52 78 54 77 55 75

C55 73 57 72 58 71

C59 71 61 70 61 68

C62 67 63 66 65 65

C68 63 86 47 89 42

C94 36 99 34 108 34

C116 33 116 33 118 30

C120 26 123 24 128 22

C134 20 140 20 146 25

C150 28 151 28 156 28

C160 28 165 27 167 27

C171 26 172 25 174 21

C176 16 178 14 183 11

C186 10 190 7 194 5

C202 -1 205 -2 209 4

C213 9 216 11 228 18

C233 21 239 24 240 26

C242 27 248 31 254 35

C264 41 267 42 279 45

C287 48 295 50 298 52

C302 54 308 60 309 64

C310 65 312 71 315 76

C319 85 319 86 319 99

C320 113 323 128 327 131

C332 137 332 142 326 150

C323 154 323 156 328 160

C331 164 333 167 333 172

C333 176 333 177 327 183

C318 191 309 198 305 198

C301 199 301 200 299 203

C298 206 297 208 296 209

C295 210 293 212 292 214

C291 217 289 220 287 222

C285 225 285 225 279 225

C265 225 255 228 249 235

C248 237 245 239 244 240

C242 242 237 246 232 250

C228 254 222 260 219 262

C216 264 214 267 214 267

C214 269 208 274 206 276

C204 276 198 277 191 278

C181 278 180 278 178 281

C176 283 174 284 171 284

C169 285 162 287 157 290

C149 294 146 295 144 295

C142 294 140 295 137 297

C133 299 130 299 125 300

C118 300 118 300 109 294

Z

M133 251

C133 250 134 249 134 248

C134 247 135 245 136 243

C138 241 140 241 149 239

C154 238 164 236 171 235

C185 231 186 231 189 234

C190 235 192 236 192 236

L193 236

L194 234

C194 233 197 229 200 226

C203 223 206 219 208 217

C211 212 216 210 226 212

C240 215 261 212 266 207

C267 206 270 200 271 193

C273 186 276 176 278 170

C283 156 283 152 278 143

C269 128 264 113 264 100

C264 97 264 96 267 94

C269 94 271 92 271 91

C273 87 270 83 258 75

C245 67 235 57 230 50

C227 44 208 26 203 23

C200 22 200 22 193 25

C185 30 183 32 178 39

C174 45 172 47 167 47

C161 47 158 49 155 54

C153 56 151 58 150 58

C146 58 139 61 136 63

C134 64 130 66 128 66

C122 67 120 69 120 73

C120 78 117 88 114 92

C112 96 106 101 100 104

C97 105 94 106 88 106

C79 107 72 109 67 115

C60 121 51 141 49 151

C49 155 47 159 41 168

C37 174 33 180 32 182

C31 184 27 200 27 203

C27 205 33 217 37 222

C39 224 41 225 48 228

C53 229 62 232 68 234

C74 236 82 238 84 239

C86 239 92 241 96 243

C100 245 105 248 107 248

C116 252 131 253 133 251

Z

"/>

<path fill="#ffffff" stroke="none" d="
"/>

</svg>

