<?xml version="1.0" standalone="no"?>

<!DOCTYPE svg PUBLIC "-//W3C//DTD SVG 20010904//EN"

 "http://www.w3.org/TR/2001/REC-SVG-20010904/DTD/svg10.dtd">

<svg version="1.0" xmlns="http://www.w3.org/2000/svg"

 width="245.000000pt" height="300.000000pt" viewBox="0 0 245.000000 300.000000"

 preserveAspectRatio="xMidYMid meet">

<path fill="#000000" stroke="none" d="
M24 298

C23 296 24 293 26 284

C29 271 29 269 26 262

C25 259 24 254 23 240

C22 230 22 218 22 213

C22 206 21 200 18 188

C16 180 14 170 13 167

C12 162 11 161 10 160

C9 160 6 157 4 154

C0 148 0 148 1 128

C1 117 1 104 1 99

C1 94 2 82 2 73

C4 54 3 56 12 44

L14 41

L11 37

C7 31 7 25 11 20

C15 15 24 9 29 8

C31 8 36 6 40 4

C47 0 54 -1 58 1

C59 1 62 5 66 9

C72 17 72 17 79 17

C83 17 86 18 89 19

C94 21 113 39 115 43

C117 47 121 50 131 55

C138 58 140 59 145 59

C154 59 157 58 158 54

C158 52 161 48 163 44

C166 41 168 37 168 36

C168 35 169 33 170 31

C173 29 173 29 181 29

C189 29 190 29 195 32

C202 35 205 39 205 46

C206 51 204 59 199 65

C193 72 193 75 193 92

C193 107 193 107 196 111

C200 116 203 123 203 126

C203 129 202 130 198 134

C195 136 193 139 193 140

C193 141 195 144 197 148

C205 159 206 167 200 180

C198 184 197 188 196 189

L196 191

L200 191

C202 190 207 189 211 187

C217 185 219 184 221 181

C222 178 225 176 227 176

C228 175 231 173 233 171

C237 167 238 167 242 171

C244 173 245 174 245 177

C245 180 244 181 237 188

C232 192 222 199 215 204

C193 219 180 223 172 216

C170 215 169 212 168 210

L167 207

L166 207

L165 207

L165 209

C161 227 156 239 149 250

C148 252 146 256 146 258

C145 265 143 267 137 267

C135 268 129 270 125 272

C117 275 115 275 113 274

L111 274

L111 272

C111 269 115 264 123 258

C130 253 133 249 135 240

C136 237 138 230 139 225

C141 220 144 205 147 192

C150 179 153 165 154 160

C158 150 157 146 153 141

C147 136 137 120 136 116

C135 111 135 106 138 99

C139 94 138 92 133 91

C128 90 116 78 110 67

C107 61 103 55 101 53

C100 51 98 48 98 47

L98 44

L96 44

L95 43

L95 39

C96 34 94 32 90 32

C88 32 85 31 83 31

L80 30

L79 31

L79 32

L76 29

L74 25

L72 25

L71 26

L70 30

C70 32 69 35 68 36

C67 37 65 40 64 41

C62 44 63 46 69 47

C76 49 80 54 82 62

C84 70 84 107 82 125

C81 137 81 141 82 147

C83 154 83 154 80 160

C78 163 76 167 75 168

C73 169 72 170 71 177

C70 182 69 189 67 194

C65 202 64 204 65 209

C66 212 66 223 66 234

C65 252 65 254 63 258

C62 260 61 265 60 268

C56 289 54 295 48 299

C46 300 44 300 41 299

C38 298 37 298 35 299

C34 299 31 300 29 300

C26 300 25 300 24 298

Z

M45 264

C45 261 45 259 44 259

L43 258

L42 261

C41 265 41 266 42 270

L43 272

L44 271

C45 270 45 267 45 264

Z

M30 27

C31 27 31 24 31 22

L31 19

L30 20

C29 20 29 23 28 25

L28 29

L29 29

L30 29

L30 27

Z

"/>

<path fill="#ffffff" stroke="none" d="
"/>

</svg>

