<?xml version="1.0" standalone="no"?>

<!DOCTYPE svg PUBLIC "-//W3C//DTD SVG 20010904//EN"

 "http://www.w3.org/TR/2001/REC-SVG-20010904/DTD/svg10.dtd">

<svg version="1.0" xmlns="http://www.w3.org/2000/svg"

 width="272.000000pt" height="300.000000pt" viewBox="0 0 272.000000 300.000000"

 preserveAspectRatio="xMidYMid meet">

<path fill="#000000" stroke="none" d="
M181 299

C177 297 172 293 153 268

C149 262 146 261 140 260

C134 260 133 260 128 263

C121 266 113 273 106 281

C92 296 87 299 79 297

C77 297 74 296 73 296

C66 294 55 280 54 270

C53 268 52 262 51 258

C50 253 49 245 48 241

C47 237 46 232 46 231

C46 229 45 226 44 223

C43 220 42 219 37 216

C28 212 23 211 14 211

C4 211 0 210 0 206

C0 204 2 200 4 198

C4 197 5 196 6 196

C7 194 12 190 16 189

C19 189 36 184 43 181

C45 181 51 180 55 180

C65 180 67 181 69 190

C71 196 71 198 66 203

C63 206 63 206 67 221

C70 231 72 236 74 236

C76 236 81 230 84 224

C86 219 88 216 88 215

C88 215 90 209 91 204

C93 198 95 193 95 192

C95 192 94 188 92 185

C91 182 89 178 89 177

C88 175 85 171 81 167

C77 162 74 158 73 155

C70 145 73 135 82 117

C84 114 87 108 89 103

C91 98 94 94 94 93

C97 88 103 77 104 72

C106 68 106 64 106 54

C106 40 107 42 97 30

C93 24 89 16 89 11

C89 9 90 6 92 4

C94 0 94 0 99 0

C104 0 105 1 109 8

C111 11 113 13 114 13

C114 14 118 12 122 10

C130 6 136 5 143 9

C148 11 160 20 165 26

C167 28 169 29 170 29

C171 29 174 27 176 25

C182 20 191 16 196 16

C199 16 202 19 202 22

C202 26 198 32 192 36

C189 38 185 40 184 41

C178 45 176 49 175 57

C175 61 173 66 172 69

C169 77 173 88 182 98

C190 107 203 133 205 144

C209 163 208 168 197 178

C188 187 183 194 183 197

C183 198 184 199 186 199

C190 202 194 205 195 208

C195 209 196 213 195 216

C195 220 195 222 197 225

C201 232 203 231 206 224

C209 219 208 216 206 209

C203 203 203 192 205 190

C206 189 212 189 234 189

C262 189 262 189 267 191

C271 194 272 194 272 199

C272 205 270 207 261 208

C255 209 248 212 239 217

C232 221 231 222 228 234

C228 238 226 243 225 245

C224 248 222 257 219 273

C216 289 211 296 202 299

C198 300 183 300 181 299

Z

"/>

<path fill="#ffffff" stroke="none" d="
"/>

</svg>

