<?xml version="1.0" standalone="no"?>

<!DOCTYPE svg PUBLIC "-//W3C//DTD SVG 20010904//EN"

 "http://www.w3.org/TR/2001/REC-SVG-20010904/DTD/svg10.dtd">

<svg version="1.0" xmlns="http://www.w3.org/2000/svg"

 width="266.000000pt" height="300.000000pt" viewBox="0 0 266.000000 300.000000"

 preserveAspectRatio="xMidYMid meet">

<path fill="#000000" stroke="none" d="
M194 299

C193 298 188 295 183 290

C170 279 168 277 168 276

C168 275 164 266 152 240

C151 236 146 225 141 215

C134 197 134 197 125 187

C115 177 112 176 107 179

C102 181 93 190 86 199

C83 204 77 211 74 215

C71 219 66 225 64 230

C61 234 56 243 51 249

C47 255 42 262 41 264

C38 269 35 272 31 272

C29 273 24 275 22 276

C15 281 10 281 7 276

C5 273 7 270 13 266

C21 261 23 258 29 245

C32 239 39 228 43 220

C53 204 74 163 78 153

C80 147 81 141 83 126

C85 116 87 105 88 102

C88 99 89 95 89 94

C89 91 88 90 84 89

C79 87 78 87 67 88

C53 89 39 88 24 86

C17 84 15 84 11 85

C6 87 5 87 2 84

C-1 82 -1 76 2 73

C5 71 12 68 17 68

C19 68 23 67 25 67

C28 66 36 64 43 63

C50 62 67 58 81 54

C94 51 109 47 113 47

C122 46 123 45 121 37

C119 33 119 31 120 29

C121 27 122 22 122 18

C123 10 124 8 127 6

C131 3 145 0 152 0

C159 0 162 2 166 11

C169 18 169 19 166 30

C165 33 165 36 166 38

C167 40 167 41 165 44

C164 47 162 48 158 49

L154 51

L154 52

L154 54

L158 56

C161 57 168 62 174 66

C185 74 185 74 213 78

C228 81 244 83 248 83

C256 83 261 85 264 89

C267 92 267 96 263 99

C261 101 260 101 232 101

C203 100 203 100 192 97

C186 95 180 93 179 93

C176 93 175 95 169 108

C164 117 163 121 160 131

C159 137 157 146 156 150

C153 160 153 163 156 171

C157 174 159 182 160 189

C162 201 162 203 164 205

C167 207 169 210 169 213

C169 214 170 218 172 221

C174 224 177 232 179 241

C186 269 187 272 194 280

C205 292 207 295 205 297

L204 300

L200 300

C198 300 195 299 194 299

Z

"/>

<path fill="#ffffff" stroke="none" d="
"/>

</svg>

