<?xml version="1.0" standalone="no"?>

<!DOCTYPE svg PUBLIC "-//W3C//DTD SVG 20010904//EN"

 "http://www.w3.org/TR/2001/REC-SVG-20010904/DTD/svg10.dtd">

<svg version="1.0" xmlns="http://www.w3.org/2000/svg"

 width="127.000000pt" height="300.000000pt" viewBox="0 0 127.000000 300.000000"

 preserveAspectRatio="xMidYMid meet">

<path fill="#000000" stroke="none" d="
M70 298

C66 296 59 293 54 290

C46 286 43 285 36 285

C32 284 27 283 26 283

C20 281 13 267 10 251

C9 246 7 239 6 237

C5 233 5 228 9 225

C11 223 12 220 10 218

C9 217 8 216 8 214

C8 212 9 210 15 206

C22 201 22 201 22 196

C22 192 23 191 25 190

C27 189 29 189 32 189

L35 190

L36 193

L36 196

L38 194

C40 193 42 191 44 190

L48 189

L45 188

C40 188 38 187 34 184

C32 182 30 180 29 180

C28 179 26 178 25 176

C25 174 22 170 20 168

C16 163 12 153 9 142

C7 136 6 134 3 131

C0 128 0 128 0 122

C1 112 2 111 6 110

L10 108

L10 99

C10 94 10 89 10 87

C11 85 11 83 10 83

C8 80 9 78 13 77

C17 75 18 73 19 65

C20 62 21 57 23 53

C27 41 27 42 24 36

C20 27 19 24 22 16

C25 9 27 7 33 3

C36 1 39 0 43 0

C49 0 60 3 68 7

C74 10 87 20 90 26

C91 28 94 31 96 32

C98 33 100 34 100 36

C100 37 101 39 101 40

C104 44 101 52 95 55

C93 56 91 57 91 57

C91 58 91 64 91 70

C91 80 90 82 89 84

L87 86

L90 89

C91 90 93 94 94 97

C95 100 98 105 99 108

C101 111 104 116 105 119

C107 122 110 126 112 129

C117 134 127 151 127 153

C127 154 124 157 122 159

C119 161 115 166 112 170

C107 178 107 178 96 179

L85 179

L87 182

C88 183 94 186 99 189

C111 195 113 198 117 206

C120 215 120 215 117 225

C115 229 113 236 112 240

C111 247 111 248 113 256

C114 260 115 267 115 271

C116 277 116 278 114 280

C113 281 112 283 112 284

C112 286 109 289 108 289

C107 289 105 291 102 293

C100 295 96 297 94 298

C88 301 78 300 70 298

Z

M96 283

C98 283 100 281 101 279

C104 274 103 270 95 249

C94 246 94 243 94 236

C95 227 95 227 87 219

C82 214 77 210 74 208

C70 206 70 206 64 208

C58 209 44 209 38 208

L35 207

L36 210

C36 212 36 216 35 219

C31 231 31 231 32 233

C33 235 35 239 36 244

C36 249 38 254 39 255

C42 259 82 283 88 284

C90 284 92 285 92 285

C92 285 94 284 96 283

Z

M107 159

L114 151

L108 144

C103 136 99 133 93 129

C89 127 88 127 85 128

C82 129 82 129 80 127

C78 126 75 125 57 123

C52 123 46 121 44 121

C42 120 36 119 32 119

L25 118

L25 121

C25 122 26 125 26 127

L27 131

L33 130

C38 130 39 130 41 132

C44 135 45 138 42 147

C42 150 41 153 41 155

L41 157

L46 157

C48 158 52 159 53 159

C54 160 57 161 62 161

C67 161 71 162 74 163

C80 166 88 167 95 167

C100 167 100 166 107 159

Z

M54 88

C59 86 64 85 65 84

L68 83

L67 82

L67 81

L68 79

C70 78 78 79 80 81

L81 82

L82 82

L83 81

L80 72

C79 67 77 61 77 59

C76 56 75 53 74 51

C72 49 71 46 70 45

C69 40 54 34 51 37

C51 38 50 41 49 45

C46 52 45 54 41 52

C40 52 39 51 39 51

L38 51

L34 63

C31 69 29 76 29 78

C29 82 32 87 36 91

C38 93 39 93 42 91

C44 91 49 89 54 88

Z

"/>

<path fill="#ffffff" stroke="none" d="
"/>

</svg>

