<?xml version="1.0" standalone="no"?>

<!DOCTYPE svg PUBLIC "-//W3C//DTD SVG 20010904//EN"

 "http://www.w3.org/TR/2001/REC-SVG-20010904/DTD/svg10.dtd">

<svg version="1.0" xmlns="http://www.w3.org/2000/svg"

 width="248.000000pt" height="300.000000pt" viewBox="0 0 248.000000 300.000000"

 preserveAspectRatio="xMidYMid meet">

<path fill="#000000" stroke="none" d="
M90 298

C85 297 73 290 70 288

C69 287 67 284 66 282

C65 280 64 278 64 278

C63 278 60 278 57 278

C47 278 42 275 42 268

C42 265 42 262 42 261

C41 260 41 257 42 255

L43 252

L41 250

C40 249 37 248 35 248

C31 248 29 245 29 238

C29 234 28 228 26 222

C24 216 24 210 23 199

C23 189 22 182 21 180

C20 177 18 171 16 166

C14 155 9 144 3 137

C0 133 0 131 0 126

C0 118 2 111 7 106

C10 102 11 100 11 98

C11 94 12 93 15 89

C23 80 26 76 27 74

C28 73 31 70 34 68

C38 65 44 58 48 52

L50 49

L48 48

C44 47 45 43 53 35

C56 32 58 29 58 28

C58 27 63 22 64 22

C65 22 67 24 70 27

L75 32

L76 29

C77 25 80 23 86 21

C88 21 91 20 93 19

C94 17 96 16 98 15

C102 13 109 15 112 19

C114 23 114 23 118 20

C120 19 122 17 124 17

C126 17 127 15 130 11

C133 3 138 0 142 2

C143 3 144 3 146 2

C150 -1 157 0 162 3

C169 6 172 8 175 8

C177 9 180 11 183 13

C188 18 191 20 197 22

C202 23 209 28 220 37

C223 40 228 43 229 44

C233 46 238 51 239 56

C240 59 240 61 239 67

C237 78 238 89 244 111

C246 119 246 125 245 130

C242 135 243 137 246 141

C249 147 249 155 244 164

C242 167 240 172 239 173

C238 174 234 181 230 188

C224 200 224 200 224 210

C224 224 218 262 214 267

C213 268 212 271 211 274

C210 278 206 283 202 284

C201 285 198 284 195 284

C188 282 185 278 185 273

C185 268 184 267 178 268

C174 268 171 268 168 266

L164 264

L163 265

C163 266 162 267 162 268

C162 275 151 287 145 289

C140 289 129 289 125 287

L122 286

L118 289

C116 292 112 295 110 297

C106 300 104 300 99 300

C96 300 92 299 90 298

Z

M72 231

C75 229 78 229 91 228

L105 228

L105 226

C105 226 105 225 104 225

C103 224 103 221 103 218

C103 213 103 212 106 209

C111 205 117 205 123 209

C125 211 130 213 133 213

C144 216 147 218 149 223

C151 228 153 229 161 227

C164 226 170 225 174 225

L181 225

L182 224

C182 223 182 217 181 211

C179 189 179 185 181 179

C182 177 183 173 183 171

C183 168 184 163 184 159

C185 154 185 151 185 150

C184 148 183 146 183 144

C183 140 182 139 180 138

C175 136 175 135 172 105

C171 95 171 90 172 87

C173 81 173 82 163 69

C160 64 155 57 152 53

C145 43 144 42 140 49

C137 55 136 57 130 59

L126 61

L126 64

C127 67 125 71 119 74

C116 76 111 79 109 80

C105 83 104 83 98 83

C94 83 89 83 88 83

L85 83

L83 89

C82 93 81 97 79 101

C73 108 55 127 51 129

C48 131 46 133 45 136

C43 140 43 141 43 149

C44 158 45 159 49 167

C50 168 51 172 52 175

C52 179 52 180 50 183

C47 186 47 191 50 201

C51 205 53 212 55 217

C58 228 58 229 62 231

C66 234 68 233 72 231

Z

M104 62

L104 61

L103 62

C102 63 101 63 101 64

L101 64

L103 63

L104 63

L104 62

Z

M111 58

L112 56

L111 56

C110 56 109 57 108 58

L107 59

L108 59

C109 59 110 58 111 58

Z

M137 39

C138 37 140 31 140 29

C140 27 137 25 134 26

L132 26

L132 29

C132 31 131 33 128 35

L125 38

L126 39

C127 41 128 41 131 40

C134 40 136 39 137 39

Z

M162 28

C162 26 162 23 163 22

L164 20

L162 20

C160 19 153 19 152 20

C151 22 158 32 161 32

L163 31

L162 28

Z

"/>

<path fill="#ffffff" stroke="none" d="
"/>

</svg>

