<?xml version="1.0" standalone="no"?>

<!DOCTYPE svg PUBLIC "-//W3C//DTD SVG 20010904//EN"

 "http://www.w3.org/TR/2001/REC-SVG-20010904/DTD/svg10.dtd">

<svg version="1.0" xmlns="http://www.w3.org/2000/svg"

 width="236.000000pt" height="300.000000pt" viewBox="0 0 236.000000 300.000000"

 preserveAspectRatio="xMidYMid meet">

<path fill="#000000" stroke="none" d="
M3 298

C2 297 1 296 1 294

C1 290 4 287 12 282

C14 281 19 277 22 273

C27 268 28 267 28 264

C28 259 29 256 41 241

C47 233 53 224 55 219

C57 214 61 209 63 206

C69 200 75 186 78 176

C79 172 81 166 83 164

C84 161 85 158 85 157

C85 155 86 153 87 151

C91 146 91 143 89 137

C85 127 85 126 88 119

C91 113 91 111 92 103

C92 91 92 90 84 90

C80 91 79 91 76 88

C72 85 71 80 73 76

C74 74 77 70 80 67

C83 63 86 60 86 60

C86 57 94 48 100 44

C107 38 110 38 119 41

C125 43 133 44 135 42

C138 40 141 34 141 30

C141 27 142 22 143 18

C145 10 150 5 157 2

C163 -1 172 -1 178 2

C188 7 196 20 195 30

C194 36 193 37 184 44

C181 46 170 61 170 63

C170 63 172 65 174 67

C181 72 181 73 181 81

C181 90 183 99 186 100

C187 101 189 100 195 96

C198 94 202 92 202 92

C203 92 205 90 208 88

C219 78 222 76 228 78

C234 80 235 81 235 84

C235 88 232 91 225 94

C219 97 218 98 217 102

C215 110 189 127 180 127

C177 127 168 123 167 120

C166 119 165 119 165 119

L164 119

L164 124

L164 128

L165 128

C165 128 167 129 168 130

C170 132 171 134 171 137

C171 144 174 149 180 154

C183 156 186 158 186 158

C187 158 190 160 193 162

C196 164 201 167 204 169

C213 174 217 183 214 191

C213 195 209 201 202 209

C197 214 195 216 194 224

C193 231 190 237 187 238

C185 238 183 239 180 238

C174 237 172 241 170 258

C168 274 163 278 158 267

C157 265 156 260 156 255

C155 250 154 244 153 241

C151 234 151 232 157 229

C161 226 165 220 176 201

L181 192

L179 190

C178 189 175 188 173 187

C161 184 147 181 140 180

C132 180 131 180 126 182

C123 184 119 187 116 190

C105 202 87 224 78 237

C61 260 49 275 46 275

C46 275 43 277 41 280

C38 282 35 284 34 284

C32 284 21 290 17 294

C11 300 7 301 3 298

Z

"/>

<path fill="#ffffff" stroke="none" d="
"/>

</svg>

