<?xml version="1.0" standalone="no"?>

<!DOCTYPE svg PUBLIC "-//W3C//DTD SVG 20010904//EN"

 "http://www.w3.org/TR/2001/REC-SVG-20010904/DTD/svg10.dtd">

<svg version="1.0" xmlns="http://www.w3.org/2000/svg"

 width="91.000000pt" height="300.000000pt" viewBox="0 0 91.000000 300.000000"

 preserveAspectRatio="xMidYMid meet">

<path fill="#000000" stroke="none" d="
M43 297

C41 295 41 294 42 292

C42 290 42 286 42 283

C41 253 42 239 44 223

C46 208 46 206 45 200

C44 196 42 192 41 189

C40 187 39 185 39 184

C39 183 38 179 37 175

L36 168

L34 168

C34 168 33 169 32 170

C31 171 26 171 23 170

C21 169 19 164 19 160

C20 159 23 154 26 150

C32 141 32 143 29 122

C28 116 27 107 26 102

C25 95 24 92 21 88

C18 83 18 82 18 79

C19 77 19 73 20 69

L20 63

L19 63

C18 63 15 64 12 64

C7 66 4 65 2 61

C-1 57 0 53 3 45

C4 41 5 37 4 36

L4 33

L6 32

L7 32

L10 35

C11 36 12 38 12 39

C13 42 14 42 19 39

C22 37 23 36 26 36

C29 36 31 36 32 36

L33 36

L33 34

C33 33 32 31 31 29

C28 25 28 24 30 17

C31 11 36 3 39 1

C43 -1 48 0 51 3

C54 5 54 7 55 11

C55 14 56 19 57 21

C58 25 58 26 56 29

C55 30 54 33 54 33

L54 35

L56 35

C61 35 70 38 74 41

C76 42 78 43 79 43

L81 43

L82 39

C82 38 83 35 84 33

L86 31

L88 31

L90 32

L90 39

C91 48 91 51 87 56

C82 61 79 62 73 61

L67 61

L67 62

C66 63 67 66 68 69

C69 73 69 77 68 85

C68 92 68 100 68 105

C68 110 69 118 69 123

C69 132 69 132 72 136

C74 138 77 143 79 147

C81 153 81 155 80 159

C79 168 80 171 83 180

C86 187 86 188 86 200

C86 212 86 213 83 219

C78 229 77 234 77 242

C78 259 77 277 75 282

C73 286 62 296 57 297

C55 297 52 298 50 299

C46 300 46 300 43 297

Z

M58 283

C59 281 59 277 60 275

C60 272 61 267 61 264

C62 256 62 248 61 246

L60 245

L59 245

C58 246 56 262 57 268

C57 273 57 275 56 277

C55 279 54 281 55 283

L55 286

L56 286

C56 286 57 285 58 283

Z

"/>

<path fill="#ffffff" stroke="none" d="
"/>

</svg>

