<?xml version="1.0" standalone="no"?>

<!DOCTYPE svg PUBLIC "-//W3C//DTD SVG 20010904//EN"

 "http://www.w3.org/TR/2001/REC-SVG-20010904/DTD/svg10.dtd">

<svg version="1.0" xmlns="http://www.w3.org/2000/svg"

 width="414.000000pt" height="300.000000pt" viewBox="0 0 414.000000 300.000000"

 preserveAspectRatio="xMidYMid meet">

<path fill="#000000" stroke="none" d="
M360 297

C353 293 350 292 334 280

C327 277 320 272 317 270

C312 268 312 268 306 271

C303 273 299 274 298 274

C295 274 289 271 285 268

C279 262 257 246 254 245

C246 244 244 243 241 240

C240 238 237 234 236 232

C233 225 228 219 222 214

C219 212 214 209 212 206

C209 204 202 200 196 196

C184 189 177 183 173 174

C171 169 171 167 170 153

C170 144 170 135 170 134

C172 129 184 114 191 109

C194 106 202 98 209 92

C218 83 221 80 232 74

C244 67 244 67 253 67

C263 67 263 67 266 71

L269 74

L273 70

C281 62 287 62 299 69

C308 74 309 75 313 86

C315 90 317 92 329 99

C334 102 340 101 346 95

C349 93 352 91 354 90

C357 90 361 92 363 96

C364 99 364 109 363 120

C362 130 363 134 369 137

C379 143 385 154 385 164

C385 169 387 172 391 173

C397 174 400 177 402 188

C403 193 405 199 406 200

C406 202 408 210 410 218

C414 235 415 258 413 263

C412 264 410 269 410 272

C407 284 401 292 393 297

C388 300 387 300 377 300

C366 300 365 300 360 297

Z

M361 243

C361 241 361 240 360 239

C359 239 358 234 357 229

C356 225 354 218 353 215

C351 211 351 208 351 205

C352 200 352 200 345 193

C336 183 332 178 331 173

C329 166 332 156 338 148

C340 146 341 142 342 138

C343 135 344 131 345 128

C345 126 346 124 346 123

L346 121

L344 121

C343 121 340 122 337 123

C331 126 322 127 308 125

C296 123 268 122 266 123

C266 124 265 126 264 128

C262 135 258 139 251 143

C248 146 242 148 239 149

C236 150 234 152 233 152

C232 154 238 167 242 173

C245 178 248 181 251 183

C254 184 259 188 263 191

C266 194 269 197 270 197

C270 197 274 199 277 202

C287 209 306 221 312 222

C314 223 322 224 329 224

C335 225 342 225 343 226

C346 227 346 231 343 234

C341 237 341 237 343 239

C345 241 356 245 359 245

L361 245

L361 243

Z

M141 278

C134 275 131 273 126 268

C122 264 117 260 115 259

C113 258 107 253 101 248

C92 240 91 239 86 231

C81 219 79 218 73 218

C67 218 62 216 60 213

C57 208 46 197 41 194

C36 191 32 187 25 177

C23 174 22 172 21 172

L20 172

L20 174

C18 181 10 181 3 176

C1 173 0 172 0 169

C0 166 1 164 2 162

C3 160 6 155 8 149

C12 138 12 138 7 123

C0 101 1 94 8 72

C11 64 13 56 13 55

C13 54 12 50 10 47

C7 41 7 40 7 31

C7 22 7 20 9 15

C13 6 22 0 34 0

C42 0 43 1 50 7

C58 16 58 16 59 28

C59 34 61 42 61 44

C63 48 63 49 61 53

C60 55 59 59 59 61

C58 62 57 64 56 65

C52 68 58 83 63 83

C65 83 72 78 74 74

C75 72 75 69 74 64

C74 57 74 56 76 55

C77 53 78 53 80 54

C88 55 92 59 91 65

C90 67 90 72 89 76

C88 86 86 89 75 99

C67 106 67 106 67 112

C67 122 68 122 89 114

C101 109 103 109 108 110

C115 110 122 114 125 119

C135 131 142 141 147 149

C150 155 154 161 157 164

C161 167 165 173 168 179

C175 191 177 195 175 198

C173 202 168 200 161 192

C157 187 156 187 152 187

C146 187 142 184 140 178

C139 171 137 169 126 158

C121 153 116 146 114 143

C112 140 110 137 109 136

L108 136

L107 137

C106 138 105 143 104 148

C101 160 100 162 95 163

C87 165 87 170 94 174

C101 178 102 179 100 189

C99 196 99 198 100 202

C101 204 103 209 104 212

C110 228 140 259 156 265

C166 269 167 272 162 278

C159 281 158 281 153 281

C150 281 146 280 141 278

Z

"/>

<path fill="#ffffff" stroke="none" d="
"/>

</svg>

