<?xml version="1.0" standalone="no"?>

<!DOCTYPE svg PUBLIC "-//W3C//DTD SVG 20010904//EN"

 "http://www.w3.org/TR/2001/REC-SVG-20010904/DTD/svg10.dtd">

<svg version="1.0" xmlns="http://www.w3.org/2000/svg"

 width="212.000000pt" height="300.000000pt" viewBox="0 0 212.000000 300.000000"

 preserveAspectRatio="xMidYMid meet">

<path fill="#000000" stroke="none" d="
M102 298

C99 294 96 289 94 279

C94 275 92 265 90 258

C88 250 86 241 86 238

C86 227 84 214 82 208

C81 203 81 203 74 201

C66 199 57 194 55 191

C53 188 53 188 54 185

C55 184 57 181 59 178

C61 176 63 174 63 173

L63 172

L60 174

C59 174 57 176 56 177

C55 178 51 180 47 182

C42 184 37 186 36 187

C30 190 26 190 22 185

C20 183 15 179 12 176

C4 169 3 166 4 160

C4 156 4 155 2 154

C1 153 0 151 0 151

C0 149 5 144 10 141

C16 137 23 122 28 103

C30 94 30 92 29 88

C27 81 24 64 24 61

L24 58

L22 59

C16 60 14 60 11 56

C10 54 9 52 9 51

C9 49 17 42 26 37

C31 34 35 30 35 27

C35 23 38 17 42 12

C51 3 59 1 66 6

C68 7 70 8 71 8

C71 8 73 6 75 4

C78 1 79 0 82 0

C85 0 86 1 87 3

C88 5 89 5 94 5

C97 5 103 6 108 8

C114 9 119 10 123 10

C127 10 129 10 131 11

C132 12 137 13 140 14

C148 15 150 16 159 24

C167 32 168 33 170 43

C172 49 173 54 176 58

C178 62 181 68 183 72

C185 76 191 89 197 101

C207 121 211 131 212 139

C212 142 211 143 204 153

C195 164 195 164 195 172

C195 183 192 190 186 192

C182 194 177 194 175 192

L173 191

L170 194

C169 195 167 197 165 198

C163 199 161 200 161 202

C157 207 152 203 149 192

C147 184 145 180 139 175

C135 172 133 169 130 163

L127 156

L125 159

C124 163 124 164 125 170

C126 174 128 183 129 190

C130 203 130 205 125 205

C121 205 121 208 120 228

C120 237 120 250 119 255

C117 268 118 272 121 282

C126 295 124 298 112 300

C106 300 105 300 102 298

Z

M63 91

C64 86 66 80 67 78

C67 75 70 68 74 60

C80 47 81 45 79 43

L77 42

L74 44

C72 45 70 47 68 47

C64 48 61 51 61 53

C61 53 57 56 52 59

C48 63 44 66 43 66

C43 67 44 73 46 80

C48 90 49 92 52 96

C55 98 57 100 58 100

C59 100 61 96 63 91

Z

"/>

<path fill="#ffffff" stroke="none" d="
"/>

</svg>

