<?xml version="1.0" standalone="no"?>

<!DOCTYPE svg PUBLIC "-//W3C//DTD SVG 20010904//EN"

 "http://www.w3.org/TR/2001/REC-SVG-20010904/DTD/svg10.dtd">

<svg version="1.0" xmlns="http://www.w3.org/2000/svg"

 width="320.000000pt" height="300.000000pt" viewBox="0 0 320.000000 300.000000"

 preserveAspectRatio="xMidYMid meet">

<path fill="#000000" stroke="none" d="
M73 297

C69 295 62 293 59 292

C51 291 45 288 36 282

C27 276 18 272 12 271

C3 270 1 266 3 257

L4 254

L2 252

C1 251 0 249 0 247

L0 243

L3 242

L5 241

L5 240

L5 238

L7 238

C8 237 11 237 13 238

C15 239 19 239 22 239

C26 239 27 238 31 236

C33 234 36 231 38 230

C47 223 71 224 92 233

C101 236 101 236 106 235

C111 234 114 233 114 231

C114 231 110 227 104 223

C98 219 94 215 91 211

C85 202 81 199 67 194

C58 191 52 188 41 180

C33 175 26 170 26 169

C25 167 23 163 21 158

C20 153 17 147 16 145

C13 138 13 126 15 115

C16 110 17 103 18 99

C18 92 19 90 25 78

C34 61 35 57 35 50

C35 46 35 45 37 43

C39 41 39 41 38 36

C37 33 36 28 36 26

C36 18 40 9 45 5

C49 2 50 2 55 2

C61 2 73 5 77 7

C78 7 80 10 82 12

C85 16 85 16 84 29

C84 38 83 44 82 45

L81 48

L83 50

C85 53 93 55 107 57

C114 57 124 59 129 60

C136 61 139 61 140 60

L141 59

L136 53

C133 50 128 45 126 43

C122 40 122 40 114 42

C110 43 106 44 104 44

L102 43

L102 41

C102 38 109 29 114 26

C116 25 121 20 125 16

C134 5 136 5 147 4

C153 3 159 2 162 2

C167 0 176 0 179 1

C181 2 183 3 183 5

L184 7

L182 9

C180 11 179 11 172 12

L163 12

L163 14

C163 16 170 29 172 31

C174 32 178 34 182 36

C189 38 191 40 201 50

C207 56 215 63 217 65

C223 70 225 74 226 79

C227 81 229 87 232 92

C236 101 236 101 236 111

C235 117 234 123 233 125

C231 129 223 134 212 139

C208 141 205 143 205 144

C205 144 206 146 207 147

C208 148 211 151 213 154

C215 157 217 159 219 160

C222 160 225 163 225 164

C225 165 224 168 222 172

C221 175 218 180 216 184

C210 197 206 198 201 189

C199 186 197 182 197 179

C196 175 194 171 193 169

C191 166 181 159 168 153

C160 149 157 145 154 135

C149 119 150 117 158 109

L164 103

L163 103

C162 102 160 102 158 102

C153 101 150 98 146 88

C143 81 142 81 139 81

C137 81 133 82 130 83

C126 83 117 84 110 85

C103 85 96 85 94 86

L92 86

L92 93

C91 98 90 101 88 107

C85 113 84 116 83 121

C83 131 84 134 91 140

C105 152 116 162 117 165

C118 166 120 170 120 174

C121 178 123 181 126 186

C129 190 134 196 138 201

C141 205 145 211 146 213

C149 217 149 217 161 217

C167 218 174 218 175 219

C179 219 180 222 179 226

C178 228 177 229 177 229

L177 230

L179 230

C180 230 184 229 187 228

C202 223 229 219 254 217

C277 216 278 216 282 217

C285 219 288 219 292 219

C299 218 299 218 303 214

C306 211 308 210 310 210

C313 210 315 211 317 218

C322 230 321 232 314 237

C309 240 308 241 307 244

C306 249 302 251 296 251

C290 250 290 251 289 256

C288 258 287 259 286 259

C285 260 274 261 262 261

C231 262 233 262 203 279

C195 283 187 288 184 289

C181 290 174 290 162 290

C146 291 141 291 123 294

C112 296 101 298 99 299

C97 300 92 300 88 300

C82 300 79 299 73 297

Z

M31 261

C31 260 33 258 34 255

L35 251

L35 250

C34 249 28 252 24 255

L21 257

L23 260

C26 262 29 263 31 261

Z

"/>

<path fill="#ffffff" stroke="none" d="
"/>

</svg>

