<?xml version="1.0" standalone="no"?>

<!DOCTYPE svg PUBLIC "-//W3C//DTD SVG 20010904//EN"

 "http://www.w3.org/TR/2001/REC-SVG-20010904/DTD/svg10.dtd">

<svg version="1.0" xmlns="http://www.w3.org/2000/svg"

 width="300.000000pt" height="239.000000pt" viewBox="0 0 300.000000 239.000000"

 preserveAspectRatio="xMidYMid meet">

<path fill="#000000" stroke="none" d="
M174 237

C162 235 161 235 158 232

C155 230 154 229 150 229

C146 229 145 229 142 224

C140 222 137 220 134 219

C132 218 128 216 126 214

C122 211 117 209 109 208

C105 207 99 206 95 204

C90 202 84 201 75 199

C61 198 53 196 30 188

C13 183 10 181 9 173

C7 162 8 160 13 152

C14 150 14 149 12 145

C10 142 9 138 8 136

C7 133 6 129 4 127

C1 120 0 114 1 112

C2 110 6 108 12 108

C17 107 19 105 22 100

C25 94 28 91 32 89

C34 88 38 85 42 82

C45 79 51 74 56 71

C63 66 68 61 83 45

C93 35 103 24 104 23

C108 17 119 6 124 3

C127 1 129 1 135 1

C139 1 144 1 147 2

C149 3 156 3 163 4

C172 4 177 5 180 6

C183 7 187 8 189 8

C192 8 193 9 201 17

C206 22 210 26 212 26

C213 27 218 28 225 30

C231 32 237 34 240 34

C246 37 247 36 252 33

C256 30 259 29 263 31

C270 35 273 42 275 57

C277 74 277 78 272 84

C269 89 268 94 270 99

C271 100 275 109 278 117

C281 126 285 135 286 137

C288 140 289 144 289 146

C289 150 290 152 293 156

C298 163 299 166 299 172

C299 180 296 185 286 189

C280 193 270 194 262 192

C259 191 256 191 255 192

C254 192 252 197 249 203

C247 209 244 214 243 216

C242 217 235 221 224 227

C210 234 204 236 198 237

C193 238 189 239 189 239

C188 239 181 238 174 237

Z

M67 179

L81 179

L81 178

L81 177

L77 176

C70 173 53 170 50 170

C49 171 45 170 42 169

C38 168 33 167 30 167

L24 167

L24 168

C24 169 27 171 33 174

C43 179 46 180 50 179

C52 179 59 179 67 179

Z

M105 155

C114 152 136 148 146 147

C151 147 155 146 158 144

C162 142 169 139 179 136

C183 135 188 135 199 135

C219 134 224 136 237 147

C246 154 246 154 255 153

C264 153 269 152 271 150

L272 148

L271 146

C271 145 265 140 258 135

C246 126 240 119 232 108

C231 106 228 103 227 102

C224 99 214 96 203 95

C190 94 183 92 174 84

C167 79 162 76 155 75

C151 74 149 72 146 65

C144 61 141 58 140 57

C137 56 132 57 124 63

C120 65 114 70 109 73

C105 75 101 79 99 81

C97 85 93 87 86 88

C76 90 61 98 44 110

C41 112 36 115 34 116

C31 117 28 119 27 121

C24 124 24 125 24 130

C24 139 27 149 30 151

C32 153 35 153 56 153

C74 154 82 154 85 155

C91 157 97 157 105 155

Z

"/>

<path fill="#ffffff" stroke="none" d="
"/>

</svg>

