<?xml version="1.0" standalone="no"?>

<!DOCTYPE svg PUBLIC "-//W3C//DTD SVG 20010904//EN"

 "http://www.w3.org/TR/2001/REC-SVG-20010904/DTD/svg10.dtd">

<svg version="1.0" xmlns="http://www.w3.org/2000/svg"

 width="324.000000pt" height="300.000000pt" viewBox="0 0 324.000000 300.000000"

 preserveAspectRatio="xMidYMid meet">

<path fill="#000000" stroke="none" d="
M40 299

C39 299 38 296 38 294

L36 290

L34 290

C33 290 29 290 27 291

C23 291 22 291 21 289

C20 288 19 285 19 282

C19 279 20 277 22 274

C26 270 26 270 24 263

C22 257 22 254 22 246

C23 233 24 231 30 228

C36 226 36 227 42 213

C45 207 49 204 57 199

C64 196 71 187 78 177

C81 172 85 167 87 166

C89 165 91 164 91 163

L91 162

L84 157

C74 150 71 149 62 151

C52 153 51 152 42 148

C35 145 33 143 26 134

C21 129 17 124 16 123

C13 121 7 111 5 106

C5 104 4 99 4 97

C4 94 3 89 2 86

C-1 78 -1 69 2 63

C4 59 6 58 10 56

C14 54 16 54 30 54

C39 55 47 55 50 56

C54 57 60 58 67 58

C78 58 78 58 88 68

C96 76 100 82 102 89

C103 90 105 92 108 93

C115 97 120 101 128 113

L135 124

L136 124

C137 124 138 122 139 119

C139 117 142 112 145 108

C151 99 154 92 154 85

C154 80 154 79 159 73

C162 70 164 66 165 65

C167 55 168 52 173 46

C177 42 182 35 185 28

C195 9 203 1 216 0

C230 -1 250 9 256 20

C258 25 258 29 256 42

C255 55 248 68 241 74

C235 79 226 95 225 104

C225 108 224 111 223 112

C223 113 215 117 203 121

C198 123 191 126 189 128

C183 132 177 139 178 141

C179 144 193 145 207 141

C215 139 221 140 232 146

C237 149 245 152 249 153

C252 154 258 156 261 158

C264 159 267 160 272 160

C280 160 293 163 300 168

C309 173 315 179 320 189

C324 198 324 198 324 211

C324 224 323 232 319 237

C317 240 314 242 304 247

C296 251 289 254 287 255

C281 256 267 256 261 255

C255 253 230 244 227 242

C220 238 213 232 209 227

C205 222 203 221 199 219

C192 217 185 213 182 209

C181 208 179 204 177 200

C174 194 172 192 166 190

C160 189 156 189 155 190

C155 191 154 194 154 197

C153 202 152 203 148 207

C145 210 142 215 141 217

C136 227 131 231 120 233

C113 234 112 236 109 242

C107 249 104 255 100 262

C98 265 95 270 93 274

C91 279 90 281 86 284

C81 288 73 291 65 291

C62 291 56 295 53 298

C52 300 43 301 40 299

Z

"/>

<path fill="#ffffff" stroke="none" d="
"/>

</svg>

