<?xml version="1.0" standalone="no"?>

<!DOCTYPE svg PUBLIC "-//W3C//DTD SVG 20010904//EN"

 "http://www.w3.org/TR/2001/REC-SVG-20010904/DTD/svg10.dtd">

<svg version="1.0" xmlns="http://www.w3.org/2000/svg"

 width="401.000000pt" height="300.000000pt" viewBox="0 0 401.000000 300.000000"

 preserveAspectRatio="xMidYMid meet">

<path fill="#010101" stroke="none" d="
M79 298

C68 297 61 296 54 294

C44 291 44 291 32 292

C25 293 19 293 18 294

C16 294 13 293 9 291

C2 287 -1 283 2 280

C3 279 4 277 4 276

C7 264 8 261 12 258

C15 255 17 254 20 254

C27 254 36 249 44 241

C48 237 53 233 56 232

C58 230 63 228 67 226

C73 223 77 221 89 218

C96 216 110 216 118 217

C124 218 126 218 134 216

C146 213 158 210 171 205

C179 203 183 202 184 203

C185 203 186 207 188 211

C191 222 189 221 214 222

C239 223 264 226 276 229

C282 231 284 231 297 231

C306 230 314 230 318 231

C321 232 330 233 337 234

C345 235 354 237 357 238

C361 239 369 241 375 241

C381 242 389 243 391 244

C397 245 401 250 401 254

C401 258 400 259 397 261

C395 262 395 264 395 269

C395 275 395 276 393 280

C391 282 389 285 387 286

C386 287 382 290 378 293

C371 300 369 300 363 297

C357 294 354 293 352 296

C351 297 349 297 343 297

C338 296 332 296 329 295

C311 292 301 290 289 287

C272 283 267 283 253 287

C236 290 232 291 213 288

C205 287 194 286 190 285

C186 285 179 284 175 283

C164 280 162 280 150 284

C135 288 132 289 126 293

C123 295 119 297 113 298

C103 300 99 300 79 298

Z

M48 276

C49 276 50 274 50 273

C49 272 49 270 48 268

C48 265 48 263 47 262

L47 260

L45 260

C42 260 40 262 34 270

C31 273 31 273 33 275

C36 278 46 279 48 276

Z

M367 273

C370 271 375 268 382 263

L384 261

L383 260

C382 259 381 258 379 258

C378 258 373 257 368 256

C359 254 356 255 354 258

C354 260 352 261 349 261

C345 262 328 261 323 259

C322 258 318 258 315 258

L311 259

L310 260

L310 262

L313 264

C318 267 331 270 340 271

C345 271 349 272 353 274

C358 276 361 276 367 273

Z

M237 214

C236 212 236 210 237 202

C237 194 237 193 235 190

C231 186 218 180 208 177

C187 171 187 171 183 167

C177 162 175 149 179 144

C182 139 188 127 187 126

C187 125 185 124 184 123

C182 123 178 121 175 119

C172 117 168 115 166 115

C158 113 156 111 152 98

C148 88 148 86 148 80

L149 73

L145 72

C142 71 138 69 133 65

C130 63 127 62 124 61

C117 60 114 58 112 52

C111 45 108 43 101 41

C95 39 94 38 94 36

C94 31 99 27 110 25

C112 24 114 23 115 20

C119 15 121 13 126 10

C129 8 133 6 136 4

C142 0 143 0 152 0

C166 0 171 4 164 10

L162 13

L163 14

C170 18 172 20 175 26

C176 30 178 34 178 36

C178 40 179 40 187 42

C191 43 195 45 197 45

C199 46 203 47 205 48

C207 49 212 51 215 53

C218 55 224 58 227 61

C239 67 244 70 256 80

C257 81 261 86 263 91

C266 97 268 101 269 111

C271 119 271 125 271 127

C269 134 261 141 241 151

C234 155 228 158 227 159

L226 161

L227 162

C228 162 230 163 231 163

C232 164 236 166 240 167

C244 169 250 171 254 171

C261 173 264 175 265 181

C265 183 265 185 263 187

C260 191 257 197 257 201

C256 207 254 210 250 213

C245 217 240 217 237 214

Z

"/>

<path fill="#ffffff" stroke="none" d="
"/>

</svg>

