<?xml version="1.0" standalone="no"?>

<!DOCTYPE svg PUBLIC "-//W3C//DTD SVG 20010904//EN"

 "http://www.w3.org/TR/2001/REC-SVG-20010904/DTD/svg10.dtd">

<svg version="1.0" xmlns="http://www.w3.org/2000/svg"

 width="292.000000pt" height="300.000000pt" viewBox="0 0 292.000000 300.000000"

 preserveAspectRatio="xMidYMid meet">

<path fill="#000000" stroke="none" d="
M265 299

C259 297 257 295 257 292

C257 290 260 288 264 288

C266 288 269 287 271 286

C274 285 274 285 274 274

C273 261 272 259 266 247

C261 237 261 236 261 230

C261 223 261 222 257 215

C255 211 254 206 253 201

C252 192 251 190 246 188

C244 187 241 185 240 182

C238 180 236 177 234 176

C232 175 228 172 225 168

C219 162 221 163 208 165

C202 166 199 164 196 159

C194 157 191 153 188 150

C186 147 184 144 183 142

C183 141 182 138 182 137

L181 135

L178 135

C175 135 174 136 170 140

C166 144 166 144 166 152

C166 160 166 160 160 164

C157 166 153 169 151 171

C146 175 148 174 130 172

C121 171 119 169 115 160

C112 152 112 136 115 132

C116 129 116 129 115 124

C114 122 113 119 113 118

C113 117 112 115 110 113

C108 111 106 107 105 105

C104 102 103 100 102 100

C100 100 92 91 88 84

C84 76 84 76 74 77

C68 77 63 77 63 77

C62 77 61 79 59 81

C58 83 55 87 52 88

C49 91 48 92 46 98

C45 102 44 106 43 108

C43 113 38 121 35 122

C34 123 30 129 26 138

C18 154 18 157 21 166

C23 172 24 178 22 180

C21 181 15 183 13 182

C11 181 0 162 0 159

C0 157 1 155 2 153

C4 150 8 137 9 130

C10 129 12 125 13 122

C19 113 21 108 21 100

C21 96 20 88 19 83

C16 64 16 64 20 57

C23 50 27 46 32 46

C33 46 34 45 35 44

C36 43 37 42 37 42

C38 42 40 40 43 39

C48 35 53 34 64 34

C70 34 87 32 92 30

L94 30

L94 26

L94 22

L90 22

C87 22 85 22 84 21

C83 20 79 14 79 10

C78 8 78 7 83 4

C86 1 88 0 91 0

C96 0 104 4 107 8

C110 12 114 14 119 14

C122 14 128 16 131 19

C134 21 136 27 136 32

C136 36 133 46 130 48

C130 49 129 51 128 52

L127 55

L126 55

C126 55 125 55 125 54

C124 53 121 53 116 54

C113 55 112 56 111 58

C111 60 110 64 109 68

C108 71 107 75 107 76

C108 77 111 80 114 83

C117 85 121 88 123 90

C127 94 127 94 127 100

C127 105 127 106 125 108

C121 111 121 112 125 116

C128 118 129 118 134 119

C139 119 142 119 144 121

C147 122 149 123 150 122

C152 122 154 122 156 123

C160 125 162 125 164 124

C165 123 167 122 169 122

C176 120 178 119 180 109

C182 103 185 99 191 98

C199 97 204 99 211 104

C218 108 218 108 225 107

C231 105 233 105 235 106

C239 108 239 108 252 125

C256 131 261 137 265 139

C275 147 276 148 276 155

C276 161 276 161 280 164

C282 166 285 170 287 174

C291 182 291 188 288 203

C286 213 286 213 288 232

C288 243 290 255 290 259

C291 262 291 272 292 281

C292 300 293 300 279 300

C274 300 267 299 265 299

Z

M141 156

C143 153 145 147 145 141

L145 138

L143 138

C142 139 139 139 137 139

C132 139 132 141 134 150

L136 158

L138 158

C138 158 140 157 141 156

Z

"/>

<path fill="#ffffff" stroke="none" d="
"/>

</svg>

