<?xml version="1.0" standalone="no"?>

<!DOCTYPE svg PUBLIC "-//W3C//DTD SVG 20010904//EN"

 "http://www.w3.org/TR/2001/REC-SVG-20010904/DTD/svg10.dtd">

<svg version="1.0" xmlns="http://www.w3.org/2000/svg"

 width="289.000000pt" height="300.000000pt" viewBox="0 0 289.000000 300.000000"

 preserveAspectRatio="xMidYMid meet">

<path fill="#000000" stroke="none" d="
M144 299

C142 298 138 297 137 296

C135 295 131 294 128 294

C124 293 122 292 120 289

C116 285 114 281 115 277

L116 274

L114 273

C114 273 111 273 108 273

C104 273 103 273 99 270

C97 268 94 267 92 267

C89 267 85 263 84 259

C83 257 81 253 79 251

C78 248 76 244 75 243

C75 242 73 239 72 236

C70 234 68 231 67 229

C65 224 64 223 60 221

C57 219 31 214 30 215

L30 215

L31 216

C33 218 31 222 28 224

C26 225 17 225 12 223

C3 219 -3 204 2 200

C3 199 5 195 6 192

C9 187 9 186 8 182

C7 178 7 178 10 171

C12 167 14 163 14 162

C14 162 17 156 20 149

C24 140 26 136 26 131

L27 125

L26 124

L24 124

L24 122

L25 121

L21 119

C15 115 18 107 25 108

C26 109 32 109 37 110

C45 110 47 110 50 108

C55 105 59 105 63 108

C67 111 69 110 73 106

C76 101 79 100 83 100

C88 100 93 98 98 93

C101 91 104 89 106 89

C107 88 113 83 120 75

C132 64 133 63 135 63

C137 64 141 64 144 65

C146 65 149 66 150 66

C151 67 156 68 161 69

C165 70 172 72 174 72

C180 74 181 74 184 70

C186 67 186 67 197 67

C207 67 207 67 209 69

C211 74 214 73 219 67

L222 62

L223 62

C226 63 234 80 235 87

C236 91 238 98 239 101

C242 108 243 109 252 116

C260 122 262 125 267 132

C272 140 277 146 285 152

C291 157 290 159 281 168

C273 176 273 176 273 182

C274 186 275 190 275 192

C277 198 276 201 273 203

C271 205 269 207 269 209

C268 215 257 232 250 240

C244 248 239 257 239 262

C239 263 240 266 242 268

C247 275 246 278 239 284

C236 287 232 289 230 290

C229 290 226 290 224 291

C222 291 218 292 215 293

C212 293 207 294 205 296

C202 297 199 298 197 298

C190 299 149 300 144 299

Z

M167 261

C174 258 184 255 193 254

L200 254

L199 250

C198 243 198 240 201 238

C205 235 211 234 218 237

C222 239 225 239 226 238

C228 237 241 224 247 215

C257 202 259 198 260 187

C261 181 262 177 263 176

L264 174

L262 172

C261 170 260 169 260 168

L260 167

L262 167

C266 165 267 155 264 152

C261 149 241 135 233 130

L227 127

L224 129

C222 131 222 131 215 130

C211 129 205 128 202 128

C199 128 196 127 195 127

C194 126 191 126 186 127

C181 128 178 128 177 127

C176 127 176 125 176 122

L177 117

L175 116

C174 115 172 115 170 115

C169 115 163 114 158 113

C149 111 149 111 139 115

C130 120 129 120 116 121

C105 122 102 123 100 124

C98 126 96 126 92 124

C88 122 86 123 82 128

C81 130 75 135 70 139

C65 142 61 146 60 147

C60 147 61 150 61 152

C64 158 65 161 62 164

C60 165 58 169 57 171

C55 173 53 177 52 179

L51 182

L54 185

C57 188 58 189 58 193

C58 196 59 197 65 203

C68 206 72 209 72 209

C74 209 80 220 83 227

C86 233 92 244 95 250

C96 251 99 253 103 254

C106 254 110 256 112 257

C116 258 119 258 127 256

C130 255 134 254 136 254

L139 254

L139 252

L139 251

L142 251

L144 252

L144 250

L144 249

L146 249

C148 249 153 254 154 258

C154 260 155 262 155 263

L156 265

L159 264

C160 264 164 263 167 261

Z

M65 56

C54 55 47 53 44 51

C40 50 35 50 30 51

C26 53 20 53 18 51

C17 50 17 46 17 43

C18 34 20 31 27 30

C32 30 37 28 37 27

C38 25 46 20 51 19

C53 19 57 18 61 16

C65 15 69 13 72 13

C74 12 77 11 78 11

C81 9 87 9 92 11

C97 12 103 12 105 10

C108 8 134 0 138 0

C140 0 141 1 143 4

C145 8 145 8 163 8

C177 8 182 8 188 9

C194 11 195 11 205 10

C210 9 220 8 227 8

C234 8 241 7 243 7

C247 5 251 6 253 11

C254 14 257 17 258 19

C264 25 263 30 256 35

C244 43 242 44 227 44

C219 45 207 45 200 45

C193 46 186 46 184 47

C182 47 178 48 176 48

C170 48 152 52 149 54

C147 55 145 55 130 54

C121 53 111 53 109 52

C104 52 102 52 97 55

C91 58 89 58 81 58

C76 58 69 57 65 56

Z

M43 39

L43 37

L42 36

C40 36 37 38 37 39

L37 40

L39 40

C40 41 41 41 42 41

L43 40

L43 39

Z

M243 28

L246 27

L244 25

C242 24 239 24 232 24

C223 24 219 25 209 27

L205 28

L207 29

C211 30 239 30 243 28

Z

"/>

<path fill="#ffffff" stroke="none" d="
"/>

</svg>

