<?xml version="1.0" standalone="no"?>

<!DOCTYPE svg PUBLIC "-//W3C//DTD SVG 20010904//EN"

 "http://www.w3.org/TR/2001/REC-SVG-20010904/DTD/svg10.dtd">

<svg version="1.0" xmlns="http://www.w3.org/2000/svg"

 width="175.000000pt" height="300.000000pt" viewBox="0 0 175.000000 300.000000"

 preserveAspectRatio="xMidYMid meet">

<path fill="#000000" stroke="none" d="
M95 298

C91 298 86 296 83 295

C79 293 77 293 62 292

C45 292 45 292 37 287

C32 285 29 282 29 282

C28 281 28 279 27 278

L26 275

L18 274

C9 273 6 272 3 266

C0 261 -1 250 1 245

C3 240 5 238 14 234

C22 231 26 230 32 233

C38 235 41 234 46 231

C51 228 53 228 60 227

C70 226 73 227 77 231

C79 234 80 235 83 233

C84 231 87 231 96 231

C105 231 107 231 113 234

C116 235 122 236 126 237

C129 238 134 239 137 240

C140 241 141 241 148 239

C152 238 157 237 158 237

C163 237 166 241 168 248

C168 252 170 256 171 258

C174 263 173 274 170 278

C167 281 152 289 149 289

C148 289 145 288 142 287

C135 283 132 283 127 289

C117 299 115 300 108 300

C104 300 98 299 95 298

Z

M133 192

C133 191 132 190 132 188

C132 187 131 184 130 182

C128 180 128 177 128 171

C127 164 127 164 122 157

C117 149 114 145 112 141

C112 140 111 138 111 137

L110 136

L94 143

C77 150 69 153 63 152

C60 151 56 152 52 152

C49 153 42 154 37 154

L28 155

L27 151

C27 146 30 135 33 130

C35 127 35 127 33 122

C26 108 24 102 24 96

C24 92 23 89 21 85

C19 80 19 78 19 71

C19 62 20 58 24 55

L26 53

L25 51

C25 50 23 46 22 42

C21 36 21 34 22 30

C23 27 24 23 26 20

C28 18 29 16 29 15

C29 12 31 4 33 2

C36 -1 43 -1 47 3

C48 5 50 6 50 6

C57 6 66 13 74 25

C79 32 84 36 88 36

C89 36 91 36 93 37

L96 38

L96 39

L96 40

L90 40

L84 41

L84 44

C84 49 83 52 79 56

L77 58

L80 64

C84 72 87 80 87 85

L87 88

L92 88

C97 89 100 91 103 97

C104 101 104 101 110 101

C116 101 121 103 123 107

C124 108 127 114 129 119

C133 133 136 138 143 151

C150 162 152 164 163 168

C166 168 170 170 172 172

C174 174 175 175 175 178

C175 186 166 190 140 192

C136 193 134 193 133 192

Z

"/>

<path fill="#ffffff" stroke="none" d="
"/>

</svg>

